<svg width="48" height="48" viewBox="0 0 48 48" fill="none" xmlns="http://www.w3.org/2000/svg">
<mask id="mask0_704_14801" style="mask-type:alpha" maskUnits="userSpaceOnUse" x="0" y="0" width="48" height="48">
<circle cx="24" cy="24" r="24" fill="#C4C4C4"/>
</mask>
<g mask="url(#mask0_704_14801)">
<circle cx="24" cy="24" r="24" fill="#FFDA44"/>
<path d="M8.81971 34.7506L1.77803 43.002C1.32913 43.527 1.10167 44.2059 1.14359 44.8955C1.18551 45.585 1.49354 46.2313 2.00274 46.6981V46.6981C2.39551 47.0604 2.88822 47.2959 3.41674 47.3742C3.94526 47.4525 4.4851 47.3699 4.966 47.1371C8.55299 45.4066 16.7875 41.3954 16.6237 41.1224C16.4998 40.9123 14.6496 37.7223 13.1585 35.1454C12.9448 34.7759 12.6456 34.463 12.2858 34.2332C11.9261 34.0033 11.5165 33.8631 11.0914 33.8245C10.6662 33.7858 10.238 33.8497 9.84273 34.0109C9.44744 34.172 9.0966 34.4257 8.81971 34.7506V34.7506Z" fill="#ECECEC"/>
<path d="M21.5042 42.555L5.4719 47.7842C4.76647 48.0141 3.99863 47.9546 3.33707 47.6187C2.67551 47.2828 2.17436 46.698 1.94371 45.9928V45.9928C1.82867 45.643 1.78384 45.2739 1.81177 44.9068C1.83971 44.5396 1.93986 44.1815 2.10649 43.8532C2.27312 43.5248 2.50295 43.2325 2.78278 42.9932C3.06262 42.7538 3.38696 42.5721 3.73721 42.4584L19.7758 37.2354C20.4809 37.0055 21.2485 37.0651 21.9097 37.4011C22.5709 37.737 23.0717 38.3217 23.3018 39.0268V39.0268C23.4155 39.3765 23.4592 39.7451 23.4304 40.1117C23.4016 40.4783 23.3009 40.8356 23.1339 41.1633C22.967 41.4909 22.7371 41.7825 22.4575 42.0212C22.1778 42.26 21.8539 42.4414 21.5042 42.555V42.555Z" fill="#FBC39D"/>
<path d="M38.0305 34.7506L45.0722 43.002C45.5206 43.5273 45.7478 44.206 45.7059 44.8954C45.6639 45.5848 45.3562 46.231 44.8475 46.6981V46.6981C44.4544 47.0605 43.9613 47.2962 43.4325 47.3745C42.9036 47.4528 42.3634 47.37 41.8822 47.1371C38.2973 45.4066 30.0627 41.3954 30.2265 41.1224C30.3504 40.9123 32.2006 37.7223 33.6917 35.1454C33.9054 34.7759 34.2047 34.463 34.5644 34.2332C34.9241 34.0033 35.3338 33.8631 35.7589 33.8245C36.184 33.7858 36.6122 33.8497 37.0075 34.0109C37.4028 34.172 37.7537 34.4257 38.0305 34.7506Z" fill="#ECECEC"/>
<path d="M25.3458 42.5551L41.3781 47.7844C42.0832 48.0142 42.8508 47.9546 43.512 47.6187C44.1732 47.2828 44.6739 46.698 44.9041 45.993V45.993C45.0192 45.6433 45.0642 45.2744 45.0364 44.9073C45.0086 44.5402 44.9086 44.1822 44.7422 43.8539C44.5757 43.5255 44.3461 43.2332 44.0665 42.9938C43.7869 42.7543 43.4628 42.5724 43.1127 42.4585L27.0805 37.2271C26.7309 37.1138 26.3625 37.0705 25.9962 37.0996C25.6299 37.1288 25.2729 37.2298 24.9456 37.3969C24.6184 37.5641 24.3273 37.794 24.0889 38.0737C23.8506 38.3534 23.6696 38.6773 23.5565 39.0269V39.0269C23.3259 39.7321 23.3849 40.4999 23.7205 41.1616C24.056 41.8232 24.6407 42.3245 25.3458 42.5551V42.5551Z" fill="#FBC39D"/>
<path d="M34.2016 36.0441L13.7969 35.624V33.0073C13.7969 28.7231 18.1546 24.7266 22.4367 24.7266H25.6562C29.4616 24.7266 34.2037 28.7504 34.2037 32.5558L34.2016 36.0441Z" fill="#ECECEC"/>
<path d="M25.4464 19.8945H22.439C22.1481 19.8951 21.8693 20.0111 21.6637 20.217C21.4582 20.4229 21.3428 20.7019 21.3428 20.9929V25.6929C21.3428 26.3814 21.6162 27.0416 22.103 27.5284C22.5898 28.0152 23.2501 28.2887 23.9385 28.2887C24.6269 28.2887 25.2872 28.0152 25.774 27.5284C26.2608 27.0416 26.5342 26.3814 26.5342 25.6929V20.9929C26.5343 20.7034 26.42 20.4256 26.2163 20.2199C26.0126 20.0142 25.7359 19.8973 25.4464 19.8945V19.8945Z" fill="#FBC39D"/>
<path d="M21.3428 24.7246C21.3428 24.7246 21.5528 26.2535 23.9385 26.2535C26.3242 26.2535 26.5342 24.7246 26.5342 24.7246H21.3428Z" fill="#F9AC7F"/>
<path d="M16.6255 12.4264C16.2228 12.4105 15.8246 12.5153 15.482 12.7275C15.1393 12.9397 14.868 13.2495 14.7029 13.6171C14.5377 13.9847 14.4862 14.3933 14.5551 14.7904C14.624 15.1875 14.81 15.5549 15.0894 15.8454C15.3687 16.1359 15.7285 16.3362 16.1226 16.4206C16.5166 16.505 16.9269 16.4696 17.3007 16.319C17.6745 16.1684 17.9947 15.9095 18.2202 15.5754C18.4457 15.2414 18.5661 14.8476 18.566 14.4446C18.5761 13.9197 18.3774 13.4122 18.0135 13.0338C17.6497 12.6553 17.1504 12.4369 16.6255 12.4264Z" fill="#F9AC7F"/>
<path d="M31.2787 12.4263C30.8761 12.4108 30.478 12.516 30.1357 12.7285C29.7933 12.941 29.5223 13.2509 29.3575 13.6186C29.1926 13.9862 29.1415 14.3948 29.2106 14.7917C29.2797 15.1887 29.466 15.5559 29.7454 15.8462C30.0248 16.1365 30.3846 16.3366 30.7787 16.4208C31.1727 16.505 31.5829 16.4695 31.9565 16.3188C32.3302 16.1681 32.6503 15.9092 32.8757 15.5752C33.101 15.2412 33.2214 14.8474 33.2213 14.4445C33.2263 14.1844 33.18 13.9259 33.0851 13.6837C32.9902 13.4415 32.8485 13.2204 32.6681 13.033C32.4877 12.8456 32.2721 12.6955 32.0337 12.5914C31.7953 12.4873 31.5388 12.4312 31.2787 12.4263V12.4263Z" fill="#F9AC7F"/>
<path d="M23.3461 25.2371L23.3335 25.2497C23.5436 25.2665 23.7368 25.2791 23.9426 25.2791C24.5471 25.2786 25.1491 25.201 25.734 25.0481V25.0313C28.9051 24.1913 31.251 21.2133 31.251 17.6578V8.74916C31.251 4.54894 27.9769 5.21887 23.9363 5.21887C19.8957 5.21887 16.6216 4.54894 16.6216 8.74916V17.6599C16.6258 21.6522 19.5806 24.9221 23.3461 25.2371Z" fill="#FBC39D"/>
<path d="M29.779 14.7365V17.1432H27.1853C27.1853 17.1432 26.5406 15.4064 23.9386 15.4064C21.3365 15.4064 20.6939 17.1432 20.6939 17.1432H18.0961V14.7365C18.0961 13.7893 17.2077 13.4764 16.626 13.3735V17.6661C16.626 21.6563 19.5829 24.9283 23.3463 25.2454L23.3337 25.258C23.5437 25.2748 23.737 25.2874 23.9428 25.2874C24.1486 25.2874 24.3628 25.2748 24.5518 25.258L24.5392 25.2454C28.3005 24.9283 31.2596 21.6584 31.2596 17.6661V13.3672C30.6673 13.4764 29.779 13.783 29.779 14.7365Z" fill="#1D1D1B"/>
<path d="M27.3158 12.427C27.3121 12.5279 27.2788 12.6254 27.2201 12.7075C27.1613 12.7896 27.0797 12.8526 26.9854 12.8887C26.8912 12.9247 26.7884 12.9322 26.6898 12.9103C26.5913 12.8884 26.5014 12.8379 26.4313 12.7653C26.3612 12.6926 26.3141 12.601 26.2957 12.5017C26.2773 12.4025 26.2886 12.3 26.328 12.2071C26.3674 12.1141 26.4333 12.0349 26.5175 11.9791C26.6016 11.9234 26.7003 11.8936 26.8013 11.8936C26.8701 11.8946 26.9381 11.9093 27.0013 11.9368C27.0644 11.9642 27.1216 12.0038 27.1694 12.0534C27.2172 12.1029 27.2547 12.1615 27.2799 12.2256C27.305 12.2897 27.3172 12.3581 27.3158 12.427V12.427Z" fill="black"/>
<path d="M27.7711 10.7295H25.9839C25.876 10.7295 25.7886 10.8169 25.7886 10.9248V11.3889C25.7886 11.4968 25.876 11.5842 25.9839 11.5842H27.7711C27.8789 11.5842 27.9664 11.4968 27.9664 11.3889V10.9248C27.9664 10.8169 27.8789 10.7295 27.7711 10.7295Z" fill="black"/>
<path d="M21.2461 18.3887H26.3116C26.3116 18.3887 25.8642 20.115 23.7788 20.115C21.6934 20.115 21.2461 18.3887 21.2461 18.3887Z" fill="#E6E6E6"/>
<path d="M24.5348 23.8409L24.5474 23.8535C24.3479 23.8724 24.1442 23.8829 23.9384 23.8829C23.7326 23.8829 23.531 23.8724 23.3293 23.8535L23.3419 23.8409C19.5806 23.5259 16.6216 20.2539 16.6216 16.2637V17.6602C16.6216 21.6505 19.5785 24.9224 23.3419 25.2396L23.3293 25.2522C23.5394 25.269 23.7326 25.2816 23.9384 25.2816C24.1442 25.2816 24.3584 25.269 24.5474 25.2522L24.5348 25.2396C28.2961 24.9224 31.2552 21.6526 31.2552 17.6602V16.2637C31.2531 20.2539 28.2961 23.5259 24.5348 23.8409Z" fill="#111110"/>
<path d="M21.2987 12.427C21.295 12.5279 21.2617 12.6254 21.203 12.7075C21.1442 12.7896 21.0626 12.8526 20.9684 12.8887C20.8741 12.9247 20.7713 12.9322 20.6727 12.9103C20.5742 12.8884 20.4843 12.8379 20.4142 12.7653C20.3441 12.6926 20.297 12.601 20.2786 12.5017C20.2602 12.4025 20.2715 12.3 20.3109 12.2071C20.3503 12.1141 20.4162 12.0349 20.5004 11.9791C20.5846 11.9234 20.6833 11.8936 20.7842 11.8936C20.8531 11.8946 20.921 11.9093 20.9842 11.9368C21.0473 11.9642 21.1045 12.0038 21.1523 12.0534C21.2001 12.1029 21.2376 12.1615 21.2628 12.2256C21.2879 12.2897 21.3001 12.3581 21.2987 12.427V12.427Z" fill="black"/>
<path d="M21.754 10.7295H19.9668C19.8589 10.7295 19.7715 10.8169 19.7715 10.9248V11.3889C19.7715 11.4968 19.8589 11.5842 19.9668 11.5842H21.754C21.8619 11.5842 21.9493 11.4968 21.9493 11.3889V10.9248C21.9493 10.8169 21.8619 10.7295 21.754 10.7295Z" fill="black"/>
<path d="M29.3212 2.29136C27.3197 2.00995 24.2032 1.97635 21.9288 3.84544C21.8775 3.88916 21.8291 3.93616 21.7839 3.98615H19.9862C18.1297 3.98615 16.626 5.30082 16.626 6.92631V17.0068C16.7091 17.0055 16.7911 16.9877 16.8673 16.9545C16.9435 16.9213 17.0124 16.8734 17.0699 16.8134C17.1275 16.7535 17.1727 16.6828 17.2028 16.6053C17.233 16.5279 17.2475 16.4452 17.2455 16.3621V9.85807C17.2455 9.85807 17.361 7.79366 19.2301 7.79366H28.3866C30.3775 7.79366 30.6211 9.59975 30.6442 9.83286V16.3558C30.6423 16.4389 30.6568 16.5216 30.6869 16.599C30.717 16.6765 30.7622 16.7472 30.8198 16.8071C30.8774 16.8671 30.9463 16.915 31.0224 16.9482C31.0986 16.9814 31.1807 16.9992 31.2638 17.0005V7.10692L31.2848 4.56998C31.291 4.01623 31.0949 3.47923 30.7334 3.05972C30.3719 2.64021 29.8698 2.36701 29.3212 2.29136V2.29136Z" fill="#1D1D1B"/>
<path d="M24.646 14.1064H22.926C22.755 14.1064 22.591 14.1744 22.4701 14.2953C22.3492 14.4162 22.2812 14.5802 22.2812 14.7512C22.2812 14.9222 22.3492 15.0862 22.4701 15.2071C22.591 15.328 22.755 15.3959 22.926 15.3959H24.6439C24.8149 15.3959 24.9789 15.328 25.0998 15.2071C25.2207 15.0862 25.2886 14.9222 25.2886 14.7512C25.2886 14.5802 25.2207 14.4162 25.0998 14.2953C24.9789 14.1744 24.8149 14.1064 24.6439 14.1064H24.646Z" fill="#F9AC7F"/>
<path d="M40.3487 45.5498H7.14595C6.47207 45.5498 5.92578 46.0961 5.92578 46.77V46.7721C5.92578 47.446 6.47207 47.9922 7.14595 47.9922H40.3487C41.0226 47.9922 41.5689 47.446 41.5689 46.7721V46.77C41.5689 46.0961 41.0226 45.5498 40.3487 45.5498Z" fill="#262626"/>
<path d="M36.7516 29.7676H11.1323C10.0688 29.7676 9.20654 30.6298 9.20654 31.6934V46.0644C9.20654 47.128 10.0688 47.9902 11.1323 47.9902H36.7516C37.8152 47.9902 38.6774 47.128 38.6774 46.0644V31.6934C38.6774 30.6298 37.8152 29.7676 36.7516 29.7676Z" fill="#323232"/>
<path d="M52.922 48.3865H-3.21396C-3.31397 48.3792 -3.40752 48.3343 -3.4758 48.2609C-3.54408 48.1874 -3.58203 48.0909 -3.58203 47.9906C-3.58203 47.8903 -3.54408 47.7938 -3.4758 47.7203C-3.40752 47.6469 -3.31397 47.602 -3.21396 47.5947H52.922C53.022 47.602 53.1156 47.6469 53.1839 47.7203C53.2521 47.7938 53.2901 47.8903 53.2901 47.9906C53.2901 48.0909 53.2521 48.1874 53.1839 48.2609C53.1156 48.3343 53.022 48.3792 52.922 48.3865V48.3865Z" fill="#141414"/>
<path d="M44 21.0659C44 19.4571 43.3922 17.9143 42.3103 16.7767C41.2284 15.6391 39.761 15 38.231 15H37.7886C36.3489 14.9939 34.9591 15.5544 33.8926 16.5713C32.8261 17.5881 32.16 18.9878 32.0253 20.4949C31.8906 22.0021 32.2971 23.5077 33.1649 24.7156C34.0326 25.9235 35.2988 26.7464 36.7144 27.0223L37.8927 29L39.2755 27.0458C40.604 26.7879 41.8044 26.0482 42.6677 24.9555C43.531 23.8628 44.0024 22.4864 44 21.0659Z" fill="#69CA94"/>
<path d="M37.6493 21H38.3555C38.3839 21 38.412 20.9957 38.4382 20.9874C38.4644 20.9791 38.4881 20.9669 38.508 20.9516C38.5278 20.9363 38.5434 20.9181 38.5539 20.8981C38.5643 20.8782 38.5694 20.8569 38.5687 20.8354L39 17.1646C39 17.1215 38.9777 17.0802 38.9378 17.0495C38.898 17.0187 38.8437 17.0009 38.7867 17H37.218C37.1606 17.0009 37.1058 17.0185 37.0652 17.0492C37.0246 17.0799 37.0012 17.1212 37 17.1646L37.436 20.8354C37.4354 20.8569 37.4404 20.8782 37.4509 20.8981C37.4613 20.9181 37.4769 20.9363 37.4968 20.9516C37.5167 20.9669 37.5404 20.9791 37.5666 20.9874C37.5928 20.9957 37.6209 21 37.6493 21V21Z" fill="#ECECEC"/>
<path d="M37.9955 22C37.7979 22.0009 37.605 22.0603 37.4412 22.1707C37.2773 22.2811 37.1498 22.4376 37.0748 22.6204C36.9998 22.8032 36.9807 23.0042 37.0198 23.1978C37.0589 23.3915 37.1545 23.5693 37.2945 23.7087C37.4345 23.8481 37.6127 23.9429 37.8066 23.9811C38.0004 24.0193 38.2013 23.9993 38.3837 23.9234C38.5662 23.8476 38.7221 23.7195 38.8318 23.5551C38.9415 23.3908 39 23.1976 39 23C39 22.8683 38.974 22.7379 38.9235 22.6163C38.8729 22.4947 38.7989 22.3842 38.7055 22.2913C38.6122 22.1984 38.5014 22.1248 38.3796 22.0748C38.2577 22.0248 38.1272 21.9994 37.9955 22Z" fill="#ECECEC"/>
<path fill-rule="evenodd" clip-rule="evenodd" d="M24.5592 42.1458C26.4659 41.6339 27.5974 39.6701 27.0865 37.7597C27.0759 37.7198 27.0646 37.6803 27.0527 37.6411L27.0553 37.6404C27.0237 37.5396 26.9879 37.4407 26.9479 37.3437C26.2823 35.6886 24.4729 34.7539 22.7091 35.2274C20.893 35.715 19.7802 37.5196 20.12 39.3409C20.129 39.3921 20.1392 39.4432 20.1506 39.4942L20.1519 39.4938C20.1612 39.5337 20.1711 39.5736 20.1818 39.6135C20.6927 41.5239 22.6525 42.6577 24.5592 42.1458ZM21.8205 39.0458C21.8284 39.0859 21.8378 39.126 21.8485 39.166C22.1127 40.1541 23.1264 40.7406 24.1127 40.4758C25.0989 40.211 25.6842 39.1953 25.4199 38.2071C25.4092 38.1671 25.3973 38.1278 25.3842 38.0891L24.9649 38.2017C24.9802 38.2394 24.9934 38.2786 25.0042 38.319C25.1451 38.846 24.833 39.3877 24.307 39.529C23.781 39.6702 23.2403 39.3574 23.0994 38.8304C23.0886 38.79 23.0804 38.7495 23.0749 38.7091L21.8205 39.0458Z" fill="#E9E9F4"/>
</g>
</svg>
