<svg width="60" height="60" viewBox="0 0 60 60" fill="none" xmlns="http://www.w3.org/2000/svg">
<path d="M58.6232 37.2874C57.8354 36.3597 57.0597 35.422 56.259 34.5033C56.1552 34.3978 56.0789 34.2684 56.0368 34.1266C55.9946 33.9847 55.9878 33.8347 56.017 33.6896C56.3676 31.2516 56.3676 28.776 56.017 26.338C55.9846 26.1927 55.9873 26.0417 56.0249 25.8976C56.0624 25.7535 56.1338 25.6204 56.233 25.5093C57.0167 24.5716 57.7775 23.6339 58.5372 22.6782C58.8045 22.381 58.961 22.0006 58.9801 21.6013C58.9993 21.202 58.8799 20.8084 58.6422 20.487C56.4959 16.8442 54.3956 13.1744 52.2673 9.51359C51.6915 8.51992 51.3446 8.34598 50.205 8.54091C49.0983 8.72885 47.9987 8.94578 46.8991 9.1787C46.6895 9.23359 46.4697 9.23651 46.2587 9.18721C46.0478 9.13791 45.852 9.03788 45.6885 8.8958C43.8346 7.42869 41.7718 6.24702 39.5685 5.38996C39.3964 5.33021 39.2421 5.22812 39.1198 5.09307C38.9975 4.95803 38.9111 4.79439 38.8687 4.61721C38.4938 3.46259 38.083 2.31797 37.6691 1.18035C37.558 0.808321 37.3195 0.487252 36.9955 0.273404C36.6714 0.0595562 36.2824 -0.0334311 35.8967 0.0107363C31.6108 0.0407264 27.3272 0.0407264 23.0459 0.0107363C22.6613 -0.0273386 22.2755 0.0707833 21.9558 0.287996C21.6361 0.505208 21.4028 0.827733 21.2965 1.19934C20.8967 2.34496 20.4718 3.48259 20.1139 4.6412C20.0691 4.81822 19.9799 4.98091 19.8549 5.11399C19.7299 5.24708 19.573 5.34617 19.3992 5.40195C17.2194 6.25369 15.1774 7.42258 13.3392 8.8708C13.1671 9.02129 12.9605 9.12687 12.7378 9.17815C12.5151 9.22943 12.2831 9.22481 12.0626 9.16471C10.8146 8.86377 9.54979 8.63777 8.27484 8.48793C7.95817 8.45135 7.63837 8.52197 7.36655 8.68851C7.09473 8.85504 6.88657 9.10788 6.77534 9.40663C4.64004 13.1124 2.51275 16.8232 0.341466 20.504C0.102681 20.8248 -0.0141603 21.2201 0.0118475 21.6192C0.0378552 22.0183 0.205015 22.3951 0.483419 22.6822C1.26916 23.6199 2.0429 24.5576 2.84564 25.4643C2.95839 25.5781 3.04143 25.7178 3.08745 25.8712C3.13347 26.0246 3.14106 26.187 3.10955 26.344C2.75798 28.7582 2.75798 31.2105 3.10955 33.6246C3.14301 33.7924 3.13431 33.966 3.08424 34.1296C3.03417 34.2933 2.94429 34.4419 2.82264 34.5623C2.02991 35.455 1.26316 36.3697 0.484418 37.2754C0.198226 37.5707 0.0274241 37.9589 0.00302821 38.3694C-0.0213677 38.7799 0.10226 39.1855 0.351462 39.5127C2.50275 43.1525 4.60206 46.8232 6.72735 50.483C6.79443 50.6856 6.90179 50.8726 7.04298 51.0326C7.18417 51.1926 7.35626 51.3224 7.54892 51.4142C7.74158 51.506 7.95081 51.5579 8.16403 51.5668C8.37726 51.5756 8.59007 51.5412 8.78967 51.4657C9.9143 51.2768 10.9979 51.0658 12.0956 50.8339C12.3024 50.7775 12.5198 50.7727 12.7289 50.8197C12.9381 50.8668 13.1325 50.9643 13.2952 51.1038C15.1339 52.5521 17.1732 53.7256 19.3492 54.5877C19.5349 54.6442 19.7038 54.7459 19.8406 54.8838C19.9774 55.0216 20.0778 55.1912 20.1329 55.3774C20.5078 56.502 20.9326 57.6277 21.3425 58.7373C21.418 59.1357 21.6465 59.4888 21.9791 59.7209C22.3117 59.9529 22.7219 60.0456 23.1219 59.9789C27.4545 59.9789 31.7881 59.9679 36.1176 59.9919C36.4801 60.0228 36.8426 59.9323 37.1481 59.7347C37.4536 59.5371 37.6847 59.2436 37.8051 58.9002C38.2829 57.7756 38.6228 56.615 38.9877 55.4594C39.0345 55.2601 39.1312 55.0759 39.2686 54.9241C39.406 54.7724 39.5797 54.658 39.7734 54.5917C41.9072 53.758 43.9056 52.6126 45.7035 51.1928C45.9117 51.0151 46.1614 50.8927 46.4294 50.837C46.6974 50.7813 46.9751 50.794 47.2369 50.8739C48.2366 51.1008 49.2523 51.2918 50.2649 51.4647C51.4645 51.6706 51.8284 51.4907 52.4402 50.433C54.5475 46.7943 56.6328 43.1355 58.7741 39.5197C59.021 39.1914 59.1416 38.7853 59.1139 38.3754C59.0862 37.9656 58.912 37.5794 58.6232 37.2874ZM48.9994 30.1138C48.9713 35.2692 46.8982 40.2027 43.2353 43.8308C39.5724 47.4588 34.6193 49.4846 29.4638 49.4634C19.7141 49.5423 9.88631 41.578 9.97628 30.0318C9.96416 27.4583 10.4613 24.9079 11.439 22.5273C12.4167 20.1467 13.8557 17.9831 15.6731 16.161C17.4905 14.3389 19.6504 12.8943 22.0284 11.9105C24.4064 10.9267 26.9556 10.423 29.5291 10.4284C32.1026 10.4339 34.6496 10.9484 37.0234 11.9424C39.3972 12.9363 41.551 14.3901 43.3606 16.2199C45.1702 18.0497 46.6 20.2194 47.5676 22.6041C48.5352 24.9888 49.0214 27.5414 48.9984 30.1148L48.9994 30.1138Z" fill="url(#paint0_linear_2818_24737)"/>
<path d="M32.4766 24.6787V20.815C32.4896 19.2705 33.5583 18.6327 34.9398 19.3354C36.7969 20.2934 38.3716 21.7198 39.5079 23.4734C40.6442 25.227 41.3027 27.247 41.4183 29.3334C41.5338 31.4198 41.1024 33.5002 40.1666 35.3686C39.2309 37.237 37.8234 38.8285 36.0834 39.9856C35.8821 40.0912 35.7173 40.255 35.6103 40.4556C35.5033 40.6561 35.4592 40.8842 35.4836 41.1102C35.5246 42.3518 35.4836 43.5924 35.5066 44.834C35.534 44.9918 35.4993 45.154 35.4099 45.2868C35.3205 45.4196 35.1832 45.5128 35.0268 45.5468C31.4461 46.8236 27.5341 46.8236 23.9534 45.5468C23.7981 45.515 23.6611 45.4245 23.5709 45.2941C23.4808 45.1637 23.4445 45.0035 23.4696 44.847C23.4936 43.5834 23.4586 42.3179 23.4906 41.0543C23.5129 40.8511 23.474 40.6458 23.3786 40.465C23.2833 40.2842 23.136 40.136 22.9558 40.0396C21.2078 38.8927 19.7898 37.309 18.8421 35.4456C17.8944 33.5821 17.4499 31.5033 17.5526 29.4152C17.6553 27.3271 18.3017 25.302 19.4277 23.5406C20.5537 21.7791 22.1204 20.3423 23.9724 19.3724C25.4349 18.6227 26.4976 19.2485 26.5016 20.8859C26.5016 23.4381 26.5146 25.9893 26.5016 28.5434C26.4769 28.7465 26.5133 28.9523 26.606 29.1346C26.6988 29.3169 26.8437 29.4675 27.0224 29.5671C27.7422 30.0019 28.4339 30.4818 29.1217 30.9666C29.2249 31.0587 29.3583 31.1096 29.4966 31.1096C29.6349 31.1096 29.7683 31.0587 29.8715 30.9666C30.6212 30.4398 31.371 29.9299 32.1437 29.4441C32.2628 29.3758 32.3592 29.274 32.4209 29.1514C32.4826 29.0287 32.5068 28.8907 32.4906 28.7543C32.4716 27.3858 32.4766 26.0362 32.4766 24.6787Z" fill="#69CA94"/>
<defs>
<linearGradient id="paint0_linear_2818_24737" x1="0" y1="0" x2="58.5287" y2="0.546565" gradientUnits="userSpaceOnUse">
<stop stop-color="#817EA6"/>
<stop offset="1" stop-color="#2E2952"/>
</linearGradient>
</defs>
</svg>
