<svg width="60" height="60" viewBox="0 0 60 60" fill="none" xmlns="http://www.w3.org/2000/svg">
<path d="M35.0101 39.9911C42.2497 39.9911 49.505 39.9911 56.7505 40.0048C57.3551 40.0048 57.5136 39.86 57.5097 39.2475C57.4862 32.5636 57.498 25.8777 57.4941 19.1918C57.4941 16.5385 55.9816 15.03 53.3166 15.03C46.6307 15.03 39.9448 15.0163 33.2589 15.0456C32.5877 15.0456 32.4038 14.8499 32.4762 14.2356C32.5466 13.6838 32.2414 12.9246 32.6014 12.6272C32.9615 12.3298 33.6678 12.5274 34.2255 12.5254C40.6172 12.5254 47.009 12.5254 53.4007 12.5254C56.6194 12.5254 59.0379 14.3412 59.7814 17.2743C59.9249 17.8917 59.9906 18.5247 59.9771 19.1585C59.9771 28.0639 59.9771 36.9693 59.9771 45.8748C59.9771 49.8233 57.3219 52.4922 53.3792 52.502C47.9123 52.5137 42.446 52.5098 36.9804 52.4902C36.3719 52.4902 36.1978 52.6311 36.2252 53.2435C36.278 54.4625 36.2643 55.6835 36.2252 56.9025C36.2115 57.3819 36.3445 57.5247 36.8317 57.5169C38.6123 57.4875 40.3948 57.5012 42.1754 57.5051C43.1537 57.5051 43.7407 57.9943 43.7231 58.7613C43.7055 59.5283 43.1224 59.9979 42.2086 59.9999C37.3822 59.9999 32.5512 59.9999 27.7156 59.9999C27.0445 59.9999 26.5143 59.7847 26.299 59.092C26.1268 58.5383 26.3127 58.0882 26.753 57.7321C27.0386 57.5012 27.383 57.5012 27.7313 57.5012C29.5119 57.5012 31.2944 57.4777 33.0749 57.5169C33.6463 57.5306 33.7676 57.3447 33.75 56.8144C33.7128 55.6404 33.703 54.4664 33.75 53.2925C33.7774 52.6702 33.6385 52.4707 32.9673 52.4746C27.5024 52.5078 22.0355 52.502 16.5705 52.4902C13.3127 52.4902 10.8414 50.5981 10.1566 47.5986C10.0388 47.0258 9.98429 46.4418 9.99418 45.8571C9.98244 39.9754 9.99418 34.0957 9.97461 28.2159C9.97461 27.6446 10.1116 27.4332 10.6927 27.5017C11.2738 27.5702 12.0252 27.263 12.3833 27.6211C12.7413 27.9791 12.4889 28.7325 12.4909 29.3136C12.5007 32.5832 12.5163 35.8527 12.4791 39.1204C12.4791 39.7974 12.5946 40.0087 13.3283 40.0048C20.5641 39.9793 27.788 39.9911 35.0101 39.9911Z" fill="url(#paint0_linear_2818_24756)"/>
<path d="M15.0037 25.0209H4.16377C1.53794 25.0209 0.00195666 23.4712 0 20.8277C0 15.2891 0 9.75108 0 4.21373C0 1.53702 1.53598 0.0186518 4.23421 0.0166952C6.52742 0.0166952 8.82062 0.0362608 11.1138 0.0049542C11.4519 -0.0172265 11.7907 0.0352572 12.1062 0.158683C12.4217 0.282108 12.7061 0.473451 12.9394 0.719135C13.8082 1.60942 14.7434 2.43121 15.6181 3.31562C15.7741 3.48038 15.9647 3.60848 16.1761 3.6907C16.3876 3.77292 16.6147 3.80721 16.841 3.79109C19.8914 3.76957 22.9399 3.77544 25.9903 3.79109C28.4518 3.79109 29.9936 5.35642 29.9956 7.81986C29.9956 12.2106 29.9956 16.6013 29.9956 20.9921C29.9956 23.4399 28.4185 25.0189 25.9747 25.0228C22.3131 25.0267 18.6561 25.0261 15.0037 25.0209Z" fill="#69CA94"/>
<path d="M34.9398 47.4948C33.7952 47.4948 32.6505 47.5045 31.5059 47.4948C30.5569 47.485 30.0149 47.033 30.0012 46.2719C29.9875 45.5107 30.5589 45 31.5352 44.9961C33.8493 44.9857 36.1634 44.9857 38.4775 44.9961C39.4304 44.9961 39.9606 45.4579 39.9724 46.2308C39.9724 47.035 39.4499 47.4869 38.4481 47.4948C37.278 47.5026 36.108 47.4948 34.9398 47.4948Z" fill="white"/>
<defs>
<linearGradient id="paint0_linear_2818_24756" x1="9.97461" y1="12.4629" x2="59.4799" y2="12.9564" gradientUnits="userSpaceOnUse">
<stop stop-color="#817EA6"/>
<stop offset="1" stop-color="#2E2952"/>
</linearGradient>
</defs>
</svg>
