<svg width="60" height="60" viewBox="0 0 60 60" fill="none" xmlns="http://www.w3.org/2000/svg">
<path d="M59.9957 22.258C59.8535 22.527 59.7619 22.8199 59.7257 23.122C59.2991 24.5209 58.4569 25.7568 57.3111 26.6656C56.1652 27.5744 54.77 28.1131 53.3107 28.21C52.9227 28.235 52.8298 28.34 52.8417 28.71C52.8687 29.568 52.8277 30.429 52.8607 31.287C52.8747 31.687 52.7437 31.756 52.3747 31.756C49.3087 31.743 46.2437 31.756 43.1747 31.756C43.1314 31.7642 43.0889 31.7763 43.0477 31.792C43.3257 32.592 43.6247 33.378 43.8787 34.18C44.0515 34.7077 44.0965 35.269 44.0099 35.8175C43.9234 36.366 43.7079 36.8861 43.3811 37.335C43.0542 37.784 42.6255 38.1489 42.1301 38.3997C41.6347 38.6506 41.0868 38.7802 40.5315 38.778C39.9763 38.7757 39.4294 38.6416 38.9361 38.3868C38.4427 38.1319 38.017 37.7635 37.6938 37.312C37.3707 36.8604 37.1594 36.3385 37.0773 35.7893C36.9952 35.2402 37.0447 34.6793 37.2217 34.153C37.4777 33.361 37.7667 32.579 38.0567 31.753C34.9737 31.753 31.9477 31.737 28.9227 31.767C28.3677 31.767 28.2067 31.659 28.2227 31.082C28.2727 29.697 28.2507 28.311 28.2227 26.925C28.2227 26.573 28.2997 26.483 28.6637 26.456C30.4505 26.3468 32.1282 25.5595 33.354 24.2548C34.5797 22.9502 35.2609 21.2267 35.2585 19.4366C35.2561 17.6464 34.5702 15.9248 33.3409 14.6234C32.1116 13.3221 30.4318 12.5393 28.6447 12.435C28.3317 12.413 28.2177 12.352 28.2227 12.013C28.2414 10.5303 28.2414 9.04667 28.2227 7.562C28.2227 7.24 28.2927 7.128 28.6337 7.137C29.5507 7.16 30.4697 7.137 31.3877 7.146C31.5937 7.146 31.7457 7.162 31.7547 6.86C31.8282 5.22859 32.4526 3.67029 33.526 2.43957C34.5995 1.20886 36.0585 0.378466 37.6647 0.084C37.6917 0.084 37.7097 0.029 37.7337 0H39.6087C40.601 0.0527324 41.566 0.343964 42.4218 0.849C43.3849 1.4333 44.2019 2.22978 44.8105 3.17773C45.4191 4.12567 45.8033 5.20006 45.9337 6.319C46.0117 6.85 46.2168 6.991 46.7148 6.985C48.5088 6.963 50.3087 6.972 52.0997 6.985C52.9217 6.985 53.0077 7.073 53.0107 7.891C53.0107 9.685 53.0247 11.485 53.0027 13.276C53.0027 13.776 53.1407 13.976 53.6697 14.057C55.0081 14.2043 56.2798 14.7185 57.3446 15.5427C58.4093 16.3669 59.2257 17.4692 59.7037 18.728C59.8347 19.2325 59.9312 19.7454 59.9928 20.263L59.9957 22.258Z" fill="#69CA94"/>
<path d="M0.00805664 35.2639H9.78506C9.83252 35.2538 9.87831 35.2369 9.92106 35.2139C9.64606 34.4329 9.35506 33.6509 9.09906 32.8529C8.94616 32.413 8.8824 31.947 8.91152 31.4821C8.94063 31.0172 9.06203 30.5628 9.26863 30.1454C9.47522 29.7279 9.76289 29.3558 10.1148 29.0507C10.4668 28.7456 10.876 28.5136 11.3185 28.3684C11.761 28.2231 12.2281 28.1674 12.6924 28.2045C13.1567 28.2417 13.6089 28.3709 14.0227 28.5847C14.4366 28.7984 14.8037 29.0925 15.1026 29.4497C15.4016 29.8068 15.6264 30.2199 15.7641 30.6649C16.0116 31.391 16.0038 32.1798 15.7421 32.9009C15.4691 33.6679 15.2041 34.4389 14.9151 35.2689H24.2531C24.6201 35.2689 24.7471 35.3409 24.7411 35.7379C24.7141 37.2019 24.7221 38.6649 24.7411 40.1289C24.7411 40.4419 24.6781 40.5429 24.3411 40.5669C22.5493 40.6673 20.8639 41.4499 19.6309 42.7538C18.398 44.0578 17.711 45.7843 17.711 47.5789C17.711 49.3735 18.398 51.1 19.6309 52.404C20.8639 53.708 22.5493 54.4905 24.3411 54.5909C24.6711 54.6129 24.7551 54.6989 24.7521 55.0219C24.7361 56.6799 24.7441 58.3399 24.7441 59.9979H23.5691C22.3533 59.8692 21.1473 59.6604 19.9591 59.3729C16.2012 58.3868 12.6987 56.6058 9.68812 54.15C6.67757 51.6943 4.22909 48.6211 2.50806 45.1379C1.34378 42.8376 0.552574 40.3667 0.164057 37.8179C0.0750566 37.2039 0.125057 36.5819 0.00805664 35.9709V35.2639Z" fill="url(#paint0_linear_2818_24746)"/>
<path d="M28.2442 59.9844V50.0604C27.4092 50.3494 26.6222 50.6444 25.8192 50.8954C25.2921 51.0691 24.7313 51.1152 24.1828 51.0299C23.6344 50.9446 23.1141 50.7303 22.6647 50.4046C22.2152 50.079 21.8495 49.6513 21.5976 49.1567C21.3458 48.6621 21.2149 48.1148 21.2158 47.5598C21.2167 47.0048 21.3494 46.4579 21.6029 45.9642C21.8564 45.4704 22.2236 45.0439 22.6741 44.7198C23.1246 44.3956 23.6456 44.183 24.1943 44.0995C24.743 44.016 25.3037 44.0639 25.8302 44.2394C26.6242 44.4894 27.4052 44.7834 28.2452 45.0744V40.6424C28.2452 39.0214 28.2572 37.4014 28.2362 35.7804C28.2362 35.3994 28.2862 35.2424 28.7272 35.2524C30.1902 35.2834 31.6562 35.2684 33.1202 35.2524C33.3922 35.2524 33.5112 35.2854 33.5362 35.6184C33.6195 37.3174 34.3168 38.9283 35.4986 40.1518C36.6803 41.3753 38.2661 42.1281 39.9612 42.2702C41.6562 42.4124 43.3452 41.9342 44.7143 40.9247C46.0833 39.9151 47.0392 38.4428 47.4042 36.7814C47.4995 36.4032 47.5518 36.0154 47.5602 35.6254C47.5602 35.2974 47.6882 35.2504 47.9712 35.2534C49.3572 35.2644 50.7452 35.2844 52.1302 35.2534C52.6462 35.2374 52.7802 35.3534 52.7302 35.8784C52.1897 41.5988 49.8221 46.9933 45.9778 51.2638C42.1335 55.5342 37.0166 58.4537 31.3842 59.5904C30.6474 59.6791 29.9167 59.8126 29.1962 59.9904L28.2442 59.9844Z" fill="url(#paint1_linear_2818_24746)"/>
<path d="M0.008 30.6948C0.221724 29.957 0.369636 29.2018 0.45 28.4378C1.27391 24.287 3.08902 20.3969 5.74068 17.0989C8.39233 13.8009 11.8019 11.1928 15.679 9.49684C18.3063 8.29255 21.1202 7.54614 23.999 7.28984C24.729 7.21484 24.729 7.21684 24.729 7.92384V16.9598C25.571 16.6598 26.362 16.3598 27.17 16.1098C27.6959 15.9394 28.2547 15.8957 28.8007 15.9824C29.3467 16.069 29.8645 16.2835 30.3119 16.6084C30.7592 16.9333 31.1234 17.3593 31.3747 17.8517C31.6261 18.3441 31.7574 18.889 31.7581 19.4418C31.7587 19.9947 31.6287 20.5399 31.3785 21.0329C31.1284 21.5259 30.7652 21.9528 30.3187 22.2787C29.8721 22.6047 29.3548 22.8204 28.809 22.9084C28.2632 22.9963 27.7043 22.954 27.178 22.7848C26.378 22.5408 25.6 22.2358 24.804 21.9548C24.668 22.1548 24.734 22.3458 24.732 22.5268C24.732 25.4348 24.719 28.3448 24.732 31.2538C24.732 31.6708 24.624 31.7678 24.218 31.7598C22.794 31.7328 21.367 31.7298 19.942 31.7598C19.526 31.7688 19.451 31.6428 19.425 31.2508C19.299 29.4757 18.5038 27.8145 17.2002 26.603C15.8966 25.3915 14.1817 24.72 12.4021 24.7242C10.6225 24.7284 8.91076 25.408 7.61287 26.6256C6.31498 27.8432 5.52766 29.5081 5.41 31.2838C5.387 31.6608 5.299 31.7638 4.921 31.7528C3.28 31.7308 1.639 31.7438 0 31.7438L0.008 30.6948Z" fill="url(#paint2_linear_2818_24746)"/>
<defs>
<linearGradient id="paint0_linear_2818_24746" x1="0.00805664" y1="28.1934" x2="24.5064" y2="28.374" gradientUnits="userSpaceOnUse">
<stop stop-color="#817EA6"/>
<stop offset="1" stop-color="#2E2952"/>
</linearGradient>
<linearGradient id="paint1_linear_2818_24746" x1="21.2158" y1="35.252" x2="52.424" y2="35.6289" gradientUnits="userSpaceOnUse">
<stop stop-color="#817EA6"/>
<stop offset="1" stop-color="#2E2952"/>
</linearGradient>
<linearGradient id="paint2_linear_2818_24746" x1="0" y1="7.25781" x2="31.4396" y2="7.64403" gradientUnits="userSpaceOnUse">
<stop stop-color="#817EA6"/>
<stop offset="1" stop-color="#2E2952"/>
</linearGradient>
</defs>
</svg>
