<svg width="105" height="101" viewBox="0 0 105 101" fill="none" xmlns="http://www.w3.org/2000/svg">
<ellipse cx="50.4547" cy="47.7694" rx="43.6364" ry="43.6757" fill="#FFDA44"/>
<path d="M73.687 100.659C73.5771 100.773 73.4629 100.887 73.3473 101H60.162C60.0536 100.889 59.9467 100.776 59.8397 100.659C59.8354 100.654 59.831 100.649 59.8267 100.644C58.3942 99.0717 57.4923 96.7856 56.93 94.3749C56.8939 94.2288 56.8621 94.0813 56.8303 93.9323C56.6829 93.2548 56.5629 92.5701 56.4646 91.8912C56.4473 91.7737 56.4299 91.6563 56.4154 91.5388C56.2825 90.5634 56.1928 89.6037 56.135 88.7027C56.1278 88.5867 56.1206 88.4735 56.1134 88.3604C56.0075 86.5667 56.0065 84.7684 56.1105 82.9746C56.1105 82.9746 56.1278 82.9746 56.1611 82.976C56.2579 82.9803 56.4906 82.9904 56.8332 83.0104C57.777 83.0677 59.5579 83.211 61.6523 83.549C61.7664 83.5676 61.8821 83.5877 61.9977 83.6077C63.7693 83.8978 65.5167 84.3172 67.2259 84.8625C67.3329 84.8983 67.4384 84.9341 67.5453 84.9699L67.5468 84.9771L68.8578 91.4958L69.4013 85.6933C69.8335 85.8866 70.2541 86.0929 70.6574 86.3135C70.7701 86.3751 70.88 86.4367 70.9884 86.4997C71.9103 87.0174 72.7472 87.6714 73.4702 88.4391C77.7704 93.1617 76.8496 97.3829 73.687 100.659Z" fill="#69CA94"/>
<path d="M68.1776 92.3935L68.4062 92.6444C71.0484 95.5748 72.6252 98.2948 73.111 100.769C73.1187 100.805 73.124 100.841 73.1317 100.876L72.9627 100.908L72.7998 100.937C72.304 98.2394 70.458 95.4513 68.1541 92.8947C68.0807 92.8116 68.0061 92.7272 67.9291 92.6451C66.9441 91.5714 65.8852 90.5414 64.8144 89.5782C64.7322 89.503 64.6476 89.4276 64.563 89.3522C63.1431 88.0882 61.7145 86.9446 60.4405 85.9807C60.3508 85.9121 60.2598 85.8447 60.1699 85.7785C58.0068 84.1557 56.3284 83.0801 55.9543 82.8443C55.9092 82.8147 55.8837 82.7992 55.8779 82.7954L55.9665 82.6553L55.9666 82.6529L56.0564 82.5117C56.0622 82.5156 56.148 82.5673 56.303 82.6676C56.8853 83.0396 58.4504 84.0633 60.3974 85.5187C60.4849 85.5848 60.5758 85.6522 60.6656 85.7207C61.7003 86.5019 62.832 87.397 63.9748 88.3768C64.2623 88.6224 64.5426 88.8677 64.8157 89.1126C64.9016 89.1869 64.9862 89.2622 65.0684 89.3375C66.226 90.3785 67.2624 91.3972 68.1776 92.3935Z" fill="#E9E9F4"/>
<path d="M61.7774 83.2715C61.7384 83.3646 61.6964 83.4577 61.653 83.5494C61.3229 84.2574 60.9006 84.9195 60.3969 85.5189C60.3233 85.6048 60.2481 85.6922 60.17 85.7781C59.959 86.0088 59.7345 86.2317 59.4964 86.4471C58.5226 87.3207 57.3684 87.9737 56.1141 88.3607C56.0736 88.3736 56.0347 88.3865 55.9941 88.398C56.0013 88.5111 56.0086 88.6229 56.0158 88.7389C56.0563 88.7274 56.0953 88.716 56.1358 88.7031C57.4666 88.3055 58.6916 87.6195 59.7219 86.6949C59.9739 86.4693 60.2137 86.2307 60.4403 85.9801C60.5183 85.8956 60.5936 85.8082 60.6658 85.7209C61.2044 85.0795 61.6527 84.3688 61.9985 83.6081C62.039 83.5164 62.0794 83.4248 62.1185 83.3316C62.0029 83.3116 61.8887 83.2915 61.7774 83.2715Z" fill="#E9E9F4"/>
<path d="M67.2853 84.6094C67.268 84.6939 67.2477 84.7784 67.226 84.8629C66.8342 86.4731 65.9996 87.9442 64.8151 89.1128C64.7326 89.1944 64.6488 89.2746 64.5621 89.352C64.5375 89.3763 64.51 89.4021 64.4841 89.425C63.4065 90.389 62.112 91.0839 60.7085 91.4516C59.305 91.8194 57.8332 91.8494 56.4156 91.5392C56.3823 91.5335 56.3477 91.5249 56.3145 91.5178C56.3317 91.6352 56.3477 91.7541 56.3665 91.8715C56.3997 91.8787 56.4315 91.8859 56.4648 91.8916C57.9183 92.1896 59.4223 92.144 60.8547 91.7585C62.2871 91.373 63.6078 90.6585 64.7095 89.6728C64.7442 89.6413 64.7804 89.6112 64.8136 89.5783C64.9003 89.4981 64.9842 89.4179 65.068 89.3377C66.2803 88.1356 67.1375 86.6278 67.547 84.9775C67.5686 84.8915 67.5889 84.8056 67.6077 84.7197C67.5006 84.6824 67.3937 84.6452 67.2853 84.6094Z" fill="#E9E9F4"/>
<path d="M70.658 86.0723C70.6594 86.1525 70.6594 86.2341 70.658 86.3143C70.6339 88.578 69.748 90.7492 68.1776 92.3934C68.0967 92.4793 68.0128 92.5624 67.929 92.6455C67.8379 92.7329 67.7469 92.8202 67.6529 92.9033C66.1988 94.202 64.362 95.0032 62.4135 95.1886C60.4649 95.374 58.5078 94.9339 56.8309 93.9332C56.8022 93.9184 56.7742 93.9021 56.7471 93.8845C56.7818 94.0363 56.8165 94.1853 56.8541 94.3343C56.88 94.3486 56.9046 94.3629 56.9306 94.3758C58.6561 95.3292 60.6394 95.7239 62.6026 95.5045C64.5657 95.2852 66.4105 94.4628 67.8784 93.1525C67.9724 93.068 68.0663 92.9835 68.1545 92.8947C68.2412 92.8131 68.3236 92.73 68.406 92.644C69.9985 90.9796 70.9179 88.7931 70.989 86.5005C70.9919 86.4232 70.9933 86.3459 70.9933 86.2685C70.8835 86.2012 70.7707 86.1367 70.658 86.0723Z" fill="#E9E9F4"/>
<path d="M41.4358 23.717H16.027C15.8156 23.7168 15.6129 23.6334 15.4633 23.4853C15.3138 23.3371 15.2297 23.1362 15.2295 22.9267V3.80797C15.2297 3.59843 15.3138 3.39754 15.4633 3.24936C15.6128 3.10118 15.8156 3.01783 16.027 3.01758H47.215C47.4264 3.01783 47.6292 3.10118 47.7787 3.24936C47.9282 3.39754 48.0123 3.59843 48.0125 3.80797V17.1997C48.0106 18.9276 47.317 20.5842 46.0841 21.806C44.8511 23.0278 43.1794 23.7151 41.4358 23.717Z" fill="#9591AF"/>
<path d="M41.0506 9.47343H22.1928C22.0197 9.47343 21.8536 9.40528 21.7312 9.28397C21.6088 9.16266 21.54 8.99812 21.54 8.82656C21.54 8.655 21.6088 8.49046 21.7312 8.36915C21.8536 8.24784 22.0197 8.17969 22.1928 8.17969H41.0506C41.2236 8.17994 41.3894 8.24821 41.5116 8.36949C41.6338 8.49078 41.7024 8.65517 41.7024 8.82656C41.7024 8.99796 41.6338 9.16234 41.5116 9.28363C41.3894 9.40491 41.2236 9.47318 41.0506 9.47343Z" fill="white"/>
<path d="M41.0506 13.9305H22.1928C22.0197 13.9305 21.8536 13.8623 21.7312 13.741C21.6088 13.6197 21.54 13.4552 21.54 13.2836C21.54 13.112 21.6088 12.9475 21.7312 12.8262C21.8536 12.7049 22.0197 12.6367 22.1928 12.6367H41.0506C41.2238 12.6367 41.3898 12.7049 41.5122 12.8262C41.6346 12.9475 41.7034 13.112 41.7034 13.2836C41.7034 13.4552 41.6346 13.6197 41.5122 13.741C41.3898 13.8623 41.2238 13.9305 41.0506 13.9305Z" fill="white"/>
<path d="M41.0506 18.5145H22.1928C22.0197 18.5145 21.8536 18.4463 21.7312 18.325C21.6088 18.2037 21.54 18.0391 21.54 17.8676C21.54 17.696 21.6088 17.5315 21.7312 17.4102C21.8536 17.2889 22.0197 17.2207 22.1928 17.2207H41.0506C41.2238 17.2207 41.3898 17.2889 41.5122 17.4102C41.6346 17.5315 41.7034 17.696 41.7034 17.8676C41.7034 18.0391 41.6346 18.2037 41.5122 18.325C41.3898 18.4463 41.2238 18.5145 41.0506 18.5145Z" fill="white"/>
<path d="M46.9811 7.72583C49.134 7.72583 50.8793 5.99634 50.8793 3.86291C50.8793 1.72949 49.134 0 46.9811 0C44.8283 0 43.083 1.72949 43.083 3.86291C43.083 5.99634 44.8283 7.72583 46.9811 7.72583Z" fill="#6C63FF"/>
<path d="M46.4492 5.87257C46.3819 5.87257 46.3155 5.85703 46.2553 5.82719C46.1951 5.79735 46.1427 5.75403 46.1023 5.70065L45.0389 4.29548C45.0047 4.25034 44.9798 4.19897 44.9657 4.14431C44.9516 4.08965 44.9485 4.03276 44.9565 3.9769C44.9646 3.92104 44.9836 3.8673 45.0127 3.81875C45.0417 3.77019 45.0801 3.72778 45.1256 3.69392C45.1712 3.66007 45.223 3.63544 45.2782 3.62144C45.3333 3.60743 45.3907 3.60433 45.4471 3.61232C45.5035 3.6203 45.5577 3.6392 45.6067 3.66795C45.6557 3.69671 45.6985 3.73474 45.7326 3.77988L46.4284 4.69911L48.2154 2.04291C48.2792 1.94809 48.3784 1.88226 48.4911 1.85991C48.6039 1.83756 48.721 1.86052 48.8167 1.92373C48.9124 1.98695 48.9788 2.08524 49.0014 2.197C49.0239 2.30875 49.0008 2.4248 48.937 2.51962L46.81 5.68121C46.7715 5.73839 46.7198 5.78559 46.6591 5.81886C46.5984 5.85214 46.5306 5.87051 46.4613 5.87243C46.4572 5.8725 46.4532 5.87257 46.4492 5.87257Z" fill="white"/>
<path d="M32.0578 40.3226H6.64901C4.90536 40.3206 3.23368 39.6333 2.00072 38.4115C0.76777 37.1897 0.0742328 35.5331 0.0722656 33.8052V20.4134C0.0725139 20.2039 0.156627 20.003 0.306153 19.8548C0.455678 19.7066 0.658408 19.6233 0.869869 19.623H32.0578C32.2692 19.6233 32.472 19.7066 32.6215 19.8548C32.771 20.003 32.8551 20.2039 32.8554 20.4134V39.5322C32.8551 39.7417 32.771 39.9426 32.6215 40.0908C32.472 40.239 32.2692 40.3223 32.0578 40.3226Z" fill="white"/>
<path d="M25.8924 26.0789H7.03461C6.86148 26.0789 6.69545 26.0108 6.57303 25.8894C6.45061 25.7681 6.38184 25.6036 6.38184 25.432C6.38184 25.2605 6.45061 25.0959 6.57303 24.9746C6.69545 24.8533 6.86148 24.7852 7.03461 24.7852H25.8924C26.0656 24.7852 26.2316 24.8533 26.354 24.9746C26.4764 25.0959 26.5452 25.2605 26.5452 25.432C26.5452 25.6036 26.4764 25.7681 26.354 25.8894C26.2316 26.0108 26.0656 26.0789 25.8924 26.0789Z" fill="#9591AF"/>
<path d="M25.8924 30.5359H7.03461C6.86148 30.5359 6.69545 30.4678 6.57303 30.3465C6.45061 30.2252 6.38184 30.0606 6.38184 29.8891C6.38184 29.7175 6.45061 29.553 6.57303 29.4317C6.69545 29.3103 6.86148 29.2422 7.03461 29.2422H25.8924C26.0656 29.2422 26.2316 29.3103 26.354 29.4317C26.4764 29.553 26.5452 29.7175 26.5452 29.8891C26.5452 30.0606 26.4764 30.2252 26.354 30.3465C26.2316 30.4678 26.0656 30.5359 25.8924 30.5359Z" fill="#9591AF"/>
<path d="M25.8924 35.1199H7.03461C6.86148 35.1199 6.69545 35.0518 6.57303 34.9305C6.45061 34.8091 6.38184 34.6446 6.38184 34.473C6.38184 34.3015 6.45061 34.1369 6.57303 34.0156C6.69545 33.8943 6.86148 33.8262 7.03461 33.8262H25.8924C26.0656 33.8262 26.2316 33.8943 26.354 34.0156C26.4764 34.1369 26.5452 34.3015 26.5452 34.473C26.5452 34.6446 26.4764 34.8091 26.354 34.9305C26.2316 35.0518 26.0656 35.1199 25.8924 35.1199Z" fill="#9591AF"/>
<path d="M32.0934 24.4856C34.2463 24.4856 35.9916 22.7561 35.9916 20.6227C35.9916 18.4893 34.2463 16.7598 32.0934 16.7598C29.9406 16.7598 28.1953 18.4893 28.1953 20.6227C28.1953 22.7561 29.9406 24.4856 32.0934 24.4856Z" fill="#CF5250"/>
<path d="M31.5615 22.6323C31.4942 22.6323 31.4278 22.6168 31.3676 22.587C31.3074 22.5571 31.255 22.5138 31.2146 22.4604L30.1512 21.0553C30.117 21.0101 30.0921 20.9587 30.078 20.9041C30.0639 20.8494 30.0608 20.7925 30.0688 20.7367C30.0769 20.6808 30.0959 20.6271 30.125 20.5785C30.154 20.53 30.1924 20.4875 30.2379 20.4537C30.2835 20.4198 30.3353 20.3952 30.3905 20.3812C30.4456 20.3672 30.503 20.3641 30.5594 20.3721C30.6158 20.3801 30.67 20.399 30.719 20.4277C30.768 20.4565 30.8108 20.4945 30.845 20.5397L31.5407 21.4589L33.3277 18.8027C33.3915 18.7079 33.4907 18.642 33.6034 18.6197C33.7162 18.5973 33.8333 18.6203 33.929 18.6835C34.0247 18.7467 34.0911 18.845 34.1137 18.9568C34.1362 19.0685 34.1131 19.1846 34.0493 19.2794L31.9223 22.441C31.8838 22.4982 31.8321 22.5454 31.7714 22.5786C31.7107 22.6119 31.6429 22.6303 31.5736 22.6322C31.5695 22.6323 31.5655 22.6323 31.5615 22.6323Z" fill="white"/>
<path d="M63.7163 58.1435H28.1637C26.42 58.1415 24.7483 57.4543 23.5154 56.2324C22.2824 55.0106 21.5889 53.3541 21.5869 51.6262V31.929C21.5872 31.6589 21.6956 31.3999 21.8884 31.2089C22.0811 31.0179 22.3424 30.9105 22.615 30.9102H63.7163C63.9888 30.9105 64.2501 31.0179 64.4429 31.2089C64.6356 31.3999 64.744 31.6589 64.7443 31.929V57.1246C64.744 57.3947 64.6356 57.6537 64.4429 57.8447C64.2501 58.0357 63.9888 58.1432 63.7163 58.1435Z" fill="#9591AF"/>
<path d="M55.5922 39.3964H30.7403C30.6272 39.3965 30.5152 39.3746 30.4107 39.3318C30.3062 39.289 30.2113 39.2263 30.1313 39.1471C30.0513 39.0679 29.9878 38.9739 29.9445 38.8704C29.9012 38.7669 29.8789 38.6559 29.8789 38.5439C29.8789 38.4318 29.9012 38.3209 29.9445 38.2174C29.9878 38.1139 30.0513 38.0199 30.1313 37.9407C30.2113 37.8615 30.3062 37.7988 30.4107 37.756C30.5152 37.7132 30.6272 37.6913 30.7403 37.6914H55.5922C55.7053 37.6913 55.8172 37.7132 55.9217 37.756C56.0262 37.7988 56.1212 37.8615 56.2012 37.9407C56.2812 38.0199 56.3447 38.1139 56.388 38.2174C56.4313 38.3209 56.4536 38.4318 56.4536 38.5439C56.4536 38.6559 56.4313 38.7669 56.388 38.8704C56.3447 38.9739 56.2812 39.0679 56.2012 39.1471C56.1212 39.2263 56.0262 39.289 55.9217 39.3318C55.8172 39.3746 55.7053 39.3965 55.5922 39.3964Z" fill="white"/>
<path d="M55.5922 45.2694H30.7403C30.6272 45.2696 30.5152 45.2476 30.4107 45.2049C30.3062 45.1621 30.2113 45.0993 30.1313 45.0201C30.0513 44.941 29.9878 44.8469 29.9445 44.7434C29.9012 44.6399 29.8789 44.529 29.8789 44.4169C29.8789 44.3049 29.9012 44.194 29.9445 44.0904C29.9878 43.9869 30.0513 43.8929 30.1313 43.8137C30.2113 43.7346 30.3062 43.6718 30.4107 43.629C30.5152 43.5862 30.6272 43.5643 30.7403 43.5645H55.5922C55.8204 43.5645 56.0392 43.6543 56.2005 43.8141C56.3618 43.974 56.4525 44.1908 56.4525 44.4169C56.4525 44.643 56.3618 44.8599 56.2005 45.0197C56.0392 45.1796 55.8204 45.2694 55.5922 45.2694Z" fill="white"/>
<path d="M55.5921 51.3085H30.7401C30.512 51.3085 30.2932 51.2187 30.1318 51.0588C29.9705 50.8989 29.8799 50.6821 29.8799 50.456C29.8799 50.2299 29.9705 50.0131 30.1318 49.8532C30.2932 49.6933 30.512 49.6035 30.7401 49.6035H55.5921C55.7051 49.6034 55.8171 49.6253 55.9216 49.6681C56.0261 49.7109 56.1211 49.7736 56.2011 49.8528C56.2811 49.932 56.3445 50.026 56.3878 50.1295C56.4311 50.233 56.4534 50.344 56.4534 50.456C56.4534 50.568 56.4311 50.679 56.3878 50.7825C56.3445 50.886 56.2811 50.98 56.2011 51.0592C56.1211 51.1384 56.0261 51.2011 55.9216 51.2439C55.8171 51.2867 55.7051 51.3086 55.5921 51.3085Z" fill="white"/>
<path d="M63.8457 37.3425C66.571 37.3425 68.7803 35.1531 68.7803 32.4525C68.7803 29.7518 66.571 27.5625 63.8457 27.5625C61.1204 27.5625 58.9111 29.7518 58.9111 32.4525C58.9111 35.1531 61.1204 37.3425 63.8457 37.3425Z" fill="#CF5250"/>
<path d="M63.1724 34.9977C63.0872 34.9977 63.0032 34.9781 62.927 34.9403C62.8507 34.9025 62.7845 34.8477 62.7333 34.7801L61.3871 33.0013C61.3439 32.9442 61.3124 32.8792 61.2945 32.81C61.2766 32.7408 61.2727 32.6688 61.2829 32.5981C61.2931 32.5273 61.3172 32.4593 61.3539 32.3979C61.3907 32.3364 61.4393 32.2827 61.4969 32.2398C61.5546 32.197 61.6202 32.1658 61.69 32.1481C61.7599 32.1304 61.8325 32.1264 61.9039 32.1365C61.9752 32.1466 62.0439 32.1706 62.1059 32.207C62.1679 32.2434 62.2221 32.2915 62.2654 32.3487L63.1461 33.5123L65.4082 30.1498C65.489 30.03 65.6146 29.9469 65.7572 29.9187C65.8999 29.8905 66.048 29.9196 66.169 29.9996C66.2901 30.0795 66.3741 30.2038 66.4027 30.3451C66.4313 30.4865 66.4022 30.6333 66.3217 30.7533L63.6292 34.7555C63.5805 34.8279 63.515 34.8876 63.4382 34.9298C63.3613 34.9719 63.2755 34.9951 63.1877 34.9976C63.1826 34.9977 63.1775 34.9977 63.1724 34.9977Z" fill="white"/>
<path d="M76.629 97.0957L74.6214 97.761L71.0762 90.4039L74.0393 89.4219L76.629 97.0957Z" fill="#FFB6B6"/>
<path d="M77.7927 98.8554L71.3192 100.571L71.2918 100.49C71.0668 99.823 71.1172 99.5387 71.434 98.9095C71.5889 98.5995 71.8044 98.3231 72.0678 98.0963C72.3312 97.8694 72.6374 97.6965 72.9687 97.5877L72.9689 97.5876L73.8513 96.3068L76.3575 96.4646L76.9226 96.2773L77.7927 98.8554Z" fill="#2F2E41"/>
<path d="M81.5899 98.9665H79.473L78.4658 90.875L81.5903 90.8751L81.5899 98.9665Z" fill="#FFB6B6"/>
<path d="M82.1296 100.57L75.3037 100.57V100.484C75.3038 99.7809 75.5801 99.5494 76.082 99.0522C76.3281 98.807 76.6209 98.6126 76.9433 98.4802C77.2658 98.3479 77.6115 98.2802 77.9605 98.2811H77.9607L79.2075 97.3438L81.5338 98.2813L82.1297 98.2813L82.1296 100.57Z" fill="#2F2E41"/>
<path d="M65.4784 34.1364C65.522 34.3561 65.6137 34.5638 65.747 34.7446C65.8804 34.9255 66.0521 35.0752 66.2501 35.1832C66.4481 35.2912 66.6677 35.3548 66.8932 35.3696C67.1187 35.3845 67.3448 35.3501 67.5555 35.269L69.9994 37.7974L71.9121 36.7004L68.4103 33.1778C68.2493 32.8361 67.9674 32.5648 67.618 32.4153C67.2687 32.2658 66.8761 32.2485 66.5147 32.3666C66.1533 32.4848 65.8482 32.7302 65.6572 33.0564C65.4662 33.3825 65.4026 33.7668 65.4784 34.1364Z" fill="#FFB6B6"/>
<path d="M81.2948 46.8482L82.3966 45.7186L76.0253 39.8712L69.6129 34.1973L67.8369 36.6842L74.5566 42.8998L81.2948 46.8482Z" fill="white"/>
<path d="M77.3799 85.2236C77.3799 83.8041 77.4083 82.7916 77.4311 81.9779C77.4977 79.5968 77.5156 78.9568 76.5961 74.8563L76.36 73.8032L74.9673 77.9433C74.5225 79.264 74.2952 80.6471 74.2942 82.0393L76.4415 94.8064H72.0528L68.8385 81.004L68.837 76.782C68.5538 76.4916 68.3955 76.1035 68.3955 75.6997C68.3955 75.2958 68.5538 74.9077 68.837 74.6173L69.9049 68.2921L70.9858 59.7676H82.8249C82.8249 59.7676 84.9143 64.0593 82.8379 68.3164L82.8377 85.2289L81.7649 96.9229H78.453L77.3799 85.2236Z" fill="#2F2E41"/>
<path d="M82.1012 60.7994L71.0272 59.8849L70.9697 59.8802L71.8535 44.1163C71.9054 43.1252 72.2564 42.1723 72.8609 41.381C73.4654 40.5897 74.2957 39.9964 75.2443 39.678V38.5748C75.2446 38.3017 75.3542 38.04 75.549 37.8469C75.7439 37.6538 76.008 37.5452 76.2836 37.5449H77.9016C78.0947 37.5443 78.2842 37.5973 78.4485 37.6979C78.6128 37.7985 78.7454 37.9428 78.8311 38.1142L79.6223 39.6823L82.6142 42.0542C84.0919 43.2257 82.9026 54.9709 82.8386 55.5906L83.5622 59.176C83.602 59.3732 83.5972 59.5767 83.5481 59.7719C83.4991 59.967 83.407 60.149 83.2785 60.3047C83.15 60.4604 82.9883 60.586 82.805 60.6723C82.6217 60.7587 82.4214 60.8038 82.2185 60.8043C82.1796 60.8042 82.1405 60.8025 82.1012 60.7994Z" fill="white"/>
<path d="M70.3736 64.9605C70.5486 64.8188 70.6902 64.6408 70.7884 64.439C70.8865 64.2373 70.9388 64.0166 70.9416 63.7927C70.9444 63.5687 70.8976 63.3468 70.8045 63.1427C70.7114 62.9386 70.5743 62.7572 70.4028 62.6113L71.5015 59.2838L69.6238 58.1289L68.1388 62.8497C67.9106 63.1514 67.8019 63.5256 67.8335 63.9014C67.8651 64.2772 68.0346 64.6285 68.3101 64.8887C68.5856 65.1489 68.9478 65.2999 69.3281 65.3131C69.7084 65.3263 70.0804 65.2009 70.3736 64.9605Z" fill="#FFB6B6"/>
<path d="M74.236 42.3396L72.7115 41.8359L70.5095 51.5715L68.4814 61.2536L71.5318 61.6983L73.8972 51.4037L74.236 42.3396Z" fill="white"/>
<path d="M75.9007 36.5365C77.9094 36.5365 79.5377 34.9228 79.5377 32.9323C79.5377 30.9418 77.9094 29.3281 75.9007 29.3281C73.892 29.3281 72.2637 30.9418 72.2637 32.9323C72.2637 34.9228 73.892 36.5365 75.9007 36.5365Z" fill="#FFB6B6"/>
<path d="M71.0073 31.1683C71.0408 30.8267 71.1396 30.4945 71.2983 30.1895C71.4684 30.5559 71.9987 30.6195 72.3617 30.4371C72.7247 30.2548 72.9679 29.9085 73.2273 29.5977C73.9118 28.7778 74.8532 28.1127 75.92 27.9916C76.9869 27.8704 78.1628 28.4041 78.5659 29.3904C78.7468 29.1415 79.1327 29.1138 79.4057 29.2585C79.6694 29.4233 79.8752 29.6649 79.9949 29.9501C80.2634 30.4961 80.4151 31.0911 80.4406 31.6978C80.466 32.3046 80.3646 32.9101 80.1428 33.4762C79.6935 34.6027 78.5842 36.1205 77.4396 36.5457C76.7447 36.8038 76.0429 36.4734 75.3039 36.5457C75.3426 35.7464 75.499 34.7603 75.5377 33.961C75.5589 33.5233 75.5619 33.0336 75.2603 32.7132C75.1677 32.6262 75.057 32.5603 74.9359 32.5203C74.8149 32.4804 74.6864 32.4673 74.5597 32.4819C74.4329 32.4966 74.311 32.5387 74.2025 32.6052C74.0939 32.6717 74.0015 32.7611 73.9317 32.8669C73.8943 32.6184 73.8096 32.3792 73.6822 32.162C73.6167 32.0543 73.5223 31.9669 73.4094 31.9096C73.2965 31.8523 73.1697 31.8274 73.0433 31.8377C72.7347 31.8878 72.5441 32.2017 72.2609 32.3332C72.1001 32.397 71.9234 32.4107 71.7546 32.3723C71.5857 32.334 71.4327 32.2454 71.316 32.1184C71.2027 31.9888 71.1169 31.8378 71.0638 31.6745C71.0108 31.5113 70.9915 31.3391 71.0073 31.1683Z" fill="#2F2E41"/>
<path opacity="0.1" d="M76.371 51.3594L72.0996 59.825H75.3033L76.371 51.3594Z" fill="black"/>
<path d="M105 100.829C105 100.851 104.995 100.873 104.987 100.894C104.978 100.915 104.965 100.933 104.949 100.949C104.933 100.965 104.914 100.978 104.893 100.986C104.873 100.995 104.85 100.999 104.828 100.999H23.2628C23.2172 100.999 23.1735 100.981 23.1412 100.949C23.1089 100.917 23.0908 100.874 23.0908 100.829C23.0908 100.783 23.1089 100.74 23.1412 100.708C23.1735 100.676 23.2172 100.658 23.2628 100.658H104.828C104.85 100.658 104.873 100.662 104.893 100.671C104.914 100.68 104.933 100.692 104.949 100.708C104.965 100.724 104.978 100.743 104.987 100.763C104.995 100.784 105 100.806 105 100.829Z" fill="#5B588F"/>
</svg>
