<svg width="303" height="117" viewBox="0 0 303 117" fill="none" xmlns="http://www.w3.org/2000/svg">
<g filter="url(#filter0_b_703_6386)">
<ellipse cx="151.588" cy="113.129" rx="151.412" ry="3.87132" fill="#E9E9F4" fill-opacity="0.74"/>
</g>
<path d="M43.6561 67.6321C41.5432 74.9695 35.3738 80.1057 28.9383 84.4689C28.0397 85.0782 27.1409 85.6735 26.2417 86.2548C26.2356 86.2575 26.2293 86.2632 26.2232 86.2659C26.1799 86.2937 26.1366 86.3216 26.0963 86.3496C25.9107 86.4693 25.7251 86.5891 25.541 86.7075L25.6421 86.753C25.6421 86.753 25.7414 86.8058 25.6328 86.7615C25.6004 86.7479 25.5666 86.7358 25.5343 86.7222C21.7957 85.2128 17.9907 83.5922 15.1256 80.7647C12.1535 77.8284 10.4166 73.2231 12.0259 69.3658C12.2375 68.8605 12.5047 68.3805 12.8226 67.9345C12.9531 67.7475 13.0937 67.5686 13.2401 67.3929C14.1278 66.3083 15.2881 65.48 16.6017 64.9932C17.9152 64.5063 19.3346 64.3784 20.7139 64.6227C22.0932 64.8669 23.3826 65.4746 24.4496 66.383C25.5165 67.2915 26.3224 68.468 26.7845 69.7916C27.2573 65.3851 23.6275 61.6939 20.1342 58.9704C16.6394 56.2483 12.6684 53.2838 11.9928 48.9017C11.6155 46.4635 12.4624 44.1008 14.0053 42.204C14.0531 42.1464 14.1008 42.0888 14.15 42.0328C16.0282 39.8236 18.6698 38.405 21.5472 38.0603C26.906 37.5028 32.1113 40.3422 36.0043 44.0718C42.2701 50.0725 46.0581 59.2896 43.6561 67.6321Z" fill="#69CA94"/>
<path d="M33.5824 58.0349C34.6109 59.6366 35.4005 61.3799 35.9263 63.2097C36.371 64.8452 36.5689 66.5381 36.5135 68.2321C36.37 71.7181 35.3924 75.1186 33.6628 78.1476C32.3599 80.4455 30.7721 82.5694 28.9371 84.4688C28.0385 85.0781 27.1397 85.6734 26.2405 86.2547C26.2344 86.2574 26.2282 86.2631 26.222 86.2658C26.1787 86.2936 26.1354 86.3215 26.0951 86.3495C25.9095 86.4693 25.7239 86.5891 25.5398 86.7075C25.5398 86.7075 25.7402 86.8058 25.6316 86.7614C25.5993 86.7479 25.5654 86.7357 25.5332 86.7221C25.8682 83.9721 25.54 81.1818 24.5759 78.585C23.6118 75.9882 22.04 73.6605 19.9921 71.7971C17.9393 69.9619 15.4823 68.6384 12.8214 67.9345C12.952 67.7475 13.0926 67.5685 13.2389 67.3928C14.2666 67.6813 15.2668 68.0602 16.2278 68.525C19.6632 70.1764 22.4761 72.891 24.2501 76.2672C25.8421 79.3329 26.5273 82.7896 26.2252 86.2315C26.3788 86.0922 26.5326 85.9498 26.6818 85.8088C29.5227 83.1574 32.0461 80.1142 33.7538 76.602C35.2353 73.6276 35.9635 70.3343 35.8741 67.0119C35.7347 63.3892 34.2928 60.0337 32.2051 57.1125C29.9169 53.996 27.2137 51.2074 24.1708 48.824C21.1041 46.3653 17.7484 44.2915 14.1785 42.6488C14.0979 42.6112 14.035 42.544 14.0025 42.4612C13.9701 42.3784 13.9707 42.2863 14.0042 42.2039C14.028 42.13 14.08 42.0685 14.1489 42.0327C14.1843 42.0174 14.2227 42.0103 14.2613 42.012C14.2998 42.0136 14.3375 42.0239 14.3715 42.0422C14.8123 42.2453 15.25 42.4512 15.6842 42.666C19.3007 44.4553 22.6811 46.6874 25.7477 49.311C28.7099 51.839 31.4987 54.7272 33.5824 58.0349Z" fill="#69CA94"/>
<path d="M13.1509 86.1094H36.3053C36.5592 86.1094 36.8103 86.1634 37.0418 86.268C37.2734 86.3725 37.48 86.5252 37.6481 86.7158C37.8162 86.9063 37.9419 87.1306 38.0168 87.3735C38.0917 87.6164 38.1142 87.8725 38.0826 88.1248L35.1324 111.751C35.0776 112.184 34.867 112.583 34.5398 112.872C34.2126 113.161 33.7914 113.321 33.355 113.321H16.1011C15.6647 113.321 15.2435 113.161 14.9163 112.872C14.5891 112.583 14.3785 112.184 14.3237 111.751L11.3735 88.1248C11.3419 87.8725 11.3644 87.6164 11.4393 87.3735C11.5142 87.1306 11.6399 86.9063 11.808 86.7158C11.9761 86.5252 12.1827 86.3725 12.4143 86.268C12.6458 86.1634 12.8969 86.1094 13.1509 86.1094Z" fill="white"/>
<path d="M88.6475 113.503C90.2479 113.503 91.5453 112.204 91.5453 110.602C91.5453 109 90.2479 107.701 88.6475 107.701C87.0471 107.701 85.7498 109 85.7498 110.602C85.7498 112.204 87.0471 113.503 88.6475 113.503Z" fill="#9591AF"/>
<path d="M271.688 113.503C273.289 113.503 274.586 112.204 274.586 110.602C274.586 109 273.289 107.701 271.688 107.701C270.088 107.701 268.791 109 268.791 110.602C268.791 112.204 270.088 113.503 271.688 113.503Z" fill="#9591AF"/>
<path d="M141.772 70.2341H96.3735C94.2608 70.2317 92.2353 69.3905 90.7413 67.895C89.2474 66.3996 88.407 64.3721 88.4047 62.2572V31.3167C88.407 29.2018 89.2474 27.1743 90.7413 25.6788C92.2353 24.1834 94.2608 23.3422 96.3735 23.3398H141.772C143.884 23.3422 145.91 24.1834 147.404 25.6788C148.898 27.1743 149.738 29.2018 149.741 31.3167V62.2572C149.738 64.3721 148.898 66.3996 147.404 67.8951C145.91 69.3905 143.884 70.2317 141.772 70.2341Z" fill="#9591AF"/>
<path d="M202.867 70.4762H157.469C155.356 70.4739 153.33 69.6327 151.836 68.1372C150.342 66.6418 149.502 64.6142 149.5 62.4994V31.5589C149.502 29.444 150.342 27.4165 151.836 25.921C153.33 24.4256 155.356 23.5844 157.469 23.582H202.867C204.98 23.5844 207.005 24.4256 208.499 25.921C209.993 27.4165 210.833 29.444 210.836 31.5589V62.4994C210.833 64.6143 209.993 66.6418 208.499 68.1372C207.005 69.6327 204.98 70.4739 202.867 70.4762Z" fill="#9591AF"/>
<path d="M263.962 70.7165H218.564C216.451 70.7141 214.426 69.8729 212.932 68.3775C211.438 66.882 210.597 64.8545 210.595 62.7396V31.7991C210.597 29.6843 211.438 27.6567 212.932 26.1613C214.426 24.6658 216.451 23.8247 218.564 23.8223H263.962C266.075 23.8247 268.1 24.6658 269.594 26.1613C271.088 27.6567 271.928 29.6843 271.931 31.7991V62.7396C271.928 64.8545 271.088 66.882 269.594 68.3775C268.1 69.8729 266.075 70.7141 263.962 70.7165Z" fill="#9591AF"/>
<path d="M281.347 68.541H81.4021V110.359H281.347V68.541Z" fill="#9591AF"/>
<path d="M88.6464 110.602H79.9531C75.5591 110.602 71.9843 106.539 71.9843 101.545V57.9062H88.6464V110.602Z" fill="#9591AF"/>
<path d="M280.381 110.602H271.688V51.1387H288.35V100.382C288.35 106.018 284.775 110.602 280.381 110.602Z" fill="#9591AF"/>
<path d="M149.981 77.2445H88.6453V64.1915C109.091 52.4518 129.536 52.4518 149.981 64.1915V77.2445Z" fill="#E9E9F4"/>
<path d="M211.077 77.4867H149.741V64.4337C170.186 52.694 190.631 52.694 211.077 64.4337V77.4867Z" fill="#E9E9F4"/>
<path d="M272.172 77.7269H210.836V64.6739C231.281 52.9342 251.727 52.9342 272.172 64.6739V77.7269Z" fill="#E9E9F4"/>
<path d="M76.8137 69.0253C84.6823 69.0253 91.061 62.6401 91.061 54.7636C91.061 46.8871 84.6823 40.502 76.8137 40.502C68.9451 40.502 62.5664 46.8871 62.5664 54.7636C62.5664 62.6401 68.9451 69.0253 76.8137 69.0253Z" fill="#E9E9F4"/>
<path d="M285.453 68.5428C293.322 68.5428 299.7 62.1577 299.7 54.2812C299.7 46.4047 293.322 40.0195 285.453 40.0195C277.585 40.0195 271.206 46.4047 271.206 54.2812C271.206 62.1577 277.585 68.5428 285.453 68.5428Z" fill="#E9E9F4"/>
<path d="M243.485 26.3406C243.518 26.5698 243.533 26.8014 243.529 27.033L260.607 38.8153L265.161 36.6571L269.314 43.1115L261.622 47.7164C261.001 48.0884 260.276 48.2486 259.555 48.173C258.835 48.0973 258.159 47.7899 257.629 47.2969L240.333 31.2283C239.475 31.4701 238.564 31.4446 237.72 31.1552C236.877 30.8658 236.142 30.3263 235.612 29.6083C235.083 28.8904 234.784 28.0281 234.756 27.1361C234.728 26.2442 234.972 25.3648 235.455 24.615C235.939 23.8652 236.639 23.2805 237.462 22.9387C238.286 22.5969 239.194 22.5141 240.065 22.7014C240.937 22.8887 241.731 23.3373 242.342 23.9873C242.953 24.6374 243.351 25.4582 243.485 26.3406V26.3406Z" fill="#FFB8B8"/>
<path d="M260.935 37.8022C261.01 37.5422 261.141 37.3014 261.317 37.0963C261.494 36.8913 261.713 36.7268 261.959 36.614L270.546 32.6754C271.705 31.9198 273.117 31.6552 274.471 31.9397C275.825 32.2243 277.012 33.0347 277.77 34.1933C278.528 35.352 278.796 36.7642 278.516 38.1206C278.235 39.4769 277.429 40.6665 276.274 41.4287L269.175 47.7124C268.972 47.8917 268.733 48.0252 268.474 48.1038C268.215 48.1824 267.943 48.2042 267.675 48.1678C267.407 48.1313 267.15 48.0375 266.921 47.8927C266.693 47.7479 266.498 47.5555 266.351 47.3286L261.166 39.3541C261.018 39.1272 260.921 38.8712 260.881 38.6033C260.842 38.3355 260.86 38.0623 260.935 37.8022Z" fill="#69CA94"/>
<path d="M243.269 27.1088L243.183 27.115L242.949 23.8726C242.874 22.8361 242.204 22.04 241.453 22.0944L236.473 22.4551C235.722 22.5095 234.339 23.4543 234.414 24.4907L234.475 25.3258L235.7 42.2792C235.775 43.3156 237.279 44.0513 238.03 43.9969L243.01 43.6362C243.761 43.5818 244.309 42.6975 244.235 41.6611L243.35 29.4231L243.436 29.4169L243.269 27.1088Z" fill="#3F3D56"/>
<path d="M242.661 23.9061L243.945 41.6684C244.001 42.4424 243.591 43.1028 243.03 43.1435L238.027 43.5059C237.466 43.5465 236.965 42.952 236.909 42.178L235.625 24.4157C235.57 23.6416 235.979 22.9812 236.54 22.9406L237.147 22.8966C237.105 23.0546 237.114 23.2219 237.173 23.3745C237.232 23.527 237.338 23.6569 237.475 23.7455C237.533 23.7733 237.596 23.7857 237.66 23.7815L240.513 23.5749C240.78 23.5553 240.974 23.2412 240.947 22.8732C240.941 22.7884 240.923 22.7049 240.894 22.6252L241.543 22.5781C242.105 22.5375 242.605 23.1321 242.661 23.9061Z" fill="white"/>
<path d="M172.469 64.9206L170.818 60.0613L188.758 51.377L191.194 58.5492L172.469 64.9206Z" fill="#FFB8B8"/>
<path d="M168.184 67.7625L162.863 52.0938L163.061 52.0264C163.861 51.7541 164.707 51.6423 165.55 51.6972C166.393 51.7521 167.218 51.9727 167.976 52.3465C168.734 52.7203 169.411 53.2399 169.968 53.8756C170.526 54.5114 170.953 55.2508 171.225 56.0517L171.225 56.0521L174.475 65.6219L168.184 67.7625Z" fill="#2F2E41"/>
<path d="M243.668 68.3891C239.821 68.6055 235.984 67.8015 232.547 66.0583L211.452 51.6933L186.821 60.8234C186.167 61.0461 185.453 61.0121 184.823 60.7283C184.194 60.4445 183.695 59.9321 183.428 59.2946L182.221 56.3879C181.945 55.7341 181.937 54.9982 182.198 54.3386C182.46 53.679 182.969 53.1484 183.617 52.861L207.149 42.2825C209.975 41.0171 213.144 40.7428 216.144 41.5037L248.813 49.837L257.448 60.1023L257.352 60.2346C253.113 66.0891 248.085 68.0693 243.668 68.3891Z" fill="#2F2E41"/>
<path d="M270.349 25.4944C276.022 25.4944 280.621 20.8908 280.621 15.212C280.621 9.53325 276.022 4.92969 270.349 4.92969C264.676 4.92969 260.077 9.53325 260.077 15.212C260.077 20.8908 264.676 25.4944 270.349 25.4944Z" fill="#FFB8B8"/>
<path d="M259.804 64.6801L243.272 52.3647L254.547 44.3437C254.224 43.3048 252.794 37.365 260.618 33.3162C263.094 32.0348 264.879 30.9316 265.921 30.0377C267.401 28.7603 269.295 28.0685 271.249 28.0924C272.48 28.112 273.69 28.4181 274.782 28.9867C275.875 29.5552 276.821 30.3705 277.544 31.368C278.268 32.3656 278.749 33.518 278.951 34.734C279.153 35.9501 279.069 37.1965 278.706 38.3745C277.075 43.6831 274.476 50.7173 271.36 54.0814C267.835 57.8821 264.013 61.3948 259.929 64.5862L259.804 64.6801Z" fill="#69CA94"/>
<path d="M175.089 69.2272L173.439 64.3675L191.378 55.6836L193.814 62.8554L175.089 69.2272Z" fill="#FFB8B8"/>
<path d="M170.804 72.0672L165.483 56.3985L165.681 56.3311C166.481 56.0588 167.327 55.947 168.17 56.0019C169.014 56.0568 169.838 56.2774 170.596 56.6512C171.354 57.025 172.031 57.5446 172.589 58.1803C173.146 58.816 173.573 59.5555 173.845 60.3564L173.845 60.3567L177.095 69.9266L170.804 72.0672Z" fill="#2F2E41"/>
<path d="M246.289 72.6958C242.441 72.9121 238.605 72.1081 235.167 70.365L214.073 56L189.441 65.1301C188.787 65.3527 188.074 65.3187 187.444 65.0349C186.814 64.7511 186.315 64.2387 186.048 63.6012L184.841 60.6945C184.566 60.0407 184.558 59.3048 184.819 58.6452C185.08 57.9857 185.59 57.455 186.238 57.1676L209.77 46.5892C212.595 45.3238 215.764 45.0494 218.765 45.8104L251.433 54.1437L260.068 64.4089L259.972 64.5413C255.733 70.3957 250.705 72.376 246.289 72.6958Z" fill="#2F2E41"/>
<path d="M241.548 38.6744C241.676 38.8674 241.789 39.0702 241.885 39.281L262.358 42.6095L265.55 38.7073L272.063 42.7607L267.082 50.2185C266.68 50.821 266.093 51.2766 265.41 51.5168C264.727 51.7571 263.984 51.7691 263.294 51.551L240.791 44.4421C240.119 45.0284 239.284 45.396 238.398 45.4959C237.512 45.5958 236.617 45.4234 235.831 45.0015C235.046 44.5797 234.407 43.9284 234 43.1343C233.594 42.3402 233.438 41.441 233.554 40.5562C233.67 39.6714 234.053 38.843 234.651 38.1811C235.249 37.5193 236.034 37.0554 236.902 36.8511C237.77 36.6468 238.679 36.7118 239.509 37.0375C240.339 37.3632 241.05 37.9342 241.548 38.6744Z" fill="#FFB8B8"/>
<path d="M262.22 41.5524C262.177 41.2852 262.192 41.0117 262.263 40.7507C262.335 40.4897 262.463 40.2473 262.637 40.0401L268.712 32.8004C269.437 31.6205 270.6 30.7763 271.945 30.4531C273.29 30.1298 274.709 30.3538 275.89 31.076C277.071 31.7981 277.917 32.9595 278.244 34.3054C278.57 35.6513 278.351 37.072 277.632 38.2559L273.905 46.9771C273.798 47.226 273.639 47.449 273.439 47.6309C273.239 47.8128 273.002 47.9494 272.744 48.0314C272.486 48.1133 272.214 48.1387 271.946 48.1058C271.677 48.0729 271.419 47.9824 271.188 47.8406L263.092 42.8561C262.862 42.7144 262.664 42.5245 262.514 42.2995C262.363 42.0745 262.263 41.8197 262.22 41.5524Z" fill="#69CA94"/>
<path d="M267.601 26.5364C270.586 22.6924 272.241 17.981 272.317 13.113C270.912 14.1581 269.322 14.927 267.63 15.3789C265.836 15.8574 263.862 15.9537 262.172 15.1829C259.793 14.0981 258.386 11.3314 258.656 8.7285C258.926 6.12555 260.723 3.80028 263.063 2.63296C265.458 1.51179 268.19 1.34625 270.702 2.17004C272.032 1.03679 273.659 0.311118 275.39 0.0799078C277.121 -0.151302 278.882 0.121748 280.461 0.866376C284.097 2.65274 286.108 6.78945 286.457 10.8287C286.806 14.868 285.769 18.8841 284.741 22.8057L284.625 23.2488C284.305 24.4697 283.375 26.8122 283.375 26.8122C283.375 26.8122 277.973 25.7451 275.827 25.061C272.716 26.1864 267.601 26.5364 267.601 26.5364Z" fill="#AF823D"/>
<path d="M241.853 27.5218L237.452 27.8406C237.341 27.8486 237.232 27.8123 237.148 27.7397C237.064 27.667 237.013 27.564 237.005 27.4533C236.997 27.3425 237.033 27.2331 237.106 27.1491C237.178 27.0652 237.281 27.0135 237.392 27.0055L241.793 26.6867C241.848 26.6826 241.903 26.6894 241.955 26.7066C242.007 26.7239 242.056 26.7513 242.097 26.7873C242.139 26.8232 242.173 26.8671 242.198 26.9163C242.222 26.9655 242.237 27.0191 242.241 27.074C242.245 27.1289 242.238 27.184 242.221 27.2363C242.204 27.2885 242.176 27.3368 242.14 27.3784C242.104 27.42 242.06 27.4541 242.011 27.4787C241.962 27.5033 241.908 27.518 241.853 27.5218Z" fill="#3F3D56"/>
<path d="M242.003 29.6097L237.602 29.9284C237.547 29.9325 237.492 29.9257 237.44 29.9085C237.388 29.8912 237.339 29.8638 237.298 29.8279C237.256 29.7919 237.222 29.7481 237.197 29.6989C237.173 29.6497 237.158 29.5961 237.154 29.5412C237.15 29.4862 237.157 29.4311 237.174 29.3789C237.192 29.3266 237.219 29.2783 237.255 29.2367C237.291 29.1951 237.335 29.161 237.384 29.1364C237.433 29.1118 237.487 29.0972 237.542 29.0933L241.943 28.7745C242.054 28.7665 242.163 28.8028 242.247 28.8755C242.331 28.9481 242.382 29.0511 242.39 29.1619C242.398 29.2726 242.362 29.382 242.29 29.466C242.217 29.55 242.114 29.6016 242.003 29.6097Z" fill="#3F3D56"/>
<path d="M242.155 31.6975L237.753 32.0163C237.643 32.0241 237.534 31.9877 237.45 31.915C237.366 31.8424 237.315 31.7395 237.307 31.6289C237.299 31.5183 237.335 31.4091 237.407 31.3251C237.48 31.2412 237.582 31.1894 237.693 31.1812L242.094 30.8624C242.205 30.8544 242.314 30.8907 242.398 30.9634C242.482 31.036 242.533 31.139 242.541 31.2498C242.549 31.3605 242.513 31.4699 242.441 31.5539C242.368 31.6378 242.265 31.6895 242.155 31.6975Z" fill="#3F3D56"/>
<defs>
<filter id="filter0_b_703_6386" x="-12.7286" y="96.3534" width="328.632" height="33.551" filterUnits="userSpaceOnUse" color-interpolation-filters="sRGB">
<feFlood flood-opacity="0" result="BackgroundImageFix"/>
<feGaussianBlur in="BackgroundImage" stdDeviation="6.45221"/>
<feComposite in2="SourceAlpha" operator="in" result="effect1_backgroundBlur_703_6386"/>
<feBlend mode="normal" in="SourceGraphic" in2="effect1_backgroundBlur_703_6386" result="shape"/>
</filter>
</defs>
</svg>
