<svg width="36" height="36" viewBox="0 0 36 36" fill="none" xmlns="http://www.w3.org/2000/svg">
<path d="M34.5 14.91C34.4844 14.7722 34.4542 14.6364 34.41 14.505V14.37C34.3379 14.2158 34.2417 14.074 34.125 13.95V13.95L25.125 4.95C25.001 4.83332 24.8592 4.73712 24.705 4.665H24.57C24.4176 4.57761 24.2493 4.52152 24.075 4.5H12C10.8065 4.5 9.66193 4.97411 8.81802 5.81802C7.97411 6.66193 7.5 7.80653 7.5 9V10.5H6C4.80653 10.5 3.66193 10.9741 2.81802 11.818C1.97411 12.6619 1.5 13.8065 1.5 15V27C1.5 28.1935 1.97411 29.3381 2.81802 30.182C3.66193 31.0259 4.80653 31.5 6 31.5H24C25.1935 31.5 26.3381 31.0259 27.182 30.182C28.0259 29.3381 28.5 28.1935 28.5 27V25.5H30C31.1935 25.5 32.3381 25.0259 33.182 24.182C34.0259 23.3381 34.5 22.1935 34.5 21V15C34.5 15 34.5 15 34.5 14.91ZM25.5 9.615L29.385 13.5H27C26.6022 13.5 26.2206 13.342 25.9393 13.0607C25.658 12.7794 25.5 12.3978 25.5 12V9.615ZM25.5 27C25.5 27.3978 25.342 27.7794 25.0607 28.0607C24.7794 28.342 24.3978 28.5 24 28.5H6C5.60218 28.5 5.22064 28.342 4.93934 28.0607C4.65804 27.7794 4.5 27.3978 4.5 27V15C4.5 14.6022 4.65804 14.2206 4.93934 13.9393C5.22064 13.658 5.60218 13.5 6 13.5H7.5V21C7.5 22.1935 7.97411 23.3381 8.81802 24.182C9.66193 25.0259 10.8065 25.5 12 25.5H25.5V27ZM31.5 21C31.5 21.3978 31.342 21.7794 31.0607 22.0607C30.7794 22.342 30.3978 22.5 30 22.5H12C11.6022 22.5 11.2206 22.342 10.9393 22.0607C10.658 21.7794 10.5 21.3978 10.5 21V9C10.5 8.60218 10.658 8.22064 10.9393 7.93934C11.2206 7.65804 11.6022 7.5 12 7.5H22.5V12C22.5 13.1935 22.9741 14.3381 23.818 15.182C24.6619 16.0259 25.8065 16.5 27 16.5H31.5V21Z" fill="#5B588F"/>
</svg>
