<svg width="22" height="22" viewBox="0 0 22 22" fill="none" xmlns="http://www.w3.org/2000/svg">
<path d="M20.9002 6.58973L19.9002 2.71973C19.7984 2.33541 19.6211 1.97517 19.3788 1.65995C19.1365 1.34472 18.8339 1.08081 18.4887 0.883552C18.1435 0.686292 17.7626 0.559617 17.368 0.510894C16.9734 0.46217 16.573 0.492368 16.1902 0.599733L14.2602 1.11973C14.1325 1.15337 14.0128 1.21197 13.9079 1.29214C13.8029 1.3723 13.7149 1.47245 13.6489 1.5868C13.5829 1.70116 13.5402 1.82745 13.5233 1.95839C13.5063 2.08934 13.5155 2.22234 13.5502 2.34973L13.8102 3.34973L3.19021 6.15973C2.93455 6.2278 2.71628 6.39441 2.58321 6.62308C2.45013 6.85174 2.4131 7.12382 2.48021 7.37973L2.74021 8.37973L1.74021 8.63973C1.47499 8.67288 1.23381 8.81004 1.06971 9.02101C0.905619 9.23199 0.832056 9.49952 0.865208 9.76473C0.89836 10.03 1.03551 10.2711 1.24649 10.4352C1.45747 10.5993 1.72499 10.6729 1.99021 10.6397C2.07656 10.6501 2.16385 10.6501 2.25021 10.6397L3.25021 10.3697L3.51021 11.3697C3.57912 11.6222 3.74427 11.8376 3.97021 11.9697C4.12164 12.0596 4.29412 12.1079 4.47021 12.1097C4.55621 12.1249 4.6442 12.1249 4.73021 12.1097L8.00021 11.0797V11.4997C8.0009 11.9437 8.10354 12.3817 8.30021 12.7797L3.30021 17.7797C3.1119 17.9667 3.00559 18.2208 3.00465 18.4862C3.00371 18.7516 3.10823 19.0064 3.29521 19.1947C3.48219 19.383 3.73631 19.4894 4.00167 19.4903C4.26704 19.4912 4.5219 19.3867 4.71021 19.1997L9.71021 14.1997L9.99021 14.3097V20.4997C9.99021 20.7649 10.0956 21.0193 10.2831 21.2068C10.4706 21.3944 10.725 21.4997 10.9902 21.4997C11.2554 21.4997 11.5098 21.3944 11.6973 21.2068C11.8849 21.0193 11.9902 20.7649 11.9902 20.4997V14.3197C12.0893 14.2858 12.1861 14.2457 12.2802 14.1997L17.2802 19.1997C17.4685 19.3867 17.7234 19.4912 17.9887 19.4903C18.2541 19.4894 18.5082 19.383 18.6952 19.1947C18.8822 19.0064 18.9867 18.7516 18.9858 18.4862C18.9848 18.2208 18.8785 17.9667 18.6902 17.7797L13.6902 12.7797C13.8843 12.3803 13.9901 11.9437 14.0002 11.4997V9.49973L15.3502 9.13973L15.6002 10.1397C15.6588 10.3579 15.7895 10.5498 15.9711 10.6842C16.1527 10.8185 16.3744 10.8875 16.6002 10.8797H16.8602L18.7902 10.3597C19.1803 10.2573 19.5457 10.0774 19.8647 9.83054C20.1836 9.58372 20.4495 9.27512 20.6465 8.92319C20.8434 8.57127 20.9674 8.18324 21.011 7.78231C21.0546 7.38137 21.0169 6.97577 20.9002 6.58973ZM12.0002 11.4997C11.9992 11.7572 11.8989 12.0044 11.7202 12.1897C11.5348 12.3684 11.2877 12.4687 11.0302 12.4697C10.7679 12.4686 10.5165 12.3645 10.3302 12.1797C10.1455 11.9935 10.0413 11.7421 10.0402 11.4797V10.4797L12.0002 9.99973V11.4997ZM5.19021 9.75973L4.67021 7.82973L14.3302 5.23973L14.5902 6.23973L14.8502 7.23973L5.19021 9.75973ZM18.8702 7.85973C18.8046 7.9745 18.717 8.07513 18.6123 8.1558C18.5076 8.23648 18.3879 8.29559 18.2602 8.32973L17.2602 8.58973L16.4802 5.68973L16.0002 3.75973L15.7402 2.75973L16.7402 2.49973C16.8676 2.46501 17.0006 2.45585 17.1315 2.4728C17.2625 2.48974 17.3888 2.53245 17.5031 2.59846C17.6175 2.66447 17.7176 2.75247 17.7978 2.85738C17.878 2.9623 17.9366 3.08205 17.9702 3.20973L18.9702 7.07973C19.0071 7.20976 19.0173 7.34591 19.0001 7.47998C18.9829 7.61404 18.9387 7.74323 18.8702 7.85973Z" fill="white"/>
</svg>
