<svg width="22" height="22" viewBox="0 0 22 22" fill="none" xmlns="http://www.w3.org/2000/svg">
<path d="M20.9002 6.58998L19.9002 2.71998C19.7984 2.33565 19.6211 1.97541 19.3788 1.66019C19.1365 1.34497 18.8339 1.08106 18.4887 0.883796C18.1435 0.686536 17.7626 0.559862 17.368 0.511138C16.9734 0.462414 16.573 0.492612 16.1902 0.599977L14.2602 1.11998C14.1325 1.15362 14.0128 1.21221 13.9079 1.29238C13.8029 1.37254 13.7149 1.47269 13.6489 1.58705C13.5829 1.7014 13.5402 1.82769 13.5233 1.95864C13.5063 2.08958 13.5155 2.22259 13.5502 2.34998L13.8102 3.34998L3.19021 6.15998C2.93455 6.22805 2.71628 6.39466 2.58321 6.62332C2.45013 6.85198 2.4131 7.12406 2.48021 7.37998L2.74021 8.37998L1.74021 8.63998C1.47499 8.67313 1.23381 8.81028 1.06971 9.02126C0.905619 9.23224 0.832056 9.49976 0.865208 9.76498C0.89836 10.0302 1.03551 10.2714 1.24649 10.4355C1.45747 10.5996 1.72499 10.6731 1.99021 10.64C2.07656 10.6504 2.16385 10.6504 2.25021 10.64L3.25021 10.37L3.51021 11.37C3.57912 11.6225 3.74427 11.8379 3.97021 11.97C4.12164 12.0599 4.29412 12.1081 4.47021 12.11C4.55621 12.1251 4.6442 12.1251 4.73021 12.11L8.00021 11.08V11.5C8.0009 11.944 8.10354 12.3819 8.30021 12.78L3.30021 17.78C3.1119 17.967 3.00559 18.2211 3.00465 18.4864C3.00371 18.7518 3.10823 19.0067 3.29521 19.195C3.48219 19.3833 3.73631 19.4896 4.00167 19.4905C4.26704 19.4915 4.5219 19.387 4.71021 19.2L9.71021 14.2L9.99021 14.31V20.5C9.99021 20.7652 10.0956 21.0195 10.2831 21.2071C10.4706 21.3946 10.725 21.5 10.9902 21.5C11.2554 21.5 11.5098 21.3946 11.6973 21.2071C11.8849 21.0195 11.9902 20.7652 11.9902 20.5V14.32C12.0893 14.286 12.1861 14.246 12.2802 14.2L17.2802 19.2C17.4685 19.387 17.7234 19.4915 17.9887 19.4905C18.2541 19.4896 18.5082 19.3833 18.6952 19.195C18.8822 19.0067 18.9867 18.7518 18.9858 18.4864C18.9848 18.2211 18.8785 17.967 18.6902 17.78L13.6902 12.78C13.8843 12.3805 13.9901 11.944 14.0002 11.5V9.49998L15.3502 9.13998L15.6002 10.14C15.6588 10.3581 15.7895 10.55 15.9711 10.6844C16.1527 10.8188 16.3744 10.8877 16.6002 10.88H16.8602L18.7902 10.36C19.1803 10.2576 19.5457 10.0776 19.8647 9.83078C20.1836 9.58396 20.4495 9.27536 20.6465 8.92344C20.8434 8.57151 20.9674 8.18348 21.011 7.78255C21.0546 7.38162 21.0169 6.97601 20.9002 6.58998ZM12.0002 11.5C11.9992 11.7574 11.8989 12.0046 11.7202 12.19C11.5348 12.3687 11.2877 12.469 11.0302 12.47C10.7679 12.4689 10.5165 12.3647 10.3302 12.18C10.1455 11.9937 10.0413 11.7423 10.0402 11.48V10.48L12.0002 9.99998V11.5ZM5.19021 9.75998L4.67021 7.82998L14.3302 5.23998L14.5902 6.23998L14.8502 7.23998L5.19021 9.75998ZM18.8702 7.85998C18.8046 7.97474 18.717 8.07538 18.6123 8.15605C18.5076 8.23672 18.3879 8.29584 18.2602 8.32998L17.2602 8.58998L16.4802 5.68998L16.0002 3.75998L15.7402 2.75998L16.7402 2.49998C16.8676 2.46525 17.0006 2.4561 17.1315 2.47304C17.2625 2.48999 17.3888 2.53269 17.5031 2.5987C17.6175 2.66471 17.7176 2.75271 17.7978 2.85763C17.878 2.96254 17.9366 3.0823 17.9702 3.20998L18.9702 7.07998C19.0071 7.21 19.0173 7.34616 19.0001 7.48022C18.9829 7.61428 18.9387 7.74347 18.8702 7.85998Z" fill="#69CA94"/>
</svg>
