<svg width="72" height="72" viewBox="0 0 72 72" fill="none" xmlns="http://www.w3.org/2000/svg">
<path d="M39 68.25H27C10.71 68.25 3.75 61.29 3.75 45V27C3.75 10.71 10.71 3.75 27 3.75H45C61.29 3.75 68.25 10.71 68.25 27V39C68.25 40.23 67.23 41.25 66 41.25C64.77 41.25 63.75 40.23 63.75 39V27C63.75 13.17 58.83 8.25 45 8.25H27C13.17 8.25 8.25 13.17 8.25 27V45C8.25 58.83 13.17 63.75 27 63.75H39C40.23 63.75 41.25 64.77 41.25 66C41.25 67.23 40.23 68.25 39 68.25Z" fill="#69CA94"/>
<path d="M21.9903 45.72C21.5103 45.72 21.0303 45.57 20.6103 45.24C19.6203 44.49 19.4404 43.08 20.1904 42.09L27.3303 32.82C28.2003 31.71 29.4303 30.99 30.8403 30.81C32.2503 30.63 33.6303 31.02 34.7403 31.89L40.2303 36.21C40.4403 36.39 40.6503 36.36 40.8003 36.36C40.9203 36.36 41.1303 36.3 41.3103 36.06L48.2403 27.12C48.9903 26.13 50.4003 25.95 51.3903 26.73C52.3803 27.48 52.5604 28.89 51.7804 29.88L44.8504 38.82C43.9804 39.93 42.7503 40.65 41.3403 40.8C39.9603 40.98 38.5503 40.59 37.4703 39.72L31.9803 35.4C31.7703 35.22 31.5303 35.22 31.4103 35.25C31.2903 35.25 31.0803 35.31 30.9003 35.55L23.7604 44.82C23.3404 45.42 22.6803 45.72 21.9903 45.72Z" fill="#69CA94"/>
<path d="M60.7799 68.2497C59.7299 68.2497 58.3799 67.9197 56.7899 66.9597L56.0399 66.5097C55.8299 66.3897 55.1998 66.3897 54.9898 66.5097L54.2398 66.9597C50.7898 69.0297 48.5999 68.1597 47.6399 67.4397C46.6499 66.7197 45.1199 64.9197 46.0199 60.9597L46.1699 60.3297C46.2299 60.0897 46.0498 59.5197 45.8998 59.3397L44.8499 58.2897C43.0799 56.4897 42.3898 54.3897 42.9898 52.4997C43.5898 50.6397 45.3599 49.3197 47.8499 48.8997L48.9898 48.7197C49.1998 48.6597 49.6198 48.3597 49.7398 48.1497L50.5798 46.4397C51.7498 44.0697 53.5499 42.7197 55.5299 42.7197C57.5099 42.7197 59.3099 44.0697 60.4799 46.4397L61.3199 48.1197C61.4399 48.3297 61.8599 48.6297 62.0699 48.6897L63.2099 48.8697C65.6999 49.2897 67.4699 50.6097 68.0699 52.4697C68.6699 54.3297 68.0099 56.4297 66.2099 58.2597L65.1599 59.3097C65.0099 59.4897 64.8299 60.0597 64.8899 60.2997L65.0399 60.9297C65.9399 64.8897 64.4099 66.6897 63.4199 67.4097C62.8799 67.8297 62.0099 68.2497 60.7799 68.2497ZM55.4699 47.2497C55.4399 47.2797 55.0199 47.5797 54.5999 48.4497L53.7599 50.1597C53.0399 51.6297 51.3298 52.8897 49.7398 53.1597L48.5999 53.3397C47.6399 53.4897 47.3099 53.8197 47.2799 53.8797C47.2799 53.9397 47.3699 54.4197 48.0599 55.1097L49.1099 56.1597C50.3399 57.4197 50.9698 59.5797 50.5798 61.2897L50.4299 61.9197C50.1599 63.0897 50.2799 63.5997 50.3399 63.7797C50.4299 63.7197 50.9399 63.6597 51.9299 63.0597L52.6799 62.6097C54.3299 61.6197 56.6999 61.6197 58.3499 62.6097L59.0999 63.0597C60.3299 63.8097 60.8399 63.7197 60.8699 63.7197C60.7499 63.7197 60.8999 63.1197 60.6299 61.9197L60.4799 61.2897C60.0899 59.5497 60.7199 57.4197 61.9499 56.1597L62.9999 55.1097C63.6899 54.4197 63.7799 53.9397 63.7799 53.8497C63.7499 53.7897 63.4199 53.4897 62.4599 53.3097L61.3199 53.1297C59.6999 52.8597 58.0199 51.5997 57.2999 50.1297L56.4599 48.4497C55.9799 47.5497 55.5599 47.2797 55.4699 47.2497Z" fill="#69CA94"/>
</svg>
