<svg width="72" height="72" viewBox="0 0 72 72" fill="none" xmlns="http://www.w3.org/2000/svg">
<path d="M36 68.3403C33.93 68.3403 31.98 67.2903 30.6 65.4603L26.1 59.4603C26.01 59.3403 25.65 59.1902 25.5 59.1602H24C11.49 59.1602 3.75 55.7702 3.75 38.9102V23.9102C3.75 10.6502 10.74 3.66016 24 3.66016H48C61.26 3.66016 68.25 10.6502 68.25 23.9102V38.9102C68.25 52.1702 61.26 59.1602 48 59.1602H46.5C46.26 59.1602 46.05 59.2803 45.9 59.4603L41.4 65.4603C40.02 67.2903 38.07 68.3403 36 68.3403ZM24 8.16016C13.26 8.16016 8.25 13.1702 8.25 23.9102V38.9102C8.25 52.4702 12.9 54.6602 24 54.6602H25.5C27.03 54.6602 28.77 55.5302 29.7 56.7602L34.2 62.7602C35.25 64.1402 36.75 64.1402 37.8 62.7602L42.3 56.7602C43.29 55.4402 44.85 54.6602 46.5 54.6602H48C58.74 54.6602 63.75 49.6502 63.75 38.9102V23.9102C63.75 13.1702 58.74 8.16016 48 8.16016H24Z" fill="#69CA94"/>
<path d="M23.9998 40.35C23.4298 40.35 22.8598 40.1399 22.4098 39.6899L16.4098 33.6899C15.5398 32.8199 15.5398 31.3799 16.4098 30.5099L22.4098 24.5099C23.2798 23.6399 24.7198 23.6399 25.5898 24.5099C26.4598 25.3799 26.4598 26.8199 25.5898 27.6899L21.1798 32.1L25.5898 36.5099C26.4598 37.3799 26.4598 38.8199 25.5898 39.6899C25.1398 40.1399 24.5698 40.35 23.9998 40.35Z" fill="#69CA94"/>
<path d="M47.9998 40.35C47.4298 40.35 46.8598 40.1399 46.4098 39.6899C45.5398 38.8199 45.5398 37.3799 46.4098 36.5099L50.8198 32.1L46.4098 27.6899C45.5398 26.8199 45.5398 25.3799 46.4098 24.5099C47.2798 23.6399 48.7198 23.6399 49.5898 24.5099L55.5898 30.5099C56.4598 31.3799 56.4598 32.8199 55.5898 33.6899L49.5898 39.6899C49.1398 40.1399 48.5698 40.35 47.9998 40.35Z" fill="#69CA94"/>
<path d="M32.9996 41.3403C32.6996 41.3403 32.3996 41.2801 32.0996 41.1601C30.9596 40.6801 30.4196 39.3602 30.9296 38.1902L36.9296 24.1802C37.4096 23.0402 38.7296 22.5002 39.8996 23.0102C41.0396 23.4902 41.5796 24.8101 41.0696 25.9801L35.0696 39.9903C34.7096 40.8303 33.8696 41.3403 32.9996 41.3403Z" fill="#69CA94"/>
</svg>
