<svg width="185" height="127" viewBox="0 0 185 127" fill="none" xmlns="http://www.w3.org/2000/svg">
<path fill-rule="evenodd" clip-rule="evenodd" d="M183.25 64.5423C189.226 86.8453 175.99 109.77 153.687 115.746C131.385 121.722 108.46 108.487 102.484 86.1835C96.5077 63.8806 109.743 40.9559 132.046 34.9799C154.349 29.0038 177.274 42.2394 183.25 64.5423ZM158.424 69.7027L163.335 68.3867C163.489 68.8403 163.629 69.302 163.755 69.7715C166.846 81.3075 160 93.165 148.464 96.2561C136.928 99.3472 125.071 92.5012 121.98 80.9652C121.854 80.4957 121.745 80.0257 121.651 79.5558L136.315 75.6267C136.38 76.0971 136.475 76.5686 136.601 77.0391C138.25 83.1917 144.574 86.8429 150.727 85.1943C156.879 83.5457 160.53 77.2217 158.882 71.0691C158.756 70.5986 158.602 70.1427 158.424 69.7027Z" fill="#7465F1"/>
<path fill-rule="evenodd" clip-rule="evenodd" d="M18.5837 37.5324C4.28955 62.2906 12.7723 93.9487 37.5305 108.243C62.2886 122.537 93.9467 114.054 108.241 89.296C122.535 64.5379 114.052 32.8797 89.294 18.5856C64.5359 4.2915 32.8778 12.7743 18.5837 37.5324ZM47.2761 49.5876L41.4157 46.1318C40.6352 47.1219 39.9249 48.1871 39.2942 49.3249C32.414 61.7399 37.6338 78.1148 50.9529 85.8993C64.2721 93.6838 80.647 89.9301 87.5273 77.5151C88.1218 76.4424 88.626 75.34 89.0424 74.2162L72.3368 64.3653C72.1004 65.6295 71.6695 66.8606 71.0313 68.0207C67.4544 74.5222 58.7212 76.3298 51.5249 72.0582C44.3287 67.7866 41.3946 59.0533 44.9714 52.5519C45.5948 51.4188 46.3749 50.4282 47.2761 49.5876Z" fill="#69CA94"/>
</svg>
