<svg width="48" height="48" viewBox="0 0 48 48" fill="none" xmlns="http://www.w3.org/2000/svg">
<path d="M24 27.6998C23.74 27.6998 23.48 27.6398 23.26 27.4998C22.54 27.0798 22.3 26.1598 22.7 25.4598L24.4 22.4998H22.72C21.72 22.4998 20.9 22.0598 20.46 21.3198C20.02 20.5598 20.06 19.6398 20.56 18.7598L22.7 15.0398C23.12 14.3198 24.04 14.0798 24.74 14.4798C25.46 14.8998 25.7 15.8198 25.3 16.5198L23.6 19.4998H25.28C26.28 19.4998 27.1 19.9398 27.54 20.6798C27.98 21.4398 27.94 22.3598 27.44 23.2398L25.3 26.9598C25.02 27.4398 24.52 27.6998 24 27.6998Z" fill="url(#paint0_linear_4033_12287)"/>
<path d="M29.54 39.4996H18.52C17.64 39.4996 16.52 39.3996 15.78 38.6396C15.06 37.8996 15.08 36.9796 15.1 36.3596V34.5796C10.06 31.2196 6.73999 25.3796 6.73999 19.8196C6.73999 14.5596 9.09999 9.63961 13.2 6.33961C17.3 3.03961 22.68 1.79961 27.94 2.95961C32.94 4.05961 37.26 7.39961 39.5 11.8996C43.84 20.6396 39.66 30.0996 32.98 34.5996V36.0996C33 36.6796 33.02 37.7396 32.2 38.5796C31.58 39.1796 30.7 39.4996 29.54 39.4996ZM18.08 36.4796C18.18 36.4796 18.32 36.4996 18.5 36.4996H29.54C29.74 36.4996 29.88 36.4796 29.96 36.4596C29.96 36.3996 29.96 36.3196 29.96 36.2596V33.7396C29.96 33.2196 30.24 32.7196 30.68 32.4596C36.6 28.8796 40.52 20.6996 36.78 13.1996C34.94 9.49961 31.38 6.75961 27.26 5.85961C22.9 4.89961 18.44 5.91961 15.04 8.65961C11.64 11.3996 9.69999 15.4596 9.69999 19.8196C9.69999 25.3796 13.54 30.1796 17.34 32.4796C17.8 32.7596 18.06 33.2396 18.06 33.7596V36.4596C18.08 36.4596 18.08 36.4596 18.08 36.4796Z" fill="url(#paint1_linear_4033_12287)"/>
<path d="M31 45.4999C30.86 45.4999 30.72 45.4799 30.58 45.4399C26.26 44.1999 21.72 44.1999 17.4 45.4399C16.6 45.6599 15.78 45.1999 15.54 44.3999C15.3 43.5999 15.78 42.7799 16.58 42.5399C21.42 41.1599 26.56 41.1599 31.4 42.5399C32.2 42.7599 32.66 43.5999 32.44 44.3999C32.26 45.0799 31.66 45.4999 31 45.4999Z" fill="url(#paint2_linear_4033_12287)"/>
<defs>
<linearGradient id="paint0_linear_4033_12287" x1="20.1555" y1="14.2871" x2="27.7682" y2="14.3285" gradientUnits="userSpaceOnUse">
<stop stop-color="#817EA6"/>
<stop offset="1" stop-color="#2E2952"/>
</linearGradient>
<linearGradient id="paint1_linear_4033_12287" x1="6.73999" y1="2.53418" x2="40.9302" y2="2.83691" gradientUnits="userSpaceOnUse">
<stop stop-color="#817EA6"/>
<stop offset="1" stop-color="#2E2952"/>
</linearGradient>
<linearGradient id="paint2_linear_4033_12287" x1="15.478" y1="41.5049" x2="32.2994" y2="42.184" gradientUnits="userSpaceOnUse">
<stop stop-color="#817EA6"/>
<stop offset="1" stop-color="#2E2952"/>
</linearGradient>
</defs>
</svg>
