<svg width="72" height="72" viewBox="0 0 72 72" fill="none" xmlns="http://www.w3.org/2000/svg">
<path d="M28.8 62.25C15.63 62.25 9.75 56.37 9.75 43.2V28.8C9.75 15.63 15.63 9.75 28.8 9.75H43.2C56.37 9.75 62.25 15.63 62.25 28.8C62.25 30.03 61.23 31.05 60 31.05C58.77 31.05 57.75 30.03 57.75 28.8C57.75 18.06 53.94 14.25 43.2 14.25H28.8C18.06 14.25 14.25 18.06 14.25 28.8V43.2C14.25 53.94 18.06 57.75 28.8 57.75C30.03 57.75 31.05 58.77 31.05 60C31.05 61.23 30.03 62.25 28.8 62.25Z" fill="#69CA94"/>
<path d="M23.97 51.3C23.49 51.3 22.98 51.15 22.56 50.82C19.95 48.75 18.72 45.45 18.72 40.5V31.5C18.72 22.8 22.77 18.75 31.47 18.75H40.47C45.42 18.75 48.69 19.98 50.79 22.59C51.57 23.55 51.39 24.99 50.43 25.74C49.47 26.52 48.03 26.37 47.28 25.38C46.56 24.45 45.06 23.25 40.5 23.25H31.5C25.26 23.25 23.25 25.26 23.25 31.5V40.5C23.25 45.06 24.48 46.56 25.38 47.28C26.34 48.06 26.52 49.47 25.74 50.43C25.29 51 24.63 51.3 23.97 51.3Z" fill="#69CA94"/>
<path d="M24.03 14.25C22.77 14.25 21.78 13.23 21.78 12V6C21.78 4.77 22.8 3.75 24.03 3.75C25.26 3.75 26.28 4.77 26.28 6V12C26.28 13.23 25.26 14.25 24.03 14.25Z" fill="#69CA94"/>
<path d="M36 14.25C34.77 14.25 33.75 13.23 33.75 12V6C33.75 4.77 34.77 3.75 36 3.75C37.23 3.75 38.25 4.77 38.25 6V12C38.25 13.23 37.23 14.25 36 14.25Z" fill="#69CA94"/>
<path d="M48 14.25C46.77 14.25 45.75 13.23 45.75 12V6C45.75 4.77 46.77 3.75 48 3.75C49.23 3.75 50.25 4.77 50.25 6V12C50.25 13.23 49.23 14.25 48 14.25Z" fill="#69CA94"/>
<path d="M66 26.25H60C58.77 26.25 57.75 25.23 57.75 24C57.75 22.77 58.77 21.75 60 21.75H66C67.23 21.75 68.25 22.77 68.25 24C68.25 25.23 67.26 26.25 66 26.25Z" fill="#69CA94"/>
<path d="M24.03 68.25C22.8 68.25 21.78 67.23 21.78 66V60C21.78 58.77 22.8 57.75 24.03 57.75C25.26 57.75 26.28 58.77 26.28 60V66C26.28 67.23 25.26 68.25 24.03 68.25Z" fill="#69CA94"/>
<path d="M12 26.25H6C4.77 26.25 3.75 25.26 3.75 24C3.75 22.74 4.77 21.75 6 21.75H12C13.23 21.75 14.25 22.77 14.25 24C14.25 25.23 13.26 26.25 12 26.25Z" fill="#69CA94"/>
<path d="M12 38.25H6C4.77 38.25 3.75 37.23 3.75 36C3.75 34.77 4.77 33.75 6 33.75H12C13.23 33.75 14.25 34.77 14.25 36C14.25 37.23 13.26 38.25 12 38.25Z" fill="#69CA94"/>
<path d="M12 50.25H6C4.77 50.25 3.75 49.23 3.75 48C3.75 46.77 4.77 45.75 6 45.75H12C13.23 45.75 14.25 46.77 14.25 48C14.25 49.23 13.26 50.25 12 50.25Z" fill="#69CA94"/>
<path d="M50.13 58.0205C46.26 58.0205 43.11 54.8705 43.11 51.0005C43.11 47.1305 46.26 43.9805 50.13 43.9805C54 43.9805 57.15 47.1305 57.15 51.0005C57.12 54.8705 54 58.0205 50.13 58.0205ZM50.13 48.4805C48.75 48.4805 47.61 49.6205 47.61 51.0005C47.61 52.3805 48.75 53.5205 50.13 53.5205C51.51 53.5205 52.65 52.3805 52.65 51.0005C52.62 49.6205 51.51 48.4805 50.13 48.4805Z" fill="#69CA94"/>
<path d="M55.2 68.2504C53.52 68.2504 51.87 67.3804 50.97 65.8204L50.76 65.4904C50.43 64.9204 50.16 64.7704 50.1 64.7404C50.07 64.7404 49.77 64.9204 49.44 65.4904L49.26 65.7904C47.88 68.1604 44.85 68.9404 42.54 67.5604L39.84 66.0004C38.61 65.3104 37.74 64.1704 37.38 62.7904C37.02 61.4404 37.2 60.0004 37.89 58.8004C38.22 58.2304 38.22 57.9004 38.19 57.8404C38.16 57.8104 37.89 57.6604 37.23 57.6604C34.32 57.6604 31.95 55.2904 31.95 52.4104V49.6204C31.95 46.7104 34.32 44.3704 37.2 44.3704C37.86 44.3704 38.13 44.1904 38.19 44.1604C38.19 44.1304 38.19 43.8004 37.86 43.2304C37.17 42.0004 36.96 40.5904 37.35 39.2404C37.71 37.8904 38.58 36.7504 39.81 36.0304L42.54 34.4404C44.82 33.0904 47.85 33.8704 49.2 36.2104L49.3799 36.5404C49.7099 37.1104 49.98 37.2604 50.04 37.2904C50.07 37.2904 50.37 37.1104 50.7 36.5404L50.8799 36.2404C52.2899 33.8704 55.29 33.0904 57.6 34.4704L60.3899 36.0004C61.6199 36.6904 62.49 37.8304 62.85 39.2104C63.21 40.5604 63.03 42.0004 62.34 43.2004C62.01 43.7704 62.01 44.1004 62.04 44.1604C62.07 44.1904 62.34 44.3404 63 44.3404C65.91 44.3404 68.28 46.7104 68.28 49.5904V52.3804C68.28 55.2904 65.91 57.6304 63.03 57.6304C62.37 57.6304 62.1 57.8104 62.04 57.8404C62.04 57.8704 62.04 58.2004 62.37 58.7704C63.06 60.0004 63.2699 61.4104 62.8799 62.7604C62.5199 64.1104 61.65 65.2504 60.42 65.9704L57.69 67.5604C56.88 68.0104 56.04 68.2504 55.2 68.2504ZM50.1299 60.2404C51.9299 60.2404 53.58 61.3204 54.69 63.2404L54.87 63.5704C54.96 63.7204 55.1999 63.8104 55.3799 63.6904L58.1399 62.1004C58.3799 61.9804 58.47 61.7404 58.5 61.6204C58.53 61.5004 58.56 61.2904 58.44 61.0504C57.33 59.1604 57.24 57.1804 58.1399 55.6204C59.0399 54.0604 60.81 53.1604 63 53.1604C63.42 53.1604 63.78 52.8004 63.78 52.4104V49.6204C63.78 49.2004 63.42 48.8704 63.03 48.8704C60.84 48.8704 59.04 47.9704 58.17 46.4104C57.27 44.8504 57.39 42.8704 58.47 40.9804C58.62 40.7404 58.59 40.5004 58.53 40.4104C58.5 40.2904 58.41 40.0804 58.17 39.9304L55.44 38.3404C55.23 38.2204 54.99 38.3104 54.87 38.4904L54.72 38.7604C53.61 40.6804 51.9599 41.7604 50.16 41.7604C48.36 41.7604 46.71 40.6804 45.6 38.7604L45.42 38.4604C45.33 38.2804 45.06 38.2204 44.91 38.3104L42.15 39.9004C41.91 40.0204 41.82 40.2604 41.79 40.3804C41.76 40.5004 41.73 40.7104 41.85 40.9504C42.96 42.8404 43.05 44.8204 42.15 46.3804C41.25 47.9404 39.48 48.8404 37.29 48.8404C36.87 48.8404 36.51 49.2004 36.51 49.5904V52.3804C36.51 52.8004 36.87 53.1304 37.26 53.1304C39.45 53.1304 41.25 54.0304 42.12 55.5904C43.02 57.1504 42.9 59.1304 41.82 61.0204C41.7 61.2604 41.73 61.4704 41.76 61.5904C41.79 61.7104 41.88 61.9204 42.12 62.0704L44.85 63.6604C45.06 63.7804 45.3 63.6904 45.42 63.5104L45.57 63.2104C46.65 61.3204 48.33 60.2404 50.1299 60.2404Z" fill="#69CA94"/>
</svg>
