<svg width="72" height="72" viewBox="0 0 72 72" fill="none" xmlns="http://www.w3.org/2000/svg">
<path d="M52.35 68.25C48.96 68.25 45.39 67.44 41.7 65.88C38.1 64.35 34.47 62.25 30.93 59.7C27.42 57.12 24.03 54.24 20.82 51.09C17.64 47.88 14.76 44.49 12.21 41.01C9.63 37.41 7.56 33.81 6.09 30.33C4.53 26.61 3.75 23.01 3.75 19.62C3.75 17.28 4.17 15.06 4.98 12.99C5.82 10.86 7.17 8.88 9 7.17C11.31 4.89 13.95 3.75 16.77 3.75C17.94 3.75 19.14 4.02 20.16 4.5C21.33 5.04 22.32 5.85 23.04 6.93L30 16.74C30.63 17.61 31.11 18.45 31.44 19.29C31.83 20.19 32.04 21.09 32.04 21.96C32.04 23.1 31.71 24.21 31.08 25.26C30.63 26.07 29.94 26.94 29.07 27.81L27.03 29.94C27.06 30.03 27.09 30.09 27.12 30.15C27.48 30.78 28.2 31.86 29.58 33.48C31.05 35.16 32.43 36.69 33.81 38.1C35.58 39.84 37.05 41.22 38.43 42.36C40.14 43.8 41.25 44.52 41.91 44.85L41.85 45L44.04 42.84C44.97 41.91 45.87 41.22 46.74 40.77C48.39 39.75 50.49 39.57 52.59 40.44C53.37 40.77 54.21 41.22 55.11 41.85L65.07 48.93C66.18 49.68 66.99 50.64 67.47 51.78C67.92 52.92 68.13 53.97 68.13 55.02C68.13 56.46 67.8 57.9 67.17 59.25C66.54 60.6 65.76 61.77 64.77 62.85C63.06 64.74 61.2 66.09 59.04 66.96C56.97 67.8 54.72 68.25 52.35 68.25ZM16.77 8.25C15.12 8.25 13.59 8.97 12.12 10.41C10.74 11.7 9.78 13.11 9.18 14.64C8.55 16.2 8.25 17.85 8.25 19.62C8.25 22.41 8.91 25.44 10.23 28.56C11.58 31.74 13.47 35.04 15.87 38.34C18.27 41.64 21 44.85 24 47.88C27 50.85 30.24 53.61 33.57 56.04C36.81 58.41 40.14 60.33 43.44 61.71C48.57 63.9 53.37 64.41 57.33 62.76C58.86 62.13 60.21 61.17 61.44 59.79C62.13 59.04 62.67 58.23 63.12 57.27C63.48 56.52 63.66 55.74 63.66 54.96C63.66 54.48 63.57 54 63.33 53.46C63.24 53.28 63.06 52.95 62.49 52.56L52.53 45.48C51.93 45.06 51.39 44.76 50.88 44.55C50.22 44.28 49.95 44.01 48.93 44.64C48.33 44.94 47.79 45.39 47.19 45.99L44.91 48.24C43.74 49.38 41.94 49.65 40.56 49.14L39.75 48.78C38.52 48.12 37.08 47.1 35.49 45.75C34.05 44.52 32.49 43.08 30.6 41.22C29.13 39.72 27.66 38.13 26.13 36.36C24.72 34.71 23.7 33.3 23.07 32.13L22.71 31.23C22.53 30.54 22.47 30.15 22.47 29.73C22.47 28.65 22.86 27.69 23.61 26.94L25.86 24.6C26.46 24 26.91 23.43 27.21 22.92C27.45 22.53 27.54 22.2 27.54 21.9C27.54 21.66 27.45 21.3 27.3 20.94C27.09 20.46 26.76 19.92 26.34 19.35L19.38 9.51C19.08 9.09 18.72 8.79 18.27 8.58C17.79 8.37 17.28 8.25 16.77 8.25ZM41.85 45.03L41.37 47.07L42.18 44.97C42.03 44.94 41.91 44.97 41.85 45.03Z" fill="#69CA94"/>
<path d="M55.5 29.25C54.27 29.25 53.25 28.23 53.25 27C53.25 25.92 52.17 23.67 50.37 21.75C48.6 19.86 46.65 18.75 45 18.75C43.77 18.75 42.75 17.73 42.75 16.5C42.75 15.27 43.77 14.25 45 14.25C47.91 14.25 50.97 15.81 53.64 18.66C56.13 21.33 57.75 24.6 57.75 27C57.75 28.23 56.73 29.25 55.5 29.25Z" fill="#69CA94"/>
<path d="M66 29.25C64.77 29.25 63.75 28.23 63.75 27C63.75 16.65 55.35 8.25 45 8.25C43.77 8.25 42.75 7.23 42.75 6C42.75 4.77 43.77 3.75 45 3.75C57.81 3.75 68.25 14.19 68.25 27C68.25 28.23 67.23 29.25 66 29.25Z" fill="#69CA94"/>
</svg>
