<svg width="454" height="329" viewBox="0 0 454 329" fill="none" xmlns="http://www.w3.org/2000/svg">
<path fill-rule="evenodd" clip-rule="evenodd" d="M474.232 167.028C489.697 224.745 455.445 284.072 397.727 299.537C340.01 315.003 280.683 280.75 265.218 223.033C249.752 165.315 284.005 105.988 341.722 90.523C399.44 75.0576 458.766 109.31 474.232 167.028ZM409.985 180.38L422.694 176.975C423.093 178.148 423.456 179.343 423.782 180.557C431.781 210.411 414.064 241.098 384.211 249.097C354.357 257.096 323.67 239.38 315.671 209.526C315.346 208.311 315.063 207.095 314.821 205.879L352.77 195.711C352.939 196.928 353.185 198.148 353.512 199.365C357.778 215.287 374.144 224.736 390.066 220.47C405.988 216.203 415.437 199.837 411.171 183.915C410.844 182.698 410.447 181.518 409.985 180.38Z" fill="#7465F1"/>
<path fill-rule="evenodd" clip-rule="evenodd" d="M48.0943 97.1267C11.1027 161.198 33.0551 243.126 97.1266 280.118C161.198 317.109 243.126 295.157 280.117 231.085C317.109 167.014 295.157 85.086 231.085 48.0944C167.014 11.1027 85.086 33.0552 48.0943 97.1267ZM120.652 133.685L106.544 125.539C105.691 126.816 104.873 128.129 104.094 129.478C84.9607 162.618 96.3154 204.995 129.456 224.128C162.596 243.262 204.973 231.907 224.106 198.767C224.885 197.418 225.613 196.053 226.292 194.676L184.165 170.354C183.573 171.756 182.888 173.136 182.107 174.488C171.903 192.163 149.302 198.219 131.627 188.014C113.952 177.81 107.896 155.209 118.101 137.534C118.881 136.182 119.734 134.898 120.652 133.685Z" fill="#69CA94"/>
</svg>
