<svg width="64" height="64" viewBox="0 0 64 64" fill="none" xmlns="http://www.w3.org/2000/svg">
<path d="M47.9995 21.0927C47.9195 21.0927 47.8662 21.0927 47.7862 21.0927H47.6529C42.6129 20.9327 38.8529 17.0394 38.8529 12.2394C38.8529 7.33271 42.8529 3.35938 47.7329 3.35938C52.6129 3.35938 56.6129 7.35938 56.6129 12.2394C56.5862 17.066 52.8262 20.9594 48.0262 21.1194C48.0262 21.0927 48.0262 21.0927 47.9995 21.0927ZM47.7329 7.33272C45.0395 7.33272 42.8529 9.51939 42.8529 12.2127C42.8529 14.8527 44.9062 16.9861 47.5462 17.0927C47.5729 17.0661 47.7862 17.0661 48.0262 17.0927C50.6129 16.9594 52.6129 14.8261 52.6395 12.2127C52.6395 9.51939 50.4529 7.33272 47.7329 7.33272Z" fill="url(#paint0_linear_3952_14999)"/>
<path d="M48.0267 40.7464C46.9867 40.7464 45.9467 40.6664 44.9067 40.4797C43.8133 40.2931 43.0933 39.2531 43.28 38.1597C43.4667 37.0664 44.5067 36.3464 45.6 36.5331C48.88 37.0931 52.3467 36.4798 54.6667 34.9331C55.92 34.1064 56.5867 33.0664 56.5867 32.0264C56.5867 30.9864 55.8933 29.9731 54.6667 29.1464C52.3467 27.5997 48.8267 26.9864 45.52 27.5731C44.4267 27.7864 43.3867 27.0397 43.2 25.9464C43.0133 24.8531 43.7333 23.8131 44.8267 23.6264C49.1733 22.8531 53.68 23.6797 56.88 25.8131C59.2267 27.3864 60.5867 29.6264 60.5867 32.0264C60.5867 34.3997 59.2533 36.6664 56.88 38.2664C54.4533 39.8664 51.3067 40.7464 48.0267 40.7464Z" fill="url(#paint1_linear_3952_14999)"/>
<path d="M15.92 21.094C15.8933 21.094 15.8666 21.094 15.8666 21.094C11.0666 20.934 7.30662 17.0406 7.27995 12.2406C7.27995 7.33397 11.28 3.33398 16.16 3.33398C21.04 3.33398 25.04 7.33399 25.04 12.214C25.04 17.0407 21.28 20.934 16.48 21.094L15.92 19.094L16.1066 21.094C16.0533 21.094 15.9733 21.094 15.92 21.094ZM16.1866 17.094C16.3466 17.094 16.48 17.094 16.64 17.1206C19.0133 17.014 21.0933 14.8806 21.0933 12.2406C21.0933 9.54731 18.9066 7.36064 16.2133 7.36064C13.52 7.36064 11.3333 9.54731 11.3333 12.2406C11.3333 14.854 13.36 16.9606 15.9466 17.1206C15.9733 17.094 16.08 17.094 16.1866 17.094Z" fill="url(#paint2_linear_3952_14999)"/>
<path d="M15.8933 40.7464C12.6133 40.7464 9.46666 39.8664 7.03999 38.2664C4.69333 36.6931 3.33333 34.4264 3.33333 32.0264C3.33333 29.6531 4.69333 27.3864 7.03999 25.8131C10.24 23.6797 14.7467 22.8531 19.0933 23.6264C20.1867 23.8131 20.9067 24.8531 20.72 25.9464C20.5333 27.0397 19.4933 27.7864 18.4 27.5731C15.0933 26.9864 11.6 27.5997 9.25333 29.1464C8 29.9731 7.33333 30.9864 7.33333 32.0264C7.33333 33.0664 8.02666 34.1064 9.25333 34.9331C11.5733 36.4798 15.04 37.0931 18.32 36.5331C19.4133 36.3464 20.4533 37.0931 20.64 38.1597C20.8267 39.2531 20.1067 40.2931 19.0133 40.4797C17.9733 40.6664 16.9333 40.7464 15.8933 40.7464Z" fill="url(#paint3_linear_3952_14999)"/>
<path d="M31.9995 41.0127C31.9195 41.0127 31.8662 41.0127 31.7862 41.0127H31.6529C26.6129 40.8527 22.8529 36.9593 22.8529 32.1593C22.8529 27.2526 26.8529 23.2793 31.7329 23.2793C36.6129 23.2793 40.6129 27.2793 40.6129 32.1593C40.5862 36.986 36.8262 40.8793 32.0262 41.0393C32.0262 41.0126 32.0262 41.0127 31.9995 41.0127ZM31.7329 27.2526C29.0395 27.2526 26.8529 29.4393 26.8529 32.1327C26.8529 34.7726 28.9062 36.906 31.5462 37.0127C31.5729 36.986 31.7862 36.986 32.0262 37.0127C34.6129 36.8793 36.6129 34.746 36.6395 32.1327C36.6395 29.466 34.4529 27.2526 31.7329 27.2526Z" fill="url(#paint4_linear_3952_14999)"/>
<path d="M31.9994 60.6939C28.7994 60.6939 25.5994 59.8673 23.1194 58.1873C20.7728 56.6139 19.4128 54.3739 19.4128 51.9739C19.4128 49.6006 20.7461 47.3072 23.1194 45.7339C28.1061 42.4272 35.9194 42.4272 40.8794 45.7339C43.2261 47.3072 44.5861 49.5472 44.5861 51.9472C44.5861 54.3206 43.2528 56.6139 40.8794 58.1873C38.3994 59.8406 35.1994 60.6939 31.9994 60.6939ZM25.3328 49.0939C24.0794 49.9206 23.4128 50.9606 23.4128 52.0006C23.4128 53.0406 24.1061 54.0539 25.3328 54.8806C28.9328 57.3073 35.0394 57.3073 38.6394 54.8806C39.8928 54.0539 40.5594 53.0139 40.5594 51.9739C40.5594 50.9339 39.8661 49.9206 38.6394 49.0939C35.0661 46.6673 28.9594 46.6939 25.3328 49.0939Z" fill="url(#paint5_linear_3952_14999)"/>
<defs>
<linearGradient id="paint0_linear_3952_14999" x1="38.8529" y1="3.35938" x2="56.4358" y2="3.52602" gradientUnits="userSpaceOnUse">
<stop stop-color="#817EA6"/>
<stop offset="1" stop-color="#2E2952"/>
</linearGradient>
<linearGradient id="paint1_linear_3952_14999" x1="43.1706" y1="23.3418" x2="60.4131" y2="23.5053" gradientUnits="userSpaceOnUse">
<stop stop-color="#817EA6"/>
<stop offset="1" stop-color="#2E2952"/>
</linearGradient>
<linearGradient id="paint2_linear_3952_14999" x1="7.27995" y1="3.33398" x2="24.8629" y2="3.50063" gradientUnits="userSpaceOnUse">
<stop stop-color="#817EA6"/>
<stop offset="1" stop-color="#2E2952"/>
</linearGradient>
<linearGradient id="paint3_linear_3952_14999" x1="3.33333" y1="23.3418" x2="20.5758" y2="23.5053" gradientUnits="userSpaceOnUse">
<stop stop-color="#817EA6"/>
<stop offset="1" stop-color="#2E2952"/>
</linearGradient>
<linearGradient id="paint4_linear_3952_14999" x1="22.8529" y1="23.2793" x2="40.4358" y2="23.4459" gradientUnits="userSpaceOnUse">
<stop stop-color="#817EA6"/>
<stop offset="1" stop-color="#2E2952"/>
</linearGradient>
<linearGradient id="paint5_linear_3952_14999" x1="19.4128" y1="43.2539" x2="44.3328" y2="43.5948" gradientUnits="userSpaceOnUse">
<stop stop-color="#817EA6"/>
<stop offset="1" stop-color="#2E2952"/>
</linearGradient>
</defs>
</svg>
