<svg width="64" height="64" viewBox="0 0 64 64" fill="none" xmlns="http://www.w3.org/2000/svg">
<path d="M50.6667 44.6667C49.5734 44.6667 48.6667 43.76 48.6667 42.6667V17.3333C48.6667 15.4933 47.1734 14 45.3334 14H30.6667C29.5734 14 28.6667 13.0933 28.6667 12C28.6667 10.9067 29.5734 10 30.6667 10H45.3334C49.3867 10 52.6667 13.28 52.6667 17.3333V42.6667C52.6667 43.76 51.76 44.6667 50.6667 44.6667Z" fill="url(#paint0_linear_3952_15009)"/>
<path d="M37.3333 20.6665C36.88 20.6665 36.4266 20.5065 36.0533 20.2132L28.0533 13.5465C27.6 13.1732 27.3333 12.6132 27.3333 11.9998C27.3333 11.3865 27.6 10.8531 28.0533 10.4531L36.0533 3.78644C36.9066 3.06644 38.1599 3.19987 38.8799 4.0532C39.5999 4.90654 39.4667 6.15986 38.6133 6.87986L32.4533 11.9998L38.6133 17.1198C39.4667 17.8398 39.5733 19.0931 38.8799 19.9464C38.4799 20.4264 37.8933 20.6665 37.3333 20.6665Z" fill="url(#paint1_linear_3952_15009)"/>
<path d="M50.6667 60.666C45.1467 60.666 40.6667 56.186 40.6667 50.666C40.6667 45.146 45.1467 40.666 50.6667 40.666C56.1867 40.666 60.6667 45.146 60.6667 50.666C60.6667 56.186 56.1867 60.666 50.6667 60.666ZM50.6667 44.666C47.36 44.666 44.6667 47.3593 44.6667 50.666C44.6667 53.9727 47.36 56.666 50.6667 56.666C53.9734 56.666 56.6667 53.9727 56.6667 50.666C56.6667 47.3593 53.9734 44.666 50.6667 44.666Z" fill="url(#paint2_linear_3952_15009)"/>
<path d="M33.3333 54.0007H18.6666C14.6133 54.0007 11.3333 50.7207 11.3333 46.6673V21.334C11.3333 20.2407 12.24 19.334 13.3333 19.334C14.4266 19.334 15.3333 20.2407 15.3333 21.334V46.6673C15.3333 48.5073 16.8266 50.0007 18.6666 50.0007H33.3333C34.4266 50.0007 35.3333 50.9073 35.3333 52.0007C35.3333 53.094 34.4266 54.0007 33.3333 54.0007Z" fill="url(#paint3_linear_3952_15009)"/>
<path d="M26.6664 60.6671C26.1064 60.6671 25.5198 60.4271 25.1198 59.9471C24.3998 59.0938 24.5331 57.8404 25.3864 57.1204L31.5464 52.0005L25.3864 46.8805C24.5331 46.1605 24.4265 44.9072 25.1198 44.0539C25.8398 43.2005 27.0931 43.0938 27.9465 43.7871L35.9465 50.4538C36.3998 50.8271 36.6664 51.3871 36.6664 52.0005C36.6664 52.6138 36.3998 53.1472 35.9465 53.5472L27.9465 60.2139C27.5731 60.5072 27.1198 60.6671 26.6664 60.6671Z" fill="url(#paint4_linear_3952_15009)"/>
<path d="M13.3333 23.334C7.81331 23.334 3.33331 18.854 3.33331 13.334C3.33331 7.81398 7.81331 3.33398 13.3333 3.33398C18.8533 3.33398 23.3333 7.81398 23.3333 13.334C23.3333 18.854 18.8533 23.334 13.3333 23.334ZM13.3333 7.33398C10.0266 7.33398 7.33331 10.0273 7.33331 13.334C7.33331 16.6407 10.0266 19.334 13.3333 19.334C16.64 19.334 19.3333 16.6407 19.3333 13.334C19.3333 10.0273 16.64 7.33398 13.3333 7.33398Z" fill="url(#paint5_linear_3952_15009)"/>
<defs>
<linearGradient id="paint0_linear_3952_15009" x1="28.6667" y1="10" x2="52.4286" y2="10.1559" gradientUnits="userSpaceOnUse">
<stop stop-color="#817EA6"/>
<stop offset="1" stop-color="#2E2952"/>
</linearGradient>
<linearGradient id="paint1_linear_3952_15009" x1="27.3333" y1="3.32031" x2="39.227" y2="3.39838" gradientUnits="userSpaceOnUse">
<stop stop-color="#817EA6"/>
<stop offset="1" stop-color="#2E2952"/>
</linearGradient>
<linearGradient id="paint2_linear_3952_15009" x1="40.6667" y1="40.666" x2="60.4673" y2="40.8537" gradientUnits="userSpaceOnUse">
<stop stop-color="#817EA6"/>
<stop offset="1" stop-color="#2E2952"/>
</linearGradient>
<linearGradient id="paint3_linear_3952_15009" x1="11.3333" y1="19.334" x2="35.0952" y2="19.4899" gradientUnits="userSpaceOnUse">
<stop stop-color="#817EA6"/>
<stop offset="1" stop-color="#2E2952"/>
</linearGradient>
<linearGradient id="paint4_linear_3952_15009" x1="24.6536" y1="43.332" x2="36.5473" y2="43.4101" gradientUnits="userSpaceOnUse">
<stop stop-color="#817EA6"/>
<stop offset="1" stop-color="#2E2952"/>
</linearGradient>
<linearGradient id="paint5_linear_3952_15009" x1="3.33331" y1="3.33398" x2="23.134" y2="3.52165" gradientUnits="userSpaceOnUse">
<stop stop-color="#817EA6"/>
<stop offset="1" stop-color="#2E2952"/>
</linearGradient>
</defs>
</svg>
