<svg width="64" height="64" viewBox="0 0 64 64" fill="none" xmlns="http://www.w3.org/2000/svg">
<path d="M31.9998 60.6939C29.0931 60.6939 26.2131 59.8405 23.9465 58.1605L12.4797 49.6005C9.43974 47.3339 7.06641 42.6138 7.06641 38.8272V19.0138C7.06641 14.9072 10.0798 10.5338 13.9465 9.09384L27.2531 4.10719C29.8931 3.12052 34.0531 3.12052 36.6931 4.10719L50.0264 9.09384C53.8931 10.5338 56.9064 14.9072 56.9064 19.0138V38.8272C56.9064 42.6138 54.5331 47.3339 51.4931 49.6005L40.0264 58.1605C37.7864 59.8405 34.9064 60.6939 31.9998 60.6939ZM28.6664 7.84051L15.3598 12.8272C13.0664 13.6805 11.0664 16.5605 11.0664 19.0138V38.8272C11.0664 41.3605 12.8531 44.9072 14.8531 46.4005L26.3197 54.9605C29.3864 57.2538 34.5864 57.2538 37.6531 54.9605L49.1198 46.4005C51.1465 44.8805 52.9064 41.3338 52.9064 38.8272V19.0138C52.9064 16.5872 50.9065 13.7072 48.6131 12.8272L35.3064 7.84051C33.5464 7.17384 30.4531 7.17384 28.6664 7.84051Z" fill="url(#paint0_linear_3952_14992)"/>
<path d="M31.9998 31.1198C31.9464 31.1198 31.8931 31.1198 31.8131 31.1198C27.9464 31.0131 25.1198 28.0531 25.1198 24.4531C25.1198 20.7731 28.1331 17.7598 31.8131 17.7598C35.4931 17.7598 38.5064 20.7731 38.5064 24.4531C38.4798 28.0798 35.6531 31.0131 32.0531 31.1464C32.0264 31.1197 32.0264 31.1198 31.9998 31.1198ZM31.8131 21.7598C30.3198 21.7598 29.1198 22.9598 29.1198 24.4531C29.1198 25.9198 30.2665 27.0931 31.7065 27.1464C31.7065 27.1464 31.8398 27.1464 31.9998 27.1464C33.4131 27.0664 34.5064 25.8931 34.5064 24.4531C34.5331 22.9598 33.3064 21.7598 31.8131 21.7598Z" fill="url(#paint1_linear_3952_14992)"/>
<path d="M31.9995 46.2659C29.7062 46.2659 27.3862 45.6526 25.5995 44.4526C23.8129 43.2793 22.7995 41.5459 22.7995 39.7059C22.7995 37.8659 23.8129 36.1326 25.5995 34.9326C29.1995 32.5326 34.8262 32.5593 38.3995 34.9326C40.1862 36.1059 41.1996 37.8393 41.1996 39.6793C41.1996 41.5193 40.1862 43.2526 38.3995 44.4526C36.6128 45.6526 34.2929 46.2659 31.9995 46.2659ZM27.8128 38.2392C27.1462 38.6659 26.7728 39.1993 26.7995 39.6793C26.7995 40.1593 27.1728 40.6926 27.8128 41.1193C30.0528 42.6126 33.9462 42.6126 36.1862 41.1193C36.8529 40.6926 37.2262 40.1593 37.2262 39.6793C37.2262 39.1993 36.8528 38.6659 36.2128 38.2392C33.9728 36.7726 30.0528 36.7726 27.8128 38.2392Z" fill="url(#paint2_linear_3952_14992)"/>
<defs>
<linearGradient id="paint0_linear_3952_14992" x1="7.06641" y1="3.36719" x2="56.4107" y2="3.77378" gradientUnits="userSpaceOnUse">
<stop stop-color="#817EA6"/>
<stop offset="1" stop-color="#2E2952"/>
</linearGradient>
<linearGradient id="paint1_linear_3952_14992" x1="25.1198" y1="17.7598" x2="38.373" y2="17.8854" gradientUnits="userSpaceOnUse">
<stop stop-color="#817EA6"/>
<stop offset="1" stop-color="#2E2952"/>
</linearGradient>
<linearGradient id="paint2_linear_3952_14992" x1="22.7995" y1="33.1426" x2="41.0146" y2="33.3846" gradientUnits="userSpaceOnUse">
<stop stop-color="#817EA6"/>
<stop offset="1" stop-color="#2E2952"/>
</linearGradient>
</defs>
</svg>
