<svg width="24" height="24" viewBox="0 0 24 24" fill="none" xmlns="http://www.w3.org/2000/svg">
<circle cx="12" cy="12" r="12" fill="#E9E9F4"/>
<path d="M15.3333 9.99995H10V8.66661C9.99903 8.27074 10.1156 7.88348 10.3348 7.55388C10.5541 7.22429 10.8663 6.96718 11.2318 6.81512C11.5973 6.66306 11.9997 6.6229 12.3881 6.69971C12.7764 6.77652 13.1332 6.96686 13.4133 7.24661C13.664 7.50266 13.8432 7.81983 13.9333 8.16661C13.9552 8.25153 13.9936 8.33131 14.0463 8.4014C14.0991 8.47148 14.1651 8.53049 14.2406 8.57506C14.3161 8.61963 14.3997 8.64889 14.4865 8.66117C14.5733 8.67345 14.6618 8.6685 14.7467 8.64661C14.8316 8.62473 14.9114 8.58633 14.9815 8.53361C15.0515 8.48089 15.1105 8.41488 15.1551 8.33936C15.1997 8.26383 15.2289 8.18027 15.2412 8.09344C15.2535 8.0066 15.2486 7.9182 15.2267 7.83328C15.0748 7.25648 14.7736 6.7299 14.3533 6.30661C13.8868 5.84152 13.2929 5.5251 12.6466 5.39731C12.0004 5.26951 11.3308 5.33607 10.7223 5.58858C10.1139 5.84109 9.59387 6.26823 9.22801 6.81606C8.86215 7.36389 8.66681 8.00785 8.66667 8.66661V9.99995C8.13624 9.99995 7.62753 10.2107 7.25246 10.5857C6.87739 10.9608 6.66667 11.4695 6.66667 11.9999V16.6666C6.66667 17.197 6.87739 17.7058 7.25246 18.0808C7.62753 18.4559 8.13624 18.6666 8.66667 18.6666H15.3333C15.8638 18.6666 16.3725 18.4559 16.7476 18.0808C17.1226 17.7058 17.3333 17.197 17.3333 16.6666V11.9999C17.3333 11.4695 17.1226 10.9608 16.7476 10.5857C16.3725 10.2107 15.8638 9.99995 15.3333 9.99995ZM16 16.6666C16 16.8434 15.9298 17.013 15.8047 17.138C15.6797 17.263 15.5101 17.3333 15.3333 17.3333H8.66667C8.48986 17.3333 8.32029 17.263 8.19527 17.138C8.07024 17.013 8.00001 16.8434 8.00001 16.6666V11.9999C8.00001 11.8231 8.07024 11.6536 8.19527 11.5285C8.32029 11.4035 8.48986 11.3333 8.66667 11.3333H15.3333C15.5101 11.3333 15.6797 11.4035 15.8047 11.5285C15.9298 11.6536 16 11.8231 16 11.9999V16.6666Z" fill="#5B588F"/>
</svg>
