<svg width="32" height="32" viewBox="0 0 32 32" fill="none" xmlns="http://www.w3.org/2000/svg">
<g clip-path="url(#clip0_710_5701)">
<path d="M13.037 11.5553C13.1835 11.5553 13.3268 11.5118 13.4486 11.4304C13.5704 11.349 13.6653 11.2333 13.7214 11.098C13.7775 10.9626 13.7921 10.8137 13.7635 10.67C13.735 10.5263 13.6644 10.3943 13.5608 10.2907C13.4572 10.1871 13.3252 10.1166 13.1815 10.088C13.0379 10.0594 12.8889 10.0741 12.7536 10.1302C12.6182 10.1862 12.5025 10.2812 12.4211 10.403C12.3397 10.5248 12.2963 10.668 12.2963 10.8145C12.2963 11.011 12.3743 11.1994 12.5133 11.3383C12.6522 11.4772 12.8406 11.5553 13.037 11.5553ZM22.6667 21.1849H18.0889C17.9783 20.8742 17.7999 20.5921 17.5667 20.3589C17.3336 20.1257 17.0514 19.9474 16.7407 19.8367V18.2219H19.7037C20.2931 18.2219 20.8583 17.9878 21.2751 17.5711C21.6918 17.1543 21.9259 16.5891 21.9259 15.9997V14.5182C21.9227 13.97 21.7169 13.4424 21.3481 13.0367C21.7169 12.6311 21.9227 12.1035 21.9259 11.5553V10.0738C21.9259 9.48441 21.6918 8.91918 21.2751 8.50244C20.8583 8.08569 20.2931 7.85156 19.7037 7.85156H12.2963C11.7069 7.85156 11.1417 8.08569 10.7249 8.50244C10.3082 8.91918 10.0741 9.48441 10.0741 10.0738V11.5553C10.0773 12.1035 10.2831 12.6311 10.6518 13.0367C10.2831 13.4424 10.0773 13.97 10.0741 14.5182V15.9997C10.0741 16.5891 10.3082 17.1543 10.7249 17.5711C11.1417 17.9878 11.7069 18.2219 12.2963 18.2219H15.2593V19.8367C14.9486 19.9474 14.6664 20.1257 14.4333 20.3589C14.2001 20.5921 14.0217 20.8742 13.9111 21.1849H9.33333C9.13687 21.1849 8.94846 21.2629 8.80955 21.4019C8.67063 21.5408 8.59259 21.7292 8.59259 21.9256C8.59259 22.1221 8.67063 22.3105 8.80955 22.4494C8.94846 22.5883 9.13687 22.6664 9.33333 22.6664H13.9111C14.0668 23.0954 14.3508 23.466 14.7246 23.728C15.0983 23.9899 15.5436 24.1304 16 24.1304C16.4564 24.1304 16.9017 23.9899 17.2754 23.728C17.6492 23.466 17.9332 23.0954 18.0889 22.6664H22.6667C22.8631 22.6664 23.0515 22.5883 23.1904 22.4494C23.3294 22.3105 23.4074 22.1221 23.4074 21.9256C23.4074 21.7292 23.3294 21.5408 23.1904 21.4019C23.0515 21.2629 22.8631 21.1849 22.6667 21.1849ZM11.5556 10.0738C11.5556 9.87733 11.6336 9.68892 11.7725 9.55C11.9114 9.41109 12.0998 9.33304 12.2963 9.33304H19.7037C19.9002 9.33304 20.0886 9.41109 20.2275 9.55C20.3664 9.68892 20.4444 9.87733 20.4444 10.0738V11.5553C20.4444 11.7517 20.3664 11.9401 20.2275 12.079C20.0886 12.218 19.9002 12.296 19.7037 12.296H12.2963C12.0998 12.296 11.9114 12.218 11.7725 12.079C11.6336 11.9401 11.5556 11.7517 11.5556 11.5553V10.0738ZM12.2963 16.7405C12.0998 16.7405 11.9114 16.6624 11.7725 16.5235C11.6336 16.3846 11.5556 16.1962 11.5556 15.9997V14.5182C11.5556 14.3218 11.6336 14.1334 11.7725 13.9944C11.9114 13.8555 12.0998 13.7775 12.2963 13.7775H19.7037C19.9002 13.7775 20.0886 13.8555 20.2275 13.9944C20.3664 14.1334 20.4444 14.3218 20.4444 14.5182V15.9997C20.4444 16.1962 20.3664 16.3846 20.2275 16.5235C20.0886 16.6624 19.9002 16.7405 19.7037 16.7405H12.2963ZM16 22.6664C15.8535 22.6664 15.7103 22.6229 15.5885 22.5415C15.4667 22.4601 15.3717 22.3445 15.3156 22.2091C15.2596 22.0738 15.2449 21.9248 15.2735 21.7811C15.3021 21.6374 15.3726 21.5054 15.4762 21.4019C15.5798 21.2983 15.7118 21.2277 15.8555 21.1991C15.9992 21.1705 16.1481 21.1852 16.2835 21.2413C16.4188 21.2973 16.5345 21.3923 16.6159 21.5141C16.6973 21.6359 16.7407 21.7791 16.7407 21.9256C16.7407 22.1221 16.6627 22.3105 16.5238 22.4494C16.3849 22.5883 16.1965 22.6664 16 22.6664ZM13.037 14.5182C12.8905 14.5182 12.7473 14.5617 12.6255 14.6431C12.5037 14.7245 12.4087 14.8401 12.3527 14.9755C12.2966 15.1109 12.2819 15.2598 12.3105 15.4035C12.3391 15.5472 12.4097 15.6792 12.5133 15.7828C12.6168 15.8863 12.7488 15.9569 12.8925 15.9855C13.0362 16.0141 13.1852 15.9994 13.3205 15.9433C13.4559 15.8873 13.5715 15.7923 13.6529 15.6705C13.7343 15.5487 13.7778 15.4055 13.7778 15.259C13.7778 15.0625 13.6997 14.8741 13.5608 14.7352C13.4219 14.5963 13.2335 14.5182 13.037 14.5182V14.5182Z" fill="#7465F1"/>
</g>
<path d="M16 2C16 0.895431 16.8989 -0.012889 17.9949 0.124824C20.7537 0.471491 23.387 1.53308 25.6264 3.21983C28.4007 5.30949 30.4196 8.24513 31.3784 11.5834C32.3371 14.9217 32.1835 18.4813 30.9409 21.7246C29.6982 24.9679 27.4339 27.7187 24.49 29.5617C21.5461 31.4047 18.0824 32.2397 14.6221 31.9406C11.1618 31.6414 7.89276 30.2245 5.30876 27.9037C2.72476 25.5829 0.96611 22.4842 0.298426 19.0758C-0.24052 16.3246 -0.0450198 13.4921 0.848426 10.8589C1.20334 9.81295 2.4131 9.40119 3.40669 9.88375V9.88375C4.40027 10.3663 4.7966 11.561 4.48557 12.6209C3.9463 14.4585 3.85195 16.4085 4.22382 18.3069C4.72458 20.8632 6.04357 23.1871 7.98157 24.9278C9.91957 26.6684 12.3713 27.7311 14.9666 27.9554C17.5618 28.1798 20.1596 27.5535 22.3675 26.1713C24.5754 24.7891 26.2736 22.7259 27.2056 20.2934C28.1376 17.8609 28.2528 15.1913 27.5338 12.6876C26.8147 10.1839 25.3005 7.98211 23.2198 6.41487C21.6746 5.25101 19.8794 4.484 17.9908 4.16627C16.9015 3.98302 16 3.10457 16 2V2Z" fill="url(#paint0_angular_710_5701)"/>
<defs>
<radialGradient id="paint0_angular_710_5701" cx="0" cy="0" r="1" gradientUnits="userSpaceOnUse" gradientTransform="translate(16 16) rotate(-90) scale(16)">
<stop stop-color="#E1E1FB"/>
<stop offset="1" stop-color="#9696D6"/>
</radialGradient>
<clipPath id="clip0_710_5701">
<rect width="17.7778" height="17.7778" fill="white" transform="translate(7.11111 7.11133)"/>
</clipPath>
</defs>
</svg>
