<svg width="14" height="13" viewBox="0 0 14 13" fill="none" xmlns="http://www.w3.org/2000/svg">
<path d="M7.14746 12.804C8.40407 12.804 9.63246 12.4317 10.6773 11.7343C11.7221 11.0368 12.5365 10.0455 13.0173 8.88569C13.4982 7.72587 13.624 6.44964 13.3789 5.21838C13.1337 3.98713 12.5286 2.85615 11.6401 1.96846C10.7515 1.08077 9.61943 0.476252 8.38697 0.23134C7.15451 -0.0135726 5.87703 0.112125 4.71608 0.592538C3.55513 1.07295 2.56285 1.8865 1.86472 2.93031C1.16658 3.97412 0.793957 5.2013 0.793957 6.45668C0.79583 8.13952 1.46582 9.75289 2.65693 10.9428C3.84803 12.1328 5.46298 12.8021 7.14746 12.804ZM4.15687 6.00793C4.21585 5.94897 4.28588 5.90221 4.36296 5.8703C4.44003 5.83839 4.52265 5.82197 4.60608 5.82197C4.68951 5.82197 4.77213 5.83839 4.84921 5.8703C4.92628 5.90221 4.99631 5.94897 5.05529 6.00793L6.51211 7.46333V3.91776C6.51211 3.74942 6.57905 3.58797 6.6982 3.46894C6.81736 3.3499 6.97896 3.28303 7.14746 3.28303C7.31597 3.28303 7.47757 3.3499 7.59673 3.46894C7.71588 3.58797 7.78282 3.74942 7.78282 3.91776V7.46333L9.23968 6.00793C9.35918 5.89069 9.52019 5.82534 9.68768 5.82609C9.85517 5.82685 10.0156 5.89366 10.134 6.01197C10.2524 6.13029 10.3193 6.29055 10.3201 6.45787C10.3208 6.6252 10.2554 6.78605 10.1381 6.90544L7.59685 9.44417C7.4774 9.56275 7.31584 9.6293 7.14745 9.6293C6.97905 9.6293 6.81749 9.56275 6.69804 9.44417L4.15687 6.90544C4.09786 6.84651 4.05105 6.77656 4.01912 6.69956C3.98718 6.62256 3.97075 6.54003 3.97075 6.45668C3.97075 6.37334 3.98718 6.29081 4.01912 6.21381C4.05105 6.13681 4.09786 6.06685 4.15687 6.00793Z" fill="#7465F1"/>
</svg>
