<svg width="24" height="24" viewBox="0 0 24 24" fill="none" xmlns="http://www.w3.org/2000/svg">
<path d="M12 1.5C12 0.671573 12.6742 -0.00966673 13.4961 0.0936177C15.5653 0.353619 17.5403 1.14981 19.2198 2.41487C21.3005 3.98211 22.8147 6.18385 23.5338 8.68755C24.2528 11.1913 24.1376 13.8609 23.2056 16.2934C22.2736 18.7259 20.5754 20.7891 18.3675 22.1713C16.1596 23.5535 13.5618 24.1798 10.9666 23.9554C8.37133 23.7311 5.91957 22.6684 3.98157 20.9278C2.04357 19.1871 0.724582 16.8632 0.22382 14.3069C-0.18039 12.2434 -0.0337649 10.119 0.636319 8.14421C0.902507 7.35971 1.80983 7.05089 2.55502 7.41281C3.30021 7.77473 3.59745 8.67078 3.36418 9.46568C2.95973 10.8439 2.88896 12.3064 3.16786 13.7301C3.54344 15.6474 4.53268 17.3904 5.98618 18.6958C7.43968 20.0013 9.2785 20.7983 11.2249 20.9666C13.1713 21.1348 15.1197 20.6651 16.7756 19.6285C18.4316 18.5918 19.7052 17.0444 20.4042 15.2201C21.1032 13.3957 21.1896 11.3934 20.6503 9.51567C20.111 7.63789 18.9754 5.98659 17.4148 4.81115C16.256 3.93826 14.9095 3.363 13.4931 3.12471C12.6762 2.98727 12 2.32843 12 1.5Z" fill="url(#paint0_angular_710_5687)"/>
<path d="M18 9.96065C17.9931 9.89941 17.9796 9.83907 17.96 9.78065V9.72065C17.9279 9.6521 17.8852 9.58909 17.8333 9.53398L13.8333 5.53398C13.7782 5.48213 13.7152 5.43937 13.6467 5.40732C13.6268 5.40449 13.6066 5.40449 13.5867 5.40732C13.5189 5.36848 13.4441 5.34355 13.3667 5.33398H10.6667C10.1362 5.33398 9.62753 5.5447 9.25245 5.91977C8.87738 6.29484 8.66667 6.80355 8.66667 7.33398V8.00065H8C7.46957 8.00065 6.96086 8.21136 6.58579 8.58644C6.21071 8.96151 6 9.47022 6 10.0007V16.6673C6 17.1978 6.21071 17.7065 6.58579 18.0815C6.96086 18.4566 7.46957 18.6673 8 18.6673H13.3333C13.8638 18.6673 14.3725 18.4566 14.7475 18.0815C15.1226 17.7065 15.3333 17.1978 15.3333 16.6673V16.0007H16C16.5304 16.0007 17.0391 15.7899 17.4142 15.4149C17.7893 15.0398 18 14.5311 18 14.0007V10.0007C18 10.0007 18 10.0007 18 9.96065ZM14 7.60732L15.7267 9.33398H14.6667C14.4899 9.33398 14.3203 9.26375 14.1953 9.13872C14.0702 9.0137 14 8.84413 14 8.66732V7.60732ZM14 16.6673C14 16.8441 13.9298 17.0137 13.8047 17.1387C13.6797 17.2637 13.5101 17.334 13.3333 17.334H8C7.82319 17.334 7.65362 17.2637 7.5286 17.1387C7.40357 17.0137 7.33333 16.8441 7.33333 16.6673V10.0007C7.33333 9.82384 7.40357 9.65427 7.5286 9.52925C7.65362 9.40422 7.82319 9.33398 8 9.33398H8.66667V14.0007C8.66667 14.5311 8.87738 15.0398 9.25245 15.4149C9.62753 15.7899 10.1362 16.0007 10.6667 16.0007H14V16.6673ZM16.6667 14.0007C16.6667 14.1775 16.5964 14.347 16.4714 14.4721C16.3464 14.5971 16.1768 14.6673 16 14.6673H10.6667C10.4899 14.6673 10.3203 14.5971 10.1953 14.4721C10.0702 14.347 10 14.1775 10 14.0007V7.33398C10 7.15717 10.0702 6.9876 10.1953 6.86258C10.3203 6.73756 10.4899 6.66732 10.6667 6.66732H12.6667V8.66732C12.6667 9.19775 12.8774 9.70646 13.2525 10.0815C13.6275 10.4566 14.1362 10.6673 14.6667 10.6673H16.6667V14.0007Z" fill="#19191F"/>
<defs>
<radialGradient id="paint0_angular_710_5687" cx="0" cy="0" r="1" gradientUnits="userSpaceOnUse" gradientTransform="translate(12 12) rotate(-90) scale(12)">
<stop stop-color="#E1E1FB"/>
<stop offset="1" stop-color="#9696D6"/>
</radialGradient>
</defs>
</svg>
