<svg width="18" height="19" viewBox="0 0 18 19" fill="none" xmlns="http://www.w3.org/2000/svg">
<path d="M9.00002 1.7412C7.21913 1.74127 5.49637 2.39616 4.13999 3.58868C2.78362 4.7812 1.88215 6.43353 1.59687 8.25002C1.31159 10.0665 1.66113 11.9286 2.58295 13.5032C3.50476 15.0777 4.93869 16.262 6.62816 16.844C7.00316 16.9118 7.14379 16.6793 7.14379 16.4759C7.14379 16.2918 7.1344 15.6815 7.1344 15.0324C5.25002 15.3909 4.76252 14.5578 4.61252 14.1218C4.44608 13.6979 4.18223 13.3221 3.84377 13.0271C3.58127 12.8818 3.20627 12.5234 3.83439 12.5137C4.07423 12.5406 4.30426 12.6268 4.50499 12.7651C4.70573 12.9034 4.87124 13.0896 4.98752 13.3081C5.0901 13.4985 5.22803 13.6661 5.39341 13.8013C5.5588 13.9366 5.74838 14.0368 5.9513 14.0962C6.15421 14.1556 6.36648 14.173 6.57593 14.1475C6.78538 14.122 6.9879 14.054 7.17188 13.9474C7.20435 13.5534 7.37428 13.1851 7.65002 12.9109C5.98127 12.7172 4.23752 12.0487 4.23752 9.08434C4.22698 8.31411 4.50203 7.56889 5.00627 7.00153C4.77698 6.3321 4.80381 5.59745 5.08127 4.94778C5.08127 4.94778 5.70937 4.74434 7.14377 5.74216C8.37099 5.39339 9.66656 5.39339 10.8938 5.74216C12.3281 4.73466 12.9563 4.94778 12.9563 4.94778C13.2338 5.59744 13.2606 6.33211 13.0313 7.00153C13.537 7.56792 13.8123 8.31379 13.8 9.08434C13.8 12.0584 12.0469 12.7172 10.3781 12.9109C10.5571 13.0984 10.695 13.3234 10.7823 13.5708C10.8697 13.8182 10.9045 14.0821 10.8844 14.3447C10.8844 15.3812 10.875 16.2143 10.875 16.4759C10.875 16.6794 11.0156 16.9215 11.3906 16.844C13.0771 16.2573 14.5069 15.0702 15.4248 13.4949C16.3427 11.9195 16.6889 10.0584 16.4017 8.24363C16.1144 6.4289 15.2124 4.77871 13.8566 3.58764C12.5008 2.39657 10.7796 1.74215 9.00002 1.7412V1.7412Z" fill="#19191F"/>
</svg>
