<svg width="18" height="18" viewBox="0 0 18 18" fill="none" xmlns="http://www.w3.org/2000/svg">
<g clip-path="url(#clip0_3699_11486)">
<path d="M16.1176 9.13643C16.1176 8.53899 16.0692 8.10302 15.9642 7.65091H9.14209V10.3474H13.1465C13.0658 11.0176 12.6299 12.0268 11.661 12.7049L11.6474 12.7952L13.8045 14.4662L13.9539 14.4811C15.3264 13.2136 16.1176 11.3486 16.1176 9.13643" fill="#4285F4"/>
<path d="M9.14203 16.2412C11.1039 16.2412 12.7509 15.5952 13.9539 14.4811L11.661 12.7049C11.0474 13.1328 10.2239 13.4315 9.14203 13.4315C7.22054 13.4315 5.58969 12.164 5.00834 10.4121L4.92313 10.4193L2.68021 12.1551L2.65088 12.2367C3.84575 14.6103 6.30012 16.2412 9.14203 16.2412Z" fill="#34A853"/>
<path d="M5.00848 10.4121C4.85509 9.95996 4.76631 9.47551 4.76631 8.97498C4.76631 8.47438 4.85509 7.98999 5.00041 7.53788L4.99635 7.44159L2.72532 5.67789L2.65102 5.71323C2.15855 6.69822 1.87598 7.80431 1.87598 8.97498C1.87598 10.1456 2.15855 11.2517 2.65102 12.2367L5.00848 10.4121" fill="#FBBC05"/>
<path d="M9.14203 4.51835C10.5064 4.51835 11.4268 5.10771 11.9516 5.60023L14.0023 3.59798C12.7428 2.42732 11.1039 1.70877 9.14203 1.70877C6.30012 1.70877 3.84575 3.33962 2.65088 5.71322L5.00027 7.53787C5.58969 5.78591 7.22054 4.51835 9.14203 4.51835" fill="#EB4335"/>
</g>
<defs>
<clipPath id="clip0_3699_11486">
<rect width="14.25" height="14.5825" fill="white" transform="translate(1.875 1.70877)"/>
</clipPath>
</defs>
</svg>
