<svg width="24" height="24" viewBox="0 0 24 24" fill="none" xmlns="http://www.w3.org/2000/svg">
<circle opacity="0.5" cx="12" cy="12" r="12" fill="#F4BF6E"/>
<path d="M18.8168 10.492C18.2174 10.3835 17.6092 10.3305 17.0001 10.3337C16.6501 10.3337 16.3084 10.3337 15.9668 10.4003C15.5414 9.83273 14.9985 9.3637 14.3751 9.02533C14.9106 8.44054 15.2078 7.67656 15.2084 6.88366C15.2084 6.03055 14.8695 5.21237 14.2663 4.60913C13.6631 4.00589 12.8449 3.66699 11.9918 3.66699C11.1387 3.66699 10.3205 4.00589 9.71725 4.60913C9.11401 5.21237 8.77511 6.03055 8.77511 6.88366C8.77572 7.67656 9.07299 8.44054 9.60844 9.02533C8.98877 9.36546 8.44671 9.83089 8.01678 10.392C7.69178 10.3337 7.35011 10.3337 7.00011 10.3337C6.39046 10.336 5.78233 10.3946 5.18344 10.5087C4.98931 10.5442 4.81408 10.6474 4.68894 10.8C4.56381 10.9526 4.49689 11.1447 4.50011 11.342V18.217C4.49991 18.3394 4.52669 18.4604 4.57854 18.5713C4.63039 18.6822 4.70604 18.7803 4.80011 18.8587C4.89359 18.9375 5.00326 18.9948 5.12136 19.0264C5.23945 19.0581 5.36307 19.0634 5.48344 19.042C5.98212 18.9334 6.48992 18.872 7.00011 18.8587C8.61436 18.8569 10.1936 19.3292 11.5418 20.217L11.6501 20.2587C11.7606 20.3066 11.8796 20.3321 12.0001 20.3337C12.0796 20.3327 12.1585 20.3186 12.2334 20.292H12.2918L12.4001 20.2503C13.7611 19.3397 15.3626 18.8553 17.0001 18.8587C17.5092 18.861 18.017 18.9113 18.5168 19.0087C18.6372 19.0301 18.7608 19.0248 18.8789 18.9931C18.997 18.9614 19.1066 18.9041 19.2001 18.8253C19.2942 18.747 19.3698 18.6489 19.4217 18.538C19.4735 18.4271 19.5003 18.3061 19.5001 18.1837V11.3087C19.4994 11.1142 19.4307 10.9261 19.3059 10.7769C19.1811 10.6278 19.0081 10.527 18.8168 10.492ZM12.0001 5.33366C12.3905 5.36234 12.7556 5.53765 13.022 5.8244C13.2884 6.11114 13.4365 6.48807 13.4365 6.87949C13.4365 7.27092 13.2884 7.64785 13.022 7.93459C12.7556 8.22133 12.3905 8.39664 12.0001 8.42533C11.6097 8.39664 11.2447 8.22133 10.9782 7.93459C10.7118 7.64785 10.5637 7.27092 10.5637 6.87949C10.5637 6.48807 10.7118 6.11114 10.9782 5.8244C11.2447 5.53765 11.6097 5.36234 12.0001 5.33366ZM11.1668 18.1087C9.86067 17.5049 8.439 17.1922 7.00011 17.192C6.72511 17.192 6.45011 17.192 6.16678 17.2337V12.0003C6.86558 11.9222 7.57163 11.9362 8.26678 12.042H8.35844C9.35144 12.2245 10.303 12.5859 11.1668 13.1087V18.1087ZM12.0001 11.667C11.6295 11.4532 11.2454 11.2639 10.8501 11.1003H10.8001C10.5251 10.992 10.2501 10.8837 9.96678 10.8003C10.5454 10.3398 11.2607 10.0848 12.0001 10.0753C12.7376 10.08 13.4527 10.3291 14.0334 10.7837C13.326 11.0045 12.6443 11.3007 12.0001 11.667ZM17.8334 17.2337C16.1223 17.0617 14.3963 17.3494 12.8334 18.067V13.067C13.6988 12.5577 14.6509 12.213 15.6418 12.0503H15.8084C16.4784 11.946 17.1591 11.9292 17.8334 12.0003V17.2337Z" fill="#D68E22"/>
</svg>
