<svg width="24" height="24" viewBox="0 0 24 24" fill="none" xmlns="http://www.w3.org/2000/svg">
<circle opacity="0.5" cx="12" cy="12" r="12" fill="#ADF3CC"/>
<path d="M9.91675 10.7497H12.0001C12.2211 10.7497 12.4331 10.6619 12.5893 10.5057C12.7456 10.3494 12.8334 10.1374 12.8334 9.9164C12.8334 9.69538 12.7456 9.48342 12.5893 9.32714C12.4331 9.17086 12.2211 9.08306 12.0001 9.08306H11.1668V8.6664C11.1668 8.44538 11.079 8.23342 10.9227 8.07714C10.7664 7.92086 10.5544 7.83306 10.3334 7.83306C10.1124 7.83306 9.90045 7.92086 9.74417 8.07714C9.58788 8.23342 9.50009 8.44538 9.50009 8.6664V9.12473C8.99377 9.22754 8.54372 9.51481 8.2373 9.93078C7.93088 10.3468 7.78995 10.8617 7.84188 11.3758C7.8938 11.8898 8.13487 12.3662 8.51828 12.7125C8.9017 13.0588 9.40011 13.2503 9.91675 13.2497H10.7501C10.8606 13.2497 10.9666 13.2936 11.0447 13.3718C11.1229 13.4499 11.1668 13.5559 11.1668 13.6664C11.1668 13.7769 11.1229 13.8829 11.0447 13.961C10.9666 14.0392 10.8606 14.0831 10.7501 14.0831H8.66675C8.44574 14.0831 8.23378 14.1709 8.0775 14.3271C7.92122 14.4834 7.83342 14.6954 7.83342 14.9164C7.83342 15.1374 7.92122 15.3494 8.0775 15.5057C8.23378 15.6619 8.44574 15.7497 8.66675 15.7497H9.50009V16.1664C9.50009 16.3874 9.58788 16.5994 9.74417 16.7557C9.90045 16.9119 10.1124 16.9997 10.3334 16.9997C10.5544 16.9997 10.7664 16.9119 10.9227 16.7557C11.079 16.5994 11.1668 16.3874 11.1668 16.1664V15.7081C11.6731 15.6053 12.1231 15.318 12.4295 14.902C12.736 14.486 12.8769 13.9711 12.825 13.457C12.773 12.943 12.532 12.4666 12.1486 12.1203C11.7651 11.774 11.2667 11.5825 10.7501 11.5831H9.91675C9.80625 11.5831 9.70027 11.5392 9.62213 11.461C9.54399 11.3829 9.50009 11.2769 9.50009 11.1664C9.50009 11.0559 9.54399 10.9499 9.62213 10.8718C9.70027 10.7936 9.80625 10.7497 9.91675 10.7497ZM19.5001 11.9997H17.0001V4.49973C17.0007 4.35289 16.9624 4.2085 16.8893 4.08119C16.8161 3.95387 16.7106 3.84815 16.5834 3.77473C16.4567 3.70159 16.313 3.66309 16.1668 3.66309C16.0205 3.66309 15.8768 3.70159 15.7501 3.77473L13.2501 5.20806L10.7501 3.77473C10.6234 3.70159 10.4797 3.66309 10.3334 3.66309C10.1871 3.66309 10.0434 3.70159 9.91675 3.77473L7.41675 5.20806L4.91675 3.77473C4.79007 3.70159 4.64637 3.66309 4.50009 3.66309C4.35381 3.66309 4.2101 3.70159 4.08342 3.77473C3.95625 3.84815 3.85074 3.95387 3.77757 4.08119C3.7044 4.2085 3.66617 4.35289 3.66675 4.49973V17.8331C3.66675 18.4961 3.93015 19.132 4.39899 19.6008C4.86783 20.0697 5.50371 20.3331 6.16675 20.3331H17.8334C18.4965 20.3331 19.1323 20.0697 19.6012 19.6008C20.07 19.132 20.3334 18.4961 20.3334 17.8331V12.8331C20.3334 12.6121 20.2456 12.4001 20.0893 12.2438C19.9331 12.0875 19.7211 11.9997 19.5001 11.9997ZM6.16675 18.6664C5.94574 18.6664 5.73378 18.5786 5.5775 18.4223C5.42122 18.266 5.33342 18.0541 5.33342 17.8331V5.9414L7.00009 6.8914C7.1287 6.95857 7.27165 6.99366 7.41675 6.99366C7.56186 6.99366 7.70481 6.95857 7.83342 6.8914L10.3334 5.45806L12.8334 6.8914C12.962 6.95857 13.105 6.99366 13.2501 6.99366C13.3952 6.99366 13.5381 6.95857 13.6668 6.8914L15.3334 5.9414V17.8331C15.3357 18.1174 15.3864 18.3992 15.4834 18.6664H6.16675ZM18.6668 17.8331C18.6668 18.0541 18.579 18.266 18.4227 18.4223C18.2664 18.5786 18.0544 18.6664 17.8334 18.6664C17.6124 18.6664 17.4004 18.5786 17.2442 18.4223C17.0879 18.266 17.0001 18.0541 17.0001 17.8331V13.6664H18.6668V17.8331Z" fill="#69CA94"/>
</svg>
