<svg width="24" height="24" viewBox="0 0 24 24" fill="none" xmlns="http://www.w3.org/2000/svg">
<path d="M19.89 9.54931C19.8069 9.3844 19.6798 9.24571 19.5227 9.14863C19.3656 9.05155 19.1847 8.99987 19 8.99931H14V2.99931C14.0107 2.77999 13.949 2.56324 13.8243 2.38251C13.6996 2.20178 13.5188 2.06712 13.31 1.99931C13.1092 1.93325 12.8927 1.93251 12.6915 1.99719C12.4902 2.06187 12.3147 2.18864 12.19 2.35931L4.19 13.3593C4.08976 13.5042 4.02958 13.673 4.01553 13.8486C4.00148 14.0242 4.03407 14.2004 4.11 14.3593C4.17992 14.5411 4.30139 14.6984 4.45949 14.8121C4.61759 14.9258 4.80545 14.9909 5 14.9993H10V20.9993C10.0002 21.2102 10.067 21.4156 10.1909 21.5862C10.3148 21.7569 10.4895 21.8839 10.69 21.9493C10.7905 21.9805 10.8948 21.9973 11 21.9993C11.1578 21.9997 11.3134 21.9628 11.4542 21.8915C11.595 21.8203 11.7169 21.7167 11.81 21.5893L19.81 10.5893C19.9177 10.4401 19.9822 10.2641 19.9963 10.0806C20.0105 9.89707 19.9737 9.71324 19.89 9.54931ZM12 17.9193V13.9993C12 13.7341 11.8946 13.4797 11.7071 13.2922C11.5196 13.1047 11.2652 12.9993 11 12.9993H7L12 6.07931V9.99931C12 10.2645 12.1054 10.5189 12.2929 10.7064C12.4804 10.894 12.7348 10.9993 13 10.9993H17L12 17.9193Z" fill="#FFAF37"/>
</svg>
