<svg width="20" height="20" viewBox="0 0 20 20" fill="none" xmlns="http://www.w3.org/2000/svg">
<path d="M12.29 8.79002L9 12.09L7.71 10.79C7.5217 10.6017 7.2663 10.4959 7 10.4959C6.7337 10.4959 6.4783 10.6017 6.29 10.79C6.1017 10.9783 5.99591 11.2337 5.99591 11.5C5.99591 11.7663 6.1017 12.0217 6.29 12.21L8.29 14.21C8.38296 14.3037 8.49356 14.3781 8.61542 14.4289C8.73728 14.4797 8.86799 14.5058 9 14.5058C9.13201 14.5058 9.26272 14.4797 9.38458 14.4289C9.50644 14.3781 9.61704 14.3037 9.71 14.21L13.71 10.21C13.8983 10.0217 14.0041 9.76632 14.0041 9.50002C14.0041 9.23372 13.8983 8.97833 13.71 8.79002C13.5217 8.60172 13.2663 8.49593 13 8.49593C12.7337 8.49593 12.4783 8.60172 12.29 8.79002V8.79002ZM17 3.50002H10.72L10.4 2.50002C10.1926 1.91325 9.80775 1.40553 9.2989 1.04718C8.79005 0.688841 8.18236 0.497623 7.56 0.500022H3C2.20435 0.500022 1.44129 0.816093 0.87868 1.3787C0.316071 1.94131 0 2.70437 0 3.50002V16.5C0 17.2957 0.316071 18.0587 0.87868 18.6213C1.44129 19.184 2.20435 19.5 3 19.5H17C17.7956 19.5 18.5587 19.184 19.1213 18.6213C19.6839 18.0587 20 17.2957 20 16.5V6.50002C20 5.70437 19.6839 4.94131 19.1213 4.3787C18.5587 3.81609 17.7956 3.50002 17 3.50002ZM18 16.5C18 16.7652 17.8946 17.0196 17.7071 17.2071C17.5196 17.3947 17.2652 17.5 17 17.5H3C2.73478 17.5 2.48043 17.3947 2.29289 17.2071C2.10536 17.0196 2 16.7652 2 16.5V3.50002C2 3.23481 2.10536 2.98045 2.29289 2.79292C2.48043 2.60538 2.73478 2.50002 3 2.50002H7.56C7.76964 2.49948 7.97416 2.56484 8.14463 2.68686C8.3151 2.80889 8.44291 2.9814 8.51 3.18002L9.05 4.82002C9.11709 5.01864 9.2449 5.19116 9.41537 5.31318C9.58584 5.4352 9.79036 5.50056 10 5.50002H17C17.2652 5.50002 17.5196 5.60538 17.7071 5.79292C17.8946 5.98045 18 6.23481 18 6.50002V16.5Z" fill="#5B588F"/>
</svg>
