<svg width="24" height="24" viewBox="0 0 24 24" fill="none" xmlns="http://www.w3.org/2000/svg">
<path d="M16.2 9.47602L16.8067 8.87602C16.9322 8.75048 17.0027 8.58022 17.0027 8.40268C17.0027 8.22515 16.9322 8.05488 16.8067 7.92935C16.6811 7.80381 16.5109 7.73329 16.3333 7.73329C16.1558 7.73329 15.9855 7.80381 15.86 7.92935L15.26 8.53602C14.3257 7.81325 13.1779 7.42111 11.9967 7.42111C10.8154 7.42111 9.66763 7.81325 8.73333 8.53602L8.12667 7.92268C8.00025 7.79715 7.82914 7.72697 7.65098 7.7276C7.47282 7.72822 7.3022 7.7996 7.17667 7.92602C7.05113 8.05244 6.98096 8.22355 6.98158 8.40171C6.98221 8.57987 7.05358 8.75048 7.18 8.87602L7.79333 9.48268C7.06201 10.4144 6.66519 11.5649 6.66667 12.7493C6.66449 13.5996 6.86564 14.4381 7.25335 15.1949C7.64106 15.9516 8.20408 16.6047 8.89546 17.0996C9.58684 17.5946 10.3865 17.9171 11.2279 18.0402C12.0692 18.1632 12.9278 18.0834 13.732 17.8073C14.5362 17.5311 15.2627 17.0667 15.8509 16.4528C16.4392 15.8388 16.8721 15.0931 17.1137 14.2779C17.3552 13.4626 17.3983 12.6014 17.2393 11.7661C17.0804 10.9308 16.724 10.1456 16.2 9.47602ZM12 16.7493C11.2089 16.7493 10.4355 16.5148 9.77772 16.0752C9.11992 15.6357 8.60723 15.011 8.30448 14.2801C8.00173 13.5492 7.92252 12.7449 8.07686 11.969C8.2312 11.1931 8.61216 10.4803 9.17157 9.92092C9.73098 9.36151 10.4437 8.98055 11.2196 8.82621C11.9956 8.67187 12.7998 8.75108 13.5307 9.05383C14.2616 9.35658 14.8864 9.86927 15.3259 10.5271C15.7654 11.1849 16 11.9582 16 12.7493C16 13.8102 15.5786 14.8276 14.8284 15.5778C14.0783 16.3279 13.0609 16.7493 12 16.7493ZM10.6667 6.74935H13.3333C13.5101 6.74935 13.6797 6.67911 13.8047 6.55409C13.9298 6.42906 14 6.25949 14 6.08268C14 5.90587 13.9298 5.7363 13.8047 5.61128C13.6797 5.48625 13.5101 5.41602 13.3333 5.41602H10.6667C10.4899 5.41602 10.3203 5.48625 10.1953 5.61128C10.0702 5.7363 10 5.90587 10 6.08268C10 6.25949 10.0702 6.42906 10.1953 6.55409C10.3203 6.67911 10.4899 6.74935 10.6667 6.74935ZM12.6667 10.7493C12.6667 10.5725 12.5964 10.403 12.4714 10.2779C12.3464 10.1529 12.1768 10.0827 12 10.0827C11.8232 10.0827 11.6536 10.1529 11.5286 10.2779C11.4036 10.403 11.3333 10.5725 11.3333 10.7493V12.0093C11.1824 12.1444 11.076 12.322 11.0282 12.5188C10.9804 12.7157 10.9936 12.9223 11.0658 13.1115C11.1381 13.3007 11.2661 13.4635 11.4329 13.5784C11.5997 13.6932 11.7975 13.7547 12 13.7547C12.2025 13.7547 12.4003 13.6932 12.5671 13.5784C12.7339 13.4635 12.8619 13.3007 12.9342 13.1115C13.0064 12.9223 13.0196 12.7157 12.9718 12.5188C12.924 12.322 12.8176 12.1444 12.6667 12.0093V10.7493Z" fill="#19191F"/>
<path d="M12 1.5C12 0.671573 12.6742 -0.00966673 13.4961 0.0936177C15.5653 0.353619 17.5403 1.14981 19.2198 2.41487C21.3005 3.98211 22.8147 6.18385 23.5338 8.68755C24.2528 11.1913 24.1376 13.8609 23.2056 16.2934C22.2736 18.7259 20.5754 20.7891 18.3675 22.1713C16.1596 23.5535 13.5618 24.1798 10.9666 23.9554C8.37133 23.7311 5.91957 22.6684 3.98157 20.9278C2.04357 19.1871 0.724582 16.8632 0.22382 14.3069C-0.18039 12.2434 -0.0337649 10.119 0.636319 8.14421C0.902507 7.35971 1.80983 7.05089 2.55502 7.41281C3.30021 7.77473 3.59745 8.67078 3.36418 9.46568C2.95973 10.8439 2.88896 12.3064 3.16786 13.7301C3.54344 15.6474 4.53268 17.3904 5.98618 18.6958C7.43968 20.0013 9.2785 20.7983 11.2249 20.9666C13.1713 21.1348 15.1197 20.6651 16.7756 19.6285C18.4316 18.5918 19.7052 17.0444 20.4042 15.2201C21.1032 13.3957 21.1896 11.3934 20.6503 9.51567C20.111 7.63789 18.9754 5.98659 17.4148 4.81115C16.256 3.93826 14.9095 3.363 13.4931 3.12471C12.6762 2.98727 12 2.32843 12 1.5Z" fill="url(#paint0_angular_710_5675)"/>
<defs>
<radialGradient id="paint0_angular_710_5675" cx="0" cy="0" r="1" gradientUnits="userSpaceOnUse" gradientTransform="translate(12 12) rotate(-90) scale(12)">
<stop stop-color="#E1E1FB"/>
<stop offset="1" stop-color="#9696D6"/>
</radialGradient>
</defs>
</svg>
