<svg width="227" height="32" viewBox="0 0 227 32" fill="none" xmlns="http://www.w3.org/2000/svg">
<path d="M133.752 6.33337V9.79636H128.048V27.7242H123.755V9.79636H118.051V6.33337H133.752Z" fill="white"/>
<path d="M141.178 13.3819C141.73 12.483 142.446 11.7781 143.325 11.2674C144.224 10.7566 145.247 10.5012 146.392 10.5012V15.0062H145.257C143.908 15.0062 142.885 15.3228 142.19 15.9562C141.516 16.5895 141.178 17.6928 141.178 19.266V27.7242H136.885V10.7464H141.178V13.3819Z" fill="white"/>
<path d="M165.322 10.7464V27.7242H160.998V25.579C160.446 26.3145 159.72 26.8968 158.821 27.3258C157.942 27.7344 156.981 27.9387 155.938 27.9387C154.609 27.9387 153.434 27.6629 152.411 27.1113C151.389 26.5392 150.582 25.7118 149.989 24.629C149.416 23.5257 149.13 22.2182 149.13 20.7063V10.7464H153.423V20.0934C153.423 21.4418 153.761 22.4838 154.435 23.2193C155.11 23.9343 156.03 24.2919 157.195 24.2919C158.381 24.2919 159.311 23.9343 159.986 23.2193C160.661 22.4838 160.998 21.4418 160.998 20.0934V10.7464H165.322Z" fill="white"/>
<path d="M176.059 28C174.669 28 173.422 27.7549 172.318 27.2645C171.214 26.7538 170.335 26.0693 169.681 25.2113C169.047 24.3532 168.699 23.4032 168.638 22.3612H172.962C173.044 23.015 173.361 23.5564 173.913 23.9854C174.485 24.4145 175.191 24.629 176.029 24.629C176.847 24.629 177.48 24.4655 177.93 24.1387C178.4 23.8118 178.635 23.3929 178.635 22.8822C178.635 22.3305 178.349 21.9219 177.777 21.6563C177.225 21.3703 176.335 21.0638 175.109 20.737C173.841 20.4305 172.799 20.1138 171.981 19.7869C171.183 19.46 170.488 18.9595 169.895 18.2853C169.323 17.6111 169.037 16.7019 169.037 15.5578C169.037 14.618 169.303 13.7599 169.834 12.9835C170.386 12.2072 171.163 11.5943 172.165 11.1448C173.187 10.6953 174.383 10.4706 175.753 10.4706C177.777 10.4706 179.392 10.9813 180.598 12.0029C181.804 13.004 182.469 14.3626 182.591 16.0788H178.482C178.421 15.4046 178.135 14.8734 177.623 14.4852C177.133 14.0766 176.468 13.8723 175.63 13.8723C174.853 13.8723 174.25 14.0153 173.821 14.3013C173.412 14.5873 173.207 14.9857 173.207 15.4965C173.207 16.0686 173.494 16.5078 174.066 16.8143C174.639 17.1003 175.528 17.3966 176.734 17.703C177.961 18.0095 178.973 18.3261 179.77 18.653C180.567 18.9799 181.252 19.4907 181.825 20.1853C182.418 20.8595 182.724 21.7585 182.745 22.8822C182.745 23.8628 182.469 24.7414 181.917 25.5177C181.385 26.2941 180.608 26.907 179.586 27.3565C178.584 27.7855 177.409 28 176.059 28Z" fill="white"/>
<path d="M191.268 14.2707V22.4838C191.268 23.0558 191.401 23.4747 191.666 23.7403C191.953 23.9854 192.423 24.108 193.077 24.108H195.07V27.7242H192.372C188.753 27.7242 186.944 25.9672 186.944 22.4531V14.2707H184.92V10.7464H186.944V6.54789H191.268V10.7464H195.07V14.2707H191.268Z" fill="white"/>
<path d="M213.514 23.6907H204.989L203.578 27.7694H199.07L206.768 6.33337H211.766L219.464 27.7694H214.925L213.514 23.6907ZM212.349 20.256L209.252 11.3014L206.154 20.256H212.349Z" fill="#7465F1"/>
<path d="M226.634 6.36404V27.7694H222.341V6.36404H226.634Z" fill="#7465F1"/>
<path d="M53.7408 16.79C54.782 16.4811 55.7049 15.8624 56.3871 15.0159C57.0654 14.1188 57.4153 13.0153 57.3779 11.8904C57.3949 10.8828 57.1123 9.89292 56.5661 9.04671C55.9762 8.17255 55.1393 7.49462 54.1627 7.09966C52.9802 6.60163 51.7055 6.36146 50.4232 6.39514H41.6404V27.7614H50.8387C52.1302 27.7934 53.413 27.5419 54.5973 27.0248C55.5871 26.5965 56.4311 25.8888 57.0264 24.9881C57.5962 24.0896 57.8876 23.0422 57.8637 21.9779C57.8792 20.7625 57.475 19.5792 56.7195 18.6282C55.9931 17.6614 54.9293 17.0049 53.7408 16.79ZM45.9168 9.84089H49.8288C50.6721 9.78311 51.5077 10.0334 52.1811 10.5454C52.4593 10.7925 52.678 11.0995 52.8208 11.4433C52.9636 11.7872 53.0268 12.159 53.0057 12.5309C53.0282 12.902 52.9656 13.2733 52.8227 13.6163C52.6797 13.9594 52.4603 14.2651 52.1811 14.51C51.5011 15.007 50.6687 15.2495 49.8288 15.1953H45.9168V9.84089ZM52.6541 23.5214C51.9592 24.0517 51.0968 24.3132 50.2251 24.258H45.9168V18.4937H50.1356C51.0274 18.4455 51.9064 18.7231 52.6094 19.2751C52.916 19.5415 53.1581 19.8742 53.3176 20.2481C53.4771 20.622 53.5496 21.0273 53.5298 21.4335C53.5533 21.8255 53.4866 22.2176 53.3348 22.5797C53.1829 22.9417 52.95 23.2639 52.6541 23.5214Z" fill="white"/>
<path d="M65.5598 5.09497H61.2834V27.7485H65.5598V5.09497Z" fill="white"/>
<path d="M74.2405 10.7888H69.9641V27.7486H74.2405V10.7888Z" fill="white"/>
<path d="M87.6576 10.5454C86.6482 10.5361 85.6497 10.755 84.7364 11.1859C83.8792 11.5773 83.1292 12.1706 82.5503 12.9152V10.8016H78.2739V27.7614H82.5503V18.3784C82.4775 17.2494 82.8441 16.1361 83.5731 15.2721C83.9372 14.9042 84.3749 14.6175 84.8574 14.431C85.3399 14.2444 85.8564 14.1622 86.3728 14.1897C86.8815 14.1634 87.3899 14.2464 87.864 14.4331C88.338 14.6198 88.7668 14.9058 89.1215 15.2721C89.8435 16.1393 90.2051 17.2515 90.1314 18.3784V27.7485H94.4334V17.802C94.4334 15.5176 93.8112 13.735 92.5668 12.454C91.9262 11.811 91.1587 11.3092 90.3133 10.9805C89.468 10.6518 88.5634 10.5036 87.6576 10.5454Z" fill="white"/>
<path d="M113.987 10.7888H108.426L102.743 17.9877V5.09497H98.4668V27.7485H102.743V20.524L108.49 27.7485H114.051L106.534 19.3007L113.987 10.7888Z" fill="white"/>
<path d="M72.1372 8.21473C73.2988 8.21473 74.2404 7.27123 74.2404 6.10737C74.2404 4.9435 73.2988 4 72.1372 4C70.9756 4 70.0339 4.9435 70.0339 6.10737C70.0339 7.27123 70.9756 8.21473 72.1372 8.21473Z" fill="#7465F1"/>
<path d="M19.3812 28.6188C26.3504 26.7514 30.4862 19.588 28.6188 12.6188C26.7514 5.64962 19.588 1.51381 12.6188 3.38119C5.64963 5.24858 1.51381 12.412 3.3812 19.3812C5.24858 26.3504 12.412 30.4862 19.3812 28.6188Z" fill="#7465F1"/>
<path d="M17.7489 22.527C21.3536 21.5611 23.4928 17.8558 22.527 14.2511C21.5611 10.6464 17.8558 8.50714 14.2511 9.47303C10.6464 10.4389 8.50713 14.1441 9.47302 17.7489C10.4389 21.3536 14.1441 23.4928 17.7489 22.527Z" fill="white"/>
<path d="M18.4557 19.073C20.3782 18.5579 21.5191 16.5817 21.004 14.6592C20.4888 12.7367 18.5127 11.5958 16.5902 12.1109C14.6677 12.626 13.5267 14.6022 14.0419 16.5247C14.557 18.4472 16.5331 19.5881 18.4557 19.073Z" fill="#292929"/>
<path d="M28.5022 12.1837L3.2646 18.9461C2.52672 15.6294 3.08771 12.1592 4.83055 9.2592C6.57338 6.35921 9.36348 4.25345 12.6188 3.38119C15.8741 2.50893 19.3433 2.93752 22.3026 4.57757C25.262 6.21761 27.4829 8.94243 28.5022 12.1837Z" fill="#3D36A8"/>
</svg>
