<svg width="290" height="182" viewBox="0 0 290 182" fill="none" xmlns="http://www.w3.org/2000/svg">
<g filter="url(#filter0_dd_4189_12446)">
<rect x="20" y="20" width="248" height="140" rx="10" fill="white"/>
</g>
<path d="M70 55C70 63.2842 63.2842 70 55 70C46.7158 70 40 63.2842 40 55C40 55.0035 55 40.0017 55 40C63.2842 40 70 46.7158 70 55Z" fill="#0052B4"/>
<path d="M54.9598 54.9991H55C55 54.9855 55 54.9725 55 54.959C54.9866 54.9724 54.9733 54.9858 54.9598 54.9991Z" fill="#F0F0F0"/>
<path d="M55 47.8261C55 45.1867 55 43.4572 55 40H54.9975C46.7144 40.0013 40 46.7165 40 54.9999H47.8261V50.593L52.233 54.9999H54.9599C54.9733 54.9866 54.9867 54.9732 55.0001 54.9598C55.0001 53.9492 55.0001 53.0475 55.0001 52.2331L50.593 47.8261H55Z" fill="#F0F0F0"/>
<path d="M47.5888 41.957C45.2428 43.2929 43.2924 45.2433 41.9565 47.5893V55.0005H45.8696V45.8702V45.8701H55C55 44.6359 55 43.4602 55 41.957H47.5888Z" fill="#D80027"/>
<path d="M55 53.1554L49.6708 47.8262H47.8262C47.8262 47.8261 47.8262 47.8262 47.8262 47.8262L55 55H55C55 55 55 53.7282 55 53.1554Z" fill="#D80027"/>
<path d="M49.0466 57.6094L49.8699 59.3307L51.7289 58.9011L50.8964 60.618L52.3913 61.8035L50.53 62.223L50.5352 64.1311L49.0466 62.9374L47.5581 64.1311L47.5633 62.223L45.7019 61.8035L47.1969 60.618L46.3643 58.9011L48.2234 59.3307L49.0466 57.6094Z" fill="#F0F0F0"/>
<path d="M62.4581 60.8691L62.8697 61.7298L63.7992 61.515L63.3829 62.3734L64.1305 62.9662L63.1998 63.176L63.2023 64.13L62.4581 63.5331L61.7138 64.13L61.7164 63.176L60.7858 62.9662L61.5332 62.3734L61.117 61.515L62.0465 61.7298L62.4581 60.8691Z" fill="#F0F0F0"/>
<path d="M58.6289 51.7383L59.0405 52.599L59.97 52.3841L59.5538 53.2426L60.3013 53.8354L59.3706 54.0451L59.3731 54.9991L58.6289 54.4022L57.8847 54.9991L57.8872 54.0451L56.9565 53.8354L57.704 53.2426L57.2878 52.3841L58.2173 52.599L58.6289 51.7383Z" fill="#F0F0F0"/>
<path d="M62.4581 46.5215L62.8697 47.3822L63.7992 47.1674L63.383 48.0258L64.1304 48.6186L63.1998 48.8284L63.2023 49.7824L62.4581 49.1855L61.7138 49.7824L61.7164 48.8284L60.7858 48.6186L61.5332 48.0258L61.117 47.1674L62.0465 47.3822L62.4581 46.5215Z" fill="#F0F0F0"/>
<path d="M65.8029 50.4336L66.2144 51.2943L67.144 51.0794L66.7277 51.9379L67.4752 52.5307L66.5445 52.7405L66.5471 53.6945L65.8029 53.0976L65.0586 53.6945L65.0611 52.7405L64.1305 52.5307L64.878 51.9379L64.4617 51.0794L65.3912 51.2943L65.8029 50.4336Z" fill="#F0F0F0"/>
<path d="M63.4112 55L63.7349 55.9964H64.7827L63.935 56.6123L64.2589 57.6087L63.4112 56.9929L62.5636 57.6087L62.8873 56.6123L62.0397 55.9964H63.0874L63.4112 55Z" fill="#F0F0F0"/>
<path d="M39.874 94L44.242 84.2H46.482L50.864 94H48.484L44.9 85.348H45.796L42.198 94H39.874ZM42.058 91.9L42.66 90.178H47.7L48.316 91.9H42.058ZM51.1072 94L55.4752 84.2H57.7152L62.0972 94H59.7172L56.1332 85.348H57.0292L53.4312 94H51.1072ZM53.2912 91.9L53.8932 90.178H58.9332L59.5492 91.9H53.2912ZM63.314 94V84.2H67.556C68.4333 84.2 69.1893 84.3447 69.824 84.634C70.4586 84.914 70.9486 85.32 71.294 85.852C71.6393 86.384 71.812 87.0187 71.812 87.756C71.812 88.484 71.6393 89.114 71.294 89.646C70.9486 90.178 70.4586 90.5887 69.824 90.878C69.1893 91.158 68.4333 91.298 67.556 91.298H64.574L65.582 90.276V94H63.314ZM65.582 90.528L64.574 89.45H67.43C68.13 89.45 68.6526 89.3007 68.998 89.002C69.3433 88.7033 69.516 88.288 69.516 87.756C69.516 87.2147 69.3433 86.7947 68.998 86.496C68.6526 86.1973 68.13 86.048 67.43 86.048H64.574L65.582 84.97V90.528ZM76.1479 94.112C75.5039 94.112 74.8832 94.0373 74.2859 93.888C73.6979 93.7293 73.2312 93.5333 72.8859 93.3L73.6139 91.732C73.9592 91.9467 74.3652 92.124 74.8319 92.264C75.3079 92.3947 75.7745 92.46 76.2319 92.46C76.7359 92.46 77.0905 92.3993 77.2959 92.278C77.5105 92.1567 77.6179 91.9887 77.6179 91.774C77.6179 91.5967 77.5339 91.466 77.3659 91.382C77.2072 91.2887 76.9925 91.2187 76.7219 91.172C76.4512 91.1253 76.1525 91.0787 75.8259 91.032C75.5085 90.9853 75.1865 90.9247 74.8599 90.85C74.5332 90.766 74.2345 90.6447 73.9639 90.486C73.6932 90.3273 73.4739 90.1127 73.3059 89.842C73.1472 89.5713 73.0679 89.2213 73.0679 88.792C73.0679 88.316 73.2032 87.896 73.4739 87.532C73.7539 87.168 74.1552 86.8833 74.6779 86.678C75.2005 86.4633 75.8259 86.356 76.5539 86.356C77.0672 86.356 77.5899 86.412 78.1219 86.524C78.6539 86.636 79.0972 86.7993 79.4519 87.014L78.7239 88.568C78.3599 88.3533 77.9912 88.2087 77.6179 88.134C77.2539 88.05 76.8992 88.008 76.5539 88.008C76.0685 88.008 75.7139 88.0733 75.4899 88.204C75.2659 88.3347 75.1539 88.5027 75.1539 88.708C75.1539 88.8947 75.2332 89.0347 75.3919 89.128C75.5599 89.2213 75.7792 89.296 76.0499 89.352C76.3205 89.408 76.6145 89.4593 76.9319 89.506C77.2585 89.5433 77.5852 89.604 77.9119 89.688C78.2385 89.772 78.5325 89.8933 78.7939 90.052C79.0645 90.2013 79.2839 90.4113 79.4519 90.682C79.6199 90.9433 79.7039 91.2887 79.7039 91.718C79.7039 92.1847 79.5639 92.6 79.2839 92.964C79.0039 93.3187 78.5979 93.5987 78.0659 93.804C77.5432 94.0093 76.9039 94.112 76.1479 94.112ZM39.988 112L43.792 103.6H44.98L48.796 112H47.536L44.14 104.272H44.62L41.224 112H39.988ZM41.608 109.9L41.932 108.94H46.66L47.008 109.9H41.608ZM52.6399 112.072C52.0959 112.072 51.6159 111.972 51.1999 111.772C50.7919 111.572 50.4719 111.268 50.2399 110.86C50.0159 110.444 49.9039 109.924 49.9039 109.3V105.64H51.0559V109.168C51.0559 109.792 51.2039 110.26 51.4999 110.572C51.8039 110.884 52.2279 111.04 52.7719 111.04C53.1719 111.04 53.5199 110.96 53.8159 110.8C54.1119 110.632 54.3399 110.392 54.4999 110.08C54.6599 109.76 54.7399 109.376 54.7399 108.928V105.64H55.8919V112H54.7999V110.284L54.9799 110.74C54.7719 111.164 54.4599 111.492 54.0439 111.724C53.6279 111.956 53.1599 112.072 52.6399 112.072ZM60.109 112.072C59.581 112.072 59.077 112 58.597 111.856C58.125 111.712 57.753 111.536 57.481 111.328L57.961 110.416C58.233 110.6 58.569 110.756 58.969 110.884C59.369 111.012 59.777 111.076 60.193 111.076C60.729 111.076 61.113 111 61.345 110.848C61.585 110.696 61.705 110.484 61.705 110.212C61.705 110.012 61.633 109.856 61.489 109.744C61.345 109.632 61.153 109.548 60.913 109.492C60.681 109.436 60.421 109.388 60.133 109.348C59.845 109.3 59.557 109.244 59.269 109.18C58.981 109.108 58.717 109.012 58.477 108.892C58.237 108.764 58.045 108.592 57.901 108.376C57.757 108.152 57.685 107.856 57.685 107.488C57.685 107.104 57.793 106.768 58.009 106.48C58.225 106.192 58.529 105.972 58.921 105.82C59.321 105.66 59.793 105.58 60.337 105.58C60.753 105.58 61.173 105.632 61.597 105.736C62.029 105.832 62.381 105.972 62.653 106.156L62.161 107.068C61.873 106.876 61.573 106.744 61.261 106.672C60.949 106.6 60.637 106.564 60.325 106.564C59.821 106.564 59.445 106.648 59.197 106.816C58.949 106.976 58.825 107.184 58.825 107.44C58.825 107.656 58.897 107.824 59.041 107.944C59.193 108.056 59.385 108.144 59.617 108.208C59.857 108.272 60.121 108.328 60.409 108.376C60.697 108.416 60.985 108.472 61.273 108.544C61.561 108.608 61.821 108.7 62.053 108.82C62.293 108.94 62.485 109.108 62.629 109.324C62.781 109.54 62.857 109.828 62.857 110.188C62.857 110.572 62.745 110.904 62.521 111.184C62.297 111.464 61.981 111.684 61.573 111.844C61.165 111.996 60.677 112.072 60.109 112.072ZM66.6807 112.072C66.0407 112.072 65.5447 111.9 65.1927 111.556C64.8407 111.212 64.6647 110.72 64.6647 110.08V104.248H65.8167V110.032C65.8167 110.376 65.9007 110.64 66.0687 110.824C66.2447 111.008 66.4927 111.1 66.8127 111.1C67.1727 111.1 67.4727 111 67.7127 110.8L68.0727 111.628C67.8967 111.78 67.6847 111.892 67.4367 111.964C67.1967 112.036 66.9447 112.072 66.6807 112.072ZM63.5847 106.588V105.64H67.6407V106.588H63.5847ZM69.6654 112V105.64H70.7694V107.368L70.6614 106.936C70.8374 106.496 71.1334 106.16 71.5494 105.928C71.9654 105.696 72.4774 105.58 73.0854 105.58V106.696C73.0374 106.688 72.9894 106.684 72.9414 106.684C72.9014 106.684 72.8614 106.684 72.8214 106.684C72.2054 106.684 71.7174 106.868 71.3574 107.236C70.9974 107.604 70.8174 108.136 70.8174 108.832V112H69.6654ZM78.1845 112V110.656L78.1245 110.404V108.112C78.1245 107.624 77.9805 107.248 77.6925 106.984C77.4125 106.712 76.9885 106.576 76.4205 106.576C76.0445 106.576 75.6765 106.64 75.3165 106.768C74.9565 106.888 74.6525 107.052 74.4045 107.26L73.9245 106.396C74.2525 106.132 74.6445 105.932 75.1005 105.796C75.5645 105.652 76.0485 105.58 76.5525 105.58C77.4245 105.58 78.0965 105.792 78.5685 106.216C79.0405 106.64 79.2765 107.288 79.2765 108.16V112H78.1845ZM76.0965 112.072C75.6245 112.072 75.2085 111.992 74.8485 111.832C74.4965 111.672 74.2245 111.452 74.0325 111.172C73.8405 110.884 73.7445 110.56 73.7445 110.2C73.7445 109.856 73.8245 109.544 73.9845 109.264C74.1525 108.984 74.4205 108.76 74.7885 108.592C75.1645 108.424 75.6685 108.34 76.3005 108.34H78.3165V109.168H76.3485C75.7725 109.168 75.3845 109.264 75.1845 109.456C74.9845 109.648 74.8845 109.88 74.8845 110.152C74.8845 110.464 75.0085 110.716 75.2565 110.908C75.5045 111.092 75.8485 111.184 76.2885 111.184C76.7205 111.184 77.0965 111.088 77.4165 110.896C77.7445 110.704 77.9805 110.424 78.1245 110.056L78.3525 110.848C78.2005 111.224 77.9325 111.524 77.5485 111.748C77.1645 111.964 76.6805 112.072 76.0965 112.072ZM81.6084 112V103.096H82.7604V112H81.6084ZM85.16 112V105.64H86.312V112H85.16ZM85.736 104.416C85.512 104.416 85.324 104.344 85.172 104.2C85.028 104.056 84.956 103.88 84.956 103.672C84.956 103.456 85.028 103.276 85.172 103.132C85.324 102.988 85.512 102.916 85.736 102.916C85.96 102.916 86.144 102.988 86.288 103.132C86.44 103.268 86.516 103.44 86.516 103.648C86.516 103.864 86.444 104.048 86.3 104.2C86.156 104.344 85.968 104.416 85.736 104.416ZM92.6595 112V110.656L92.5995 110.404V108.112C92.5995 107.624 92.4555 107.248 92.1675 106.984C91.8875 106.712 91.4635 106.576 90.8955 106.576C90.5195 106.576 90.1515 106.64 89.7915 106.768C89.4315 106.888 89.1275 107.052 88.8795 107.26L88.3995 106.396C88.7275 106.132 89.1195 105.932 89.5755 105.796C90.0395 105.652 90.5235 105.58 91.0275 105.58C91.8995 105.58 92.5715 105.792 93.0435 106.216C93.5155 106.64 93.7515 107.288 93.7515 108.16V112H92.6595ZM90.5715 112.072C90.0995 112.072 89.6835 111.992 89.3235 111.832C88.9715 111.672 88.6995 111.452 88.5075 111.172C88.3155 110.884 88.2195 110.56 88.2195 110.2C88.2195 109.856 88.2995 109.544 88.4595 109.264C88.6275 108.984 88.8955 108.76 89.2635 108.592C89.6395 108.424 90.1435 108.34 90.7755 108.34H92.7915V109.168H90.8235C90.2475 109.168 89.8595 109.264 89.6595 109.456C89.4595 109.648 89.3595 109.88 89.3595 110.152C89.3595 110.464 89.4835 110.716 89.7315 110.908C89.9795 111.092 90.3235 111.184 90.7635 111.184C91.1955 111.184 91.5715 111.088 91.8915 110.896C92.2195 110.704 92.4555 110.424 92.5995 110.056L92.8275 110.848C92.6755 111.224 92.4075 111.524 92.0235 111.748C91.6395 111.964 91.1555 112.072 90.5715 112.072ZM99.6741 112V103.6H102.95C103.686 103.6 104.314 103.716 104.834 103.948C105.354 104.18 105.754 104.516 106.034 104.956C106.314 105.396 106.454 105.92 106.454 106.528C106.454 107.136 106.314 107.66 106.034 108.1C105.754 108.532 105.354 108.868 104.834 109.108C104.314 109.34 103.686 109.456 102.95 109.456H100.334L100.874 108.892V112H99.6741ZM100.874 109.012L100.334 108.412H102.914C103.682 108.412 104.262 108.248 104.654 107.92C105.054 107.592 105.254 107.128 105.254 106.528C105.254 105.928 105.054 105.464 104.654 105.136C104.262 104.808 103.682 104.644 102.914 104.644H100.334L100.874 104.044V109.012ZM108.132 112V105.64H109.236V107.368L109.128 106.936C109.304 106.496 109.6 106.16 110.016 105.928C110.432 105.696 110.944 105.58 111.552 105.58V106.696C111.504 106.688 111.456 106.684 111.408 106.684C111.368 106.684 111.328 106.684 111.288 106.684C110.672 106.684 110.184 106.868 109.824 107.236C109.464 107.604 109.284 108.136 109.284 108.832V112H108.132ZM113.172 112V105.64H114.324V112H113.172ZM113.748 104.416C113.524 104.416 113.336 104.344 113.184 104.2C113.04 104.056 112.968 103.88 112.968 103.672C112.968 103.456 113.04 103.276 113.184 103.132C113.336 102.988 113.524 102.916 113.748 102.916C113.972 102.916 114.156 102.988 114.3 103.132C114.452 103.268 114.528 103.44 114.528 103.648C114.528 103.864 114.456 104.048 114.312 104.2C114.168 104.344 113.98 104.416 113.748 104.416ZM118.391 112L115.607 105.64H116.807L119.279 111.4H118.703L121.223 105.64H122.351L119.567 112H118.391ZM127.375 112V110.656L127.315 110.404V108.112C127.315 107.624 127.171 107.248 126.883 106.984C126.603 106.712 126.179 106.576 125.611 106.576C125.235 106.576 124.867 106.64 124.507 106.768C124.147 106.888 123.843 107.052 123.595 107.26L123.115 106.396C123.443 106.132 123.835 105.932 124.291 105.796C124.755 105.652 125.239 105.58 125.743 105.58C126.615 105.58 127.287 105.792 127.759 106.216C128.231 106.64 128.467 107.288 128.467 108.16V112H127.375ZM125.287 112.072C124.815 112.072 124.399 111.992 124.039 111.832C123.687 111.672 123.415 111.452 123.223 111.172C123.031 110.884 122.935 110.56 122.935 110.2C122.935 109.856 123.015 109.544 123.175 109.264C123.343 108.984 123.611 108.76 123.979 108.592C124.355 108.424 124.859 108.34 125.491 108.34H127.507V109.168H125.539C124.963 109.168 124.575 109.264 124.375 109.456C124.175 109.648 124.075 109.88 124.075 110.152C124.075 110.464 124.199 110.716 124.447 110.908C124.695 111.092 125.039 111.184 125.479 111.184C125.911 111.184 126.287 111.088 126.607 110.896C126.935 110.704 127.171 110.424 127.315 110.056L127.543 110.848C127.391 111.224 127.123 111.524 126.739 111.748C126.355 111.964 125.871 112.072 125.287 112.072ZM133.571 112.072C132.923 112.072 132.343 111.932 131.831 111.652C131.327 111.372 130.931 110.988 130.643 110.5C130.355 110.012 130.211 109.452 130.211 108.82C130.211 108.188 130.355 107.628 130.643 107.14C130.931 106.652 131.327 106.272 131.831 106C132.343 105.72 132.923 105.58 133.571 105.58C134.147 105.58 134.659 105.696 135.107 105.928C135.563 106.152 135.915 106.488 136.163 106.936L135.287 107.5C135.079 107.188 134.823 106.96 134.519 106.816C134.223 106.664 133.903 106.588 133.559 106.588C133.143 106.588 132.771 106.68 132.443 106.864C132.115 107.048 131.855 107.308 131.663 107.644C131.471 107.972 131.375 108.364 131.375 108.82C131.375 109.276 131.471 109.672 131.663 110.008C131.855 110.344 132.115 110.604 132.443 110.788C132.771 110.972 133.143 111.064 133.559 111.064C133.903 111.064 134.223 110.992 134.519 110.848C134.823 110.696 135.079 110.464 135.287 110.152L136.163 110.704C135.915 111.144 135.563 111.484 135.107 111.724C134.659 111.956 134.147 112.072 133.571 112.072ZM138.048 114.4C137.744 114.4 137.448 114.348 137.16 114.244C136.872 114.148 136.624 114.004 136.416 113.812L136.908 112.948C137.068 113.1 137.244 113.216 137.436 113.296C137.628 113.376 137.832 113.416 138.048 113.416C138.328 113.416 138.56 113.344 138.744 113.2C138.928 113.056 139.1 112.8 139.26 112.432L139.656 111.556L139.776 111.412L142.272 105.64H143.4L140.316 112.636C140.132 113.084 139.924 113.436 139.692 113.692C139.468 113.948 139.22 114.128 138.948 114.232C138.676 114.344 138.376 114.4 138.048 114.4ZM139.56 112.204L136.656 105.64H137.856L140.328 111.304L139.56 112.204ZM146.994 112L150.798 103.6H151.986L155.802 112H154.542L151.146 104.272H151.626L148.23 112H146.994ZM148.614 109.9L148.938 108.94H153.666L154.014 109.9H148.614ZM159.801 112.072C159.153 112.072 158.573 111.932 158.061 111.652C157.557 111.372 157.161 110.988 156.873 110.5C156.585 110.012 156.441 109.452 156.441 108.82C156.441 108.188 156.585 107.628 156.873 107.14C157.161 106.652 157.557 106.272 158.061 106C158.573 105.72 159.153 105.58 159.801 105.58C160.377 105.58 160.889 105.696 161.337 105.928C161.793 106.152 162.145 106.488 162.393 106.936L161.517 107.5C161.309 107.188 161.053 106.96 160.749 106.816C160.453 106.664 160.133 106.588 159.789 106.588C159.373 106.588 159.001 106.68 158.673 106.864C158.345 107.048 158.085 107.308 157.893 107.644C157.701 107.972 157.605 108.364 157.605 108.82C157.605 109.276 157.701 109.672 157.893 110.008C158.085 110.344 158.345 110.604 158.673 110.788C159.001 110.972 159.373 111.064 159.789 111.064C160.133 111.064 160.453 110.992 160.749 110.848C161.053 110.696 161.309 110.464 161.517 110.152L162.393 110.704C162.145 111.144 161.793 111.484 161.337 111.724C160.889 111.956 160.377 112.072 159.801 112.072ZM166.35 112.072C165.71 112.072 165.214 111.9 164.862 111.556C164.51 111.212 164.334 110.72 164.334 110.08V104.248H165.486V110.032C165.486 110.376 165.57 110.64 165.738 110.824C165.914 111.008 166.162 111.1 166.482 111.1C166.842 111.1 167.142 111 167.382 110.8L167.742 111.628C167.566 111.78 167.354 111.892 167.106 111.964C166.866 112.036 166.614 112.072 166.35 112.072ZM163.254 106.588V105.64H167.31V106.588H163.254Z" fill="#19191F"/>
<path d="M248 54.5C248 53.0166 247.56 51.5666 246.736 50.3332C245.912 49.0999 244.741 48.1386 243.37 47.5709C242 47.0032 240.492 46.8547 239.037 47.1441C237.582 47.4335 236.246 48.1478 235.197 49.1967C234.148 50.2456 233.434 51.582 233.144 53.0368C232.855 54.4917 233.003 55.9997 233.571 57.3701C234.139 58.7406 235.1 59.9119 236.333 60.736C237.567 61.5601 239.017 62 240.5 62C242.488 61.9978 244.395 61.2069 245.801 59.8009C247.207 58.3948 247.998 56.4884 248 54.5ZM239.97 58.0303C239.9 57.9606 239.845 57.878 239.807 57.787C239.769 57.696 239.75 57.5985 239.75 57.5C239.75 57.4015 239.769 57.304 239.807 57.213C239.845 57.122 239.9 57.0393 239.97 56.9697L241.689 55.25H237.5C237.301 55.25 237.11 55.171 236.97 55.0303C236.829 54.8897 236.75 54.6989 236.75 54.5C236.75 54.3011 236.829 54.1103 236.97 53.9697C237.11 53.829 237.301 53.75 237.5 53.75H241.689L239.97 52.0303C239.831 51.8892 239.754 51.6991 239.755 51.5014C239.756 51.3037 239.835 51.1143 239.975 50.9745C240.114 50.8347 240.304 50.7558 240.501 50.7549C240.699 50.754 240.889 50.8312 241.03 50.9698L244.03 53.9695C244.17 54.1105 244.249 54.3012 244.249 54.5C244.249 54.6988 244.17 54.8895 244.03 55.0305L241.03 58.0303C240.961 58.0999 240.878 58.1552 240.787 58.1929C240.696 58.2306 240.598 58.25 240.5 58.25C240.402 58.25 240.304 58.2306 240.213 58.1929C240.122 58.1552 240.039 58.0999 239.97 58.0303Z" fill="#5B588F"/>
<defs>
<filter id="filter0_dd_4189_12446" x="0" y="0" width="290" height="182" filterUnits="userSpaceOnUse" color-interpolation-filters="sRGB">
<feFlood flood-opacity="0" result="BackgroundImageFix"/>
<feColorMatrix in="SourceAlpha" type="matrix" values="0 0 0 0 0 0 0 0 0 0 0 0 0 0 0 0 0 0 127 0" result="hardAlpha"/>
<feMorphology radius="2" operator="dilate" in="SourceAlpha" result="effect1_dropShadow_4189_12446"/>
<feOffset dx="4" dy="4"/>
<feGaussianBlur stdDeviation="8"/>
<feComposite in2="hardAlpha" operator="out"/>
<feColorMatrix type="matrix" values="0 0 0 0 1 0 0 0 0 1 0 0 0 0 1 0 0 0 0.25 0"/>
<feBlend mode="normal" in2="BackgroundImageFix" result="effect1_dropShadow_4189_12446"/>
<feColorMatrix in="SourceAlpha" type="matrix" values="0 0 0 0 0 0 0 0 0 0 0 0 0 0 0 0 0 0 127 0" result="hardAlpha"/>
<feOffset dx="-4" dy="-4"/>
<feGaussianBlur stdDeviation="8"/>
<feComposite in2="hardAlpha" operator="out"/>
<feColorMatrix type="matrix" values="0 0 0 0 1 0 0 0 0 1 0 0 0 0 1 0 0 0 0.25 0"/>
<feBlend mode="normal" in2="effect1_dropShadow_4189_12446" result="effect2_dropShadow_4189_12446"/>
<feBlend mode="normal" in="SourceGraphic" in2="effect2_dropShadow_4189_12446" result="shape"/>
</filter>
</defs>
</svg>
