<svg width="290" height="182" viewBox="0 0 290 182" fill="none" xmlns="http://www.w3.org/2000/svg">
<g filter="url(#filter0_dd_4190_12450)">
<rect x="20" y="20" width="248" height="140" rx="10" fill="white"/>
</g>
<g clip-path="url(#clip0_4190_12450)">
<path d="M55 70C63.2843 70 70 63.2843 70 55C70 46.7157 63.2843 40 55 40C46.7157 40 40 46.7157 40 55C40 63.2843 46.7157 70 55 70Z" fill="#F0F0F0"/>
<path d="M48.4783 60.2168L49.7826 69.0666C51.4075 69.6696 53.1652 69.9994 55 69.9994C61.4494 69.9994 66.9476 65.9288 69.0669 60.2168H48.4783Z" fill="black"/>
<path d="M48.4783 49.7826L49.7826 40.9329C51.4075 40.3299 53.1652 40 55 40C61.4494 40 66.9476 44.0706 69.0669 49.7826H48.4783Z" fill="#6DA544"/>
<path d="M40 55.0006C40 61.4501 44.0707 66.9482 49.7826 69.0676V40.9336C44.0707 43.053 40 48.5511 40 55.0006Z" fill="#A2001D"/>
</g>
<path d="M39.874 94L44.242 84.2H46.482L50.864 94H48.484L44.9 85.348H45.796L42.198 94H39.874ZM42.058 91.9L42.66 90.178H47.7L48.316 91.9H42.058ZM56.3788 94.112C55.7161 94.112 55.1467 93.972 54.6707 93.692C54.1947 93.412 53.8307 92.9873 53.5787 92.418C53.3267 91.8393 53.2007 91.1113 53.2007 90.234C53.2007 89.3473 53.3314 88.6193 53.5928 88.05C53.8634 87.4807 54.2368 87.056 54.7128 86.776C55.1888 86.496 55.7441 86.356 56.3788 86.356C57.0881 86.356 57.7228 86.5147 58.2828 86.832C58.8521 87.1493 59.3001 87.5973 59.6268 88.176C59.9628 88.7547 60.1308 89.4407 60.1308 90.234C60.1308 91.018 59.9628 91.6993 59.6268 92.278C59.3001 92.8567 58.8521 93.3093 58.2828 93.636C57.7228 93.9533 57.0881 94.112 56.3788 94.112ZM51.9267 94V83.612H54.1108V87.994L53.9707 90.22L54.0128 92.46V94H51.9267ZM56.0007 92.32C56.3647 92.32 56.6867 92.236 56.9667 92.068C57.2561 91.9 57.4848 91.662 57.6528 91.354C57.8301 91.0367 57.9187 90.6633 57.9187 90.234C57.9187 89.7953 57.8301 89.422 57.6528 89.114C57.4848 88.806 57.2561 88.568 56.9667 88.4C56.6867 88.232 56.3647 88.148 56.0007 88.148C55.6367 88.148 55.3101 88.232 55.0207 88.4C54.7314 88.568 54.5028 88.806 54.3348 89.114C54.1667 89.422 54.0827 89.7953 54.0827 90.234C54.0827 90.6633 54.1667 91.0367 54.3348 91.354C54.5028 91.662 54.7314 91.9 55.0207 92.068C55.3101 92.236 55.6367 92.32 56.0007 92.32ZM64.9708 94.112C64.3454 94.112 63.7854 93.9907 63.2908 93.748C62.8054 93.5053 62.4274 93.1367 62.1568 92.642C61.8861 92.138 61.7508 91.4987 61.7508 90.724V86.468H63.9348V90.402C63.9348 91.0273 64.0654 91.4893 64.3268 91.788C64.5974 92.0773 64.9754 92.222 65.4608 92.222C65.7968 92.222 66.0954 92.152 66.3568 92.012C66.6181 91.8627 66.8234 91.6387 66.9728 91.34C67.1221 91.032 67.1968 90.6493 67.1968 90.192V86.468H69.3808V94H67.3088V91.928L67.6868 92.53C67.4348 93.0527 67.0614 93.4493 66.5668 93.72C66.0814 93.9813 65.5494 94.112 64.9708 94.112ZM75.9229 94V84.2H80.3749C81.4389 84.2 82.3769 84.4053 83.1889 84.816C84.0009 85.2173 84.6356 85.782 85.0929 86.51C85.5503 87.238 85.7789 88.1013 85.7789 89.1C85.7789 90.0893 85.5503 90.9527 85.0929 91.69C84.6356 92.418 84.0009 92.9873 83.1889 93.398C82.3769 93.7993 81.4389 94 80.3749 94H75.9229ZM78.1909 92.138H80.2629C80.9163 92.138 81.4809 92.0167 81.9569 91.774C82.4423 91.522 82.8156 91.1673 83.0769 90.71C83.3476 90.2527 83.4829 89.716 83.4829 89.1C83.4829 88.4747 83.3476 87.938 83.0769 87.49C82.8156 87.0327 82.4423 86.6827 81.9569 86.44C81.4809 86.188 80.9163 86.062 80.2629 86.062H78.1909V92.138ZM92.1133 86.356C92.7107 86.356 93.2427 86.4773 93.7093 86.72C94.1853 86.9533 94.5587 87.3173 94.8293 87.812C95.1 88.2973 95.2353 88.9227 95.2353 89.688V94H93.0513V90.024C93.0513 89.4173 92.916 88.9693 92.6453 88.68C92.384 88.3907 92.0107 88.246 91.5253 88.246C91.18 88.246 90.8673 88.3207 90.5873 88.47C90.3167 88.61 90.102 88.8293 89.9433 89.128C89.794 89.4267 89.7193 89.8093 89.7193 90.276V94H87.5353V83.612H89.7193V88.554L89.2293 87.924C89.5 87.42 89.8873 87.0327 90.3913 86.762C90.8953 86.4913 91.4693 86.356 92.1133 86.356ZM102.035 94V92.53L101.895 92.208V89.576C101.895 89.1093 101.75 88.7453 101.461 88.484C101.181 88.2227 100.747 88.092 100.159 88.092C99.7577 88.092 99.361 88.1573 98.969 88.288C98.5864 88.4093 98.2597 88.5773 97.989 88.792L97.205 87.266C97.6157 86.9767 98.1104 86.7527 98.689 86.594C99.2677 86.4353 99.8557 86.356 100.453 86.356C101.601 86.356 102.492 86.6267 103.127 87.168C103.762 87.7093 104.079 88.554 104.079 89.702V94H102.035ZM99.739 94.112C99.151 94.112 98.647 94.014 98.227 93.818C97.807 93.6127 97.485 93.3373 97.261 92.992C97.037 92.6467 96.925 92.2593 96.925 91.83C96.925 91.382 97.0324 90.99 97.247 90.654C97.471 90.318 97.821 90.0567 98.297 89.87C98.773 89.674 99.3937 89.576 100.159 89.576H102.161V90.85H100.397C99.8837 90.85 99.529 90.934 99.333 91.102C99.1464 91.27 99.053 91.48 99.053 91.732C99.053 92.012 99.1604 92.236 99.375 92.404C99.599 92.5627 99.9024 92.642 100.285 92.642C100.649 92.642 100.976 92.558 101.265 92.39C101.554 92.2127 101.764 91.956 101.895 91.62L102.231 92.628C102.072 93.1133 101.783 93.482 101.363 93.734C100.943 93.986 100.402 94.112 99.739 94.112ZM110.708 94.112C110.045 94.112 109.476 93.972 109 93.692C108.524 93.412 108.16 92.9873 107.908 92.418C107.656 91.8393 107.53 91.1113 107.53 90.234C107.53 89.3473 107.66 88.6193 107.922 88.05C108.192 87.4807 108.566 87.056 109.042 86.776C109.518 86.496 110.073 86.356 110.708 86.356C111.417 86.356 112.052 86.5147 112.612 86.832C113.181 87.1493 113.629 87.5973 113.956 88.176C114.292 88.7547 114.46 89.4407 114.46 90.234C114.46 91.018 114.292 91.6993 113.956 92.278C113.629 92.8567 113.181 93.3093 112.612 93.636C112.052 93.9533 111.417 94.112 110.708 94.112ZM106.256 94V83.612H108.44V87.994L108.3 90.22L108.342 92.46V94H106.256ZM110.33 92.32C110.694 92.32 111.016 92.236 111.296 92.068C111.585 91.9 111.814 91.662 111.982 91.354C112.159 91.0367 112.248 90.6633 112.248 90.234C112.248 89.7953 112.159 89.422 111.982 89.114C111.814 88.806 111.585 88.568 111.296 88.4C111.016 88.232 110.694 88.148 110.33 88.148C109.966 88.148 109.639 88.232 109.35 88.4C109.06 88.568 108.832 88.806 108.664 89.114C108.496 89.422 108.412 89.7953 108.412 90.234C108.412 90.6633 108.496 91.0367 108.664 91.354C108.832 91.662 109.06 91.9 109.35 92.068C109.639 92.236 109.966 92.32 110.33 92.32ZM116.122 94V86.468H118.306V94H116.122ZM117.214 85.418C116.812 85.418 116.486 85.3013 116.234 85.068C115.982 84.8347 115.856 84.5453 115.856 84.2C115.856 83.8547 115.982 83.5653 116.234 83.332C116.486 83.0987 116.812 82.982 117.214 82.982C117.615 82.982 117.942 83.094 118.194 83.318C118.446 83.5327 118.572 83.8127 118.572 84.158C118.572 84.522 118.446 84.8253 118.194 85.068C117.951 85.3013 117.624 85.418 117.214 85.418ZM120.155 88.26L121.079 84.9L121.387 86.174C120.985 86.174 120.654 86.0573 120.393 85.824C120.141 85.5813 120.015 85.2547 120.015 84.844C120.015 84.4427 120.145 84.1207 120.407 83.878C120.668 83.626 120.99 83.5 121.373 83.5C121.765 83.5 122.087 83.626 122.339 83.878C122.591 84.1207 122.717 84.4427 122.717 84.844C122.717 84.9653 122.707 85.0867 122.689 85.208C122.679 85.32 122.647 85.4553 122.591 85.614C122.544 85.7727 122.465 85.9827 122.353 86.244L121.541 88.26H120.155ZM126.685 94.112C126.041 94.112 125.42 94.0373 124.823 93.888C124.235 93.7293 123.768 93.5333 123.423 93.3L124.151 91.732C124.496 91.9467 124.902 92.124 125.369 92.264C125.845 92.3947 126.311 92.46 126.769 92.46C127.273 92.46 127.627 92.3993 127.833 92.278C128.047 92.1567 128.155 91.9887 128.155 91.774C128.155 91.5967 128.071 91.466 127.903 91.382C127.744 91.2887 127.529 91.2187 127.259 91.172C126.988 91.1253 126.689 91.0787 126.363 91.032C126.045 90.9853 125.723 90.9247 125.397 90.85C125.07 90.766 124.771 90.6447 124.501 90.486C124.23 90.3273 124.011 90.1127 123.843 89.842C123.684 89.5713 123.605 89.2213 123.605 88.792C123.605 88.316 123.74 87.896 124.011 87.532C124.291 87.168 124.692 86.8833 125.215 86.678C125.737 86.4633 126.363 86.356 127.091 86.356C127.604 86.356 128.127 86.412 128.659 86.524C129.191 86.636 129.634 86.7993 129.989 87.014L129.261 88.568C128.897 88.3533 128.528 88.2087 128.155 88.134C127.791 88.05 127.436 88.008 127.091 88.008C126.605 88.008 126.251 88.0733 126.027 88.204C125.803 88.3347 125.691 88.5027 125.691 88.708C125.691 88.8947 125.77 89.0347 125.929 89.128C126.097 89.2213 126.316 89.296 126.587 89.352C126.857 89.408 127.151 89.4593 127.469 89.506C127.795 89.5433 128.122 89.604 128.449 89.688C128.775 89.772 129.069 89.8933 129.331 90.052C129.601 90.2013 129.821 90.4113 129.989 90.682C130.157 90.9433 130.241 91.2887 130.241 91.718C130.241 92.1847 130.101 92.6 129.821 92.964C129.541 93.3187 129.135 93.5987 128.603 93.804C128.08 94.0093 127.441 94.112 126.685 94.112ZM134.819 94L139.187 84.2H141.427L145.809 94H143.429L139.845 85.348H140.741L137.143 94H134.819ZM137.003 91.9L137.605 90.178H142.645L143.261 91.9H137.003ZM147.026 94V84.2H151.478C152.542 84.2 153.48 84.4053 154.292 84.816C155.104 85.2173 155.738 85.782 156.196 86.51C156.653 87.238 156.882 88.1013 156.882 89.1C156.882 90.0893 156.653 90.9527 156.196 91.69C155.738 92.418 155.104 92.9873 154.292 93.398C153.48 93.7993 152.542 94 151.478 94H147.026ZM149.294 92.138H151.366C152.019 92.138 152.584 92.0167 153.06 91.774C153.545 91.522 153.918 91.1673 154.18 90.71C154.45 90.2527 154.586 89.716 154.586 89.1C154.586 88.4747 154.45 87.938 154.18 87.49C153.918 87.0327 153.545 86.6827 153.06 86.44C152.584 86.188 152.019 86.062 151.366 86.062H149.294V92.138ZM165.512 84.2H167.78V94H165.512V84.2ZM161.06 94H158.792V84.2H161.06V94ZM165.68 89.982H160.892V88.064H165.68V89.982ZM170.299 94V84.2H172.567V94H170.299ZM179.782 94.168C179.026 94.168 178.322 94.0467 177.668 93.804C177.024 93.552 176.464 93.1973 175.988 92.74C175.512 92.2827 175.139 91.746 174.868 91.13C174.607 90.514 174.476 89.8373 174.476 89.1C174.476 88.3627 174.607 87.686 174.868 87.07C175.139 86.454 175.512 85.9173 175.988 85.46C176.474 85.0027 177.038 84.6527 177.682 84.41C178.326 84.158 179.031 84.032 179.796 84.032C180.646 84.032 181.411 84.1813 182.092 84.48C182.783 84.7693 183.362 85.1987 183.828 85.768L182.372 87.112C182.036 86.7293 181.663 86.4447 181.252 86.258C180.842 86.062 180.394 85.964 179.908 85.964C179.451 85.964 179.031 86.0387 178.648 86.188C178.266 86.3373 177.934 86.552 177.654 86.832C177.374 87.112 177.155 87.4433 176.996 87.826C176.847 88.2087 176.772 88.6333 176.772 89.1C176.772 89.5667 176.847 89.9913 176.996 90.374C177.155 90.7567 177.374 91.088 177.654 91.368C177.934 91.648 178.266 91.8627 178.648 92.012C179.031 92.1613 179.451 92.236 179.908 92.236C180.394 92.236 180.842 92.1427 181.252 91.956C181.663 91.76 182.036 91.466 182.372 91.074L183.828 92.418C183.362 92.9873 182.783 93.4213 182.092 93.72C181.411 94.0187 180.641 94.168 179.782 94.168ZM188.725 94.168C187.941 94.168 187.19 94.0653 186.471 93.86C185.753 93.6453 185.174 93.37 184.735 93.034L185.505 91.326C185.925 91.6247 186.42 91.872 186.989 92.068C187.568 92.2547 188.151 92.348 188.739 92.348C189.187 92.348 189.547 92.306 189.817 92.222C190.097 92.1287 190.303 92.0027 190.433 91.844C190.564 91.6853 190.629 91.5033 190.629 91.298C190.629 91.0367 190.527 90.8313 190.321 90.682C190.116 90.5233 189.845 90.3973 189.509 90.304C189.173 90.2013 188.8 90.108 188.389 90.024C187.988 89.9307 187.582 89.8187 187.171 89.688C186.77 89.5573 186.401 89.3893 186.065 89.184C185.729 88.9787 185.454 88.708 185.239 88.372C185.034 88.036 184.931 87.6067 184.931 87.084C184.931 86.524 185.081 86.0153 185.379 85.558C185.687 85.0913 186.145 84.7227 186.751 84.452C187.367 84.172 188.137 84.032 189.061 84.032C189.677 84.032 190.284 84.1067 190.881 84.256C191.479 84.396 192.006 84.6107 192.463 84.9L191.763 86.622C191.306 86.3607 190.849 86.1693 190.391 86.048C189.934 85.9173 189.486 85.852 189.047 85.852C188.609 85.852 188.249 85.9033 187.969 86.006C187.689 86.1087 187.489 86.244 187.367 86.412C187.246 86.5707 187.185 86.7573 187.185 86.972C187.185 87.224 187.288 87.4293 187.493 87.588C187.699 87.7373 187.969 87.8587 188.305 87.952C188.641 88.0453 189.01 88.1387 189.411 88.232C189.822 88.3253 190.228 88.4327 190.629 88.554C191.04 88.6753 191.413 88.8387 191.749 89.044C192.085 89.2493 192.356 89.52 192.561 89.856C192.776 90.192 192.883 90.6167 192.883 91.13C192.883 91.6807 192.729 92.1847 192.421 92.642C192.113 93.0993 191.651 93.468 191.035 93.748C190.429 94.028 189.659 94.168 188.725 94.168ZM39.988 112L43.792 103.6H44.98L48.796 112H47.536L44.14 104.272H44.62L41.224 112H39.988ZM41.608 109.9L41.932 108.94H46.66L47.008 109.9H41.608ZM53.4531 112.072C52.9091 112.072 52.4171 111.952 51.9771 111.712C51.5451 111.464 51.2011 111.1 50.9451 110.62C50.6971 110.14 50.5731 109.54 50.5731 108.82C50.5731 108.1 50.7011 107.5 50.9571 107.02C51.2211 106.54 51.5691 106.18 52.0011 105.94C52.4411 105.7 52.9251 105.58 53.4531 105.58C54.0771 105.58 54.6291 105.716 55.1091 105.988C55.5891 106.26 55.9691 106.64 56.2491 107.128C56.5291 107.608 56.6691 108.172 56.6691 108.82C56.6691 109.468 56.5291 110.036 56.2491 110.524C55.9691 111.012 55.5891 111.392 55.1091 111.664C54.6291 111.936 54.0771 112.072 53.4531 112.072ZM50.0811 112V103.096H51.2331V107.332L51.1131 108.808L51.1851 110.284V112H50.0811ZM53.3571 111.064C53.7651 111.064 54.1291 110.972 54.4491 110.788C54.7771 110.604 55.0331 110.344 55.2171 110.008C55.4091 109.664 55.5051 109.268 55.5051 108.82C55.5051 108.364 55.4091 107.972 55.2171 107.644C55.0331 107.308 54.7771 107.048 54.4491 106.864C54.1291 106.68 53.7651 106.588 53.3571 106.588C52.9571 106.588 52.5931 106.68 52.2651 106.864C51.9451 107.048 51.6891 107.308 51.4971 107.644C51.3131 107.972 51.2211 108.364 51.2211 108.82C51.2211 109.268 51.3131 109.664 51.4971 110.008C51.6891 110.344 51.9451 110.604 52.2651 110.788C52.5931 110.972 52.9571 111.064 53.3571 111.064ZM61.1367 112.072C60.5927 112.072 60.1127 111.972 59.6967 111.772C59.2887 111.572 58.9687 111.268 58.7367 110.86C58.5127 110.444 58.4007 109.924 58.4007 109.3V105.64H59.5527V109.168C59.5527 109.792 59.7007 110.26 59.9967 110.572C60.3007 110.884 60.7247 111.04 61.2687 111.04C61.6687 111.04 62.0167 110.96 62.3127 110.8C62.6087 110.632 62.8367 110.392 62.9967 110.08C63.1567 109.76 63.2367 109.376 63.2367 108.928V105.64H64.3888V112H63.2967V110.284L63.4767 110.74C63.2687 111.164 62.9567 111.492 62.5407 111.724C62.1247 111.956 61.6567 112.072 61.1367 112.072ZM70.3725 112V103.6H73.9125C74.8085 103.6 75.5965 103.776 76.2765 104.128C76.9645 104.48 77.4965 104.972 77.8725 105.604C78.2565 106.236 78.4485 106.968 78.4485 107.8C78.4485 108.632 78.2565 109.364 77.8725 109.996C77.4965 110.628 76.9645 111.12 76.2765 111.472C75.5965 111.824 74.8085 112 73.9125 112H70.3725ZM71.5725 110.956H73.8405C74.5365 110.956 75.1365 110.824 75.6405 110.56C76.1525 110.296 76.5485 109.928 76.8285 109.456C77.1085 108.976 77.2485 108.424 77.2485 107.8C77.2485 107.168 77.1085 106.616 76.8285 106.144C76.5485 105.672 76.1525 105.304 75.6405 105.04C75.1365 104.776 74.5365 104.644 73.8405 104.644H71.5725V110.956ZM83.7146 105.58C84.2346 105.58 84.6906 105.68 85.0826 105.88C85.4826 106.08 85.7946 106.384 86.0186 106.792C86.2426 107.2 86.3546 107.716 86.3546 108.34V112H85.2026V108.472C85.2026 107.856 85.0506 107.392 84.7466 107.08C84.4506 106.768 84.0306 106.612 83.4866 106.612C83.0786 106.612 82.7226 106.692 82.4186 106.852C82.1146 107.012 81.8786 107.248 81.7106 107.56C81.5506 107.872 81.4706 108.26 81.4706 108.724V112H80.3186V103.096H81.4706V107.356L81.2426 106.9C81.4506 106.484 81.7706 106.16 82.2026 105.928C82.6346 105.696 83.1386 105.58 83.7146 105.58ZM92.6345 112V110.656L92.5745 110.404V108.112C92.5745 107.624 92.4305 107.248 92.1425 106.984C91.8625 106.712 91.4385 106.576 90.8705 106.576C90.4945 106.576 90.1265 106.64 89.7665 106.768C89.4065 106.888 89.1025 107.052 88.8545 107.26L88.3745 106.396C88.7025 106.132 89.0945 105.932 89.5505 105.796C90.0145 105.652 90.4985 105.58 91.0025 105.58C91.8745 105.58 92.5465 105.792 93.0185 106.216C93.4905 106.64 93.7265 107.288 93.7265 108.16V112H92.6345ZM90.5465 112.072C90.0745 112.072 89.6585 111.992 89.2985 111.832C88.9465 111.672 88.6745 111.452 88.4825 111.172C88.2905 110.884 88.1945 110.56 88.1945 110.2C88.1945 109.856 88.2745 109.544 88.4345 109.264C88.6025 108.984 88.8705 108.76 89.2385 108.592C89.6145 108.424 90.1185 108.34 90.7505 108.34H92.7665V109.168H90.7985C90.2225 109.168 89.8345 109.264 89.6345 109.456C89.4345 109.648 89.3345 109.88 89.3345 110.152C89.3345 110.464 89.4585 110.716 89.7065 110.908C89.9545 111.092 90.2985 111.184 90.7385 111.184C91.1705 111.184 91.5465 111.088 91.8665 110.896C92.1945 110.704 92.4305 110.424 92.5745 110.056L92.8025 110.848C92.6505 111.224 92.3825 111.524 91.9985 111.748C91.6145 111.964 91.1305 112.072 90.5465 112.072ZM99.4304 112.072C98.8864 112.072 98.3944 111.952 97.9544 111.712C97.5224 111.464 97.1784 111.1 96.9224 110.62C96.6744 110.14 96.5504 109.54 96.5504 108.82C96.5504 108.1 96.6784 107.5 96.9344 107.02C97.1984 106.54 97.5464 106.18 97.9784 105.94C98.4184 105.7 98.9024 105.58 99.4304 105.58C100.054 105.58 100.606 105.716 101.086 105.988C101.566 106.26 101.946 106.64 102.226 107.128C102.506 107.608 102.646 108.172 102.646 108.82C102.646 109.468 102.506 110.036 102.226 110.524C101.946 111.012 101.566 111.392 101.086 111.664C100.606 111.936 100.054 112.072 99.4304 112.072ZM96.0584 112V103.096H97.2104V107.332L97.0904 108.808L97.1624 110.284V112H96.0584ZM99.3344 111.064C99.7424 111.064 100.106 110.972 100.426 110.788C100.754 110.604 101.01 110.344 101.194 110.008C101.386 109.664 101.482 109.268 101.482 108.82C101.482 108.364 101.386 107.972 101.194 107.644C101.01 107.308 100.754 107.048 100.426 106.864C100.106 106.68 99.7424 106.588 99.3344 106.588C98.9344 106.588 98.5704 106.68 98.2424 106.864C97.9224 107.048 97.6664 107.308 97.4744 107.644C97.2904 107.972 97.1984 108.364 97.1984 108.82C97.1984 109.268 97.2904 109.664 97.4744 110.008C97.6664 110.344 97.9224 110.604 98.2424 110.788C98.5704 110.972 98.9344 111.064 99.3344 111.064ZM104.438 112V105.64H105.59V112H104.438ZM105.014 104.416C104.79 104.416 104.602 104.344 104.45 104.2C104.306 104.056 104.234 103.88 104.234 103.672C104.234 103.456 104.306 103.276 104.45 103.132C104.602 102.988 104.79 102.916 105.014 102.916C105.238 102.916 105.422 102.988 105.566 103.132C105.718 103.268 105.794 103.44 105.794 103.648C105.794 103.864 105.722 104.048 105.578 104.2C105.434 104.344 105.246 104.416 105.014 104.416ZM114.784 112.072C114.256 112.072 113.772 111.952 113.332 111.712C112.9 111.464 112.552 111.1 112.288 110.62C112.032 110.14 111.904 109.54 111.904 108.82C111.904 108.1 112.028 107.5 112.276 107.02C112.532 106.54 112.876 106.18 113.308 105.94C113.748 105.7 114.24 105.58 114.784 105.58C115.408 105.58 115.96 105.716 116.44 105.988C116.92 106.26 117.3 106.64 117.58 107.128C117.86 107.608 118 108.172 118 108.82C118 109.468 117.86 110.036 117.58 110.524C117.3 111.012 116.92 111.392 116.44 111.664C115.96 111.936 115.408 112.072 114.784 112.072ZM111.412 114.328V105.64H112.516V107.356L112.444 108.832L112.564 110.308V114.328H111.412ZM114.688 111.064C115.096 111.064 115.46 110.972 115.78 110.788C116.108 110.604 116.364 110.344 116.548 110.008C116.74 109.664 116.836 109.268 116.836 108.82C116.836 108.364 116.74 107.972 116.548 107.644C116.364 107.308 116.108 107.048 115.78 106.864C115.46 106.68 115.096 106.588 114.688 106.588C114.288 106.588 113.924 106.68 113.596 106.864C113.276 107.048 113.02 107.308 112.828 107.644C112.644 107.972 112.552 108.364 112.552 108.82C112.552 109.268 112.644 109.664 112.828 110.008C113.02 110.344 113.276 110.604 113.596 110.788C113.924 110.972 114.288 111.064 114.688 111.064ZM119.792 112V105.64H120.896V107.368L120.788 106.936C120.964 106.496 121.26 106.16 121.676 105.928C122.092 105.696 122.604 105.58 123.212 105.58V106.696C123.164 106.688 123.116 106.684 123.068 106.684C123.028 106.684 122.988 106.684 122.948 106.684C122.332 106.684 121.844 106.868 121.484 107.236C121.124 107.604 120.944 108.136 120.944 108.832V112H119.792ZM124.832 112V105.64H125.984V112H124.832ZM125.408 104.416C125.184 104.416 124.996 104.344 124.844 104.2C124.7 104.056 124.628 103.88 124.628 103.672C124.628 103.456 124.7 103.276 124.844 103.132C124.996 102.988 125.184 102.916 125.408 102.916C125.632 102.916 125.816 102.988 125.96 103.132C126.112 103.268 126.188 103.44 126.188 103.648C126.188 103.864 126.116 104.048 125.972 104.2C125.828 104.344 125.64 104.416 125.408 104.416ZM130.051 112L127.267 105.64H128.467L130.939 111.4H130.363L132.883 105.64H134.011L131.227 112H130.051ZM139.035 112V110.656L138.975 110.404V108.112C138.975 107.624 138.831 107.248 138.543 106.984C138.263 106.712 137.839 106.576 137.271 106.576C136.895 106.576 136.527 106.64 136.167 106.768C135.807 106.888 135.503 107.052 135.255 107.26L134.775 106.396C135.103 106.132 135.495 105.932 135.951 105.796C136.415 105.652 136.899 105.58 137.403 105.58C138.275 105.58 138.947 105.792 139.419 106.216C139.891 106.64 140.127 107.288 140.127 108.16V112H139.035ZM136.947 112.072C136.475 112.072 136.059 111.992 135.699 111.832C135.347 111.672 135.075 111.452 134.883 111.172C134.691 110.884 134.595 110.56 134.595 110.2C134.595 109.856 134.675 109.544 134.835 109.264C135.003 108.984 135.271 108.76 135.639 108.592C136.015 108.424 136.519 108.34 137.151 108.34H139.167V109.168H137.199C136.623 109.168 136.235 109.264 136.035 109.456C135.835 109.648 135.735 109.88 135.735 110.152C135.735 110.464 135.859 110.716 136.107 110.908C136.355 111.092 136.699 111.184 137.139 111.184C137.571 111.184 137.947 111.088 138.267 110.896C138.595 110.704 138.831 110.424 138.975 110.056L139.203 110.848C139.051 111.224 138.783 111.524 138.399 111.748C138.015 111.964 137.531 112.072 136.947 112.072ZM145.231 112.072C144.583 112.072 144.003 111.932 143.491 111.652C142.987 111.372 142.591 110.988 142.303 110.5C142.015 110.012 141.871 109.452 141.871 108.82C141.871 108.188 142.015 107.628 142.303 107.14C142.591 106.652 142.987 106.272 143.491 106C144.003 105.72 144.583 105.58 145.231 105.58C145.807 105.58 146.319 105.696 146.767 105.928C147.223 106.152 147.575 106.488 147.823 106.936L146.947 107.5C146.739 107.188 146.483 106.96 146.179 106.816C145.883 106.664 145.563 106.588 145.219 106.588C144.803 106.588 144.431 106.68 144.103 106.864C143.775 107.048 143.515 107.308 143.323 107.644C143.131 107.972 143.035 108.364 143.035 108.82C143.035 109.276 143.131 109.672 143.323 110.008C143.515 110.344 143.775 110.604 144.103 110.788C144.431 110.972 144.803 111.064 145.219 111.064C145.563 111.064 145.883 110.992 146.179 110.848C146.483 110.696 146.739 110.464 146.947 110.152L147.823 110.704C147.575 111.144 147.223 111.484 146.767 111.724C146.319 111.956 145.807 112.072 145.231 112.072ZM149.709 114.4C149.405 114.4 149.109 114.348 148.821 114.244C148.533 114.148 148.285 114.004 148.077 113.812L148.569 112.948C148.729 113.1 148.905 113.216 149.097 113.296C149.289 113.376 149.493 113.416 149.709 113.416C149.989 113.416 150.221 113.344 150.405 113.2C150.589 113.056 150.761 112.8 150.921 112.432L151.317 111.556L151.437 111.412L153.933 105.64H155.061L151.977 112.636C151.793 113.084 151.585 113.436 151.353 113.692C151.129 113.948 150.881 114.128 150.609 114.232C150.337 114.344 150.037 114.4 149.709 114.4ZM151.221 112.204L148.317 105.64H149.517L151.989 111.304L151.221 112.204ZM163.706 112V110.656L163.646 110.404V108.112C163.646 107.624 163.502 107.248 163.214 106.984C162.934 106.712 162.51 106.576 161.942 106.576C161.566 106.576 161.198 106.64 160.838 106.768C160.478 106.888 160.174 107.052 159.926 107.26L159.446 106.396C159.774 106.132 160.166 105.932 160.622 105.796C161.086 105.652 161.57 105.58 162.074 105.58C162.946 105.58 163.618 105.792 164.09 106.216C164.562 106.64 164.798 107.288 164.798 108.16V112H163.706ZM161.618 112.072C161.146 112.072 160.73 111.992 160.37 111.832C160.018 111.672 159.746 111.452 159.554 111.172C159.362 110.884 159.266 110.56 159.266 110.2C159.266 109.856 159.346 109.544 159.506 109.264C159.674 108.984 159.942 108.76 160.31 108.592C160.686 108.424 161.19 108.34 161.822 108.34H163.838V109.168H161.87C161.294 109.168 160.906 109.264 160.706 109.456C160.506 109.648 160.406 109.88 160.406 110.152C160.406 110.464 160.53 110.716 160.778 110.908C161.026 111.092 161.37 111.184 161.81 111.184C162.242 111.184 162.618 111.088 162.938 110.896C163.266 110.704 163.502 110.424 163.646 110.056L163.874 110.848C163.722 111.224 163.454 111.524 163.07 111.748C162.686 111.964 162.202 112.072 161.618 112.072ZM170.526 105.58C171.046 105.58 171.502 105.68 171.894 105.88C172.294 106.08 172.606 106.384 172.83 106.792C173.054 107.2 173.166 107.716 173.166 108.34V112H172.014V108.472C172.014 107.856 171.862 107.392 171.558 107.08C171.262 106.768 170.842 106.612 170.298 106.612C169.89 106.612 169.534 106.692 169.23 106.852C168.926 107.012 168.69 107.248 168.522 107.56C168.362 107.872 168.282 108.26 168.282 108.724V112H167.13V105.64H168.234V107.356L168.054 106.9C168.262 106.484 168.582 106.16 169.014 105.928C169.446 105.696 169.95 105.58 170.526 105.58ZM178.126 112.072C177.51 112.072 176.958 111.936 176.47 111.664C175.99 111.392 175.61 111.012 175.33 110.524C175.05 110.036 174.91 109.468 174.91 108.82C174.91 108.172 175.05 107.608 175.33 107.128C175.61 106.64 175.99 106.26 176.47 105.988C176.958 105.716 177.51 105.58 178.126 105.58C178.662 105.58 179.146 105.7 179.578 105.94C180.01 106.18 180.354 106.54 180.61 107.02C180.874 107.5 181.006 108.1 181.006 108.82C181.006 109.54 180.878 110.14 180.622 110.62C180.374 111.1 180.034 111.464 179.602 111.712C179.17 111.952 178.678 112.072 178.126 112.072ZM178.222 111.064C178.622 111.064 178.982 110.972 179.302 110.788C179.63 110.604 179.886 110.344 180.07 110.008C180.262 109.664 180.358 109.268 180.358 108.82C180.358 108.364 180.262 107.972 180.07 107.644C179.886 107.308 179.63 107.048 179.302 106.864C178.982 106.68 178.622 106.588 178.222 106.588C177.814 106.588 177.45 106.68 177.13 106.864C176.81 107.048 176.554 107.308 176.362 107.644C176.17 107.972 176.074 108.364 176.074 108.82C176.074 109.268 176.17 109.664 176.362 110.008C176.554 110.344 176.81 110.604 177.13 110.788C177.45 110.972 177.814 111.064 178.222 111.064ZM180.394 112V110.284L180.466 108.808L180.346 107.332V103.096H181.498V112H180.394ZM189.125 112.072C188.597 112.072 188.093 112 187.613 111.856C187.141 111.712 186.769 111.536 186.497 111.328L186.977 110.416C187.249 110.6 187.585 110.756 187.985 110.884C188.385 111.012 188.793 111.076 189.209 111.076C189.745 111.076 190.129 111 190.361 110.848C190.601 110.696 190.721 110.484 190.721 110.212C190.721 110.012 190.649 109.856 190.505 109.744C190.361 109.632 190.169 109.548 189.929 109.492C189.697 109.436 189.437 109.388 189.149 109.348C188.861 109.3 188.573 109.244 188.285 109.18C187.997 109.108 187.733 109.012 187.493 108.892C187.253 108.764 187.061 108.592 186.917 108.376C186.773 108.152 186.701 107.856 186.701 107.488C186.701 107.104 186.809 106.768 187.025 106.48C187.241 106.192 187.545 105.972 187.937 105.82C188.337 105.66 188.809 105.58 189.353 105.58C189.769 105.58 190.189 105.632 190.613 105.736C191.045 105.832 191.397 105.972 191.669 106.156L191.177 107.068C190.889 106.876 190.589 106.744 190.277 106.672C189.965 106.6 189.653 106.564 189.341 106.564C188.837 106.564 188.461 106.648 188.213 106.816C187.965 106.976 187.841 107.184 187.841 107.44C187.841 107.656 187.913 107.824 188.057 107.944C188.209 108.056 188.401 108.144 188.633 108.208C188.873 108.272 189.137 108.328 189.425 108.376C189.713 108.416 190.001 108.472 190.289 108.544C190.577 108.608 190.837 108.7 191.069 108.82C191.309 108.94 191.501 109.108 191.645 109.324C191.797 109.54 191.873 109.828 191.873 110.188C191.873 110.572 191.761 110.904 191.537 111.184C191.313 111.464 190.997 111.684 190.589 111.844C190.181 111.996 189.693 112.072 189.125 112.072ZM196.344 112.072C195.664 112.072 195.064 111.932 194.544 111.652C194.032 111.372 193.632 110.988 193.344 110.5C193.064 110.012 192.924 109.452 192.924 108.82C192.924 108.188 193.06 107.628 193.332 107.14C193.612 106.652 193.992 106.272 194.472 106C194.96 105.72 195.508 105.58 196.116 105.58C196.732 105.58 197.276 105.716 197.748 105.988C198.22 106.26 198.588 106.644 198.852 107.14C199.124 107.628 199.26 108.2 199.26 108.856C199.26 108.904 199.256 108.96 199.248 109.024C199.248 109.088 199.244 109.148 199.236 109.204H193.824V108.376H198.636L198.168 108.664C198.176 108.256 198.092 107.892 197.916 107.572C197.74 107.252 197.496 107.004 197.184 106.828C196.88 106.644 196.524 106.552 196.116 106.552C195.716 106.552 195.36 106.644 195.048 106.828C194.736 107.004 194.492 107.256 194.316 107.584C194.14 107.904 194.052 108.272 194.052 108.688V108.88C194.052 109.304 194.148 109.684 194.34 110.02C194.54 110.348 194.816 110.604 195.168 110.788C195.52 110.972 195.924 111.064 196.38 111.064C196.756 111.064 197.096 111 197.4 110.872C197.712 110.744 197.984 110.552 198.216 110.296L198.852 111.04C198.564 111.376 198.204 111.632 197.772 111.808C197.348 111.984 196.872 112.072 196.344 112.072ZM203.832 112.072C203.184 112.072 202.604 111.932 202.092 111.652C201.588 111.372 201.192 110.988 200.904 110.5C200.616 110.012 200.472 109.452 200.472 108.82C200.472 108.188 200.616 107.628 200.904 107.14C201.192 106.652 201.588 106.272 202.092 106C202.604 105.72 203.184 105.58 203.832 105.58C204.408 105.58 204.92 105.696 205.368 105.928C205.824 106.152 206.176 106.488 206.424 106.936L205.548 107.5C205.34 107.188 205.084 106.96 204.78 106.816C204.484 106.664 204.164 106.588 203.82 106.588C203.404 106.588 203.032 106.68 202.704 106.864C202.376 107.048 202.116 107.308 201.924 107.644C201.732 107.972 201.636 108.364 201.636 108.82C201.636 109.276 201.732 109.672 201.924 110.008C202.116 110.344 202.376 110.604 202.704 110.788C203.032 110.972 203.404 111.064 203.82 111.064C204.164 111.064 204.484 110.992 204.78 110.848C205.084 110.696 205.34 110.464 205.548 110.152L206.424 110.704C206.176 111.144 205.824 111.484 205.368 111.724C204.92 111.956 204.408 112.072 203.832 112.072ZM210.791 112.072C210.247 112.072 209.767 111.972 209.351 111.772C208.943 111.572 208.623 111.268 208.391 110.86C208.167 110.444 208.055 109.924 208.055 109.3V105.64H209.207V109.168C209.207 109.792 209.355 110.26 209.651 110.572C209.955 110.884 210.379 111.04 210.923 111.04C211.323 111.04 211.671 110.96 211.967 110.8C212.263 110.632 212.491 110.392 212.651 110.08C212.811 109.76 212.891 109.376 212.891 108.928V105.64H214.043V112H212.951V110.284L213.131 110.74C212.923 111.164 212.611 111.492 212.195 111.724C211.779 111.956 211.311 112.072 210.791 112.072ZM216.437 112V105.64H217.541V107.368L217.433 106.936C217.609 106.496 217.905 106.16 218.321 105.928C218.737 105.696 219.249 105.58 219.857 105.58V106.696C219.809 106.688 219.761 106.684 219.713 106.684C219.673 106.684 219.633 106.684 219.593 106.684C218.977 106.684 218.489 106.868 218.129 107.236C217.769 107.604 217.589 108.136 217.589 108.832V112H216.437ZM221.476 112V105.64H222.628V112H221.476ZM222.052 104.416C221.828 104.416 221.64 104.344 221.488 104.2C221.344 104.056 221.272 103.88 221.272 103.672C221.272 103.456 221.344 103.276 221.488 103.132C221.64 102.988 221.828 102.916 222.052 102.916C222.276 102.916 222.46 102.988 222.604 103.132C222.756 103.268 222.832 103.44 222.832 103.648C222.832 103.864 222.76 104.048 222.616 104.2C222.472 104.344 222.284 104.416 222.052 104.416ZM227.212 112.072C226.572 112.072 226.076 111.9 225.724 111.556C225.372 111.212 225.196 110.72 225.196 110.08V104.248H226.348V110.032C226.348 110.376 226.432 110.64 226.6 110.824C226.776 111.008 227.024 111.1 227.344 111.1C227.704 111.1 228.004 111 228.244 110.8L228.604 111.628C228.428 111.78 228.216 111.892 227.968 111.964C227.728 112.036 227.476 112.072 227.212 112.072ZM224.116 106.588V105.64H228.172V106.588H224.116ZM230.356 114.4C230.052 114.4 229.756 114.348 229.468 114.244C229.18 114.148 228.932 114.004 228.724 113.812L229.216 112.948C229.376 113.1 229.552 113.216 229.744 113.296C229.936 113.376 230.14 113.416 230.356 113.416C230.636 113.416 230.868 113.344 231.052 113.2C231.236 113.056 231.408 112.8 231.568 112.432L231.964 111.556L232.084 111.412L234.58 105.64H235.708L232.624 112.636C232.44 113.084 232.232 113.436 232 113.692C231.776 113.948 231.528 114.128 231.256 114.232C230.984 114.344 230.684 114.4 230.356 114.4ZM231.868 112.204L228.964 105.64H230.164L232.636 111.304L231.868 112.204ZM43.816 130.072C43.176 130.072 42.608 129.932 42.112 129.652C41.616 129.372 41.224 128.988 40.936 128.5C40.648 128.004 40.504 127.444 40.504 126.82C40.504 126.188 40.648 125.628 40.936 125.14C41.224 124.652 41.616 124.272 42.112 124C42.608 123.72 43.176 123.58 43.816 123.58C44.448 123.58 45.012 123.72 45.508 124C46.012 124.272 46.404 124.652 46.684 125.14C46.972 125.62 47.116 126.18 47.116 126.82C47.116 127.452 46.972 128.012 46.684 128.5C46.404 128.988 46.012 129.372 45.508 129.652C45.012 129.932 44.448 130.072 43.816 130.072ZM43.816 129.064C44.224 129.064 44.588 128.972 44.908 128.788C45.236 128.604 45.492 128.344 45.676 128.008C45.86 127.664 45.952 127.268 45.952 126.82C45.952 126.364 45.86 125.972 45.676 125.644C45.492 125.308 45.236 125.048 44.908 124.864C44.588 124.68 44.224 124.588 43.816 124.588C43.408 124.588 43.044 124.68 42.724 124.864C42.404 125.048 42.148 125.308 41.956 125.644C41.764 125.972 41.668 126.364 41.668 126.82C41.668 127.268 41.764 127.664 41.956 128.008C42.148 128.344 42.404 128.604 42.724 128.788C43.044 128.972 43.408 129.064 43.816 129.064ZM49.0772 130V123.076C49.0772 122.452 49.2572 121.956 49.6172 121.588C49.9852 121.212 50.5052 121.024 51.1772 121.024C51.4252 121.024 51.6612 121.056 51.8852 121.12C52.1172 121.176 52.3132 121.268 52.4732 121.396L52.1252 122.272C52.0052 122.176 51.8692 122.104 51.7172 122.056C51.5652 122 51.4052 121.972 51.2372 121.972C50.9012 121.972 50.6452 122.068 50.4692 122.26C50.2932 122.444 50.2052 122.72 50.2052 123.088V123.94L50.2292 124.468V130H49.0772ZM47.9972 124.588V123.64H52.0532V124.588H47.9972ZM60.1583 123.58C60.6783 123.58 61.1343 123.68 61.5263 123.88C61.9263 124.08 62.2383 124.384 62.4623 124.792C62.6863 125.2 62.7983 125.716 62.7983 126.34V130H61.6463V126.472C61.6463 125.856 61.4943 125.392 61.1903 125.08C60.8943 124.768 60.4743 124.612 59.9303 124.612C59.5223 124.612 59.1663 124.692 58.8623 124.852C58.5583 125.012 58.3223 125.248 58.1543 125.56C57.9943 125.872 57.9143 126.26 57.9143 126.724V130H56.7623V121.096H57.9143V125.356L57.6863 124.9C57.8943 124.484 58.2143 124.16 58.6463 123.928C59.0783 123.696 59.5823 123.58 60.1583 123.58ZM67.9623 130.072C67.2823 130.072 66.6823 129.932 66.1623 129.652C65.6503 129.372 65.2503 128.988 64.9623 128.5C64.6823 128.012 64.5423 127.452 64.5423 126.82C64.5423 126.188 64.6783 125.628 64.9503 125.14C65.2303 124.652 65.6103 124.272 66.0903 124C66.5783 123.72 67.1263 123.58 67.7343 123.58C68.3503 123.58 68.8943 123.716 69.3663 123.988C69.8383 124.26 70.2063 124.644 70.4703 125.14C70.7423 125.628 70.8783 126.2 70.8783 126.856C70.8783 126.904 70.8743 126.96 70.8663 127.024C70.8663 127.088 70.8623 127.148 70.8543 127.204H65.4423V126.376H70.2543L69.7863 126.664C69.7943 126.256 69.7103 125.892 69.5343 125.572C69.3583 125.252 69.1143 125.004 68.8023 124.828C68.4983 124.644 68.1423 124.552 67.7343 124.552C67.3343 124.552 66.9783 124.644 66.6663 124.828C66.3543 125.004 66.1103 125.256 65.9343 125.584C65.7583 125.904 65.6703 126.272 65.6703 126.688V126.88C65.6703 127.304 65.7663 127.684 65.9583 128.02C66.1583 128.348 66.4343 128.604 66.7863 128.788C67.1383 128.972 67.5423 129.064 67.9983 129.064C68.3743 129.064 68.7143 129 69.0183 128.872C69.3303 128.744 69.6023 128.552 69.8343 128.296L70.4703 129.04C70.1823 129.376 69.8223 129.632 69.3903 129.808C68.9663 129.984 68.4903 130.072 67.9623 130.072ZM76.4502 130V128.656L76.3902 128.404V126.112C76.3902 125.624 76.2462 125.248 75.9582 124.984C75.6782 124.712 75.2542 124.576 74.6862 124.576C74.3102 124.576 73.9422 124.64 73.5822 124.768C73.2222 124.888 72.9182 125.052 72.6702 125.26L72.1902 124.396C72.5182 124.132 72.9102 123.932 73.3662 123.796C73.8302 123.652 74.3142 123.58 74.8182 123.58C75.6902 123.58 76.3622 123.792 76.8342 124.216C77.3062 124.64 77.5422 125.288 77.5422 126.16V130H76.4502ZM74.3622 130.072C73.8902 130.072 73.4742 129.992 73.1142 129.832C72.7622 129.672 72.4902 129.452 72.2982 129.172C72.1062 128.884 72.0102 128.56 72.0102 128.2C72.0102 127.856 72.0902 127.544 72.2502 127.264C72.4182 126.984 72.6862 126.76 73.0542 126.592C73.4302 126.424 73.9342 126.34 74.5662 126.34H76.5822V127.168H74.6142C74.0382 127.168 73.6502 127.264 73.4502 127.456C73.2502 127.648 73.1502 127.88 73.1502 128.152C73.1502 128.464 73.2742 128.716 73.5222 128.908C73.7702 129.092 74.1142 129.184 74.5542 129.184C74.9862 129.184 75.3622 129.088 75.6822 128.896C76.0102 128.704 76.2462 128.424 76.3902 128.056L76.6182 128.848C76.4662 129.224 76.1982 129.524 75.8142 129.748C75.4302 129.964 74.9462 130.072 74.3622 130.072ZM79.874 130V121.096H81.026V130H79.874ZM85.7737 130.072C85.1337 130.072 84.6377 129.9 84.2857 129.556C83.9337 129.212 83.7577 128.72 83.7577 128.08V122.248H84.9097V128.032C84.9097 128.376 84.9937 128.64 85.1617 128.824C85.3377 129.008 85.5857 129.1 85.9057 129.1C86.2657 129.1 86.5657 129 86.8057 128.8L87.1657 129.628C86.9897 129.78 86.7777 129.892 86.5297 129.964C86.2897 130.036 86.0377 130.072 85.7737 130.072ZM82.6777 124.588V123.64H86.7337V124.588H82.6777ZM92.1544 123.58C92.6744 123.58 93.1304 123.68 93.5224 123.88C93.9224 124.08 94.2344 124.384 94.4584 124.792C94.6824 125.2 94.7944 125.716 94.7944 126.34V130H93.6424V126.472C93.6424 125.856 93.4904 125.392 93.1864 125.08C92.8904 124.768 92.4704 124.612 91.9264 124.612C91.5184 124.612 91.1624 124.692 90.8584 124.852C90.5544 125.012 90.3184 125.248 90.1504 125.56C89.9904 125.872 89.9104 126.26 89.9104 126.724V130H88.7584V121.096H89.9104V125.356L89.6824 124.9C89.8904 124.484 90.2104 124.16 90.6424 123.928C91.0744 123.696 91.5784 123.58 92.1544 123.58ZM100.549 130V123.64H101.701V130H100.549ZM101.125 122.416C100.901 122.416 100.713 122.344 100.561 122.2C100.417 122.056 100.345 121.88 100.345 121.672C100.345 121.456 100.417 121.276 100.561 121.132C100.713 120.988 100.901 120.916 101.125 120.916C101.349 120.916 101.533 120.988 101.677 121.132C101.829 121.268 101.905 121.44 101.905 121.648C101.905 121.864 101.833 122.048 101.689 122.2C101.545 122.344 101.357 122.416 101.125 122.416ZM107.497 123.58C108.017 123.58 108.473 123.68 108.865 123.88C109.265 124.08 109.577 124.384 109.801 124.792C110.025 125.2 110.137 125.716 110.137 126.34V130H108.985V126.472C108.985 125.856 108.833 125.392 108.529 125.08C108.233 124.768 107.813 124.612 107.269 124.612C106.861 124.612 106.505 124.692 106.201 124.852C105.897 125.012 105.661 125.248 105.493 125.56C105.333 125.872 105.253 126.26 105.253 126.724V130H104.101V123.64H105.205V125.356L105.025 124.9C105.233 124.484 105.553 124.16 105.985 123.928C106.417 123.696 106.921 123.58 107.497 123.58ZM112.637 130V123.076C112.637 122.452 112.817 121.956 113.177 121.588C113.545 121.212 114.065 121.024 114.737 121.024C114.985 121.024 115.221 121.056 115.445 121.12C115.677 121.176 115.873 121.268 116.033 121.396L115.685 122.272C115.565 122.176 115.429 122.104 115.277 122.056C115.125 122 114.965 121.972 114.797 121.972C114.461 121.972 114.205 122.068 114.029 122.26C113.853 122.444 113.765 122.72 113.765 123.088V123.94L113.789 124.468V130H112.637ZM111.557 124.588V123.64H115.613V124.588H111.557ZM119.529 130.072C118.889 130.072 118.321 129.932 117.825 129.652C117.329 129.372 116.937 128.988 116.649 128.5C116.361 128.004 116.217 127.444 116.217 126.82C116.217 126.188 116.361 125.628 116.649 125.14C116.937 124.652 117.329 124.272 117.825 124C118.321 123.72 118.889 123.58 119.529 123.58C120.161 123.58 120.725 123.72 121.221 124C121.725 124.272 122.117 124.652 122.397 125.14C122.685 125.62 122.829 126.18 122.829 126.82C122.829 127.452 122.685 128.012 122.397 128.5C122.117 128.988 121.725 129.372 121.221 129.652C120.725 129.932 120.161 130.072 119.529 130.072ZM119.529 129.064C119.937 129.064 120.301 128.972 120.621 128.788C120.949 128.604 121.205 128.344 121.389 128.008C121.573 127.664 121.665 127.268 121.665 126.82C121.665 126.364 121.573 125.972 121.389 125.644C121.205 125.308 120.949 125.048 120.621 124.864C120.301 124.68 119.937 124.588 119.529 124.588C119.121 124.588 118.757 124.68 118.437 124.864C118.117 125.048 117.861 125.308 117.669 125.644C117.477 125.972 117.381 126.364 117.381 126.82C117.381 127.268 117.477 127.664 117.669 128.008C117.861 128.344 118.117 128.604 118.437 128.788C118.757 128.972 119.121 129.064 119.529 129.064ZM124.622 130V123.64H125.726V125.368L125.618 124.936C125.794 124.496 126.09 124.16 126.506 123.928C126.922 123.696 127.434 123.58 128.042 123.58V124.696C127.994 124.688 127.946 124.684 127.898 124.684C127.858 124.684 127.818 124.684 127.778 124.684C127.162 124.684 126.674 124.868 126.314 125.236C125.954 125.604 125.774 126.136 125.774 126.832V130H124.622ZM137.618 123.58C138.13 123.58 138.582 123.68 138.974 123.88C139.366 124.08 139.67 124.384 139.886 124.792C140.11 125.2 140.222 125.716 140.222 126.34V130H139.07V126.472C139.07 125.856 138.926 125.392 138.638 125.08C138.35 124.768 137.946 124.612 137.426 124.612C137.042 124.612 136.706 124.692 136.418 124.852C136.13 125.012 135.906 125.248 135.746 125.56C135.594 125.872 135.518 126.26 135.518 126.724V130H134.366V126.472C134.366 125.856 134.222 125.392 133.934 125.08C133.654 124.768 133.25 124.612 132.722 124.612C132.346 124.612 132.014 124.692 131.726 124.852C131.438 125.012 131.214 125.248 131.054 125.56C130.894 125.872 130.814 126.26 130.814 126.724V130H129.662V123.64H130.766V125.332L130.586 124.9C130.786 124.484 131.094 124.16 131.51 123.928C131.926 123.696 132.41 123.58 132.962 123.58C133.57 123.58 134.094 123.732 134.534 124.036C134.974 124.332 135.262 124.784 135.398 125.392L134.93 125.2C135.122 124.712 135.458 124.32 135.938 124.024C136.418 123.728 136.978 123.58 137.618 123.58ZM146.49 130V128.656L146.43 128.404V126.112C146.43 125.624 146.286 125.248 145.998 124.984C145.718 124.712 145.294 124.576 144.726 124.576C144.35 124.576 143.982 124.64 143.622 124.768C143.262 124.888 142.958 125.052 142.71 125.26L142.23 124.396C142.558 124.132 142.95 123.932 143.406 123.796C143.87 123.652 144.354 123.58 144.858 123.58C145.73 123.58 146.402 123.792 146.874 124.216C147.346 124.64 147.582 125.288 147.582 126.16V130H146.49ZM144.402 130.072C143.93 130.072 143.514 129.992 143.154 129.832C142.802 129.672 142.53 129.452 142.338 129.172C142.146 128.884 142.05 128.56 142.05 128.2C142.05 127.856 142.13 127.544 142.29 127.264C142.458 126.984 142.726 126.76 143.094 126.592C143.47 126.424 143.974 126.34 144.606 126.34H146.622V127.168H144.654C144.078 127.168 143.69 127.264 143.49 127.456C143.29 127.648 143.19 127.88 143.19 128.152C143.19 128.464 143.314 128.716 143.562 128.908C143.81 129.092 144.154 129.184 144.594 129.184C145.026 129.184 145.402 129.088 145.722 128.896C146.05 128.704 146.286 128.424 146.43 128.056L146.658 128.848C146.506 129.224 146.238 129.524 145.854 129.748C145.47 129.964 144.986 130.072 144.402 130.072ZM152.098 130.072C151.458 130.072 150.962 129.9 150.61 129.556C150.258 129.212 150.082 128.72 150.082 128.08V122.248H151.234V128.032C151.234 128.376 151.318 128.64 151.486 128.824C151.662 129.008 151.91 129.1 152.23 129.1C152.59 129.1 152.89 129 153.13 128.8L153.49 129.628C153.314 129.78 153.102 129.892 152.854 129.964C152.614 130.036 152.362 130.072 152.098 130.072ZM149.002 124.588V123.64H153.058V124.588H149.002ZM155.083 130V123.64H156.235V130H155.083ZM155.659 122.416C155.435 122.416 155.247 122.344 155.095 122.2C154.951 122.056 154.879 121.88 154.879 121.672C154.879 121.456 154.951 121.276 155.095 121.132C155.247 120.988 155.435 120.916 155.659 120.916C155.883 120.916 156.067 120.988 156.211 121.132C156.363 121.268 156.439 121.44 156.439 121.648C156.439 121.864 156.367 122.048 156.223 122.2C156.079 122.344 155.891 122.416 155.659 122.416ZM161.358 130.072C160.718 130.072 160.15 129.932 159.654 129.652C159.158 129.372 158.766 128.988 158.478 128.5C158.19 128.004 158.046 127.444 158.046 126.82C158.046 126.188 158.19 125.628 158.478 125.14C158.766 124.652 159.158 124.272 159.654 124C160.15 123.72 160.718 123.58 161.358 123.58C161.99 123.58 162.554 123.72 163.05 124C163.554 124.272 163.946 124.652 164.226 125.14C164.514 125.62 164.658 126.18 164.658 126.82C164.658 127.452 164.514 128.012 164.226 128.5C163.946 128.988 163.554 129.372 163.05 129.652C162.554 129.932 161.99 130.072 161.358 130.072ZM161.358 129.064C161.766 129.064 162.13 128.972 162.45 128.788C162.778 128.604 163.034 128.344 163.218 128.008C163.402 127.664 163.494 127.268 163.494 126.82C163.494 126.364 163.402 125.972 163.218 125.644C163.034 125.308 162.778 125.048 162.45 124.864C162.13 124.68 161.766 124.588 161.358 124.588C160.95 124.588 160.586 124.68 160.266 124.864C159.946 125.048 159.69 125.308 159.498 125.644C159.306 125.972 159.21 126.364 159.21 126.82C159.21 127.268 159.306 127.664 159.498 128.008C159.69 128.344 159.946 128.604 160.266 128.788C160.586 128.972 160.95 129.064 161.358 129.064ZM169.847 123.58C170.367 123.58 170.823 123.68 171.215 123.88C171.615 124.08 171.927 124.384 172.151 124.792C172.375 125.2 172.487 125.716 172.487 126.34V130H171.335V126.472C171.335 125.856 171.183 125.392 170.879 125.08C170.583 124.768 170.163 124.612 169.619 124.612C169.211 124.612 168.855 124.692 168.551 124.852C168.247 125.012 168.011 125.248 167.843 125.56C167.683 125.872 167.603 126.26 167.603 126.724V130H166.451V123.64H167.555V125.356L167.375 124.9C167.583 124.484 167.903 124.16 168.335 123.928C168.767 123.696 169.271 123.58 169.847 123.58ZM181.614 130.072C181.086 130.072 180.602 129.952 180.162 129.712C179.73 129.464 179.382 129.1 179.118 128.62C178.862 128.14 178.734 127.54 178.734 126.82C178.734 126.1 178.858 125.5 179.106 125.02C179.362 124.54 179.706 124.18 180.138 123.94C180.578 123.7 181.07 123.58 181.614 123.58C182.238 123.58 182.79 123.716 183.27 123.988C183.75 124.26 184.13 124.64 184.41 125.128C184.69 125.608 184.83 126.172 184.83 126.82C184.83 127.468 184.69 128.036 184.41 128.524C184.13 129.012 183.75 129.392 183.27 129.664C182.79 129.936 182.238 130.072 181.614 130.072ZM178.242 132.328V123.64H179.346V125.356L179.274 126.832L179.394 128.308V132.328H178.242ZM181.518 129.064C181.926 129.064 182.29 128.972 182.61 128.788C182.938 128.604 183.194 128.344 183.378 128.008C183.57 127.664 183.666 127.268 183.666 126.82C183.666 126.364 183.57 125.972 183.378 125.644C183.194 125.308 182.938 125.048 182.61 124.864C182.29 124.68 181.926 124.588 181.518 124.588C181.118 124.588 180.754 124.68 180.426 124.864C180.106 125.048 179.85 125.308 179.658 125.644C179.474 125.972 179.382 126.364 179.382 126.82C179.382 127.268 179.474 127.664 179.658 128.008C179.85 128.344 180.106 128.604 180.426 128.788C180.754 128.972 181.118 129.064 181.518 129.064ZM186.622 130V123.64H187.726V125.368L187.618 124.936C187.794 124.496 188.09 124.16 188.506 123.928C188.922 123.696 189.434 123.58 190.042 123.58V124.696C189.994 124.688 189.946 124.684 189.898 124.684C189.858 124.684 189.818 124.684 189.778 124.684C189.162 124.684 188.674 124.868 188.314 125.236C187.954 125.604 187.774 126.136 187.774 126.832V130H186.622ZM195.141 130V128.656L195.081 128.404V126.112C195.081 125.624 194.937 125.248 194.649 124.984C194.369 124.712 193.945 124.576 193.377 124.576C193.001 124.576 192.633 124.64 192.273 124.768C191.913 124.888 191.609 125.052 191.361 125.26L190.881 124.396C191.209 124.132 191.601 123.932 192.057 123.796C192.521 123.652 193.005 123.58 193.509 123.58C194.381 123.58 195.053 123.792 195.525 124.216C195.997 124.64 196.233 125.288 196.233 126.16V130H195.141ZM193.053 130.072C192.581 130.072 192.165 129.992 191.805 129.832C191.453 129.672 191.181 129.452 190.989 129.172C190.797 128.884 190.701 128.56 190.701 128.2C190.701 127.856 190.781 127.544 190.941 127.264C191.109 126.984 191.377 126.76 191.745 126.592C192.121 126.424 192.625 126.34 193.257 126.34H195.273V127.168H193.305C192.729 127.168 192.341 127.264 192.141 127.456C191.941 127.648 191.841 127.88 191.841 128.152C191.841 128.464 191.965 128.716 192.213 128.908C192.461 129.092 192.805 129.184 193.245 129.184C193.677 129.184 194.053 129.088 194.373 128.896C194.701 128.704 194.937 128.424 195.081 128.056L195.309 128.848C195.157 129.224 194.889 129.524 194.505 129.748C194.121 129.964 193.637 130.072 193.053 130.072ZM201.337 130.072C200.689 130.072 200.109 129.932 199.597 129.652C199.093 129.372 198.697 128.988 198.409 128.5C198.121 128.012 197.977 127.452 197.977 126.82C197.977 126.188 198.121 125.628 198.409 125.14C198.697 124.652 199.093 124.272 199.597 124C200.109 123.72 200.689 123.58 201.337 123.58C201.913 123.58 202.425 123.696 202.873 123.928C203.329 124.152 203.681 124.488 203.929 124.936L203.053 125.5C202.845 125.188 202.589 124.96 202.285 124.816C201.989 124.664 201.669 124.588 201.325 124.588C200.909 124.588 200.537 124.68 200.209 124.864C199.881 125.048 199.621 125.308 199.429 125.644C199.237 125.972 199.141 126.364 199.141 126.82C199.141 127.276 199.237 127.672 199.429 128.008C199.621 128.344 199.881 128.604 200.209 128.788C200.537 128.972 200.909 129.064 201.325 129.064C201.669 129.064 201.989 128.992 202.285 128.848C202.589 128.696 202.845 128.464 203.053 128.152L203.929 128.704C203.681 129.144 203.329 129.484 202.873 129.724C202.425 129.956 201.913 130.072 201.337 130.072ZM207.886 130.072C207.246 130.072 206.75 129.9 206.398 129.556C206.046 129.212 205.87 128.72 205.87 128.08V122.248H207.022V128.032C207.022 128.376 207.106 128.64 207.274 128.824C207.45 129.008 207.698 129.1 208.018 129.1C208.378 129.1 208.678 129 208.918 128.8L209.278 129.628C209.102 129.78 208.89 129.892 208.642 129.964C208.402 130.036 208.15 130.072 207.886 130.072ZM204.79 124.588V123.64H208.846V124.588H204.79ZM210.871 130V123.64H212.023V130H210.871ZM211.447 122.416C211.223 122.416 211.035 122.344 210.883 122.2C210.739 122.056 210.667 121.88 210.667 121.672C210.667 121.456 210.739 121.276 210.883 121.132C211.035 120.988 211.223 120.916 211.447 120.916C211.671 120.916 211.855 120.988 211.999 121.132C212.151 121.268 212.227 121.44 212.227 121.648C212.227 121.864 212.155 122.048 212.011 122.2C211.867 122.344 211.679 122.416 211.447 122.416ZM217.194 130.072C216.546 130.072 215.966 129.932 215.454 129.652C214.95 129.372 214.554 128.988 214.266 128.5C213.978 128.012 213.834 127.452 213.834 126.82C213.834 126.188 213.978 125.628 214.266 125.14C214.554 124.652 214.95 124.272 215.454 124C215.966 123.72 216.546 123.58 217.194 123.58C217.77 123.58 218.282 123.696 218.73 123.928C219.186 124.152 219.538 124.488 219.786 124.936L218.91 125.5C218.702 125.188 218.446 124.96 218.142 124.816C217.846 124.664 217.526 124.588 217.182 124.588C216.766 124.588 216.394 124.68 216.066 124.864C215.738 125.048 215.478 125.308 215.286 125.644C215.094 125.972 214.998 126.364 214.998 126.82C214.998 127.276 215.094 127.672 215.286 128.008C215.478 128.344 215.738 128.604 216.066 128.788C216.394 128.972 216.766 129.064 217.182 129.064C217.526 129.064 217.846 128.992 218.142 128.848C218.446 128.696 218.702 128.464 218.91 128.152L219.786 128.704C219.538 129.144 219.186 129.484 218.73 129.724C218.282 129.956 217.77 130.072 217.194 130.072ZM224.216 130.072C223.536 130.072 222.936 129.932 222.416 129.652C221.904 129.372 221.504 128.988 221.216 128.5C220.936 128.012 220.796 127.452 220.796 126.82C220.796 126.188 220.932 125.628 221.204 125.14C221.484 124.652 221.864 124.272 222.344 124C222.832 123.72 223.38 123.58 223.988 123.58C224.604 123.58 225.148 123.716 225.62 123.988C226.092 124.26 226.46 124.644 226.724 125.14C226.996 125.628 227.132 126.2 227.132 126.856C227.132 126.904 227.128 126.96 227.12 127.024C227.12 127.088 227.116 127.148 227.108 127.204H221.696V126.376H226.508L226.04 126.664C226.048 126.256 225.964 125.892 225.788 125.572C225.612 125.252 225.368 125.004 225.056 124.828C224.752 124.644 224.396 124.552 223.988 124.552C223.588 124.552 223.232 124.644 222.92 124.828C222.608 125.004 222.364 125.256 222.188 125.584C222.012 125.904 221.924 126.272 221.924 126.688V126.88C221.924 127.304 222.02 127.684 222.212 128.02C222.412 128.348 222.688 128.604 223.04 128.788C223.392 128.972 223.796 129.064 224.252 129.064C224.628 129.064 224.968 129 225.272 128.872C225.584 128.744 225.856 128.552 226.088 128.296L226.724 129.04C226.436 129.376 226.076 129.632 225.644 129.808C225.22 129.984 224.744 130.072 224.216 130.072ZM230.756 130.072C230.228 130.072 229.724 130 229.244 129.856C228.772 129.712 228.4 129.536 228.128 129.328L228.608 128.416C228.88 128.6 229.216 128.756 229.616 128.884C230.016 129.012 230.424 129.076 230.84 129.076C231.376 129.076 231.76 129 231.992 128.848C232.232 128.696 232.352 128.484 232.352 128.212C232.352 128.012 232.28 127.856 232.136 127.744C231.992 127.632 231.8 127.548 231.56 127.492C231.328 127.436 231.068 127.388 230.78 127.348C230.492 127.3 230.204 127.244 229.916 127.18C229.628 127.108 229.364 127.012 229.124 126.892C228.884 126.764 228.692 126.592 228.548 126.376C228.404 126.152 228.332 125.856 228.332 125.488C228.332 125.104 228.44 124.768 228.656 124.48C228.872 124.192 229.176 123.972 229.568 123.82C229.968 123.66 230.44 123.58 230.984 123.58C231.4 123.58 231.82 123.632 232.244 123.736C232.676 123.832 233.028 123.972 233.3 124.156L232.808 125.068C232.52 124.876 232.22 124.744 231.908 124.672C231.596 124.6 231.284 124.564 230.972 124.564C230.468 124.564 230.092 124.648 229.844 124.816C229.596 124.976 229.472 125.184 229.472 125.44C229.472 125.656 229.544 125.824 229.688 125.944C229.84 126.056 230.032 126.144 230.264 126.208C230.504 126.272 230.768 126.328 231.056 126.376C231.344 126.416 231.632 126.472 231.92 126.544C232.208 126.608 232.468 126.7 232.7 126.82C232.94 126.94 233.132 127.108 233.276 127.324C233.428 127.54 233.504 127.828 233.504 128.188C233.504 128.572 233.392 128.904 233.168 129.184C232.944 129.464 232.628 129.684 232.22 129.844C231.812 129.996 231.324 130.072 230.756 130.072Z" fill="#19191F"/>
<path d="M248 54.5C248 53.0166 247.56 51.5666 246.736 50.3332C245.912 49.0999 244.741 48.1386 243.37 47.5709C242 47.0032 240.492 46.8547 239.037 47.1441C237.582 47.4335 236.246 48.1478 235.197 49.1967C234.148 50.2456 233.434 51.582 233.144 53.0368C232.855 54.4917 233.003 55.9997 233.571 57.3701C234.139 58.7406 235.1 59.9119 236.333 60.736C237.567 61.5601 239.017 62 240.5 62C242.488 61.9978 244.395 61.2069 245.801 59.8009C247.207 58.3948 247.998 56.4884 248 54.5ZM239.97 58.0303C239.9 57.9606 239.845 57.878 239.807 57.787C239.769 57.696 239.75 57.5985 239.75 57.5C239.75 57.4015 239.769 57.304 239.807 57.213C239.845 57.122 239.9 57.0393 239.97 56.9697L241.689 55.25H237.5C237.301 55.25 237.11 55.171 236.97 55.0303C236.829 54.8897 236.75 54.6989 236.75 54.5C236.75 54.3011 236.829 54.1103 236.97 53.9697C237.11 53.829 237.301 53.75 237.5 53.75H241.689L239.97 52.0303C239.831 51.8892 239.754 51.6991 239.755 51.5014C239.756 51.3037 239.835 51.1143 239.975 50.9745C240.114 50.8347 240.304 50.7558 240.501 50.7549C240.699 50.754 240.889 50.8312 241.03 50.9698L244.03 53.9695C244.17 54.1105 244.249 54.3012 244.249 54.5C244.249 54.6988 244.17 54.8895 244.03 55.0305L241.03 58.0303C240.961 58.0999 240.878 58.1552 240.787 58.1929C240.696 58.2306 240.598 58.25 240.5 58.25C240.402 58.25 240.304 58.2306 240.213 58.1929C240.122 58.1552 240.039 58.0999 239.97 58.0303Z" fill="#5B588F"/>
<defs>
<filter id="filter0_dd_4190_12450" x="0" y="0" width="290" height="182" filterUnits="userSpaceOnUse" color-interpolation-filters="sRGB">
<feFlood flood-opacity="0" result="BackgroundImageFix"/>
<feColorMatrix in="SourceAlpha" type="matrix" values="0 0 0 0 0 0 0 0 0 0 0 0 0 0 0 0 0 0 127 0" result="hardAlpha"/>
<feMorphology radius="2" operator="dilate" in="SourceAlpha" result="effect1_dropShadow_4190_12450"/>
<feOffset dx="4" dy="4"/>
<feGaussianBlur stdDeviation="8"/>
<feComposite in2="hardAlpha" operator="out"/>
<feColorMatrix type="matrix" values="0 0 0 0 1 0 0 0 0 1 0 0 0 0 1 0 0 0 0.25 0"/>
<feBlend mode="normal" in2="BackgroundImageFix" result="effect1_dropShadow_4190_12450"/>
<feColorMatrix in="SourceAlpha" type="matrix" values="0 0 0 0 0 0 0 0 0 0 0 0 0 0 0 0 0 0 127 0" result="hardAlpha"/>
<feOffset dx="-4" dy="-4"/>
<feGaussianBlur stdDeviation="8"/>
<feComposite in2="hardAlpha" operator="out"/>
<feColorMatrix type="matrix" values="0 0 0 0 1 0 0 0 0 1 0 0 0 0 1 0 0 0 0.25 0"/>
<feBlend mode="normal" in2="effect1_dropShadow_4190_12450" result="effect2_dropShadow_4190_12450"/>
<feBlend mode="normal" in="SourceGraphic" in2="effect2_dropShadow_4190_12450" result="shape"/>
</filter>
<clipPath id="clip0_4190_12450">
<rect width="30" height="30" fill="white" transform="translate(40 40)"/>
</clipPath>
</defs>
</svg>
