<svg width="290" height="132" viewBox="0 0 290 132" fill="none" xmlns="http://www.w3.org/2000/svg">
<g filter="url(#filter0_dd_4201_12443)">
<rect x="20" y="20" width="248" height="90" rx="10" fill="white"/>
</g>
<path d="M70 65C70 73.2842 63.2842 80 55 80C46.7158 80 40 73.2842 40 65C40 65.0035 55 50.0017 55 50C63.2842 50 70 56.7158 70 65Z" fill="#0052B4"/>
<path d="M54.96 64.9991H55.0001C55.0001 64.9855 55.0001 64.9725 55.0001 64.959C54.9867 64.9724 54.9734 64.9858 54.96 64.9991Z" fill="#F0F0F0"/>
<path d="M55 57.8261C55 55.1867 55 53.4572 55 50H54.9975C46.7144 50.0013 40 56.7165 40 64.9999H47.8261V60.593L52.233 64.9999H54.9599C54.9733 64.9866 54.9867 64.9732 55.0001 64.9598C55.0001 63.9492 55.0001 63.0475 55.0001 62.2331L50.593 57.8261H55Z" fill="#F0F0F0"/>
<path d="M47.5888 51.957C45.2428 53.2929 43.2924 55.2433 41.9565 57.5893V65.0005H45.8696V55.8702V55.8701H55C55 54.6359 55 53.4602 55 51.957H47.5888Z" fill="#D80027"/>
<path d="M55 63.1554L49.6708 57.8262H47.8262C47.8262 57.8261 47.8262 57.8262 47.8262 57.8262L55 65H55C55 65 55 63.7282 55 63.1554Z" fill="#D80027"/>
<path d="M49.0466 67.6094L49.8699 69.3307L51.7289 68.9011L50.8964 70.618L52.3913 71.8035L50.53 72.223L50.5352 74.1311L49.0466 72.9374L47.5581 74.1311L47.5633 72.223L45.7019 71.8035L47.1969 70.618L46.3643 68.9011L48.2234 69.3307L49.0466 67.6094Z" fill="#F0F0F0"/>
<path d="M62.458 70.8691L62.8696 71.7298L63.7991 71.515L63.3828 72.3734L64.1304 72.9662L63.1996 73.176L63.2022 74.13L62.458 73.5331L61.7137 74.13L61.7163 73.176L60.7856 72.9662L61.5331 72.3734L61.1169 71.515L62.0463 71.7298L62.458 70.8691Z" fill="#F0F0F0"/>
<path d="M58.6289 61.7383L59.0405 62.599L59.97 62.3841L59.5538 63.2426L60.3013 63.8354L59.3706 64.0451L59.3731 64.9991L58.6289 64.4022L57.8847 64.9991L57.8872 64.0451L56.9565 63.8354L57.704 63.2426L57.2878 62.3841L58.2173 62.599L58.6289 61.7383Z" fill="#F0F0F0"/>
<path d="M62.458 56.5215L62.8696 57.3822L63.7991 57.1674L63.3829 58.0258L64.1303 58.6186L63.1996 58.8284L63.2022 59.7824L62.458 59.1855L61.7137 59.7824L61.7163 58.8284L60.7856 58.6186L61.5331 58.0258L61.1169 57.1674L62.0463 57.3822L62.458 56.5215Z" fill="#F0F0F0"/>
<path d="M65.8028 60.4336L66.2143 61.2943L67.1438 61.0794L66.7276 61.9379L67.4751 62.5307L66.5444 62.7405L66.547 63.6945L65.8028 63.0976L65.0585 63.6945L65.061 62.7405L64.1304 62.5307L64.8779 61.9379L64.4616 61.0794L65.3911 61.2943L65.8028 60.4336Z" fill="#F0F0F0"/>
<path d="M63.4111 65L63.7348 65.9964H64.7826L63.9349 66.6123L64.2587 67.6087L63.4111 66.9929L62.5634 67.6087L62.8872 66.6123L62.0396 65.9964H63.0873L63.4111 65Z" fill="#F0F0F0"/>
<path d="M92.616 67.9H88.066L87.198 70H84.874L89.242 60.2H91.482L95.864 70H93.484L92.616 67.9ZM91.902 66.178L90.348 62.426L88.794 66.178H91.902ZM104.378 62.468V70H102.306V69.104C102.017 69.4307 101.671 69.6827 101.27 69.86C100.869 70.028 100.435 70.112 99.968 70.112C98.9787 70.112 98.1947 69.8273 97.616 69.258C97.0374 68.6887 96.748 67.844 96.748 66.724V62.468H98.932V66.402C98.932 67.6153 99.4407 68.222 100.458 68.222C100.981 68.222 101.401 68.054 101.718 67.718C102.035 67.3727 102.194 66.864 102.194 66.192V62.468H104.378ZM109.135 70.112C108.51 70.112 107.899 70.0373 107.301 69.888C106.704 69.7293 106.228 69.5333 105.873 69.3L106.601 67.732C106.937 67.9467 107.343 68.124 107.819 68.264C108.295 68.3947 108.762 68.46 109.219 68.46C110.143 68.46 110.605 68.2313 110.605 67.774C110.605 67.5593 110.479 67.4053 110.227 67.312C109.975 67.2187 109.588 67.1393 109.065 67.074C108.449 66.9807 107.941 66.8733 107.539 66.752C107.138 66.6307 106.788 66.416 106.489 66.108C106.2 65.8 106.055 65.3613 106.055 64.792C106.055 64.316 106.191 63.896 106.461 63.532C106.741 63.1587 107.143 62.8693 107.665 62.664C108.197 62.4587 108.823 62.356 109.541 62.356C110.073 62.356 110.601 62.4167 111.123 62.538C111.655 62.65 112.094 62.8087 112.439 63.014L111.711 64.568C111.049 64.1947 110.325 64.008 109.541 64.008C109.075 64.008 108.725 64.0733 108.491 64.204C108.258 64.3347 108.141 64.5027 108.141 64.708C108.141 64.9413 108.267 65.1047 108.519 65.198C108.771 65.2913 109.173 65.38 109.723 65.464C110.339 65.5667 110.843 65.6787 111.235 65.8C111.627 65.912 111.968 66.122 112.257 66.43C112.547 66.738 112.691 67.1673 112.691 67.718C112.691 68.1847 112.551 68.6 112.271 68.964C111.991 69.328 111.581 69.6127 111.039 69.818C110.507 70.014 109.873 70.112 109.135 70.112ZM119.097 69.636C118.882 69.7947 118.616 69.916 118.299 70C117.991 70.0747 117.664 70.112 117.319 70.112C116.423 70.112 115.728 69.8833 115.233 69.426C114.748 68.9687 114.505 68.2967 114.505 67.41V64.316H113.343V62.636H114.505V60.802H116.689V62.636H118.565V64.316H116.689V67.382C116.689 67.6993 116.768 67.9467 116.927 68.124C117.095 68.292 117.328 68.376 117.627 68.376C117.972 68.376 118.266 68.2827 118.509 68.096L119.097 69.636ZM122.609 63.462C122.87 63.098 123.22 62.8227 123.659 62.636C124.107 62.4493 124.62 62.356 125.199 62.356V64.372C124.956 64.3533 124.793 64.344 124.709 64.344C124.084 64.344 123.594 64.5213 123.239 64.876C122.884 65.2213 122.707 65.744 122.707 66.444V70H120.523V62.468H122.609V63.462ZM129.694 62.356C130.861 62.356 131.757 62.636 132.382 63.196C133.008 63.7467 133.32 64.582 133.32 65.702V70H131.276V69.062C130.866 69.762 130.1 70.112 128.98 70.112C128.402 70.112 127.898 70.014 127.468 69.818C127.048 69.622 126.726 69.3513 126.502 69.006C126.278 68.6607 126.166 68.2687 126.166 67.83C126.166 67.13 126.428 66.5793 126.95 66.178C127.482 65.7767 128.299 65.576 129.4 65.576H131.136C131.136 65.1 130.992 64.736 130.702 64.484C130.413 64.2227 129.979 64.092 129.4 64.092C128.999 64.092 128.602 64.1573 128.21 64.288C127.828 64.4093 127.501 64.5773 127.23 64.792L126.446 63.266C126.857 62.9767 127.347 62.7527 127.916 62.594C128.495 62.4353 129.088 62.356 129.694 62.356ZM129.526 68.642C129.9 68.642 130.231 68.558 130.52 68.39C130.81 68.2127 131.015 67.956 131.136 67.62V66.85H129.638C128.742 66.85 128.294 67.144 128.294 67.732C128.294 68.012 128.402 68.236 128.616 68.404C128.84 68.5627 129.144 68.642 129.526 68.642ZM135.497 59.612H137.681V70H135.497V59.612ZM139.908 62.468H142.092V70H139.908V62.468ZM141 61.418C140.599 61.418 140.272 61.3013 140.02 61.068C139.768 60.8347 139.642 60.5453 139.642 60.2C139.642 59.8547 139.768 59.5653 140.02 59.332C140.272 59.0987 140.599 58.982 141 58.982C141.401 58.982 141.728 59.094 141.98 59.318C142.232 59.542 142.358 59.822 142.358 60.158C142.358 60.522 142.232 60.8253 141.98 61.068C141.728 61.3013 141.401 61.418 141 61.418ZM147.357 62.356C148.524 62.356 149.42 62.636 150.045 63.196C150.67 63.7467 150.983 64.582 150.983 65.702V70H148.939V69.062C148.528 69.762 147.763 70.112 146.643 70.112C146.064 70.112 145.56 70.014 145.131 69.818C144.711 69.622 144.389 69.3513 144.165 69.006C143.941 68.6607 143.829 68.2687 143.829 67.83C143.829 67.13 144.09 66.5793 144.613 66.178C145.145 65.7767 145.962 65.576 147.063 65.576H148.799C148.799 65.1 148.654 64.736 148.365 64.484C148.076 64.2227 147.642 64.092 147.063 64.092C146.662 64.092 146.265 64.1573 145.873 64.288C145.49 64.4093 145.164 64.5773 144.893 64.792L144.109 63.266C144.52 62.9767 145.01 62.7527 145.579 62.594C146.158 62.4353 146.75 62.356 147.357 62.356ZM147.189 68.642C147.562 68.642 147.894 68.558 148.183 68.39C148.472 68.2127 148.678 67.956 148.799 67.62V66.85H147.301C146.405 66.85 145.957 67.144 145.957 67.732C145.957 68.012 146.064 68.236 146.279 68.404C146.503 68.5627 146.806 68.642 147.189 68.642Z" fill="#19191F"/>
<path d="M248 64.5C248 63.0166 247.56 61.5666 246.736 60.3332C245.912 59.0999 244.741 58.1386 243.37 57.5709C242 57.0032 240.492 56.8547 239.037 57.1441C237.582 57.4335 236.246 58.1478 235.197 59.1967C234.148 60.2456 233.434 61.582 233.144 63.0368C232.855 64.4917 233.003 65.9997 233.571 67.3701C234.139 68.7406 235.1 69.9119 236.333 70.736C237.567 71.5601 239.017 72 240.5 72C242.488 71.9978 244.395 71.2069 245.801 69.8009C247.207 68.3948 247.998 66.4884 248 64.5ZM239.97 68.0303C239.9 67.9606 239.845 67.878 239.807 67.787C239.769 67.696 239.75 67.5985 239.75 67.5C239.75 67.4015 239.769 67.304 239.807 67.213C239.845 67.122 239.9 67.0393 239.97 66.9697L241.689 65.25H237.5C237.301 65.25 237.11 65.171 236.97 65.0303C236.829 64.8897 236.75 64.6989 236.75 64.5C236.75 64.3011 236.829 64.1103 236.97 63.9697C237.11 63.829 237.301 63.75 237.5 63.75H241.689L239.97 62.0303C239.831 61.8892 239.754 61.6991 239.755 61.5014C239.756 61.3037 239.835 61.1143 239.975 60.9745C240.114 60.8347 240.304 60.7558 240.501 60.7549C240.699 60.754 240.889 60.8312 241.03 60.9698L244.03 63.9695C244.17 64.1105 244.249 64.3012 244.249 64.5C244.249 64.6988 244.17 64.8895 244.03 65.0305L241.03 68.0303C240.961 68.0999 240.878 68.1552 240.787 68.1929C240.696 68.2306 240.598 68.25 240.5 68.25C240.402 68.25 240.304 68.2306 240.213 68.1929C240.122 68.1552 240.039 68.0999 239.97 68.0303Z" fill="#5B588F"/>
<defs>
<filter id="filter0_dd_4201_12443" x="0" y="0" width="290" height="132" filterUnits="userSpaceOnUse" color-interpolation-filters="sRGB">
<feFlood flood-opacity="0" result="BackgroundImageFix"/>
<feColorMatrix in="SourceAlpha" type="matrix" values="0 0 0 0 0 0 0 0 0 0 0 0 0 0 0 0 0 0 127 0" result="hardAlpha"/>
<feMorphology radius="2" operator="dilate" in="SourceAlpha" result="effect1_dropShadow_4201_12443"/>
<feOffset dx="4" dy="4"/>
<feGaussianBlur stdDeviation="8"/>
<feComposite in2="hardAlpha" operator="out"/>
<feColorMatrix type="matrix" values="0 0 0 0 1 0 0 0 0 1 0 0 0 0 1 0 0 0 0.25 0"/>
<feBlend mode="normal" in2="BackgroundImageFix" result="effect1_dropShadow_4201_12443"/>
<feColorMatrix in="SourceAlpha" type="matrix" values="0 0 0 0 0 0 0 0 0 0 0 0 0 0 0 0 0 0 127 0" result="hardAlpha"/>
<feOffset dx="-4" dy="-4"/>
<feGaussianBlur stdDeviation="8"/>
<feComposite in2="hardAlpha" operator="out"/>
<feColorMatrix type="matrix" values="0 0 0 0 1 0 0 0 0 1 0 0 0 0 1 0 0 0 0.25 0"/>
<feBlend mode="normal" in2="effect1_dropShadow_4201_12443" result="effect2_dropShadow_4201_12443"/>
<feBlend mode="normal" in="SourceGraphic" in2="effect2_dropShadow_4201_12443" result="shape"/>
</filter>
</defs>
</svg>
