<svg width="290" height="132" viewBox="0 0 290 132" fill="none" xmlns="http://www.w3.org/2000/svg">
<g filter="url(#filter0_dd_4201_12438)">
<rect x="20" y="20" width="248" height="90" rx="10" fill="white"/>
</g>
<path d="M93.358 64.904C93.918 65.0813 94.3567 65.38 94.674 65.8C94.9913 66.2107 95.15 66.7193 95.15 67.326C95.15 68.1847 94.814 68.8473 94.142 69.314C93.4793 69.7713 92.5087 70 91.23 70H86.162V60.2H90.95C92.1447 60.2 93.0593 60.4287 93.694 60.886C94.338 61.3433 94.66 61.964 94.66 62.748C94.66 63.224 94.5433 63.6487 94.31 64.022C94.086 64.3953 93.7687 64.6893 93.358 64.904ZM88.416 61.908V64.218H90.67C91.23 64.218 91.6547 64.12 91.944 63.924C92.2333 63.728 92.378 63.4387 92.378 63.056C92.378 62.6733 92.2333 62.3887 91.944 62.202C91.6547 62.006 91.23 61.908 90.67 61.908H88.416ZM91.062 68.292C91.6593 68.292 92.1073 68.194 92.406 67.998C92.714 67.802 92.868 67.4987 92.868 67.088C92.868 66.276 92.266 65.87 91.062 65.87H88.416V68.292H91.062ZM98.9991 63.462C99.2604 63.098 99.6104 62.8227 100.049 62.636C100.497 62.4493 101.01 62.356 101.589 62.356V64.372C101.346 64.3533 101.183 64.344 101.099 64.344C100.474 64.344 99.9837 64.5213 99.6291 64.876C99.2744 65.2213 99.0971 65.744 99.0971 66.444V70H96.9131V62.468H98.9991V63.462ZM106.085 62.356C107.251 62.356 108.147 62.636 108.773 63.196C109.398 63.7467 109.711 64.582 109.711 65.702V70H107.667V69.062C107.256 69.762 106.491 70.112 105.371 70.112C104.792 70.112 104.288 70.014 103.859 69.818C103.439 69.622 103.117 69.3513 102.893 69.006C102.669 68.6607 102.557 68.2687 102.557 67.83C102.557 67.13 102.818 66.5793 103.341 66.178C103.873 65.7767 104.689 65.576 105.791 65.576H107.527C107.527 65.1 107.382 64.736 107.093 64.484C106.803 64.2227 106.369 64.092 105.791 64.092C105.389 64.092 104.993 64.1573 104.601 64.288C104.218 64.4093 103.891 64.5773 103.621 64.792L102.837 63.266C103.247 62.9767 103.737 62.7527 104.307 62.594C104.885 62.4353 105.478 62.356 106.085 62.356ZM105.917 68.642C106.29 68.642 106.621 68.558 106.911 68.39C107.2 68.2127 107.405 67.956 107.527 67.62V66.85H106.029C105.133 66.85 104.685 67.144 104.685 67.732C104.685 68.012 104.792 68.236 105.007 68.404C105.231 68.5627 105.534 68.642 105.917 68.642ZM118.089 68.32V70H111.369V68.684L115.205 64.148H111.467V62.468H117.963V63.784L114.127 68.32H118.089ZM119.689 62.468H121.873V70H119.689V62.468ZM120.781 61.418C120.38 61.418 120.053 61.3013 119.801 61.068C119.549 60.8347 119.423 60.5453 119.423 60.2C119.423 59.8547 119.549 59.5653 119.801 59.332C120.053 59.0987 120.38 58.982 120.781 58.982C121.182 58.982 121.509 59.094 121.761 59.318C122.013 59.542 122.139 59.822 122.139 60.158C122.139 60.522 122.013 60.8253 121.761 61.068C121.509 61.3013 121.182 61.418 120.781 61.418ZM124.1 59.612H126.284V70H124.1V59.612Z" fill="#19191F"/>
<path d="M55 80C63.2843 80 70 73.2843 70 65C70 56.7157 63.2843 50 55 50C46.7157 50 40 56.7157 40 65C40 73.2843 46.7157 80 55 80Z" fill="#6DA544"/>
<path d="M54.9999 55.8691L67.3912 64.9996L54.9999 74.13L42.6086 64.9996L54.9999 55.8691Z" fill="#FFDA44"/>
<path d="M55.0001 70.2179C57.8815 70.2179 60.2174 67.882 60.2174 65.0006C60.2174 62.1191 57.8815 59.7832 55.0001 59.7832C52.1186 59.7832 49.7827 62.1191 49.7827 65.0006C49.7827 67.882 52.1186 70.2179 55.0001 70.2179Z" fill="#F0F0F0"/>
<path d="M52.3912 64.6738C51.4839 64.6738 50.6084 64.8118 49.7842 65.0679C49.8207 67.9179 52.1412 70.2173 54.9999 70.2173C56.7676 70.2173 58.3287 69.3374 59.2725 67.9926C57.6578 65.9713 55.1734 64.6738 52.3912 64.6738Z" fill="#0052B4"/>
<path d="M60.1207 66.0002C60.1835 65.6765 60.2174 65.3426 60.2174 65.0006C60.2174 62.119 57.8815 59.7832 55.0001 59.7832C52.85 59.7832 51.0043 61.084 50.2056 62.9413C50.9116 62.795 51.6426 62.718 52.3914 62.718C55.4217 62.7179 58.1631 63.9776 60.1207 66.0002Z" fill="#0052B4"/>
<path d="M248 64.5C248 63.0166 247.56 61.5666 246.736 60.3332C245.912 59.0999 244.741 58.1386 243.37 57.5709C242 57.0032 240.492 56.8547 239.037 57.1441C237.582 57.4335 236.246 58.1478 235.197 59.1967C234.148 60.2456 233.434 61.582 233.144 63.0368C232.855 64.4917 233.003 65.9997 233.571 67.3701C234.139 68.7406 235.1 69.9119 236.333 70.736C237.567 71.5601 239.017 72 240.5 72C242.488 71.9978 244.395 71.2069 245.801 69.8009C247.207 68.3948 247.998 66.4884 248 64.5ZM239.97 68.0303C239.9 67.9606 239.845 67.878 239.807 67.787C239.769 67.696 239.75 67.5985 239.75 67.5C239.75 67.4015 239.769 67.304 239.807 67.213C239.845 67.122 239.9 67.0393 239.97 66.9697L241.689 65.25H237.5C237.301 65.25 237.11 65.171 236.97 65.0303C236.829 64.8897 236.75 64.6989 236.75 64.5C236.75 64.3011 236.829 64.1103 236.97 63.9697C237.11 63.829 237.301 63.75 237.5 63.75H241.689L239.97 62.0303C239.831 61.8892 239.754 61.6991 239.755 61.5014C239.756 61.3037 239.835 61.1143 239.975 60.9745C240.114 60.8347 240.304 60.7558 240.501 60.7549C240.699 60.754 240.889 60.8312 241.03 60.9698L244.03 63.9695C244.17 64.1105 244.249 64.3012 244.249 64.5C244.249 64.6988 244.17 64.8895 244.03 65.0305L241.03 68.0303C240.961 68.0999 240.878 68.1552 240.787 68.1929C240.696 68.2306 240.598 68.25 240.5 68.25C240.402 68.25 240.304 68.2306 240.213 68.1929C240.122 68.1552 240.039 68.0999 239.97 68.0303Z" fill="#5B588F"/>
<defs>
<filter id="filter0_dd_4201_12438" x="0" y="0" width="290" height="132" filterUnits="userSpaceOnUse" color-interpolation-filters="sRGB">
<feFlood flood-opacity="0" result="BackgroundImageFix"/>
<feColorMatrix in="SourceAlpha" type="matrix" values="0 0 0 0 0 0 0 0 0 0 0 0 0 0 0 0 0 0 127 0" result="hardAlpha"/>
<feMorphology radius="2" operator="dilate" in="SourceAlpha" result="effect1_dropShadow_4201_12438"/>
<feOffset dx="4" dy="4"/>
<feGaussianBlur stdDeviation="8"/>
<feComposite in2="hardAlpha" operator="out"/>
<feColorMatrix type="matrix" values="0 0 0 0 1 0 0 0 0 1 0 0 0 0 1 0 0 0 0.25 0"/>
<feBlend mode="normal" in2="BackgroundImageFix" result="effect1_dropShadow_4201_12438"/>
<feColorMatrix in="SourceAlpha" type="matrix" values="0 0 0 0 0 0 0 0 0 0 0 0 0 0 0 0 0 0 127 0" result="hardAlpha"/>
<feOffset dx="-4" dy="-4"/>
<feGaussianBlur stdDeviation="8"/>
<feComposite in2="hardAlpha" operator="out"/>
<feColorMatrix type="matrix" values="0 0 0 0 1 0 0 0 0 1 0 0 0 0 1 0 0 0 0.25 0"/>
<feBlend mode="normal" in2="effect1_dropShadow_4201_12438" result="effect2_dropShadow_4201_12438"/>
<feBlend mode="normal" in="SourceGraphic" in2="effect2_dropShadow_4201_12438" result="shape"/>
</filter>
</defs>
</svg>
