<svg width="290" height="132" viewBox="0 0 290 132" fill="none" xmlns="http://www.w3.org/2000/svg">
<g filter="url(#filter0_dd_4201_12445)">
<rect x="20" y="20" width="248" height="90" rx="10" fill="white"/>
</g>
<path d="M55 80C63.2843 80 70 73.2843 70 65C70 56.7157 63.2843 50 55 50C46.7157 50 40 56.7157 40 65C40 73.2843 46.7157 80 55 80Z" fill="#F0F0F0"/>
<path d="M70 64.9999C70 59.053 66.5392 53.9145 61.5217 51.4883V78.5114C66.5392 76.0852 70 70.9468 70 64.9999Z" fill="#D80027"/>
<path d="M40 64.9999C40 70.9468 43.4608 76.0852 48.4783 78.5115V51.4883C43.4608 53.9145 40 59.053 40 64.9999Z" fill="#D80027"/>
<path d="M57.6088 66.9573L60.2174 65.6529L58.9131 65.0008V63.6964L56.3044 65.0008L57.6088 62.3921H56.3044L55.0001 60.4355L53.6957 62.3921H52.3914L53.6957 65.0008L51.087 63.6964V65.0008L49.7827 65.6529L52.3914 66.9573L51.7392 68.2616H54.3479V70.2181H55.6522V68.2616H58.2609L57.6088 66.9573Z" fill="#D80027"/>
<path d="M90.852 70.168C89.8533 70.168 88.948 69.9533 88.136 69.524C87.3333 69.0853 86.6987 68.4833 86.232 67.718C85.7747 66.9433 85.546 66.0707 85.546 65.1C85.546 64.1293 85.7747 63.2613 86.232 62.496C86.6987 61.7213 87.3333 61.1193 88.136 60.69C88.948 60.2513 89.858 60.032 90.866 60.032C91.7153 60.032 92.4807 60.1813 93.162 60.48C93.8527 60.7787 94.4313 61.208 94.898 61.768L93.442 63.112C92.7793 62.3467 91.958 61.964 90.978 61.964C90.3713 61.964 89.83 62.0993 89.354 62.37C88.878 62.6313 88.5047 63 88.234 63.476C87.9727 63.952 87.842 64.4933 87.842 65.1C87.842 65.7067 87.9727 66.248 88.234 66.724C88.5047 67.2 88.878 67.5733 89.354 67.844C89.83 68.1053 90.3713 68.236 90.978 68.236C91.958 68.236 92.7793 67.8487 93.442 67.074L94.898 68.418C94.4313 68.9873 93.8527 69.4213 93.162 69.72C92.4713 70.0187 91.7013 70.168 90.852 70.168ZM99.4589 62.356C100.626 62.356 101.522 62.636 102.147 63.196C102.772 63.7467 103.085 64.582 103.085 65.702V70H101.041V69.062C100.63 69.762 99.8649 70.112 98.7449 70.112C98.1662 70.112 97.6622 70.014 97.2329 69.818C96.8129 69.622 96.4909 69.3513 96.2669 69.006C96.0429 68.6607 95.9309 68.2687 95.9309 67.83C95.9309 67.13 96.1922 66.5793 96.7149 66.178C97.2469 65.7767 98.0636 65.576 99.1649 65.576H100.901C100.901 65.1 100.756 64.736 100.467 64.484C100.178 64.2227 99.7436 64.092 99.1649 64.092C98.7636 64.092 98.3669 64.1573 97.9749 64.288C97.5922 64.4093 97.2656 64.5773 96.9949 64.792L96.2109 63.266C96.6216 62.9767 97.1116 62.7527 97.6809 62.594C98.2596 62.4353 98.8522 62.356 99.4589 62.356ZM99.2909 68.642C99.6642 68.642 99.9956 68.558 100.285 68.39C100.574 68.2127 100.78 67.956 100.901 67.62V66.85H99.4029C98.5069 66.85 98.0589 67.144 98.0589 67.732C98.0589 68.012 98.1662 68.236 98.3809 68.404C98.6049 68.5627 98.9082 68.642 99.2909 68.642ZM109.84 62.356C110.773 62.356 111.524 62.636 112.094 63.196C112.672 63.756 112.962 64.5867 112.962 65.688V70H110.778V66.024C110.778 65.4267 110.647 64.9833 110.386 64.694C110.124 64.3953 109.746 64.246 109.252 64.246C108.701 64.246 108.262 64.4187 107.936 64.764C107.609 65.1 107.446 65.604 107.446 66.276V70H105.262V62.468H107.348V63.35C107.637 63.0327 107.996 62.79 108.426 62.622C108.855 62.4447 109.326 62.356 109.84 62.356ZM118.179 62.356C119.346 62.356 120.242 62.636 120.867 63.196C121.493 63.7467 121.805 64.582 121.805 65.702V70H119.761V69.062C119.351 69.762 118.585 70.112 117.465 70.112C116.887 70.112 116.383 70.014 115.953 69.818C115.533 69.622 115.211 69.3513 114.987 69.006C114.763 68.6607 114.651 68.2687 114.651 67.83C114.651 67.13 114.913 66.5793 115.435 66.178C115.967 65.7767 116.784 65.576 117.885 65.576H119.621C119.621 65.1 119.477 64.736 119.187 64.484C118.898 64.2227 118.464 64.092 117.885 64.092C117.484 64.092 117.087 64.1573 116.695 64.288C116.313 64.4093 115.986 64.5773 115.715 64.792L114.931 63.266C115.342 62.9767 115.832 62.7527 116.401 62.594C116.98 62.4353 117.573 62.356 118.179 62.356ZM118.011 68.642C118.385 68.642 118.716 68.558 119.005 68.39C119.295 68.2127 119.5 67.956 119.621 67.62V66.85H118.123C117.227 66.85 116.779 67.144 116.779 67.732C116.779 68.012 116.887 68.236 117.101 68.404C117.325 68.5627 117.629 68.642 118.011 68.642ZM131.736 59.612V70H129.65V69.132C129.109 69.7853 128.325 70.112 127.298 70.112C126.589 70.112 125.945 69.9533 125.366 69.636C124.797 69.3187 124.349 68.866 124.022 68.278C123.695 67.69 123.532 67.0087 123.532 66.234C123.532 65.4593 123.695 64.778 124.022 64.19C124.349 63.602 124.797 63.1493 125.366 62.832C125.945 62.5147 126.589 62.356 127.298 62.356C128.259 62.356 129.011 62.6593 129.552 63.266V59.612H131.736ZM127.676 68.32C128.227 68.32 128.684 68.1333 129.048 67.76C129.412 67.3773 129.594 66.8687 129.594 66.234C129.594 65.5993 129.412 65.0953 129.048 64.722C128.684 64.3393 128.227 64.148 127.676 64.148C127.116 64.148 126.654 64.3393 126.29 64.722C125.926 65.0953 125.744 65.5993 125.744 66.234C125.744 66.8687 125.926 67.3773 126.29 67.76C126.654 68.1333 127.116 68.32 127.676 68.32ZM136.995 62.356C138.162 62.356 139.058 62.636 139.683 63.196C140.309 63.7467 140.621 64.582 140.621 65.702V70H138.577V69.062C138.167 69.762 137.401 70.112 136.281 70.112C135.703 70.112 135.199 70.014 134.769 69.818C134.349 69.622 134.027 69.3513 133.803 69.006C133.579 68.6607 133.467 68.2687 133.467 67.83C133.467 67.13 133.729 66.5793 134.251 66.178C134.783 65.7767 135.6 65.576 136.701 65.576H138.437C138.437 65.1 138.293 64.736 138.003 64.484C137.714 64.2227 137.28 64.092 136.701 64.092C136.3 64.092 135.903 64.1573 135.511 64.288C135.129 64.4093 134.802 64.5773 134.531 64.792L133.747 63.266C134.158 62.9767 134.648 62.7527 135.217 62.594C135.796 62.4353 136.389 62.356 136.995 62.356ZM136.827 68.642C137.201 68.642 137.532 68.558 137.821 68.39C138.111 68.2127 138.316 67.956 138.437 67.62V66.85H136.939C136.043 66.85 135.595 67.144 135.595 67.732C135.595 68.012 135.703 68.236 135.917 68.404C136.141 68.5627 136.445 68.642 136.827 68.642Z" fill="#19191F"/>
<path d="M248 64.5C248 63.0166 247.56 61.5666 246.736 60.3332C245.912 59.0999 244.741 58.1386 243.37 57.5709C242 57.0032 240.492 56.8547 239.037 57.1441C237.582 57.4335 236.246 58.1478 235.197 59.1967C234.148 60.2456 233.434 61.582 233.144 63.0368C232.855 64.4917 233.003 65.9997 233.571 67.3701C234.139 68.7406 235.1 69.9119 236.333 70.736C237.567 71.5601 239.017 72 240.5 72C242.488 71.9978 244.395 71.2069 245.801 69.8009C247.207 68.3948 247.998 66.4884 248 64.5ZM239.97 68.0303C239.9 67.9606 239.845 67.878 239.807 67.787C239.769 67.696 239.75 67.5985 239.75 67.5C239.75 67.4015 239.769 67.304 239.807 67.213C239.845 67.122 239.9 67.0393 239.97 66.9697L241.689 65.25H237.5C237.301 65.25 237.11 65.171 236.97 65.0303C236.829 64.8897 236.75 64.6989 236.75 64.5C236.75 64.3011 236.829 64.1103 236.97 63.9697C237.11 63.829 237.301 63.75 237.5 63.75H241.689L239.97 62.0303C239.831 61.8892 239.754 61.6991 239.755 61.5014C239.756 61.3037 239.835 61.1143 239.975 60.9745C240.114 60.8347 240.304 60.7558 240.501 60.7549C240.699 60.754 240.889 60.8312 241.03 60.9698L244.03 63.9695C244.17 64.1105 244.249 64.3012 244.249 64.5C244.249 64.6988 244.17 64.8895 244.03 65.0305L241.03 68.0303C240.961 68.0999 240.878 68.1552 240.787 68.1929C240.696 68.2306 240.598 68.25 240.5 68.25C240.402 68.25 240.304 68.2306 240.213 68.1929C240.122 68.1552 240.039 68.0999 239.97 68.0303Z" fill="#5B588F"/>
<defs>
<filter id="filter0_dd_4201_12445" x="0" y="0" width="290" height="132" filterUnits="userSpaceOnUse" color-interpolation-filters="sRGB">
<feFlood flood-opacity="0" result="BackgroundImageFix"/>
<feColorMatrix in="SourceAlpha" type="matrix" values="0 0 0 0 0 0 0 0 0 0 0 0 0 0 0 0 0 0 127 0" result="hardAlpha"/>
<feMorphology radius="2" operator="dilate" in="SourceAlpha" result="effect1_dropShadow_4201_12445"/>
<feOffset dx="4" dy="4"/>
<feGaussianBlur stdDeviation="8"/>
<feComposite in2="hardAlpha" operator="out"/>
<feColorMatrix type="matrix" values="0 0 0 0 1 0 0 0 0 1 0 0 0 0 1 0 0 0 0.25 0"/>
<feBlend mode="normal" in2="BackgroundImageFix" result="effect1_dropShadow_4201_12445"/>
<feColorMatrix in="SourceAlpha" type="matrix" values="0 0 0 0 0 0 0 0 0 0 0 0 0 0 0 0 0 0 127 0" result="hardAlpha"/>
<feOffset dx="-4" dy="-4"/>
<feGaussianBlur stdDeviation="8"/>
<feComposite in2="hardAlpha" operator="out"/>
<feColorMatrix type="matrix" values="0 0 0 0 1 0 0 0 0 1 0 0 0 0 1 0 0 0 0.25 0"/>
<feBlend mode="normal" in2="effect1_dropShadow_4201_12445" result="effect2_dropShadow_4201_12445"/>
<feBlend mode="normal" in="SourceGraphic" in2="effect2_dropShadow_4201_12445" result="shape"/>
</filter>
</defs>
</svg>
