<svg width="290" height="182" viewBox="0 0 290 182" fill="none" xmlns="http://www.w3.org/2000/svg">
<g filter="url(#filter0_dd_4189_12439)">
<rect x="20" y="20" width="248" height="140" rx="10" fill="white"/>
</g>
<path d="M45.852 95.168C45.096 95.168 44.3913 95.0467 43.738 94.804C43.094 94.552 42.534 94.1973 42.058 93.74C41.582 93.2827 41.2087 92.746 40.938 92.13C40.6767 91.514 40.546 90.8373 40.546 90.1C40.546 89.3627 40.6767 88.686 40.938 88.07C41.2087 87.454 41.582 86.9173 42.058 86.46C42.5433 86.0027 43.108 85.6527 43.752 85.41C44.396 85.158 45.1007 85.032 45.866 85.032C46.7153 85.032 47.4807 85.1813 48.162 85.48C48.8527 85.7693 49.4313 86.1987 49.898 86.768L48.442 88.112C48.106 87.7293 47.7327 87.4447 47.322 87.258C46.9113 87.062 46.4633 86.964 45.978 86.964C45.5207 86.964 45.1007 87.0387 44.718 87.188C44.3353 87.3373 44.004 87.552 43.724 87.832C43.444 88.112 43.2247 88.4433 43.066 88.826C42.9167 89.2087 42.842 89.6333 42.842 90.1C42.842 90.5667 42.9167 90.9913 43.066 91.374C43.2247 91.7567 43.444 92.088 43.724 92.368C44.004 92.648 44.3353 92.8627 44.718 93.012C45.1007 93.1613 45.5207 93.236 45.978 93.236C46.4633 93.236 46.9113 93.1427 47.322 92.956C47.7327 92.76 48.106 92.466 48.442 92.074L49.898 93.418C49.4313 93.9873 48.8527 94.4213 48.162 94.72C47.4807 95.0187 46.7107 95.168 45.852 95.168ZM56.1145 95.168C55.3585 95.168 54.6538 95.0467 54.0005 94.804C53.3565 94.552 52.7965 94.1973 52.3205 93.74C51.8445 93.2827 51.4712 92.746 51.2005 92.13C50.9392 91.514 50.8085 90.8373 50.8085 90.1C50.8085 89.3627 50.9392 88.686 51.2005 88.07C51.4712 87.454 51.8445 86.9173 52.3205 86.46C52.8058 86.0027 53.3705 85.6527 54.0145 85.41C54.6585 85.158 55.3632 85.032 56.1285 85.032C56.9778 85.032 57.7432 85.1813 58.4245 85.48C59.1152 85.7693 59.6938 86.1987 60.1605 86.768L58.7045 88.112C58.3685 87.7293 57.9952 87.4447 57.5845 87.258C57.1738 87.062 56.7258 86.964 56.2405 86.964C55.7832 86.964 55.3632 87.0387 54.9805 87.188C54.5978 87.3373 54.2665 87.552 53.9865 87.832C53.7065 88.112 53.4872 88.4433 53.3285 88.826C53.1792 89.2087 53.1045 89.6333 53.1045 90.1C53.1045 90.5667 53.1792 90.9913 53.3285 91.374C53.4872 91.7567 53.7065 92.088 53.9865 92.368C54.2665 92.648 54.5978 92.8627 54.9805 93.012C55.3632 93.1613 55.7832 93.236 56.2405 93.236C56.7258 93.236 57.1738 93.1427 57.5845 92.956C57.9952 92.76 58.3685 92.466 58.7045 92.074L60.1605 93.418C59.6938 93.9873 59.1152 94.4213 58.4245 94.72C57.7432 95.0187 56.9732 95.168 56.1145 95.168ZM61.8921 95V85.2H66.1341C67.0114 85.2 67.7674 85.3447 68.4021 85.634C69.0367 85.914 69.5267 86.32 69.8721 86.852C70.2174 87.384 70.3901 88.0187 70.3901 88.756C70.3901 89.484 70.2174 90.114 69.8721 90.646C69.5267 91.178 69.0367 91.5887 68.4021 91.878C67.7674 92.158 67.0114 92.298 66.1341 92.298H63.1521L64.1601 91.276V95H61.8921ZM64.1601 91.528L63.1521 90.45H66.0081C66.7081 90.45 67.2307 90.3007 67.5761 90.002C67.9214 89.7033 68.0941 89.288 68.0941 88.756C68.0941 88.2147 67.9214 87.7947 67.5761 87.496C67.2307 87.1973 66.7081 87.048 66.0081 87.048H63.1521L64.1601 85.97V91.528ZM70.4291 95L74.7971 85.2H77.0371L81.4191 95H79.0391L75.4551 86.348H76.3511L72.7531 95H70.4291ZM72.6131 92.9L73.2151 91.178H78.2551L78.8711 92.9H72.6131ZM43.416 115V106.418H40.056V105.2H48.162V106.418H44.802V115H43.416ZM53.6528 107.51C54.2595 107.51 54.7915 107.627 55.2488 107.86C55.7155 108.093 56.0795 108.448 56.3408 108.924C56.6021 109.4 56.7328 110.002 56.7328 110.73V115H55.3888V110.884C55.3888 110.165 55.2115 109.624 54.8568 109.26C54.5115 108.896 54.0215 108.714 53.3868 108.714C52.9108 108.714 52.4955 108.807 52.1408 108.994C51.7861 109.181 51.5108 109.456 51.3148 109.82C51.1281 110.184 51.0348 110.637 51.0348 111.178V115H49.6908V104.612H51.0348V109.582L50.7688 109.05C51.0115 108.565 51.3848 108.187 51.8888 107.916C52.3928 107.645 52.9808 107.51 53.6528 107.51ZM62.7241 115.084C61.9308 115.084 61.2308 114.921 60.6241 114.594C60.0268 114.267 59.5601 113.819 59.2241 113.25C58.8974 112.681 58.7341 112.027 58.7341 111.29C58.7341 110.553 58.8928 109.899 59.2101 109.33C59.5368 108.761 59.9801 108.317 60.5401 108C61.1094 107.673 61.7488 107.51 62.4581 107.51C63.1768 107.51 63.8114 107.669 64.3621 107.986C64.9128 108.303 65.3421 108.751 65.6501 109.33C65.9674 109.899 66.1261 110.567 66.1261 111.332C66.1261 111.388 66.1214 111.453 66.1121 111.528C66.1121 111.603 66.1074 111.673 66.0981 111.738H59.7841V110.772H65.3981L64.8521 111.108C64.8614 110.632 64.7634 110.207 64.5581 109.834C64.3528 109.461 64.0681 109.171 63.7041 108.966C63.3494 108.751 62.9341 108.644 62.4581 108.644C61.9914 108.644 61.5761 108.751 61.2121 108.966C60.8481 109.171 60.5634 109.465 60.3581 109.848C60.1528 110.221 60.0501 110.651 60.0501 111.136V111.36C60.0501 111.855 60.1621 112.298 60.3861 112.69C60.6194 113.073 60.9414 113.371 61.3521 113.586C61.7628 113.801 62.2341 113.908 62.7661 113.908C63.2048 113.908 63.6014 113.833 63.9561 113.684C64.3201 113.535 64.6374 113.311 64.9081 113.012L65.6501 113.88C65.3141 114.272 64.8941 114.571 64.3901 114.776C63.8954 114.981 63.3401 115.084 62.7241 115.084ZM76.7301 115.112C75.9835 115.112 75.2928 114.991 74.6581 114.748C74.0328 114.496 73.4868 114.146 73.0201 113.698C72.5628 113.241 72.2035 112.709 71.9421 112.102C71.6808 111.495 71.5501 110.828 71.5501 110.1C71.5501 109.372 71.6808 108.705 71.9421 108.098C72.2035 107.491 72.5675 106.964 73.0341 106.516C73.5008 106.059 74.0468 105.709 74.6721 105.466C75.3068 105.214 75.9975 105.088 76.7441 105.088C77.5001 105.088 78.1955 105.219 78.8301 105.48C79.4741 105.732 80.0201 106.11 80.4681 106.614L79.5581 107.496C79.1848 107.104 78.7648 106.815 78.2981 106.628C77.8315 106.432 77.3321 106.334 76.8001 106.334C76.2495 106.334 75.7361 106.427 75.2601 106.614C74.7935 106.801 74.3875 107.062 74.0421 107.398C73.6968 107.734 73.4261 108.135 73.2301 108.602C73.0435 109.059 72.9501 109.559 72.9501 110.1C72.9501 110.641 73.0435 111.145 73.2301 111.612C73.4261 112.069 73.6968 112.466 74.0421 112.802C74.3875 113.138 74.7935 113.399 75.2601 113.586C75.7361 113.773 76.2495 113.866 76.8001 113.866C77.3321 113.866 77.8315 113.773 78.2981 113.586C78.7648 113.39 79.1848 113.091 79.5581 112.69L80.4681 113.572C80.0201 114.076 79.4741 114.459 78.8301 114.72C78.1955 114.981 77.4955 115.112 76.7301 115.112ZM86.9796 115V113.432L86.9096 113.138V110.464C86.9096 109.895 86.7416 109.456 86.4056 109.148C86.0789 108.831 85.5843 108.672 84.9216 108.672C84.4829 108.672 84.0536 108.747 83.6336 108.896C83.2136 109.036 82.8589 109.227 82.5696 109.47L82.0096 108.462C82.3923 108.154 82.8496 107.921 83.3816 107.762C83.9229 107.594 84.4876 107.51 85.0756 107.51C86.0929 107.51 86.8769 107.757 87.4276 108.252C87.9783 108.747 88.2536 109.503 88.2536 110.52V115H86.9796ZM84.5436 115.084C83.9929 115.084 83.5076 114.991 83.0876 114.804C82.6769 114.617 82.3596 114.361 82.1356 114.034C81.9116 113.698 81.7996 113.32 81.7996 112.9C81.7996 112.499 81.8929 112.135 82.0796 111.808C82.2756 111.481 82.5883 111.22 83.0176 111.024C83.4563 110.828 84.0443 110.73 84.7816 110.73H87.1336V111.696H84.8376C84.1656 111.696 83.7129 111.808 83.4796 112.032C83.2463 112.256 83.1296 112.527 83.1296 112.844C83.1296 113.208 83.2743 113.502 83.5636 113.726C83.8529 113.941 84.2543 114.048 84.7676 114.048C85.2716 114.048 85.7103 113.936 86.0836 113.712C86.4663 113.488 86.7416 113.161 86.9096 112.732L87.1756 113.656C86.9983 114.095 86.6856 114.445 86.2376 114.706C85.7896 114.958 85.2249 115.084 84.5436 115.084ZM90.9408 115V104.612H92.2848V115H90.9408ZM95.051 115V107.58H96.395V115H95.051ZM95.723 106.152C95.4616 106.152 95.2423 106.068 95.065 105.9C94.897 105.732 94.813 105.527 94.813 105.284C94.813 105.032 94.897 104.822 95.065 104.654C95.2423 104.486 95.4616 104.402 95.723 104.402C95.9843 104.402 96.199 104.486 96.367 104.654C96.5443 104.813 96.633 105.013 96.633 105.256C96.633 105.508 96.549 105.723 96.381 105.9C96.213 106.068 95.9936 106.152 95.723 106.152ZM99.3571 115V106.922C99.3571 106.194 99.5671 105.615 99.9871 105.186C100.416 104.747 101.023 104.528 101.807 104.528C102.096 104.528 102.372 104.565 102.633 104.64C102.904 104.705 103.132 104.813 103.319 104.962L102.913 105.984C102.773 105.872 102.614 105.788 102.437 105.732C102.26 105.667 102.073 105.634 101.877 105.634C101.485 105.634 101.186 105.746 100.981 105.97C100.776 106.185 100.673 106.507 100.673 106.936V107.93L100.701 108.546V115H99.3571ZM98.0971 108.686V107.58H102.829V108.686H98.0971ZM107.365 115.084C106.619 115.084 105.956 114.921 105.377 114.594C104.799 114.267 104.341 113.819 104.005 113.25C103.669 112.671 103.501 112.018 103.501 111.29C103.501 110.553 103.669 109.899 104.005 109.33C104.341 108.761 104.799 108.317 105.377 108C105.956 107.673 106.619 107.51 107.365 107.51C108.103 107.51 108.761 107.673 109.339 108C109.927 108.317 110.385 108.761 110.711 109.33C111.047 109.89 111.215 110.543 111.215 111.29C111.215 112.027 111.047 112.681 110.711 113.25C110.385 113.819 109.927 114.267 109.339 114.594C108.761 114.921 108.103 115.084 107.365 115.084ZM107.365 113.908C107.841 113.908 108.266 113.801 108.639 113.586C109.022 113.371 109.321 113.068 109.535 112.676C109.75 112.275 109.857 111.813 109.857 111.29C109.857 110.758 109.75 110.301 109.535 109.918C109.321 109.526 109.022 109.223 108.639 109.008C108.266 108.793 107.841 108.686 107.365 108.686C106.889 108.686 106.465 108.793 106.091 109.008C105.718 109.223 105.419 109.526 105.195 109.918C104.971 110.301 104.859 110.758 104.859 111.29C104.859 111.813 104.971 112.275 105.195 112.676C105.419 113.068 105.718 113.371 106.091 113.586C106.465 113.801 106.889 113.908 107.365 113.908ZM113.274 115V107.58H114.562V109.596L114.436 109.092C114.641 108.579 114.987 108.187 115.472 107.916C115.957 107.645 116.555 107.51 117.264 107.51V108.812C117.208 108.803 117.152 108.798 117.096 108.798C117.049 108.798 117.003 108.798 116.956 108.798C116.237 108.798 115.668 109.013 115.248 109.442C114.828 109.871 114.618 110.492 114.618 111.304V115H113.274ZM123.082 107.51C123.689 107.51 124.221 107.627 124.678 107.86C125.145 108.093 125.509 108.448 125.77 108.924C126.032 109.4 126.162 110.002 126.162 110.73V115H124.818V110.884C124.818 110.165 124.641 109.624 124.286 109.26C123.941 108.896 123.451 108.714 122.816 108.714C122.34 108.714 121.925 108.807 121.57 108.994C121.216 109.181 120.94 109.456 120.744 109.82C120.558 110.184 120.464 110.637 120.464 111.178V115H119.12V107.58H120.408V109.582L120.198 109.05C120.441 108.565 120.814 108.187 121.318 107.916C121.822 107.645 122.41 107.51 123.082 107.51ZM128.85 115V107.58H130.194V115H128.85ZM129.522 106.152C129.26 106.152 129.041 106.068 128.864 105.9C128.696 105.732 128.612 105.527 128.612 105.284C128.612 105.032 128.696 104.822 128.864 104.654C129.041 104.486 129.26 104.402 129.522 104.402C129.783 104.402 129.998 104.486 130.166 104.654C130.343 104.813 130.432 105.013 130.432 105.256C130.432 105.508 130.348 105.723 130.18 105.9C130.012 106.068 129.792 106.152 129.522 106.152ZM137.566 115V113.432L137.496 113.138V110.464C137.496 109.895 137.328 109.456 136.992 109.148C136.665 108.831 136.171 108.672 135.508 108.672C135.069 108.672 134.64 108.747 134.22 108.896C133.8 109.036 133.445 109.227 133.156 109.47L132.596 108.462C132.979 108.154 133.436 107.921 133.968 107.762C134.509 107.594 135.074 107.51 135.662 107.51C136.679 107.51 137.463 107.757 138.014 108.252C138.565 108.747 138.84 109.503 138.84 110.52V115H137.566ZM135.13 115.084C134.579 115.084 134.094 114.991 133.674 114.804C133.263 114.617 132.946 114.361 132.722 114.034C132.498 113.698 132.386 113.32 132.386 112.9C132.386 112.499 132.479 112.135 132.666 111.808C132.862 111.481 133.175 111.22 133.604 111.024C134.043 110.828 134.631 110.73 135.368 110.73H137.72V111.696H135.424C134.752 111.696 134.299 111.808 134.066 112.032C133.833 112.256 133.716 112.527 133.716 112.844C133.716 113.208 133.861 113.502 134.15 113.726C134.439 113.941 134.841 114.048 135.354 114.048C135.858 114.048 136.297 113.936 136.67 113.712C137.053 113.488 137.328 113.161 137.496 112.732L137.762 113.656C137.585 114.095 137.272 114.445 136.824 114.706C136.376 114.958 135.811 115.084 135.13 115.084ZM150.065 115.112C149.318 115.112 148.628 114.991 147.993 114.748C147.368 114.496 146.822 114.146 146.355 113.698C145.898 113.241 145.538 112.709 145.277 112.102C145.016 111.495 144.885 110.828 144.885 110.1C144.885 109.372 145.016 108.705 145.277 108.098C145.538 107.491 145.902 106.964 146.369 106.516C146.836 106.059 147.382 105.709 148.007 105.466C148.642 105.214 149.332 105.088 150.079 105.088C150.835 105.088 151.53 105.219 152.165 105.48C152.809 105.732 153.355 106.11 153.803 106.614L152.893 107.496C152.52 107.104 152.1 106.815 151.633 106.628C151.166 106.432 150.667 106.334 150.135 106.334C149.584 106.334 149.071 106.427 148.595 106.614C148.128 106.801 147.722 107.062 147.377 107.398C147.032 107.734 146.761 108.135 146.565 108.602C146.378 109.059 146.285 109.559 146.285 110.1C146.285 110.641 146.378 111.145 146.565 111.612C146.761 112.069 147.032 112.466 147.377 112.802C147.722 113.138 148.128 113.399 148.595 113.586C149.071 113.773 149.584 113.866 150.135 113.866C150.667 113.866 151.166 113.773 151.633 113.586C152.1 113.39 152.52 113.091 152.893 112.69L153.803 113.572C153.355 114.076 152.809 114.459 152.165 114.72C151.53 114.981 150.83 115.112 150.065 115.112ZM158.668 115.084C157.921 115.084 157.258 114.921 156.68 114.594C156.101 114.267 155.644 113.819 155.308 113.25C154.972 112.671 154.804 112.018 154.804 111.29C154.804 110.553 154.972 109.899 155.308 109.33C155.644 108.761 156.101 108.317 156.68 108C157.258 107.673 157.921 107.51 158.668 107.51C159.405 107.51 160.063 107.673 160.642 108C161.23 108.317 161.687 108.761 162.014 109.33C162.35 109.89 162.518 110.543 162.518 111.29C162.518 112.027 162.35 112.681 162.014 113.25C161.687 113.819 161.23 114.267 160.642 114.594C160.063 114.921 159.405 115.084 158.668 115.084ZM158.668 113.908C159.144 113.908 159.568 113.801 159.942 113.586C160.324 113.371 160.623 113.068 160.838 112.676C161.052 112.275 161.16 111.813 161.16 111.29C161.16 110.758 161.052 110.301 160.838 109.918C160.623 109.526 160.324 109.223 159.942 109.008C159.568 108.793 159.144 108.686 158.668 108.686C158.192 108.686 157.767 108.793 157.394 109.008C157.02 109.223 156.722 109.526 156.498 109.918C156.274 110.301 156.162 110.758 156.162 111.29C156.162 111.813 156.274 112.275 156.498 112.676C156.722 113.068 157.02 113.371 157.394 113.586C157.767 113.801 158.192 113.908 158.668 113.908ZM168.538 107.51C169.145 107.51 169.677 107.627 170.134 107.86C170.601 108.093 170.965 108.448 171.226 108.924C171.488 109.4 171.618 110.002 171.618 110.73V115H170.274V110.884C170.274 110.165 170.097 109.624 169.742 109.26C169.397 108.896 168.907 108.714 168.272 108.714C167.796 108.714 167.381 108.807 167.026 108.994C166.672 109.181 166.396 109.456 166.2 109.82C166.014 110.184 165.92 110.637 165.92 111.178V115H164.576V107.58H165.864V109.582L165.654 109.05C165.897 108.565 166.27 108.187 166.774 107.916C167.278 107.645 167.866 107.51 168.538 107.51ZM176.434 115.084C175.818 115.084 175.23 115 174.67 114.832C174.119 114.664 173.685 114.459 173.368 114.216L173.928 113.152C174.245 113.367 174.637 113.549 175.104 113.698C175.57 113.847 176.046 113.922 176.532 113.922C177.157 113.922 177.605 113.833 177.876 113.656C178.156 113.479 178.296 113.231 178.296 112.914C178.296 112.681 178.212 112.499 178.044 112.368C177.876 112.237 177.652 112.139 177.372 112.074C177.101 112.009 176.798 111.953 176.462 111.906C176.126 111.85 175.79 111.785 175.454 111.71C175.118 111.626 174.81 111.514 174.53 111.374C174.25 111.225 174.026 111.024 173.858 110.772C173.69 110.511 173.606 110.165 173.606 109.736C173.606 109.288 173.732 108.896 173.984 108.56C174.236 108.224 174.59 107.967 175.048 107.79C175.514 107.603 176.065 107.51 176.7 107.51C177.185 107.51 177.675 107.571 178.17 107.692C178.674 107.804 179.084 107.967 179.402 108.182L178.828 109.246C178.492 109.022 178.142 108.868 177.778 108.784C177.414 108.7 177.05 108.658 176.686 108.658C176.098 108.658 175.659 108.756 175.37 108.952C175.08 109.139 174.936 109.381 174.936 109.68C174.936 109.932 175.02 110.128 175.188 110.268C175.365 110.399 175.589 110.501 175.86 110.576C176.14 110.651 176.448 110.716 176.784 110.772C177.12 110.819 177.456 110.884 177.792 110.968C178.128 111.043 178.431 111.15 178.702 111.29C178.982 111.43 179.206 111.626 179.374 111.878C179.551 112.13 179.64 112.466 179.64 112.886C179.64 113.334 179.509 113.721 179.248 114.048C178.986 114.375 178.618 114.631 178.142 114.818C177.666 114.995 177.096 115.084 176.434 115.084ZM184.641 115.084C184.007 115.084 183.447 114.967 182.961 114.734C182.485 114.501 182.112 114.146 181.841 113.67C181.58 113.185 181.449 112.578 181.449 111.85V107.58H182.793V111.696C182.793 112.424 182.966 112.97 183.311 113.334C183.666 113.698 184.161 113.88 184.795 113.88C185.262 113.88 185.668 113.787 186.013 113.6C186.359 113.404 186.625 113.124 186.811 112.76C186.998 112.387 187.091 111.939 187.091 111.416V107.58H188.435V115H187.161V112.998L187.371 113.53C187.129 114.025 186.765 114.407 186.279 114.678C185.794 114.949 185.248 115.084 184.641 115.084ZM200.476 107.51C201.073 107.51 201.601 107.627 202.058 107.86C202.515 108.093 202.87 108.448 203.122 108.924C203.383 109.4 203.514 110.002 203.514 110.73V115H202.17V110.884C202.17 110.165 202.002 109.624 201.666 109.26C201.33 108.896 200.859 108.714 200.252 108.714C199.804 108.714 199.412 108.807 199.076 108.994C198.74 109.181 198.479 109.456 198.292 109.82C198.115 110.184 198.026 110.637 198.026 111.178V115H196.682V110.884C196.682 110.165 196.514 109.624 196.178 109.26C195.851 108.896 195.38 108.714 194.764 108.714C194.325 108.714 193.938 108.807 193.602 108.994C193.266 109.181 193.005 109.456 192.818 109.82C192.631 110.184 192.538 110.637 192.538 111.178V115H191.194V107.58H192.482V109.554L192.272 109.05C192.505 108.565 192.865 108.187 193.35 107.916C193.835 107.645 194.4 107.51 195.044 107.51C195.753 107.51 196.365 107.687 196.878 108.042C197.391 108.387 197.727 108.915 197.886 109.624L197.34 109.4C197.564 108.831 197.956 108.373 198.516 108.028C199.076 107.683 199.729 107.51 200.476 107.51ZM209.491 115.084C208.698 115.084 207.998 114.921 207.391 114.594C206.794 114.267 206.327 113.819 205.991 113.25C205.664 112.681 205.501 112.027 205.501 111.29C205.501 110.553 205.66 109.899 205.977 109.33C206.304 108.761 206.747 108.317 207.307 108C207.876 107.673 208.516 107.51 209.225 107.51C209.944 107.51 210.578 107.669 211.129 107.986C211.68 108.303 212.109 108.751 212.417 109.33C212.734 109.899 212.893 110.567 212.893 111.332C212.893 111.388 212.888 111.453 212.879 111.528C212.879 111.603 212.874 111.673 212.865 111.738H206.551V110.772H212.165L211.619 111.108C211.628 110.632 211.53 110.207 211.325 109.834C211.12 109.461 210.835 109.171 210.471 108.966C210.116 108.751 209.701 108.644 209.225 108.644C208.758 108.644 208.343 108.751 207.979 108.966C207.615 109.171 207.33 109.465 207.125 109.848C206.92 110.221 206.817 110.651 206.817 111.136V111.36C206.817 111.855 206.929 112.298 207.153 112.69C207.386 113.073 207.708 113.371 208.119 113.586C208.53 113.801 209.001 113.908 209.533 113.908C209.972 113.908 210.368 113.833 210.723 113.684C211.087 113.535 211.404 113.311 211.675 113.012L212.417 113.88C212.081 114.272 211.661 114.571 211.157 114.776C210.662 114.981 210.107 115.084 209.491 115.084ZM214.959 115V107.58H216.247V109.596L216.121 109.092C216.326 108.579 216.672 108.187 217.157 107.916C217.642 107.645 218.24 107.51 218.949 107.51V108.812C218.893 108.803 218.837 108.798 218.781 108.798C218.734 108.798 218.688 108.798 218.641 108.798C217.922 108.798 217.353 109.013 216.933 109.442C216.513 109.871 216.303 110.492 216.303 111.304V115H214.959ZM41.47 135V125.2H45.292C46.1507 125.2 46.8833 125.335 47.49 125.606C48.0967 125.877 48.5633 126.269 48.89 126.782C49.2167 127.295 49.38 127.907 49.38 128.616C49.38 129.325 49.2167 129.937 48.89 130.45C48.5633 130.954 48.0967 131.346 47.49 131.626C46.8833 131.897 46.1507 132.032 45.292 132.032H42.24L42.87 131.374V135H41.47ZM42.87 131.514L42.24 130.814H45.25C46.146 130.814 46.8227 130.623 47.28 130.24C47.7467 129.857 47.98 129.316 47.98 128.616C47.98 127.916 47.7467 127.375 47.28 126.992C46.8227 126.609 46.146 126.418 45.25 126.418H42.24L42.87 125.718V131.514ZM51.3041 135V127.58H52.5921V129.596L52.4661 129.092C52.6714 128.579 53.0167 128.187 53.5021 127.916C53.9874 127.645 54.5847 127.51 55.2941 127.51V128.812C55.2381 128.803 55.1821 128.798 55.1261 128.798C55.0794 128.798 55.0327 128.798 54.9861 128.798C54.2674 128.798 53.6981 129.013 53.2781 129.442C52.8581 129.871 52.6481 130.492 52.6481 131.304V135H51.3041ZM57.1506 135V127.58H58.4946V135H57.1506ZM57.8226 126.152C57.5612 126.152 57.3419 126.068 57.1646 125.9C56.9966 125.732 56.9126 125.527 56.9126 125.284C56.9126 125.032 56.9966 124.822 57.1646 124.654C57.3419 124.486 57.5612 124.402 57.8226 124.402C58.0839 124.402 58.2986 124.486 58.4666 124.654C58.6439 124.813 58.7326 125.013 58.7326 125.256C58.7326 125.508 58.6486 125.723 58.4806 125.9C58.3126 126.068 58.0932 126.152 57.8226 126.152ZM63.2067 135L59.9587 127.58H61.3587L64.2427 134.3H63.5707L66.5107 127.58H67.8267L64.5787 135H63.2067ZM73.6546 135V133.432L73.5846 133.138V130.464C73.5846 129.895 73.4166 129.456 73.0806 129.148C72.7539 128.831 72.2593 128.672 71.5966 128.672C71.1579 128.672 70.7286 128.747 70.3086 128.896C69.8886 129.036 69.5339 129.227 69.2446 129.47L68.6846 128.462C69.0673 128.154 69.5246 127.921 70.0566 127.762C70.5979 127.594 71.1626 127.51 71.7506 127.51C72.7679 127.51 73.5519 127.757 74.1026 128.252C74.6533 128.747 74.9286 129.503 74.9286 130.52V135H73.6546ZM71.2186 135.084C70.6679 135.084 70.1826 134.991 69.7626 134.804C69.3519 134.617 69.0346 134.361 68.8106 134.034C68.5866 133.698 68.4746 133.32 68.4746 132.9C68.4746 132.499 68.5679 132.135 68.7546 131.808C68.9506 131.481 69.2633 131.22 69.6926 131.024C70.1313 130.828 70.7193 130.73 71.4566 130.73H73.8086V131.696H71.5126C70.8406 131.696 70.3879 131.808 70.1546 132.032C69.9213 132.256 69.8046 132.527 69.8046 132.844C69.8046 133.208 69.9493 133.502 70.2386 133.726C70.5279 133.941 70.9293 134.048 71.4426 134.048C71.9466 134.048 72.3853 133.936 72.7586 133.712C73.1413 133.488 73.4166 133.161 73.5846 132.732L73.8506 133.656C73.6733 134.095 73.3606 134.445 72.9126 134.706C72.4646 134.958 71.8999 135.084 71.2186 135.084ZM80.8498 135.084C80.0938 135.084 79.4171 134.921 78.8198 134.594C78.2318 134.267 77.7698 133.819 77.4338 133.25C77.0978 132.681 76.9298 132.027 76.9298 131.29C76.9298 130.553 77.0978 129.899 77.4338 129.33C77.7698 128.761 78.2318 128.317 78.8198 128C79.4171 127.673 80.0938 127.51 80.8498 127.51C81.5218 127.51 82.1191 127.645 82.6418 127.916C83.1738 128.177 83.5845 128.569 83.8738 129.092L82.8518 129.75C82.6091 129.386 82.3105 129.12 81.9558 128.952C81.6105 128.775 81.2371 128.686 80.8358 128.686C80.3505 128.686 79.9165 128.793 79.5338 129.008C79.1511 129.223 78.8478 129.526 78.6238 129.918C78.3998 130.301 78.2878 130.758 78.2878 131.29C78.2878 131.822 78.3998 132.284 78.6238 132.676C78.8478 133.068 79.1511 133.371 79.5338 133.586C79.9165 133.801 80.3505 133.908 80.8358 133.908C81.2371 133.908 81.6105 133.824 81.9558 133.656C82.3105 133.479 82.6091 133.208 82.8518 132.844L83.8738 133.488C83.5845 134.001 83.1738 134.398 82.6418 134.678C82.1191 134.949 81.5218 135.084 80.8498 135.084ZM86.0401 137.8C85.6855 137.8 85.3401 137.739 85.0041 137.618C84.6681 137.506 84.3788 137.338 84.1361 137.114L84.7101 136.106C84.8968 136.283 85.1021 136.419 85.3261 136.512C85.5501 136.605 85.7881 136.652 86.0401 136.652C86.3668 136.652 86.6375 136.568 86.8521 136.4C87.0668 136.232 87.2675 135.933 87.4541 135.504L87.9161 134.482L88.0561 134.314L90.9681 127.58H92.2841L88.6861 135.742C88.4715 136.265 88.2288 136.675 87.9581 136.974C87.6968 137.273 87.4075 137.483 87.0901 137.604C86.7728 137.735 86.4228 137.8 86.0401 137.8ZM87.8041 135.238L84.4161 127.58H85.8161L88.7001 134.188L87.8041 135.238ZM96.4102 135L100.848 125.2H102.234L106.686 135H105.216L101.254 125.984H101.814L97.8522 135H96.4102ZM98.3002 132.55L98.6782 131.43H104.194L104.6 132.55H98.3002ZM111.318 135.084C110.562 135.084 109.885 134.921 109.288 134.594C108.7 134.267 108.238 133.819 107.902 133.25C107.566 132.681 107.398 132.027 107.398 131.29C107.398 130.553 107.566 129.899 107.902 129.33C108.238 128.761 108.7 128.317 109.288 128C109.885 127.673 110.562 127.51 111.318 127.51C111.99 127.51 112.587 127.645 113.11 127.916C113.642 128.177 114.052 128.569 114.342 129.092L113.32 129.75C113.077 129.386 112.778 129.12 112.424 128.952C112.078 128.775 111.705 128.686 111.304 128.686C110.818 128.686 110.384 128.793 110.002 129.008C109.619 129.223 109.316 129.526 109.092 129.918C108.868 130.301 108.756 130.758 108.756 131.29C108.756 131.822 108.868 132.284 109.092 132.676C109.316 133.068 109.619 133.371 110.002 133.586C110.384 133.801 110.818 133.908 111.304 133.908C111.705 133.908 112.078 133.824 112.424 133.656C112.778 133.479 113.077 133.208 113.32 132.844L114.342 133.488C114.052 134.001 113.642 134.398 113.11 134.678C112.587 134.949 111.99 135.084 111.318 135.084ZM118.926 135.084C118.179 135.084 117.6 134.883 117.19 134.482C116.779 134.081 116.574 133.507 116.574 132.76V125.956H117.918V132.704C117.918 133.105 118.016 133.413 118.212 133.628C118.417 133.843 118.706 133.95 119.08 133.95C119.5 133.95 119.85 133.833 120.13 133.6L120.55 134.566C120.344 134.743 120.097 134.874 119.808 134.958C119.528 135.042 119.234 135.084 118.926 135.084ZM115.314 128.686V127.58H120.046V128.686H115.314Z" fill="#19191F"/>
<g clip-path="url(#clip0_4189_12439)">
<path d="M55 70C63.2843 70 70 63.2843 70 55C70 46.7157 63.2843 40 55 40C46.7157 40 40 46.7157 40 55C40 63.2843 46.7157 70 55 70Z" fill="#F0F0F0"/>
<path d="M54.3478 55.001H70C70 53.6471 69.8195 52.3355 69.4833 51.0879H54.3478V55.001Z" fill="#D80027"/>
<path d="M54.3478 47.1748H67.7984C66.8802 45.6764 65.7061 44.352 64.3373 43.2617H54.3478V47.1748Z" fill="#D80027"/>
<path d="M55 70.0011C58.5302 70.0011 61.7749 68.7809 64.3373 66.7402H45.6627C48.225 68.7809 51.4698 70.0011 55 70.0011Z" fill="#D80027"/>
<path d="M42.2016 62.8271H67.7984C68.5356 61.6243 69.1073 60.3094 69.4833 58.9141H40.5167C40.8927 60.3094 41.4644 61.6243 42.2016 62.8271Z" fill="#D80027"/>
<path d="M46.9483 42.3425H48.3152L47.0437 43.2662L47.5294 44.7609L46.258 43.8371L44.9866 44.7609L45.4061 43.4696C44.2866 44.4021 43.3054 45.4947 42.4968 46.712H42.9348L42.1254 47.3C41.9993 47.5104 41.8784 47.7241 41.7625 47.9409L42.149 49.1304L41.4279 48.6065C41.2487 48.9863 41.0847 49.3746 40.9374 49.771L41.3632 51.0816H42.9348L41.6633 52.0053L42.149 53.5L40.8776 52.5763L40.116 53.1296C40.0397 53.7424 40 54.3665 40 55H55C55 46.7158 55 45.7391 55 40C52.0368 40 49.2745 40.8596 46.9483 42.3425ZM47.5294 53.5L46.258 52.5763L44.9866 53.5L45.4722 52.0053L44.2008 51.0816H45.7724L46.258 49.5869L46.7436 51.0816H48.3152L47.0437 52.0053L47.5294 53.5ZM47.0437 47.6358L47.5294 49.1304L46.258 48.2067L44.9866 49.1304L45.4722 47.6358L44.2008 46.712H45.7724L46.258 45.2174L46.7436 46.712H48.3152L47.0437 47.6358ZM52.9098 53.5L51.6384 52.5763L50.367 53.5L50.8527 52.0053L49.5812 51.0816H51.1528L51.6384 49.5869L52.124 51.0816H53.6956L52.4242 52.0053L52.9098 53.5ZM52.4242 47.6358L52.9098 49.1304L51.6384 48.2067L50.367 49.1304L50.8527 47.6358L49.5812 46.712H51.1528L51.6384 45.2174L52.124 46.712H53.6956L52.4242 47.6358ZM52.4242 43.2662L52.9098 44.7609L51.6384 43.8371L50.367 44.7609L50.8527 43.2662L49.5812 42.3425H51.1528L51.6384 40.8478L52.124 42.3425H53.6956L52.4242 43.2662Z" fill="#0052B4"/>
</g>
<path d="M248 54.5C248 53.0166 247.56 51.5666 246.736 50.3332C245.912 49.0999 244.741 48.1386 243.37 47.5709C242 47.0032 240.492 46.8547 239.037 47.1441C237.582 47.4335 236.246 48.1478 235.197 49.1967C234.148 50.2456 233.434 51.582 233.144 53.0368C232.855 54.4917 233.003 55.9997 233.571 57.3701C234.139 58.7406 235.1 59.9119 236.333 60.736C237.567 61.5601 239.017 62 240.5 62C242.488 61.9978 244.395 61.2069 245.801 59.8009C247.207 58.3948 247.998 56.4884 248 54.5ZM239.97 58.0303C239.9 57.9606 239.845 57.878 239.807 57.787C239.769 57.696 239.75 57.5985 239.75 57.5C239.75 57.4015 239.769 57.304 239.807 57.213C239.845 57.122 239.9 57.0393 239.97 56.9697L241.689 55.25H237.5C237.301 55.25 237.11 55.171 236.97 55.0303C236.829 54.8897 236.75 54.6989 236.75 54.5C236.75 54.3011 236.829 54.1103 236.97 53.9697C237.11 53.829 237.301 53.75 237.5 53.75H241.689L239.97 52.0303C239.831 51.8892 239.754 51.6991 239.755 51.5014C239.756 51.3037 239.835 51.1143 239.975 50.9745C240.114 50.8347 240.304 50.7558 240.501 50.7549C240.699 50.754 240.889 50.8312 241.03 50.9698L244.03 53.9695C244.17 54.1105 244.249 54.3012 244.249 54.5C244.249 54.6988 244.17 54.8895 244.03 55.0305L241.03 58.0303C240.961 58.0999 240.878 58.1552 240.787 58.1929C240.696 58.2306 240.598 58.25 240.5 58.25C240.402 58.25 240.304 58.2306 240.213 58.1929C240.122 58.1552 240.039 58.0999 239.97 58.0303Z" fill="#5B588F"/>
<defs>
<filter id="filter0_dd_4189_12439" x="0" y="0" width="290" height="182" filterUnits="userSpaceOnUse" color-interpolation-filters="sRGB">
<feFlood flood-opacity="0" result="BackgroundImageFix"/>
<feColorMatrix in="SourceAlpha" type="matrix" values="0 0 0 0 0 0 0 0 0 0 0 0 0 0 0 0 0 0 127 0" result="hardAlpha"/>
<feMorphology radius="2" operator="dilate" in="SourceAlpha" result="effect1_dropShadow_4189_12439"/>
<feOffset dx="4" dy="4"/>
<feGaussianBlur stdDeviation="8"/>
<feComposite in2="hardAlpha" operator="out"/>
<feColorMatrix type="matrix" values="0 0 0 0 1 0 0 0 0 1 0 0 0 0 1 0 0 0 0.25 0"/>
<feBlend mode="normal" in2="BackgroundImageFix" result="effect1_dropShadow_4189_12439"/>
<feColorMatrix in="SourceAlpha" type="matrix" values="0 0 0 0 0 0 0 0 0 0 0 0 0 0 0 0 0 0 127 0" result="hardAlpha"/>
<feOffset dx="-4" dy="-4"/>
<feGaussianBlur stdDeviation="8"/>
<feComposite in2="hardAlpha" operator="out"/>
<feColorMatrix type="matrix" values="0 0 0 0 1 0 0 0 0 1 0 0 0 0 1 0 0 0 0.25 0"/>
<feBlend mode="normal" in2="effect1_dropShadow_4189_12439" result="effect2_dropShadow_4189_12439"/>
<feBlend mode="normal" in="SourceGraphic" in2="effect2_dropShadow_4189_12439" result="shape"/>
</filter>
<clipPath id="clip0_4189_12439">
<rect width="30" height="30" fill="white" transform="translate(40 40)"/>
</clipPath>
</defs>
</svg>
