<svg width="290" height="132" viewBox="0 0 290 132" fill="none" xmlns="http://www.w3.org/2000/svg">
<g filter="url(#filter0_dd_4192_12456)">
<rect x="20" y="20" width="248" height="90" rx="10" fill="white"/>
</g>
<path d="M90.852 70.168C89.8533 70.168 88.948 69.9533 88.136 69.524C87.3333 69.0853 86.6987 68.4833 86.232 67.718C85.7747 66.9433 85.546 66.0707 85.546 65.1C85.546 64.1293 85.7747 63.2613 86.232 62.496C86.6987 61.7213 87.3333 61.1193 88.136 60.69C88.948 60.2513 89.858 60.032 90.866 60.032C91.7153 60.032 92.4807 60.1813 93.162 60.48C93.8527 60.7787 94.4313 61.208 94.898 61.768L93.442 63.112C92.7793 62.3467 91.958 61.964 90.978 61.964C90.3713 61.964 89.83 62.0993 89.354 62.37C88.878 62.6313 88.5047 63 88.234 63.476C87.9727 63.952 87.842 64.4933 87.842 65.1C87.842 65.7067 87.9727 66.248 88.234 66.724C88.5047 67.2 88.878 67.5733 89.354 67.844C89.83 68.1053 90.3713 68.236 90.978 68.236C91.958 68.236 92.7793 67.8487 93.442 67.074L94.898 68.418C94.4313 68.9873 93.8527 69.4213 93.162 69.72C92.4713 70.0187 91.7013 70.168 90.852 70.168ZM101.054 62.356C101.987 62.356 102.738 62.636 103.308 63.196C103.886 63.756 104.176 64.5867 104.176 65.688V70H101.992V66.024C101.992 65.4267 101.861 64.9833 101.6 64.694C101.338 64.3953 100.96 64.246 100.466 64.246C99.9149 64.246 99.4762 64.4187 99.1496 64.764C98.8229 65.1 98.6596 65.604 98.6596 66.276V70H96.4756V59.612H98.6596V63.252C98.9489 62.9627 99.2989 62.7433 99.7096 62.594C100.12 62.4353 100.568 62.356 101.054 62.356ZM106.355 62.468H108.539V70H106.355V62.468ZM107.447 61.418C107.046 61.418 106.719 61.3013 106.467 61.068C106.215 60.8347 106.089 60.5453 106.089 60.2C106.089 59.8547 106.215 59.5653 106.467 59.332C106.719 59.0987 107.046 58.982 107.447 58.982C107.849 58.982 108.175 59.094 108.427 59.318C108.679 59.542 108.805 59.822 108.805 60.158C108.805 60.522 108.679 60.8253 108.427 61.068C108.175 61.3013 107.849 61.418 107.447 61.418ZM115.344 62.356C116.278 62.356 117.029 62.636 117.598 63.196C118.177 63.756 118.466 64.5867 118.466 65.688V70H116.282V66.024C116.282 65.4267 116.152 64.9833 115.89 64.694C115.629 64.3953 115.251 64.246 114.756 64.246C114.206 64.246 113.767 64.4187 113.44 64.764C113.114 65.1 112.95 65.604 112.95 66.276V70H110.766V62.468H112.852V63.35C113.142 63.0327 113.501 62.79 113.93 62.622C114.36 62.4447 114.831 62.356 115.344 62.356ZM123.684 62.356C124.851 62.356 125.747 62.636 126.372 63.196C126.997 63.7467 127.31 64.582 127.31 65.702V70H125.266V69.062C124.855 69.762 124.09 70.112 122.97 70.112C122.391 70.112 121.887 70.014 121.458 69.818C121.038 69.622 120.716 69.3513 120.492 69.006C120.268 68.6607 120.156 68.2687 120.156 67.83C120.156 67.13 120.417 66.5793 120.94 66.178C121.472 65.7767 122.289 65.576 123.39 65.576H125.126C125.126 65.1 124.981 64.736 124.692 64.484C124.403 64.2227 123.969 64.092 123.39 64.092C122.989 64.092 122.592 64.1573 122.2 64.288C121.817 64.4093 121.491 64.5773 121.22 64.792L120.436 63.266C120.847 62.9767 121.337 62.7527 121.906 62.594C122.485 62.4353 123.077 62.356 123.684 62.356ZM123.516 68.642C123.889 68.642 124.221 68.558 124.51 68.39C124.799 68.2127 125.005 67.956 125.126 67.62V66.85H123.628C122.732 66.85 122.284 67.144 122.284 67.732C122.284 68.012 122.391 68.236 122.606 68.404C122.83 68.5627 123.133 68.642 123.516 68.642Z" fill="#19191F"/>
<path d="M248 64.5C248 63.0166 247.56 61.5666 246.736 60.3332C245.912 59.0999 244.741 58.1386 243.37 57.5709C242 57.0032 240.492 56.8547 239.037 57.1441C237.582 57.4335 236.246 58.1478 235.197 59.1967C234.148 60.2456 233.434 61.582 233.144 63.0368C232.855 64.4917 233.003 65.9997 233.571 67.3701C234.139 68.7406 235.1 69.9119 236.333 70.736C237.567 71.5601 239.017 72 240.5 72C242.488 71.9978 244.395 71.2069 245.801 69.8009C247.207 68.3948 247.998 66.4884 248 64.5ZM239.97 68.0303C239.9 67.9606 239.845 67.878 239.807 67.787C239.769 67.696 239.75 67.5985 239.75 67.5C239.75 67.4015 239.769 67.304 239.807 67.213C239.845 67.122 239.9 67.0393 239.97 66.9697L241.689 65.25H237.5C237.301 65.25 237.11 65.171 236.97 65.0303C236.829 64.8897 236.75 64.6989 236.75 64.5C236.75 64.3011 236.829 64.1103 236.97 63.9697C237.11 63.829 237.301 63.75 237.5 63.75H241.689L239.97 62.0303C239.831 61.8892 239.754 61.6991 239.755 61.5014C239.756 61.3037 239.835 61.1143 239.975 60.9745C240.114 60.8347 240.304 60.7558 240.501 60.7549C240.699 60.754 240.889 60.8312 241.03 60.9698L244.03 63.9695C244.17 64.1105 244.249 64.3012 244.249 64.5C244.249 64.6988 244.17 64.8895 244.03 65.0305L241.03 68.0303C240.961 68.0999 240.878 68.1552 240.787 68.1929C240.696 68.2306 240.598 68.25 240.5 68.25C240.402 68.25 240.304 68.2306 240.213 68.1929C240.122 68.1552 240.039 68.0999 239.97 68.0303Z" fill="#5B588F"/>
<path d="M55 80C63.2843 80 70 73.2843 70 65C70 56.7157 63.2843 50 55 50C46.7157 50 40 56.7157 40 65C40 73.2843 46.7157 80 55 80Z" fill="#D80027"/>
<path d="M48.209 59.1289L49.5039 63.1133H53.6934L50.3066 65.5801L51.6016 69.5645L48.209 67.1035L44.8164 69.5645L46.1172 65.5801L42.7246 63.1133H46.9141L48.209 59.1289Z" fill="#FFDA44"/>
<path d="M57.7832 73.2324L56.793 72.0137L55.3281 72.582L56.1777 71.2637L55.1875 70.0391L56.7051 70.4434L57.5605 69.125L57.6426 70.6953L59.166 71.0996L57.6953 71.6621L57.7832 73.2324Z" fill="#FFDA44"/>
<path d="M59.752 69.6582L60.2207 68.1582L58.9375 67.25L60.5078 67.2266L60.9707 65.7266L61.4805 67.2148L63.0508 67.1973L61.791 68.1348L62.2949 69.623L61.0117 68.7148L59.752 69.6582Z" fill="#FFDA44"/>
<path d="M62.4063 61.0098L61.7148 62.4219L62.8398 63.5176L61.2871 63.2949L60.5957 64.7012L60.3262 63.1543L58.7676 62.9316L60.1621 62.1992L59.8926 60.6465L61.0176 61.7422L62.4063 61.0098Z" fill="#FFDA44"/>
<path d="M57.8242 56.7324L57.707 58.2969L59.166 58.8887L57.6367 59.2637L57.5254 60.834L56.6992 59.498L55.1699 59.873L56.1836 58.6719L55.3516 57.3418L56.8105 57.9336L57.8242 56.7324Z" fill="#FFDA44"/>
<defs>
<filter id="filter0_dd_4192_12456" x="0" y="0" width="290" height="132" filterUnits="userSpaceOnUse" color-interpolation-filters="sRGB">
<feFlood flood-opacity="0" result="BackgroundImageFix"/>
<feColorMatrix in="SourceAlpha" type="matrix" values="0 0 0 0 0 0 0 0 0 0 0 0 0 0 0 0 0 0 127 0" result="hardAlpha"/>
<feMorphology radius="2" operator="dilate" in="SourceAlpha" result="effect1_dropShadow_4192_12456"/>
<feOffset dx="4" dy="4"/>
<feGaussianBlur stdDeviation="8"/>
<feComposite in2="hardAlpha" operator="out"/>
<feColorMatrix type="matrix" values="0 0 0 0 1 0 0 0 0 1 0 0 0 0 1 0 0 0 0.25 0"/>
<feBlend mode="normal" in2="BackgroundImageFix" result="effect1_dropShadow_4192_12456"/>
<feColorMatrix in="SourceAlpha" type="matrix" values="0 0 0 0 0 0 0 0 0 0 0 0 0 0 0 0 0 0 127 0" result="hardAlpha"/>
<feOffset dx="-4" dy="-4"/>
<feGaussianBlur stdDeviation="8"/>
<feComposite in2="hardAlpha" operator="out"/>
<feColorMatrix type="matrix" values="0 0 0 0 1 0 0 0 0 1 0 0 0 0 1 0 0 0 0.25 0"/>
<feBlend mode="normal" in2="effect1_dropShadow_4192_12456" result="effect2_dropShadow_4192_12456"/>
<feBlend mode="normal" in="SourceGraphic" in2="effect2_dropShadow_4192_12456" result="shape"/>
</filter>
</defs>
</svg>
