<svg width="290" height="182" viewBox="0 0 290 182" fill="none" xmlns="http://www.w3.org/2000/svg">
<g filter="url(#filter0_dd_4189_12445)">
<rect x="20" y="20" width="248" height="140" rx="10" fill="white"/>
</g>
<g clip-path="url(#clip0_4189_12445)">
<path d="M55 70C63.2843 70 70 63.2843 70 55C70 46.7157 63.2843 40 55 40C46.7157 40 40 46.7157 40 55C40 63.2843 46.7157 70 55 70Z" fill="#F0F0F0"/>
<path d="M48.4783 60.2168L49.7826 69.0666C51.4075 69.6696 53.1652 69.9994 55 69.9994C61.4494 69.9994 66.9476 65.9288 69.0669 60.2168H48.4783Z" fill="black"/>
<path d="M48.4783 49.7826L49.7826 40.9329C51.4075 40.3299 53.1652 40 55 40C61.4494 40 66.9476 44.0706 69.0669 49.7826H48.4783Z" fill="#6DA544"/>
<path d="M40 55.0006C40 61.4501 44.0707 66.9482 49.7826 69.0676V40.9336C44.0707 43.053 40 48.5511 40 55.0006Z" fill="#A2001D"/>
</g>
<path d="M41.162 94V84.2H45.614C46.678 84.2 47.616 84.4053 48.428 84.816C49.24 85.2173 49.8747 85.782 50.332 86.51C50.7893 87.238 51.018 88.1013 51.018 89.1C51.018 90.0893 50.7893 90.9527 50.332 91.69C49.8747 92.418 49.24 92.9873 48.428 93.398C47.616 93.7993 46.678 94 45.614 94H41.162ZM43.43 92.138H45.502C46.1553 92.138 46.72 92.0167 47.196 91.774C47.6813 91.522 48.0547 91.1673 48.316 90.71C48.5867 90.2527 48.722 89.716 48.722 89.1C48.722 88.4747 48.5867 87.938 48.316 87.49C48.0547 87.0327 47.6813 86.6827 47.196 86.44C46.72 86.188 46.1553 86.062 45.502 86.062H43.43V92.138ZM52.9284 94V84.2H55.1964V94H52.9284ZM59.8222 88.61H64.5262V90.43H59.8222V88.61ZM59.9902 94H57.7222V84.2H65.1282V86.02H59.9902V94ZM71.4579 94.168C70.7019 94.168 69.9972 94.0467 69.3439 93.804C68.6999 93.552 68.1399 93.1973 67.6639 92.74C67.1879 92.2827 66.8145 91.746 66.5439 91.13C66.2825 90.514 66.1519 89.8373 66.1519 89.1C66.1519 88.3627 66.2825 87.686 66.5439 87.07C66.8145 86.454 67.1879 85.9173 67.6639 85.46C68.1492 85.0027 68.7139 84.6527 69.3579 84.41C70.0019 84.158 70.7065 84.032 71.4719 84.032C72.3212 84.032 73.0865 84.1813 73.7679 84.48C74.4585 84.7693 75.0372 85.1987 75.5039 85.768L74.0479 87.112C73.7119 86.7293 73.3385 86.4447 72.9279 86.258C72.5172 86.062 72.0692 85.964 71.5839 85.964C71.1265 85.964 70.7065 86.0387 70.3239 86.188C69.9412 86.3373 69.6099 86.552 69.3299 86.832C69.0499 87.112 68.8305 87.4433 68.6719 87.826C68.5225 88.2087 68.4479 88.6333 68.4479 89.1C68.4479 89.5667 68.5225 89.9913 68.6719 90.374C68.8305 90.7567 69.0499 91.088 69.3299 91.368C69.6099 91.648 69.9412 91.8627 70.3239 92.012C70.7065 92.1613 71.1265 92.236 71.5839 92.236C72.0692 92.236 72.5172 92.1427 72.9279 91.956C73.3385 91.76 73.7119 91.466 74.0479 91.074L75.5039 92.418C75.0372 92.9873 74.4585 93.4213 73.7679 93.72C73.0865 94.0187 72.3165 94.168 71.4579 94.168ZM41.26 112V103.6H44.8C45.696 103.6 46.484 103.776 47.164 104.128C47.852 104.48 48.384 104.972 48.76 105.604C49.144 106.236 49.336 106.968 49.336 107.8C49.336 108.632 49.144 109.364 48.76 109.996C48.384 110.628 47.852 111.12 47.164 111.472C46.484 111.824 45.696 112 44.8 112H41.26ZM42.46 110.956H44.728C45.424 110.956 46.024 110.824 46.528 110.56C47.04 110.296 47.436 109.928 47.716 109.456C47.996 108.976 48.136 108.424 48.136 107.8C48.136 107.168 47.996 106.616 47.716 106.144C47.436 105.672 47.04 105.304 46.528 105.04C46.024 104.776 45.424 104.644 44.728 104.644H42.46V110.956ZM53.8821 112.072C53.3381 112.072 52.8581 111.972 52.4421 111.772C52.0341 111.572 51.7141 111.268 51.4821 110.86C51.2581 110.444 51.1461 109.924 51.1461 109.3V105.64H52.2981V109.168C52.2981 109.792 52.4461 110.26 52.7421 110.572C53.0461 110.884 53.4701 111.04 54.0141 111.04C54.4141 111.04 54.7621 110.96 55.0581 110.8C55.3541 110.632 55.5821 110.392 55.7421 110.08C55.9021 109.76 55.9821 109.376 55.9821 108.928V105.64H57.1341V112H56.0421V110.284L56.2221 110.74C56.0141 111.164 55.7021 111.492 55.2861 111.724C54.8701 111.956 54.4021 112.072 53.8821 112.072ZM62.8992 112.072C62.3552 112.072 61.8632 111.952 61.4232 111.712C60.9912 111.464 60.6472 111.1 60.3912 110.62C60.1432 110.14 60.0192 109.54 60.0192 108.82C60.0192 108.1 60.1472 107.5 60.4032 107.02C60.6672 106.54 61.0152 106.18 61.4472 105.94C61.8872 105.7 62.3712 105.58 62.8992 105.58C63.5232 105.58 64.0752 105.716 64.5552 105.988C65.0352 106.26 65.4152 106.64 65.6952 107.128C65.9752 107.608 66.1152 108.172 66.1152 108.82C66.1152 109.468 65.9752 110.036 65.6952 110.524C65.4152 111.012 65.0352 111.392 64.5552 111.664C64.0752 111.936 63.5232 112.072 62.8992 112.072ZM59.5272 112V103.096H60.6792V107.332L60.5592 108.808L60.6312 110.284V112H59.5272ZM62.8032 111.064C63.2112 111.064 63.5752 110.972 63.8952 110.788C64.2232 110.604 64.4792 110.344 64.6632 110.008C64.8552 109.664 64.9512 109.268 64.9512 108.82C64.9512 108.364 64.8552 107.972 64.6632 107.644C64.4792 107.308 64.2232 107.048 63.8952 106.864C63.5752 106.68 63.2112 106.588 62.8032 106.588C62.4032 106.588 62.0392 106.68 61.7112 106.864C61.3912 107.048 61.1352 107.308 60.9432 107.644C60.7592 107.972 60.6672 108.364 60.6672 108.82C60.6672 109.268 60.7592 109.664 60.9432 110.008C61.1352 110.344 61.3912 110.604 61.7112 110.788C62.0392 110.972 62.4032 111.064 62.8032 111.064ZM71.7963 112V110.656L71.7363 110.404V108.112C71.7363 107.624 71.5923 107.248 71.3043 106.984C71.0243 106.712 70.6003 106.576 70.0323 106.576C69.6563 106.576 69.2883 106.64 68.9283 106.768C68.5683 106.888 68.2643 107.052 68.0163 107.26L67.5363 106.396C67.8643 106.132 68.2563 105.932 68.7123 105.796C69.1763 105.652 69.6603 105.58 70.1643 105.58C71.0363 105.58 71.7083 105.792 72.1803 106.216C72.6523 106.64 72.8883 107.288 72.8883 108.16V112H71.7963ZM69.7083 112.072C69.2363 112.072 68.8203 111.992 68.4603 111.832C68.1083 111.672 67.8363 111.452 67.6443 111.172C67.4523 110.884 67.3563 110.56 67.3563 110.2C67.3563 109.856 67.4363 109.544 67.5963 109.264C67.7643 108.984 68.0323 108.76 68.4003 108.592C68.7763 108.424 69.2803 108.34 69.9123 108.34H71.9283V109.168H69.9603C69.3843 109.168 68.9963 109.264 68.7963 109.456C68.5963 109.648 68.4963 109.88 68.4963 110.152C68.4963 110.464 68.6203 110.716 68.8683 110.908C69.1163 111.092 69.4603 111.184 69.9003 111.184C70.3323 111.184 70.7083 111.088 71.0283 110.896C71.3563 110.704 71.5923 110.424 71.7363 110.056L71.9643 110.848C71.8123 111.224 71.5443 111.524 71.1603 111.748C70.7763 111.964 70.2923 112.072 69.7083 112.072ZM75.2201 112V105.64H76.3721V112H75.2201ZM75.7961 104.416C75.5721 104.416 75.3841 104.344 75.2321 104.2C75.0881 104.056 75.0161 103.88 75.0161 103.672C75.0161 103.456 75.0881 103.276 75.2321 103.132C75.3841 102.988 75.5721 102.916 75.7961 102.916C76.0201 102.916 76.2041 102.988 76.3481 103.132C76.5001 103.268 76.5761 103.44 76.5761 103.648C76.5761 103.864 76.5041 104.048 76.3601 104.2C76.2161 104.344 76.0281 104.416 75.7961 104.416ZM82.3623 112V103.6H85.9023C86.7983 103.6 87.5863 103.776 88.2663 104.128C88.9543 104.48 89.4863 104.972 89.8623 105.604C90.2463 106.236 90.4383 106.968 90.4383 107.8C90.4383 108.632 90.2463 109.364 89.8623 109.996C89.4863 110.628 88.9543 111.12 88.2663 111.472C87.5863 111.824 86.7983 112 85.9023 112H82.3623ZM83.5623 110.956H85.8303C86.5263 110.956 87.1263 110.824 87.6303 110.56C88.1423 110.296 88.5383 109.928 88.8183 109.456C89.0983 108.976 89.2383 108.424 89.2383 107.8C89.2383 107.168 89.0983 106.616 88.8183 106.144C88.5383 105.672 88.1423 105.304 87.6303 105.04C87.1263 104.776 86.5263 104.644 85.8303 104.644H83.5623V110.956ZM92.4764 112V103.6H93.6764V112H92.4764ZM97.4712 107.572H101.803V108.604H97.4712V107.572ZM97.5912 112H96.3912V103.6H102.319V104.644H97.5912V112ZM107.871 112.096C107.231 112.096 106.639 111.992 106.095 111.784C105.559 111.568 105.091 111.268 104.691 110.884C104.299 110.492 103.991 110.036 103.767 109.516C103.543 108.996 103.431 108.424 103.431 107.8C103.431 107.176 103.543 106.604 103.767 106.084C103.991 105.564 104.303 105.112 104.703 104.728C105.103 104.336 105.571 104.036 106.107 103.828C106.651 103.612 107.243 103.504 107.883 103.504C108.531 103.504 109.127 103.616 109.671 103.84C110.223 104.056 110.691 104.38 111.075 104.812L110.295 105.568C109.975 105.232 109.615 104.984 109.215 104.824C108.815 104.656 108.387 104.572 107.931 104.572C107.459 104.572 107.019 104.652 106.611 104.812C106.211 104.972 105.863 105.196 105.567 105.484C105.271 105.772 105.039 106.116 104.871 106.516C104.711 106.908 104.631 107.336 104.631 107.8C104.631 108.264 104.711 108.696 104.871 109.096C105.039 109.488 105.271 109.828 105.567 110.116C105.863 110.404 106.211 110.628 106.611 110.788C107.019 110.948 107.459 111.028 107.931 111.028C108.387 111.028 108.815 110.948 109.215 110.788C109.615 110.62 109.975 110.364 110.295 110.02L111.075 110.776C110.691 111.208 110.223 111.536 109.671 111.76C109.127 111.984 108.527 112.096 107.871 112.096ZM116.409 112V103.6H119.949C120.845 103.6 121.633 103.776 122.313 104.128C123.001 104.48 123.533 104.972 123.909 105.604C124.293 106.236 124.485 106.968 124.485 107.8C124.485 108.632 124.293 109.364 123.909 109.996C123.533 110.628 123.001 111.12 122.313 111.472C121.633 111.824 120.845 112 119.949 112H116.409ZM117.609 110.956H119.877C120.573 110.956 121.173 110.824 121.677 110.56C122.189 110.296 122.585 109.928 122.865 109.456C123.145 108.976 123.285 108.424 123.285 107.8C123.285 107.168 123.145 106.616 122.865 106.144C122.585 105.672 122.189 105.304 121.677 105.04C121.173 104.776 120.573 104.644 119.877 104.644H117.609V110.956ZM130.303 112V110.656L130.243 110.404V108.112C130.243 107.624 130.099 107.248 129.811 106.984C129.531 106.712 129.107 106.576 128.539 106.576C128.163 106.576 127.795 106.64 127.435 106.768C127.075 106.888 126.771 107.052 126.523 107.26L126.043 106.396C126.371 106.132 126.763 105.932 127.219 105.796C127.683 105.652 128.167 105.58 128.671 105.58C129.543 105.58 130.215 105.792 130.687 106.216C131.159 106.64 131.395 107.288 131.395 108.16V112H130.303ZM128.215 112.072C127.743 112.072 127.327 111.992 126.967 111.832C126.615 111.672 126.343 111.452 126.151 111.172C125.959 110.884 125.863 110.56 125.863 110.2C125.863 109.856 125.943 109.544 126.103 109.264C126.271 108.984 126.539 108.76 126.907 108.592C127.283 108.424 127.787 108.34 128.419 108.34H130.435V109.168H128.467C127.891 109.168 127.503 109.264 127.303 109.456C127.103 109.648 127.003 109.88 127.003 110.152C127.003 110.464 127.127 110.716 127.375 110.908C127.623 111.092 127.967 111.184 128.407 111.184C128.839 111.184 129.215 111.088 129.535 110.896C129.863 110.704 130.099 110.424 130.243 110.056L130.471 110.848C130.319 111.224 130.051 111.524 129.667 111.748C129.283 111.964 128.799 112.072 128.215 112.072ZM135.911 112.072C135.271 112.072 134.775 111.9 134.423 111.556C134.071 111.212 133.895 110.72 133.895 110.08V104.248H135.047V110.032C135.047 110.376 135.131 110.64 135.299 110.824C135.475 111.008 135.723 111.1 136.043 111.1C136.403 111.1 136.703 111 136.943 110.8L137.303 111.628C137.127 111.78 136.915 111.892 136.667 111.964C136.427 112.036 136.175 112.072 135.911 112.072ZM132.815 106.588V105.64H136.871V106.588H132.815ZM142.844 112V110.656L142.784 110.404V108.112C142.784 107.624 142.64 107.248 142.352 106.984C142.072 106.712 141.648 106.576 141.08 106.576C140.704 106.576 140.336 106.64 139.976 106.768C139.616 106.888 139.312 107.052 139.064 107.26L138.584 106.396C138.912 106.132 139.304 105.932 139.76 105.796C140.224 105.652 140.708 105.58 141.212 105.58C142.084 105.58 142.756 105.792 143.228 106.216C143.7 106.64 143.936 107.288 143.936 108.16V112H142.844ZM140.756 112.072C140.284 112.072 139.868 111.992 139.508 111.832C139.156 111.672 138.884 111.452 138.692 111.172C138.5 110.884 138.404 110.56 138.404 110.2C138.404 109.856 138.484 109.544 138.644 109.264C138.812 108.984 139.08 108.76 139.448 108.592C139.824 108.424 140.328 108.34 140.96 108.34H142.976V109.168H141.008C140.432 109.168 140.044 109.264 139.844 109.456C139.644 109.648 139.544 109.88 139.544 110.152C139.544 110.464 139.668 110.716 139.916 110.908C140.164 111.092 140.508 111.184 140.948 111.184C141.38 111.184 141.756 111.088 142.076 110.896C142.404 110.704 142.64 110.424 142.784 110.056L143.012 110.848C142.86 111.224 142.592 111.524 142.208 111.748C141.824 111.964 141.34 112.072 140.756 112.072ZM149.858 112V103.6H153.134C153.87 103.6 154.498 103.716 155.018 103.948C155.538 104.18 155.938 104.516 156.218 104.956C156.498 105.396 156.638 105.92 156.638 106.528C156.638 107.136 156.498 107.66 156.218 108.1C155.938 108.532 155.538 108.868 155.018 109.108C154.498 109.34 153.87 109.456 153.134 109.456H150.518L151.058 108.892V112H149.858ZM151.058 109.012L150.518 108.412H153.098C153.866 108.412 154.446 108.248 154.838 107.92C155.238 107.592 155.438 107.128 155.438 106.528C155.438 105.928 155.238 105.464 154.838 105.136C154.446 104.808 153.866 104.644 153.098 104.644H150.518L151.058 104.044V109.012ZM158.316 112V105.64H159.42V107.368L159.312 106.936C159.488 106.496 159.784 106.16 160.2 105.928C160.616 105.696 161.128 105.58 161.736 105.58V106.696C161.688 106.688 161.64 106.684 161.592 106.684C161.552 106.684 161.512 106.684 161.472 106.684C160.856 106.684 160.368 106.868 160.008 107.236C159.648 107.604 159.468 108.136 159.468 108.832V112H158.316ZM166.021 112.072C165.381 112.072 164.813 111.932 164.317 111.652C163.821 111.372 163.429 110.988 163.141 110.5C162.853 110.004 162.709 109.444 162.709 108.82C162.709 108.188 162.853 107.628 163.141 107.14C163.429 106.652 163.821 106.272 164.317 106C164.813 105.72 165.381 105.58 166.021 105.58C166.653 105.58 167.217 105.72 167.713 106C168.217 106.272 168.609 106.652 168.889 107.14C169.177 107.62 169.321 108.18 169.321 108.82C169.321 109.452 169.177 110.012 168.889 110.5C168.609 110.988 168.217 111.372 167.713 111.652C167.217 111.932 166.653 112.072 166.021 112.072ZM166.021 111.064C166.429 111.064 166.793 110.972 167.113 110.788C167.441 110.604 167.697 110.344 167.881 110.008C168.065 109.664 168.157 109.268 168.157 108.82C168.157 108.364 168.065 107.972 167.881 107.644C167.697 107.308 167.441 107.048 167.113 106.864C166.793 106.68 166.429 106.588 166.021 106.588C165.613 106.588 165.249 106.68 164.929 106.864C164.609 107.048 164.353 107.308 164.161 107.644C163.969 107.972 163.873 108.364 163.873 108.82C163.873 109.268 163.969 109.664 164.161 110.008C164.353 110.344 164.609 110.604 164.929 110.788C165.249 110.972 165.613 111.064 166.021 111.064ZM173.299 112.072C172.659 112.072 172.163 111.9 171.811 111.556C171.459 111.212 171.283 110.72 171.283 110.08V104.248H172.435V110.032C172.435 110.376 172.519 110.64 172.687 110.824C172.863 111.008 173.111 111.1 173.431 111.1C173.791 111.1 174.091 111 174.331 110.8L174.691 111.628C174.515 111.78 174.303 111.892 174.055 111.964C173.815 112.036 173.563 112.072 173.299 112.072ZM170.203 106.588V105.64H174.259V106.588H170.203ZM178.904 112.072C178.224 112.072 177.624 111.932 177.104 111.652C176.592 111.372 176.192 110.988 175.904 110.5C175.624 110.012 175.484 109.452 175.484 108.82C175.484 108.188 175.62 107.628 175.892 107.14C176.172 106.652 176.552 106.272 177.032 106C177.52 105.72 178.068 105.58 178.676 105.58C179.292 105.58 179.836 105.716 180.308 105.988C180.78 106.26 181.148 106.644 181.412 107.14C181.684 107.628 181.82 108.2 181.82 108.856C181.82 108.904 181.816 108.96 181.808 109.024C181.808 109.088 181.804 109.148 181.796 109.204H176.384V108.376H181.196L180.728 108.664C180.736 108.256 180.652 107.892 180.476 107.572C180.3 107.252 180.056 107.004 179.744 106.828C179.44 106.644 179.084 106.552 178.676 106.552C178.276 106.552 177.92 106.644 177.608 106.828C177.296 107.004 177.052 107.256 176.876 107.584C176.7 107.904 176.612 108.272 176.612 108.688V108.88C176.612 109.304 176.708 109.684 176.9 110.02C177.1 110.348 177.376 110.604 177.728 110.788C178.08 110.972 178.484 111.064 178.94 111.064C179.316 111.064 179.656 111 179.96 110.872C180.272 110.744 180.544 110.552 180.776 110.296L181.412 111.04C181.124 111.376 180.764 111.632 180.332 111.808C179.908 111.984 179.432 112.072 178.904 112.072ZM186.392 112.072C185.744 112.072 185.164 111.932 184.652 111.652C184.148 111.372 183.752 110.988 183.464 110.5C183.176 110.012 183.032 109.452 183.032 108.82C183.032 108.188 183.176 107.628 183.464 107.14C183.752 106.652 184.148 106.272 184.652 106C185.164 105.72 185.744 105.58 186.392 105.58C186.968 105.58 187.48 105.696 187.928 105.928C188.384 106.152 188.736 106.488 188.984 106.936L188.108 107.5C187.9 107.188 187.644 106.96 187.34 106.816C187.044 106.664 186.724 106.588 186.38 106.588C185.964 106.588 185.592 106.68 185.264 106.864C184.936 107.048 184.676 107.308 184.484 107.644C184.292 107.972 184.196 108.364 184.196 108.82C184.196 109.276 184.292 109.672 184.484 110.008C184.676 110.344 184.936 110.604 185.264 110.788C185.592 110.972 185.964 111.064 186.38 111.064C186.724 111.064 187.044 110.992 187.34 110.848C187.644 110.696 187.9 110.464 188.108 110.152L188.984 110.704C188.736 111.144 188.384 111.484 187.928 111.724C187.48 111.956 186.968 112.072 186.392 112.072ZM192.942 112.072C192.302 112.072 191.806 111.9 191.454 111.556C191.102 111.212 190.926 110.72 190.926 110.08V104.248H192.078V110.032C192.078 110.376 192.162 110.64 192.33 110.824C192.506 111.008 192.754 111.1 193.074 111.1C193.434 111.1 193.734 111 193.974 110.8L194.334 111.628C194.158 111.78 193.946 111.892 193.698 111.964C193.458 112.036 193.206 112.072 192.942 112.072ZM189.846 106.588V105.64H193.902V106.588H189.846ZM195.926 112V105.64H197.078V112H195.926ZM196.502 104.416C196.278 104.416 196.09 104.344 195.938 104.2C195.794 104.056 195.722 103.88 195.722 103.672C195.722 103.456 195.794 103.276 195.938 103.132C196.09 102.988 196.278 102.916 196.502 102.916C196.726 102.916 196.91 102.988 197.054 103.132C197.206 103.268 197.282 103.44 197.282 103.648C197.282 103.864 197.21 104.048 197.066 104.2C196.922 104.344 196.734 104.416 196.502 104.416ZM202.202 112.072C201.562 112.072 200.994 111.932 200.498 111.652C200.002 111.372 199.61 110.988 199.322 110.5C199.034 110.004 198.89 109.444 198.89 108.82C198.89 108.188 199.034 107.628 199.322 107.14C199.61 106.652 200.002 106.272 200.498 106C200.994 105.72 201.562 105.58 202.202 105.58C202.834 105.58 203.398 105.72 203.894 106C204.398 106.272 204.79 106.652 205.07 107.14C205.358 107.62 205.502 108.18 205.502 108.82C205.502 109.452 205.358 110.012 205.07 110.5C204.79 110.988 204.398 111.372 203.894 111.652C203.398 111.932 202.834 112.072 202.202 112.072ZM202.202 111.064C202.61 111.064 202.974 110.972 203.294 110.788C203.622 110.604 203.878 110.344 204.062 110.008C204.246 109.664 204.338 109.268 204.338 108.82C204.338 108.364 204.246 107.972 204.062 107.644C203.878 107.308 203.622 107.048 203.294 106.864C202.974 106.68 202.61 106.588 202.202 106.588C201.794 106.588 201.43 106.68 201.11 106.864C200.79 107.048 200.534 107.308 200.342 107.644C200.15 107.972 200.054 108.364 200.054 108.82C200.054 109.268 200.15 109.664 200.342 110.008C200.534 110.344 200.79 110.604 201.11 110.788C201.43 110.972 201.794 111.064 202.202 111.064ZM210.691 105.58C211.211 105.58 211.667 105.68 212.059 105.88C212.459 106.08 212.771 106.384 212.995 106.792C213.219 107.2 213.331 107.716 213.331 108.34V112H212.179V108.472C212.179 107.856 212.027 107.392 211.723 107.08C211.427 106.768 211.007 106.612 210.463 106.612C210.055 106.612 209.699 106.692 209.395 106.852C209.091 107.012 208.855 107.248 208.687 107.56C208.527 107.872 208.447 108.26 208.447 108.724V112H207.295V105.64H208.399V107.356L208.219 106.9C208.427 106.484 208.747 106.16 209.179 105.928C209.611 105.696 210.115 105.58 210.691 105.58ZM219.254 112V103.6H220.454V110.956H225.002V112H219.254ZM230.359 112V110.656L230.299 110.404V108.112C230.299 107.624 230.155 107.248 229.867 106.984C229.587 106.712 229.163 106.576 228.595 106.576C228.219 106.576 227.851 106.64 227.491 106.768C227.131 106.888 226.827 107.052 226.579 107.26L226.099 106.396C226.427 106.132 226.819 105.932 227.275 105.796C227.739 105.652 228.223 105.58 228.727 105.58C229.599 105.58 230.271 105.792 230.743 106.216C231.215 106.64 231.451 107.288 231.451 108.16V112H230.359ZM228.271 112.072C227.799 112.072 227.383 111.992 227.023 111.832C226.671 111.672 226.399 111.452 226.207 111.172C226.015 110.884 225.919 110.56 225.919 110.2C225.919 109.856 225.999 109.544 226.159 109.264C226.327 108.984 226.595 108.76 226.963 108.592C227.339 108.424 227.843 108.34 228.475 108.34H230.491V109.168H228.523C227.947 109.168 227.559 109.264 227.359 109.456C227.159 109.648 227.059 109.88 227.059 110.152C227.059 110.464 227.183 110.716 227.431 110.908C227.679 111.092 228.023 111.184 228.463 111.184C228.895 111.184 229.271 111.088 229.591 110.896C229.919 110.704 230.155 110.424 230.299 110.056L230.527 110.848C230.375 111.224 230.107 111.524 229.723 111.748C229.339 111.964 228.855 112.072 228.271 112.072ZM235.009 112L232.645 105.64H233.737L235.837 111.4H235.321L237.505 105.64H238.477L240.613 111.4H240.109L242.257 105.64H243.289L240.913 112H239.809L237.805 106.744H238.141L236.113 112H235.009Z" fill="#19191F"/>
<path d="M248 54.5C248 53.0166 247.56 51.5666 246.736 50.3332C245.912 49.0999 244.741 48.1386 243.37 47.5709C242 47.0032 240.492 46.8547 239.037 47.1441C237.582 47.4335 236.246 48.1478 235.197 49.1967C234.148 50.2456 233.434 51.582 233.144 53.0368C232.855 54.4917 233.003 55.9997 233.571 57.3701C234.139 58.7406 235.1 59.9119 236.333 60.736C237.567 61.5601 239.017 62 240.5 62C242.488 61.9978 244.395 61.2069 245.801 59.8009C247.207 58.3948 247.998 56.4884 248 54.5ZM239.97 58.0303C239.9 57.9606 239.845 57.878 239.807 57.787C239.769 57.696 239.75 57.5985 239.75 57.5C239.75 57.4015 239.769 57.304 239.807 57.213C239.845 57.122 239.9 57.0393 239.97 56.9697L241.689 55.25H237.5C237.301 55.25 237.11 55.171 236.97 55.0303C236.829 54.8897 236.75 54.6989 236.75 54.5C236.75 54.3011 236.829 54.1103 236.97 53.9697C237.11 53.829 237.301 53.75 237.5 53.75H241.689L239.97 52.0303C239.831 51.8892 239.754 51.6991 239.755 51.5014C239.756 51.3037 239.835 51.1143 239.975 50.9745C240.114 50.8347 240.304 50.7558 240.501 50.7549C240.699 50.754 240.889 50.8312 241.03 50.9698L244.03 53.9695C244.17 54.1105 244.249 54.3012 244.249 54.5C244.249 54.6988 244.17 54.8895 244.03 55.0305L241.03 58.0303C240.961 58.0999 240.878 58.1552 240.787 58.1929C240.696 58.2306 240.598 58.25 240.5 58.25C240.402 58.25 240.304 58.2306 240.213 58.1929C240.122 58.1552 240.039 58.0999 239.97 58.0303Z" fill="#5B588F"/>
<defs>
<filter id="filter0_dd_4189_12445" x="0" y="0" width="290" height="182" filterUnits="userSpaceOnUse" color-interpolation-filters="sRGB">
<feFlood flood-opacity="0" result="BackgroundImageFix"/>
<feColorMatrix in="SourceAlpha" type="matrix" values="0 0 0 0 0 0 0 0 0 0 0 0 0 0 0 0 0 0 127 0" result="hardAlpha"/>
<feMorphology radius="2" operator="dilate" in="SourceAlpha" result="effect1_dropShadow_4189_12445"/>
<feOffset dx="4" dy="4"/>
<feGaussianBlur stdDeviation="8"/>
<feComposite in2="hardAlpha" operator="out"/>
<feColorMatrix type="matrix" values="0 0 0 0 1 0 0 0 0 1 0 0 0 0 1 0 0 0 0.25 0"/>
<feBlend mode="normal" in2="BackgroundImageFix" result="effect1_dropShadow_4189_12445"/>
<feColorMatrix in="SourceAlpha" type="matrix" values="0 0 0 0 0 0 0 0 0 0 0 0 0 0 0 0 0 0 127 0" result="hardAlpha"/>
<feOffset dx="-4" dy="-4"/>
<feGaussianBlur stdDeviation="8"/>
<feComposite in2="hardAlpha" operator="out"/>
<feColorMatrix type="matrix" values="0 0 0 0 1 0 0 0 0 1 0 0 0 0 1 0 0 0 0.25 0"/>
<feBlend mode="normal" in2="effect1_dropShadow_4189_12445" result="effect2_dropShadow_4189_12445"/>
<feBlend mode="normal" in="SourceGraphic" in2="effect2_dropShadow_4189_12445" result="shape"/>
</filter>
<clipPath id="clip0_4189_12445">
<rect width="30" height="30" fill="white" transform="translate(40 40)"/>
</clipPath>
</defs>
</svg>
