<svg width="290" height="182" viewBox="0 0 290 182" fill="none" xmlns="http://www.w3.org/2000/svg">
<g filter="url(#filter0_dd_4190_12454)">
<rect x="20" y="20" width="248" height="140" rx="10" fill="white"/>
</g>
<path d="M55 70C63.2843 70 70 63.2843 70 55C70 46.7157 63.2843 40 55 40C46.7157 40 40 46.7157 40 55C40 63.2843 46.7157 70 55 70Z" fill="#F0F0F0"/>
<path d="M70 55.0005C70 48.5511 65.9294 43.0529 60.2174 40.9336V69.0677C65.9294 66.9482 70 61.4501 70 55.0005Z" fill="#FF9811"/>
<path d="M40 55.0005C40 61.4501 44.0706 66.9482 49.7826 69.0676V40.9336C44.0706 43.0529 40 48.5511 40 55.0005Z" fill="#6DA544"/>
<path d="M41.162 94V84.2H43.43V94H41.162ZM45.8017 94V86.468H47.8878V88.596L47.5937 87.98C47.8177 87.448 48.1771 87.0467 48.6717 86.776C49.1664 86.496 49.7684 86.356 50.4778 86.356V88.372C50.3844 88.3627 50.3004 88.358 50.2257 88.358C50.1511 88.3487 50.0718 88.344 49.9878 88.344C49.3904 88.344 48.9051 88.5167 48.5318 88.862C48.1678 89.198 47.9858 89.7253 47.9858 90.444V94H45.8017ZM51.99 94V86.468H54.174V94H51.99ZM53.082 85.418C52.6807 85.418 52.354 85.3013 52.102 85.068C51.85 84.8347 51.724 84.5453 51.724 84.2C51.724 83.8547 51.85 83.5653 52.102 83.332C52.354 83.0987 52.6807 82.982 53.082 82.982C53.4834 82.982 53.81 83.094 54.062 83.318C54.314 83.5327 54.44 83.8127 54.44 84.158C54.44 84.522 54.314 84.8253 54.062 85.068C53.8194 85.3013 53.4927 85.418 53.082 85.418ZM58.935 94.112C58.291 94.112 57.6703 94.0373 57.073 93.888C56.485 93.7293 56.0183 93.5333 55.673 93.3L56.401 91.732C56.7463 91.9467 57.1523 92.124 57.619 92.264C58.095 92.3947 58.5616 92.46 59.019 92.46C59.523 92.46 59.8776 92.3993 60.083 92.278C60.2976 92.1567 60.405 91.9887 60.405 91.774C60.405 91.5967 60.321 91.466 60.153 91.382C59.9943 91.2887 59.7796 91.2187 59.509 91.172C59.2383 91.1253 58.9396 91.0787 58.613 91.032C58.2956 90.9853 57.9736 90.9247 57.647 90.85C57.3203 90.766 57.0216 90.6447 56.751 90.486C56.4803 90.3273 56.261 90.1127 56.093 89.842C55.9343 89.5713 55.855 89.2213 55.855 88.792C55.855 88.316 55.9903 87.896 56.261 87.532C56.541 87.168 56.9423 86.8833 57.465 86.678C57.9876 86.4633 58.613 86.356 59.341 86.356C59.8543 86.356 60.377 86.412 60.909 86.524C61.441 86.636 61.8843 86.7993 62.239 87.014L61.511 88.568C61.147 88.3533 60.7783 88.2087 60.405 88.134C60.041 88.05 59.6863 88.008 59.341 88.008C58.8556 88.008 58.501 88.0733 58.277 88.204C58.053 88.3347 57.941 88.5027 57.941 88.708C57.941 88.8947 58.0203 89.0347 58.179 89.128C58.347 89.2213 58.5663 89.296 58.837 89.352C59.1076 89.408 59.4016 89.4593 59.719 89.506C60.0456 89.5433 60.3723 89.604 60.699 89.688C61.0256 89.772 61.3196 89.8933 61.581 90.052C61.8516 90.2013 62.071 90.4113 62.239 90.682C62.407 90.9433 62.491 91.2887 62.491 91.718C62.491 92.1847 62.351 92.6 62.071 92.964C61.791 93.3187 61.385 93.5987 60.853 93.804C60.3303 94.0093 59.691 94.112 58.935 94.112ZM68.6165 86.356C69.2138 86.356 69.7458 86.4773 70.2125 86.72C70.6885 86.9533 71.0618 87.3173 71.3325 87.812C71.6031 88.2973 71.7385 88.9227 71.7385 89.688V94H69.5545V90.024C69.5545 89.4173 69.4191 88.9693 69.1485 88.68C68.8871 88.3907 68.5138 88.246 68.0285 88.246C67.6831 88.246 67.3705 88.3207 67.0905 88.47C66.8198 88.61 66.6051 88.8293 66.4465 89.128C66.2971 89.4267 66.2225 89.8093 66.2225 90.276V94H64.0385V83.612H66.2225V88.554L65.7325 87.924C66.0031 87.42 66.3905 87.0327 66.8945 86.762C67.3985 86.4913 67.9725 86.356 68.6165 86.356ZM78.237 94V84.2H82.689C83.753 84.2 84.691 84.4053 85.503 84.816C86.315 85.2173 86.9497 85.782 87.407 86.51C87.8643 87.238 88.093 88.1013 88.093 89.1C88.093 90.0893 87.8643 90.9527 87.407 91.69C86.9497 92.418 86.315 92.9873 85.503 93.398C84.691 93.7993 83.753 94 82.689 94H78.237ZM80.505 92.138H82.577C83.2303 92.138 83.795 92.0167 84.271 91.774C84.7563 91.522 85.1297 91.1673 85.391 90.71C85.6617 90.2527 85.797 89.716 85.797 89.1C85.797 88.4747 85.6617 87.938 85.391 87.49C85.1297 87.0327 84.7563 86.6827 84.271 86.44C83.795 86.188 83.2303 86.062 82.577 86.062H80.505V92.138ZM90.0034 94V84.2H94.2454C95.1227 84.2 95.8787 84.3447 96.5134 84.634C97.1481 84.914 97.6381 85.32 97.9834 85.852C98.3287 86.384 98.5014 87.0187 98.5014 87.756C98.5014 88.484 98.3287 89.114 97.9834 89.646C97.6381 90.178 97.1481 90.5887 96.5134 90.878C95.8787 91.158 95.1227 91.298 94.2454 91.298H91.2634L92.2714 90.276V94H90.0034ZM92.2714 90.528L91.2634 89.45H94.1194C94.8194 89.45 95.3421 89.3007 95.6874 89.002C96.0327 88.7033 96.2054 88.288 96.2054 87.756C96.2054 87.2147 96.0327 86.7947 95.6874 86.496C95.3421 86.1973 94.8194 86.048 94.1194 86.048H91.2634L92.2714 84.97V90.528ZM98.5404 94L102.908 84.2H105.148L109.53 94H107.15L103.566 85.348H104.462L100.864 94H98.5404ZM100.724 91.9L101.326 90.178H106.366L106.982 91.9H100.724ZM42.928 112V104.644H40.048V103.6H46.996V104.644H44.116V112H42.928ZM51.731 105.58C52.251 105.58 52.707 105.68 53.099 105.88C53.499 106.08 53.811 106.384 54.035 106.792C54.259 107.2 54.371 107.716 54.371 108.34V112H53.219V108.472C53.219 107.856 53.067 107.392 52.763 107.08C52.467 106.768 52.047 106.612 51.503 106.612C51.095 106.612 50.739 106.692 50.435 106.852C50.131 107.012 49.895 107.248 49.727 107.56C49.567 107.872 49.487 108.26 49.487 108.724V112H48.335V103.096H49.487V107.356L49.259 106.9C49.467 106.484 49.787 106.16 50.219 105.928C50.651 105.696 51.155 105.58 51.731 105.58ZM59.5349 112.072C58.8549 112.072 58.2549 111.932 57.7349 111.652C57.2229 111.372 56.8229 110.988 56.5349 110.5C56.2549 110.012 56.1149 109.452 56.1149 108.82C56.1149 108.188 56.2509 107.628 56.5229 107.14C56.8029 106.652 57.1829 106.272 57.6629 106C58.1509 105.72 58.6989 105.58 59.3069 105.58C59.9229 105.58 60.4669 105.716 60.9389 105.988C61.4109 106.26 61.7789 106.644 62.0429 107.14C62.3149 107.628 62.4509 108.2 62.4509 108.856C62.4509 108.904 62.4469 108.96 62.4389 109.024C62.4389 109.088 62.4349 109.148 62.4269 109.204H57.0149V108.376H61.8269L61.3589 108.664C61.3669 108.256 61.2829 107.892 61.1069 107.572C60.9309 107.252 60.6869 107.004 60.3749 106.828C60.0709 106.644 59.7149 106.552 59.3069 106.552C58.9069 106.552 58.5509 106.644 58.2389 106.828C57.9269 107.004 57.6829 107.256 57.5069 107.584C57.3309 107.904 57.2429 108.272 57.2429 108.688V108.88C57.2429 109.304 57.3389 109.684 57.5309 110.02C57.7309 110.348 58.0069 110.604 58.3589 110.788C58.7109 110.972 59.1149 111.064 59.5709 111.064C59.9469 111.064 60.2869 111 60.5909 110.872C60.9029 110.744 61.1749 110.552 61.4069 110.296L62.0429 111.04C61.7549 111.376 61.3949 111.632 60.9629 111.808C60.5389 111.984 60.0629 112.072 59.5349 112.072ZM67.8412 112V103.6H69.0412V112H67.8412ZM71.5881 112V105.64H72.6921V107.368L72.5841 106.936C72.7601 106.496 73.0561 106.16 73.4721 105.928C73.8881 105.696 74.4001 105.58 75.0081 105.58V106.696C74.9601 106.688 74.9121 106.684 74.8641 106.684C74.8241 106.684 74.7841 106.684 74.7441 106.684C74.1281 106.684 73.6401 106.868 73.2801 107.236C72.9201 107.604 72.7401 108.136 72.7401 108.832V112H71.5881ZM76.6279 112V105.64H77.7799V112H76.6279ZM77.2039 104.416C76.9799 104.416 76.7919 104.344 76.6399 104.2C76.4959 104.056 76.4239 103.88 76.4239 103.672C76.4239 103.456 76.4959 103.276 76.6399 103.132C76.7919 102.988 76.9799 102.916 77.2039 102.916C77.4279 102.916 77.6119 102.988 77.7559 103.132C77.9079 103.268 77.9839 103.44 77.9839 103.648C77.9839 103.864 77.9119 104.048 77.7679 104.2C77.6239 104.344 77.4359 104.416 77.2039 104.416ZM82.0035 112.072C81.4755 112.072 80.9715 112 80.4915 111.856C80.0195 111.712 79.6475 111.536 79.3755 111.328L79.8555 110.416C80.1275 110.6 80.4635 110.756 80.8635 110.884C81.2635 111.012 81.6715 111.076 82.0875 111.076C82.6235 111.076 83.0075 111 83.2395 110.848C83.4795 110.696 83.5995 110.484 83.5995 110.212C83.5995 110.012 83.5275 109.856 83.3835 109.744C83.2395 109.632 83.0475 109.548 82.8075 109.492C82.5755 109.436 82.3155 109.388 82.0275 109.348C81.7395 109.3 81.4515 109.244 81.1635 109.18C80.8755 109.108 80.6115 109.012 80.3715 108.892C80.1315 108.764 79.9395 108.592 79.7955 108.376C79.6515 108.152 79.5795 107.856 79.5795 107.488C79.5795 107.104 79.6875 106.768 79.9035 106.48C80.1195 106.192 80.4235 105.972 80.8155 105.82C81.2155 105.66 81.6875 105.58 82.2315 105.58C82.6475 105.58 83.0675 105.632 83.4915 105.736C83.9235 105.832 84.2755 105.972 84.5475 106.156L84.0555 107.068C83.7675 106.876 83.4675 106.744 83.1555 106.672C82.8435 106.6 82.5315 106.564 82.2195 106.564C81.7155 106.564 81.3395 106.648 81.0915 106.816C80.8435 106.976 80.7195 107.184 80.7195 107.44C80.7195 107.656 80.7915 107.824 80.9355 107.944C81.0875 108.056 81.2795 108.144 81.5115 108.208C81.7515 108.272 82.0155 108.328 82.3035 108.376C82.5915 108.416 82.8795 108.472 83.1675 108.544C83.4555 108.608 83.7155 108.7 83.9475 108.82C84.1875 108.94 84.3795 109.108 84.5235 109.324C84.6755 109.54 84.7515 109.828 84.7515 110.188C84.7515 110.572 84.6395 110.904 84.4155 111.184C84.1915 111.464 83.8755 111.684 83.4675 111.844C83.0595 111.996 82.5715 112.072 82.0035 112.072ZM89.7872 105.58C90.3072 105.58 90.7632 105.68 91.1552 105.88C91.5552 106.08 91.8672 106.384 92.0912 106.792C92.3152 107.2 92.4272 107.716 92.4272 108.34V112H91.2752V108.472C91.2752 107.856 91.1232 107.392 90.8192 107.08C90.5232 106.768 90.1032 106.612 89.5592 106.612C89.1512 106.612 88.7952 106.692 88.4912 106.852C88.1872 107.012 87.9512 107.248 87.7832 107.56C87.6232 107.872 87.5432 108.26 87.5432 108.724V112H86.3912V103.096H87.5432V107.356L87.3152 106.9C87.5232 106.484 87.8432 106.16 88.2752 105.928C88.7072 105.696 89.2112 105.58 89.7872 105.58ZM98.3498 112V103.6H101.89C102.786 103.6 103.574 103.776 104.254 104.128C104.942 104.48 105.474 104.972 105.85 105.604C106.234 106.236 106.426 106.968 106.426 107.8C106.426 108.632 106.234 109.364 105.85 109.996C105.474 110.628 104.942 111.12 104.254 111.472C103.574 111.824 102.786 112 101.89 112H98.3498ZM99.5498 110.956H101.818C102.514 110.956 103.114 110.824 103.618 110.56C104.13 110.296 104.526 109.928 104.806 109.456C105.086 108.976 105.226 108.424 105.226 107.8C105.226 107.168 105.086 106.616 104.806 106.144C104.526 105.672 104.13 105.304 103.618 105.04C103.114 104.776 102.514 104.644 101.818 104.644H99.5498V110.956ZM112.244 112V110.656L112.184 110.404V108.112C112.184 107.624 112.04 107.248 111.752 106.984C111.472 106.712 111.048 106.576 110.48 106.576C110.104 106.576 109.736 106.64 109.376 106.768C109.016 106.888 108.712 107.052 108.464 107.26L107.984 106.396C108.312 106.132 108.704 105.932 109.16 105.796C109.624 105.652 110.108 105.58 110.612 105.58C111.484 105.58 112.156 105.792 112.628 106.216C113.1 106.64 113.336 107.288 113.336 108.16V112H112.244ZM110.156 112.072C109.684 112.072 109.268 111.992 108.908 111.832C108.556 111.672 108.284 111.452 108.092 111.172C107.9 110.884 107.804 110.56 107.804 110.2C107.804 109.856 107.884 109.544 108.044 109.264C108.212 108.984 108.48 108.76 108.848 108.592C109.224 108.424 109.728 108.34 110.36 108.34H112.376V109.168H110.408C109.832 109.168 109.444 109.264 109.244 109.456C109.044 109.648 108.944 109.88 108.944 110.152C108.944 110.464 109.068 110.716 109.316 110.908C109.564 111.092 109.908 111.184 110.348 111.184C110.78 111.184 111.156 111.088 111.476 110.896C111.804 110.704 112.04 110.424 112.184 110.056L112.412 110.848C112.26 111.224 111.992 111.524 111.608 111.748C111.224 111.964 110.74 112.072 110.156 112.072ZM117.852 112.072C117.212 112.072 116.716 111.9 116.364 111.556C116.012 111.212 115.836 110.72 115.836 110.08V104.248H116.988V110.032C116.988 110.376 117.072 110.64 117.24 110.824C117.416 111.008 117.664 111.1 117.984 111.1C118.344 111.1 118.644 111 118.884 110.8L119.244 111.628C119.068 111.78 118.856 111.892 118.608 111.964C118.368 112.036 118.116 112.072 117.852 112.072ZM114.756 106.588V105.64H118.812V106.588H114.756ZM124.785 112V110.656L124.725 110.404V108.112C124.725 107.624 124.581 107.248 124.293 106.984C124.013 106.712 123.589 106.576 123.021 106.576C122.645 106.576 122.277 106.64 121.917 106.768C121.557 106.888 121.253 107.052 121.005 107.26L120.525 106.396C120.853 106.132 121.245 105.932 121.701 105.796C122.165 105.652 122.649 105.58 123.153 105.58C124.025 105.58 124.697 105.792 125.169 106.216C125.641 106.64 125.877 107.288 125.877 108.16V112H124.785ZM122.697 112.072C122.225 112.072 121.809 111.992 121.449 111.832C121.097 111.672 120.825 111.452 120.633 111.172C120.441 110.884 120.345 110.56 120.345 110.2C120.345 109.856 120.425 109.544 120.585 109.264C120.753 108.984 121.021 108.76 121.389 108.592C121.765 108.424 122.269 108.34 122.901 108.34H124.917V109.168H122.949C122.373 109.168 121.985 109.264 121.785 109.456C121.585 109.648 121.485 109.88 121.485 110.152C121.485 110.464 121.609 110.716 121.857 110.908C122.105 111.092 122.449 111.184 122.889 111.184C123.321 111.184 123.697 111.088 124.017 110.896C124.345 110.704 124.581 110.424 124.725 110.056L124.953 110.848C124.801 111.224 124.533 111.524 124.149 111.748C123.765 111.964 123.281 112.072 122.697 112.072ZM131.799 112V103.6H135.075C135.811 103.6 136.439 103.716 136.959 103.948C137.479 104.18 137.879 104.516 138.159 104.956C138.439 105.396 138.579 105.92 138.579 106.528C138.579 107.136 138.439 107.66 138.159 108.1C137.879 108.532 137.479 108.868 136.959 109.108C136.439 109.34 135.811 109.456 135.075 109.456H132.459L132.999 108.892V112H131.799ZM132.999 109.012L132.459 108.412H135.039C135.807 108.412 136.387 108.248 136.779 107.92C137.179 107.592 137.379 107.128 137.379 106.528C137.379 105.928 137.179 105.464 136.779 105.136C136.387 104.808 135.807 104.644 135.039 104.644H132.459L132.999 104.044V109.012ZM140.257 112V105.64H141.361V107.368L141.253 106.936C141.429 106.496 141.725 106.16 142.141 105.928C142.557 105.696 143.069 105.58 143.677 105.58V106.696C143.629 106.688 143.581 106.684 143.533 106.684C143.493 106.684 143.453 106.684 143.413 106.684C142.797 106.684 142.309 106.868 141.949 107.236C141.589 107.604 141.409 108.136 141.409 108.832V112H140.257ZM147.962 112.072C147.322 112.072 146.754 111.932 146.258 111.652C145.762 111.372 145.37 110.988 145.082 110.5C144.794 110.004 144.65 109.444 144.65 108.82C144.65 108.188 144.794 107.628 145.082 107.14C145.37 106.652 145.762 106.272 146.258 106C146.754 105.72 147.322 105.58 147.962 105.58C148.594 105.58 149.158 105.72 149.654 106C150.158 106.272 150.55 106.652 150.83 107.14C151.118 107.62 151.262 108.18 151.262 108.82C151.262 109.452 151.118 110.012 150.83 110.5C150.55 110.988 150.158 111.372 149.654 111.652C149.158 111.932 148.594 112.072 147.962 112.072ZM147.962 111.064C148.37 111.064 148.734 110.972 149.054 110.788C149.382 110.604 149.638 110.344 149.822 110.008C150.006 109.664 150.098 109.268 150.098 108.82C150.098 108.364 150.006 107.972 149.822 107.644C149.638 107.308 149.382 107.048 149.054 106.864C148.734 106.68 148.37 106.588 147.962 106.588C147.554 106.588 147.19 106.68 146.87 106.864C146.55 107.048 146.294 107.308 146.102 107.644C145.91 107.972 145.814 108.364 145.814 108.82C145.814 109.268 145.91 109.664 146.102 110.008C146.294 110.344 146.55 110.604 146.87 110.788C147.19 110.972 147.554 111.064 147.962 111.064ZM155.239 112.072C154.599 112.072 154.103 111.9 153.751 111.556C153.399 111.212 153.223 110.72 153.223 110.08V104.248H154.375V110.032C154.375 110.376 154.459 110.64 154.627 110.824C154.803 111.008 155.051 111.1 155.371 111.1C155.731 111.1 156.031 111 156.271 110.8L156.631 111.628C156.455 111.78 156.243 111.892 155.995 111.964C155.755 112.036 155.503 112.072 155.239 112.072ZM152.143 106.588V105.64H156.199V106.588H152.143ZM160.845 112.072C160.165 112.072 159.565 111.932 159.045 111.652C158.533 111.372 158.133 110.988 157.845 110.5C157.565 110.012 157.425 109.452 157.425 108.82C157.425 108.188 157.561 107.628 157.833 107.14C158.113 106.652 158.493 106.272 158.973 106C159.461 105.72 160.009 105.58 160.617 105.58C161.233 105.58 161.777 105.716 162.249 105.988C162.721 106.26 163.089 106.644 163.353 107.14C163.625 107.628 163.761 108.2 163.761 108.856C163.761 108.904 163.757 108.96 163.749 109.024C163.749 109.088 163.745 109.148 163.737 109.204H158.325V108.376H163.137L162.669 108.664C162.677 108.256 162.593 107.892 162.417 107.572C162.241 107.252 161.997 107.004 161.685 106.828C161.381 106.644 161.025 106.552 160.617 106.552C160.217 106.552 159.861 106.644 159.549 106.828C159.237 107.004 158.993 107.256 158.817 107.584C158.641 107.904 158.553 108.272 158.553 108.688V108.88C158.553 109.304 158.649 109.684 158.841 110.02C159.041 110.348 159.317 110.604 159.669 110.788C160.021 110.972 160.425 111.064 160.881 111.064C161.257 111.064 161.597 111 161.901 110.872C162.213 110.744 162.485 110.552 162.717 110.296L163.353 111.04C163.065 111.376 162.705 111.632 162.273 111.808C161.849 111.984 161.373 112.072 160.845 112.072ZM168.333 112.072C167.685 112.072 167.105 111.932 166.593 111.652C166.089 111.372 165.693 110.988 165.405 110.5C165.117 110.012 164.973 109.452 164.973 108.82C164.973 108.188 165.117 107.628 165.405 107.14C165.693 106.652 166.089 106.272 166.593 106C167.105 105.72 167.685 105.58 168.333 105.58C168.909 105.58 169.421 105.696 169.869 105.928C170.325 106.152 170.677 106.488 170.925 106.936L170.049 107.5C169.841 107.188 169.585 106.96 169.281 106.816C168.985 106.664 168.665 106.588 168.321 106.588C167.905 106.588 167.533 106.68 167.205 106.864C166.877 107.048 166.617 107.308 166.425 107.644C166.233 107.972 166.137 108.364 166.137 108.82C166.137 109.276 166.233 109.672 166.425 110.008C166.617 110.344 166.877 110.604 167.205 110.788C167.533 110.972 167.905 111.064 168.321 111.064C168.665 111.064 168.985 110.992 169.281 110.848C169.585 110.696 169.841 110.464 170.049 110.152L170.925 110.704C170.677 111.144 170.325 111.484 169.869 111.724C169.421 111.956 168.909 112.072 168.333 112.072ZM174.882 112.072C174.242 112.072 173.746 111.9 173.394 111.556C173.042 111.212 172.866 110.72 172.866 110.08V104.248H174.018V110.032C174.018 110.376 174.102 110.64 174.27 110.824C174.446 111.008 174.694 111.1 175.014 111.1C175.374 111.1 175.674 111 175.914 110.8L176.274 111.628C176.098 111.78 175.886 111.892 175.638 111.964C175.398 112.036 175.146 112.072 174.882 112.072ZM171.786 106.588V105.64H175.842V106.588H171.786ZM177.867 112V105.64H179.019V112H177.867ZM178.443 104.416C178.219 104.416 178.031 104.344 177.879 104.2C177.735 104.056 177.663 103.88 177.663 103.672C177.663 103.456 177.735 103.276 177.879 103.132C178.031 102.988 178.219 102.916 178.443 102.916C178.667 102.916 178.851 102.988 178.995 103.132C179.147 103.268 179.223 103.44 179.223 103.648C179.223 103.864 179.151 104.048 179.007 104.2C178.863 104.344 178.675 104.416 178.443 104.416ZM184.143 112.072C183.503 112.072 182.935 111.932 182.439 111.652C181.943 111.372 181.551 110.988 181.263 110.5C180.975 110.004 180.831 109.444 180.831 108.82C180.831 108.188 180.975 107.628 181.263 107.14C181.551 106.652 181.943 106.272 182.439 106C182.935 105.72 183.503 105.58 184.143 105.58C184.775 105.58 185.339 105.72 185.835 106C186.339 106.272 186.731 106.652 187.011 107.14C187.299 107.62 187.443 108.18 187.443 108.82C187.443 109.452 187.299 110.012 187.011 110.5C186.731 110.988 186.339 111.372 185.835 111.652C185.339 111.932 184.775 112.072 184.143 112.072ZM184.143 111.064C184.551 111.064 184.915 110.972 185.235 110.788C185.563 110.604 185.819 110.344 186.003 110.008C186.187 109.664 186.279 109.268 186.279 108.82C186.279 108.364 186.187 107.972 186.003 107.644C185.819 107.308 185.563 107.048 185.235 106.864C184.915 106.68 184.551 106.588 184.143 106.588C183.735 106.588 183.371 106.68 183.051 106.864C182.731 107.048 182.475 107.308 182.283 107.644C182.091 107.972 181.995 108.364 181.995 108.82C181.995 109.268 182.091 109.664 182.283 110.008C182.475 110.344 182.731 110.604 183.051 110.788C183.371 110.972 183.735 111.064 184.143 111.064ZM192.632 105.58C193.152 105.58 193.608 105.68 194 105.88C194.4 106.08 194.712 106.384 194.936 106.792C195.16 107.2 195.272 107.716 195.272 108.34V112H194.12V108.472C194.12 107.856 193.968 107.392 193.664 107.08C193.368 106.768 192.948 106.612 192.404 106.612C191.996 106.612 191.64 106.692 191.336 106.852C191.032 107.012 190.796 107.248 190.628 107.56C190.468 107.872 190.388 108.26 190.388 108.724V112H189.236V105.64H190.34V107.356L190.16 106.9C190.368 106.484 190.688 106.16 191.12 105.928C191.552 105.696 192.056 105.58 192.632 105.58ZM199.922 112L203.726 103.6H204.914L208.73 112H207.47L204.074 104.272H204.554L201.158 112H199.922ZM201.542 109.9L201.866 108.94H206.594L206.942 109.9H201.542ZM212.729 112.072C212.081 112.072 211.501 111.932 210.989 111.652C210.485 111.372 210.089 110.988 209.801 110.5C209.513 110.012 209.369 109.452 209.369 108.82C209.369 108.188 209.513 107.628 209.801 107.14C210.089 106.652 210.485 106.272 210.989 106C211.501 105.72 212.081 105.58 212.729 105.58C213.305 105.58 213.817 105.696 214.265 105.928C214.721 106.152 215.073 106.488 215.321 106.936L214.445 107.5C214.237 107.188 213.981 106.96 213.677 106.816C213.381 106.664 213.061 106.588 212.717 106.588C212.301 106.588 211.929 106.68 211.601 106.864C211.273 107.048 211.013 107.308 210.821 107.644C210.629 107.972 210.533 108.364 210.533 108.82C210.533 109.276 210.629 109.672 210.821 110.008C211.013 110.344 211.273 110.604 211.601 110.788C211.929 110.972 212.301 111.064 212.717 111.064C213.061 111.064 213.381 110.992 213.677 110.848C213.981 110.696 214.237 110.464 214.445 110.152L215.321 110.704C215.073 111.144 214.721 111.484 214.265 111.724C213.817 111.956 213.305 112.072 212.729 112.072ZM219.278 112.072C218.638 112.072 218.142 111.9 217.79 111.556C217.438 111.212 217.262 110.72 217.262 110.08V104.248H218.414V110.032C218.414 110.376 218.498 110.64 218.666 110.824C218.842 111.008 219.09 111.1 219.41 111.1C219.77 111.1 220.07 111 220.31 110.8L220.67 111.628C220.494 111.78 220.282 111.892 220.034 111.964C219.794 112.036 219.542 112.072 219.278 112.072ZM216.182 106.588V105.64H220.238V106.588H216.182ZM221.924 113.776L222.524 111.352L222.68 112.048C222.448 112.048 222.252 111.976 222.092 111.832C221.94 111.688 221.864 111.492 221.864 111.244C221.864 111.004 221.94 110.808 222.092 110.656C222.252 110.504 222.444 110.428 222.668 110.428C222.9 110.428 223.088 110.508 223.232 110.668C223.376 110.82 223.448 111.012 223.448 111.244C223.448 111.324 223.44 111.404 223.424 111.484C223.416 111.556 223.396 111.644 223.364 111.748C223.34 111.844 223.3 111.964 223.244 112.108L222.68 113.776H221.924ZM40.444 130V129.184L43.864 125.884C44.168 125.596 44.392 125.344 44.536 125.128C44.688 124.904 44.788 124.7 44.836 124.516C44.892 124.324 44.92 124.14 44.92 123.964C44.92 123.532 44.768 123.192 44.464 122.944C44.16 122.696 43.716 122.572 43.132 122.572C42.684 122.572 42.28 122.648 41.92 122.8C41.56 122.944 41.248 123.172 40.984 123.484L40.168 122.776C40.488 122.368 40.916 122.056 41.452 121.84C41.996 121.616 42.592 121.504 43.24 121.504C43.824 121.504 44.332 121.6 44.764 121.792C45.196 121.976 45.528 122.244 45.76 122.596C46 122.948 46.12 123.364 46.12 123.844C46.12 124.116 46.084 124.384 46.012 124.648C45.94 124.912 45.804 125.192 45.604 125.488C45.404 125.784 45.116 126.116 44.74 126.484L41.692 129.424L41.404 128.956H46.48V130H40.444ZM51.0869 130.096C50.4309 130.096 49.8429 129.928 49.3229 129.592C48.8109 129.256 48.4029 128.768 48.0989 128.128C47.8029 127.488 47.6549 126.712 47.6549 125.8C47.6549 124.888 47.8029 124.112 48.0989 123.472C48.4029 122.832 48.8109 122.344 49.3229 122.008C49.8429 121.672 50.4309 121.504 51.0869 121.504C51.7349 121.504 52.3189 121.672 52.8389 122.008C53.3589 122.344 53.7669 122.832 54.0629 123.472C54.3589 124.112 54.5069 124.888 54.5069 125.8C54.5069 126.712 54.3589 127.488 54.0629 128.128C53.7669 128.768 53.3589 129.256 52.8389 129.592C52.3189 129.928 51.7349 130.096 51.0869 130.096ZM51.0869 129.028C51.5269 129.028 51.9109 128.908 52.2389 128.668C52.5749 128.428 52.8349 128.068 53.0189 127.588C53.2109 127.108 53.3069 126.512 53.3069 125.8C53.3069 125.088 53.2109 124.492 53.0189 124.012C52.8349 123.532 52.5749 123.172 52.2389 122.932C51.9109 122.692 51.5269 122.572 51.0869 122.572C50.6469 122.572 50.2589 122.692 49.9229 122.932C49.5869 123.172 49.3229 123.532 49.1309 124.012C48.9469 124.492 48.8549 125.088 48.8549 125.8C48.8549 126.512 48.9469 127.108 49.1309 127.588C49.3229 128.068 49.5869 128.428 49.9229 128.668C50.2589 128.908 50.6469 129.028 51.0869 129.028ZM57.2748 130V122.08L57.7908 122.644H55.3788V121.6H58.4628V130H57.2748ZM63.7762 130.096C63.0962 130.096 62.5082 129.996 62.0122 129.796C61.5162 129.596 61.1322 129.312 60.8602 128.944C60.5882 128.568 60.4522 128.128 60.4522 127.624C60.4522 127.128 60.5802 126.708 60.8362 126.364C61.1002 126.012 61.4802 125.748 61.9762 125.572C62.4722 125.388 63.0722 125.296 63.7762 125.296C64.4802 125.296 65.0802 125.388 65.5762 125.572C66.0802 125.748 66.4642 126.012 66.7282 126.364C66.9922 126.716 67.1242 127.136 67.1242 127.624C67.1242 128.128 66.9882 128.568 66.7162 128.944C66.4442 129.312 66.0562 129.596 65.5522 129.796C65.0482 129.996 64.4562 130.096 63.7762 130.096ZM63.7762 129.124C64.4482 129.124 64.9722 128.988 65.3482 128.716C65.7322 128.436 65.9242 128.06 65.9242 127.588C65.9242 127.124 65.7322 126.76 65.3482 126.496C64.9722 126.224 64.4482 126.088 63.7762 126.088C63.1122 126.088 62.5922 126.224 62.2162 126.496C61.8402 126.76 61.6522 127.124 61.6522 127.588C61.6522 128.06 61.8402 128.436 62.2162 128.716C62.5922 128.988 63.1122 129.124 63.7762 129.124ZM63.7762 125.944C63.1362 125.944 62.5922 125.86 62.1442 125.692C61.6962 125.516 61.3522 125.268 61.1122 124.948C60.8722 124.62 60.7522 124.232 60.7522 123.784C60.7522 123.312 60.8762 122.908 61.1242 122.572C61.3802 122.228 61.7362 121.964 62.1922 121.78C62.6482 121.596 63.1762 121.504 63.7762 121.504C64.3842 121.504 64.9162 121.596 65.3722 121.78C65.8282 121.964 66.1842 122.228 66.4402 122.572C66.6962 122.908 66.8242 123.312 66.8242 123.784C66.8242 124.232 66.7042 124.62 66.4642 124.948C66.2242 125.268 65.8762 125.516 65.4202 125.692C64.9642 125.86 64.4162 125.944 63.7762 125.944ZM63.7762 125.176C64.3602 125.176 64.8162 125.056 65.1442 124.816C65.4802 124.576 65.6482 124.248 65.6482 123.832C65.6482 123.408 65.4762 123.076 65.1322 122.836C64.7882 122.596 64.3362 122.476 63.7762 122.476C63.2162 122.476 62.7682 122.596 62.4322 122.836C62.1042 123.076 61.9402 123.408 61.9402 123.832C61.9402 124.248 62.1002 124.576 62.4202 124.816C62.7482 125.056 63.2002 125.176 63.7762 125.176Z" fill="#19191F"/>
<path d="M248 54.5C248 53.0166 247.56 51.5666 246.736 50.3332C245.912 49.0999 244.741 48.1386 243.37 47.5709C242 47.0032 240.492 46.8547 239.037 47.1441C237.582 47.4335 236.246 48.1478 235.197 49.1967C234.148 50.2456 233.434 51.582 233.144 53.0368C232.855 54.4917 233.003 55.9997 233.571 57.3701C234.139 58.7406 235.1 59.9119 236.333 60.736C237.567 61.5601 239.017 62 240.5 62C242.488 61.9978 244.395 61.2069 245.801 59.8009C247.207 58.3948 247.998 56.4884 248 54.5ZM239.97 58.0303C239.9 57.9606 239.845 57.878 239.807 57.787C239.769 57.696 239.75 57.5985 239.75 57.5C239.75 57.4015 239.769 57.304 239.807 57.213C239.845 57.122 239.9 57.0393 239.97 56.9697L241.689 55.25H237.5C237.301 55.25 237.11 55.171 236.97 55.0303C236.829 54.8897 236.75 54.6989 236.75 54.5C236.75 54.3011 236.829 54.1103 236.97 53.9697C237.11 53.829 237.301 53.75 237.5 53.75H241.689L239.97 52.0303C239.831 51.8892 239.754 51.6991 239.755 51.5014C239.756 51.3037 239.835 51.1143 239.975 50.9745C240.114 50.8347 240.304 50.7558 240.501 50.7549C240.699 50.754 240.889 50.8312 241.03 50.9698L244.03 53.9695C244.17 54.1105 244.249 54.3012 244.249 54.5C244.249 54.6988 244.17 54.8895 244.03 55.0305L241.03 58.0303C240.961 58.0999 240.878 58.1552 240.787 58.1929C240.696 58.2306 240.598 58.25 240.5 58.25C240.402 58.25 240.304 58.2306 240.213 58.1929C240.122 58.1552 240.039 58.0999 239.97 58.0303Z" fill="#5B588F"/>
<defs>
<filter id="filter0_dd_4190_12454" x="0" y="0" width="290" height="182" filterUnits="userSpaceOnUse" color-interpolation-filters="sRGB">
<feFlood flood-opacity="0" result="BackgroundImageFix"/>
<feColorMatrix in="SourceAlpha" type="matrix" values="0 0 0 0 0 0 0 0 0 0 0 0 0 0 0 0 0 0 127 0" result="hardAlpha"/>
<feMorphology radius="2" operator="dilate" in="SourceAlpha" result="effect1_dropShadow_4190_12454"/>
<feOffset dx="4" dy="4"/>
<feGaussianBlur stdDeviation="8"/>
<feComposite in2="hardAlpha" operator="out"/>
<feColorMatrix type="matrix" values="0 0 0 0 1 0 0 0 0 1 0 0 0 0 1 0 0 0 0.25 0"/>
<feBlend mode="normal" in2="BackgroundImageFix" result="effect1_dropShadow_4190_12454"/>
<feColorMatrix in="SourceAlpha" type="matrix" values="0 0 0 0 0 0 0 0 0 0 0 0 0 0 0 0 0 0 127 0" result="hardAlpha"/>
<feOffset dx="-4" dy="-4"/>
<feGaussianBlur stdDeviation="8"/>
<feComposite in2="hardAlpha" operator="out"/>
<feColorMatrix type="matrix" values="0 0 0 0 1 0 0 0 0 1 0 0 0 0 1 0 0 0 0.25 0"/>
<feBlend mode="normal" in2="effect1_dropShadow_4190_12454" result="effect2_dropShadow_4190_12454"/>
<feBlend mode="normal" in="SourceGraphic" in2="effect2_dropShadow_4190_12454" result="shape"/>
</filter>
</defs>
</svg>
