<svg width="290" height="132" viewBox="0 0 290 132" fill="none" xmlns="http://www.w3.org/2000/svg">
<g filter="url(#filter0_dd_4201_12442)">
<rect x="20" y="20" width="248" height="90" rx="10" fill="white"/>
</g>
<g clip-path="url(#clip0_4201_12442)">
<path d="M55 80C63.2843 80 70 73.2843 70 65C70 56.7157 63.2843 50 55 50C46.7157 50 40 56.7157 40 65C40 73.2843 46.7157 80 55 80Z" fill="#F0F0F0"/>
<path d="M48.4783 70.2168L49.7826 79.0666C51.4075 79.6696 53.1652 79.9994 55 79.9994C61.4494 79.9994 66.9476 75.9288 69.0669 70.2168H48.4783Z" fill="black"/>
<path d="M48.4783 59.7826L49.7826 50.9329C51.4075 50.3299 53.1652 50 55 50C61.4494 50 66.9476 54.0706 69.0669 59.7826H48.4783Z" fill="#6DA544"/>
<path d="M40 65.0006C40 71.4501 44.0707 76.9482 49.7826 79.0676V50.9336C44.0707 53.053 40 58.5511 40 65.0006Z" fill="#A2001D"/>
</g>
<path d="M86.162 60.2H90.614C91.678 60.2 92.616 60.4053 93.428 60.816C94.2493 61.2173 94.884 61.7867 95.332 62.524C95.7893 63.2613 96.018 64.12 96.018 65.1C96.018 66.08 95.7893 66.9387 95.332 67.676C94.884 68.4133 94.2493 68.9873 93.428 69.398C92.616 69.7993 91.678 70 90.614 70H86.162V60.2ZM90.502 68.138C91.482 68.138 92.2613 67.8673 92.84 67.326C93.428 66.7753 93.722 66.0333 93.722 65.1C93.722 64.1667 93.428 63.4293 92.84 62.888C92.2613 62.3373 91.482 62.062 90.502 62.062H88.43V68.138H90.502ZM105.362 62.468V70H103.29V69.104C103.001 69.4307 102.656 69.6827 102.254 69.86C101.853 70.028 101.419 70.112 100.952 70.112C99.9631 70.112 99.1791 69.8273 98.6004 69.258C98.0217 68.6887 97.7324 67.844 97.7324 66.724V62.468H99.9164V66.402C99.9164 67.6153 100.425 68.222 101.442 68.222C101.965 68.222 102.385 68.054 102.702 67.718C103.02 67.3727 103.178 66.864 103.178 66.192V62.468H105.362ZM112.038 62.356C112.738 62.356 113.372 62.5193 113.942 62.846C114.52 63.1633 114.973 63.616 115.3 64.204C115.626 64.7827 115.79 65.4593 115.79 66.234C115.79 67.0087 115.626 67.69 115.3 68.278C114.973 68.8567 114.52 69.3093 113.942 69.636C113.372 69.9533 112.738 70.112 112.038 70.112C111.002 70.112 110.213 69.7853 109.672 69.132V70H107.586V59.612H109.77V63.266C110.32 62.6593 111.076 62.356 112.038 62.356ZM111.66 68.32C112.22 68.32 112.677 68.1333 113.032 67.76C113.396 67.3773 113.578 66.8687 113.578 66.234C113.578 65.5993 113.396 65.0953 113.032 64.722C112.677 64.3393 112.22 64.148 111.66 64.148C111.1 64.148 110.638 64.3393 110.274 64.722C109.919 65.0953 109.742 65.5993 109.742 66.234C109.742 66.8687 109.919 67.3773 110.274 67.76C110.638 68.1333 111.1 68.32 111.66 68.32ZM120.367 62.356C121.533 62.356 122.429 62.636 123.055 63.196C123.68 63.7467 123.993 64.582 123.993 65.702V70H121.949V69.062C121.538 69.762 120.773 70.112 119.653 70.112C119.074 70.112 118.57 70.014 118.141 69.818C117.721 69.622 117.399 69.3513 117.175 69.006C116.951 68.6607 116.839 68.2687 116.839 67.83C116.839 67.13 117.1 66.5793 117.623 66.178C118.155 65.7767 118.971 65.576 120.073 65.576H121.809C121.809 65.1 121.664 64.736 121.375 64.484C121.085 64.2227 120.651 64.092 120.073 64.092C119.671 64.092 119.275 64.1573 118.883 64.288C118.5 64.4093 118.173 64.5773 117.903 64.792L117.119 63.266C117.529 62.9767 118.019 62.7527 118.589 62.594C119.167 62.4353 119.76 62.356 120.367 62.356ZM120.199 68.642C120.572 68.642 120.903 68.558 121.193 68.39C121.482 68.2127 121.687 67.956 121.809 67.62V66.85H120.311C119.415 66.85 118.967 67.144 118.967 67.732C118.967 68.012 119.074 68.236 119.289 68.404C119.513 68.5627 119.816 68.642 120.199 68.642ZM126.169 62.468H128.353V70H126.169V62.468ZM127.261 61.418C126.86 61.418 126.533 61.3013 126.281 61.068C126.029 60.8347 125.903 60.5453 125.903 60.2C125.903 59.8547 126.029 59.5653 126.281 59.332C126.533 59.0987 126.86 58.982 127.261 58.982C127.663 58.982 127.989 59.094 128.241 59.318C128.493 59.542 128.619 59.822 128.619 60.158C128.619 60.522 128.493 60.8253 128.241 61.068C127.989 61.3013 127.663 61.418 127.261 61.418Z" fill="#19191F"/>
<path d="M248 64.5C248 63.0166 247.56 61.5666 246.736 60.3332C245.912 59.0999 244.741 58.1386 243.37 57.5709C242 57.0032 240.492 56.8547 239.037 57.1441C237.582 57.4335 236.246 58.1478 235.197 59.1967C234.148 60.2456 233.434 61.582 233.144 63.0368C232.855 64.4917 233.003 65.9997 233.571 67.3701C234.139 68.7406 235.1 69.9119 236.333 70.736C237.567 71.5601 239.017 72 240.5 72C242.488 71.9978 244.395 71.2069 245.801 69.8009C247.207 68.3948 247.998 66.4884 248 64.5ZM239.97 68.0303C239.9 67.9606 239.845 67.878 239.807 67.787C239.769 67.696 239.75 67.5985 239.75 67.5C239.75 67.4015 239.769 67.304 239.807 67.213C239.845 67.122 239.9 67.0393 239.97 66.9697L241.689 65.25H237.5C237.301 65.25 237.11 65.171 236.97 65.0303C236.829 64.8897 236.75 64.6989 236.75 64.5C236.75 64.3011 236.829 64.1103 236.97 63.9697C237.11 63.829 237.301 63.75 237.5 63.75H241.689L239.97 62.0303C239.831 61.8892 239.754 61.6991 239.755 61.5014C239.756 61.3037 239.835 61.1143 239.975 60.9745C240.114 60.8347 240.304 60.7558 240.501 60.7549C240.699 60.754 240.889 60.8312 241.03 60.9698L244.03 63.9695C244.17 64.1105 244.249 64.3012 244.249 64.5C244.249 64.6988 244.17 64.8895 244.03 65.0305L241.03 68.0303C240.961 68.0999 240.878 68.1552 240.787 68.1929C240.696 68.2306 240.598 68.25 240.5 68.25C240.402 68.25 240.304 68.2306 240.213 68.1929C240.122 68.1552 240.039 68.0999 239.97 68.0303Z" fill="#5B588F"/>
<defs>
<filter id="filter0_dd_4201_12442" x="0" y="0" width="290" height="132" filterUnits="userSpaceOnUse" color-interpolation-filters="sRGB">
<feFlood flood-opacity="0" result="BackgroundImageFix"/>
<feColorMatrix in="SourceAlpha" type="matrix" values="0 0 0 0 0 0 0 0 0 0 0 0 0 0 0 0 0 0 127 0" result="hardAlpha"/>
<feMorphology radius="2" operator="dilate" in="SourceAlpha" result="effect1_dropShadow_4201_12442"/>
<feOffset dx="4" dy="4"/>
<feGaussianBlur stdDeviation="8"/>
<feComposite in2="hardAlpha" operator="out"/>
<feColorMatrix type="matrix" values="0 0 0 0 1 0 0 0 0 1 0 0 0 0 1 0 0 0 0.25 0"/>
<feBlend mode="normal" in2="BackgroundImageFix" result="effect1_dropShadow_4201_12442"/>
<feColorMatrix in="SourceAlpha" type="matrix" values="0 0 0 0 0 0 0 0 0 0 0 0 0 0 0 0 0 0 127 0" result="hardAlpha"/>
<feOffset dx="-4" dy="-4"/>
<feGaussianBlur stdDeviation="8"/>
<feComposite in2="hardAlpha" operator="out"/>
<feColorMatrix type="matrix" values="0 0 0 0 1 0 0 0 0 1 0 0 0 0 1 0 0 0 0.25 0"/>
<feBlend mode="normal" in2="effect1_dropShadow_4201_12442" result="effect2_dropShadow_4201_12442"/>
<feBlend mode="normal" in="SourceGraphic" in2="effect2_dropShadow_4201_12442" result="shape"/>
</filter>
<clipPath id="clip0_4201_12442">
<rect width="30" height="30" fill="white" transform="translate(40 50)"/>
</clipPath>
</defs>
</svg>
