<svg width="290" height="182" viewBox="0 0 290 182" fill="none" xmlns="http://www.w3.org/2000/svg">
<g filter="url(#filter0_dd_4190_12451)">
<rect x="20" y="20" width="248" height="140" rx="10" fill="white"/>
</g>
<path d="M55 70C63.2843 70 70 63.2843 70 55C70 46.7157 63.2843 40 55 40C46.7157 40 40 46.7157 40 55C40 63.2843 46.7157 70 55 70Z" fill="#6DA544"/>
<path d="M48.4783 57.9355C48.4783 59.0161 49.3542 59.8921 50.4348 59.8921H56.3043C56.3043 60.7925 57.0343 61.5225 57.9348 61.5225H59.8913C60.7917 61.5225 61.5217 60.7925 61.5217 59.8921V57.9355H48.4783Z" fill="#F0F0F0"/>
<path d="M61.6848 48.4785V53.0437C61.6848 53.763 61.0997 54.3481 60.3804 54.3481V56.3046C62.1785 56.3046 63.6413 54.8417 63.6413 53.0437V48.4785H61.6848Z" fill="#F0F0F0"/>
<path d="M47.6631 53.0437C47.6631 53.763 47.0779 54.3481 46.3587 54.3481V56.3046C48.1568 56.3046 49.6196 54.8417 49.6196 53.0437V48.4785H47.6631V53.0437Z" fill="#F0F0F0"/>
<path d="M58.75 48.4785H60.7065V53.0437H58.75V48.4785Z" fill="#F0F0F0"/>
<path d="M55.8152 51.0872C55.8152 51.2671 55.6689 51.4133 55.4891 51.4133C55.3094 51.4133 55.1631 51.267 55.1631 51.0872V48.4785H53.2066V51.0872C53.2066 51.2671 53.0602 51.4133 52.8805 51.4133C52.7007 51.4133 52.5544 51.267 52.5544 51.0872V48.4785H50.5978V51.0872C50.5978 52.3459 51.6218 53.3699 52.8805 53.3699C53.3652 53.3699 53.8148 53.2175 54.1848 52.9588C54.5549 53.2175 55.0044 53.3699 55.4892 53.3699C55.5868 53.3699 55.6828 53.363 55.7772 53.351C55.6385 53.9222 55.1241 54.3481 54.5109 54.3481V56.3046C56.309 56.3046 57.7718 54.8417 57.7718 53.0437V51.0872V48.4785H55.8153V51.0872H55.8152Z" fill="#F0F0F0"/>
<path d="M50.5978 54.3477H53.5326V56.3042H50.5978V54.3477Z" fill="#F0F0F0"/>
<path d="M43.248 88.148H47.966V89.912H43.248V88.148ZM43.416 92.18H48.75V94H41.162V84.2H48.568V86.02H43.416V92.18ZM55.4446 94.168C54.6886 94.168 53.9839 94.0467 53.3306 93.804C52.6866 93.552 52.1266 93.1973 51.6506 92.74C51.1746 92.2827 50.8012 91.746 50.5306 91.13C50.2692 90.514 50.1386 89.8373 50.1386 89.1C50.1386 88.3627 50.2692 87.686 50.5306 87.07C50.8012 86.454 51.1746 85.9173 51.6506 85.46C52.1359 85.0027 52.7006 84.6527 53.3446 84.41C53.9886 84.158 54.6932 84.032 55.4586 84.032C56.3079 84.032 57.0732 84.1813 57.7546 84.48C58.4452 84.7693 59.0239 85.1987 59.4906 85.768L58.0346 87.112C57.6986 86.7293 57.3252 86.4447 56.9146 86.258C56.5039 86.062 56.0559 85.964 55.5706 85.964C55.1132 85.964 54.6932 86.0387 54.3106 86.188C53.9279 86.3373 53.5966 86.552 53.3166 86.832C53.0366 87.112 52.8172 87.4433 52.6586 87.826C52.5092 88.2087 52.4346 88.6333 52.4346 89.1C52.4346 89.5667 52.5092 89.9913 52.6586 90.374C52.8172 90.7567 53.0366 91.088 53.3166 91.368C53.5966 91.648 53.9279 91.8627 54.3106 92.012C54.6932 92.1613 55.1132 92.236 55.5706 92.236C56.0559 92.236 56.5039 92.1427 56.9146 91.956C57.3252 91.76 57.6986 91.466 58.0346 91.074L59.4906 92.418C59.0239 92.9873 58.4452 93.4213 57.7546 93.72C57.0732 94.0187 56.3032 94.168 55.4446 94.168ZM61.2222 94V84.2H63.4902V92.152H68.4042V94H61.2222ZM43.708 112.096C43.068 112.096 42.456 112 41.872 111.808C41.288 111.608 40.828 111.352 40.492 111.04L40.936 110.104C41.256 110.384 41.664 110.616 42.16 110.8C42.656 110.984 43.172 111.076 43.708 111.076C44.196 111.076 44.592 111.02 44.896 110.908C45.2 110.796 45.424 110.644 45.568 110.452C45.712 110.252 45.784 110.028 45.784 109.78C45.784 109.492 45.688 109.26 45.496 109.084C45.312 108.908 45.068 108.768 44.764 108.664C44.468 108.552 44.14 108.456 43.78 108.376C43.42 108.296 43.056 108.204 42.688 108.1C42.328 107.988 41.996 107.848 41.692 107.68C41.396 107.512 41.156 107.288 40.972 107.008C40.788 106.72 40.696 106.352 40.696 105.904C40.696 105.472 40.808 105.076 41.032 104.716C41.264 104.348 41.616 104.056 42.088 103.84C42.568 103.616 43.176 103.504 43.912 103.504C44.4 103.504 44.884 103.568 45.364 103.696C45.844 103.824 46.26 104.008 46.612 104.248L46.216 105.208C45.856 104.968 45.476 104.796 45.076 104.692C44.676 104.58 44.288 104.524 43.912 104.524C43.44 104.524 43.052 104.584 42.748 104.704C42.444 104.824 42.22 104.984 42.076 105.184C41.94 105.384 41.872 105.608 41.872 105.856C41.872 106.152 41.964 106.388 42.148 106.564C42.34 106.74 42.584 106.88 42.88 106.984C43.184 107.088 43.516 107.184 43.876 107.272C44.236 107.352 44.596 107.444 44.956 107.548C45.324 107.652 45.656 107.788 45.952 107.956C46.256 108.124 46.5 108.348 46.684 108.628C46.868 108.908 46.96 109.268 46.96 109.708C46.96 110.132 46.844 110.528 46.612 110.896C46.38 111.256 46.02 111.548 45.532 111.772C45.052 111.988 44.444 112.096 43.708 112.096ZM52.6931 112V110.656L52.6331 110.404V108.112C52.6331 107.624 52.4891 107.248 52.2011 106.984C51.9211 106.712 51.4971 106.576 50.9291 106.576C50.5531 106.576 50.1851 106.64 49.8251 106.768C49.4651 106.888 49.1611 107.052 48.9131 107.26L48.4331 106.396C48.7611 106.132 49.1531 105.932 49.6091 105.796C50.0731 105.652 50.5571 105.58 51.0611 105.58C51.9331 105.58 52.6051 105.792 53.0771 106.216C53.5491 106.64 53.7851 107.288 53.7851 108.16V112H52.6931ZM50.6051 112.072C50.1331 112.072 49.7171 111.992 49.3571 111.832C49.0051 111.672 48.7331 111.452 48.5411 111.172C48.3491 110.884 48.2531 110.56 48.2531 110.2C48.2531 109.856 48.3331 109.544 48.4931 109.264C48.6611 108.984 48.9291 108.76 49.2971 108.592C49.6731 108.424 50.1771 108.34 50.8091 108.34H52.8251V109.168H50.8571C50.2811 109.168 49.8931 109.264 49.6931 109.456C49.4931 109.648 49.3931 109.88 49.3931 110.152C49.3931 110.464 49.5171 110.716 49.7651 110.908C50.0131 111.092 50.3571 111.184 50.7971 111.184C51.2291 111.184 51.6051 111.088 51.9251 110.896C52.2531 110.704 52.4891 110.424 52.6331 110.056L52.8611 110.848C52.7091 111.224 52.4411 111.524 52.0571 111.748C51.6731 111.964 51.1891 112.072 50.6051 112.072ZM58.793 112.072C58.249 112.072 57.769 111.972 57.353 111.772C56.945 111.572 56.625 111.268 56.393 110.86C56.169 110.444 56.057 109.924 56.057 109.3V105.64H57.209V109.168C57.209 109.792 57.357 110.26 57.653 110.572C57.957 110.884 58.381 111.04 58.925 111.04C59.325 111.04 59.673 110.96 59.969 110.8C60.265 110.632 60.493 110.392 60.653 110.08C60.813 109.76 60.893 109.376 60.893 108.928V105.64H62.045V112H60.953V110.284L61.133 110.74C60.925 111.164 60.613 111.492 60.197 111.724C59.781 111.956 59.313 112.072 58.793 112.072ZM67.0661 112.072C66.4501 112.072 65.8981 111.936 65.4101 111.664C64.9301 111.392 64.5501 111.012 64.2701 110.524C63.9901 110.036 63.8501 109.468 63.8501 108.82C63.8501 108.172 63.9901 107.608 64.2701 107.128C64.5501 106.64 64.9301 106.26 65.4101 105.988C65.8981 105.716 66.4501 105.58 67.0661 105.58C67.6021 105.58 68.0861 105.7 68.5181 105.94C68.9501 106.18 69.2941 106.54 69.5501 107.02C69.8141 107.5 69.9461 108.1 69.9461 108.82C69.9461 109.54 69.8181 110.14 69.5621 110.62C69.3141 111.1 68.9741 111.464 68.5421 111.712C68.1101 111.952 67.6181 112.072 67.0661 112.072ZM67.1621 111.064C67.5621 111.064 67.9221 110.972 68.2421 110.788C68.5701 110.604 68.8261 110.344 69.0101 110.008C69.2021 109.664 69.2981 109.268 69.2981 108.82C69.2981 108.364 69.2021 107.972 69.0101 107.644C68.8261 107.308 68.5701 107.048 68.2421 106.864C67.9221 106.68 67.5621 106.588 67.1621 106.588C66.7541 106.588 66.3901 106.68 66.0701 106.864C65.7501 107.048 65.4941 107.308 65.3021 107.644C65.1101 107.972 65.0141 108.364 65.0141 108.82C65.0141 109.268 65.1101 109.664 65.3021 110.008C65.4941 110.344 65.7501 110.604 66.0701 110.788C66.3901 110.972 66.7541 111.064 67.1621 111.064ZM69.3341 112V110.284L69.4061 108.808L69.2861 107.332V103.096H70.4381V112H69.3341ZM72.8178 112V105.64H73.9698V112H72.8178ZM73.3938 104.416C73.1698 104.416 72.9818 104.344 72.8298 104.2C72.6858 104.056 72.6138 103.88 72.6138 103.672C72.6138 103.456 72.6858 103.276 72.8298 103.132C72.9818 102.988 73.1698 102.916 73.3938 102.916C73.6178 102.916 73.8018 102.988 73.9458 103.132C74.0978 103.268 74.1738 103.44 74.1738 103.648C74.1738 103.864 74.1018 104.048 73.9578 104.2C73.8138 104.344 73.6258 104.416 73.3938 104.416ZM81.052 107.224H85.372V108.244H81.052V107.224ZM81.16 110.956H86.056V112H79.96V103.6H85.888V104.644H81.16V110.956ZM87.3887 109.204V108.208H90.6167V109.204H87.3887ZM96.5965 112.096C95.9565 112.096 95.3645 111.992 94.8205 111.784C94.2845 111.568 93.8165 111.268 93.4165 110.884C93.0245 110.492 92.7165 110.036 92.4925 109.516C92.2685 108.996 92.1565 108.424 92.1565 107.8C92.1565 107.176 92.2685 106.604 92.4925 106.084C92.7165 105.564 93.0285 105.112 93.4285 104.728C93.8285 104.336 94.2965 104.036 94.8325 103.828C95.3765 103.612 95.9685 103.504 96.6085 103.504C97.2565 103.504 97.8525 103.616 98.3965 103.84C98.9485 104.056 99.4165 104.38 99.8005 104.812L99.0205 105.568C98.7005 105.232 98.3405 104.984 97.9405 104.824C97.5405 104.656 97.1125 104.572 96.6565 104.572C96.1845 104.572 95.7445 104.652 95.3365 104.812C94.9365 104.972 94.5885 105.196 94.2925 105.484C93.9965 105.772 93.7645 106.116 93.5965 106.516C93.4365 106.908 93.3565 107.336 93.3565 107.8C93.3565 108.264 93.4365 108.696 93.5965 109.096C93.7645 109.488 93.9965 109.828 94.2925 110.116C94.5885 110.404 94.9365 110.628 95.3365 110.788C95.7445 110.948 96.1845 111.028 96.6565 111.028C97.1125 111.028 97.5405 110.948 97.9405 110.788C98.3405 110.62 98.7005 110.364 99.0205 110.02L99.8005 110.776C99.4165 111.208 98.9485 111.536 98.3965 111.76C97.8525 111.984 97.2525 112.096 96.5965 112.096ZM103.999 112.072C103.359 112.072 102.791 111.932 102.295 111.652C101.799 111.372 101.407 110.988 101.119 110.5C100.831 110.004 100.687 109.444 100.687 108.82C100.687 108.188 100.831 107.628 101.119 107.14C101.407 106.652 101.799 106.272 102.295 106C102.791 105.72 103.359 105.58 103.999 105.58C104.631 105.58 105.195 105.72 105.691 106C106.195 106.272 106.587 106.652 106.867 107.14C107.155 107.62 107.299 108.18 107.299 108.82C107.299 109.452 107.155 110.012 106.867 110.5C106.587 110.988 106.195 111.372 105.691 111.652C105.195 111.932 104.631 112.072 103.999 112.072ZM103.999 111.064C104.407 111.064 104.771 110.972 105.091 110.788C105.419 110.604 105.675 110.344 105.859 110.008C106.043 109.664 106.135 109.268 106.135 108.82C106.135 108.364 106.043 107.972 105.859 107.644C105.675 107.308 105.419 107.048 105.091 106.864C104.771 106.68 104.407 106.588 103.999 106.588C103.591 106.588 103.227 106.68 102.907 106.864C102.587 107.048 102.331 107.308 102.139 107.644C101.947 107.972 101.851 108.364 101.851 108.82C101.851 109.268 101.947 109.664 102.139 110.008C102.331 110.344 102.587 110.604 102.907 110.788C103.227 110.972 103.591 111.064 103.999 111.064ZM117.048 105.58C117.56 105.58 118.012 105.68 118.404 105.88C118.796 106.08 119.1 106.384 119.316 106.792C119.54 107.2 119.652 107.716 119.652 108.34V112H118.5V108.472C118.5 107.856 118.356 107.392 118.068 107.08C117.78 106.768 117.376 106.612 116.856 106.612C116.472 106.612 116.136 106.692 115.848 106.852C115.56 107.012 115.336 107.248 115.176 107.56C115.024 107.872 114.948 108.26 114.948 108.724V112H113.796V108.472C113.796 107.856 113.652 107.392 113.364 107.08C113.084 106.768 112.68 106.612 112.152 106.612C111.776 106.612 111.444 106.692 111.156 106.852C110.868 107.012 110.644 107.248 110.484 107.56C110.324 107.872 110.244 108.26 110.244 108.724V112H109.092V105.64H110.196V107.332L110.016 106.9C110.216 106.484 110.524 106.16 110.94 105.928C111.356 105.696 111.84 105.58 112.392 105.58C113 105.58 113.524 105.732 113.964 106.036C114.404 106.332 114.692 106.784 114.828 107.392L114.36 107.2C114.552 106.712 114.888 106.32 115.368 106.024C115.848 105.728 116.408 105.58 117.048 105.58ZM129.928 105.58C130.44 105.58 130.892 105.68 131.284 105.88C131.676 106.08 131.98 106.384 132.196 106.792C132.42 107.2 132.532 107.716 132.532 108.34V112H131.38V108.472C131.38 107.856 131.236 107.392 130.948 107.08C130.66 106.768 130.256 106.612 129.736 106.612C129.352 106.612 129.016 106.692 128.728 106.852C128.44 107.012 128.216 107.248 128.056 107.56C127.904 107.872 127.828 108.26 127.828 108.724V112H126.676V108.472C126.676 107.856 126.532 107.392 126.244 107.08C125.964 106.768 125.56 106.612 125.032 106.612C124.656 106.612 124.324 106.692 124.036 106.852C123.748 107.012 123.524 107.248 123.364 107.56C123.204 107.872 123.124 108.26 123.124 108.724V112H121.972V105.64H123.076V107.332L122.896 106.9C123.096 106.484 123.404 106.16 123.82 105.928C124.236 105.696 124.72 105.58 125.272 105.58C125.88 105.58 126.404 105.732 126.844 106.036C127.284 106.332 127.572 106.784 127.708 107.392L127.24 107.2C127.432 106.712 127.768 106.32 128.248 106.024C128.728 105.728 129.288 105.58 129.928 105.58ZM137.683 112.072C137.003 112.072 136.403 111.932 135.883 111.652C135.371 111.372 134.971 110.988 134.683 110.5C134.403 110.012 134.263 109.452 134.263 108.82C134.263 108.188 134.399 107.628 134.671 107.14C134.951 106.652 135.331 106.272 135.811 106C136.299 105.72 136.847 105.58 137.455 105.58C138.071 105.58 138.615 105.716 139.087 105.988C139.559 106.26 139.927 106.644 140.191 107.14C140.463 107.628 140.599 108.2 140.599 108.856C140.599 108.904 140.595 108.96 140.587 109.024C140.587 109.088 140.583 109.148 140.575 109.204H135.163V108.376H139.975L139.507 108.664C139.515 108.256 139.431 107.892 139.255 107.572C139.079 107.252 138.835 107.004 138.523 106.828C138.219 106.644 137.863 106.552 137.455 106.552C137.055 106.552 136.699 106.644 136.387 106.828C136.075 107.004 135.831 107.256 135.655 107.584C135.479 107.904 135.391 108.272 135.391 108.688V108.88C135.391 109.304 135.487 109.684 135.679 110.02C135.879 110.348 136.155 110.604 136.507 110.788C136.859 110.972 137.263 111.064 137.719 111.064C138.095 111.064 138.435 111 138.739 110.872C139.051 110.744 139.323 110.552 139.555 110.296L140.191 111.04C139.903 111.376 139.543 111.632 139.111 111.808C138.687 111.984 138.211 112.072 137.683 112.072ZM142.399 112V105.64H143.503V107.368L143.395 106.936C143.571 106.496 143.867 106.16 144.283 105.928C144.699 105.696 145.211 105.58 145.819 105.58V106.696C145.771 106.688 145.723 106.684 145.675 106.684C145.635 106.684 145.595 106.684 145.555 106.684C144.939 106.684 144.451 106.868 144.091 107.236C143.731 107.604 143.551 108.136 143.551 108.832V112H142.399ZM150.152 112.072C149.504 112.072 148.924 111.932 148.412 111.652C147.908 111.372 147.512 110.988 147.224 110.5C146.936 110.012 146.792 109.452 146.792 108.82C146.792 108.188 146.936 107.628 147.224 107.14C147.512 106.652 147.908 106.272 148.412 106C148.924 105.72 149.504 105.58 150.152 105.58C150.728 105.58 151.24 105.696 151.688 105.928C152.144 106.152 152.496 106.488 152.744 106.936L151.868 107.5C151.66 107.188 151.404 106.96 151.1 106.816C150.804 106.664 150.484 106.588 150.14 106.588C149.724 106.588 149.352 106.68 149.024 106.864C148.696 107.048 148.436 107.308 148.244 107.644C148.052 107.972 147.956 108.364 147.956 108.82C147.956 109.276 148.052 109.672 148.244 110.008C148.436 110.344 148.696 110.604 149.024 110.788C149.352 110.972 149.724 111.064 150.14 111.064C150.484 111.064 150.804 110.992 151.1 110.848C151.404 110.696 151.66 110.464 151.868 110.152L152.744 110.704C152.496 111.144 152.144 111.484 151.688 111.724C151.24 111.956 150.728 112.072 150.152 112.072ZM157.174 112.072C156.494 112.072 155.894 111.932 155.374 111.652C154.862 111.372 154.462 110.988 154.174 110.5C153.894 110.012 153.754 109.452 153.754 108.82C153.754 108.188 153.89 107.628 154.162 107.14C154.442 106.652 154.822 106.272 155.302 106C155.79 105.72 156.338 105.58 156.946 105.58C157.562 105.58 158.106 105.716 158.578 105.988C159.05 106.26 159.418 106.644 159.682 107.14C159.954 107.628 160.09 108.2 160.09 108.856C160.09 108.904 160.086 108.96 160.078 109.024C160.078 109.088 160.074 109.148 160.066 109.204H154.654V108.376H159.466L158.998 108.664C159.006 108.256 158.922 107.892 158.746 107.572C158.57 107.252 158.326 107.004 158.014 106.828C157.71 106.644 157.354 106.552 156.946 106.552C156.546 106.552 156.19 106.644 155.878 106.828C155.566 107.004 155.322 107.256 155.146 107.584C154.97 107.904 154.882 108.272 154.882 108.688V108.88C154.882 109.304 154.978 109.684 155.17 110.02C155.37 110.348 155.646 110.604 155.998 110.788C156.35 110.972 156.754 111.064 157.21 111.064C157.586 111.064 157.926 111 158.23 110.872C158.542 110.744 158.814 110.552 159.046 110.296L159.682 111.04C159.394 111.376 159.034 111.632 158.602 111.808C158.178 111.984 157.702 112.072 157.174 112.072ZM165.48 112V103.6H166.68V110.956H171.228V112H165.48ZM176.585 112V110.656L176.525 110.404V108.112C176.525 107.624 176.381 107.248 176.093 106.984C175.813 106.712 175.389 106.576 174.821 106.576C174.445 106.576 174.077 106.64 173.717 106.768C173.357 106.888 173.053 107.052 172.805 107.26L172.325 106.396C172.653 106.132 173.045 105.932 173.501 105.796C173.965 105.652 174.449 105.58 174.953 105.58C175.825 105.58 176.497 105.792 176.969 106.216C177.441 106.64 177.677 107.288 177.677 108.16V112H176.585ZM174.497 112.072C174.025 112.072 173.609 111.992 173.249 111.832C172.897 111.672 172.625 111.452 172.433 111.172C172.241 110.884 172.145 110.56 172.145 110.2C172.145 109.856 172.225 109.544 172.385 109.264C172.553 108.984 172.821 108.76 173.189 108.592C173.565 108.424 174.069 108.34 174.701 108.34H176.717V109.168H174.749C174.173 109.168 173.785 109.264 173.585 109.456C173.385 109.648 173.285 109.88 173.285 110.152C173.285 110.464 173.409 110.716 173.657 110.908C173.905 111.092 174.249 111.184 174.689 111.184C175.121 111.184 175.497 111.088 175.817 110.896C176.145 110.704 176.381 110.424 176.525 110.056L176.753 110.848C176.601 111.224 176.333 111.524 175.949 111.748C175.565 111.964 175.081 112.072 174.497 112.072ZM181.236 112L178.872 105.64H179.964L182.064 111.4H181.548L183.732 105.64H184.704L186.84 111.4H186.336L188.484 105.64H189.516L187.14 112H186.036L184.032 106.744H184.368L182.34 112H181.236Z" fill="#19191F"/>
<path d="M248 54.5C248 53.0166 247.56 51.5666 246.736 50.3332C245.912 49.0999 244.741 48.1386 243.37 47.5709C242 47.0032 240.492 46.8547 239.037 47.1441C237.582 47.4335 236.246 48.1478 235.197 49.1967C234.148 50.2456 233.434 51.582 233.144 53.0368C232.855 54.4917 233.003 55.9997 233.571 57.3701C234.139 58.7406 235.1 59.9119 236.333 60.736C237.567 61.5601 239.017 62 240.5 62C242.488 61.9978 244.395 61.2069 245.801 59.8009C247.207 58.3948 247.998 56.4884 248 54.5ZM239.97 58.0303C239.9 57.9606 239.845 57.878 239.807 57.787C239.769 57.696 239.75 57.5985 239.75 57.5C239.75 57.4015 239.769 57.304 239.807 57.213C239.845 57.122 239.9 57.0393 239.97 56.9697L241.689 55.25H237.5C237.301 55.25 237.11 55.171 236.97 55.0303C236.829 54.8897 236.75 54.6989 236.75 54.5C236.75 54.3011 236.829 54.1103 236.97 53.9697C237.11 53.829 237.301 53.75 237.5 53.75H241.689L239.97 52.0303C239.831 51.8892 239.754 51.6991 239.755 51.5014C239.756 51.3037 239.835 51.1143 239.975 50.9745C240.114 50.8347 240.304 50.7558 240.501 50.7549C240.699 50.754 240.889 50.8312 241.03 50.9698L244.03 53.9695C244.17 54.1105 244.249 54.3012 244.249 54.5C244.249 54.6988 244.17 54.8895 244.03 55.0305L241.03 58.0303C240.961 58.0999 240.878 58.1552 240.787 58.1929C240.696 58.2306 240.598 58.25 240.5 58.25C240.402 58.25 240.304 58.2306 240.213 58.1929C240.122 58.1552 240.039 58.0999 239.97 58.0303Z" fill="#5B588F"/>
<defs>
<filter id="filter0_dd_4190_12451" x="0" y="0" width="290" height="182" filterUnits="userSpaceOnUse" color-interpolation-filters="sRGB">
<feFlood flood-opacity="0" result="BackgroundImageFix"/>
<feColorMatrix in="SourceAlpha" type="matrix" values="0 0 0 0 0 0 0 0 0 0 0 0 0 0 0 0 0 0 127 0" result="hardAlpha"/>
<feMorphology radius="2" operator="dilate" in="SourceAlpha" result="effect1_dropShadow_4190_12451"/>
<feOffset dx="4" dy="4"/>
<feGaussianBlur stdDeviation="8"/>
<feComposite in2="hardAlpha" operator="out"/>
<feColorMatrix type="matrix" values="0 0 0 0 1 0 0 0 0 1 0 0 0 0 1 0 0 0 0.25 0"/>
<feBlend mode="normal" in2="BackgroundImageFix" result="effect1_dropShadow_4190_12451"/>
<feColorMatrix in="SourceAlpha" type="matrix" values="0 0 0 0 0 0 0 0 0 0 0 0 0 0 0 0 0 0 127 0" result="hardAlpha"/>
<feOffset dx="-4" dy="-4"/>
<feGaussianBlur stdDeviation="8"/>
<feComposite in2="hardAlpha" operator="out"/>
<feColorMatrix type="matrix" values="0 0 0 0 1 0 0 0 0 1 0 0 0 0 1 0 0 0 0.25 0"/>
<feBlend mode="normal" in2="effect1_dropShadow_4190_12451" result="effect2_dropShadow_4190_12451"/>
<feBlend mode="normal" in="SourceGraphic" in2="effect2_dropShadow_4190_12451" result="shape"/>
</filter>
</defs>
</svg>
