<svg width="290" height="182" viewBox="0 0 290 182" fill="none" xmlns="http://www.w3.org/2000/svg">
<g filter="url(#filter0_dd_4190_12453)">
<rect x="20" y="20" width="248" height="140" rx="10" fill="white"/>
</g>
<path d="M55 70C63.2843 70 70 63.2843 70 55C70 46.7157 63.2843 40 55 40C46.7157 40 40 46.7157 40 55C40 63.2843 46.7157 70 55 70Z" fill="#F0F0F0"/>
<path d="M55 40C49.0531 40 43.9147 43.4608 41.4884 48.4783H68.5115C66.0854 43.4608 60.9469 40 55 40Z" fill="#FF9811"/>
<path d="M55 69.9998C60.9469 69.9998 66.0854 66.5389 68.5116 61.5215H41.4884C43.9147 66.5389 49.0531 69.9998 55 69.9998Z" fill="#6DA544"/>
<path d="M55 60.2179C57.8815 60.2179 60.2174 57.882 60.2174 55.0006C60.2174 52.1191 57.8815 49.7832 55 49.7832C52.1185 49.7832 49.7827 52.1191 49.7827 55.0006C49.7827 57.882 52.1185 60.2179 55 60.2179Z" fill="#0052B4"/>
<path d="M55 58.26C56.8009 58.26 58.2609 56.8001 58.2609 54.9991C58.2609 53.1982 56.8009 51.7383 55 51.7383C53.1991 51.7383 51.7391 53.1982 51.7391 54.9991C51.7391 56.8001 53.1991 58.26 55 58.26Z" fill="#F0F0F0"/>
<path d="M55 50.9766L56.006 53.2581L58.4848 52.9885L57.0119 55.0004L58.4848 57.0124L56.006 56.7428L55 59.0243L53.994 56.7428L51.5153 57.0123L52.9881 55.0004L51.5153 52.9885L53.994 53.2581L55 50.9766Z" fill="#0052B4"/>
<path d="M41.162 94V84.2H43.43V94H41.162ZM50.3798 86.356C50.9771 86.356 51.5091 86.4773 51.9757 86.72C52.4517 86.9533 52.8251 87.3173 53.0958 87.812C53.3664 88.2973 53.5018 88.9227 53.5018 89.688V94H51.3178V90.024C51.3178 89.4173 51.1824 88.9693 50.9117 88.68C50.6504 88.3907 50.2771 88.246 49.7918 88.246C49.4464 88.246 49.1338 88.3207 48.8538 88.47C48.5831 88.61 48.3684 88.8293 48.2098 89.128C48.0604 89.4267 47.9858 89.8093 47.9858 90.276V94H45.8017V86.468H47.8878V88.554L47.4957 87.924C47.7664 87.42 48.1538 87.0327 48.6578 86.762C49.1618 86.4913 49.7358 86.356 50.3798 86.356ZM58.9701 94.112C58.2608 94.112 57.6215 93.9533 57.0521 93.636C56.4828 93.3093 56.0301 92.8567 55.6941 92.278C55.3675 91.6993 55.2041 91.018 55.2041 90.234C55.2041 89.4407 55.3675 88.7547 55.6941 88.176C56.0301 87.5973 56.4828 87.1493 57.0521 86.832C57.6215 86.5147 58.2608 86.356 58.9701 86.356C59.6048 86.356 60.1601 86.496 60.6361 86.776C61.1121 87.056 61.4808 87.4807 61.7421 88.05C62.0035 88.6193 62.1341 89.3473 62.1341 90.234C62.1341 91.1113 62.0081 91.8393 61.7561 92.418C61.5041 92.9873 61.1401 93.412 60.6641 93.692C60.1975 93.972 59.6328 94.112 58.9701 94.112ZM59.3481 92.32C59.7028 92.32 60.0248 92.236 60.3141 92.068C60.6035 91.9 60.8321 91.662 61.0001 91.354C61.1775 91.0367 61.2661 90.6633 61.2661 90.234C61.2661 89.7953 61.1775 89.422 61.0001 89.114C60.8321 88.806 60.6035 88.568 60.3141 88.4C60.0248 88.232 59.7028 88.148 59.3481 88.148C58.9841 88.148 58.6575 88.232 58.3681 88.4C58.0788 88.568 57.8455 88.806 57.6681 89.114C57.5001 89.422 57.4161 89.7953 57.4161 90.234C57.4161 90.6633 57.5001 91.0367 57.6681 91.354C57.8455 91.662 58.0788 91.9 58.3681 92.068C58.6575 92.236 58.9841 92.32 59.3481 92.32ZM61.3221 94V92.46L61.3641 90.22L61.2241 87.994V83.612H63.4081V94H61.3221ZM65.6295 94V86.468H67.8135V94H65.6295ZM66.7215 85.418C66.3202 85.418 65.9935 85.3013 65.7415 85.068C65.4895 84.8347 65.3635 84.5453 65.3635 84.2C65.3635 83.8547 65.4895 83.5653 65.7415 83.332C65.9935 83.0987 66.3202 82.982 66.7215 82.982C67.1228 82.982 67.4495 83.094 67.7015 83.318C67.9535 83.5327 68.0795 83.8127 68.0795 84.158C68.0795 84.522 67.9535 84.8253 67.7015 85.068C67.4588 85.3013 67.1322 85.418 66.7215 85.418ZM74.6604 94V92.53L74.5204 92.208V89.576C74.5204 89.1093 74.3758 88.7453 74.0864 88.484C73.8064 88.2227 73.3724 88.092 72.7844 88.092C72.3831 88.092 71.9864 88.1573 71.5944 88.288C71.2118 88.4093 70.8851 88.5773 70.6144 88.792L69.8304 87.266C70.2411 86.9767 70.7358 86.7527 71.3144 86.594C71.8931 86.4353 72.4811 86.356 73.0784 86.356C74.2264 86.356 75.1178 86.6267 75.7524 87.168C76.3871 87.7093 76.7044 88.554 76.7044 89.702V94H74.6604ZM72.3644 94.112C71.7764 94.112 71.2724 94.014 70.8524 93.818C70.4324 93.6127 70.1104 93.3373 69.8864 92.992C69.6624 92.6467 69.5504 92.2593 69.5504 91.83C69.5504 91.382 69.6578 90.99 69.8724 90.654C70.0964 90.318 70.4464 90.0567 70.9224 89.87C71.3984 89.674 72.0191 89.576 72.7844 89.576H74.7864V90.85H73.0224C72.5091 90.85 72.1544 90.934 71.9584 91.102C71.7718 91.27 71.6784 91.48 71.6784 91.732C71.6784 92.012 71.7858 92.236 72.0004 92.404C72.2244 92.5627 72.5278 92.642 72.9104 92.642C73.2744 92.642 73.6011 92.558 73.8904 92.39C74.1798 92.2127 74.3898 91.956 74.5204 91.62L74.8564 92.628C74.6978 93.1133 74.4084 93.482 73.9884 93.734C73.5684 93.986 73.0271 94.112 72.3644 94.112ZM78.462 88.26L79.386 84.9L79.694 86.174C79.2927 86.174 78.9614 86.0573 78.7 85.824C78.448 85.5813 78.322 85.2547 78.322 84.844C78.322 84.4427 78.4527 84.1207 78.714 83.878C78.9754 83.626 79.2974 83.5 79.68 83.5C80.072 83.5 80.394 83.626 80.646 83.878C80.898 84.1207 81.024 84.4427 81.024 84.844C81.024 84.9653 81.0147 85.0867 80.996 85.208C80.9867 85.32 80.954 85.4553 80.898 85.614C80.8514 85.7727 80.772 85.9827 80.66 86.244L79.848 88.26H78.462ZM84.992 94.112C84.348 94.112 83.7273 94.0373 83.13 93.888C82.542 93.7293 82.0753 93.5333 81.73 93.3L82.458 91.732C82.8033 91.9467 83.2093 92.124 83.676 92.264C84.152 92.3947 84.6187 92.46 85.076 92.46C85.58 92.46 85.9347 92.3993 86.14 92.278C86.3547 92.1567 86.462 91.9887 86.462 91.774C86.462 91.5967 86.378 91.466 86.21 91.382C86.0513 91.2887 85.8367 91.2187 85.566 91.172C85.2953 91.1253 84.9967 91.0787 84.67 91.032C84.3527 90.9853 84.0307 90.9247 83.704 90.85C83.3773 90.766 83.0787 90.6447 82.808 90.486C82.5373 90.3273 82.318 90.1127 82.15 89.842C81.9913 89.5713 81.912 89.2213 81.912 88.792C81.912 88.316 82.0473 87.896 82.318 87.532C82.598 87.168 82.9993 86.8833 83.522 86.678C84.0447 86.4633 84.67 86.356 85.398 86.356C85.9113 86.356 86.434 86.412 86.966 86.524C87.498 86.636 87.9413 86.7993 88.296 87.014L87.568 88.568C87.204 88.3533 86.8353 88.2087 86.462 88.134C86.098 88.05 85.7433 88.008 85.398 88.008C84.9127 88.008 84.558 88.0733 84.334 88.204C84.11 88.3347 83.998 88.5027 83.998 88.708C83.998 88.8947 84.0773 89.0347 84.236 89.128C84.404 89.2213 84.6233 89.296 84.894 89.352C85.1647 89.408 85.4587 89.4593 85.776 89.506C86.1027 89.5433 86.4293 89.604 86.756 89.688C87.0827 89.772 87.3767 89.8933 87.638 90.052C87.9087 90.2013 88.128 90.4113 88.296 90.682C88.464 90.9433 88.548 91.2887 88.548 91.718C88.548 92.1847 88.408 92.6 88.128 92.964C87.848 93.3187 87.442 93.5987 86.91 93.804C86.3873 94.0093 85.748 94.112 84.992 94.112ZM94.4143 94V84.2H98.8663C99.9303 84.2 100.868 84.4053 101.68 84.816C102.492 85.2173 103.127 85.782 103.584 86.51C104.042 87.238 104.27 88.1013 104.27 89.1C104.27 90.0893 104.042 90.9527 103.584 91.69C103.127 92.418 102.492 92.9873 101.68 93.398C100.868 93.7993 99.9303 94 98.8663 94H94.4143ZM96.6823 92.138H98.7543C99.4077 92.138 99.9723 92.0167 100.448 91.774C100.934 91.522 101.307 91.1673 101.568 90.71C101.839 90.2527 101.974 89.716 101.974 89.1C101.974 88.4747 101.839 87.938 101.568 87.49C101.307 87.0327 100.934 86.6827 100.448 86.44C99.9723 86.188 99.4077 86.062 98.7543 86.062H96.6823V92.138ZM110.647 94V92.53L110.507 92.208V89.576C110.507 89.1093 110.362 88.7453 110.073 88.484C109.793 88.2227 109.359 88.092 108.771 88.092C108.369 88.092 107.973 88.1573 107.581 88.288C107.198 88.4093 106.871 88.5773 106.601 88.792L105.817 87.266C106.227 86.9767 106.722 86.7527 107.301 86.594C107.879 86.4353 108.467 86.356 109.065 86.356C110.213 86.356 111.104 86.6267 111.739 87.168C112.373 87.7093 112.691 88.554 112.691 89.702V94H110.647ZM108.351 94.112C107.763 94.112 107.259 94.014 106.839 93.818C106.419 93.6127 106.097 93.3373 105.873 92.992C105.649 92.6467 105.537 92.2593 105.537 91.83C105.537 91.382 105.644 90.99 105.859 90.654C106.083 90.318 106.433 90.0567 106.909 89.87C107.385 89.674 108.005 89.576 108.771 89.576H110.773V90.85H109.009C108.495 90.85 108.141 90.934 107.945 91.102C107.758 91.27 107.665 91.48 107.665 91.732C107.665 92.012 107.772 92.236 107.987 92.404C108.211 92.5627 108.514 92.642 108.897 92.642C109.261 92.642 109.587 92.558 109.877 92.39C110.166 92.2127 110.376 91.956 110.507 91.62L110.843 92.628C110.684 93.1133 110.395 93.482 109.975 93.734C109.555 93.986 109.013 94.112 108.351 94.112ZM117.947 94.112C117.061 94.112 116.37 93.888 115.875 93.44C115.381 92.9827 115.133 92.306 115.133 91.41V84.802H117.317V91.382C117.317 91.6993 117.401 91.9467 117.569 92.124C117.737 92.292 117.966 92.376 118.255 92.376C118.601 92.376 118.895 92.2827 119.137 92.096L119.725 93.636C119.501 93.7947 119.231 93.916 118.913 94C118.605 94.0747 118.283 94.112 117.947 94.112ZM113.971 88.316V86.636H119.193V88.316H113.971ZM125.771 94V92.53L125.631 92.208V89.576C125.631 89.1093 125.487 88.7453 125.197 88.484C124.917 88.2227 124.483 88.092 123.895 88.092C123.494 88.092 123.097 88.1573 122.705 88.288C122.323 88.4093 121.996 88.5773 121.725 88.792L120.941 87.266C121.352 86.9767 121.847 86.7527 122.425 86.594C123.004 86.4353 123.592 86.356 124.189 86.356C125.337 86.356 126.229 86.6267 126.863 87.168C127.498 87.7093 127.815 88.554 127.815 89.702V94H125.771ZM123.475 94.112C122.887 94.112 122.383 94.014 121.963 93.818C121.543 93.6127 121.221 93.3373 120.997 92.992C120.773 92.6467 120.661 92.2593 120.661 91.83C120.661 91.382 120.769 90.99 120.983 90.654C121.207 90.318 121.557 90.0567 122.033 89.87C122.509 89.674 123.13 89.576 123.895 89.576H125.897V90.85H124.133C123.62 90.85 123.265 90.934 123.069 91.102C122.883 91.27 122.789 91.48 122.789 91.732C122.789 92.012 122.897 92.236 123.111 92.404C123.335 92.5627 123.639 92.642 124.021 92.642C124.385 92.642 124.712 92.558 125.001 92.39C125.291 92.2127 125.501 91.956 125.631 91.62L125.967 92.628C125.809 93.1133 125.519 93.482 125.099 93.734C124.679 93.986 124.138 94.112 123.475 94.112ZM134.311 94V84.2H138.553C139.43 84.2 140.186 84.3447 140.821 84.634C141.455 84.914 141.945 85.32 142.291 85.852C142.636 86.384 142.809 87.0187 142.809 87.756C142.809 88.484 142.636 89.114 142.291 89.646C141.945 90.178 141.455 90.5887 140.821 90.878C140.186 91.158 139.43 91.298 138.553 91.298H135.571L136.579 90.276V94H134.311ZM136.579 90.528L135.571 89.45H138.427C139.127 89.45 139.649 89.3007 139.995 89.002C140.34 88.7033 140.513 88.288 140.513 87.756C140.513 87.2147 140.34 86.7947 139.995 86.496C139.649 86.1973 139.127 86.048 138.427 86.048H135.571L136.579 84.97V90.528ZM144.46 94V86.468H146.546V88.596L146.252 87.98C146.476 87.448 146.836 87.0467 147.33 86.776C147.825 86.496 148.427 86.356 149.136 86.356V88.372C149.043 88.3627 148.959 88.358 148.884 88.358C148.81 88.3487 148.73 88.344 148.646 88.344C148.049 88.344 147.564 88.5167 147.19 88.862C146.826 89.198 146.644 89.7253 146.644 90.444V94H144.46ZM154.164 94.112C153.362 94.112 152.648 93.944 152.022 93.608C151.406 93.272 150.916 92.8147 150.552 92.236C150.198 91.648 150.02 90.9807 150.02 90.234C150.02 89.478 150.198 88.8107 150.552 88.232C150.916 87.644 151.406 87.1867 152.022 86.86C152.648 86.524 153.362 86.356 154.164 86.356C154.958 86.356 155.667 86.524 156.292 86.86C156.918 87.1867 157.408 87.6393 157.762 88.218C158.117 88.7967 158.294 89.4687 158.294 90.234C158.294 90.9807 158.117 91.648 157.762 92.236C157.408 92.8147 156.918 93.272 156.292 93.608C155.667 93.944 154.958 94.112 154.164 94.112ZM154.164 92.32C154.528 92.32 154.855 92.236 155.144 92.068C155.434 91.9 155.662 91.662 155.83 91.354C155.998 91.0367 156.082 90.6633 156.082 90.234C156.082 89.7953 155.998 89.422 155.83 89.114C155.662 88.806 155.434 88.568 155.144 88.4C154.855 88.232 154.528 88.148 154.164 88.148C153.8 88.148 153.474 88.232 153.184 88.4C152.895 88.568 152.662 88.806 152.484 89.114C152.316 89.422 152.232 89.7953 152.232 90.234C152.232 90.6633 152.316 91.0367 152.484 91.354C152.662 91.662 152.895 91.9 153.184 92.068C153.474 92.236 153.8 92.32 154.164 92.32ZM163.034 94.112C162.147 94.112 161.457 93.888 160.962 93.44C160.467 92.9827 160.22 92.306 160.22 91.41V84.802H162.404V91.382C162.404 91.6993 162.488 91.9467 162.656 92.124C162.824 92.292 163.053 92.376 163.342 92.376C163.687 92.376 163.981 92.2827 164.224 92.096L164.812 93.636C164.588 93.7947 164.317 93.916 164 94C163.692 94.0747 163.37 94.112 163.034 94.112ZM159.058 88.316V86.636H164.28V88.316H159.058ZM169.744 94.112C168.885 94.112 168.129 93.944 167.476 93.608C166.832 93.272 166.332 92.8147 165.978 92.236C165.623 91.648 165.446 90.9807 165.446 90.234C165.446 89.478 165.618 88.8107 165.964 88.232C166.318 87.644 166.799 87.1867 167.406 86.86C168.012 86.524 168.698 86.356 169.464 86.356C170.201 86.356 170.864 86.5147 171.452 86.832C172.049 87.14 172.52 87.588 172.866 88.176C173.211 88.7547 173.384 89.45 173.384 90.262C173.384 90.346 173.379 90.444 173.37 90.556C173.36 90.6587 173.351 90.7567 173.342 90.85H167.224V89.576H172.194L171.354 89.954C171.354 89.562 171.274 89.2213 171.116 88.932C170.957 88.6427 170.738 88.4187 170.458 88.26C170.178 88.092 169.851 88.008 169.478 88.008C169.104 88.008 168.773 88.092 168.484 88.26C168.204 88.4187 167.984 88.6473 167.826 88.946C167.667 89.2353 167.588 89.5807 167.588 89.982V90.318C167.588 90.7287 167.676 91.0927 167.854 91.41C168.04 91.718 168.297 91.956 168.624 92.124C168.96 92.2827 169.352 92.362 169.8 92.362C170.201 92.362 170.551 92.3013 170.85 92.18C171.158 92.0587 171.438 91.8767 171.69 91.634L172.852 92.894C172.506 93.286 172.072 93.5893 171.55 93.804C171.027 94.0093 170.425 94.112 169.744 94.112ZM178.678 94.112C177.866 94.112 177.142 93.9487 176.508 93.622C175.873 93.286 175.374 92.824 175.01 92.236C174.655 91.648 174.478 90.9807 174.478 90.234C174.478 89.478 174.655 88.8107 175.01 88.232C175.374 87.644 175.873 87.1867 176.508 86.86C177.142 86.524 177.866 86.356 178.678 86.356C179.471 86.356 180.162 86.524 180.75 86.86C181.338 87.1867 181.772 87.658 182.052 88.274L180.358 89.184C180.162 88.8293 179.914 88.568 179.616 88.4C179.326 88.232 179.009 88.148 178.664 88.148C178.29 88.148 177.954 88.232 177.656 88.4C177.357 88.568 177.119 88.806 176.942 89.114C176.774 89.422 176.69 89.7953 176.69 90.234C176.69 90.6727 176.774 91.046 176.942 91.354C177.119 91.662 177.357 91.9 177.656 92.068C177.954 92.236 178.29 92.32 178.664 92.32C179.009 92.32 179.326 92.2407 179.616 92.082C179.914 91.914 180.162 91.648 180.358 91.284L182.052 92.208C181.772 92.8147 181.338 93.286 180.75 93.622C180.162 93.9487 179.471 94.112 178.678 94.112ZM186.699 94.112C185.812 94.112 185.121 93.888 184.627 93.44C184.132 92.9827 183.885 92.306 183.885 91.41V84.802H186.069V91.382C186.069 91.6993 186.153 91.9467 186.321 92.124C186.489 92.292 186.717 92.376 187.007 92.376C187.352 92.376 187.646 92.2827 187.889 92.096L188.477 93.636C188.253 93.7947 187.982 93.916 187.665 94C187.357 94.0747 187.035 94.112 186.699 94.112ZM182.723 88.316V86.636H187.945V88.316H182.723ZM189.903 94V86.468H192.087V94H189.903ZM190.995 85.418C190.593 85.418 190.267 85.3013 190.015 85.068C189.763 84.8347 189.637 84.5453 189.637 84.2C189.637 83.8547 189.763 83.5653 190.015 83.332C190.267 83.0987 190.593 82.982 190.995 82.982C191.396 82.982 191.723 83.094 191.975 83.318C192.227 83.5327 192.353 83.8127 192.353 84.158C192.353 84.522 192.227 84.8253 191.975 85.068C191.732 85.3013 191.405 85.418 190.995 85.418ZM197.897 94.112C197.095 94.112 196.381 93.944 195.755 93.608C195.139 93.272 194.649 92.8147 194.285 92.236C193.931 91.648 193.753 90.9807 193.753 90.234C193.753 89.478 193.931 88.8107 194.285 88.232C194.649 87.644 195.139 87.1867 195.755 86.86C196.381 86.524 197.095 86.356 197.897 86.356C198.691 86.356 199.4 86.524 200.025 86.86C200.651 87.1867 201.141 87.6393 201.495 88.218C201.85 88.7967 202.027 89.4687 202.027 90.234C202.027 90.9807 201.85 91.648 201.495 92.236C201.141 92.8147 200.651 93.272 200.025 93.608C199.4 93.944 198.691 94.112 197.897 94.112ZM197.897 92.32C198.261 92.32 198.588 92.236 198.877 92.068C199.167 91.9 199.395 91.662 199.563 91.354C199.731 91.0367 199.815 90.6633 199.815 90.234C199.815 89.7953 199.731 89.422 199.563 89.114C199.395 88.806 199.167 88.568 198.877 88.4C198.588 88.232 198.261 88.148 197.897 88.148C197.533 88.148 197.207 88.232 196.917 88.4C196.628 88.568 196.395 88.806 196.217 89.114C196.049 89.422 195.965 89.7953 195.965 90.234C195.965 90.6633 196.049 91.0367 196.217 91.354C196.395 91.662 196.628 91.9 196.917 92.068C197.207 92.236 197.533 92.32 197.897 92.32ZM208.265 86.356C208.863 86.356 209.395 86.4773 209.861 86.72C210.337 86.9533 210.711 87.3173 210.981 87.812C211.252 88.2973 211.387 88.9227 211.387 89.688V94H209.203V90.024C209.203 89.4173 209.068 88.9693 208.797 88.68C208.536 88.3907 208.163 88.246 207.677 88.246C207.332 88.246 207.019 88.3207 206.739 88.47C206.469 88.61 206.254 88.8293 206.095 89.128C205.946 89.4267 205.871 89.8093 205.871 90.276V94H203.687V86.468H205.773V88.554L205.381 87.924C205.652 87.42 206.039 87.0327 206.543 86.762C207.047 86.4913 207.621 86.356 208.265 86.356ZM217.886 94V84.2H222.674C223.906 84.2 224.83 84.4333 225.446 84.9C226.071 85.3667 226.384 85.9827 226.384 86.748C226.384 87.2613 226.258 87.7093 226.006 88.092C225.754 88.4653 225.408 88.7547 224.97 88.96C224.531 89.1653 224.027 89.268 223.458 89.268L223.724 88.694C224.34 88.694 224.886 88.7967 225.362 89.002C225.838 89.198 226.206 89.492 226.468 89.884C226.738 90.276 226.874 90.7567 226.874 91.326C226.874 92.166 226.542 92.824 225.88 93.3C225.217 93.7667 224.242 94 222.954 94H217.886ZM220.14 92.292H222.786C223.374 92.292 223.817 92.1987 224.116 92.012C224.424 91.816 224.578 91.508 224.578 91.088C224.578 90.6773 224.424 90.374 224.116 90.178C223.817 89.9727 223.374 89.87 222.786 89.87H219.972V88.218H222.394C222.944 88.218 223.364 88.1247 223.654 87.938C223.952 87.742 224.102 87.448 224.102 87.056C224.102 86.6733 223.952 86.3887 223.654 86.202C223.364 86.006 222.944 85.908 222.394 85.908H220.14V92.292ZM228.637 94V86.468H230.821V94H228.637ZM229.729 85.418C229.328 85.418 229.001 85.3013 228.749 85.068C228.497 84.8347 228.371 84.5453 228.371 84.2C228.371 83.8547 228.497 83.5653 228.749 83.332C229.001 83.0987 229.328 82.982 229.729 82.982C230.13 82.982 230.457 83.094 230.709 83.318C230.961 83.5327 231.087 83.8127 231.087 84.158C231.087 84.522 230.961 84.8253 230.709 85.068C230.466 85.3013 230.14 85.418 229.729 85.418ZM233.048 94V83.612H235.232V94H233.048ZM237.459 94V83.612H239.643V94H237.459ZM41.26 112V103.6H42.46V112H41.26ZM48.4028 105.58C48.9228 105.58 49.3788 105.68 49.7708 105.88C50.1708 106.08 50.4828 106.384 50.7068 106.792C50.9308 107.2 51.0428 107.716 51.0428 108.34V112H49.8908V108.472C49.8908 107.856 49.7388 107.392 49.4348 107.08C49.1388 106.768 48.7188 106.612 48.1748 106.612C47.7668 106.612 47.4108 106.692 47.1068 106.852C46.8028 107.012 46.5668 107.248 46.3988 107.56C46.2388 107.872 46.1588 108.26 46.1588 108.724V112H45.0068V105.64H46.1108V107.356L45.9308 106.9C46.1388 106.484 46.4588 106.16 46.8908 105.928C47.3228 105.696 47.8268 105.58 48.4028 105.58ZM56.0028 112.072C55.3868 112.072 54.8348 111.936 54.3468 111.664C53.8668 111.392 53.4868 111.012 53.2068 110.524C52.9268 110.036 52.7868 109.468 52.7868 108.82C52.7868 108.172 52.9268 107.608 53.2068 107.128C53.4868 106.64 53.8668 106.26 54.3468 105.988C54.8348 105.716 55.3868 105.58 56.0028 105.58C56.5388 105.58 57.0228 105.7 57.4548 105.94C57.8868 106.18 58.2308 106.54 58.4868 107.02C58.7508 107.5 58.8828 108.1 58.8828 108.82C58.8828 109.54 58.7548 110.14 58.4988 110.62C58.2508 111.1 57.9108 111.464 57.4788 111.712C57.0468 111.952 56.5548 112.072 56.0028 112.072ZM56.0988 111.064C56.4988 111.064 56.8588 110.972 57.1788 110.788C57.5068 110.604 57.7628 110.344 57.9468 110.008C58.1388 109.664 58.2348 109.268 58.2348 108.82C58.2348 108.364 58.1388 107.972 57.9468 107.644C57.7628 107.308 57.5068 107.048 57.1788 106.864C56.8588 106.68 56.4988 106.588 56.0988 106.588C55.6908 106.588 55.3268 106.68 55.0068 106.864C54.6868 107.048 54.4308 107.308 54.2388 107.644C54.0468 107.972 53.9508 108.364 53.9508 108.82C53.9508 109.268 54.0468 109.664 54.2388 110.008C54.4308 110.344 54.6868 110.604 55.0068 110.788C55.3268 110.972 55.6908 111.064 56.0988 111.064ZM58.2708 112V110.284L58.3428 108.808L58.2228 107.332V103.096H59.3748V112H58.2708ZM61.7545 112V105.64H62.9065V112H61.7545ZM62.3305 104.416C62.1065 104.416 61.9185 104.344 61.7665 104.2C61.6225 104.056 61.5505 103.88 61.5505 103.672C61.5505 103.456 61.6225 103.276 61.7665 103.132C61.9185 102.988 62.1065 102.916 62.3305 102.916C62.5545 102.916 62.7385 102.988 62.8825 103.132C63.0345 103.268 63.1105 103.44 63.1105 103.648C63.1105 103.864 63.0385 104.048 62.8945 104.2C62.7505 104.344 62.5625 104.416 62.3305 104.416ZM69.2541 112V110.656L69.1941 110.404V108.112C69.1941 107.624 69.0501 107.248 68.7621 106.984C68.4821 106.712 68.0581 106.576 67.4901 106.576C67.1141 106.576 66.7461 106.64 66.3861 106.768C66.0261 106.888 65.7221 107.052 65.4741 107.26L64.9941 106.396C65.3221 106.132 65.7141 105.932 66.1701 105.796C66.6341 105.652 67.1181 105.58 67.6221 105.58C68.4941 105.58 69.1661 105.792 69.6381 106.216C70.1101 106.64 70.3461 107.288 70.3461 108.16V112H69.2541ZM67.1661 112.072C66.6941 112.072 66.2781 111.992 65.9181 111.832C65.5661 111.672 65.2941 111.452 65.1021 111.172C64.9101 110.884 64.8141 110.56 64.8141 110.2C64.8141 109.856 64.8941 109.544 65.0541 109.264C65.2221 108.984 65.4901 108.76 65.8581 108.592C66.2341 108.424 66.7381 108.34 67.3701 108.34H69.3861V109.168H67.4181C66.8421 109.168 66.4541 109.264 66.2541 109.456C66.0541 109.648 65.9541 109.88 65.9541 110.152C65.9541 110.464 66.0781 110.716 66.3261 110.908C66.5741 111.092 66.9181 111.184 67.3581 111.184C67.7901 111.184 68.1661 111.088 68.4861 110.896C68.8141 110.704 69.0501 110.424 69.1941 110.056L69.4221 110.848C69.2701 111.224 69.0021 111.524 68.6181 111.748C68.2341 111.964 67.7501 112.072 67.1661 112.072ZM76.2686 112V103.6H79.5446C80.2806 103.6 80.9086 103.716 81.4286 103.948C81.9486 104.18 82.3486 104.516 82.6286 104.956C82.9086 105.396 83.0486 105.92 83.0486 106.528C83.0486 107.136 82.9086 107.66 82.6286 108.1C82.3486 108.532 81.9486 108.868 81.4286 109.108C80.9086 109.34 80.2806 109.456 79.5446 109.456H76.9286L77.4686 108.892V112H76.2686ZM77.4686 109.012L76.9286 108.412H79.5086C80.2766 108.412 80.8566 108.248 81.2486 107.92C81.6486 107.592 81.8486 107.128 81.8486 106.528C81.8486 105.928 81.6486 105.464 81.2486 105.136C80.8566 104.808 80.2766 104.644 79.5086 104.644H76.9286L77.4686 104.044V109.012ZM87.6521 112.072C86.9721 112.072 86.3721 111.932 85.8521 111.652C85.3401 111.372 84.9401 110.988 84.6521 110.5C84.3721 110.012 84.2321 109.452 84.2321 108.82C84.2321 108.188 84.3681 107.628 84.6401 107.14C84.9201 106.652 85.3001 106.272 85.7801 106C86.2681 105.72 86.8161 105.58 87.4241 105.58C88.0401 105.58 88.5841 105.716 89.0561 105.988C89.5281 106.26 89.8961 106.644 90.1601 107.14C90.4321 107.628 90.5681 108.2 90.5681 108.856C90.5681 108.904 90.5641 108.96 90.5561 109.024C90.5561 109.088 90.5521 109.148 90.5441 109.204H85.1321V108.376H89.9441L89.4761 108.664C89.4841 108.256 89.4001 107.892 89.2241 107.572C89.0481 107.252 88.8041 107.004 88.4921 106.828C88.1881 106.644 87.8321 106.552 87.4241 106.552C87.0241 106.552 86.6681 106.644 86.3561 106.828C86.0441 107.004 85.8001 107.256 85.6241 107.584C85.4481 107.904 85.3601 108.272 85.3601 108.688V108.88C85.3601 109.304 85.4561 109.684 85.6481 110.02C85.8481 110.348 86.1241 110.604 86.4761 110.788C86.8281 110.972 87.2321 111.064 87.6881 111.064C88.0641 111.064 88.4041 111 88.7081 110.872C89.0201 110.744 89.2921 110.552 89.5241 110.296L90.1601 111.04C89.8721 111.376 89.5121 111.632 89.0801 111.808C88.6561 111.984 88.1801 112.072 87.6521 112.072ZM92.3678 112V105.64H93.4718V107.368L93.3638 106.936C93.5398 106.496 93.8358 106.16 94.2518 105.928C94.6678 105.696 95.1798 105.58 95.7878 105.58V106.696C95.7398 106.688 95.6918 106.684 95.6438 106.684C95.6038 106.684 95.5638 106.684 95.5238 106.684C94.9078 106.684 94.4198 106.868 94.0598 107.236C93.6998 107.604 93.5198 108.136 93.5198 108.832V112H92.3678ZM99.3019 112.072C98.7739 112.072 98.2699 112 97.7899 111.856C97.3179 111.712 96.9459 111.536 96.6739 111.328L97.1539 110.416C97.4259 110.6 97.7619 110.756 98.1619 110.884C98.5619 111.012 98.9699 111.076 99.3859 111.076C99.9219 111.076 100.306 111 100.538 110.848C100.778 110.696 100.898 110.484 100.898 110.212C100.898 110.012 100.826 109.856 100.682 109.744C100.538 109.632 100.346 109.548 100.106 109.492C99.8739 109.436 99.6139 109.388 99.3259 109.348C99.0379 109.3 98.7499 109.244 98.4619 109.18C98.1739 109.108 97.9099 109.012 97.6699 108.892C97.4299 108.764 97.2379 108.592 97.0939 108.376C96.9499 108.152 96.8779 107.856 96.8779 107.488C96.8779 107.104 96.9859 106.768 97.2019 106.48C97.4179 106.192 97.7219 105.972 98.1139 105.82C98.5139 105.66 98.9859 105.58 99.5299 105.58C99.9459 105.58 100.366 105.632 100.79 105.736C101.222 105.832 101.574 105.972 101.846 106.156L101.354 107.068C101.066 106.876 100.766 106.744 100.454 106.672C100.142 106.6 99.8299 106.564 99.5179 106.564C99.0139 106.564 98.6379 106.648 98.3899 106.816C98.1419 106.976 98.0179 107.184 98.0179 107.44C98.0179 107.656 98.0899 107.824 98.2339 107.944C98.3859 108.056 98.5779 108.144 98.8099 108.208C99.0499 108.272 99.3139 108.328 99.6019 108.376C99.8899 108.416 100.178 108.472 100.466 108.544C100.754 108.608 101.014 108.7 101.246 108.82C101.486 108.94 101.678 109.108 101.822 109.324C101.974 109.54 102.05 109.828 102.05 110.188C102.05 110.572 101.938 110.904 101.714 111.184C101.49 111.464 101.174 111.684 100.766 111.844C100.358 111.996 99.8699 112.072 99.3019 112.072ZM106.414 112.072C105.774 112.072 105.206 111.932 104.71 111.652C104.214 111.372 103.822 110.988 103.534 110.5C103.246 110.004 103.102 109.444 103.102 108.82C103.102 108.188 103.246 107.628 103.534 107.14C103.822 106.652 104.214 106.272 104.71 106C105.206 105.72 105.774 105.58 106.414 105.58C107.046 105.58 107.61 105.72 108.106 106C108.61 106.272 109.002 106.652 109.282 107.14C109.57 107.62 109.714 108.18 109.714 108.82C109.714 109.452 109.57 110.012 109.282 110.5C109.002 110.988 108.61 111.372 108.106 111.652C107.61 111.932 107.046 112.072 106.414 112.072ZM106.414 111.064C106.822 111.064 107.186 110.972 107.506 110.788C107.834 110.604 108.09 110.344 108.274 110.008C108.458 109.664 108.55 109.268 108.55 108.82C108.55 108.364 108.458 107.972 108.274 107.644C108.09 107.308 107.834 107.048 107.506 106.864C107.186 106.68 106.822 106.588 106.414 106.588C106.006 106.588 105.642 106.68 105.322 106.864C105.002 107.048 104.746 107.308 104.554 107.644C104.362 107.972 104.266 108.364 104.266 108.82C104.266 109.268 104.362 109.664 104.554 110.008C104.746 110.344 105.002 110.604 105.322 110.788C105.642 110.972 106.006 111.064 106.414 111.064ZM114.903 105.58C115.423 105.58 115.879 105.68 116.271 105.88C116.671 106.08 116.983 106.384 117.207 106.792C117.431 107.2 117.543 107.716 117.543 108.34V112H116.391V108.472C116.391 107.856 116.239 107.392 115.935 107.08C115.639 106.768 115.219 106.612 114.675 106.612C114.267 106.612 113.911 106.692 113.607 106.852C113.303 107.012 113.067 107.248 112.899 107.56C112.739 107.872 112.659 108.26 112.659 108.724V112H111.507V105.64H112.611V107.356L112.431 106.9C112.639 106.484 112.959 106.16 113.391 105.928C113.823 105.696 114.327 105.58 114.903 105.58ZM123.823 112V110.656L123.763 110.404V108.112C123.763 107.624 123.619 107.248 123.331 106.984C123.051 106.712 122.627 106.576 122.059 106.576C121.683 106.576 121.315 106.64 120.955 106.768C120.595 106.888 120.291 107.052 120.043 107.26L119.563 106.396C119.891 106.132 120.283 105.932 120.739 105.796C121.203 105.652 121.687 105.58 122.191 105.58C123.063 105.58 123.735 105.792 124.207 106.216C124.679 106.64 124.915 107.288 124.915 108.16V112H123.823ZM121.735 112.072C121.263 112.072 120.847 111.992 120.487 111.832C120.135 111.672 119.863 111.452 119.671 111.172C119.479 110.884 119.383 110.56 119.383 110.2C119.383 109.856 119.463 109.544 119.623 109.264C119.791 108.984 120.059 108.76 120.427 108.592C120.803 108.424 121.307 108.34 121.939 108.34H123.955V109.168H121.987C121.411 109.168 121.023 109.264 120.823 109.456C120.623 109.648 120.523 109.88 120.523 110.152C120.523 110.464 120.647 110.716 120.895 110.908C121.143 111.092 121.487 111.184 121.927 111.184C122.359 111.184 122.735 111.088 123.055 110.896C123.383 110.704 123.619 110.424 123.763 110.056L123.991 110.848C123.839 111.224 123.571 111.524 123.187 111.748C122.803 111.964 122.319 112.072 121.735 112.072ZM127.247 112V103.096H128.399V112H127.247ZM134.389 112V103.6H137.929C138.825 103.6 139.613 103.776 140.293 104.128C140.981 104.48 141.513 104.972 141.889 105.604C142.273 106.236 142.465 106.968 142.465 107.8C142.465 108.632 142.273 109.364 141.889 109.996C141.513 110.628 140.981 111.12 140.293 111.472C139.613 111.824 138.825 112 137.929 112H134.389ZM135.589 110.956H137.857C138.553 110.956 139.153 110.824 139.657 110.56C140.169 110.296 140.565 109.928 140.845 109.456C141.125 108.976 141.265 108.424 141.265 107.8C141.265 107.168 141.125 106.616 140.845 106.144C140.565 105.672 140.169 105.304 139.657 105.04C139.153 104.776 138.553 104.644 137.857 104.644H135.589V110.956ZM148.283 112V110.656L148.223 110.404V108.112C148.223 107.624 148.079 107.248 147.791 106.984C147.511 106.712 147.087 106.576 146.519 106.576C146.143 106.576 145.775 106.64 145.415 106.768C145.055 106.888 144.751 107.052 144.503 107.26L144.023 106.396C144.351 106.132 144.743 105.932 145.199 105.796C145.663 105.652 146.147 105.58 146.651 105.58C147.523 105.58 148.195 105.792 148.667 106.216C149.139 106.64 149.375 107.288 149.375 108.16V112H148.283ZM146.195 112.072C145.723 112.072 145.307 111.992 144.947 111.832C144.595 111.672 144.323 111.452 144.131 111.172C143.939 110.884 143.843 110.56 143.843 110.2C143.843 109.856 143.923 109.544 144.083 109.264C144.251 108.984 144.519 108.76 144.887 108.592C145.263 108.424 145.767 108.34 146.399 108.34H148.415V109.168H146.447C145.871 109.168 145.483 109.264 145.283 109.456C145.083 109.648 144.983 109.88 144.983 110.152C144.983 110.464 145.107 110.716 145.355 110.908C145.603 111.092 145.947 111.184 146.387 111.184C146.819 111.184 147.195 111.088 147.515 110.896C147.843 110.704 148.079 110.424 148.223 110.056L148.451 110.848C148.299 111.224 148.031 111.524 147.647 111.748C147.263 111.964 146.779 112.072 146.195 112.072ZM153.891 112.072C153.251 112.072 152.755 111.9 152.403 111.556C152.051 111.212 151.875 110.72 151.875 110.08V104.248H153.027V110.032C153.027 110.376 153.111 110.64 153.279 110.824C153.455 111.008 153.703 111.1 154.023 111.1C154.383 111.1 154.683 111 154.923 110.8L155.283 111.628C155.107 111.78 154.895 111.892 154.647 111.964C154.407 112.036 154.155 112.072 153.891 112.072ZM150.795 106.588V105.64H154.851V106.588H150.795ZM160.824 112V110.656L160.764 110.404V108.112C160.764 107.624 160.62 107.248 160.332 106.984C160.052 106.712 159.628 106.576 159.06 106.576C158.684 106.576 158.316 106.64 157.956 106.768C157.596 106.888 157.292 107.052 157.044 107.26L156.564 106.396C156.892 106.132 157.284 105.932 157.74 105.796C158.204 105.652 158.688 105.58 159.192 105.58C160.064 105.58 160.736 105.792 161.208 106.216C161.68 106.64 161.916 107.288 161.916 108.16V112H160.824ZM158.736 112.072C158.264 112.072 157.848 111.992 157.488 111.832C157.136 111.672 156.864 111.452 156.672 111.172C156.48 110.884 156.384 110.56 156.384 110.2C156.384 109.856 156.464 109.544 156.624 109.264C156.792 108.984 157.06 108.76 157.428 108.592C157.804 108.424 158.308 108.34 158.94 108.34H160.956V109.168H158.988C158.412 109.168 158.024 109.264 157.824 109.456C157.624 109.648 157.524 109.88 157.524 110.152C157.524 110.464 157.648 110.716 157.896 110.908C158.144 111.092 158.488 111.184 158.928 111.184C159.36 111.184 159.736 111.088 160.056 110.896C160.384 110.704 160.62 110.424 160.764 110.056L160.992 110.848C160.84 111.224 160.572 111.524 160.188 111.748C159.804 111.964 159.32 112.072 158.736 112.072ZM167.838 112V103.6H171.114C171.85 103.6 172.478 103.716 172.998 103.948C173.518 104.18 173.918 104.516 174.198 104.956C174.478 105.396 174.618 105.92 174.618 106.528C174.618 107.136 174.478 107.66 174.198 108.1C173.918 108.532 173.518 108.868 172.998 109.108C172.478 109.34 171.85 109.456 171.114 109.456H168.498L169.038 108.892V112H167.838ZM169.038 109.012L168.498 108.412H171.078C171.846 108.412 172.426 108.248 172.818 107.92C173.218 107.592 173.418 107.128 173.418 106.528C173.418 105.928 173.218 105.464 172.818 105.136C172.426 104.808 171.846 104.644 171.078 104.644H168.498L169.038 104.044V109.012ZM176.296 112V105.64H177.4V107.368L177.292 106.936C177.468 106.496 177.764 106.16 178.18 105.928C178.596 105.696 179.108 105.58 179.716 105.58V106.696C179.668 106.688 179.62 106.684 179.572 106.684C179.532 106.684 179.492 106.684 179.452 106.684C178.836 106.684 178.348 106.868 177.988 107.236C177.628 107.604 177.448 108.136 177.448 108.832V112H176.296ZM184.001 112.072C183.361 112.072 182.793 111.932 182.297 111.652C181.801 111.372 181.409 110.988 181.121 110.5C180.833 110.004 180.689 109.444 180.689 108.82C180.689 108.188 180.833 107.628 181.121 107.14C181.409 106.652 181.801 106.272 182.297 106C182.793 105.72 183.361 105.58 184.001 105.58C184.633 105.58 185.197 105.72 185.693 106C186.197 106.272 186.589 106.652 186.869 107.14C187.157 107.62 187.301 108.18 187.301 108.82C187.301 109.452 187.157 110.012 186.869 110.5C186.589 110.988 186.197 111.372 185.693 111.652C185.197 111.932 184.633 112.072 184.001 112.072ZM184.001 111.064C184.409 111.064 184.773 110.972 185.093 110.788C185.421 110.604 185.677 110.344 185.861 110.008C186.045 109.664 186.137 109.268 186.137 108.82C186.137 108.364 186.045 107.972 185.861 107.644C185.677 107.308 185.421 107.048 185.093 106.864C184.773 106.68 184.409 106.588 184.001 106.588C183.593 106.588 183.229 106.68 182.909 106.864C182.589 107.048 182.333 107.308 182.141 107.644C181.949 107.972 181.853 108.364 181.853 108.82C181.853 109.268 181.949 109.664 182.141 110.008C182.333 110.344 182.589 110.604 182.909 110.788C183.229 110.972 183.593 111.064 184.001 111.064ZM191.278 112.072C190.638 112.072 190.142 111.9 189.79 111.556C189.438 111.212 189.262 110.72 189.262 110.08V104.248H190.414V110.032C190.414 110.376 190.498 110.64 190.666 110.824C190.842 111.008 191.09 111.1 191.41 111.1C191.77 111.1 192.07 111 192.31 110.8L192.67 111.628C192.494 111.78 192.282 111.892 192.034 111.964C191.794 112.036 191.542 112.072 191.278 112.072ZM188.182 106.588V105.64H192.238V106.588H188.182ZM196.884 112.072C196.204 112.072 195.604 111.932 195.084 111.652C194.572 111.372 194.172 110.988 193.884 110.5C193.604 110.012 193.464 109.452 193.464 108.82C193.464 108.188 193.6 107.628 193.872 107.14C194.152 106.652 194.532 106.272 195.012 106C195.5 105.72 196.048 105.58 196.656 105.58C197.272 105.58 197.816 105.716 198.288 105.988C198.76 106.26 199.128 106.644 199.392 107.14C199.664 107.628 199.8 108.2 199.8 108.856C199.8 108.904 199.796 108.96 199.788 109.024C199.788 109.088 199.784 109.148 199.776 109.204H194.364V108.376H199.176L198.708 108.664C198.716 108.256 198.632 107.892 198.456 107.572C198.28 107.252 198.036 107.004 197.724 106.828C197.42 106.644 197.064 106.552 196.656 106.552C196.256 106.552 195.9 106.644 195.588 106.828C195.276 107.004 195.032 107.256 194.856 107.584C194.68 107.904 194.592 108.272 194.592 108.688V108.88C194.592 109.304 194.688 109.684 194.88 110.02C195.08 110.348 195.356 110.604 195.708 110.788C196.06 110.972 196.464 111.064 196.92 111.064C197.296 111.064 197.636 111 197.94 110.872C198.252 110.744 198.524 110.552 198.756 110.296L199.392 111.04C199.104 111.376 198.744 111.632 198.312 111.808C197.888 111.984 197.412 112.072 196.884 112.072ZM204.372 112.072C203.724 112.072 203.144 111.932 202.632 111.652C202.128 111.372 201.732 110.988 201.444 110.5C201.156 110.012 201.012 109.452 201.012 108.82C201.012 108.188 201.156 107.628 201.444 107.14C201.732 106.652 202.128 106.272 202.632 106C203.144 105.72 203.724 105.58 204.372 105.58C204.948 105.58 205.46 105.696 205.908 105.928C206.364 106.152 206.716 106.488 206.964 106.936L206.088 107.5C205.88 107.188 205.624 106.96 205.32 106.816C205.024 106.664 204.704 106.588 204.36 106.588C203.944 106.588 203.572 106.68 203.244 106.864C202.916 107.048 202.656 107.308 202.464 107.644C202.272 107.972 202.176 108.364 202.176 108.82C202.176 109.276 202.272 109.672 202.464 110.008C202.656 110.344 202.916 110.604 203.244 110.788C203.572 110.972 203.944 111.064 204.36 111.064C204.704 111.064 205.024 110.992 205.32 110.848C205.624 110.696 205.88 110.464 206.088 110.152L206.964 110.704C206.716 111.144 206.364 111.484 205.908 111.724C205.46 111.956 204.948 112.072 204.372 112.072ZM210.921 112.072C210.281 112.072 209.785 111.9 209.433 111.556C209.081 111.212 208.905 110.72 208.905 110.08V104.248H210.057V110.032C210.057 110.376 210.141 110.64 210.309 110.824C210.485 111.008 210.733 111.1 211.053 111.1C211.413 111.1 211.713 111 211.953 110.8L212.313 111.628C212.137 111.78 211.925 111.892 211.677 111.964C211.437 112.036 211.185 112.072 210.921 112.072ZM207.825 106.588V105.64H211.881V106.588H207.825ZM213.906 112V105.64H215.058V112H213.906ZM214.482 104.416C214.258 104.416 214.07 104.344 213.918 104.2C213.774 104.056 213.702 103.88 213.702 103.672C213.702 103.456 213.774 103.276 213.918 103.132C214.07 102.988 214.258 102.916 214.482 102.916C214.706 102.916 214.89 102.988 215.034 103.132C215.186 103.268 215.262 103.44 215.262 103.648C215.262 103.864 215.19 104.048 215.046 104.2C214.902 104.344 214.714 104.416 214.482 104.416ZM220.182 112.072C219.542 112.072 218.974 111.932 218.478 111.652C217.982 111.372 217.59 110.988 217.302 110.5C217.014 110.004 216.87 109.444 216.87 108.82C216.87 108.188 217.014 107.628 217.302 107.14C217.59 106.652 217.982 106.272 218.478 106C218.974 105.72 219.542 105.58 220.182 105.58C220.814 105.58 221.378 105.72 221.874 106C222.378 106.272 222.77 106.652 223.05 107.14C223.338 107.62 223.482 108.18 223.482 108.82C223.482 109.452 223.338 110.012 223.05 110.5C222.77 110.988 222.378 111.372 221.874 111.652C221.378 111.932 220.814 112.072 220.182 112.072ZM220.182 111.064C220.59 111.064 220.954 110.972 221.274 110.788C221.602 110.604 221.858 110.344 222.042 110.008C222.226 109.664 222.318 109.268 222.318 108.82C222.318 108.364 222.226 107.972 222.042 107.644C221.858 107.308 221.602 107.048 221.274 106.864C220.954 106.68 220.59 106.588 220.182 106.588C219.774 106.588 219.41 106.68 219.09 106.864C218.77 107.048 218.514 107.308 218.322 107.644C218.13 107.972 218.034 108.364 218.034 108.82C218.034 109.268 218.13 109.664 218.322 110.008C218.514 110.344 218.77 110.604 219.09 110.788C219.41 110.972 219.774 111.064 220.182 111.064ZM228.671 105.58C229.191 105.58 229.647 105.68 230.039 105.88C230.439 106.08 230.751 106.384 230.975 106.792C231.199 107.2 231.311 107.716 231.311 108.34V112H230.159V108.472C230.159 107.856 230.007 107.392 229.703 107.08C229.407 106.768 228.987 106.612 228.443 106.612C228.035 106.612 227.679 106.692 227.375 106.852C227.071 107.012 226.835 107.248 226.667 107.56C226.507 107.872 226.427 108.26 226.427 108.724V112H225.275V105.64H226.379V107.356L226.199 106.9C226.407 106.484 226.727 106.16 227.159 105.928C227.591 105.696 228.095 105.58 228.671 105.58ZM41.26 130V121.6H45.028C45.996 121.6 46.74 121.796 47.26 122.188C47.78 122.572 48.04 123.1 48.04 123.772C48.04 124.228 47.936 124.612 47.728 124.924C47.528 125.236 47.256 125.476 46.912 125.644C46.568 125.812 46.196 125.896 45.796 125.896L46.012 125.536C46.492 125.536 46.916 125.62 47.284 125.788C47.652 125.956 47.944 126.204 48.16 126.532C48.376 126.852 48.484 127.252 48.484 127.732C48.484 128.452 48.212 129.012 47.668 129.412C47.132 129.804 46.332 130 45.268 130H41.26ZM42.46 129.028H45.22C45.884 129.028 46.392 128.916 46.744 128.692C47.096 128.468 47.272 128.116 47.272 127.636C47.272 127.148 47.096 126.792 46.744 126.568C46.392 126.344 45.884 126.232 45.22 126.232H42.352V125.26H44.92C45.528 125.26 46 125.148 46.336 124.924C46.672 124.7 46.84 124.364 46.84 123.916C46.84 123.468 46.672 123.132 46.336 122.908C46 122.684 45.528 122.572 44.92 122.572H42.46V129.028ZM50.374 130V123.64H51.526V130H50.374ZM50.95 122.416C50.726 122.416 50.538 122.344 50.386 122.2C50.242 122.056 50.17 121.88 50.17 121.672C50.17 121.456 50.242 121.276 50.386 121.132C50.538 120.988 50.726 120.916 50.95 120.916C51.174 120.916 51.358 120.988 51.502 121.132C51.654 121.268 51.73 121.44 51.73 121.648C51.73 121.864 51.658 122.048 51.514 122.2C51.37 122.344 51.182 122.416 50.95 122.416ZM53.9256 130V121.096H55.0776V130H53.9256ZM57.4772 130V121.096H58.6292V130H57.4772Z" fill="#19191F"/>
<path d="M248 54.5C248 53.0166 247.56 51.5666 246.736 50.3332C245.912 49.0999 244.741 48.1386 243.37 47.5709C242 47.0032 240.492 46.8547 239.037 47.1441C237.582 47.4335 236.246 48.1478 235.197 49.1967C234.148 50.2456 233.434 51.582 233.144 53.0368C232.855 54.4917 233.003 55.9997 233.571 57.3701C234.139 58.7406 235.1 59.9119 236.333 60.736C237.567 61.5601 239.017 62 240.5 62C242.488 61.9978 244.395 61.2069 245.801 59.8009C247.207 58.3948 247.998 56.4884 248 54.5ZM239.97 58.0303C239.9 57.9606 239.845 57.878 239.807 57.787C239.769 57.696 239.75 57.5985 239.75 57.5C239.75 57.4015 239.769 57.304 239.807 57.213C239.845 57.122 239.9 57.0393 239.97 56.9697L241.689 55.25H237.5C237.301 55.25 237.11 55.171 236.97 55.0303C236.829 54.8897 236.75 54.6989 236.75 54.5C236.75 54.3011 236.829 54.1103 236.97 53.9697C237.11 53.829 237.301 53.75 237.5 53.75H241.689L239.97 52.0303C239.831 51.8892 239.754 51.6991 239.755 51.5014C239.756 51.3037 239.835 51.1143 239.975 50.9745C240.114 50.8347 240.304 50.7558 240.501 50.7549C240.699 50.754 240.889 50.8312 241.03 50.9698L244.03 53.9695C244.17 54.1105 244.249 54.3012 244.249 54.5C244.249 54.6988 244.17 54.8895 244.03 55.0305L241.03 58.0303C240.961 58.0999 240.878 58.1552 240.787 58.1929C240.696 58.2306 240.598 58.25 240.5 58.25C240.402 58.25 240.304 58.2306 240.213 58.1929C240.122 58.1552 240.039 58.0999 239.97 58.0303Z" fill="#5B588F"/>
<defs>
<filter id="filter0_dd_4190_12453" x="0" y="0" width="290" height="182" filterUnits="userSpaceOnUse" color-interpolation-filters="sRGB">
<feFlood flood-opacity="0" result="BackgroundImageFix"/>
<feColorMatrix in="SourceAlpha" type="matrix" values="0 0 0 0 0 0 0 0 0 0 0 0 0 0 0 0 0 0 127 0" result="hardAlpha"/>
<feMorphology radius="2" operator="dilate" in="SourceAlpha" result="effect1_dropShadow_4190_12453"/>
<feOffset dx="4" dy="4"/>
<feGaussianBlur stdDeviation="8"/>
<feComposite in2="hardAlpha" operator="out"/>
<feColorMatrix type="matrix" values="0 0 0 0 1 0 0 0 0 1 0 0 0 0 1 0 0 0 0.25 0"/>
<feBlend mode="normal" in2="BackgroundImageFix" result="effect1_dropShadow_4190_12453"/>
<feColorMatrix in="SourceAlpha" type="matrix" values="0 0 0 0 0 0 0 0 0 0 0 0 0 0 0 0 0 0 127 0" result="hardAlpha"/>
<feOffset dx="-4" dy="-4"/>
<feGaussianBlur stdDeviation="8"/>
<feComposite in2="hardAlpha" operator="out"/>
<feColorMatrix type="matrix" values="0 0 0 0 1 0 0 0 0 1 0 0 0 0 1 0 0 0 0.25 0"/>
<feBlend mode="normal" in2="effect1_dropShadow_4190_12453" result="effect2_dropShadow_4190_12453"/>
<feBlend mode="normal" in="SourceGraphic" in2="effect2_dropShadow_4190_12453" result="shape"/>
</filter>
</defs>
</svg>
