<svg width="290" height="132" viewBox="0 0 290 132" fill="none" xmlns="http://www.w3.org/2000/svg">
<g filter="url(#filter0_dd_4201_12450)">
<rect x="20" y="20" width="248" height="90" rx="10" fill="white"/>
</g>
<path d="M55 80C63.2843 80 70 73.2843 70 65C70 56.7157 63.2843 50 55 50C46.7157 50 40 56.7157 40 65C40 73.2843 46.7157 80 55 80Z" fill="#F0F0F0"/>
<path d="M54.9999 50C49.053 50 43.9145 53.4608 41.4883 58.4783H68.5114C66.0852 53.4608 60.9467 50 54.9999 50Z" fill="#FF9811"/>
<path d="M54.9999 79.9998C60.9467 79.9998 66.0852 76.5389 68.5115 71.5215H41.4883C43.9145 76.5389 49.053 79.9998 54.9999 79.9998Z" fill="#6DA544"/>
<path d="M55.0001 70.2179C57.8815 70.2179 60.2174 67.882 60.2174 65.0006C60.2174 62.1191 57.8815 59.7832 55.0001 59.7832C52.1186 59.7832 49.7827 62.1191 49.7827 65.0006C49.7827 67.882 52.1186 70.2179 55.0001 70.2179Z" fill="#0052B4"/>
<path d="M55.0001 68.26C56.801 68.26 58.261 66.8001 58.261 64.9991C58.261 63.1982 56.801 61.7383 55.0001 61.7383C53.1992 61.7383 51.7393 63.1982 51.7393 64.9991C51.7393 66.8001 53.1992 68.26 55.0001 68.26Z" fill="#F0F0F0"/>
<path d="M54.9999 60.9766L56.0059 63.2581L58.4846 62.9885L57.0118 65.0004L58.4846 67.0124L56.0059 66.7428L54.9999 69.0243L53.9939 66.7428L51.5151 67.0123L52.9879 65.0004L51.5151 62.9885L53.9939 63.2581L54.9999 60.9766Z" fill="#0052B4"/>
<path d="M86.162 60.2H88.43V70H86.162V60.2ZM95.3798 62.356C96.3131 62.356 97.0644 62.636 97.6337 63.196C98.2124 63.756 98.5018 64.5867 98.5018 65.688V70H96.3178V66.024C96.3178 65.4267 96.1871 64.9833 95.9258 64.694C95.6644 64.3953 95.2864 64.246 94.7918 64.246C94.2411 64.246 93.8024 64.4187 93.4757 64.764C93.1491 65.1 92.9858 65.604 92.9858 66.276V70H90.8017V62.468H92.8878V63.35C93.1771 63.0327 93.5364 62.79 93.9657 62.622C94.3951 62.4447 94.8664 62.356 95.3798 62.356ZM108.435 59.612V70H106.349V69.132C105.808 69.7853 105.024 70.112 103.997 70.112C103.288 70.112 102.644 69.9533 102.065 69.636C101.496 69.3187 101.048 68.866 100.721 68.278C100.395 67.69 100.231 67.0087 100.231 66.234C100.231 65.4593 100.395 64.778 100.721 64.19C101.048 63.602 101.496 63.1493 102.065 62.832C102.644 62.5147 103.288 62.356 103.997 62.356C104.959 62.356 105.71 62.6593 106.251 63.266V59.612H108.435ZM104.375 68.32C104.926 68.32 105.383 68.1333 105.747 67.76C106.111 67.3773 106.293 66.8687 106.293 66.234C106.293 65.5993 106.111 65.0953 105.747 64.722C105.383 64.3393 104.926 64.148 104.375 64.148C103.815 64.148 103.353 64.3393 102.989 64.722C102.625 65.0953 102.443 65.5993 102.443 66.234C102.443 66.8687 102.625 67.3773 102.989 67.76C103.353 68.1333 103.815 68.32 104.375 68.32ZM110.657 62.468H112.841V70H110.657V62.468ZM111.749 61.418C111.347 61.418 111.021 61.3013 110.769 61.068C110.517 60.8347 110.391 60.5453 110.391 60.2C110.391 59.8547 110.517 59.5653 110.769 59.332C111.021 59.0987 111.347 58.982 111.749 58.982C112.15 58.982 112.477 59.094 112.729 59.318C112.981 59.542 113.107 59.822 113.107 60.158C113.107 60.522 112.981 60.8253 112.729 61.068C112.477 61.3013 112.15 61.418 111.749 61.418ZM118.106 62.356C119.272 62.356 120.168 62.636 120.794 63.196C121.419 63.7467 121.732 64.582 121.732 65.702V70H119.688V69.062C119.277 69.762 118.512 70.112 117.392 70.112C116.813 70.112 116.309 70.014 115.88 69.818C115.46 69.622 115.138 69.3513 114.914 69.006C114.69 68.6607 114.578 68.2687 114.578 67.83C114.578 67.13 114.839 66.5793 115.362 66.178C115.894 65.7767 116.71 65.576 117.812 65.576H119.548C119.548 65.1 119.403 64.736 119.114 64.484C118.824 64.2227 118.39 64.092 117.812 64.092C117.41 64.092 117.014 64.1573 116.622 64.288C116.239 64.4093 115.912 64.5773 115.642 64.792L114.858 63.266C115.268 62.9767 115.758 62.7527 116.328 62.594C116.906 62.4353 117.499 62.356 118.106 62.356ZM117.938 68.642C118.311 68.642 118.642 68.558 118.932 68.39C119.221 68.2127 119.426 67.956 119.548 67.62V66.85H118.05C117.154 66.85 116.706 67.144 116.706 67.732C116.706 68.012 116.813 68.236 117.028 68.404C117.252 68.5627 117.555 68.642 117.938 68.642Z" fill="#19191F"/>
<path d="M248 64.5C248 63.0166 247.56 61.5666 246.736 60.3332C245.912 59.0999 244.741 58.1386 243.37 57.5709C242 57.0032 240.492 56.8547 239.037 57.1441C237.582 57.4335 236.246 58.1478 235.197 59.1967C234.148 60.2456 233.434 61.582 233.144 63.0368C232.855 64.4917 233.003 65.9997 233.571 67.3701C234.139 68.7406 235.1 69.9119 236.333 70.736C237.567 71.5601 239.017 72 240.5 72C242.488 71.9978 244.395 71.2069 245.801 69.8009C247.207 68.3948 247.998 66.4884 248 64.5ZM239.97 68.0303C239.9 67.9606 239.845 67.878 239.807 67.787C239.769 67.696 239.75 67.5985 239.75 67.5C239.75 67.4015 239.769 67.304 239.807 67.213C239.845 67.122 239.9 67.0393 239.97 66.9697L241.689 65.25H237.5C237.301 65.25 237.11 65.171 236.97 65.0303C236.829 64.8897 236.75 64.6989 236.75 64.5C236.75 64.3011 236.829 64.1103 236.97 63.9697C237.11 63.829 237.301 63.75 237.5 63.75H241.689L239.97 62.0303C239.831 61.8892 239.754 61.6991 239.755 61.5014C239.756 61.3037 239.835 61.1143 239.975 60.9745C240.114 60.8347 240.304 60.7558 240.501 60.7549C240.699 60.754 240.889 60.8312 241.03 60.9698L244.03 63.9695C244.17 64.1105 244.249 64.3012 244.249 64.5C244.249 64.6988 244.17 64.8895 244.03 65.0305L241.03 68.0303C240.961 68.0999 240.878 68.1552 240.787 68.1929C240.696 68.2306 240.598 68.25 240.5 68.25C240.402 68.25 240.304 68.2306 240.213 68.1929C240.122 68.1552 240.039 68.0999 239.97 68.0303Z" fill="#5B588F"/>
<defs>
<filter id="filter0_dd_4201_12450" x="0" y="0" width="290" height="132" filterUnits="userSpaceOnUse" color-interpolation-filters="sRGB">
<feFlood flood-opacity="0" result="BackgroundImageFix"/>
<feColorMatrix in="SourceAlpha" type="matrix" values="0 0 0 0 0 0 0 0 0 0 0 0 0 0 0 0 0 0 127 0" result="hardAlpha"/>
<feMorphology radius="2" operator="dilate" in="SourceAlpha" result="effect1_dropShadow_4201_12450"/>
<feOffset dx="4" dy="4"/>
<feGaussianBlur stdDeviation="8"/>
<feComposite in2="hardAlpha" operator="out"/>
<feColorMatrix type="matrix" values="0 0 0 0 1 0 0 0 0 1 0 0 0 0 1 0 0 0 0.25 0"/>
<feBlend mode="normal" in2="BackgroundImageFix" result="effect1_dropShadow_4201_12450"/>
<feColorMatrix in="SourceAlpha" type="matrix" values="0 0 0 0 0 0 0 0 0 0 0 0 0 0 0 0 0 0 127 0" result="hardAlpha"/>
<feOffset dx="-4" dy="-4"/>
<feGaussianBlur stdDeviation="8"/>
<feComposite in2="hardAlpha" operator="out"/>
<feColorMatrix type="matrix" values="0 0 0 0 1 0 0 0 0 1 0 0 0 0 1 0 0 0 0.25 0"/>
<feBlend mode="normal" in2="effect1_dropShadow_4201_12450" result="effect2_dropShadow_4201_12450"/>
<feBlend mode="normal" in="SourceGraphic" in2="effect2_dropShadow_4201_12450" result="shape"/>
</filter>
</defs>
</svg>
