<svg width="290" height="132" viewBox="0 0 290 132" fill="none" xmlns="http://www.w3.org/2000/svg">
<g filter="url(#filter0_dd_4201_12446)">
<rect x="20" y="20" width="248" height="90" rx="10" fill="white"/>
</g>
<path d="M86.162 60.2H88.43V70H86.162V60.2ZM95.3798 62.356C96.3131 62.356 97.0644 62.636 97.6337 63.196C98.2124 63.756 98.5018 64.5867 98.5018 65.688V70H96.3178V66.024C96.3178 65.4267 96.1871 64.9833 95.9258 64.694C95.6644 64.3953 95.2864 64.246 94.7918 64.246C94.2411 64.246 93.8024 64.4187 93.4757 64.764C93.1491 65.1 92.9858 65.604 92.9858 66.276V70H90.8017V62.468H92.8878V63.35C93.1771 63.0327 93.5364 62.79 93.9657 62.622C94.3951 62.4447 94.8664 62.356 95.3798 62.356ZM108.435 59.612V70H106.349V69.132C105.808 69.7853 105.024 70.112 103.997 70.112C103.288 70.112 102.644 69.9533 102.065 69.636C101.496 69.3187 101.048 68.866 100.721 68.278C100.395 67.69 100.231 67.0087 100.231 66.234C100.231 65.4593 100.395 64.778 100.721 64.19C101.048 63.602 101.496 63.1493 102.065 62.832C102.644 62.5147 103.288 62.356 103.997 62.356C104.959 62.356 105.71 62.6593 106.251 63.266V59.612H108.435ZM104.375 68.32C104.926 68.32 105.383 68.1333 105.747 67.76C106.111 67.3773 106.293 66.8687 106.293 66.234C106.293 65.5993 106.111 65.0953 105.747 64.722C105.383 64.3393 104.926 64.148 104.375 64.148C103.815 64.148 103.353 64.3393 102.989 64.722C102.625 65.0953 102.443 65.5993 102.443 66.234C102.443 66.8687 102.625 67.3773 102.989 67.76C103.353 68.1333 103.815 68.32 104.375 68.32ZM114.241 70.112C113.447 70.112 112.733 69.9487 112.099 69.622C111.473 69.286 110.983 68.824 110.629 68.236C110.274 67.648 110.097 66.9807 110.097 66.234C110.097 65.4873 110.274 64.82 110.629 64.232C110.983 63.644 111.473 63.1867 112.099 62.86C112.733 62.524 113.447 62.356 114.241 62.356C115.034 62.356 115.743 62.524 116.369 62.86C116.994 63.1867 117.484 63.644 117.839 64.232C118.193 64.82 118.371 65.4873 118.371 66.234C118.371 66.9807 118.193 67.648 117.839 68.236C117.484 68.824 116.994 69.286 116.369 69.622C115.743 69.9487 115.034 70.112 114.241 70.112ZM114.241 68.32C114.801 68.32 115.258 68.1333 115.613 67.76C115.977 67.3773 116.159 66.8687 116.159 66.234C116.159 65.5993 115.977 65.0953 115.613 64.722C115.258 64.3393 114.801 64.148 114.241 64.148C113.681 64.148 113.219 64.3393 112.855 64.722C112.491 65.0953 112.309 65.5993 112.309 66.234C112.309 66.8687 112.491 67.3773 112.855 67.76C113.219 68.1333 113.681 68.32 114.241 68.32ZM124.609 62.356C125.542 62.356 126.293 62.636 126.863 63.196C127.441 63.756 127.731 64.5867 127.731 65.688V70H125.547V66.024C125.547 65.4267 125.416 64.9833 125.155 64.694C124.893 64.3953 124.515 64.246 124.021 64.246C123.47 64.246 123.031 64.4187 122.705 64.764C122.378 65.1 122.215 65.604 122.215 66.276V70H120.031V62.468H122.117V63.35C122.406 63.0327 122.765 62.79 123.195 62.622C123.624 62.4447 124.095 62.356 124.609 62.356ZM137.37 66.262C137.37 66.29 137.356 66.486 137.328 66.85H131.63C131.733 67.3167 131.976 67.6853 132.358 67.956C132.741 68.2267 133.217 68.362 133.786 68.362C134.178 68.362 134.524 68.306 134.822 68.194C135.13 68.0727 135.415 67.886 135.676 67.634L136.838 68.894C136.129 69.706 135.093 70.112 133.73 70.112C132.881 70.112 132.13 69.9487 131.476 69.622C130.823 69.286 130.319 68.824 129.964 68.236C129.61 67.648 129.432 66.9807 129.432 66.234C129.432 65.4967 129.605 64.834 129.95 64.246C130.305 63.6487 130.786 63.1867 131.392 62.86C132.008 62.524 132.694 62.356 133.45 62.356C134.188 62.356 134.855 62.5147 135.452 62.832C136.05 63.1493 136.516 63.6067 136.852 64.204C137.198 64.792 137.37 65.478 137.37 66.262ZM133.464 64.008C132.97 64.008 132.554 64.148 132.218 64.428C131.882 64.708 131.677 65.0907 131.602 65.576H135.312C135.238 65.1 135.032 64.722 134.696 64.442C134.36 64.1527 133.95 64.008 133.464 64.008ZM141.558 70.112C140.933 70.112 140.322 70.0373 139.724 69.888C139.127 69.7293 138.651 69.5333 138.296 69.3L139.024 67.732C139.36 67.9467 139.766 68.124 140.242 68.264C140.718 68.3947 141.185 68.46 141.642 68.46C142.566 68.46 143.028 68.2313 143.028 67.774C143.028 67.5593 142.902 67.4053 142.65 67.312C142.398 67.2187 142.011 67.1393 141.488 67.074C140.872 66.9807 140.364 66.8733 139.962 66.752C139.561 66.6307 139.211 66.416 138.912 66.108C138.623 65.8 138.478 65.3613 138.478 64.792C138.478 64.316 138.614 63.896 138.884 63.532C139.164 63.1587 139.566 62.8693 140.088 62.664C140.62 62.4587 141.246 62.356 141.964 62.356C142.496 62.356 143.024 62.4167 143.546 62.538C144.078 62.65 144.517 62.8087 144.862 63.014L144.134 64.568C143.472 64.1947 142.748 64.008 141.964 64.008C141.498 64.008 141.148 64.0733 140.914 64.204C140.681 64.3347 140.564 64.5027 140.564 64.708C140.564 64.9413 140.69 65.1047 140.942 65.198C141.194 65.2913 141.596 65.38 142.146 65.464C142.762 65.5667 143.266 65.6787 143.658 65.8C144.05 65.912 144.391 66.122 144.68 66.43C144.97 66.738 145.114 67.1673 145.114 67.718C145.114 68.1847 144.974 68.6 144.694 68.964C144.414 69.328 144.004 69.6127 143.462 69.818C142.93 70.014 142.296 70.112 141.558 70.112ZM146.662 62.468H148.846V70H146.662V62.468ZM147.754 61.418C147.353 61.418 147.026 61.3013 146.774 61.068C146.522 60.8347 146.396 60.5453 146.396 60.2C146.396 59.8547 146.522 59.5653 146.774 59.332C147.026 59.0987 147.353 58.982 147.754 58.982C148.155 58.982 148.482 59.094 148.734 59.318C148.986 59.542 149.112 59.822 149.112 60.158C149.112 60.522 148.986 60.8253 148.734 61.068C148.482 61.3013 148.155 61.418 147.754 61.418ZM154.111 62.356C155.278 62.356 156.174 62.636 156.799 63.196C157.424 63.7467 157.737 64.582 157.737 65.702V70H155.693V69.062C155.282 69.762 154.517 70.112 153.397 70.112C152.818 70.112 152.314 70.014 151.885 69.818C151.465 69.622 151.143 69.3513 150.919 69.006C150.695 68.6607 150.583 68.2687 150.583 67.83C150.583 67.13 150.844 66.5793 151.367 66.178C151.899 65.7767 152.716 65.576 153.817 65.576H155.553C155.553 65.1 155.408 64.736 155.119 64.484C154.83 64.2227 154.396 64.092 153.817 64.092C153.416 64.092 153.019 64.1573 152.627 64.288C152.244 64.4093 151.918 64.5773 151.647 64.792L150.863 63.266C151.274 62.9767 151.764 62.7527 152.333 62.594C152.912 62.4353 153.504 62.356 154.111 62.356ZM153.943 68.642C154.316 68.642 154.648 68.558 154.937 68.39C155.226 68.2127 155.432 67.956 155.553 67.62V66.85H154.055C153.159 66.85 152.711 67.144 152.711 67.732C152.711 68.012 152.818 68.236 153.033 68.404C153.257 68.5627 153.56 68.642 153.943 68.642Z" fill="#19191F"/>
<path d="M248 64.5C248 63.0166 247.56 61.5666 246.736 60.3332C245.912 59.0999 244.741 58.1386 243.37 57.5709C242 57.0032 240.492 56.8547 239.037 57.1441C237.582 57.4335 236.246 58.1478 235.197 59.1967C234.148 60.2456 233.434 61.582 233.144 63.0368C232.855 64.4917 233.003 65.9997 233.571 67.3701C234.139 68.7406 235.1 69.9119 236.333 70.736C237.567 71.5601 239.017 72 240.5 72C242.488 71.9978 244.395 71.2069 245.801 69.8009C247.207 68.3948 247.998 66.4884 248 64.5ZM239.97 68.0303C239.9 67.9606 239.845 67.878 239.807 67.787C239.769 67.696 239.75 67.5985 239.75 67.5C239.75 67.4015 239.769 67.304 239.807 67.213C239.845 67.122 239.9 67.0393 239.97 66.9697L241.689 65.25H237.5C237.301 65.25 237.11 65.171 236.97 65.0303C236.829 64.8897 236.75 64.6989 236.75 64.5C236.75 64.3011 236.829 64.1103 236.97 63.9697C237.11 63.829 237.301 63.75 237.5 63.75H241.689L239.97 62.0303C239.831 61.8892 239.754 61.6991 239.755 61.5014C239.756 61.3037 239.835 61.1143 239.975 60.9745C240.114 60.8347 240.304 60.7558 240.501 60.7549C240.699 60.754 240.889 60.8312 241.03 60.9698L244.03 63.9695C244.17 64.1105 244.249 64.3012 244.249 64.5C244.249 64.6988 244.17 64.8895 244.03 65.0305L241.03 68.0303C240.961 68.0999 240.878 68.1552 240.787 68.1929C240.696 68.2306 240.598 68.25 240.5 68.25C240.402 68.25 240.304 68.2306 240.213 68.1929C240.122 68.1552 240.039 68.0999 239.97 68.0303Z" fill="#5B588F"/>
<path d="M55 80C63.2843 80 70 73.2843 70 65C70 56.7157 63.2843 50 55 50C46.7157 50 40 56.7157 40 65C40 73.2843 46.7157 80 55 80Z" fill="#F0F0F0"/>
<path d="M40 65C40 56.7158 46.7158 50 55 50C63.2842 50 70 56.7158 70 65" fill="#A2001D"/>
<defs>
<filter id="filter0_dd_4201_12446" x="0" y="0" width="290" height="132" filterUnits="userSpaceOnUse" color-interpolation-filters="sRGB">
<feFlood flood-opacity="0" result="BackgroundImageFix"/>
<feColorMatrix in="SourceAlpha" type="matrix" values="0 0 0 0 0 0 0 0 0 0 0 0 0 0 0 0 0 0 127 0" result="hardAlpha"/>
<feMorphology radius="2" operator="dilate" in="SourceAlpha" result="effect1_dropShadow_4201_12446"/>
<feOffset dx="4" dy="4"/>
<feGaussianBlur stdDeviation="8"/>
<feComposite in2="hardAlpha" operator="out"/>
<feColorMatrix type="matrix" values="0 0 0 0 1 0 0 0 0 1 0 0 0 0 1 0 0 0 0.25 0"/>
<feBlend mode="normal" in2="BackgroundImageFix" result="effect1_dropShadow_4201_12446"/>
<feColorMatrix in="SourceAlpha" type="matrix" values="0 0 0 0 0 0 0 0 0 0 0 0 0 0 0 0 0 0 127 0" result="hardAlpha"/>
<feOffset dx="-4" dy="-4"/>
<feGaussianBlur stdDeviation="8"/>
<feComposite in2="hardAlpha" operator="out"/>
<feColorMatrix type="matrix" values="0 0 0 0 1 0 0 0 0 1 0 0 0 0 1 0 0 0 0.25 0"/>
<feBlend mode="normal" in2="effect1_dropShadow_4201_12446" result="effect2_dropShadow_4201_12446"/>
<feBlend mode="normal" in="SourceGraphic" in2="effect2_dropShadow_4201_12446" result="shape"/>
</filter>
</defs>
</svg>
