<svg width="290" height="132" viewBox="0 0 290 132" fill="none" xmlns="http://www.w3.org/2000/svg">
<g filter="url(#filter0_dd_4201_12451)">
<rect x="20" y="20" width="248" height="90" rx="10" fill="white"/>
</g>
<path d="M55 80C63.2843 80 70 73.2843 70 65C70 56.7157 63.2843 50 55 50C46.7157 50 40 56.7157 40 65C40 73.2843 46.7157 80 55 80Z" fill="#F0F0F0"/>
<path d="M69.9999 65.0005C69.9999 58.5511 65.9293 53.0529 60.2173 50.9336V79.0677C65.9293 76.9482 69.9999 71.4501 69.9999 65.0005Z" fill="#FF9811"/>
<path d="M40 65.0005C40 71.4501 44.0706 76.9482 49.7826 79.0676V50.9336C44.0706 53.0529 40 58.5511 40 65.0005Z" fill="#6DA544"/>
<path d="M86.162 70V60.2H88.43V70H86.162ZM90.8017 70V62.468H92.8878V64.596L92.5937 63.98C92.8177 63.448 93.1771 63.0467 93.6717 62.776C94.1664 62.496 94.7684 62.356 95.4778 62.356V64.372C95.3844 64.3627 95.3004 64.358 95.2257 64.358C95.1511 64.3487 95.0718 64.344 94.9878 64.344C94.3904 64.344 93.9051 64.5167 93.5318 64.862C93.1678 65.198 92.9858 65.7253 92.9858 66.444V70H90.8017ZM100.66 70.112C99.801 70.112 99.045 69.944 98.3917 69.608C97.7477 69.272 97.2483 68.8147 96.8937 68.236C96.539 67.648 96.3617 66.9807 96.3617 66.234C96.3617 65.478 96.5343 64.8107 96.8797 64.232C97.2343 63.644 97.715 63.1867 98.3217 62.86C98.9283 62.524 99.6143 62.356 100.38 62.356C101.117 62.356 101.78 62.5147 102.368 62.832C102.965 63.14 103.436 63.588 103.782 64.176C104.127 64.7547 104.3 65.45 104.3 66.262C104.3 66.346 104.295 66.444 104.286 66.556C104.276 66.6587 104.267 66.7567 104.258 66.85H98.1397V65.576H103.11L102.27 65.954C102.27 65.562 102.19 65.2213 102.032 64.932C101.873 64.6427 101.654 64.4187 101.374 64.26C101.094 64.092 100.767 64.008 100.394 64.008C100.02 64.008 99.689 64.092 99.3997 64.26C99.1197 64.4187 98.9003 64.6473 98.7417 64.946C98.583 65.2353 98.5037 65.5807 98.5037 65.982V66.318C98.5037 66.7287 98.5923 67.0927 98.7697 67.41C98.9563 67.718 99.213 67.956 99.5397 68.124C99.8757 68.2827 100.268 68.362 100.716 68.362C101.117 68.362 101.467 68.3013 101.766 68.18C102.074 68.0587 102.354 67.8767 102.606 67.634L103.768 68.894C103.422 69.286 102.988 69.5893 102.466 69.804C101.943 70.0093 101.341 70.112 100.66 70.112ZM105.954 70V59.612H108.138V70H105.954ZM114.985 70V68.53L114.845 68.208V65.576C114.845 65.1093 114.7 64.7453 114.411 64.484C114.131 64.2227 113.697 64.092 113.109 64.092C112.707 64.092 112.311 64.1573 111.919 64.288C111.536 64.4093 111.209 64.5773 110.939 64.792L110.155 63.266C110.565 62.9767 111.06 62.7527 111.639 62.594C112.217 62.4353 112.805 62.356 113.403 62.356C114.551 62.356 115.442 62.6267 116.077 63.168C116.711 63.7093 117.029 64.554 117.029 65.702V70H114.985ZM112.689 70.112C112.101 70.112 111.597 70.014 111.177 69.818C110.757 69.6127 110.435 69.3373 110.211 68.992C109.987 68.6467 109.875 68.2593 109.875 67.83C109.875 67.382 109.982 66.99 110.197 66.654C110.421 66.318 110.771 66.0567 111.247 65.87C111.723 65.674 112.343 65.576 113.109 65.576H115.111V66.85H113.347C112.833 66.85 112.479 66.934 112.283 67.102C112.096 67.27 112.003 67.48 112.003 67.732C112.003 68.012 112.11 68.236 112.325 68.404C112.549 68.5627 112.852 68.642 113.235 68.642C113.599 68.642 113.925 68.558 114.215 68.39C114.504 68.2127 114.714 67.956 114.845 67.62L115.181 68.628C115.022 69.1133 114.733 69.482 114.313 69.734C113.893 69.986 113.351 70.112 112.689 70.112ZM123.783 62.356C124.381 62.356 124.913 62.4773 125.379 62.72C125.855 62.9533 126.229 63.3173 126.499 63.812C126.77 64.2973 126.905 64.9227 126.905 65.688V70H124.721V66.024C124.721 65.4173 124.586 64.9693 124.315 64.68C124.054 64.3907 123.681 64.246 123.195 64.246C122.85 64.246 122.537 64.3207 122.257 64.47C121.987 64.61 121.772 64.8293 121.613 65.128C121.464 65.4267 121.389 65.8093 121.389 66.276V70H119.205V62.468H121.291V64.554L120.899 63.924C121.17 63.42 121.557 63.0327 122.061 62.762C122.565 62.4913 123.139 62.356 123.783 62.356ZM132.374 70.112C131.664 70.112 131.025 69.9533 130.456 69.636C129.886 69.3093 129.434 68.8567 129.098 68.278C128.771 67.6993 128.608 67.018 128.608 66.234C128.608 65.4407 128.771 64.7547 129.098 64.176C129.434 63.5973 129.886 63.1493 130.456 62.832C131.025 62.5147 131.664 62.356 132.374 62.356C133.008 62.356 133.564 62.496 134.04 62.776C134.516 63.056 134.884 63.4807 135.146 64.05C135.407 64.6193 135.538 65.3473 135.538 66.234C135.538 67.1113 135.412 67.8393 135.16 68.418C134.908 68.9873 134.544 69.412 134.068 69.692C133.601 69.972 133.036 70.112 132.374 70.112ZM132.752 68.32C133.106 68.32 133.428 68.236 133.718 68.068C134.007 67.9 134.236 67.662 134.404 67.354C134.581 67.0367 134.67 66.6633 134.67 66.234C134.67 65.7953 134.581 65.422 134.404 65.114C134.236 64.806 134.007 64.568 133.718 64.4C133.428 64.232 133.106 64.148 132.752 64.148C132.388 64.148 132.061 64.232 131.772 64.4C131.482 64.568 131.249 64.806 131.072 65.114C130.904 65.422 130.82 65.7953 130.82 66.234C130.82 66.6633 130.904 67.0367 131.072 67.354C131.249 67.662 131.482 67.9 131.772 68.068C132.061 68.236 132.388 68.32 132.752 68.32ZM134.726 70V68.46L134.768 66.22L134.628 63.994V59.612H136.812V70H134.726Z" fill="#19191F"/>
<path d="M248 64.5C248 63.0166 247.56 61.5666 246.736 60.3332C245.912 59.0999 244.741 58.1386 243.37 57.5709C242 57.0032 240.492 56.8547 239.037 57.1441C237.582 57.4335 236.246 58.1478 235.197 59.1967C234.148 60.2456 233.434 61.582 233.144 63.0368C232.855 64.4917 233.003 65.9997 233.571 67.3701C234.139 68.7406 235.1 69.9119 236.333 70.736C237.567 71.5601 239.017 72 240.5 72C242.488 71.9978 244.395 71.2069 245.801 69.8009C247.207 68.3948 247.998 66.4884 248 64.5ZM239.97 68.0303C239.9 67.9606 239.845 67.878 239.807 67.787C239.769 67.696 239.75 67.5985 239.75 67.5C239.75 67.4015 239.769 67.304 239.807 67.213C239.845 67.122 239.9 67.0393 239.97 66.9697L241.689 65.25H237.5C237.301 65.25 237.11 65.171 236.97 65.0303C236.829 64.8897 236.75 64.6989 236.75 64.5C236.75 64.3011 236.829 64.1103 236.97 63.9697C237.11 63.829 237.301 63.75 237.5 63.75H241.689L239.97 62.0303C239.831 61.8892 239.754 61.6991 239.755 61.5014C239.756 61.3037 239.835 61.1143 239.975 60.9745C240.114 60.8347 240.304 60.7558 240.501 60.7549C240.699 60.754 240.889 60.8312 241.03 60.9698L244.03 63.9695C244.17 64.1105 244.249 64.3012 244.249 64.5C244.249 64.6988 244.17 64.8895 244.03 65.0305L241.03 68.0303C240.961 68.0999 240.878 68.1552 240.787 68.1929C240.696 68.2306 240.598 68.25 240.5 68.25C240.402 68.25 240.304 68.2306 240.213 68.1929C240.122 68.1552 240.039 68.0999 239.97 68.0303Z" fill="#5B588F"/>
<defs>
<filter id="filter0_dd_4201_12451" x="0" y="0" width="290" height="132" filterUnits="userSpaceOnUse" color-interpolation-filters="sRGB">
<feFlood flood-opacity="0" result="BackgroundImageFix"/>
<feColorMatrix in="SourceAlpha" type="matrix" values="0 0 0 0 0 0 0 0 0 0 0 0 0 0 0 0 0 0 127 0" result="hardAlpha"/>
<feMorphology radius="2" operator="dilate" in="SourceAlpha" result="effect1_dropShadow_4201_12451"/>
<feOffset dx="4" dy="4"/>
<feGaussianBlur stdDeviation="8"/>
<feComposite in2="hardAlpha" operator="out"/>
<feColorMatrix type="matrix" values="0 0 0 0 1 0 0 0 0 1 0 0 0 0 1 0 0 0 0.25 0"/>
<feBlend mode="normal" in2="BackgroundImageFix" result="effect1_dropShadow_4201_12451"/>
<feColorMatrix in="SourceAlpha" type="matrix" values="0 0 0 0 0 0 0 0 0 0 0 0 0 0 0 0 0 0 127 0" result="hardAlpha"/>
<feOffset dx="-4" dy="-4"/>
<feGaussianBlur stdDeviation="8"/>
<feComposite in2="hardAlpha" operator="out"/>
<feColorMatrix type="matrix" values="0 0 0 0 1 0 0 0 0 1 0 0 0 0 1 0 0 0 0.25 0"/>
<feBlend mode="normal" in2="effect1_dropShadow_4201_12451" result="effect2_dropShadow_4201_12451"/>
<feBlend mode="normal" in="SourceGraphic" in2="effect2_dropShadow_4201_12451" result="shape"/>
</filter>
</defs>
</svg>
