<svg width="290" height="132" viewBox="0 0 290 132" fill="none" xmlns="http://www.w3.org/2000/svg">
<g filter="url(#filter0_dd_4201_12447)">
<rect x="20" y="20" width="248" height="90" rx="10" fill="white"/>
</g>
<path d="M89.732 66.15L88.416 67.522V70H86.162V60.2H88.416V64.778L92.756 60.2H95.276L91.216 64.568L95.514 70H92.868L89.732 66.15ZM103.927 62.468V70H101.855V69.104C101.566 69.4307 101.22 69.6827 100.819 69.86C100.418 70.028 99.9835 70.112 99.5169 70.112C98.5275 70.112 97.7435 69.8273 97.1649 69.258C96.5862 68.6887 96.2969 67.844 96.2969 66.724V62.468H98.4809V66.402C98.4809 67.6153 98.9895 68.222 100.007 68.222C100.53 68.222 100.95 68.054 101.267 67.718C101.584 67.3727 101.743 66.864 101.743 66.192V62.468H103.927ZM118.246 62.468L115.516 70H113.416L111.722 65.324L109.972 70H107.872L105.156 62.468H107.214L108.992 67.564L110.84 62.468H112.688L114.48 67.564L116.314 62.468H118.246ZM122.253 62.356C123.42 62.356 124.316 62.636 124.941 63.196C125.567 63.7467 125.879 64.582 125.879 65.702V70H123.835V69.062C123.425 69.762 122.659 70.112 121.539 70.112C120.961 70.112 120.457 70.014 120.027 69.818C119.607 69.622 119.285 69.3513 119.061 69.006C118.837 68.6607 118.725 68.2687 118.725 67.83C118.725 67.13 118.987 66.5793 119.509 66.178C120.041 65.7767 120.858 65.576 121.959 65.576H123.695C123.695 65.1 123.551 64.736 123.261 64.484C122.972 64.2227 122.538 64.092 121.959 64.092C121.558 64.092 121.161 64.1573 120.769 64.288C120.387 64.4093 120.06 64.5773 119.789 64.792L119.005 63.266C119.416 62.9767 119.906 62.7527 120.475 62.594C121.054 62.4353 121.647 62.356 122.253 62.356ZM122.085 68.642C122.459 68.642 122.79 68.558 123.079 68.39C123.369 68.2127 123.574 67.956 123.695 67.62V66.85H122.197C121.301 66.85 120.853 67.144 120.853 67.732C120.853 68.012 120.961 68.236 121.175 68.404C121.399 68.5627 121.703 68.642 122.085 68.642ZM128.056 62.468H130.24V70H128.056V62.468ZM129.148 61.418C128.747 61.418 128.42 61.3013 128.168 61.068C127.916 60.8347 127.79 60.5453 127.79 60.2C127.79 59.8547 127.916 59.5653 128.168 59.332C128.42 59.0987 128.747 58.982 129.148 58.982C129.549 58.982 129.876 59.094 130.128 59.318C130.38 59.542 130.506 59.822 130.506 60.158C130.506 60.522 130.38 60.8253 130.128 61.068C129.876 61.3013 129.549 61.418 129.148 61.418ZM137.325 69.636C137.11 69.7947 136.844 69.916 136.527 70C136.219 70.0747 135.892 70.112 135.547 70.112C134.651 70.112 133.956 69.8833 133.461 69.426C132.976 68.9687 132.733 68.2967 132.733 67.41V64.316H131.571V62.636H132.733V60.802H134.917V62.636H136.793V64.316H134.917V67.382C134.917 67.6993 134.996 67.9467 135.155 68.124C135.323 68.292 135.556 68.376 135.855 68.376C136.2 68.376 136.494 68.2827 136.737 68.096L137.325 69.636Z" fill="#19191F"/>
<path d="M248 64.5C248 63.0166 247.56 61.5666 246.736 60.3332C245.912 59.0999 244.741 58.1386 243.37 57.5709C242 57.0032 240.492 56.8547 239.037 57.1441C237.582 57.4335 236.246 58.1478 235.197 59.1967C234.148 60.2456 233.434 61.582 233.144 63.0368C232.855 64.4917 233.003 65.9997 233.571 67.3701C234.139 68.7406 235.1 69.9119 236.333 70.736C237.567 71.5601 239.017 72 240.5 72C242.488 71.9978 244.395 71.2069 245.801 69.8009C247.207 68.3948 247.998 66.4884 248 64.5ZM239.97 68.0303C239.9 67.9606 239.845 67.878 239.807 67.787C239.769 67.696 239.75 67.5985 239.75 67.5C239.75 67.4015 239.769 67.304 239.807 67.213C239.845 67.122 239.9 67.0393 239.97 66.9697L241.689 65.25H237.5C237.301 65.25 237.11 65.171 236.97 65.0303C236.829 64.8897 236.75 64.6989 236.75 64.5C236.75 64.3011 236.829 64.1103 236.97 63.9697C237.11 63.829 237.301 63.75 237.5 63.75H241.689L239.97 62.0303C239.831 61.8892 239.754 61.6991 239.755 61.5014C239.756 61.3037 239.835 61.1143 239.975 60.9745C240.114 60.8347 240.304 60.7558 240.501 60.7549C240.699 60.754 240.889 60.8312 241.03 60.9698L244.03 63.9695C244.17 64.1105 244.249 64.3012 244.249 64.5C244.249 64.6988 244.17 64.8895 244.03 65.0305L241.03 68.0303C240.961 68.0999 240.878 68.1552 240.787 68.1929C240.696 68.2306 240.598 68.25 240.5 68.25C240.402 68.25 240.304 68.2306 240.213 68.1929C240.122 68.1552 240.039 68.0999 239.97 68.0303Z" fill="#5B588F"/>
<g clip-path="url(#clip0_4201_12447)">
<path d="M69.067 70.2176C69.6699 68.5926 70 66.835 70 65.0002C70 63.1654 69.6699 61.4079 69.067 59.7829L55 58.4785L40.933 59.7829C40.3301 61.4079 40 63.1654 40 65.0002C40 66.835 40.3301 68.5926 40.933 70.2176L55 71.522L69.067 70.2176Z" fill="#F0F0F0"/>
<path d="M54.9999 79.9994C61.4493 79.9994 66.9475 75.9288 69.0669 70.2168H40.9329C43.0523 75.9288 48.5504 79.9994 54.9999 79.9994Z" fill="#D80027"/>
<path d="M54.9999 50C48.5504 50 43.0523 54.0706 40.9329 59.7826H69.0669C66.9475 54.0706 61.4493 50 54.9999 50Z" fill="#6DA544"/>
<path d="M44.3934 54.3926C38.5355 60.2504 38.5355 69.7479 44.3934 75.6059C45.9224 74.0769 47.4148 72.5845 49.7826 70.2166V59.7819L44.3934 54.3926Z" fill="black"/>
</g>
<defs>
<filter id="filter0_dd_4201_12447" x="0" y="0" width="290" height="132" filterUnits="userSpaceOnUse" color-interpolation-filters="sRGB">
<feFlood flood-opacity="0" result="BackgroundImageFix"/>
<feColorMatrix in="SourceAlpha" type="matrix" values="0 0 0 0 0 0 0 0 0 0 0 0 0 0 0 0 0 0 127 0" result="hardAlpha"/>
<feMorphology radius="2" operator="dilate" in="SourceAlpha" result="effect1_dropShadow_4201_12447"/>
<feOffset dx="4" dy="4"/>
<feGaussianBlur stdDeviation="8"/>
<feComposite in2="hardAlpha" operator="out"/>
<feColorMatrix type="matrix" values="0 0 0 0 1 0 0 0 0 1 0 0 0 0 1 0 0 0 0.25 0"/>
<feBlend mode="normal" in2="BackgroundImageFix" result="effect1_dropShadow_4201_12447"/>
<feColorMatrix in="SourceAlpha" type="matrix" values="0 0 0 0 0 0 0 0 0 0 0 0 0 0 0 0 0 0 127 0" result="hardAlpha"/>
<feOffset dx="-4" dy="-4"/>
<feGaussianBlur stdDeviation="8"/>
<feComposite in2="hardAlpha" operator="out"/>
<feColorMatrix type="matrix" values="0 0 0 0 1 0 0 0 0 1 0 0 0 0 1 0 0 0 0.25 0"/>
<feBlend mode="normal" in2="effect1_dropShadow_4201_12447" result="effect2_dropShadow_4201_12447"/>
<feBlend mode="normal" in="SourceGraphic" in2="effect2_dropShadow_4201_12447" result="shape"/>
</filter>
<clipPath id="clip0_4201_12447">
<rect width="30" height="30" fill="white" transform="translate(40 50)"/>
</clipPath>
</defs>
</svg>
