<svg width="290" height="182" viewBox="0 0 290 182" fill="none" xmlns="http://www.w3.org/2000/svg">
<g filter="url(#filter0_dd_4189_12441)">
<rect x="20" y="20" width="248" height="140" rx="10" fill="white"/>
</g>
<path d="M41.162 95V85.2H43.43V93.152H48.344V95H41.162ZM54.3792 95.168C53.6045 95.168 52.8905 95.0467 52.2372 94.804C51.5932 94.552 51.0285 94.1973 50.5432 93.74C50.0672 93.2827 49.6938 92.746 49.4232 92.13C49.1618 91.514 49.0312 90.8373 49.0312 90.1C49.0312 89.3627 49.1618 88.686 49.4232 88.07C49.6938 87.454 50.0718 86.9173 50.5572 86.46C51.0425 86.0027 51.6118 85.6527 52.2652 85.41C52.9185 85.158 53.6372 85.032 54.4212 85.032C55.2892 85.032 56.0685 85.1767 56.7592 85.466C57.4592 85.7553 58.0472 86.1753 58.5232 86.726L57.0672 88.07C56.7125 87.6967 56.3252 87.4213 55.9052 87.244C55.4852 87.0573 55.0278 86.964 54.5332 86.964C54.0572 86.964 53.6232 87.0387 53.2312 87.188C52.8392 87.3373 52.4985 87.552 52.2092 87.832C51.9292 88.112 51.7098 88.4433 51.5512 88.826C51.4018 89.2087 51.3272 89.6333 51.3272 90.1C51.3272 90.5573 51.4018 90.9773 51.5512 91.36C51.7098 91.7427 51.9292 92.0787 52.2092 92.368C52.4985 92.648 52.8345 92.8627 53.2172 93.012C53.6092 93.1613 54.0385 93.236 54.5052 93.236C54.9532 93.236 55.3872 93.166 55.8072 93.026C56.2365 92.8767 56.6518 92.6293 57.0532 92.284L58.3412 93.922C57.8092 94.3233 57.1885 94.6313 56.4792 94.846C55.7792 95.0607 55.0792 95.168 54.3792 95.168ZM56.2692 93.628V89.946H58.3412V93.922L56.2692 93.628ZM60.6479 95V85.2H64.8899C65.7673 85.2 66.5233 85.3447 67.1579 85.634C67.7926 85.914 68.2826 86.32 68.6279 86.852C68.9733 87.384 69.1459 88.0187 69.1459 88.756C69.1459 89.484 68.9733 90.114 68.6279 90.646C68.2826 91.178 67.7926 91.5887 67.1579 91.878C66.5233 92.158 65.7673 92.298 64.8899 92.298H61.9079L62.9159 91.276V95H60.6479ZM62.9159 91.528L61.9079 90.45H64.7639C65.4639 90.45 65.9866 90.3007 66.3319 90.002C66.6773 89.7033 66.8499 89.288 66.8499 88.756C66.8499 88.2147 66.6773 87.7947 66.3319 87.496C65.9866 87.1973 65.4639 87.048 64.7639 87.048H61.9079L62.9159 85.97V91.528ZM70.9651 95V85.2H75.4171C76.4811 85.2 77.4191 85.4053 78.2311 85.816C79.0431 86.2173 79.6778 86.782 80.1351 87.51C80.5925 88.238 80.8211 89.1013 80.8211 90.1C80.8211 91.0893 80.5925 91.9527 80.1351 92.69C79.6778 93.418 79.0431 93.9873 78.2311 94.398C77.4191 94.7993 76.4811 95 75.4171 95H70.9651ZM73.2331 93.138H75.3051C75.9585 93.138 76.5231 93.0167 76.9991 92.774C77.4845 92.522 77.8578 92.1673 78.1191 91.71C78.3898 91.2527 78.5251 90.716 78.5251 90.1C78.5251 89.4747 78.3898 88.938 78.1191 88.49C77.8578 88.0327 77.4845 87.6827 76.9991 87.44C76.5231 87.188 75.9585 87.062 75.3051 87.062H73.2331V93.138ZM41.47 115V105.2H45.866C46.9953 105.2 47.8633 105.429 48.47 105.886C49.0767 106.334 49.38 106.95 49.38 107.734C49.38 108.266 49.2587 108.714 49.016 109.078C48.7827 109.442 48.4653 109.722 48.064 109.918C47.6627 110.114 47.2287 110.212 46.762 110.212L47.014 109.792C47.574 109.792 48.0687 109.89 48.498 110.086C48.9273 110.282 49.268 110.571 49.52 110.954C49.772 111.327 49.898 111.794 49.898 112.354C49.898 113.194 49.5807 113.847 48.946 114.314C48.3207 114.771 47.3873 115 46.146 115H41.47ZM42.87 113.866H46.09C46.8647 113.866 47.4573 113.735 47.868 113.474C48.2787 113.213 48.484 112.802 48.484 112.242C48.484 111.673 48.2787 111.257 47.868 110.996C47.4573 110.735 46.8647 110.604 46.09 110.604H42.744V109.47H45.74C46.4493 109.47 47 109.339 47.392 109.078C47.784 108.817 47.98 108.425 47.98 107.902C47.98 107.379 47.784 106.987 47.392 106.726C47 106.465 46.4493 106.334 45.74 106.334H42.87V113.866ZM52.0697 115V107.58H53.3577V109.596L53.2317 109.092C53.437 108.579 53.7824 108.187 54.2677 107.916C54.753 107.645 55.3504 107.51 56.0597 107.51V108.812C56.0037 108.803 55.9477 108.798 55.8917 108.798C55.845 108.798 55.7984 108.798 55.7517 108.798C55.033 108.798 54.4637 109.013 54.0437 109.442C53.6237 109.871 53.4137 110.492 53.4137 111.304V115H52.0697ZM61.9753 115V113.432L61.9053 113.138V110.464C61.9053 109.895 61.7373 109.456 61.4013 109.148C61.0746 108.831 60.58 108.672 59.9173 108.672C59.4786 108.672 59.0493 108.747 58.6293 108.896C58.2093 109.036 57.8546 109.227 57.5653 109.47L57.0053 108.462C57.388 108.154 57.8453 107.921 58.3773 107.762C58.9186 107.594 59.4833 107.51 60.0713 107.51C61.0886 107.51 61.8726 107.757 62.4233 108.252C62.974 108.747 63.2493 109.503 63.2493 110.52V115H61.9753ZM59.5393 115.084C58.9886 115.084 58.5033 114.991 58.0833 114.804C57.6726 114.617 57.3553 114.361 57.1313 114.034C56.9073 113.698 56.7953 113.32 56.7953 112.9C56.7953 112.499 56.8886 112.135 57.0753 111.808C57.2713 111.481 57.584 111.22 58.0133 111.024C58.452 110.828 59.04 110.73 59.7773 110.73H62.1293V111.696H59.8333C59.1613 111.696 58.7086 111.808 58.4753 112.032C58.242 112.256 58.1253 112.527 58.1253 112.844C58.1253 113.208 58.27 113.502 58.5593 113.726C58.8486 113.941 59.25 114.048 59.7633 114.048C60.2673 114.048 60.706 113.936 61.0793 113.712C61.462 113.488 61.7373 113.161 61.9053 112.732L62.1713 113.656C61.994 114.095 61.6813 114.445 61.2333 114.706C60.7853 114.958 60.2206 115.084 59.5393 115.084ZM65.2225 115V114.132L69.9825 108.224L70.2485 108.686H65.3065V107.58H71.3265V108.462L66.5665 114.356L66.2585 113.894H71.4385V115H65.2225ZM73.4373 115V107.58H74.7813V115H73.4373ZM74.1093 106.152C73.8479 106.152 73.6286 106.068 73.4513 105.9C73.2833 105.732 73.1993 105.527 73.1993 105.284C73.1993 105.032 73.2833 104.822 73.4513 104.654C73.6286 104.486 73.8479 104.402 74.1093 104.402C74.3706 104.402 74.5853 104.486 74.7533 104.654C74.9306 104.813 75.0193 105.013 75.0193 105.256C75.0193 105.508 74.9353 105.723 74.7673 105.9C74.5993 106.068 74.3799 106.152 74.1093 106.152ZM77.5474 115V104.612H78.8914V115H77.5474ZM81.6576 115V107.58H83.0016V115H81.6576ZM82.3296 106.152C82.0683 106.152 81.8489 106.068 81.6716 105.9C81.5036 105.732 81.4196 105.527 81.4196 105.284C81.4196 105.032 81.5036 104.822 81.6716 104.654C81.8489 104.486 82.0683 104.402 82.3296 104.402C82.5909 104.402 82.8056 104.486 82.9736 104.654C83.1509 104.813 83.2396 105.013 83.2396 105.256C83.2396 105.508 83.1556 105.723 82.9876 105.9C82.8196 106.068 82.6003 106.152 82.3296 106.152ZM90.3738 115V113.432L90.3038 113.138V110.464C90.3038 109.895 90.1358 109.456 89.7998 109.148C89.4731 108.831 88.9784 108.672 88.3158 108.672C87.8771 108.672 87.4478 108.747 87.0278 108.896C86.6078 109.036 86.2531 109.227 85.9638 109.47L85.4038 108.462C85.7864 108.154 86.2438 107.921 86.7758 107.762C87.3171 107.594 87.8818 107.51 88.4698 107.51C89.4871 107.51 90.2711 107.757 90.8218 108.252C91.3724 108.747 91.6478 109.503 91.6478 110.52V115H90.3738ZM87.9378 115.084C87.3871 115.084 86.9018 114.991 86.4818 114.804C86.0711 114.617 85.7538 114.361 85.5298 114.034C85.3058 113.698 85.1938 113.32 85.1938 112.9C85.1938 112.499 85.2871 112.135 85.4738 111.808C85.6698 111.481 85.9824 111.22 86.4118 111.024C86.8504 110.828 87.4384 110.73 88.1758 110.73H90.5278V111.696H88.2318C87.5598 111.696 87.1071 111.808 86.8738 112.032C86.6404 112.256 86.5238 112.527 86.5238 112.844C86.5238 113.208 86.6684 113.502 86.9578 113.726C87.2471 113.941 87.6484 114.048 88.1618 114.048C88.6658 114.048 89.1044 113.936 89.4778 113.712C89.8604 113.488 90.1358 113.161 90.3038 112.732L90.5698 113.656C90.3924 114.095 90.0798 114.445 89.6318 114.706C89.1838 114.958 88.6191 115.084 87.9378 115.084ZM98.2969 107.51C98.9036 107.51 99.4356 107.627 99.8929 107.86C100.36 108.093 100.724 108.448 100.985 108.924C101.246 109.4 101.377 110.002 101.377 110.73V115H100.033V110.884C100.033 110.165 99.8556 109.624 99.5009 109.26C99.1556 108.896 98.6656 108.714 98.0309 108.714C97.5549 108.714 97.1396 108.807 96.7849 108.994C96.4303 109.181 96.1549 109.456 95.9589 109.82C95.7723 110.184 95.6789 110.637 95.6789 111.178V115H94.3349V107.58H95.6229V109.582L95.4129 109.05C95.6556 108.565 96.0289 108.187 96.5329 107.916C97.0369 107.645 97.6249 107.51 98.2969 107.51ZM112.644 115.112C111.888 115.112 111.193 114.991 110.558 114.748C109.923 114.496 109.373 114.146 108.906 113.698C108.439 113.241 108.075 112.709 107.814 112.102C107.553 111.495 107.422 110.828 107.422 110.1C107.422 109.372 107.553 108.705 107.814 108.098C108.075 107.491 108.439 106.964 108.906 106.516C109.382 106.059 109.937 105.709 110.572 105.466C111.207 105.214 111.907 105.088 112.672 105.088C113.447 105.088 114.156 105.214 114.8 105.466C115.444 105.718 115.99 106.096 116.438 106.6L115.57 107.468C115.169 107.076 114.73 106.791 114.254 106.614C113.787 106.427 113.279 106.334 112.728 106.334C112.168 106.334 111.645 106.427 111.16 106.614C110.684 106.801 110.269 107.062 109.914 107.398C109.569 107.734 109.298 108.135 109.102 108.602C108.915 109.059 108.822 109.559 108.822 110.1C108.822 110.632 108.915 111.131 109.102 111.598C109.298 112.055 109.569 112.457 109.914 112.802C110.269 113.138 110.684 113.399 111.16 113.586C111.636 113.773 112.154 113.866 112.714 113.866C113.237 113.866 113.736 113.787 114.212 113.628C114.697 113.46 115.145 113.185 115.556 112.802L116.354 113.866C115.869 114.277 115.299 114.589 114.646 114.804C114.002 115.009 113.335 115.112 112.644 115.112ZM115.01 113.684V110.044H116.354V113.866L115.01 113.684ZM122.342 115.084C121.549 115.084 120.849 114.921 120.242 114.594C119.645 114.267 119.178 113.819 118.842 113.25C118.516 112.681 118.352 112.027 118.352 111.29C118.352 110.553 118.511 109.899 118.828 109.33C119.155 108.761 119.598 108.317 120.158 108C120.728 107.673 121.367 107.51 122.076 107.51C122.795 107.51 123.43 107.669 123.98 107.986C124.531 108.303 124.96 108.751 125.268 109.33C125.586 109.899 125.744 110.567 125.744 111.332C125.744 111.388 125.74 111.453 125.73 111.528C125.73 111.603 125.726 111.673 125.716 111.738H119.402V110.772H125.016L124.47 111.108C124.48 110.632 124.382 110.207 124.176 109.834C123.971 109.461 123.686 109.171 123.322 108.966C122.968 108.751 122.552 108.644 122.076 108.644C121.61 108.644 121.194 108.751 120.83 108.966C120.466 109.171 120.182 109.465 119.976 109.848C119.771 110.221 119.668 110.651 119.668 111.136V111.36C119.668 111.855 119.78 112.298 120.004 112.69C120.238 113.073 120.56 113.371 120.97 113.586C121.381 113.801 121.852 113.908 122.384 113.908C122.823 113.908 123.22 113.833 123.574 113.684C123.938 113.535 124.256 113.311 124.526 113.012L125.268 113.88C124.932 114.272 124.512 114.571 124.008 114.776C123.514 114.981 122.958 115.084 122.342 115.084ZM131.773 107.51C132.379 107.51 132.911 107.627 133.369 107.86C133.835 108.093 134.199 108.448 134.461 108.924C134.722 109.4 134.853 110.002 134.853 110.73V115H133.509V110.884C133.509 110.165 133.331 109.624 132.977 109.26C132.631 108.896 132.141 108.714 131.507 108.714C131.031 108.714 130.615 108.807 130.261 108.994C129.906 109.181 129.631 109.456 129.435 109.82C129.248 110.184 129.155 110.637 129.155 111.178V115H127.811V107.58H129.099V109.582L128.889 109.05C129.131 108.565 129.505 108.187 130.009 107.916C130.513 107.645 131.101 107.51 131.773 107.51ZM140.844 115.084C140.051 115.084 139.351 114.921 138.744 114.594C138.147 114.267 137.68 113.819 137.344 113.25C137.017 112.681 136.854 112.027 136.854 111.29C136.854 110.553 137.013 109.899 137.33 109.33C137.657 108.761 138.1 108.317 138.66 108C139.229 107.673 139.869 107.51 140.578 107.51C141.297 107.51 141.931 107.669 142.482 107.986C143.033 108.303 143.462 108.751 143.77 109.33C144.087 109.899 144.246 110.567 144.246 111.332C144.246 111.388 144.241 111.453 144.232 111.528C144.232 111.603 144.227 111.673 144.218 111.738H137.904V110.772H143.518L142.972 111.108C142.981 110.632 142.883 110.207 142.678 109.834C142.473 109.461 142.188 109.171 141.824 108.966C141.469 108.751 141.054 108.644 140.578 108.644C140.111 108.644 139.696 108.751 139.332 108.966C138.968 109.171 138.683 109.465 138.478 109.848C138.273 110.221 138.17 110.651 138.17 111.136V111.36C138.17 111.855 138.282 112.298 138.506 112.69C138.739 113.073 139.061 113.371 139.472 113.586C139.883 113.801 140.354 113.908 140.886 113.908C141.325 113.908 141.721 113.833 142.076 113.684C142.44 113.535 142.757 113.311 143.028 113.012L143.77 113.88C143.434 114.272 143.014 114.571 142.51 114.776C142.015 114.981 141.46 115.084 140.844 115.084ZM146.312 115V107.58H147.6V109.596L147.474 109.092C147.68 108.579 148.025 108.187 148.51 107.916C148.996 107.645 149.593 107.51 150.302 107.51V108.812C150.246 108.803 150.19 108.798 150.134 108.798C150.088 108.798 150.041 108.798 149.994 108.798C149.276 108.798 148.706 109.013 148.286 109.442C147.866 109.871 147.656 110.492 147.656 111.304V115H146.312ZM156.218 115V113.432L156.148 113.138V110.464C156.148 109.895 155.98 109.456 155.644 109.148C155.317 108.831 154.823 108.672 154.16 108.672C153.721 108.672 153.292 108.747 152.872 108.896C152.452 109.036 152.097 109.227 151.808 109.47L151.248 108.462C151.631 108.154 152.088 107.921 152.62 107.762C153.161 107.594 153.726 107.51 154.314 107.51C155.331 107.51 156.115 107.757 156.666 108.252C157.217 108.747 157.492 109.503 157.492 110.52V115H156.218ZM153.782 115.084C153.231 115.084 152.746 114.991 152.326 114.804C151.915 114.617 151.598 114.361 151.374 114.034C151.15 113.698 151.038 113.32 151.038 112.9C151.038 112.499 151.131 112.135 151.318 111.808C151.514 111.481 151.827 111.22 152.256 111.024C152.695 110.828 153.283 110.73 154.02 110.73H156.372V111.696H154.076C153.404 111.696 152.951 111.808 152.718 112.032C152.485 112.256 152.368 112.527 152.368 112.844C152.368 113.208 152.513 113.502 152.802 113.726C153.091 113.941 153.493 114.048 154.006 114.048C154.51 114.048 154.949 113.936 155.322 113.712C155.705 113.488 155.98 113.161 156.148 112.732L156.414 113.656C156.237 114.095 155.924 114.445 155.476 114.706C155.028 114.958 154.463 115.084 153.782 115.084ZM160.179 115V104.612H161.523V115H160.179ZM168.445 115V105.2H172.575C173.62 105.2 174.54 105.405 175.333 105.816C176.136 106.227 176.756 106.801 177.195 107.538C177.643 108.275 177.867 109.129 177.867 110.1C177.867 111.071 177.643 111.925 177.195 112.662C176.756 113.399 176.136 113.973 175.333 114.384C174.54 114.795 173.62 115 172.575 115H168.445ZM169.845 113.782H172.491C173.303 113.782 174.003 113.628 174.591 113.32C175.188 113.012 175.65 112.583 175.977 112.032C176.304 111.472 176.467 110.828 176.467 110.1C176.467 109.363 176.304 108.719 175.977 108.168C175.65 107.617 175.188 107.188 174.591 106.88C174.003 106.572 173.303 106.418 172.491 106.418H169.845V113.782ZM184.621 115V113.432L184.551 113.138V110.464C184.551 109.895 184.383 109.456 184.047 109.148C183.721 108.831 183.226 108.672 182.563 108.672C182.125 108.672 181.695 108.747 181.275 108.896C180.855 109.036 180.501 109.227 180.211 109.47L179.651 108.462C180.034 108.154 180.491 107.921 181.023 107.762C181.565 107.594 182.129 107.51 182.717 107.51C183.735 107.51 184.519 107.757 185.069 108.252C185.62 108.747 185.895 109.503 185.895 110.52V115H184.621ZM182.185 115.084C181.635 115.084 181.149 114.991 180.729 114.804C180.319 114.617 180.001 114.361 179.777 114.034C179.553 113.698 179.441 113.32 179.441 112.9C179.441 112.499 179.535 112.135 179.721 111.808C179.917 111.481 180.23 111.22 180.659 111.024C181.098 110.828 181.686 110.73 182.423 110.73H184.775V111.696H182.479C181.807 111.696 181.355 111.808 181.121 112.032C180.888 112.256 180.771 112.527 180.771 112.844C180.771 113.208 180.916 113.502 181.205 113.726C181.495 113.941 181.896 114.048 182.409 114.048C182.913 114.048 183.352 113.936 183.725 113.712C184.108 113.488 184.383 113.161 184.551 112.732L184.817 113.656C184.64 114.095 184.327 114.445 183.879 114.706C183.431 114.958 182.867 115.084 182.185 115.084ZM191.131 115.084C190.384 115.084 189.805 114.883 189.395 114.482C188.984 114.081 188.779 113.507 188.779 112.76V105.956H190.123V112.704C190.123 113.105 190.221 113.413 190.417 113.628C190.622 113.843 190.911 113.95 191.285 113.95C191.705 113.95 192.055 113.833 192.335 113.6L192.755 114.566C192.549 114.743 192.302 114.874 192.013 114.958C191.733 115.042 191.439 115.084 191.131 115.084ZM187.519 108.686V107.58H192.251V108.686H187.519ZM199.185 115V113.432L199.115 113.138V110.464C199.115 109.895 198.947 109.456 198.611 109.148C198.285 108.831 197.79 108.672 197.127 108.672C196.689 108.672 196.259 108.747 195.839 108.896C195.419 109.036 195.065 109.227 194.775 109.47L194.215 108.462C194.598 108.154 195.055 107.921 195.587 107.762C196.129 107.594 196.693 107.51 197.281 107.51C198.299 107.51 199.083 107.757 199.633 108.252C200.184 108.747 200.459 109.503 200.459 110.52V115H199.185ZM196.749 115.084C196.199 115.084 195.713 114.991 195.293 114.804C194.883 114.617 194.565 114.361 194.341 114.034C194.117 113.698 194.005 113.32 194.005 112.9C194.005 112.499 194.099 112.135 194.285 111.808C194.481 111.481 194.794 111.22 195.223 111.024C195.662 110.828 196.25 110.73 196.987 110.73H199.339V111.696H197.043C196.371 111.696 195.919 111.808 195.685 112.032C195.452 112.256 195.335 112.527 195.335 112.844C195.335 113.208 195.48 113.502 195.769 113.726C196.059 113.941 196.46 114.048 196.973 114.048C197.477 114.048 197.916 113.936 198.289 113.712C198.672 113.488 198.947 113.161 199.115 112.732L199.381 113.656C199.204 114.095 198.891 114.445 198.443 114.706C197.995 114.958 197.431 115.084 196.749 115.084ZM41.47 135V125.2H45.292C46.1507 125.2 46.8833 125.335 47.49 125.606C48.0967 125.877 48.5633 126.269 48.89 126.782C49.2167 127.295 49.38 127.907 49.38 128.616C49.38 129.325 49.2167 129.937 48.89 130.45C48.5633 130.954 48.0967 131.346 47.49 131.626C46.8833 131.897 46.1507 132.032 45.292 132.032H42.24L42.87 131.374V135H41.47ZM42.87 131.514L42.24 130.814H45.25C46.146 130.814 46.8227 130.623 47.28 130.24C47.7467 129.857 47.98 129.316 47.98 128.616C47.98 127.916 47.7467 127.375 47.28 126.992C46.8227 126.609 46.146 126.418 45.25 126.418H42.24L42.87 125.718V131.514ZM51.3041 135V127.58H52.5921V129.596L52.4661 129.092C52.6714 128.579 53.0167 128.187 53.5021 127.916C53.9874 127.645 54.5847 127.51 55.2941 127.51V128.812C55.2381 128.803 55.1821 128.798 55.1261 128.798C55.0794 128.798 55.0327 128.798 54.9861 128.798C54.2674 128.798 53.6981 129.013 53.2781 129.442C52.8581 129.871 52.6481 130.492 52.6481 131.304V135H51.3041ZM60.2602 135.084C59.5135 135.084 58.8509 134.921 58.2722 134.594C57.6935 134.267 57.2362 133.819 56.9002 133.25C56.5642 132.671 56.3962 132.018 56.3962 131.29C56.3962 130.553 56.5642 129.899 56.9002 129.33C57.2362 128.761 57.6935 128.317 58.2722 128C58.8509 127.673 59.5135 127.51 60.2602 127.51C60.9975 127.51 61.6555 127.673 62.2342 128C62.8222 128.317 63.2795 128.761 63.6062 129.33C63.9422 129.89 64.1102 130.543 64.1102 131.29C64.1102 132.027 63.9422 132.681 63.6062 133.25C63.2795 133.819 62.8222 134.267 62.2342 134.594C61.6555 134.921 60.9975 135.084 60.2602 135.084ZM60.2602 133.908C60.7362 133.908 61.1609 133.801 61.5342 133.586C61.9169 133.371 62.2155 133.068 62.4302 132.676C62.6449 132.275 62.7522 131.813 62.7522 131.29C62.7522 130.758 62.6449 130.301 62.4302 129.918C62.2155 129.526 61.9169 129.223 61.5342 129.008C61.1609 128.793 60.7362 128.686 60.2602 128.686C59.7842 128.686 59.3595 128.793 58.9862 129.008C58.6129 129.223 58.3142 129.526 58.0902 129.918C57.8662 130.301 57.7542 130.758 57.7542 131.29C57.7542 131.813 57.8662 132.275 58.0902 132.676C58.3142 133.068 58.6129 133.371 58.9862 133.586C59.3595 133.801 59.7842 133.908 60.2602 133.908ZM68.7169 135.084C67.9703 135.084 67.3916 134.883 66.9809 134.482C66.5703 134.081 66.3649 133.507 66.3649 132.76V125.956H67.7089V132.704C67.7089 133.105 67.8069 133.413 68.0029 133.628C68.2083 133.843 68.4976 133.95 68.8709 133.95C69.2909 133.95 69.6409 133.833 69.9209 133.6L70.3409 134.566C70.1356 134.743 69.8883 134.874 69.5989 134.958C69.3189 135.042 69.0249 135.084 68.7169 135.084ZM65.1049 128.686V127.58H69.8369V128.686H65.1049ZM75.2237 135.084C74.4304 135.084 73.7304 134.921 73.1237 134.594C72.5264 134.267 72.0597 133.819 71.7237 133.25C71.397 132.681 71.2337 132.027 71.2337 131.29C71.2337 130.553 71.3924 129.899 71.7097 129.33C72.0364 128.761 72.4797 128.317 73.0397 128C73.609 127.673 74.2484 127.51 74.9577 127.51C75.6764 127.51 76.311 127.669 76.8617 127.986C77.4124 128.303 77.8417 128.751 78.1497 129.33C78.467 129.899 78.6257 130.567 78.6257 131.332C78.6257 131.388 78.621 131.453 78.6117 131.528C78.6117 131.603 78.607 131.673 78.5977 131.738H72.2837V130.772H77.8977L77.3517 131.108C77.361 130.632 77.263 130.207 77.0577 129.834C76.8524 129.461 76.5677 129.171 76.2037 128.966C75.849 128.751 75.4337 128.644 74.9577 128.644C74.491 128.644 74.0757 128.751 73.7117 128.966C73.3477 129.171 73.063 129.465 72.8577 129.848C72.6524 130.221 72.5497 130.651 72.5497 131.136V131.36C72.5497 131.855 72.6617 132.298 72.8857 132.69C73.119 133.073 73.441 133.371 73.8517 133.586C74.2624 133.801 74.7337 133.908 75.2657 133.908C75.7044 133.908 76.101 133.833 76.4557 133.684C76.8197 133.535 77.137 133.311 77.4077 133.012L78.1497 133.88C77.8137 134.272 77.3937 134.571 76.8897 134.776C76.395 134.981 75.8397 135.084 75.2237 135.084ZM83.926 135.084C83.17 135.084 82.4933 134.921 81.896 134.594C81.308 134.267 80.846 133.819 80.51 133.25C80.174 132.681 80.006 132.027 80.006 131.29C80.006 130.553 80.174 129.899 80.51 129.33C80.846 128.761 81.308 128.317 81.896 128C82.4933 127.673 83.17 127.51 83.926 127.51C84.598 127.51 85.1953 127.645 85.718 127.916C86.25 128.177 86.6606 128.569 86.95 129.092L85.928 129.75C85.6853 129.386 85.3866 129.12 85.032 128.952C84.6866 128.775 84.3133 128.686 83.912 128.686C83.4266 128.686 82.9926 128.793 82.61 129.008C82.2273 129.223 81.924 129.526 81.7 129.918C81.476 130.301 81.364 130.758 81.364 131.29C81.364 131.822 81.476 132.284 81.7 132.676C81.924 133.068 82.2273 133.371 82.61 133.586C82.9926 133.801 83.4266 133.908 83.912 133.908C84.3133 133.908 84.6866 133.824 85.032 133.656C85.3866 133.479 85.6853 133.208 85.928 132.844L86.95 133.488C86.6606 134.001 86.25 134.398 85.718 134.678C85.1953 134.949 84.598 135.084 83.926 135.084ZM91.5337 135.084C90.7871 135.084 90.2084 134.883 89.7977 134.482C89.3871 134.081 89.1817 133.507 89.1817 132.76V125.956H90.5257V132.704C90.5257 133.105 90.6237 133.413 90.8197 133.628C91.0251 133.843 91.3144 133.95 91.6877 133.95C92.1077 133.95 92.4577 133.833 92.7377 133.6L93.1577 134.566C92.9524 134.743 92.7051 134.874 92.4157 134.958C92.1357 135.042 91.8417 135.084 91.5337 135.084ZM87.9217 128.686V127.58H92.6537V128.686H87.9217ZM94.9826 135V127.58H96.3266V135H94.9826ZM95.6546 126.152C95.3933 126.152 95.1739 126.068 94.9966 125.9C94.8286 125.732 94.7446 125.527 94.7446 125.284C94.7446 125.032 94.8286 124.822 94.9966 124.654C95.1739 124.486 95.3933 124.402 95.6546 124.402C95.9159 124.402 96.1306 124.486 96.2986 124.654C96.4759 124.813 96.5646 125.013 96.5646 125.256C96.5646 125.508 96.4806 125.723 96.3126 125.9C96.1446 126.068 95.9253 126.152 95.6546 126.152ZM102.271 135.084C101.524 135.084 100.861 134.921 100.283 134.594C99.7041 134.267 99.2467 133.819 98.9107 133.25C98.5747 132.671 98.4067 132.018 98.4067 131.29C98.4067 130.553 98.5747 129.899 98.9107 129.33C99.2467 128.761 99.7041 128.317 100.283 128C100.861 127.673 101.524 127.51 102.271 127.51C103.008 127.51 103.666 127.673 104.245 128C104.833 128.317 105.29 128.761 105.617 129.33C105.953 129.89 106.121 130.543 106.121 131.29C106.121 132.027 105.953 132.681 105.617 133.25C105.29 133.819 104.833 134.267 104.245 134.594C103.666 134.921 103.008 135.084 102.271 135.084ZM102.271 133.908C102.747 133.908 103.171 133.801 103.545 133.586C103.927 133.371 104.226 133.068 104.441 132.676C104.655 132.275 104.763 131.813 104.763 131.29C104.763 130.758 104.655 130.301 104.441 129.918C104.226 129.526 103.927 129.223 103.545 129.008C103.171 128.793 102.747 128.686 102.271 128.686C101.795 128.686 101.37 128.793 100.997 129.008C100.623 129.223 100.325 129.526 100.101 129.918C99.8767 130.301 99.7647 130.758 99.7647 131.29C99.7647 131.813 99.8767 132.275 100.101 132.676C100.325 133.068 100.623 133.371 100.997 133.586C101.37 133.801 101.795 133.908 102.271 133.908ZM112.141 127.51C112.748 127.51 113.28 127.627 113.737 127.86C114.204 128.093 114.568 128.448 114.829 128.924C115.091 129.4 115.221 130.002 115.221 130.73V135H113.877V130.884C113.877 130.165 113.7 129.624 113.345 129.26C113 128.896 112.51 128.714 111.875 128.714C111.399 128.714 110.984 128.807 110.629 128.994C110.275 129.181 109.999 129.456 109.803 129.82C109.617 130.184 109.523 130.637 109.523 131.178V135H108.179V127.58H109.467V129.582L109.257 129.05C109.5 128.565 109.873 128.187 110.377 127.916C110.881 127.645 111.469 127.51 112.141 127.51Z" fill="#19191F"/>
<path d="M55 70C63.2843 70 70 63.2843 70 55C70 46.7157 63.2843 40 55 40C46.7157 40 40 46.7157 40 55C40 63.2843 46.7157 70 55 70Z" fill="#6DA544"/>
<path d="M55 45.8691L67.3913 54.9996L55 64.13L42.6087 54.9996L55 45.8691Z" fill="#FFDA44"/>
<path d="M55 60.2179C57.8815 60.2179 60.2174 57.882 60.2174 55.0006C60.2174 52.1191 57.8815 49.7832 55 49.7832C52.1185 49.7832 49.7827 52.1191 49.7827 55.0006C49.7827 57.882 52.1185 60.2179 55 60.2179Z" fill="#F0F0F0"/>
<path d="M52.3913 54.6738C51.484 54.6738 50.6085 54.8118 49.7843 55.0679C49.8208 57.9179 52.1414 60.2173 55 60.2173C56.7677 60.2173 58.3289 59.3374 59.2726 57.9926C57.658 55.9713 55.1735 54.6738 52.3913 54.6738Z" fill="#0052B4"/>
<path d="M60.1207 56.0002C60.1835 55.6765 60.2174 55.3426 60.2174 55.0006C60.2174 52.119 57.8815 49.7832 55.0001 49.7832C52.85 49.7832 51.0043 51.084 50.2056 52.9413C50.9116 52.795 51.6426 52.718 52.3914 52.718C55.4217 52.7179 58.1631 53.9776 60.1207 56.0002Z" fill="#0052B4"/>
<path d="M248 54.5C248 53.0166 247.56 51.5666 246.736 50.3332C245.912 49.0999 244.741 48.1386 243.37 47.5709C242 47.0032 240.492 46.8547 239.037 47.1441C237.582 47.4335 236.246 48.1478 235.197 49.1967C234.148 50.2456 233.434 51.582 233.144 53.0368C232.855 54.4917 233.003 55.9997 233.571 57.3701C234.139 58.7406 235.1 59.9119 236.333 60.736C237.567 61.5601 239.017 62 240.5 62C242.488 61.9978 244.395 61.2069 245.801 59.8009C247.207 58.3948 247.998 56.4884 248 54.5ZM239.97 58.0303C239.9 57.9606 239.845 57.878 239.807 57.787C239.769 57.696 239.75 57.5985 239.75 57.5C239.75 57.4015 239.769 57.304 239.807 57.213C239.845 57.122 239.9 57.0393 239.97 56.9697L241.689 55.25H237.5C237.301 55.25 237.11 55.171 236.97 55.0303C236.829 54.8897 236.75 54.6989 236.75 54.5C236.75 54.3011 236.829 54.1103 236.97 53.9697C237.11 53.829 237.301 53.75 237.5 53.75H241.689L239.97 52.0303C239.831 51.8892 239.754 51.6991 239.755 51.5014C239.756 51.3037 239.835 51.1143 239.975 50.9745C240.114 50.8347 240.304 50.7558 240.501 50.7549C240.699 50.754 240.889 50.8312 241.03 50.9698L244.03 53.9695C244.17 54.1105 244.249 54.3012 244.249 54.5C244.249 54.6988 244.17 54.8895 244.03 55.0305L241.03 58.0303C240.961 58.0999 240.878 58.1552 240.787 58.1929C240.696 58.2306 240.598 58.25 240.5 58.25C240.402 58.25 240.304 58.2306 240.213 58.1929C240.122 58.1552 240.039 58.0999 239.97 58.0303Z" fill="#5B588F"/>
<defs>
<filter id="filter0_dd_4189_12441" x="0" y="0" width="290" height="182" filterUnits="userSpaceOnUse" color-interpolation-filters="sRGB">
<feFlood flood-opacity="0" result="BackgroundImageFix"/>
<feColorMatrix in="SourceAlpha" type="matrix" values="0 0 0 0 0 0 0 0 0 0 0 0 0 0 0 0 0 0 127 0" result="hardAlpha"/>
<feMorphology radius="2" operator="dilate" in="SourceAlpha" result="effect1_dropShadow_4189_12441"/>
<feOffset dx="4" dy="4"/>
<feGaussianBlur stdDeviation="8"/>
<feComposite in2="hardAlpha" operator="out"/>
<feColorMatrix type="matrix" values="0 0 0 0 1 0 0 0 0 1 0 0 0 0 1 0 0 0 0.25 0"/>
<feBlend mode="normal" in2="BackgroundImageFix" result="effect1_dropShadow_4189_12441"/>
<feColorMatrix in="SourceAlpha" type="matrix" values="0 0 0 0 0 0 0 0 0 0 0 0 0 0 0 0 0 0 127 0" result="hardAlpha"/>
<feOffset dx="-4" dy="-4"/>
<feGaussianBlur stdDeviation="8"/>
<feComposite in2="hardAlpha" operator="out"/>
<feColorMatrix type="matrix" values="0 0 0 0 1 0 0 0 0 1 0 0 0 0 1 0 0 0 0.25 0"/>
<feBlend mode="normal" in2="effect1_dropShadow_4189_12441" result="effect2_dropShadow_4189_12441"/>
<feBlend mode="normal" in="SourceGraphic" in2="effect2_dropShadow_4189_12441" result="shape"/>
</filter>
</defs>
</svg>
