<svg width="290" height="182" viewBox="0 0 290 182" fill="none" xmlns="http://www.w3.org/2000/svg">
<g filter="url(#filter0_dd_4190_12452)">
<rect x="20" y="20" width="248" height="140" rx="10" fill="white"/>
</g>
<path d="M55 70C63.2843 70 70 63.2843 70 55C70 46.7157 63.2843 40 55 40C46.7157 40 40 46.7157 40 55C40 63.2843 46.7157 70 55 70Z" fill="#D80027"/>
<path d="M54.3858 52.2578L55.6166 53.9538L57.6098 53.3075L56.3771 55.0021L57.6077 56.698L55.6152 56.0492L54.3825 57.7438L54.3838 55.6484L52.3913 54.9996L54.3845 54.3534L54.3858 52.2578Z" fill="#F0F0F0"/>
<path d="M51.027 59.2398C48.6858 59.2398 46.7879 57.3418 46.7879 55.0006C46.7879 52.6595 48.6858 50.7615 51.027 50.7615C51.757 50.7615 52.4438 50.9461 53.0434 51.271C52.1027 50.351 50.8162 49.7832 49.3966 49.7832C46.515 49.7832 44.1792 52.1191 44.1792 55.0006C44.1792 57.882 46.5151 60.2179 49.3966 60.2179C50.8163 60.2179 52.1028 59.6501 53.0434 58.7301C52.4438 59.0551 51.757 59.2398 51.027 59.2398Z" fill="#F0F0F0"/>
<path d="M41.162 94V84.2H43.43V92.152H48.344V94H41.162ZM49.8112 94V84.2H54.0532C54.9306 84.2 55.6866 84.3447 56.3212 84.634C56.9559 84.914 57.4459 85.32 57.7912 85.852C58.1366 86.384 58.3092 87.0187 58.3092 87.756C58.3092 88.484 58.1366 89.114 57.7912 89.646C57.4459 90.178 56.9559 90.5887 56.3212 90.878C55.6866 91.158 54.9306 91.298 54.0532 91.298H51.0712L52.0792 90.276V94H49.8112ZM52.0792 90.528L51.0712 89.45H53.9272C54.6272 89.45 55.1499 89.3007 55.4952 89.002C55.8406 88.7033 56.0132 88.288 56.0132 87.756C56.0132 87.2147 55.8406 86.7947 55.4952 86.496C55.1499 86.1973 54.6272 86.048 53.9272 86.048H51.0712L52.0792 84.97V90.528ZM60.1284 94V84.2H64.3704C65.2477 84.2 66.0037 84.3447 66.6384 84.634C67.2731 84.914 67.7631 85.32 68.1084 85.852C68.4537 86.384 68.6264 87.0187 68.6264 87.756C68.6264 88.484 68.4537 89.114 68.1084 89.646C67.7631 90.178 67.2731 90.5887 66.6384 90.878C66.0037 91.158 65.2477 91.298 64.3704 91.298H61.3884L62.3964 90.276V94H60.1284ZM62.3964 90.528L61.3884 89.45H64.2444C64.9444 89.45 65.4671 89.3007 65.8124 89.002C66.1577 88.7033 66.3304 88.288 66.3304 87.756C66.3304 87.2147 66.1577 86.7947 65.8124 86.496C65.4671 86.1973 64.9444 86.048 64.2444 86.048H61.3884L62.3964 84.97V90.528ZM70.4456 94V84.2H74.8976C75.9616 84.2 76.8996 84.4053 77.7116 84.816C78.5236 85.2173 79.1583 85.782 79.6156 86.51C80.0729 87.238 80.3016 88.1013 80.3016 89.1C80.3016 90.0893 80.0729 90.9527 79.6156 91.69C79.1583 92.418 78.5236 92.9873 77.7116 93.398C76.8996 93.7993 75.9616 94 74.8976 94H70.4456ZM72.7136 92.138H74.7856C75.4389 92.138 76.0036 92.0167 76.4796 91.774C76.9649 91.522 77.3383 91.1673 77.5996 90.71C77.8703 90.2527 78.0056 89.716 78.0056 89.1C78.0056 88.4747 77.8703 87.938 77.5996 87.49C77.3383 87.0327 76.9649 86.6827 76.4796 86.44C76.0036 86.188 75.4389 86.062 74.7856 86.062H72.7136V92.138ZM42.928 112V104.644H40.048V103.6H46.996V104.644H44.116V112H42.928ZM50.8586 112.072C50.3146 112.072 49.8346 111.972 49.4186 111.772C49.0106 111.572 48.6906 111.268 48.4586 110.86C48.2346 110.444 48.1226 109.924 48.1226 109.3V105.64H49.2746V109.168C49.2746 109.792 49.4226 110.26 49.7186 110.572C50.0226 110.884 50.4466 111.04 50.9906 111.04C51.3906 111.04 51.7386 110.96 52.0346 110.8C52.3306 110.632 52.5586 110.392 52.7186 110.08C52.8786 109.76 52.9586 109.376 52.9586 108.928V105.64H54.1106V112H53.0186V110.284L53.1986 110.74C52.9906 111.164 52.6786 111.492 52.2626 111.724C51.8466 111.956 51.3786 112.072 50.8586 112.072ZM56.5037 112V105.64H57.6077V107.368L57.4997 106.936C57.6757 106.496 57.9717 106.16 58.3877 105.928C58.8037 105.696 59.3157 105.58 59.9237 105.58V106.696C59.8757 106.688 59.8277 106.684 59.7797 106.684C59.7397 106.684 59.6997 106.684 59.6597 106.684C59.0437 106.684 58.5557 106.868 58.1957 107.236C57.8357 107.604 57.6557 108.136 57.6557 108.832V112H56.5037ZM62.4796 110.464L62.5036 108.988L66.1636 105.64H67.5556L64.7476 108.4L64.1236 108.928L62.4796 110.464ZM61.5436 112V103.096H62.6956V112H61.5436ZM66.4036 112L63.9076 108.904L64.6516 107.98L67.8196 112H66.4036ZM71.7123 112.072C71.0323 112.072 70.4323 111.932 69.9123 111.652C69.4003 111.372 69.0003 110.988 68.7123 110.5C68.4323 110.012 68.2923 109.452 68.2923 108.82C68.2923 108.188 68.4283 107.628 68.7003 107.14C68.9803 106.652 69.3603 106.272 69.8403 106C70.3283 105.72 70.8763 105.58 71.4843 105.58C72.1003 105.58 72.6443 105.716 73.1163 105.988C73.5883 106.26 73.9563 106.644 74.2203 107.14C74.4923 107.628 74.6283 108.2 74.6283 108.856C74.6283 108.904 74.6243 108.96 74.6163 109.024C74.6163 109.088 74.6123 109.148 74.6043 109.204H69.1923V108.376H74.0043L73.5363 108.664C73.5443 108.256 73.4603 107.892 73.2843 107.572C73.1083 107.252 72.8643 107.004 72.5523 106.828C72.2483 106.644 71.8923 106.552 71.4843 106.552C71.0843 106.552 70.7283 106.644 70.4163 106.828C70.1043 107.004 69.8603 107.256 69.6843 107.584C69.5083 107.904 69.4203 108.272 69.4203 108.688V108.88C69.4203 109.304 69.5163 109.684 69.7083 110.02C69.9083 110.348 70.1843 110.604 70.5363 110.788C70.8883 110.972 71.2923 111.064 71.7483 111.064C72.1243 111.064 72.4643 111 72.7683 110.872C73.0803 110.744 73.3523 110.552 73.5843 110.296L74.2203 111.04C73.9323 111.376 73.5723 111.632 73.1403 111.808C72.7163 111.984 72.2403 112.072 71.7123 112.072ZM76.5868 114.4C76.2828 114.4 75.9868 114.348 75.6988 114.244C75.4108 114.148 75.1627 114.004 74.9547 113.812L75.4468 112.948C75.6068 113.1 75.7828 113.216 75.9748 113.296C76.1668 113.376 76.3708 113.416 76.5868 113.416C76.8668 113.416 77.0988 113.344 77.2828 113.2C77.4668 113.056 77.6388 112.8 77.7988 112.432L78.1948 111.556L78.3148 111.412L80.8108 105.64H81.9388L78.8548 112.636C78.6708 113.084 78.4628 113.436 78.2308 113.692C78.0068 113.948 77.7588 114.128 77.4868 114.232C77.2148 114.344 76.9148 114.4 76.5868 114.4ZM78.0988 112.204L75.1947 105.64H76.3948L78.8668 111.304L78.0988 112.204ZM86.8045 112V103.6H88.0045V110.956H92.5525V112H86.8045ZM97.9095 112V110.656L97.8495 110.404V108.112C97.8495 107.624 97.7055 107.248 97.4175 106.984C97.1375 106.712 96.7135 106.576 96.1455 106.576C95.7695 106.576 95.4015 106.64 95.0415 106.768C94.6815 106.888 94.3775 107.052 94.1295 107.26L93.6495 106.396C93.9775 106.132 94.3695 105.932 94.8255 105.796C95.2895 105.652 95.7735 105.58 96.2775 105.58C97.1495 105.58 97.8215 105.792 98.2935 106.216C98.7655 106.64 99.0015 107.288 99.0015 108.16V112H97.9095ZM95.8215 112.072C95.3495 112.072 94.9335 111.992 94.5735 111.832C94.2215 111.672 93.9495 111.452 93.7575 111.172C93.5655 110.884 93.4695 110.56 93.4695 110.2C93.4695 109.856 93.5495 109.544 93.7095 109.264C93.8775 108.984 94.1455 108.76 94.5135 108.592C94.8895 108.424 95.3935 108.34 96.0255 108.34H98.0415V109.168H96.0735C95.4975 109.168 95.1095 109.264 94.9095 109.456C94.7095 109.648 94.6095 109.88 94.6095 110.152C94.6095 110.464 94.7335 110.716 94.9815 110.908C95.2295 111.092 95.5735 111.184 96.0135 111.184C96.4455 111.184 96.8215 111.088 97.1415 110.896C97.4695 110.704 97.7055 110.424 97.8495 110.056L98.0775 110.848C97.9255 111.224 97.6575 111.524 97.2735 111.748C96.8895 111.964 96.4055 112.072 95.8215 112.072ZM102.56 112L100.196 105.64H101.288L103.388 111.4H102.872L105.056 105.64H106.028L108.164 111.4H107.66L109.808 105.64H110.84L108.464 112H107.36L105.356 106.744H105.692L103.664 112H102.56ZM118.356 112.072C117.716 112.072 117.148 111.932 116.652 111.652C116.156 111.372 115.764 110.988 115.476 110.5C115.188 110.004 115.044 109.444 115.044 108.82C115.044 108.188 115.188 107.628 115.476 107.14C115.764 106.652 116.156 106.272 116.652 106C117.148 105.72 117.716 105.58 118.356 105.58C118.988 105.58 119.552 105.72 120.048 106C120.552 106.272 120.944 106.652 121.224 107.14C121.512 107.62 121.656 108.18 121.656 108.82C121.656 109.452 121.512 110.012 121.224 110.5C120.944 110.988 120.552 111.372 120.048 111.652C119.552 111.932 118.988 112.072 118.356 112.072ZM118.356 111.064C118.764 111.064 119.128 110.972 119.448 110.788C119.776 110.604 120.032 110.344 120.216 110.008C120.4 109.664 120.492 109.268 120.492 108.82C120.492 108.364 120.4 107.972 120.216 107.644C120.032 107.308 119.776 107.048 119.448 106.864C119.128 106.68 118.764 106.588 118.356 106.588C117.948 106.588 117.584 106.68 117.264 106.864C116.944 107.048 116.688 107.308 116.496 107.644C116.304 107.972 116.208 108.364 116.208 108.82C116.208 109.268 116.304 109.664 116.496 110.008C116.688 110.344 116.944 110.604 117.264 110.788C117.584 110.972 117.948 111.064 118.356 111.064ZM126.845 105.58C127.365 105.58 127.821 105.68 128.213 105.88C128.613 106.08 128.925 106.384 129.149 106.792C129.373 107.2 129.485 107.716 129.485 108.34V112H128.333V108.472C128.333 107.856 128.181 107.392 127.877 107.08C127.581 106.768 127.161 106.612 126.617 106.612C126.209 106.612 125.853 106.692 125.549 106.852C125.245 107.012 125.009 107.248 124.841 107.56C124.681 107.872 124.601 108.26 124.601 108.724V112H123.449V105.64H124.553V107.356L124.373 106.9C124.581 106.484 124.901 106.16 125.333 105.928C125.765 105.696 126.269 105.58 126.845 105.58ZM137.424 112.072C136.784 112.072 136.288 111.9 135.936 111.556C135.584 111.212 135.408 110.72 135.408 110.08V104.248H136.56V110.032C136.56 110.376 136.644 110.64 136.812 110.824C136.988 111.008 137.236 111.1 137.556 111.1C137.916 111.1 138.216 111 138.456 110.8L138.816 111.628C138.64 111.78 138.428 111.892 138.18 111.964C137.94 112.036 137.688 112.072 137.424 112.072ZM134.328 106.588V105.64H138.384V106.588H134.328ZM143.804 105.58C144.324 105.58 144.78 105.68 145.172 105.88C145.572 106.08 145.884 106.384 146.108 106.792C146.332 107.2 146.444 107.716 146.444 108.34V112H145.292V108.472C145.292 107.856 145.14 107.392 144.836 107.08C144.54 106.768 144.12 106.612 143.576 106.612C143.168 106.612 142.812 106.692 142.508 106.852C142.204 107.012 141.968 107.248 141.8 107.56C141.64 107.872 141.56 108.26 141.56 108.724V112H140.408V103.096H141.56V107.356L141.332 106.9C141.54 106.484 141.86 106.16 142.292 105.928C142.724 105.696 143.228 105.58 143.804 105.58ZM151.608 112.072C150.928 112.072 150.328 111.932 149.808 111.652C149.296 111.372 148.896 110.988 148.608 110.5C148.328 110.012 148.188 109.452 148.188 108.82C148.188 108.188 148.324 107.628 148.596 107.14C148.876 106.652 149.256 106.272 149.736 106C150.224 105.72 150.772 105.58 151.38 105.58C151.996 105.58 152.54 105.716 153.012 105.988C153.484 106.26 153.852 106.644 154.116 107.14C154.388 107.628 154.524 108.2 154.524 108.856C154.524 108.904 154.52 108.96 154.512 109.024C154.512 109.088 154.508 109.148 154.5 109.204H149.088V108.376H153.9L153.432 108.664C153.44 108.256 153.356 107.892 153.18 107.572C153.004 107.252 152.76 107.004 152.448 106.828C152.144 106.644 151.788 106.552 151.38 106.552C150.98 106.552 150.624 106.644 150.312 106.828C150 107.004 149.756 107.256 149.58 107.584C149.404 107.904 149.316 108.272 149.316 108.688V108.88C149.316 109.304 149.412 109.684 149.604 110.02C149.804 110.348 150.08 110.604 150.432 110.788C150.784 110.972 151.188 111.064 151.644 111.064C152.02 111.064 152.36 111 152.664 110.872C152.976 110.744 153.248 110.552 153.48 110.296L154.116 111.04C153.828 111.376 153.468 111.632 153.036 111.808C152.612 111.984 152.136 112.072 151.608 112.072ZM159.915 112V103.6H163.191C163.927 103.6 164.555 103.716 165.075 103.948C165.595 104.18 165.995 104.516 166.275 104.956C166.555 105.396 166.695 105.92 166.695 106.528C166.695 107.136 166.555 107.66 166.275 108.1C165.995 108.532 165.595 108.868 165.075 109.108C164.555 109.34 163.927 109.456 163.191 109.456H160.575L161.115 108.892V112H159.915ZM161.115 109.012L160.575 108.412H163.155C163.923 108.412 164.503 108.248 164.895 107.92C165.295 107.592 165.495 107.128 165.495 106.528C165.495 105.928 165.295 105.464 164.895 105.136C164.503 104.808 163.923 104.644 163.155 104.644H160.575L161.115 104.044V109.012ZM168.372 112V105.64H169.476V107.368L169.368 106.936C169.544 106.496 169.84 106.16 170.256 105.928C170.672 105.696 171.184 105.58 171.792 105.58V106.696C171.744 106.688 171.696 106.684 171.648 106.684C171.608 106.684 171.568 106.684 171.528 106.684C170.912 106.684 170.424 106.868 170.064 107.236C169.704 107.604 169.524 108.136 169.524 108.832V112H168.372ZM176.078 112.072C175.438 112.072 174.87 111.932 174.374 111.652C173.878 111.372 173.486 110.988 173.198 110.5C172.91 110.004 172.766 109.444 172.766 108.82C172.766 108.188 172.91 107.628 173.198 107.14C173.486 106.652 173.878 106.272 174.374 106C174.87 105.72 175.438 105.58 176.078 105.58C176.71 105.58 177.274 105.72 177.77 106C178.274 106.272 178.666 106.652 178.946 107.14C179.234 107.62 179.378 108.18 179.378 108.82C179.378 109.452 179.234 110.012 178.946 110.5C178.666 110.988 178.274 111.372 177.77 111.652C177.274 111.932 176.71 112.072 176.078 112.072ZM176.078 111.064C176.486 111.064 176.85 110.972 177.17 110.788C177.498 110.604 177.754 110.344 177.938 110.008C178.122 109.664 178.214 109.268 178.214 108.82C178.214 108.364 178.122 107.972 177.938 107.644C177.754 107.308 177.498 107.048 177.17 106.864C176.85 106.68 176.486 106.588 176.078 106.588C175.67 106.588 175.306 106.68 174.986 106.864C174.666 107.048 174.41 107.308 174.218 107.644C174.026 107.972 173.93 108.364 173.93 108.82C173.93 109.268 174.026 109.664 174.218 110.008C174.41 110.344 174.666 110.604 174.986 110.788C175.306 110.972 175.67 111.064 176.078 111.064ZM183.355 112.072C182.715 112.072 182.219 111.9 181.867 111.556C181.515 111.212 181.339 110.72 181.339 110.08V104.248H182.491V110.032C182.491 110.376 182.575 110.64 182.743 110.824C182.919 111.008 183.167 111.1 183.487 111.1C183.847 111.1 184.147 111 184.387 110.8L184.747 111.628C184.571 111.78 184.359 111.892 184.111 111.964C183.871 112.036 183.619 112.072 183.355 112.072ZM180.259 106.588V105.64H184.315V106.588H180.259ZM188.961 112.072C188.281 112.072 187.681 111.932 187.161 111.652C186.649 111.372 186.249 110.988 185.961 110.5C185.681 110.012 185.541 109.452 185.541 108.82C185.541 108.188 185.677 107.628 185.949 107.14C186.229 106.652 186.609 106.272 187.089 106C187.577 105.72 188.125 105.58 188.733 105.58C189.349 105.58 189.893 105.716 190.365 105.988C190.837 106.26 191.205 106.644 191.469 107.14C191.741 107.628 191.877 108.2 191.877 108.856C191.877 108.904 191.873 108.96 191.865 109.024C191.865 109.088 191.861 109.148 191.853 109.204H186.441V108.376H191.253L190.785 108.664C190.793 108.256 190.709 107.892 190.533 107.572C190.357 107.252 190.113 107.004 189.801 106.828C189.497 106.644 189.141 106.552 188.733 106.552C188.333 106.552 187.977 106.644 187.665 106.828C187.353 107.004 187.109 107.256 186.933 107.584C186.757 107.904 186.669 108.272 186.669 108.688V108.88C186.669 109.304 186.765 109.684 186.957 110.02C187.157 110.348 187.433 110.604 187.785 110.788C188.137 110.972 188.541 111.064 188.997 111.064C189.373 111.064 189.713 111 190.017 110.872C190.329 110.744 190.601 110.552 190.833 110.296L191.469 111.04C191.181 111.376 190.821 111.632 190.389 111.808C189.965 111.984 189.489 112.072 188.961 112.072ZM196.448 112.072C195.8 112.072 195.22 111.932 194.708 111.652C194.204 111.372 193.808 110.988 193.52 110.5C193.232 110.012 193.088 109.452 193.088 108.82C193.088 108.188 193.232 107.628 193.52 107.14C193.808 106.652 194.204 106.272 194.708 106C195.22 105.72 195.8 105.58 196.448 105.58C197.024 105.58 197.536 105.696 197.984 105.928C198.44 106.152 198.792 106.488 199.04 106.936L198.164 107.5C197.956 107.188 197.7 106.96 197.396 106.816C197.1 106.664 196.78 106.588 196.436 106.588C196.02 106.588 195.648 106.68 195.32 106.864C194.992 107.048 194.732 107.308 194.54 107.644C194.348 107.972 194.252 108.364 194.252 108.82C194.252 109.276 194.348 109.672 194.54 110.008C194.732 110.344 194.992 110.604 195.32 110.788C195.648 110.972 196.02 111.064 196.436 111.064C196.78 111.064 197.1 110.992 197.396 110.848C197.7 110.696 197.956 110.464 198.164 110.152L199.04 110.704C198.792 111.144 198.44 111.484 197.984 111.724C197.536 111.956 197.024 112.072 196.448 112.072ZM202.998 112.072C202.358 112.072 201.862 111.9 201.51 111.556C201.158 111.212 200.982 110.72 200.982 110.08V104.248H202.134V110.032C202.134 110.376 202.218 110.64 202.386 110.824C202.562 111.008 202.81 111.1 203.13 111.1C203.49 111.1 203.79 111 204.03 110.8L204.39 111.628C204.214 111.78 204.002 111.892 203.754 111.964C203.514 112.036 203.262 112.072 202.998 112.072ZM199.902 106.588V105.64H203.958V106.588H199.902ZM205.983 112V105.64H207.135V112H205.983ZM206.559 104.416C206.335 104.416 206.147 104.344 205.995 104.2C205.851 104.056 205.779 103.88 205.779 103.672C205.779 103.456 205.851 103.276 205.995 103.132C206.147 102.988 206.335 102.916 206.559 102.916C206.783 102.916 206.967 102.988 207.111 103.132C207.263 103.268 207.339 103.44 207.339 103.648C207.339 103.864 207.267 104.048 207.123 104.2C206.979 104.344 206.791 104.416 206.559 104.416ZM212.258 112.072C211.618 112.072 211.05 111.932 210.554 111.652C210.058 111.372 209.666 110.988 209.378 110.5C209.09 110.004 208.946 109.444 208.946 108.82C208.946 108.188 209.09 107.628 209.378 107.14C209.666 106.652 210.058 106.272 210.554 106C211.05 105.72 211.618 105.58 212.258 105.58C212.89 105.58 213.454 105.72 213.95 106C214.454 106.272 214.846 106.652 215.126 107.14C215.414 107.62 215.558 108.18 215.558 108.82C215.558 109.452 215.414 110.012 215.126 110.5C214.846 110.988 214.454 111.372 213.95 111.652C213.454 111.932 212.89 112.072 212.258 112.072ZM212.258 111.064C212.666 111.064 213.03 110.972 213.35 110.788C213.678 110.604 213.934 110.344 214.118 110.008C214.302 109.664 214.394 109.268 214.394 108.82C214.394 108.364 214.302 107.972 214.118 107.644C213.934 107.308 213.678 107.048 213.35 106.864C213.03 106.68 212.666 106.588 212.258 106.588C211.85 106.588 211.486 106.68 211.166 106.864C210.846 107.048 210.59 107.308 210.398 107.644C210.206 107.972 210.11 108.364 210.11 108.82C210.11 109.268 210.206 109.664 210.398 110.008C210.59 110.344 210.846 110.604 211.166 110.788C211.486 110.972 211.85 111.064 212.258 111.064ZM220.747 105.58C221.267 105.58 221.723 105.68 222.115 105.88C222.515 106.08 222.827 106.384 223.051 106.792C223.275 107.2 223.387 107.716 223.387 108.34V112H222.235V108.472C222.235 107.856 222.083 107.392 221.779 107.08C221.483 106.768 221.063 106.612 220.519 106.612C220.111 106.612 219.755 106.692 219.451 106.852C219.147 107.012 218.911 107.248 218.743 107.56C218.583 107.872 218.503 108.26 218.503 108.724V112H217.351V105.64H218.455V107.356L218.275 106.9C218.483 106.484 218.803 106.16 219.235 105.928C219.667 105.696 220.171 105.58 220.747 105.58ZM231.866 112.072C231.226 112.072 230.658 111.932 230.162 111.652C229.666 111.372 229.274 110.988 228.986 110.5C228.698 110.004 228.554 109.444 228.554 108.82C228.554 108.188 228.698 107.628 228.986 107.14C229.274 106.652 229.666 106.272 230.162 106C230.658 105.72 231.226 105.58 231.866 105.58C232.498 105.58 233.062 105.72 233.558 106C234.062 106.272 234.454 106.652 234.734 107.14C235.022 107.62 235.166 108.18 235.166 108.82C235.166 109.452 235.022 110.012 234.734 110.5C234.454 110.988 234.062 111.372 233.558 111.652C233.062 111.932 232.498 112.072 231.866 112.072ZM231.866 111.064C232.274 111.064 232.638 110.972 232.958 110.788C233.286 110.604 233.542 110.344 233.726 110.008C233.91 109.664 234.002 109.268 234.002 108.82C234.002 108.364 233.91 107.972 233.726 107.644C233.542 107.308 233.286 107.048 232.958 106.864C232.638 106.68 232.274 106.588 231.866 106.588C231.458 106.588 231.094 106.68 230.774 106.864C230.454 107.048 230.198 107.308 230.006 107.644C229.814 107.972 229.718 108.364 229.718 108.82C229.718 109.268 229.814 109.664 230.006 110.008C230.198 110.344 230.454 110.604 230.774 110.788C231.094 110.972 231.458 111.064 231.866 111.064ZM237.127 112V105.076C237.127 104.452 237.307 103.956 237.667 103.588C238.035 103.212 238.555 103.024 239.227 103.024C239.475 103.024 239.711 103.056 239.935 103.12C240.167 103.176 240.363 103.268 240.523 103.396L240.175 104.272C240.055 104.176 239.919 104.104 239.767 104.056C239.615 104 239.455 103.972 239.287 103.972C238.951 103.972 238.695 104.068 238.519 104.26C238.343 104.444 238.255 104.72 238.255 105.088V105.94L238.279 106.468V112H237.127ZM236.047 106.588V105.64H240.103V106.588H236.047ZM41.26 130V121.6H44.536C45.272 121.6 45.9 121.716 46.42 121.948C46.94 122.18 47.34 122.516 47.62 122.956C47.9 123.396 48.04 123.92 48.04 124.528C48.04 125.136 47.9 125.66 47.62 126.1C47.34 126.532 46.94 126.868 46.42 127.108C45.9 127.34 45.272 127.456 44.536 127.456H41.92L42.46 126.892V130H41.26ZM42.46 127.012L41.92 126.412H44.5C45.268 126.412 45.848 126.248 46.24 125.92C46.64 125.592 46.84 125.128 46.84 124.528C46.84 123.928 46.64 123.464 46.24 123.136C45.848 122.808 45.268 122.644 44.5 122.644H41.92L42.46 122.044V127.012ZM52.6435 130.072C51.9635 130.072 51.3635 129.932 50.8435 129.652C50.3315 129.372 49.9315 128.988 49.6435 128.5C49.3635 128.012 49.2235 127.452 49.2235 126.82C49.2235 126.188 49.3595 125.628 49.6315 125.14C49.9115 124.652 50.2915 124.272 50.7715 124C51.2595 123.72 51.8075 123.58 52.4155 123.58C53.0315 123.58 53.5755 123.716 54.0475 123.988C54.5195 124.26 54.8875 124.644 55.1515 125.14C55.4235 125.628 55.5595 126.2 55.5595 126.856C55.5595 126.904 55.5555 126.96 55.5475 127.024C55.5475 127.088 55.5435 127.148 55.5355 127.204H50.1235V126.376H54.9355L54.4675 126.664C54.4755 126.256 54.3915 125.892 54.2155 125.572C54.0395 125.252 53.7955 125.004 53.4835 124.828C53.1795 124.644 52.8235 124.552 52.4155 124.552C52.0155 124.552 51.6595 124.644 51.3475 124.828C51.0355 125.004 50.7915 125.256 50.6155 125.584C50.4395 125.904 50.3515 126.272 50.3515 126.688V126.88C50.3515 127.304 50.4475 127.684 50.6395 128.02C50.8395 128.348 51.1155 128.604 51.4675 128.788C51.8195 128.972 52.2235 129.064 52.6795 129.064C53.0555 129.064 53.3955 129 53.6995 128.872C54.0115 128.744 54.2835 128.552 54.5155 128.296L55.1515 129.04C54.8635 129.376 54.5035 129.632 54.0715 129.808C53.6475 129.984 53.1715 130.072 52.6435 130.072ZM57.3592 130V123.64H58.4632V125.368L58.3552 124.936C58.5312 124.496 58.8272 124.16 59.2432 123.928C59.6592 123.696 60.1712 123.58 60.7792 123.58V124.696C60.7312 124.688 60.6832 124.684 60.6352 124.684C60.5952 124.684 60.5552 124.684 60.5152 124.684C59.8992 124.684 59.4112 124.868 59.0512 125.236C58.6912 125.604 58.5112 126.136 58.5112 126.832V130H57.3592ZM64.2933 130.072C63.7653 130.072 63.2613 130 62.7813 129.856C62.3093 129.712 61.9373 129.536 61.6653 129.328L62.1453 128.416C62.4173 128.6 62.7533 128.756 63.1533 128.884C63.5533 129.012 63.9613 129.076 64.3773 129.076C64.9133 129.076 65.2973 129 65.5293 128.848C65.7693 128.696 65.8893 128.484 65.8893 128.212C65.8893 128.012 65.8173 127.856 65.6733 127.744C65.5293 127.632 65.3373 127.548 65.0973 127.492C64.8653 127.436 64.6053 127.388 64.3173 127.348C64.0293 127.3 63.7413 127.244 63.4533 127.18C63.1653 127.108 62.9013 127.012 62.6613 126.892C62.4213 126.764 62.2293 126.592 62.0853 126.376C61.9413 126.152 61.8693 125.856 61.8693 125.488C61.8693 125.104 61.9773 124.768 62.1933 124.48C62.4093 124.192 62.7133 123.972 63.1053 123.82C63.5053 123.66 63.9773 123.58 64.5213 123.58C64.9373 123.58 65.3573 123.632 65.7813 123.736C66.2133 123.832 66.5653 123.972 66.8373 124.156L66.3453 125.068C66.0573 124.876 65.7573 124.744 65.4453 124.672C65.1333 124.6 64.8213 124.564 64.5093 124.564C64.0053 124.564 63.6293 124.648 63.3813 124.816C63.1333 124.976 63.0093 125.184 63.0093 125.44C63.0093 125.656 63.0813 125.824 63.2253 125.944C63.3773 126.056 63.5693 126.144 63.8013 126.208C64.0413 126.272 64.3053 126.328 64.5933 126.376C64.8813 126.416 65.1693 126.472 65.4573 126.544C65.7453 126.608 66.0053 126.7 66.2373 126.82C66.4773 126.94 66.6693 127.108 66.8133 127.324C66.9653 127.54 67.0413 127.828 67.0413 128.188C67.0413 128.572 66.9293 128.904 66.7053 129.184C66.4813 129.464 66.1653 129.684 65.7573 129.844C65.3493 129.996 64.8613 130.072 64.2933 130.072ZM71.4051 130.072C70.7651 130.072 70.1971 129.932 69.7011 129.652C69.2051 129.372 68.8131 128.988 68.5251 128.5C68.2371 128.004 68.0931 127.444 68.0931 126.82C68.0931 126.188 68.2371 125.628 68.5251 125.14C68.8131 124.652 69.2051 124.272 69.7011 124C70.1971 123.72 70.7651 123.58 71.4051 123.58C72.0371 123.58 72.6011 123.72 73.0971 124C73.6011 124.272 73.9931 124.652 74.2731 125.14C74.5611 125.62 74.7051 126.18 74.7051 126.82C74.7051 127.452 74.5611 128.012 74.2731 128.5C73.9931 128.988 73.6011 129.372 73.0971 129.652C72.6011 129.932 72.0371 130.072 71.4051 130.072ZM71.4051 129.064C71.8131 129.064 72.1771 128.972 72.4971 128.788C72.8251 128.604 73.0811 128.344 73.2651 128.008C73.4491 127.664 73.5411 127.268 73.5411 126.82C73.5411 126.364 73.4491 125.972 73.2651 125.644C73.0811 125.308 72.8251 125.048 72.4971 124.864C72.1771 124.68 71.8131 124.588 71.4051 124.588C70.9971 124.588 70.6331 124.68 70.3131 124.864C69.9931 125.048 69.7371 125.308 69.5451 125.644C69.3531 125.972 69.2571 126.364 69.2571 126.82C69.2571 127.268 69.3531 127.664 69.5451 128.008C69.7371 128.344 69.9931 128.604 70.3131 128.788C70.6331 128.972 70.9971 129.064 71.4051 129.064ZM79.8943 123.58C80.4143 123.58 80.8703 123.68 81.2623 123.88C81.6623 124.08 81.9743 124.384 82.1983 124.792C82.4223 125.2 82.5343 125.716 82.5343 126.34V130H81.3823V126.472C81.3823 125.856 81.2303 125.392 80.9263 125.08C80.6303 124.768 80.2103 124.612 79.6663 124.612C79.2583 124.612 78.9023 124.692 78.5983 124.852C78.2943 125.012 78.0583 125.248 77.8903 125.56C77.7303 125.872 77.6503 126.26 77.6503 126.724V130H76.4983V123.64H77.6023V125.356L77.4223 124.9C77.6303 124.484 77.9503 124.16 78.3823 123.928C78.8143 123.696 79.3183 123.58 79.8943 123.58ZM88.8142 130V128.656L88.7542 128.404V126.112C88.7542 125.624 88.6102 125.248 88.3222 124.984C88.0422 124.712 87.6182 124.576 87.0502 124.576C86.6742 124.576 86.3062 124.64 85.9462 124.768C85.5862 124.888 85.2822 125.052 85.0342 125.26L84.5542 124.396C84.8822 124.132 85.2742 123.932 85.7302 123.796C86.1942 123.652 86.6782 123.58 87.1822 123.58C88.0542 123.58 88.7262 123.792 89.1982 124.216C89.6702 124.64 89.9062 125.288 89.9062 126.16V130H88.8142ZM86.7262 130.072C86.2542 130.072 85.8382 129.992 85.4782 129.832C85.1262 129.672 84.8542 129.452 84.6622 129.172C84.4702 128.884 84.3742 128.56 84.3742 128.2C84.3742 127.856 84.4542 127.544 84.6142 127.264C84.7822 126.984 85.0502 126.76 85.4182 126.592C85.7942 126.424 86.2982 126.34 86.9302 126.34H88.9462V127.168H86.9782C86.4022 127.168 86.0142 127.264 85.8142 127.456C85.6142 127.648 85.5142 127.88 85.5142 128.152C85.5142 128.464 85.6382 128.716 85.8862 128.908C86.1342 129.092 86.4782 129.184 86.9182 129.184C87.3502 129.184 87.7262 129.088 88.0462 128.896C88.3742 128.704 88.6102 128.424 88.7542 128.056L88.9822 128.848C88.8302 129.224 88.5622 129.524 88.1782 129.748C87.7942 129.964 87.3102 130.072 86.7262 130.072ZM92.2381 130V121.096H93.3901V130H92.2381ZM99.3803 130V121.6H102.92C103.816 121.6 104.604 121.776 105.284 122.128C105.972 122.48 106.504 122.972 106.88 123.604C107.264 124.236 107.456 124.968 107.456 125.8C107.456 126.632 107.264 127.364 106.88 127.996C106.504 128.628 105.972 129.12 105.284 129.472C104.604 129.824 103.816 130 102.92 130H99.3803ZM100.58 128.956H102.848C103.544 128.956 104.144 128.824 104.648 128.56C105.16 128.296 105.556 127.928 105.836 127.456C106.116 126.976 106.256 126.424 106.256 125.8C106.256 125.168 106.116 124.616 105.836 124.144C105.556 123.672 105.16 123.304 104.648 123.04C104.144 122.776 103.544 122.644 102.848 122.644H100.58V128.956ZM113.274 130V128.656L113.214 128.404V126.112C113.214 125.624 113.07 125.248 112.782 124.984C112.502 124.712 112.078 124.576 111.51 124.576C111.134 124.576 110.766 124.64 110.406 124.768C110.046 124.888 109.742 125.052 109.494 125.26L109.014 124.396C109.342 124.132 109.734 123.932 110.19 123.796C110.654 123.652 111.138 123.58 111.642 123.58C112.514 123.58 113.186 123.792 113.658 124.216C114.13 124.64 114.366 125.288 114.366 126.16V130H113.274ZM111.186 130.072C110.714 130.072 110.298 129.992 109.938 129.832C109.586 129.672 109.314 129.452 109.122 129.172C108.93 128.884 108.834 128.56 108.834 128.2C108.834 127.856 108.914 127.544 109.074 127.264C109.242 126.984 109.51 126.76 109.878 126.592C110.254 126.424 110.758 126.34 111.39 126.34H113.406V127.168H111.438C110.862 127.168 110.474 127.264 110.274 127.456C110.074 127.648 109.974 127.88 109.974 128.152C109.974 128.464 110.098 128.716 110.346 128.908C110.594 129.092 110.938 129.184 111.378 129.184C111.81 129.184 112.186 129.088 112.506 128.896C112.834 128.704 113.07 128.424 113.214 128.056L113.442 128.848C113.29 129.224 113.022 129.524 112.638 129.748C112.254 129.964 111.77 130.072 111.186 130.072ZM118.882 130.072C118.242 130.072 117.746 129.9 117.394 129.556C117.042 129.212 116.866 128.72 116.866 128.08V122.248H118.018V128.032C118.018 128.376 118.102 128.64 118.27 128.824C118.446 129.008 118.694 129.1 119.014 129.1C119.374 129.1 119.674 129 119.914 128.8L120.274 129.628C120.098 129.78 119.886 129.892 119.638 129.964C119.398 130.036 119.146 130.072 118.882 130.072ZM115.786 124.588V123.64H119.842V124.588H115.786ZM125.815 130V128.656L125.755 128.404V126.112C125.755 125.624 125.611 125.248 125.323 124.984C125.043 124.712 124.619 124.576 124.051 124.576C123.675 124.576 123.307 124.64 122.947 124.768C122.587 124.888 122.283 125.052 122.035 125.26L121.555 124.396C121.883 124.132 122.275 123.932 122.731 123.796C123.195 123.652 123.679 123.58 124.183 123.58C125.055 123.58 125.727 123.792 126.199 124.216C126.671 124.64 126.907 125.288 126.907 126.16V130H125.815ZM123.727 130.072C123.255 130.072 122.839 129.992 122.479 129.832C122.127 129.672 121.855 129.452 121.663 129.172C121.471 128.884 121.375 128.56 121.375 128.2C121.375 127.856 121.455 127.544 121.615 127.264C121.783 126.984 122.051 126.76 122.419 126.592C122.795 126.424 123.299 126.34 123.931 126.34H125.947V127.168H123.979C123.403 127.168 123.015 127.264 122.815 127.456C122.615 127.648 122.515 127.88 122.515 128.152C122.515 128.464 122.639 128.716 122.887 128.908C123.135 129.092 123.479 129.184 123.919 129.184C124.351 129.184 124.727 129.088 125.047 128.896C125.375 128.704 125.611 128.424 125.755 128.056L125.983 128.848C125.831 129.224 125.563 129.524 125.179 129.748C124.795 129.964 124.311 130.072 123.727 130.072Z" fill="#19191F"/>
<path d="M248 54.5C248 53.0166 247.56 51.5666 246.736 50.3332C245.912 49.0999 244.741 48.1386 243.37 47.5709C242 47.0032 240.492 46.8547 239.037 47.1441C237.582 47.4335 236.246 48.1478 235.197 49.1967C234.148 50.2456 233.434 51.582 233.144 53.0368C232.855 54.4917 233.003 55.9997 233.571 57.3701C234.139 58.7406 235.1 59.9119 236.333 60.736C237.567 61.5601 239.017 62 240.5 62C242.488 61.9978 244.395 61.2069 245.801 59.8009C247.207 58.3948 247.998 56.4884 248 54.5ZM239.97 58.0303C239.9 57.9606 239.845 57.878 239.807 57.787C239.769 57.696 239.75 57.5985 239.75 57.5C239.75 57.4015 239.769 57.304 239.807 57.213C239.845 57.122 239.9 57.0393 239.97 56.9697L241.689 55.25H237.5C237.301 55.25 237.11 55.171 236.97 55.0303C236.829 54.8897 236.75 54.6989 236.75 54.5C236.75 54.3011 236.829 54.1103 236.97 53.9697C237.11 53.829 237.301 53.75 237.5 53.75H241.689L239.97 52.0303C239.831 51.8892 239.754 51.6991 239.755 51.5014C239.756 51.3037 239.835 51.1143 239.975 50.9745C240.114 50.8347 240.304 50.7558 240.501 50.7549C240.699 50.754 240.889 50.8312 241.03 50.9698L244.03 53.9695C244.17 54.1105 244.249 54.3012 244.249 54.5C244.249 54.6988 244.17 54.8895 244.03 55.0305L241.03 58.0303C240.961 58.0999 240.878 58.1552 240.787 58.1929C240.696 58.2306 240.598 58.25 240.5 58.25C240.402 58.25 240.304 58.2306 240.213 58.1929C240.122 58.1552 240.039 58.0999 239.97 58.0303Z" fill="#5B588F"/>
<defs>
<filter id="filter0_dd_4190_12452" x="0" y="0" width="290" height="182" filterUnits="userSpaceOnUse" color-interpolation-filters="sRGB">
<feFlood flood-opacity="0" result="BackgroundImageFix"/>
<feColorMatrix in="SourceAlpha" type="matrix" values="0 0 0 0 0 0 0 0 0 0 0 0 0 0 0 0 0 0 127 0" result="hardAlpha"/>
<feMorphology radius="2" operator="dilate" in="SourceAlpha" result="effect1_dropShadow_4190_12452"/>
<feOffset dx="4" dy="4"/>
<feGaussianBlur stdDeviation="8"/>
<feComposite in2="hardAlpha" operator="out"/>
<feColorMatrix type="matrix" values="0 0 0 0 1 0 0 0 0 1 0 0 0 0 1 0 0 0 0.25 0"/>
<feBlend mode="normal" in2="BackgroundImageFix" result="effect1_dropShadow_4190_12452"/>
<feColorMatrix in="SourceAlpha" type="matrix" values="0 0 0 0 0 0 0 0 0 0 0 0 0 0 0 0 0 0 127 0" result="hardAlpha"/>
<feOffset dx="-4" dy="-4"/>
<feGaussianBlur stdDeviation="8"/>
<feComposite in2="hardAlpha" operator="out"/>
<feColorMatrix type="matrix" values="0 0 0 0 1 0 0 0 0 1 0 0 0 0 1 0 0 0 0.25 0"/>
<feBlend mode="normal" in2="effect1_dropShadow_4190_12452" result="effect2_dropShadow_4190_12452"/>
<feBlend mode="normal" in="SourceGraphic" in2="effect2_dropShadow_4190_12452" result="shape"/>
</filter>
</defs>
</svg>
