<svg width="290" height="132" viewBox="0 0 290 132" fill="none" xmlns="http://www.w3.org/2000/svg">
<g filter="url(#filter0_dd_4201_12439)">
<rect x="20" y="20" width="248" height="90" rx="10" fill="white"/>
</g>
<path d="M95.15 60.2V70H93.288L88.402 64.05V70H86.162V60.2H88.038L92.91 66.15V60.2H95.15ZM104.893 66.262C104.893 66.29 104.879 66.486 104.851 66.85H99.1526C99.2553 67.3167 99.498 67.6853 99.8806 67.956C100.263 68.2267 100.739 68.362 101.309 68.362C101.701 68.362 102.046 68.306 102.345 68.194C102.653 68.0727 102.937 67.886 103.199 67.634L104.361 68.894C103.651 69.706 102.615 70.112 101.253 70.112C100.403 70.112 99.652 69.9487 98.9986 69.622C98.3453 69.286 97.8413 68.824 97.4866 68.236C97.132 67.648 96.9546 66.9807 96.9546 66.234C96.9546 65.4967 97.1273 64.834 97.4726 64.246C97.8273 63.6487 98.308 63.1867 98.9146 62.86C99.5306 62.524 100.217 62.356 100.973 62.356C101.71 62.356 102.377 62.5147 102.975 62.832C103.572 63.1493 104.039 63.6067 104.375 64.204C104.72 64.792 104.893 65.478 104.893 66.262ZM100.987 64.008C100.492 64.008 100.077 64.148 99.7406 64.428C99.4046 64.708 99.1993 65.0907 99.1246 65.576H102.835C102.76 65.1 102.555 64.722 102.219 64.442C101.883 64.1527 101.472 64.008 100.987 64.008ZM118.506 62.468L115.776 70H113.676L111.982 65.324L110.232 70H108.132L105.416 62.468H107.474L109.252 67.564L111.1 62.468H112.948L114.74 67.564L116.574 62.468H118.506ZM131.978 68.152V70H123.41V68.53L128.786 62.048H123.522V60.2H131.768V61.67L126.406 68.152H131.978ZM140.761 66.262C140.761 66.29 140.747 66.486 140.719 66.85H135.021C135.124 67.3167 135.366 67.6853 135.749 67.956C136.132 68.2267 136.608 68.362 137.177 68.362C137.569 68.362 137.914 68.306 138.213 68.194C138.521 68.0727 138.806 67.886 139.067 67.634L140.229 68.894C139.52 69.706 138.484 70.112 137.121 70.112C136.272 70.112 135.52 69.9487 134.867 69.622C134.214 69.286 133.71 68.824 133.355 68.236C133 67.648 132.823 66.9807 132.823 66.234C132.823 65.4967 132.996 64.834 133.341 64.246C133.696 63.6487 134.176 63.1867 134.783 62.86C135.399 62.524 136.085 62.356 136.841 62.356C137.578 62.356 138.246 62.5147 138.843 62.832C139.44 63.1493 139.907 63.6067 140.243 64.204C140.588 64.792 140.761 65.478 140.761 66.262ZM136.855 64.008C136.36 64.008 135.945 64.148 135.609 64.428C135.273 64.708 135.068 65.0907 134.993 65.576H138.703C138.628 65.1 138.423 64.722 138.087 64.442C137.751 64.1527 137.34 64.008 136.855 64.008ZM145.248 62.356C146.415 62.356 147.311 62.636 147.936 63.196C148.561 63.7467 148.874 64.582 148.874 65.702V70H146.83V69.062C146.419 69.762 145.654 70.112 144.534 70.112C143.955 70.112 143.451 70.014 143.022 69.818C142.602 69.622 142.28 69.3513 142.056 69.006C141.832 68.6607 141.72 68.2687 141.72 67.83C141.72 67.13 141.981 66.5793 142.504 66.178C143.036 65.7767 143.853 65.576 144.954 65.576H146.69C146.69 65.1 146.545 64.736 146.256 64.484C145.967 64.2227 145.533 64.092 144.954 64.092C144.553 64.092 144.156 64.1573 143.764 64.288C143.381 64.4093 143.055 64.5773 142.784 64.792L142 63.266C142.411 62.9767 142.901 62.7527 143.47 62.594C144.049 62.4353 144.641 62.356 145.248 62.356ZM145.08 68.642C145.453 68.642 145.785 68.558 146.074 68.39C146.363 68.2127 146.569 67.956 146.69 67.62V66.85H145.192C144.296 66.85 143.848 67.144 143.848 67.732C143.848 68.012 143.955 68.236 144.17 68.404C144.394 68.5627 144.697 68.642 145.08 68.642ZM151.051 59.612H153.235V70H151.051V59.612ZM158.5 62.356C159.666 62.356 160.562 62.636 161.188 63.196C161.813 63.7467 162.126 64.582 162.126 65.702V70H160.082V69.062C159.671 69.762 158.906 70.112 157.786 70.112C157.207 70.112 156.703 70.014 156.274 69.818C155.854 69.622 155.532 69.3513 155.308 69.006C155.084 68.6607 154.972 68.2687 154.972 67.83C154.972 67.13 155.233 66.5793 155.756 66.178C156.288 65.7767 157.104 65.576 158.206 65.576H159.942C159.942 65.1 159.797 64.736 159.508 64.484C159.218 64.2227 158.784 64.092 158.206 64.092C157.804 64.092 157.408 64.1573 157.016 64.288C156.633 64.4093 156.306 64.5773 156.036 64.792L155.252 63.266C155.662 62.9767 156.152 62.7527 156.722 62.594C157.3 62.4353 157.893 62.356 158.5 62.356ZM158.332 68.642C158.705 68.642 159.036 68.558 159.326 68.39C159.615 68.2127 159.82 67.956 159.942 67.62V66.85H158.444C157.548 66.85 157.1 67.144 157.1 67.732C157.1 68.012 157.207 68.236 157.422 68.404C157.646 68.5627 157.949 68.642 158.332 68.642ZM168.88 62.356C169.813 62.356 170.565 62.636 171.134 63.196C171.713 63.756 172.002 64.5867 172.002 65.688V70H169.818V66.024C169.818 65.4267 169.687 64.9833 169.426 64.694C169.165 64.3953 168.787 64.246 168.292 64.246C167.741 64.246 167.303 64.4187 166.976 64.764C166.649 65.1 166.486 65.604 166.486 66.276V70H164.302V62.468H166.388V63.35C166.677 63.0327 167.037 62.79 167.466 62.622C167.895 62.4447 168.367 62.356 168.88 62.356ZM181.936 59.612V70H179.85V69.132C179.309 69.7853 178.525 70.112 177.498 70.112C176.789 70.112 176.145 69.9533 175.566 69.636C174.997 69.3187 174.549 68.866 174.222 68.278C173.895 67.69 173.732 67.0087 173.732 66.234C173.732 65.4593 173.895 64.778 174.222 64.19C174.549 63.602 174.997 63.1493 175.566 62.832C176.145 62.5147 176.789 62.356 177.498 62.356C178.459 62.356 179.211 62.6593 179.752 63.266V59.612H181.936ZM177.876 68.32C178.427 68.32 178.884 68.1333 179.248 67.76C179.612 67.3773 179.794 66.8687 179.794 66.234C179.794 65.5993 179.612 65.0953 179.248 64.722C178.884 64.3393 178.427 64.148 177.876 64.148C177.316 64.148 176.854 64.3393 176.49 64.722C176.126 65.0953 175.944 65.5993 175.944 66.234C175.944 66.8687 176.126 67.3773 176.49 67.76C176.854 68.1333 177.316 68.32 177.876 68.32Z" fill="#19191F"/>
<path d="M70 65C70 73.2842 63.2842 80 55 80C46.7158 80 40 73.2842 40 65C40 65.0036 55 50.0016 55 50C63.2842 50 70 56.7158 70 65Z" fill="#0052B4"/>
<path d="M54.96 64.9991H55.0001C55.0001 64.9856 55.0001 64.9725 55.0001 64.959C54.9867 64.9724 54.9734 64.9858 54.96 64.9991Z" fill="#F0F0F0"/>
<path d="M55 57.8261C55 55.1867 55 53.4573 55 50H54.9975C46.7144 50.0014 40 56.7165 40 65H47.8261V60.5931L52.233 65H54.9599C54.9733 64.9866 54.9867 64.9733 55.0001 64.9599C55.0001 63.9493 55.0001 63.0476 55.0001 62.2331L50.593 57.8261H55Z" fill="#F0F0F0"/>
<path d="M47.5888 51.957C45.2428 53.2929 43.2924 55.2433 41.9565 57.5893V65.0005H45.8696V55.8702V55.8701H55C55 54.6359 55 53.4602 55 51.957H47.5888Z" fill="#D80027"/>
<path d="M55 63.1554L49.6708 57.8262C49.6708 57.8262 47.8262 57.8263 47.8262 57.8262V57.8263L55 65H55C55 65 55 63.7281 55 63.1554Z" fill="#D80027"/>
<path d="M65.9763 61.1309L66.3 62.1273H67.3477L66.5001 62.7431L66.8239 63.7395L65.9763 63.1237L65.1286 63.7395L65.4524 62.7431L64.6047 62.1273H65.6525L65.9763 61.1309Z" fill="#D80027"/>
<path d="M62.2311 68.3047L62.7167 69.7994H64.2883L63.0168 70.7231L63.5025 72.2178L62.2311 71.294L60.9596 72.2178L61.4453 70.7231L60.1738 69.7994H61.7454L62.2311 68.3047Z" fill="#D80027"/>
<path d="M62.3725 56.5664L62.7772 57.8121H64.0869L63.0273 58.5817L63.432 59.8273L62.3725 59.0574L61.313 59.8273L61.7177 58.5817L60.6582 57.8121H61.9678L62.3725 56.5664Z" fill="#D80027"/>
<path d="M58.7689 61.0879L59.2545 62.5826H60.8261L59.5546 63.5063L60.0404 65.001L58.7689 64.0772L57.4974 65.001L57.9832 63.5063L56.7117 62.5826H58.2832L58.7689 61.0879Z" fill="#D80027"/>
<path d="M248 64.5C248 63.0166 247.56 61.5666 246.736 60.3332C245.912 59.0999 244.741 58.1386 243.37 57.5709C242 57.0032 240.492 56.8547 239.037 57.1441C237.582 57.4335 236.246 58.1478 235.197 59.1967C234.148 60.2456 233.434 61.582 233.144 63.0368C232.855 64.4917 233.003 65.9997 233.571 67.3701C234.139 68.7406 235.1 69.9119 236.333 70.736C237.567 71.5601 239.017 72 240.5 72C242.488 71.9978 244.395 71.2069 245.801 69.8009C247.207 68.3948 247.998 66.4884 248 64.5ZM239.97 68.0303C239.9 67.9606 239.845 67.878 239.807 67.787C239.769 67.696 239.75 67.5985 239.75 67.5C239.75 67.4015 239.769 67.304 239.807 67.213C239.845 67.122 239.9 67.0393 239.97 66.9697L241.689 65.25H237.5C237.301 65.25 237.11 65.171 236.97 65.0303C236.829 64.8897 236.75 64.6989 236.75 64.5C236.75 64.3011 236.829 64.1103 236.97 63.9697C237.11 63.829 237.301 63.75 237.5 63.75H241.689L239.97 62.0303C239.831 61.8892 239.754 61.6991 239.755 61.5014C239.756 61.3037 239.835 61.1143 239.975 60.9745C240.114 60.8347 240.304 60.7558 240.501 60.7549C240.699 60.754 240.889 60.8312 241.03 60.9698L244.03 63.9695C244.17 64.1105 244.249 64.3012 244.249 64.5C244.249 64.6988 244.17 64.8895 244.03 65.0305L241.03 68.0303C240.961 68.0999 240.878 68.1552 240.787 68.1929C240.696 68.2306 240.598 68.25 240.5 68.25C240.402 68.25 240.304 68.2306 240.213 68.1929C240.122 68.1552 240.039 68.0999 239.97 68.0303Z" fill="#5B588F"/>
<defs>
<filter id="filter0_dd_4201_12439" x="0" y="0" width="290" height="132" filterUnits="userSpaceOnUse" color-interpolation-filters="sRGB">
<feFlood flood-opacity="0" result="BackgroundImageFix"/>
<feColorMatrix in="SourceAlpha" type="matrix" values="0 0 0 0 0 0 0 0 0 0 0 0 0 0 0 0 0 0 127 0" result="hardAlpha"/>
<feMorphology radius="2" operator="dilate" in="SourceAlpha" result="effect1_dropShadow_4201_12439"/>
<feOffset dx="4" dy="4"/>
<feGaussianBlur stdDeviation="8"/>
<feComposite in2="hardAlpha" operator="out"/>
<feColorMatrix type="matrix" values="0 0 0 0 1 0 0 0 0 1 0 0 0 0 1 0 0 0 0.25 0"/>
<feBlend mode="normal" in2="BackgroundImageFix" result="effect1_dropShadow_4201_12439"/>
<feColorMatrix in="SourceAlpha" type="matrix" values="0 0 0 0 0 0 0 0 0 0 0 0 0 0 0 0 0 0 127 0" result="hardAlpha"/>
<feOffset dx="-4" dy="-4"/>
<feGaussianBlur stdDeviation="8"/>
<feComposite in2="hardAlpha" operator="out"/>
<feColorMatrix type="matrix" values="0 0 0 0 1 0 0 0 0 1 0 0 0 0 1 0 0 0 0.25 0"/>
<feBlend mode="normal" in2="effect1_dropShadow_4201_12439" result="effect2_dropShadow_4201_12439"/>
<feBlend mode="normal" in="SourceGraphic" in2="effect2_dropShadow_4201_12439" result="shape"/>
</filter>
</defs>
</svg>
