<svg width="290" height="182" viewBox="0 0 290 182" fill="none" xmlns="http://www.w3.org/2000/svg">
<g filter="url(#filter0_dd_4189_12442)">
<rect x="20" y="20" width="248" height="140" rx="10" fill="white"/>
</g>
<path d="M41.162 94V84.2H43.038L48.82 91.256H47.91V84.2H50.15V94H48.288L42.492 86.944H43.402V94H41.162ZM52.0386 94V92.53L58.1006 85.222L58.3806 86.048H52.1506V84.2H60.3966V85.67L54.3486 92.978L54.0686 92.152H60.6066V94H52.0386ZM62.2612 94V84.2H66.5032C67.3806 84.2 68.1366 84.3447 68.7712 84.634C69.4059 84.914 69.8959 85.32 70.2412 85.852C70.5866 86.384 70.7592 87.0187 70.7592 87.756C70.7592 88.484 70.5866 89.114 70.2412 89.646C69.8959 90.178 69.4059 90.5887 68.7712 90.878C68.1366 91.158 67.3806 91.298 66.5032 91.298H63.5212L64.5292 90.276V94H62.2612ZM64.5292 90.528L63.5212 89.45H66.3772C67.0772 89.45 67.5999 89.3007 67.9452 89.002C68.2906 88.7033 68.4632 88.288 68.4632 87.756C68.4632 87.2147 68.2906 86.7947 67.9452 86.496C67.5999 86.1973 67.0772 86.048 66.3772 86.048H63.5212L64.5292 84.97V90.528ZM70.7982 94L75.1662 84.2H77.4062L81.7882 94H79.4082L75.8242 85.348H76.7202L73.1222 94H70.7982ZM72.9822 91.9L73.5842 90.178H78.6242L79.2402 91.9H72.9822ZM41.26 112V103.6H42.244L47.8 110.5H47.284V103.6H48.484V112H47.5L41.944 105.1H42.46V112H41.26ZM53.8623 112.072C53.1823 112.072 52.5823 111.932 52.0623 111.652C51.5503 111.372 51.1503 110.988 50.8623 110.5C50.5823 110.012 50.4423 109.452 50.4423 108.82C50.4423 108.188 50.5783 107.628 50.8503 107.14C51.1303 106.652 51.5103 106.272 51.9903 106C52.4783 105.72 53.0263 105.58 53.6343 105.58C54.2503 105.58 54.7943 105.716 55.2663 105.988C55.7383 106.26 56.1063 106.644 56.3703 107.14C56.6423 107.628 56.7783 108.2 56.7783 108.856C56.7783 108.904 56.7743 108.96 56.7663 109.024C56.7663 109.088 56.7623 109.148 56.7543 109.204H51.3423V108.376H56.1543L55.6863 108.664C55.6943 108.256 55.6103 107.892 55.4343 107.572C55.2583 107.252 55.0143 107.004 54.7023 106.828C54.3983 106.644 54.0423 106.552 53.6343 106.552C53.2343 106.552 52.8783 106.644 52.5663 106.828C52.2543 107.004 52.0103 107.256 51.8343 107.584C51.6583 107.904 51.5703 108.272 51.5703 108.688V108.88C51.5703 109.304 51.6663 109.684 51.8583 110.02C52.0583 110.348 52.3343 110.604 52.6863 110.788C53.0383 110.972 53.4423 111.064 53.8983 111.064C54.2743 111.064 54.6143 111 54.9183 110.872C55.2303 110.744 55.5023 110.552 55.7343 110.296L56.3703 111.04C56.0823 111.376 55.7223 111.632 55.2903 111.808C54.8663 111.984 54.3903 112.072 53.8623 112.072ZM59.8047 112L57.4407 105.64H58.5327L60.6327 111.4H60.1167L62.3007 105.64H63.2727L65.4087 111.4H64.9047L67.0528 105.64H68.0848L65.7088 112H64.6048L62.6007 106.744H62.9367L60.9087 112H59.8047ZM72.3004 112V111.184L77.9524 104.176L78.0844 104.644H72.3844V103.6H79.1644V104.416L73.5364 111.424L73.3924 110.956H79.3204V112H72.3004ZM83.6545 112.072C82.9745 112.072 82.3745 111.932 81.8545 111.652C81.3425 111.372 80.9425 110.988 80.6545 110.5C80.3745 110.012 80.2345 109.452 80.2345 108.82C80.2345 108.188 80.3705 107.628 80.6425 107.14C80.9225 106.652 81.3025 106.272 81.7825 106C82.2705 105.72 82.8185 105.58 83.4265 105.58C84.0425 105.58 84.5865 105.716 85.0585 105.988C85.5305 106.26 85.8985 106.644 86.1625 107.14C86.4345 107.628 86.5705 108.2 86.5705 108.856C86.5705 108.904 86.5665 108.96 86.5585 109.024C86.5585 109.088 86.5545 109.148 86.5465 109.204H81.1345V108.376H85.9465L85.4785 108.664C85.4865 108.256 85.4025 107.892 85.2265 107.572C85.0505 107.252 84.8065 107.004 84.4945 106.828C84.1905 106.644 83.8345 106.552 83.4265 106.552C83.0265 106.552 82.6705 106.644 82.3585 106.828C82.0465 107.004 81.8025 107.256 81.6265 107.584C81.4505 107.904 81.3625 108.272 81.3625 108.688V108.88C81.3625 109.304 81.4585 109.684 81.6505 110.02C81.8505 110.348 82.1265 110.604 82.4785 110.788C82.8305 110.972 83.2345 111.064 83.6905 111.064C84.0665 111.064 84.4065 111 84.7105 110.872C85.0225 110.744 85.2945 110.552 85.5265 110.296L86.1625 111.04C85.8745 111.376 85.5145 111.632 85.0825 111.808C84.6585 111.984 84.1825 112.072 83.6545 112.072ZM92.1423 112V110.656L92.0823 110.404V108.112C92.0823 107.624 91.9383 107.248 91.6503 106.984C91.3703 106.712 90.9463 106.576 90.3783 106.576C90.0023 106.576 89.6343 106.64 89.2743 106.768C88.9143 106.888 88.6103 107.052 88.3623 107.26L87.8823 106.396C88.2103 106.132 88.6023 105.932 89.0583 105.796C89.5223 105.652 90.0063 105.58 90.5103 105.58C91.3823 105.58 92.0543 105.792 92.5263 106.216C92.9983 106.64 93.2343 107.288 93.2343 108.16V112H92.1423ZM90.0543 112.072C89.5823 112.072 89.1663 111.992 88.8063 111.832C88.4543 111.672 88.1823 111.452 87.9903 111.172C87.7983 110.884 87.7023 110.56 87.7023 110.2C87.7023 109.856 87.7823 109.544 87.9423 109.264C88.1103 108.984 88.3783 108.76 88.7463 108.592C89.1223 108.424 89.6263 108.34 90.2583 108.34H92.2743V109.168H90.3063C89.7303 109.168 89.3423 109.264 89.1423 109.456C88.9423 109.648 88.8423 109.88 88.8423 110.152C88.8423 110.464 88.9663 110.716 89.2143 110.908C89.4623 111.092 89.8063 111.184 90.2463 111.184C90.6783 111.184 91.0543 111.088 91.3743 110.896C91.7023 110.704 91.9383 110.424 92.0823 110.056L92.3103 110.848C92.1583 111.224 91.8903 111.524 91.5063 111.748C91.1223 111.964 90.6383 112.072 90.0543 112.072ZM95.5662 112V103.096H96.7182V112H95.5662ZM103.066 112V110.656L103.006 110.404V108.112C103.006 107.624 102.862 107.248 102.574 106.984C102.294 106.712 101.87 106.576 101.302 106.576C100.926 106.576 100.558 106.64 100.198 106.768C99.8378 106.888 99.5338 107.052 99.2858 107.26L98.8058 106.396C99.1338 106.132 99.5258 105.932 99.9818 105.796C100.446 105.652 100.93 105.58 101.434 105.58C102.306 105.58 102.978 105.792 103.45 106.216C103.922 106.64 104.158 107.288 104.158 108.16V112H103.066ZM100.978 112.072C100.506 112.072 100.09 111.992 99.7298 111.832C99.3778 111.672 99.1058 111.452 98.9138 111.172C98.7218 110.884 98.6258 110.56 98.6258 110.2C98.6258 109.856 98.7058 109.544 98.8658 109.264C99.0338 108.984 99.3018 108.76 99.6698 108.592C100.046 108.424 100.55 108.34 101.182 108.34H103.198V109.168H101.23C100.654 109.168 100.266 109.264 100.066 109.456C99.8658 109.648 99.7658 109.88 99.7658 110.152C99.7658 110.464 99.8898 110.716 100.138 110.908C100.386 111.092 100.73 111.184 101.17 111.184C101.602 111.184 101.978 111.088 102.298 110.896C102.626 110.704 102.862 110.424 103.006 110.056L103.234 110.848C103.082 111.224 102.814 111.524 102.43 111.748C102.046 111.964 101.562 112.072 100.978 112.072ZM109.886 105.58C110.406 105.58 110.862 105.68 111.254 105.88C111.654 106.08 111.966 106.384 112.19 106.792C112.414 107.2 112.526 107.716 112.526 108.34V112H111.374V108.472C111.374 107.856 111.222 107.392 110.918 107.08C110.622 106.768 110.202 106.612 109.658 106.612C109.25 106.612 108.894 106.692 108.59 106.852C108.286 107.012 108.05 107.248 107.882 107.56C107.722 107.872 107.642 108.26 107.642 108.724V112H106.49V105.64H107.594V107.356L107.414 106.9C107.622 106.484 107.942 106.16 108.374 105.928C108.806 105.696 109.31 105.58 109.886 105.58ZM117.486 112.072C116.87 112.072 116.318 111.936 115.83 111.664C115.35 111.392 114.97 111.012 114.69 110.524C114.41 110.036 114.27 109.468 114.27 108.82C114.27 108.172 114.41 107.608 114.69 107.128C114.97 106.64 115.35 106.26 115.83 105.988C116.318 105.716 116.87 105.58 117.486 105.58C118.022 105.58 118.506 105.7 118.938 105.94C119.37 106.18 119.714 106.54 119.97 107.02C120.234 107.5 120.366 108.1 120.366 108.82C120.366 109.54 120.238 110.14 119.982 110.62C119.734 111.1 119.394 111.464 118.962 111.712C118.53 111.952 118.038 112.072 117.486 112.072ZM117.582 111.064C117.982 111.064 118.342 110.972 118.662 110.788C118.99 110.604 119.246 110.344 119.43 110.008C119.622 109.664 119.718 109.268 119.718 108.82C119.718 108.364 119.622 107.972 119.43 107.644C119.246 107.308 118.99 107.048 118.662 106.864C118.342 106.68 117.982 106.588 117.582 106.588C117.174 106.588 116.81 106.68 116.49 106.864C116.17 107.048 115.914 107.308 115.722 107.644C115.53 107.972 115.434 108.364 115.434 108.82C115.434 109.268 115.53 109.664 115.722 110.008C115.914 110.344 116.17 110.604 116.49 110.788C116.81 110.972 117.174 111.064 117.582 111.064ZM119.754 112V110.284L119.826 108.808L119.706 107.332V103.096H120.858V112H119.754ZM126.828 112V103.6H130.104C130.84 103.6 131.468 103.716 131.988 103.948C132.508 104.18 132.908 104.516 133.188 104.956C133.468 105.396 133.608 105.92 133.608 106.528C133.608 107.136 133.468 107.66 133.188 108.1C132.908 108.532 132.508 108.868 131.988 109.108C131.468 109.34 130.84 109.456 130.104 109.456H127.488L128.028 108.892V112H126.828ZM128.028 109.012L127.488 108.412H130.068C130.836 108.412 131.416 108.248 131.808 107.92C132.208 107.592 132.408 107.128 132.408 106.528C132.408 105.928 132.208 105.464 131.808 105.136C131.416 104.808 130.836 104.644 130.068 104.644H127.488L128.028 104.044V109.012ZM135.286 112V105.64H136.39V107.368L136.282 106.936C136.458 106.496 136.754 106.16 137.17 105.928C137.586 105.696 138.098 105.58 138.706 105.58V106.696C138.658 106.688 138.61 106.684 138.562 106.684C138.522 106.684 138.482 106.684 138.442 106.684C137.826 106.684 137.338 106.868 136.978 107.236C136.618 107.604 136.438 108.136 136.438 108.832V112H135.286ZM140.326 112V105.64H141.478V112H140.326ZM140.902 104.416C140.678 104.416 140.49 104.344 140.338 104.2C140.194 104.056 140.122 103.88 140.122 103.672C140.122 103.456 140.194 103.276 140.338 103.132C140.49 102.988 140.678 102.916 140.902 102.916C141.126 102.916 141.31 102.988 141.454 103.132C141.606 103.268 141.682 103.44 141.682 103.648C141.682 103.864 141.61 104.048 141.466 104.2C141.322 104.344 141.134 104.416 140.902 104.416ZM145.545 112L142.761 105.64H143.961L146.433 111.4H145.857L148.377 105.64H149.505L146.721 112H145.545ZM154.529 112V110.656L154.469 110.404V108.112C154.469 107.624 154.325 107.248 154.037 106.984C153.757 106.712 153.333 106.576 152.765 106.576C152.389 106.576 152.021 106.64 151.661 106.768C151.301 106.888 150.997 107.052 150.749 107.26L150.269 106.396C150.597 106.132 150.989 105.932 151.445 105.796C151.909 105.652 152.393 105.58 152.897 105.58C153.769 105.58 154.441 105.792 154.913 106.216C155.385 106.64 155.621 107.288 155.621 108.16V112H154.529ZM152.441 112.072C151.969 112.072 151.553 111.992 151.193 111.832C150.841 111.672 150.569 111.452 150.377 111.172C150.185 110.884 150.089 110.56 150.089 110.2C150.089 109.856 150.169 109.544 150.329 109.264C150.497 108.984 150.765 108.76 151.133 108.592C151.509 108.424 152.013 108.34 152.645 108.34H154.661V109.168H152.693C152.117 109.168 151.729 109.264 151.529 109.456C151.329 109.648 151.229 109.88 151.229 110.152C151.229 110.464 151.353 110.716 151.601 110.908C151.849 111.092 152.193 111.184 152.633 111.184C153.065 111.184 153.441 111.088 153.761 110.896C154.089 110.704 154.325 110.424 154.469 110.056L154.697 110.848C154.545 111.224 154.277 111.524 153.893 111.748C153.509 111.964 153.025 112.072 152.441 112.072ZM160.725 112.072C160.077 112.072 159.497 111.932 158.985 111.652C158.481 111.372 158.085 110.988 157.797 110.5C157.509 110.012 157.365 109.452 157.365 108.82C157.365 108.188 157.509 107.628 157.797 107.14C158.085 106.652 158.481 106.272 158.985 106C159.497 105.72 160.077 105.58 160.725 105.58C161.301 105.58 161.813 105.696 162.261 105.928C162.717 106.152 163.069 106.488 163.317 106.936L162.441 107.5C162.233 107.188 161.977 106.96 161.673 106.816C161.377 106.664 161.057 106.588 160.713 106.588C160.297 106.588 159.925 106.68 159.597 106.864C159.269 107.048 159.009 107.308 158.817 107.644C158.625 107.972 158.529 108.364 158.529 108.82C158.529 109.276 158.625 109.672 158.817 110.008C159.009 110.344 159.269 110.604 159.597 110.788C159.925 110.972 160.297 111.064 160.713 111.064C161.057 111.064 161.377 110.992 161.673 110.848C161.977 110.696 162.233 110.464 162.441 110.152L163.317 110.704C163.069 111.144 162.717 111.484 162.261 111.724C161.813 111.956 161.301 112.072 160.725 112.072ZM165.202 114.4C164.898 114.4 164.602 114.348 164.314 114.244C164.026 114.148 163.778 114.004 163.57 113.812L164.062 112.948C164.222 113.1 164.398 113.216 164.59 113.296C164.782 113.376 164.986 113.416 165.202 113.416C165.482 113.416 165.714 113.344 165.898 113.2C166.082 113.056 166.254 112.8 166.414 112.432L166.81 111.556L166.93 111.412L169.426 105.64H170.554L167.47 112.636C167.286 113.084 167.078 113.436 166.846 113.692C166.622 113.948 166.374 114.128 166.102 114.232C165.83 114.344 165.53 114.4 165.202 114.4ZM166.714 112.204L163.81 105.64H165.01L167.482 111.304L166.714 112.204ZM174.148 112L177.952 103.6H179.14L182.956 112H181.696L178.3 104.272H178.78L175.384 112H174.148ZM175.768 109.9L176.092 108.94H180.82L181.168 109.9H175.768ZM186.955 112.072C186.307 112.072 185.727 111.932 185.215 111.652C184.711 111.372 184.315 110.988 184.027 110.5C183.739 110.012 183.595 109.452 183.595 108.82C183.595 108.188 183.739 107.628 184.027 107.14C184.315 106.652 184.711 106.272 185.215 106C185.727 105.72 186.307 105.58 186.955 105.58C187.531 105.58 188.043 105.696 188.491 105.928C188.947 106.152 189.299 106.488 189.547 106.936L188.671 107.5C188.463 107.188 188.207 106.96 187.903 106.816C187.607 106.664 187.287 106.588 186.943 106.588C186.527 106.588 186.155 106.68 185.827 106.864C185.499 107.048 185.239 107.308 185.047 107.644C184.855 107.972 184.759 108.364 184.759 108.82C184.759 109.276 184.855 109.672 185.047 110.008C185.239 110.344 185.499 110.604 185.827 110.788C186.155 110.972 186.527 111.064 186.943 111.064C187.287 111.064 187.607 110.992 187.903 110.848C188.207 110.696 188.463 110.464 188.671 110.152L189.547 110.704C189.299 111.144 188.947 111.484 188.491 111.724C188.043 111.956 187.531 112.072 186.955 112.072ZM193.504 112.072C192.864 112.072 192.368 111.9 192.016 111.556C191.664 111.212 191.488 110.72 191.488 110.08V104.248H192.64V110.032C192.64 110.376 192.724 110.64 192.892 110.824C193.068 111.008 193.316 111.1 193.636 111.1C193.996 111.1 194.296 111 194.536 110.8L194.896 111.628C194.72 111.78 194.508 111.892 194.26 111.964C194.02 112.036 193.768 112.072 193.504 112.072ZM190.408 106.588V105.64H194.464V106.588H190.408ZM199.264 112V111.184L202.684 107.884C202.988 107.596 203.212 107.344 203.356 107.128C203.508 106.904 203.608 106.7 203.656 106.516C203.712 106.324 203.74 106.14 203.74 105.964C203.74 105.532 203.588 105.192 203.284 104.944C202.98 104.696 202.536 104.572 201.952 104.572C201.504 104.572 201.1 104.648 200.74 104.8C200.38 104.944 200.068 105.172 199.804 105.484L198.988 104.776C199.308 104.368 199.736 104.056 200.272 103.84C200.816 103.616 201.412 103.504 202.06 103.504C202.644 103.504 203.152 103.6 203.584 103.792C204.016 103.976 204.348 104.244 204.58 104.596C204.82 104.948 204.94 105.364 204.94 105.844C204.94 106.116 204.904 106.384 204.832 106.648C204.76 106.912 204.624 107.192 204.424 107.488C204.224 107.784 203.936 108.116 203.56 108.484L200.512 111.424L200.224 110.956H205.3V112H199.264ZM209.906 112.096C209.25 112.096 208.662 111.928 208.142 111.592C207.63 111.256 207.222 110.768 206.918 110.128C206.622 109.488 206.474 108.712 206.474 107.8C206.474 106.888 206.622 106.112 206.918 105.472C207.222 104.832 207.63 104.344 208.142 104.008C208.662 103.672 209.25 103.504 209.906 103.504C210.554 103.504 211.138 103.672 211.658 104.008C212.178 104.344 212.586 104.832 212.882 105.472C213.178 106.112 213.326 106.888 213.326 107.8C213.326 108.712 213.178 109.488 212.882 110.128C212.586 110.768 212.178 111.256 211.658 111.592C211.138 111.928 210.554 112.096 209.906 112.096ZM209.906 111.028C210.346 111.028 210.73 110.908 211.058 110.668C211.394 110.428 211.654 110.068 211.838 109.588C212.03 109.108 212.126 108.512 212.126 107.8C212.126 107.088 212.03 106.492 211.838 106.012C211.654 105.532 211.394 105.172 211.058 104.932C210.73 104.692 210.346 104.572 209.906 104.572C209.466 104.572 209.078 104.692 208.742 104.932C208.406 105.172 208.142 105.532 207.95 106.012C207.766 106.492 207.674 107.088 207.674 107.8C207.674 108.512 207.766 109.108 207.95 109.588C208.142 110.068 208.406 110.428 208.742 110.668C209.078 110.908 209.466 111.028 209.906 111.028ZM214.546 112V111.184L217.966 107.884C218.27 107.596 218.494 107.344 218.638 107.128C218.79 106.904 218.89 106.7 218.938 106.516C218.994 106.324 219.022 106.14 219.022 105.964C219.022 105.532 218.87 105.192 218.566 104.944C218.262 104.696 217.818 104.572 217.234 104.572C216.786 104.572 216.382 104.648 216.022 104.8C215.662 104.944 215.35 105.172 215.086 105.484L214.27 104.776C214.59 104.368 215.018 104.056 215.554 103.84C216.098 103.616 216.694 103.504 217.342 103.504C217.926 103.504 218.434 103.6 218.866 103.792C219.298 103.976 219.63 104.244 219.862 104.596C220.102 104.948 220.222 105.364 220.222 105.844C220.222 106.116 220.186 106.384 220.114 106.648C220.042 106.912 219.906 107.192 219.706 107.488C219.506 107.784 219.218 108.116 218.842 108.484L215.794 111.424L215.506 110.956H220.582V112H214.546ZM225.189 112.096C224.533 112.096 223.945 111.928 223.425 111.592C222.913 111.256 222.505 110.768 222.201 110.128C221.905 109.488 221.757 108.712 221.757 107.8C221.757 106.888 221.905 106.112 222.201 105.472C222.505 104.832 222.913 104.344 223.425 104.008C223.945 103.672 224.533 103.504 225.189 103.504C225.837 103.504 226.421 103.672 226.941 104.008C227.461 104.344 227.869 104.832 228.165 105.472C228.461 106.112 228.609 106.888 228.609 107.8C228.609 108.712 228.461 109.488 228.165 110.128C227.869 110.768 227.461 111.256 226.941 111.592C226.421 111.928 225.837 112.096 225.189 112.096ZM225.189 111.028C225.629 111.028 226.013 110.908 226.341 110.668C226.677 110.428 226.937 110.068 227.121 109.588C227.313 109.108 227.409 108.512 227.409 107.8C227.409 107.088 227.313 106.492 227.121 106.012C226.937 105.532 226.677 105.172 226.341 104.932C226.013 104.692 225.629 104.572 225.189 104.572C224.749 104.572 224.361 104.692 224.025 104.932C223.689 105.172 223.425 105.532 223.233 106.012C223.049 106.492 222.957 107.088 222.957 107.8C222.957 108.512 223.049 109.108 223.233 109.588C223.425 110.068 223.689 110.428 224.025 110.668C224.361 110.908 224.749 111.028 225.189 111.028ZM42.568 132.328C42.112 131.6 41.76 130.76 41.512 129.808C41.264 128.848 41.14 127.816 41.14 126.712C41.14 125.608 41.264 124.576 41.512 123.616C41.76 122.648 42.112 121.808 42.568 121.096H43.66C43.18 121.944 42.828 122.832 42.604 123.76C42.38 124.68 42.268 125.664 42.268 126.712C42.268 127.76 42.38 128.748 42.604 129.676C42.828 130.596 43.18 131.48 43.66 132.328H42.568ZM45.503 130V121.6H46.487L52.043 128.5H51.527V121.6H52.727V130H51.743L46.187 123.1H46.703V130H45.503ZM54.6972 130V129.184L60.3492 122.176L60.4813 122.644H54.7812V121.6H61.5612V122.416L55.9332 129.424L55.7892 128.956H61.7172V130H54.6972ZM63.528 130V121.6H66.804C67.54 121.6 68.168 121.716 68.688 121.948C69.208 122.18 69.608 122.516 69.888 122.956C70.168 123.396 70.308 123.92 70.308 124.528C70.308 125.136 70.168 125.66 69.888 126.1C69.608 126.532 69.208 126.868 68.688 127.108C68.168 127.34 67.54 127.456 66.804 127.456H64.188L64.728 126.892V130H63.528ZM64.728 127.012L64.188 126.412H66.768C67.536 126.412 68.116 126.248 68.508 125.92C68.908 125.592 69.108 125.128 69.108 124.528C69.108 123.928 68.908 123.464 68.508 123.136C68.116 122.808 67.536 122.644 66.768 122.644H64.188L64.728 122.044V127.012ZM70.5771 130L74.3811 121.6H75.5691L79.3851 130H78.1251L74.7291 122.272H75.2091L71.8131 130H70.5771ZM72.1971 127.9L72.5211 126.94H77.2491L77.5971 127.9H72.1971ZM81.0541 132.328H79.9621C80.4501 131.48 80.8061 130.596 81.0301 129.676C81.2541 128.748 81.3661 127.76 81.3661 126.712C81.3661 125.664 81.2541 124.68 81.0301 123.76C80.8061 122.832 80.4501 121.944 79.9621 121.096H81.0541C81.5261 121.808 81.8821 122.648 82.1221 123.616C82.3701 124.576 82.4941 125.608 82.4941 126.712C82.4941 127.816 82.3701 128.848 82.1221 129.808C81.8821 130.76 81.5261 131.6 81.0541 132.328Z" fill="#19191F"/>
<path d="M70 55C70 63.2842 63.2842 70 55 70C46.7158 70 40 63.2842 40 55C40 55.0036 55 40.0016 55 40C63.2842 40 70 46.7158 70 55Z" fill="#0052B4"/>
<path d="M54.9598 54.9991H55C55 54.9856 55 54.9725 55 54.959C54.9866 54.9724 54.9733 54.9858 54.9598 54.9991Z" fill="#F0F0F0"/>
<path d="M55 47.8261C55 45.1867 55 43.4573 55 40H54.9975C46.7144 40.0014 40 46.7165 40 55H47.8261V50.5931L52.233 55H54.9599C54.9733 54.9866 54.9867 54.9733 55.0001 54.9599C55.0001 53.9493 55.0001 53.0476 55.0001 52.2331L50.593 47.8261H55Z" fill="#F0F0F0"/>
<path d="M47.5888 41.957C45.2428 43.2929 43.2924 45.2433 41.9565 47.5893V55.0005H45.8696V45.8702V45.8701H55C55 44.6359 55 43.4602 55 41.957H47.5888Z" fill="#D80027"/>
<path d="M55 53.1554L49.6708 47.8262C49.6708 47.8262 47.8262 47.8263 47.8262 47.8262V47.8263L55 55H55C55 55 55 53.7281 55 53.1554Z" fill="#D80027"/>
<path d="M65.9764 51.1309L66.3002 52.1273H67.3479L66.5002 52.7431L66.824 53.7395L65.9764 53.1237L65.1287 53.7395L65.4525 52.7431L64.6049 52.1273H65.6526L65.9764 51.1309Z" fill="#D80027"/>
<path d="M62.2312 58.3047L62.7169 59.7994H64.2884L63.0169 60.7231L63.5027 62.2178L62.2312 61.294L60.9597 62.2178L61.4454 60.7231L60.174 59.7994H61.7455L62.2312 58.3047Z" fill="#D80027"/>
<path d="M62.3726 46.5664L62.7774 47.8121H64.087L63.0274 48.5817L63.4322 49.8273L62.3726 49.0574L61.3131 49.8273L61.7178 48.5817L60.6583 47.8121H61.9679L62.3726 46.5664Z" fill="#D80027"/>
<path d="M58.7689 51.0879L59.2545 52.5826H60.8261L59.5546 53.5063L60.0404 55.001L58.7689 54.0772L57.4974 55.001L57.9832 53.5063L56.7117 52.5826H58.2832L58.7689 51.0879Z" fill="#D80027"/>
<path d="M248 54.5C248 53.0166 247.56 51.5666 246.736 50.3332C245.912 49.0999 244.741 48.1386 243.37 47.5709C242 47.0032 240.492 46.8547 239.037 47.1441C237.582 47.4335 236.246 48.1478 235.197 49.1967C234.148 50.2456 233.434 51.582 233.144 53.0368C232.855 54.4917 233.003 55.9997 233.571 57.3701C234.139 58.7406 235.1 59.9119 236.333 60.736C237.567 61.5601 239.017 62 240.5 62C242.488 61.9978 244.395 61.2069 245.801 59.8009C247.207 58.3948 247.998 56.4884 248 54.5ZM239.97 58.0303C239.9 57.9606 239.845 57.878 239.807 57.787C239.769 57.696 239.75 57.5985 239.75 57.5C239.75 57.4015 239.769 57.304 239.807 57.213C239.845 57.122 239.9 57.0393 239.97 56.9697L241.689 55.25H237.5C237.301 55.25 237.11 55.171 236.97 55.0303C236.829 54.8897 236.75 54.6989 236.75 54.5C236.75 54.3011 236.829 54.1103 236.97 53.9697C237.11 53.829 237.301 53.75 237.5 53.75H241.689L239.97 52.0303C239.831 51.8892 239.754 51.6991 239.755 51.5014C239.756 51.3037 239.835 51.1143 239.975 50.9745C240.114 50.8347 240.304 50.7558 240.501 50.7549C240.699 50.754 240.889 50.8312 241.03 50.9698L244.03 53.9695C244.17 54.1105 244.249 54.3012 244.249 54.5C244.249 54.6988 244.17 54.8895 244.03 55.0305L241.03 58.0303C240.961 58.0999 240.878 58.1552 240.787 58.1929C240.696 58.2306 240.598 58.25 240.5 58.25C240.402 58.25 240.304 58.2306 240.213 58.1929C240.122 58.1552 240.039 58.0999 239.97 58.0303Z" fill="#5B588F"/>
<defs>
<filter id="filter0_dd_4189_12442" x="0" y="0" width="290" height="182" filterUnits="userSpaceOnUse" color-interpolation-filters="sRGB">
<feFlood flood-opacity="0" result="BackgroundImageFix"/>
<feColorMatrix in="SourceAlpha" type="matrix" values="0 0 0 0 0 0 0 0 0 0 0 0 0 0 0 0 0 0 127 0" result="hardAlpha"/>
<feMorphology radius="2" operator="dilate" in="SourceAlpha" result="effect1_dropShadow_4189_12442"/>
<feOffset dx="4" dy="4"/>
<feGaussianBlur stdDeviation="8"/>
<feComposite in2="hardAlpha" operator="out"/>
<feColorMatrix type="matrix" values="0 0 0 0 1 0 0 0 0 1 0 0 0 0 1 0 0 0 0.25 0"/>
<feBlend mode="normal" in2="BackgroundImageFix" result="effect1_dropShadow_4189_12442"/>
<feColorMatrix in="SourceAlpha" type="matrix" values="0 0 0 0 0 0 0 0 0 0 0 0 0 0 0 0 0 0 127 0" result="hardAlpha"/>
<feOffset dx="-4" dy="-4"/>
<feGaussianBlur stdDeviation="8"/>
<feComposite in2="hardAlpha" operator="out"/>
<feColorMatrix type="matrix" values="0 0 0 0 1 0 0 0 0 1 0 0 0 0 1 0 0 0 0.25 0"/>
<feBlend mode="normal" in2="effect1_dropShadow_4189_12442" result="effect2_dropShadow_4189_12442"/>
<feBlend mode="normal" in="SourceGraphic" in2="effect2_dropShadow_4189_12442" result="shape"/>
</filter>
</defs>
</svg>
