<svg width="290" height="182" viewBox="0 0 290 182" fill="none" xmlns="http://www.w3.org/2000/svg">
<g filter="url(#filter0_dd_4189_12443)">
<rect x="20" y="20" width="248" height="140" rx="10" fill="white"/>
</g>
<path d="M41.162 94V84.2H45.404C46.2813 84.2 47.0373 84.3447 47.672 84.634C48.3067 84.914 48.7967 85.32 49.142 85.852C49.4873 86.384 49.66 87.0187 49.66 87.756C49.66 88.484 49.4873 89.114 49.142 89.646C48.7967 90.178 48.3067 90.5887 47.672 90.878C47.0373 91.158 46.2813 91.298 45.404 91.298H42.422L43.43 90.276V94H41.162ZM43.43 90.528L42.422 89.45H45.278C45.978 89.45 46.5007 89.3007 46.846 89.002C47.1913 88.7033 47.364 88.288 47.364 87.756C47.364 87.2147 47.1913 86.7947 46.846 86.496C46.5007 86.1973 45.978 86.048 45.278 86.048H42.422L43.43 84.97V90.528ZM51.4792 94V84.2H55.9312C56.9952 84.2 57.9332 84.4053 58.7452 84.816C59.5572 85.2173 60.1919 85.782 60.6492 86.51C61.1065 87.238 61.3352 88.1013 61.3352 89.1C61.3352 90.0893 61.1065 90.9527 60.6492 91.69C60.1919 92.418 59.5572 92.9873 58.7452 93.398C57.9332 93.7993 56.9952 94 55.9312 94H51.4792ZM53.7472 92.138H55.8192C56.4725 92.138 57.0372 92.0167 57.5132 91.774C57.9985 91.522 58.3719 91.1673 58.6332 90.71C58.9039 90.2527 59.0392 89.716 59.0392 89.1C59.0392 88.4747 58.9039 87.938 58.6332 87.49C58.3719 87.0327 57.9985 86.6827 57.5132 86.44C57.0372 86.188 56.4725 86.062 55.8192 86.062H53.7472V92.138ZM63.2456 94V84.2H67.4876C68.3649 84.2 69.1209 84.3447 69.7556 84.634C70.3903 84.914 70.8803 85.32 71.2256 85.852C71.5709 86.384 71.7436 87.0187 71.7436 87.756C71.7436 88.484 71.5709 89.114 71.2256 89.646C70.8803 90.178 70.3903 90.5887 69.7556 90.878C69.1209 91.158 68.3649 91.298 67.4876 91.298H64.5056L65.5136 90.276V94H63.2456ZM65.5136 90.528L64.5056 89.45H67.3616C68.0616 89.45 68.5843 89.3007 68.9296 89.002C69.2749 88.7033 69.4476 88.288 69.4476 87.756C69.4476 87.2147 69.2749 86.7947 68.9296 86.496C68.5843 86.1973 68.0616 86.048 67.3616 86.048H64.5056L65.5136 84.97V90.528ZM71.7826 94L76.1506 84.2H78.3906L82.7726 94H80.3926L76.8086 85.348H77.7046L74.1066 94H71.7826ZM73.9666 91.9L74.5686 90.178H79.6086L80.2246 91.9H73.9666ZM42.928 112V104.644H40.048V103.6H46.996V104.644H44.116V112H42.928ZM51.731 105.58C52.251 105.58 52.707 105.68 53.099 105.88C53.499 106.08 53.811 106.384 54.035 106.792C54.259 107.2 54.371 107.716 54.371 108.34V112H53.219V108.472C53.219 107.856 53.067 107.392 52.763 107.08C52.467 106.768 52.047 106.612 51.503 106.612C51.095 106.612 50.739 106.692 50.435 106.852C50.131 107.012 49.895 107.248 49.727 107.56C49.567 107.872 49.487 108.26 49.487 108.724V112H48.335V103.096H49.487V107.356L49.259 106.9C49.467 106.484 49.787 106.16 50.219 105.928C50.651 105.696 51.155 105.58 51.731 105.58ZM60.6509 112V110.656L60.5909 110.404V108.112C60.5909 107.624 60.4469 107.248 60.1589 106.984C59.8789 106.712 59.4549 106.576 58.8869 106.576C58.5109 106.576 58.1429 106.64 57.7829 106.768C57.4229 106.888 57.1189 107.052 56.8709 107.26L56.3909 106.396C56.7189 106.132 57.1109 105.932 57.5669 105.796C58.0309 105.652 58.5149 105.58 59.0189 105.58C59.8909 105.58 60.5629 105.792 61.0349 106.216C61.5069 106.64 61.7429 107.288 61.7429 108.16V112H60.6509ZM58.5629 112.072C58.0909 112.072 57.6749 111.992 57.3149 111.832C56.9629 111.672 56.6909 111.452 56.4989 111.172C56.3069 110.884 56.2109 110.56 56.2109 110.2C56.2109 109.856 56.2909 109.544 56.4509 109.264C56.6189 108.984 56.8869 108.76 57.2549 108.592C57.6309 108.424 58.1349 108.34 58.7669 108.34H60.7829V109.168H58.8149C58.2389 109.168 57.8509 109.264 57.6509 109.456C57.4509 109.648 57.3509 109.88 57.3509 110.152C57.3509 110.464 57.4749 110.716 57.7229 110.908C57.9709 111.092 58.3149 111.184 58.7549 111.184C59.1869 111.184 59.5629 111.088 59.8829 110.896C60.2109 110.704 60.4469 110.424 60.5909 110.056L60.8189 110.848C60.6669 111.224 60.3989 111.524 60.0149 111.748C59.6309 111.964 59.1469 112.072 58.5629 112.072ZM64.0748 112V105.64H65.2268V112H64.0748ZM64.6508 104.416C64.4268 104.416 64.2388 104.344 64.0868 104.2C63.9428 104.056 63.8708 103.88 63.8708 103.672C63.8708 103.456 63.9428 103.276 64.0868 103.132C64.2388 102.988 64.4268 102.916 64.6508 102.916C64.8748 102.916 65.0588 102.988 65.2028 103.132C65.3548 103.268 65.4308 103.44 65.4308 103.648C65.4308 103.864 65.3588 104.048 65.2148 104.2C65.0708 104.344 64.8828 104.416 64.6508 104.416ZM67.6264 112V103.096H68.7784V112H67.6264ZM75.1259 112V110.656L75.0659 110.404V108.112C75.0659 107.624 74.9219 107.248 74.6339 106.984C74.3539 106.712 73.9299 106.576 73.3619 106.576C72.9859 106.576 72.6179 106.64 72.2579 106.768C71.8979 106.888 71.5939 107.052 71.3459 107.26L70.8659 106.396C71.1939 106.132 71.5859 105.932 72.0419 105.796C72.5059 105.652 72.9899 105.58 73.4939 105.58C74.3659 105.58 75.0379 105.792 75.5099 106.216C75.9819 106.64 76.2179 107.288 76.2179 108.16V112H75.1259ZM73.0379 112.072C72.5659 112.072 72.1499 111.992 71.7899 111.832C71.4379 111.672 71.1659 111.452 70.9739 111.172C70.7819 110.884 70.6859 110.56 70.6859 110.2C70.6859 109.856 70.7659 109.544 70.9259 109.264C71.0939 108.984 71.3619 108.76 71.7299 108.592C72.1059 108.424 72.6099 108.34 73.2419 108.34H75.2579V109.168H73.2899C72.7139 109.168 72.3259 109.264 72.1259 109.456C71.9259 109.648 71.8259 109.88 71.8259 110.152C71.8259 110.464 71.9499 110.716 72.1979 110.908C72.4459 111.092 72.7899 111.184 73.2299 111.184C73.6619 111.184 74.0379 111.088 74.3579 110.896C74.6859 110.704 74.9219 110.424 75.0659 110.056L75.2939 110.848C75.1419 111.224 74.8739 111.524 74.4899 111.748C74.1059 111.964 73.6219 112.072 73.0379 112.072ZM81.9458 105.58C82.4658 105.58 82.9218 105.68 83.3138 105.88C83.7138 106.08 84.0258 106.384 84.2498 106.792C84.4738 107.2 84.5858 107.716 84.5858 108.34V112H83.4338V108.472C83.4338 107.856 83.2818 107.392 82.9778 107.08C82.6818 106.768 82.2618 106.612 81.7178 106.612C81.3098 106.612 80.9538 106.692 80.6498 106.852C80.3458 107.012 80.1098 107.248 79.9418 107.56C79.7818 107.872 79.7018 108.26 79.7018 108.724V112H78.5498V105.64H79.6538V107.356L79.4738 106.9C79.6818 106.484 80.0018 106.16 80.4338 105.928C80.8658 105.696 81.3698 105.58 81.9458 105.58ZM89.5458 112.072C88.9298 112.072 88.3778 111.936 87.8898 111.664C87.4098 111.392 87.0298 111.012 86.7498 110.524C86.4698 110.036 86.3298 109.468 86.3298 108.82C86.3298 108.172 86.4698 107.608 86.7498 107.128C87.0298 106.64 87.4098 106.26 87.8898 105.988C88.3778 105.716 88.9298 105.58 89.5458 105.58C90.0818 105.58 90.5658 105.7 90.9978 105.94C91.4298 106.18 91.7738 106.54 92.0298 107.02C92.2938 107.5 92.4258 108.1 92.4258 108.82C92.4258 109.54 92.2978 110.14 92.0418 110.62C91.7938 111.1 91.4538 111.464 91.0218 111.712C90.5898 111.952 90.0978 112.072 89.5458 112.072ZM89.6418 111.064C90.0418 111.064 90.4018 110.972 90.7218 110.788C91.0498 110.604 91.3058 110.344 91.4898 110.008C91.6818 109.664 91.7778 109.268 91.7778 108.82C91.7778 108.364 91.6818 107.972 91.4898 107.644C91.3058 107.308 91.0498 107.048 90.7218 106.864C90.4018 106.68 90.0418 106.588 89.6418 106.588C89.2338 106.588 88.8698 106.68 88.5498 106.864C88.2298 107.048 87.9738 107.308 87.7818 107.644C87.5898 107.972 87.4938 108.364 87.4938 108.82C87.4938 109.268 87.5898 109.664 87.7818 110.008C87.9738 110.344 88.2298 110.604 88.5498 110.788C88.8698 110.972 89.2338 111.064 89.6418 111.064ZM91.8138 112V110.284L91.8858 108.808L91.7658 107.332V103.096H92.9178V112H91.8138ZM98.8881 112V103.6H102.164C102.9 103.6 103.528 103.716 104.048 103.948C104.568 104.18 104.968 104.516 105.248 104.956C105.528 105.396 105.668 105.92 105.668 106.528C105.668 107.136 105.528 107.66 105.248 108.1C104.968 108.532 104.568 108.868 104.048 109.108C103.528 109.34 102.9 109.456 102.164 109.456H99.5481L100.088 108.892V112H98.8881ZM100.088 109.012L99.5481 108.412H102.128C102.896 108.412 103.476 108.248 103.868 107.92C104.268 107.592 104.468 107.128 104.468 106.528C104.468 105.928 104.268 105.464 103.868 105.136C103.476 104.808 102.896 104.644 102.128 104.644H99.5481L100.088 104.044V109.012ZM110.272 112.072C109.592 112.072 108.992 111.932 108.472 111.652C107.96 111.372 107.56 110.988 107.272 110.5C106.992 110.012 106.852 109.452 106.852 108.82C106.852 108.188 106.988 107.628 107.26 107.14C107.54 106.652 107.92 106.272 108.4 106C108.888 105.72 109.436 105.58 110.044 105.58C110.66 105.58 111.204 105.716 111.676 105.988C112.148 106.26 112.516 106.644 112.78 107.14C113.052 107.628 113.188 108.2 113.188 108.856C113.188 108.904 113.184 108.96 113.176 109.024C113.176 109.088 113.172 109.148 113.164 109.204H107.752V108.376H112.564L112.096 108.664C112.104 108.256 112.02 107.892 111.844 107.572C111.668 107.252 111.424 107.004 111.112 106.828C110.808 106.644 110.452 106.552 110.044 106.552C109.644 106.552 109.288 106.644 108.976 106.828C108.664 107.004 108.42 107.256 108.244 107.584C108.068 107.904 107.98 108.272 107.98 108.688V108.88C107.98 109.304 108.076 109.684 108.268 110.02C108.468 110.348 108.744 110.604 109.096 110.788C109.448 110.972 109.852 111.064 110.308 111.064C110.684 111.064 111.024 111 111.328 110.872C111.64 110.744 111.912 110.552 112.144 110.296L112.78 111.04C112.492 111.376 112.132 111.632 111.7 111.808C111.276 111.984 110.8 112.072 110.272 112.072ZM114.987 112V105.64H116.091V107.368L115.983 106.936C116.159 106.496 116.455 106.16 116.871 105.928C117.287 105.696 117.799 105.58 118.407 105.58V106.696C118.359 106.688 118.311 106.684 118.263 106.684C118.223 106.684 118.183 106.684 118.143 106.684C117.527 106.684 117.039 106.868 116.679 107.236C116.319 107.604 116.139 108.136 116.139 108.832V112H114.987ZM121.921 112.072C121.393 112.072 120.889 112 120.409 111.856C119.937 111.712 119.565 111.536 119.293 111.328L119.773 110.416C120.045 110.6 120.381 110.756 120.781 110.884C121.181 111.012 121.589 111.076 122.005 111.076C122.541 111.076 122.925 111 123.157 110.848C123.397 110.696 123.517 110.484 123.517 110.212C123.517 110.012 123.445 109.856 123.301 109.744C123.157 109.632 122.965 109.548 122.725 109.492C122.493 109.436 122.233 109.388 121.945 109.348C121.657 109.3 121.369 109.244 121.081 109.18C120.793 109.108 120.529 109.012 120.289 108.892C120.049 108.764 119.857 108.592 119.713 108.376C119.569 108.152 119.497 107.856 119.497 107.488C119.497 107.104 119.605 106.768 119.821 106.48C120.037 106.192 120.341 105.972 120.733 105.82C121.133 105.66 121.605 105.58 122.149 105.58C122.565 105.58 122.985 105.632 123.409 105.736C123.841 105.832 124.193 105.972 124.465 106.156L123.973 107.068C123.685 106.876 123.385 106.744 123.073 106.672C122.761 106.6 122.449 106.564 122.137 106.564C121.633 106.564 121.257 106.648 121.009 106.816C120.761 106.976 120.637 107.184 120.637 107.44C120.637 107.656 120.709 107.824 120.853 107.944C121.005 108.056 121.197 108.144 121.429 108.208C121.669 108.272 121.933 108.328 122.221 108.376C122.509 108.416 122.797 108.472 123.085 108.544C123.373 108.608 123.633 108.7 123.865 108.82C124.105 108.94 124.297 109.108 124.441 109.324C124.593 109.54 124.669 109.828 124.669 110.188C124.669 110.572 124.557 110.904 124.333 111.184C124.109 111.464 123.793 111.684 123.385 111.844C122.977 111.996 122.489 112.072 121.921 112.072ZM129.033 112.072C128.393 112.072 127.825 111.932 127.329 111.652C126.833 111.372 126.441 110.988 126.153 110.5C125.865 110.004 125.721 109.444 125.721 108.82C125.721 108.188 125.865 107.628 126.153 107.14C126.441 106.652 126.833 106.272 127.329 106C127.825 105.72 128.393 105.58 129.033 105.58C129.665 105.58 130.229 105.72 130.725 106C131.229 106.272 131.621 106.652 131.901 107.14C132.189 107.62 132.333 108.18 132.333 108.82C132.333 109.452 132.189 110.012 131.901 110.5C131.621 110.988 131.229 111.372 130.725 111.652C130.229 111.932 129.665 112.072 129.033 112.072ZM129.033 111.064C129.441 111.064 129.805 110.972 130.125 110.788C130.453 110.604 130.709 110.344 130.893 110.008C131.077 109.664 131.169 109.268 131.169 108.82C131.169 108.364 131.077 107.972 130.893 107.644C130.709 107.308 130.453 107.048 130.125 106.864C129.805 106.68 129.441 106.588 129.033 106.588C128.625 106.588 128.261 106.68 127.941 106.864C127.621 107.048 127.365 107.308 127.173 107.644C126.981 107.972 126.885 108.364 126.885 108.82C126.885 109.268 126.981 109.664 127.173 110.008C127.365 110.344 127.621 110.604 127.941 110.788C128.261 110.972 128.625 111.064 129.033 111.064ZM137.522 105.58C138.042 105.58 138.498 105.68 138.89 105.88C139.29 106.08 139.602 106.384 139.826 106.792C140.05 107.2 140.162 107.716 140.162 108.34V112H139.01V108.472C139.01 107.856 138.858 107.392 138.554 107.08C138.258 106.768 137.838 106.612 137.294 106.612C136.886 106.612 136.53 106.692 136.226 106.852C135.922 107.012 135.686 107.248 135.518 107.56C135.358 107.872 135.278 108.26 135.278 108.724V112H134.126V105.64H135.23V107.356L135.05 106.9C135.258 106.484 135.578 106.16 136.01 105.928C136.442 105.696 136.946 105.58 137.522 105.58ZM146.442 112V110.656L146.382 110.404V108.112C146.382 107.624 146.238 107.248 145.95 106.984C145.67 106.712 145.246 106.576 144.678 106.576C144.302 106.576 143.934 106.64 143.574 106.768C143.214 106.888 142.91 107.052 142.662 107.26L142.182 106.396C142.51 106.132 142.902 105.932 143.358 105.796C143.822 105.652 144.306 105.58 144.81 105.58C145.682 105.58 146.354 105.792 146.826 106.216C147.298 106.64 147.534 107.288 147.534 108.16V112H146.442ZM144.354 112.072C143.882 112.072 143.466 111.992 143.106 111.832C142.754 111.672 142.482 111.452 142.29 111.172C142.098 110.884 142.002 110.56 142.002 110.2C142.002 109.856 142.082 109.544 142.242 109.264C142.41 108.984 142.678 108.76 143.046 108.592C143.422 108.424 143.926 108.34 144.558 108.34H146.574V109.168H144.606C144.03 109.168 143.642 109.264 143.442 109.456C143.242 109.648 143.142 109.88 143.142 110.152C143.142 110.464 143.266 110.716 143.514 110.908C143.762 111.092 144.106 111.184 144.546 111.184C144.978 111.184 145.354 111.088 145.674 110.896C146.002 110.704 146.238 110.424 146.382 110.056L146.61 110.848C146.458 111.224 146.19 111.524 145.806 111.748C145.422 111.964 144.938 112.072 144.354 112.072ZM149.866 112V103.096H151.018V112H149.866ZM157.008 112V103.6H160.548C161.444 103.6 162.232 103.776 162.912 104.128C163.6 104.48 164.132 104.972 164.508 105.604C164.892 106.236 165.084 106.968 165.084 107.8C165.084 108.632 164.892 109.364 164.508 109.996C164.132 110.628 163.6 111.12 162.912 111.472C162.232 111.824 161.444 112 160.548 112H157.008ZM158.208 110.956H160.476C161.172 110.956 161.772 110.824 162.276 110.56C162.788 110.296 163.184 109.928 163.464 109.456C163.744 108.976 163.884 108.424 163.884 107.8C163.884 107.168 163.744 106.616 163.464 106.144C163.184 105.672 162.788 105.304 162.276 105.04C161.772 104.776 161.172 104.644 160.476 104.644H158.208V110.956ZM170.903 112V110.656L170.843 110.404V108.112C170.843 107.624 170.699 107.248 170.411 106.984C170.131 106.712 169.707 106.576 169.139 106.576C168.763 106.576 168.395 106.64 168.035 106.768C167.675 106.888 167.371 107.052 167.123 107.26L166.643 106.396C166.971 106.132 167.363 105.932 167.819 105.796C168.283 105.652 168.767 105.58 169.271 105.58C170.143 105.58 170.815 105.792 171.287 106.216C171.759 106.64 171.995 107.288 171.995 108.16V112H170.903ZM168.815 112.072C168.343 112.072 167.927 111.992 167.567 111.832C167.215 111.672 166.943 111.452 166.751 111.172C166.559 110.884 166.463 110.56 166.463 110.2C166.463 109.856 166.543 109.544 166.703 109.264C166.871 108.984 167.139 108.76 167.507 108.592C167.883 108.424 168.387 108.34 169.019 108.34H171.035V109.168H169.067C168.491 109.168 168.103 109.264 167.903 109.456C167.703 109.648 167.603 109.88 167.603 110.152C167.603 110.464 167.727 110.716 167.975 110.908C168.223 111.092 168.567 111.184 169.007 111.184C169.439 111.184 169.815 111.088 170.135 110.896C170.463 110.704 170.699 110.424 170.843 110.056L171.071 110.848C170.919 111.224 170.651 111.524 170.267 111.748C169.883 111.964 169.399 112.072 168.815 112.072ZM176.51 112.072C175.87 112.072 175.374 111.9 175.022 111.556C174.67 111.212 174.494 110.72 174.494 110.08V104.248H175.646V110.032C175.646 110.376 175.73 110.64 175.898 110.824C176.074 111.008 176.322 111.1 176.642 111.1C177.002 111.1 177.302 111 177.542 110.8L177.902 111.628C177.726 111.78 177.514 111.892 177.266 111.964C177.026 112.036 176.774 112.072 176.51 112.072ZM173.414 106.588V105.64H177.47V106.588H173.414ZM183.443 112V110.656L183.383 110.404V108.112C183.383 107.624 183.239 107.248 182.951 106.984C182.671 106.712 182.247 106.576 181.679 106.576C181.303 106.576 180.935 106.64 180.575 106.768C180.215 106.888 179.911 107.052 179.663 107.26L179.183 106.396C179.511 106.132 179.903 105.932 180.359 105.796C180.823 105.652 181.307 105.58 181.811 105.58C182.683 105.58 183.355 105.792 183.827 106.216C184.299 106.64 184.535 107.288 184.535 108.16V112H183.443ZM181.355 112.072C180.883 112.072 180.467 111.992 180.107 111.832C179.755 111.672 179.483 111.452 179.291 111.172C179.099 110.884 179.003 110.56 179.003 110.2C179.003 109.856 179.083 109.544 179.243 109.264C179.411 108.984 179.679 108.76 180.047 108.592C180.423 108.424 180.927 108.34 181.559 108.34H183.575V109.168H181.607C181.031 109.168 180.643 109.264 180.443 109.456C180.243 109.648 180.143 109.88 180.143 110.152C180.143 110.464 180.267 110.716 180.515 110.908C180.763 111.092 181.107 111.184 181.547 111.184C181.979 111.184 182.355 111.088 182.675 110.896C183.003 110.704 183.239 110.424 183.383 110.056L183.611 110.848C183.459 111.224 183.191 111.524 182.807 111.748C182.423 111.964 181.939 112.072 181.355 112.072ZM41.26 130V121.6H44.536C45.272 121.6 45.9 121.716 46.42 121.948C46.94 122.18 47.34 122.516 47.62 122.956C47.9 123.396 48.04 123.92 48.04 124.528C48.04 125.136 47.9 125.66 47.62 126.1C47.34 126.532 46.94 126.868 46.42 127.108C45.9 127.34 45.272 127.456 44.536 127.456H41.92L42.46 126.892V130H41.26ZM42.46 127.012L41.92 126.412H44.5C45.268 126.412 45.848 126.248 46.24 125.92C46.64 125.592 46.84 125.128 46.84 124.528C46.84 123.928 46.64 123.464 46.24 123.136C45.848 122.808 45.268 122.644 44.5 122.644H41.92L42.46 122.044V127.012ZM49.7178 130V123.64H50.8218V125.368L50.7138 124.936C50.8898 124.496 51.1858 124.16 51.6018 123.928C52.0178 123.696 52.5298 123.58 53.1378 123.58V124.696C53.0898 124.688 53.0418 124.684 52.9938 124.684C52.9538 124.684 52.9138 124.684 52.8738 124.684C52.2578 124.684 51.7698 124.868 51.4098 125.236C51.0498 125.604 50.8698 126.136 50.8698 126.832V130H49.7178ZM57.423 130.072C56.783 130.072 56.215 129.932 55.719 129.652C55.223 129.372 54.831 128.988 54.543 128.5C54.255 128.004 54.111 127.444 54.111 126.82C54.111 126.188 54.255 125.628 54.543 125.14C54.831 124.652 55.223 124.272 55.719 124C56.215 123.72 56.783 123.58 57.423 123.58C58.055 123.58 58.619 123.72 59.115 124C59.619 124.272 60.011 124.652 60.291 125.14C60.579 125.62 60.723 126.18 60.723 126.82C60.723 127.452 60.579 128.012 60.291 128.5C60.011 128.988 59.619 129.372 59.115 129.652C58.619 129.932 58.055 130.072 57.423 130.072ZM57.423 129.064C57.831 129.064 58.195 128.972 58.515 128.788C58.843 128.604 59.099 128.344 59.283 128.008C59.467 127.664 59.559 127.268 59.559 126.82C59.559 126.364 59.467 125.972 59.283 125.644C59.099 125.308 58.843 125.048 58.515 124.864C58.195 124.68 57.831 124.588 57.423 124.588C57.015 124.588 56.651 124.68 56.331 124.864C56.011 125.048 55.755 125.308 55.563 125.644C55.371 125.972 55.275 126.364 55.275 126.82C55.275 127.268 55.371 127.664 55.563 128.008C55.755 128.344 56.011 128.604 56.331 128.788C56.651 128.972 57.015 129.064 57.423 129.064ZM64.7002 130.072C64.0602 130.072 63.5642 129.9 63.2122 129.556C62.8602 129.212 62.6842 128.72 62.6842 128.08V122.248H63.8362V128.032C63.8362 128.376 63.9202 128.64 64.0882 128.824C64.2642 129.008 64.5122 129.1 64.8322 129.1C65.1922 129.1 65.4922 129 65.7322 128.8L66.0922 129.628C65.9162 129.78 65.7042 129.892 65.4562 129.964C65.2162 130.036 64.9642 130.072 64.7002 130.072ZM61.6042 124.588V123.64H65.6602V124.588H61.6042ZM70.306 130.072C69.626 130.072 69.026 129.932 68.506 129.652C67.994 129.372 67.594 128.988 67.306 128.5C67.026 128.012 66.886 127.452 66.886 126.82C66.886 126.188 67.022 125.628 67.294 125.14C67.574 124.652 67.954 124.272 68.434 124C68.922 123.72 69.47 123.58 70.078 123.58C70.694 123.58 71.238 123.716 71.71 123.988C72.182 124.26 72.55 124.644 72.814 125.14C73.086 125.628 73.222 126.2 73.222 126.856C73.222 126.904 73.218 126.96 73.21 127.024C73.21 127.088 73.206 127.148 73.198 127.204H67.786V126.376H72.598L72.13 126.664C72.138 126.256 72.054 125.892 71.878 125.572C71.702 125.252 71.458 125.004 71.146 124.828C70.842 124.644 70.486 124.552 70.078 124.552C69.678 124.552 69.322 124.644 69.01 124.828C68.698 125.004 68.454 125.256 68.278 125.584C68.102 125.904 68.014 126.272 68.014 126.688V126.88C68.014 127.304 68.11 127.684 68.302 128.02C68.502 128.348 68.778 128.604 69.13 128.788C69.482 128.972 69.886 129.064 70.342 129.064C70.718 129.064 71.058 129 71.362 128.872C71.674 128.744 71.946 128.552 72.178 128.296L72.814 129.04C72.526 129.376 72.166 129.632 71.734 129.808C71.31 129.984 70.834 130.072 70.306 130.072ZM77.7937 130.072C77.1457 130.072 76.5657 129.932 76.0537 129.652C75.5497 129.372 75.1537 128.988 74.8657 128.5C74.5777 128.012 74.4337 127.452 74.4337 126.82C74.4337 126.188 74.5777 125.628 74.8657 125.14C75.1537 124.652 75.5497 124.272 76.0537 124C76.5657 123.72 77.1457 123.58 77.7937 123.58C78.3697 123.58 78.8817 123.696 79.3297 123.928C79.7857 124.152 80.1377 124.488 80.3857 124.936L79.5097 125.5C79.3017 125.188 79.0457 124.96 78.7417 124.816C78.4457 124.664 78.1257 124.588 77.7817 124.588C77.3657 124.588 76.9937 124.68 76.6657 124.864C76.3377 125.048 76.0777 125.308 75.8857 125.644C75.6937 125.972 75.5977 126.364 75.5977 126.82C75.5977 127.276 75.6937 127.672 75.8857 128.008C76.0777 128.344 76.3377 128.604 76.6657 128.788C76.9937 128.972 77.3657 129.064 77.7817 129.064C78.1257 129.064 78.4457 128.992 78.7417 128.848C79.0457 128.696 79.3017 128.464 79.5097 128.152L80.3857 128.704C80.1377 129.144 79.7857 129.484 79.3297 129.724C78.8817 129.956 78.3697 130.072 77.7937 130.072ZM84.3432 130.072C83.7032 130.072 83.2072 129.9 82.8552 129.556C82.5032 129.212 82.3272 128.72 82.3272 128.08V122.248H83.4792V128.032C83.4792 128.376 83.5632 128.64 83.7312 128.824C83.9072 129.008 84.1552 129.1 84.4752 129.1C84.8352 129.1 85.1352 129 85.3752 128.8L85.7352 129.628C85.5592 129.78 85.3472 129.892 85.0992 129.964C84.8592 130.036 84.6072 130.072 84.3432 130.072ZM81.2472 124.588V123.64H85.3032V124.588H81.2472ZM87.3279 130V123.64H88.4799V130H87.3279ZM87.9039 122.416C87.6799 122.416 87.4919 122.344 87.3399 122.2C87.1959 122.056 87.1239 121.88 87.1239 121.672C87.1239 121.456 87.1959 121.276 87.3399 121.132C87.4919 120.988 87.6799 120.916 87.9039 120.916C88.1279 120.916 88.3119 120.988 88.4559 121.132C88.6079 121.268 88.6839 121.44 88.6839 121.648C88.6839 121.864 88.6119 122.048 88.4679 122.2C88.3239 122.344 88.1359 122.416 87.9039 122.416ZM93.6035 130.072C92.9635 130.072 92.3955 129.932 91.8995 129.652C91.4035 129.372 91.0115 128.988 90.7235 128.5C90.4355 128.004 90.2915 127.444 90.2915 126.82C90.2915 126.188 90.4355 125.628 90.7235 125.14C91.0115 124.652 91.4035 124.272 91.8995 124C92.3955 123.72 92.9635 123.58 93.6035 123.58C94.2355 123.58 94.7995 123.72 95.2955 124C95.7995 124.272 96.1915 124.652 96.4715 125.14C96.7595 125.62 96.9035 126.18 96.9035 126.82C96.9035 127.452 96.7595 128.012 96.4715 128.5C96.1915 128.988 95.7995 129.372 95.2955 129.652C94.7995 129.932 94.2355 130.072 93.6035 130.072ZM93.6035 129.064C94.0115 129.064 94.3755 128.972 94.6955 128.788C95.0235 128.604 95.2795 128.344 95.4635 128.008C95.6475 127.664 95.7395 127.268 95.7395 126.82C95.7395 126.364 95.6475 125.972 95.4635 125.644C95.2795 125.308 95.0235 125.048 94.6955 124.864C94.3755 124.68 94.0115 124.588 93.6035 124.588C93.1955 124.588 92.8315 124.68 92.5115 124.864C92.1915 125.048 91.9355 125.308 91.7435 125.644C91.5515 125.972 91.4555 126.364 91.4555 126.82C91.4555 127.268 91.5515 127.664 91.7435 128.008C91.9355 128.344 92.1915 128.604 92.5115 128.788C92.8315 128.972 93.1955 129.064 93.6035 129.064ZM102.093 123.58C102.613 123.58 103.069 123.68 103.461 123.88C103.861 124.08 104.173 124.384 104.397 124.792C104.621 125.2 104.733 125.716 104.733 126.34V130H103.581V126.472C103.581 125.856 103.429 125.392 103.125 125.08C102.829 124.768 102.409 124.612 101.865 124.612C101.457 124.612 101.101 124.692 100.797 124.852C100.493 125.012 100.257 125.248 100.089 125.56C99.9287 125.872 99.8487 126.26 99.8487 126.724V130H98.6967V123.64H99.8007V125.356L99.6207 124.9C99.8287 124.484 100.149 124.16 100.581 123.928C101.013 123.696 101.517 123.58 102.093 123.58ZM109.383 130L113.187 121.6H114.375L118.191 130H116.931L113.535 122.272H114.015L110.619 130H109.383ZM111.003 127.9L111.327 126.94H116.055L116.403 127.9H111.003ZM122.19 130.072C121.542 130.072 120.962 129.932 120.45 129.652C119.946 129.372 119.55 128.988 119.262 128.5C118.974 128.012 118.83 127.452 118.83 126.82C118.83 126.188 118.974 125.628 119.262 125.14C119.55 124.652 119.946 124.272 120.45 124C120.962 123.72 121.542 123.58 122.19 123.58C122.766 123.58 123.278 123.696 123.726 123.928C124.182 124.152 124.534 124.488 124.782 124.936L123.906 125.5C123.698 125.188 123.442 124.96 123.138 124.816C122.842 124.664 122.522 124.588 122.178 124.588C121.762 124.588 121.39 124.68 121.062 124.864C120.734 125.048 120.474 125.308 120.282 125.644C120.09 125.972 119.994 126.364 119.994 126.82C119.994 127.276 120.09 127.672 120.282 128.008C120.474 128.344 120.734 128.604 121.062 128.788C121.39 128.972 121.762 129.064 122.178 129.064C122.522 129.064 122.842 128.992 123.138 128.848C123.442 128.696 123.698 128.464 123.906 128.152L124.782 128.704C124.534 129.144 124.182 129.484 123.726 129.724C123.278 129.956 122.766 130.072 122.19 130.072ZM128.739 130.072C128.099 130.072 127.603 129.9 127.251 129.556C126.899 129.212 126.723 128.72 126.723 128.08V122.248H127.875V128.032C127.875 128.376 127.959 128.64 128.127 128.824C128.303 129.008 128.551 129.1 128.871 129.1C129.231 129.1 129.531 129 129.771 128.8L130.131 129.628C129.955 129.78 129.743 129.892 129.495 129.964C129.255 130.036 129.003 130.072 128.739 130.072ZM125.643 124.588V123.64H129.699V124.588H125.643ZM131.385 131.776L131.985 129.352L132.141 130.048C131.909 130.048 131.713 129.976 131.553 129.832C131.401 129.688 131.325 129.492 131.325 129.244C131.325 129.004 131.401 128.808 131.553 128.656C131.713 128.504 131.905 128.428 132.129 128.428C132.361 128.428 132.549 128.508 132.693 128.668C132.837 128.82 132.909 129.012 132.909 129.244C132.909 129.324 132.901 129.404 132.885 129.484C132.877 129.556 132.857 129.644 132.825 129.748C132.801 129.844 132.761 129.964 132.705 130.108L132.141 131.776H131.385ZM138.351 130V121.6H142.119C143.087 121.6 143.831 121.796 144.351 122.188C144.871 122.572 145.131 123.1 145.131 123.772C145.131 124.228 145.027 124.612 144.819 124.924C144.619 125.236 144.347 125.476 144.003 125.644C143.659 125.812 143.287 125.896 142.887 125.896L143.103 125.536C143.583 125.536 144.007 125.62 144.375 125.788C144.743 125.956 145.035 126.204 145.251 126.532C145.467 126.852 145.575 127.252 145.575 127.732C145.575 128.452 145.303 129.012 144.759 129.412C144.223 129.804 143.423 130 142.359 130H138.351ZM139.551 129.028H142.311C142.975 129.028 143.483 128.916 143.835 128.692C144.187 128.468 144.363 128.116 144.363 127.636C144.363 127.148 144.187 126.792 143.835 126.568C143.483 126.344 142.975 126.232 142.311 126.232H139.443V125.26H142.011C142.619 125.26 143.091 125.148 143.427 124.924C143.763 124.7 143.931 124.364 143.931 123.916C143.931 123.468 143.763 123.132 143.427 122.908C143.091 122.684 142.619 122.572 142.011 122.572H139.551V129.028ZM147.741 130.072C147.517 130.072 147.325 129.996 147.165 129.844C147.005 129.684 146.925 129.484 146.925 129.244C146.925 129.004 147.005 128.808 147.165 128.656C147.325 128.504 147.517 128.428 147.741 128.428C147.957 128.428 148.141 128.504 148.293 128.656C148.453 128.808 148.533 129.004 148.533 129.244C148.533 129.484 148.453 129.684 148.293 129.844C148.141 129.996 147.957 130.072 147.741 130.072ZM151.643 125.224H155.963V126.244H151.643V125.224ZM151.751 128.956H156.647V130H150.551V121.6H156.479V122.644H151.751V128.956ZM159.016 130.072C158.792 130.072 158.6 129.996 158.44 129.844C158.28 129.684 158.2 129.484 158.2 129.244C158.2 129.004 158.28 128.808 158.44 128.656C158.6 128.504 158.792 128.428 159.016 128.428C159.232 128.428 159.416 128.504 159.568 128.656C159.728 128.808 159.808 129.004 159.808 129.244C159.808 129.484 159.728 129.684 159.568 129.844C159.416 129.996 159.232 130.072 159.016 130.072ZM164.433 130V129.184L167.853 125.884C168.157 125.596 168.381 125.344 168.525 125.128C168.677 124.904 168.777 124.7 168.825 124.516C168.881 124.324 168.909 124.14 168.909 123.964C168.909 123.532 168.757 123.192 168.453 122.944C168.149 122.696 167.705 122.572 167.121 122.572C166.673 122.572 166.269 122.648 165.909 122.8C165.549 122.944 165.237 123.172 164.973 123.484L164.157 122.776C164.477 122.368 164.905 122.056 165.441 121.84C165.985 121.616 166.581 121.504 167.229 121.504C167.813 121.504 168.321 121.6 168.753 121.792C169.185 121.976 169.517 122.244 169.749 122.596C169.989 122.948 170.109 123.364 170.109 123.844C170.109 124.116 170.073 124.384 170.001 124.648C169.929 124.912 169.793 125.192 169.593 125.488C169.393 125.784 169.105 126.116 168.729 126.484L165.681 129.424L165.393 128.956H170.469V130H164.433ZM174.368 130.096C173.776 130.096 173.2 130.004 172.64 129.82C172.088 129.636 171.636 129.388 171.284 129.076L171.836 128.128C172.116 128.392 172.48 128.608 172.928 128.776C173.376 128.944 173.852 129.028 174.356 129.028C174.996 129.028 175.488 128.892 175.832 128.62C176.176 128.348 176.348 127.984 176.348 127.528C176.348 127.216 176.272 126.944 176.12 126.712C175.968 126.48 175.704 126.304 175.328 126.184C174.96 126.056 174.452 125.992 173.804 125.992H171.896L172.34 121.6H177.08V122.644H172.784L173.408 122.056L173.06 125.524L172.436 124.948H174.056C174.896 124.948 175.572 125.056 176.084 125.272C176.596 125.488 176.968 125.788 177.2 126.172C177.432 126.548 177.548 126.984 177.548 127.48C177.548 127.96 177.432 128.4 177.2 128.8C176.968 129.192 176.616 129.508 176.144 129.748C175.68 129.98 175.088 130.096 174.368 130.096ZM182.274 130.096C181.53 130.096 180.894 129.932 180.366 129.604C179.838 129.276 179.434 128.804 179.154 128.188C178.882 127.564 178.746 126.804 178.746 125.908C178.746 124.956 178.914 124.152 179.25 123.496C179.586 122.84 180.054 122.344 180.654 122.008C181.254 121.672 181.942 121.504 182.718 121.504C183.118 121.504 183.498 121.544 183.858 121.624C184.226 121.704 184.542 121.828 184.806 121.996L184.35 122.932C184.134 122.78 183.886 122.676 183.606 122.62C183.334 122.564 183.046 122.536 182.742 122.536C181.886 122.536 181.206 122.804 180.702 123.34C180.198 123.868 179.946 124.656 179.946 125.704C179.946 125.872 179.954 126.072 179.97 126.304C179.986 126.536 180.026 126.764 180.09 126.988L179.682 126.58C179.802 126.212 179.99 125.904 180.246 125.656C180.51 125.4 180.822 125.212 181.182 125.092C181.55 124.964 181.946 124.9 182.37 124.9C182.93 124.9 183.426 125.004 183.858 125.212C184.29 125.42 184.63 125.716 184.878 126.1C185.126 126.476 185.25 126.924 185.25 127.444C185.25 127.98 185.118 128.448 184.854 128.848C184.59 129.248 184.234 129.556 183.786 129.772C183.338 129.988 182.834 130.096 182.274 130.096ZM182.226 129.124C182.594 129.124 182.914 129.056 183.186 128.92C183.466 128.784 183.686 128.596 183.846 128.356C184.006 128.108 184.086 127.82 184.086 127.492C184.086 126.996 183.914 126.604 183.57 126.316C183.226 126.02 182.758 125.872 182.166 125.872C181.782 125.872 181.446 125.944 181.158 126.088C180.87 126.232 180.642 126.428 180.474 126.676C180.314 126.916 180.234 127.192 180.234 127.504C180.234 127.792 180.31 128.06 180.462 128.308C180.614 128.548 180.838 128.744 181.134 128.896C181.43 129.048 181.794 129.124 182.226 129.124ZM186.221 130V129.184L189.641 125.884C189.945 125.596 190.169 125.344 190.313 125.128C190.465 124.904 190.565 124.7 190.613 124.516C190.669 124.324 190.697 124.14 190.697 123.964C190.697 123.532 190.545 123.192 190.241 122.944C189.937 122.696 189.493 122.572 188.909 122.572C188.461 122.572 188.057 122.648 187.697 122.8C187.337 122.944 187.025 123.172 186.761 123.484L185.945 122.776C186.265 122.368 186.693 122.056 187.229 121.84C187.773 121.616 188.369 121.504 189.017 121.504C189.601 121.504 190.109 121.6 190.541 121.792C190.973 121.976 191.305 122.244 191.537 122.596C191.777 122.948 191.897 123.364 191.897 123.844C191.897 124.116 191.861 124.384 191.789 124.648C191.717 124.912 191.581 125.192 191.381 125.488C191.181 125.784 190.893 126.116 190.517 126.484L187.469 129.424L187.181 128.956H192.257V130H186.221Z" fill="#19191F"/>
<path d="M55 70C63.2843 70 70 63.2843 70 55C70 46.7157 63.2843 40 55 40C46.7157 40 40 46.7157 40 55C40 63.2843 46.7157 70 55 70Z" fill="#F0F0F0"/>
<path d="M69.067 49.7832H40.933C40.33 51.4082 40 53.1658 40 55.0006C40 56.8354 40.33 58.5929 40.933 60.2179H69.0671C69.67 58.5929 70 56.8354 70 55.0006C70 53.1658 69.67 51.4082 69.067 49.7832Z" fill="#0052B4"/>
<path d="M55 40C50.4537 40 46.38 42.0229 43.6292 45.2174H66.3707C63.62 42.0229 59.5464 40 55 40Z" fill="#D80027"/>
<path d="M66.3708 64.7832H43.6292C46.38 67.9777 50.4537 70.0006 55 70.0006C59.5464 70.0006 63.62 67.9777 66.3708 64.7832Z" fill="#D80027"/>
<path d="M248 54.5C248 53.0166 247.56 51.5666 246.736 50.3332C245.912 49.0999 244.741 48.1386 243.37 47.5709C242 47.0032 240.492 46.8547 239.037 47.1441C237.582 47.4335 236.246 48.1478 235.197 49.1967C234.148 50.2456 233.434 51.582 233.144 53.0368C232.855 54.4917 233.003 55.9997 233.571 57.3701C234.139 58.7406 235.1 59.9119 236.333 60.736C237.567 61.5601 239.017 62 240.5 62C242.488 61.9978 244.395 61.2069 245.801 59.8009C247.207 58.3948 247.998 56.4884 248 54.5ZM239.97 58.0303C239.9 57.9606 239.845 57.878 239.807 57.787C239.769 57.696 239.75 57.5985 239.75 57.5C239.75 57.4015 239.769 57.304 239.807 57.213C239.845 57.122 239.9 57.0393 239.97 56.9697L241.689 55.25H237.5C237.301 55.25 237.11 55.171 236.97 55.0303C236.829 54.8897 236.75 54.6989 236.75 54.5C236.75 54.3011 236.829 54.1103 236.97 53.9697C237.11 53.829 237.301 53.75 237.5 53.75H241.689L239.97 52.0303C239.831 51.8892 239.754 51.6991 239.755 51.5014C239.756 51.3037 239.835 51.1143 239.975 50.9745C240.114 50.8347 240.304 50.7558 240.501 50.7549C240.699 50.754 240.889 50.8312 241.03 50.9698L244.03 53.9695C244.17 54.1105 244.249 54.3012 244.249 54.5C244.249 54.6988 244.17 54.8895 244.03 55.0305L241.03 58.0303C240.961 58.0999 240.878 58.1552 240.787 58.1929C240.696 58.2306 240.598 58.25 240.5 58.25C240.402 58.25 240.304 58.2306 240.213 58.1929C240.122 58.1552 240.039 58.0999 239.97 58.0303Z" fill="#5B588F"/>
<defs>
<filter id="filter0_dd_4189_12443" x="0" y="0" width="290" height="182" filterUnits="userSpaceOnUse" color-interpolation-filters="sRGB">
<feFlood flood-opacity="0" result="BackgroundImageFix"/>
<feColorMatrix in="SourceAlpha" type="matrix" values="0 0 0 0 0 0 0 0 0 0 0 0 0 0 0 0 0 0 127 0" result="hardAlpha"/>
<feMorphology radius="2" operator="dilate" in="SourceAlpha" result="effect1_dropShadow_4189_12443"/>
<feOffset dx="4" dy="4"/>
<feGaussianBlur stdDeviation="8"/>
<feComposite in2="hardAlpha" operator="out"/>
<feColorMatrix type="matrix" values="0 0 0 0 1 0 0 0 0 1 0 0 0 0 1 0 0 0 0.25 0"/>
<feBlend mode="normal" in2="BackgroundImageFix" result="effect1_dropShadow_4189_12443"/>
<feColorMatrix in="SourceAlpha" type="matrix" values="0 0 0 0 0 0 0 0 0 0 0 0 0 0 0 0 0 0 127 0" result="hardAlpha"/>
<feOffset dx="-4" dy="-4"/>
<feGaussianBlur stdDeviation="8"/>
<feComposite in2="hardAlpha" operator="out"/>
<feColorMatrix type="matrix" values="0 0 0 0 1 0 0 0 0 1 0 0 0 0 1 0 0 0 0.25 0"/>
<feBlend mode="normal" in2="effect1_dropShadow_4189_12443" result="effect2_dropShadow_4189_12443"/>
<feBlend mode="normal" in="SourceGraphic" in2="effect2_dropShadow_4189_12443" result="shape"/>
</filter>
</defs>
</svg>
