<svg width="290" height="182" viewBox="0 0 290 182" fill="none" xmlns="http://www.w3.org/2000/svg">
<g filter="url(#filter0_dd_4190_12448)">
<rect x="20" y="20" width="248" height="140" rx="10" fill="white"/>
</g>
<path d="M55 70C63.2843 70 70 63.2843 70 55C70 46.7157 63.2843 40 55 40C46.7157 40 40 46.7157 40 55C40 63.2843 46.7157 70 55 70Z" fill="#F0F0F0"/>
<path d="M70 54.9999C70 49.053 66.5392 43.9145 61.5217 41.4883V68.5114C66.5392 66.0852 70 60.9468 70 54.9999Z" fill="#D80027"/>
<path d="M40 54.9999C40 60.9468 43.4608 66.0852 48.4783 68.5115V41.4883C43.4608 43.9145 40 49.053 40 54.9999Z" fill="#D80027"/>
<path d="M57.6087 56.9573L60.2174 55.6529L58.9131 55.0008V53.6964L56.3044 55.0008L57.6087 52.3921H56.3044L55 50.4355L53.6957 52.3921H52.3913L53.6957 55.0008L51.087 53.6964V55.0008L49.7827 55.6529L52.3913 56.9573L51.7392 58.2616H54.3479V60.2181H55.6522V58.2616H58.2609L57.6087 56.9573Z" fill="#D80027"/>
<path d="M41.162 94V84.2H45.404C46.2813 84.2 47.0373 84.3447 47.672 84.634C48.3067 84.914 48.7967 85.32 49.142 85.852C49.4873 86.384 49.66 87.0187 49.66 87.756C49.66 88.484 49.4873 89.114 49.142 89.646C48.7967 90.178 48.3067 90.5887 47.672 90.878C47.0373 91.158 46.2813 91.298 45.404 91.298H42.422L43.43 90.276V94H41.162ZM43.43 90.528L42.422 89.45H45.278C45.978 89.45 46.5007 89.3007 46.846 89.002C47.1913 88.7033 47.364 88.288 47.364 87.756C47.364 87.2147 47.1913 86.7947 46.846 86.496C46.5007 86.1973 45.978 86.048 45.278 86.048H42.422L43.43 84.97V90.528ZM51.4792 94V84.2H53.7472V94H51.4792ZM56.2729 94V84.2H60.5149C61.3923 84.2 62.1483 84.3447 62.7829 84.634C63.4176 84.914 63.9076 85.32 64.2529 85.852C64.5983 86.384 64.7709 87.0187 64.7709 87.756C64.7709 88.484 64.5983 89.114 64.2529 89.646C63.9076 90.178 63.4176 90.5887 62.7829 90.878C62.1483 91.158 61.3923 91.298 60.5149 91.298H57.5329L58.5409 90.276V94H56.2729ZM58.5409 90.528L57.5329 89.45H60.3889C61.0889 89.45 61.6116 89.3007 61.9569 89.002C62.3023 88.7033 62.4749 88.288 62.4749 87.756C62.4749 87.2147 62.3023 86.7947 61.9569 86.496C61.6116 86.1973 61.0889 86.048 60.3889 86.048H57.5329L58.5409 84.97V90.528ZM68.6761 88.148H73.3941V89.912H68.6761V88.148ZM68.8441 92.18H74.1781V94H66.5901V84.2H73.9961V86.02H68.8441V92.18ZM76.1827 94V84.2H80.6347C81.6987 84.2 82.6367 84.4053 83.4487 84.816C84.2607 85.2173 84.8954 85.782 85.3527 86.51C85.81 87.238 86.0387 88.1013 86.0387 89.1C86.0387 90.0893 85.81 90.9527 85.3527 91.69C84.8954 92.418 84.2607 92.9873 83.4487 93.398C82.6367 93.7993 81.6987 94 80.6347 94H76.1827ZM78.4507 92.138H80.5227C81.176 92.138 81.7407 92.0167 82.2167 91.774C82.702 91.522 83.0754 91.1673 83.3367 90.71C83.6074 90.2527 83.7427 89.716 83.7427 89.1C83.7427 88.4747 83.6074 87.938 83.3367 87.49C83.0754 87.0327 82.702 86.6827 82.2167 86.44C81.7407 86.188 81.176 86.062 80.5227 86.062H78.4507V92.138ZM86.5244 94L90.8924 84.2H93.1324L97.5144 94H95.1344L91.5504 85.348H92.4464L88.8484 94H86.5244ZM88.7084 91.9L89.3104 90.178H94.3504L94.9664 91.9H88.7084ZM45.016 112.096C44.376 112.096 43.784 111.992 43.24 111.784C42.704 111.568 42.236 111.268 41.836 110.884C41.444 110.492 41.136 110.036 40.912 109.516C40.688 108.996 40.576 108.424 40.576 107.8C40.576 107.176 40.688 106.604 40.912 106.084C41.136 105.564 41.448 105.112 41.848 104.728C42.248 104.336 42.716 104.036 43.252 103.828C43.796 103.612 44.388 103.504 45.028 103.504C45.676 103.504 46.272 103.616 46.816 103.84C47.368 104.056 47.836 104.38 48.22 104.812L47.44 105.568C47.12 105.232 46.76 104.984 46.36 104.824C45.96 104.656 45.532 104.572 45.076 104.572C44.604 104.572 44.164 104.652 43.756 104.812C43.356 104.972 43.008 105.196 42.712 105.484C42.416 105.772 42.184 106.116 42.016 106.516C41.856 106.908 41.776 107.336 41.776 107.8C41.776 108.264 41.856 108.696 42.016 109.096C42.184 109.488 42.416 109.828 42.712 110.116C43.008 110.404 43.356 110.628 43.756 110.788C44.164 110.948 44.604 111.028 45.076 111.028C45.532 111.028 45.96 110.948 46.36 110.788C46.76 110.62 47.12 110.364 47.44 110.02L48.22 110.776C47.836 111.208 47.368 111.536 46.816 111.76C46.272 111.984 45.672 112.096 45.016 112.096ZM53.8298 112V110.656L53.7698 110.404V108.112C53.7698 107.624 53.6258 107.248 53.3378 106.984C53.0578 106.712 52.6338 106.576 52.0658 106.576C51.6898 106.576 51.3218 106.64 50.9618 106.768C50.6018 106.888 50.2978 107.052 50.0498 107.26L49.5698 106.396C49.8978 106.132 50.2898 105.932 50.7458 105.796C51.2098 105.652 51.6938 105.58 52.1978 105.58C53.0698 105.58 53.7418 105.792 54.2138 106.216C54.6858 106.64 54.9218 107.288 54.9218 108.16V112H53.8298ZM51.7418 112.072C51.2698 112.072 50.8538 111.992 50.4938 111.832C50.1418 111.672 49.8698 111.452 49.6778 111.172C49.4858 110.884 49.3898 110.56 49.3898 110.2C49.3898 109.856 49.4698 109.544 49.6298 109.264C49.7978 108.984 50.0658 108.76 50.4338 108.592C50.8098 108.424 51.3138 108.34 51.9458 108.34H53.9618V109.168H51.9938C51.4178 109.168 51.0298 109.264 50.8298 109.456C50.6298 109.648 50.5298 109.88 50.5298 110.152C50.5298 110.464 50.6538 110.716 50.9018 110.908C51.1498 111.092 51.4938 111.184 51.9338 111.184C52.3658 111.184 52.7418 111.088 53.0618 110.896C53.3898 110.704 53.6258 110.424 53.7698 110.056L53.9978 110.848C53.8458 111.224 53.5778 111.524 53.1938 111.748C52.8098 111.964 52.3258 112.072 51.7418 112.072ZM60.6497 105.58C61.1697 105.58 61.6257 105.68 62.0177 105.88C62.4177 106.08 62.7297 106.384 62.9537 106.792C63.1777 107.2 63.2897 107.716 63.2897 108.34V112H62.1377V108.472C62.1377 107.856 61.9857 107.392 61.6817 107.08C61.3857 106.768 60.9657 106.612 60.4217 106.612C60.0137 106.612 59.6577 106.692 59.3537 106.852C59.0497 107.012 58.8137 107.248 58.6457 107.56C58.4857 107.872 58.4057 108.26 58.4057 108.724V112H57.2537V105.64H58.3577V107.356L58.1777 106.9C58.3857 106.484 58.7057 106.16 59.1377 105.928C59.5697 105.696 60.0737 105.58 60.6497 105.58ZM69.5697 112V110.656L69.5097 110.404V108.112C69.5097 107.624 69.3657 107.248 69.0777 106.984C68.7977 106.712 68.3737 106.576 67.8057 106.576C67.4297 106.576 67.0617 106.64 66.7017 106.768C66.3417 106.888 66.0377 107.052 65.7897 107.26L65.3097 106.396C65.6377 106.132 66.0297 105.932 66.4857 105.796C66.9497 105.652 67.4337 105.58 67.9377 105.58C68.8097 105.58 69.4817 105.792 69.9537 106.216C70.4257 106.64 70.6617 107.288 70.6617 108.16V112H69.5697ZM67.4817 112.072C67.0097 112.072 66.5937 111.992 66.2337 111.832C65.8817 111.672 65.6097 111.452 65.4177 111.172C65.2257 110.884 65.1297 110.56 65.1297 110.2C65.1297 109.856 65.2097 109.544 65.3697 109.264C65.5377 108.984 65.8057 108.76 66.1737 108.592C66.5497 108.424 67.0537 108.34 67.6857 108.34H69.7017V109.168H67.7337C67.1577 109.168 66.7697 109.264 66.5697 109.456C66.3697 109.648 66.2697 109.88 66.2697 110.152C66.2697 110.464 66.3937 110.716 66.6417 110.908C66.8897 111.092 67.2337 111.184 67.6737 111.184C68.1057 111.184 68.4817 111.088 68.8017 110.896C69.1297 110.704 69.3657 110.424 69.5097 110.056L69.7377 110.848C69.5857 111.224 69.3177 111.524 68.9337 111.748C68.5497 111.964 68.0657 112.072 67.4817 112.072ZM75.6216 112.072C75.0056 112.072 74.4536 111.936 73.9656 111.664C73.4856 111.392 73.1056 111.012 72.8256 110.524C72.5456 110.036 72.4056 109.468 72.4056 108.82C72.4056 108.172 72.5456 107.608 72.8256 107.128C73.1056 106.64 73.4856 106.26 73.9656 105.988C74.4536 105.716 75.0056 105.58 75.6216 105.58C76.1576 105.58 76.6416 105.7 77.0736 105.94C77.5056 106.18 77.8496 106.54 78.1056 107.02C78.3696 107.5 78.5016 108.1 78.5016 108.82C78.5016 109.54 78.3736 110.14 78.1176 110.62C77.8696 111.1 77.5296 111.464 77.0976 111.712C76.6656 111.952 76.1736 112.072 75.6216 112.072ZM75.7176 111.064C76.1176 111.064 76.4776 110.972 76.7976 110.788C77.1256 110.604 77.3816 110.344 77.5656 110.008C77.7576 109.664 77.8536 109.268 77.8536 108.82C77.8536 108.364 77.7576 107.972 77.5656 107.644C77.3816 107.308 77.1256 107.048 76.7976 106.864C76.4776 106.68 76.1176 106.588 75.7176 106.588C75.3096 106.588 74.9456 106.68 74.6256 106.864C74.3056 107.048 74.0496 107.308 73.8576 107.644C73.6656 107.972 73.5696 108.364 73.5696 108.82C73.5696 109.268 73.6656 109.664 73.8576 110.008C74.0496 110.344 74.3056 110.604 74.6256 110.788C74.9456 110.972 75.3096 111.064 75.7176 111.064ZM77.8896 112V110.284L77.9616 108.808L77.8416 107.332V103.096H78.9936V112H77.8896ZM85.3213 112V110.656L85.2613 110.404V108.112C85.2613 107.624 85.1173 107.248 84.8293 106.984C84.5493 106.712 84.1253 106.576 83.5573 106.576C83.1813 106.576 82.8133 106.64 82.4533 106.768C82.0933 106.888 81.7893 107.052 81.5413 107.26L81.0613 106.396C81.3893 106.132 81.7813 105.932 82.2373 105.796C82.7013 105.652 83.1853 105.58 83.6893 105.58C84.5613 105.58 85.2333 105.792 85.7053 106.216C86.1773 106.64 86.4133 107.288 86.4133 108.16V112H85.3213ZM83.2333 112.072C82.7613 112.072 82.3453 111.992 81.9853 111.832C81.6333 111.672 81.3613 111.452 81.1693 111.172C80.9773 110.884 80.8813 110.56 80.8813 110.2C80.8813 109.856 80.9613 109.544 81.1213 109.264C81.2893 108.984 81.5573 108.76 81.9253 108.592C82.3013 108.424 82.8053 108.34 83.4373 108.34H85.4533V109.168H83.4853C82.9093 109.168 82.5213 109.264 82.3213 109.456C82.1213 109.648 82.0213 109.88 82.0213 110.152C82.0213 110.464 82.1453 110.716 82.3933 110.908C82.6413 111.092 82.9853 111.184 83.4253 111.184C83.8573 111.184 84.2333 111.088 84.5533 110.896C84.8813 110.704 85.1173 110.424 85.2613 110.056L85.4893 110.848C85.3373 111.224 85.0693 111.524 84.6853 111.748C84.3013 111.964 83.8173 112.072 83.2333 112.072ZM92.3358 112V103.6H95.6118C96.3478 103.6 96.9758 103.716 97.4958 103.948C98.0158 104.18 98.4158 104.516 98.6958 104.956C98.9758 105.396 99.1158 105.92 99.1158 106.528C99.1158 107.136 98.9758 107.66 98.6958 108.1C98.4158 108.532 98.0158 108.868 97.4958 109.108C96.9758 109.34 96.3478 109.456 95.6118 109.456H92.9958L93.5358 108.892V112H92.3358ZM93.5358 109.012L92.9958 108.412H95.5758C96.3438 108.412 96.9238 108.248 97.3158 107.92C97.7158 107.592 97.9158 107.128 97.9158 106.528C97.9158 105.928 97.7158 105.464 97.3158 105.136C96.9238 104.808 96.3438 104.644 95.5758 104.644H92.9958L93.5358 104.044V109.012ZM103.719 112.072C103.039 112.072 102.439 111.932 101.919 111.652C101.407 111.372 101.007 110.988 100.719 110.5C100.439 110.012 100.299 109.452 100.299 108.82C100.299 108.188 100.435 107.628 100.707 107.14C100.987 106.652 101.367 106.272 101.847 106C102.335 105.72 102.883 105.58 103.491 105.58C104.107 105.58 104.651 105.716 105.123 105.988C105.595 106.26 105.963 106.644 106.227 107.14C106.499 107.628 106.635 108.2 106.635 108.856C106.635 108.904 106.631 108.96 106.623 109.024C106.623 109.088 106.619 109.148 106.611 109.204H101.199V108.376H106.011L105.543 108.664C105.551 108.256 105.467 107.892 105.291 107.572C105.115 107.252 104.871 107.004 104.559 106.828C104.255 106.644 103.899 106.552 103.491 106.552C103.091 106.552 102.735 106.644 102.423 106.828C102.111 107.004 101.867 107.256 101.691 107.584C101.515 107.904 101.427 108.272 101.427 108.688V108.88C101.427 109.304 101.523 109.684 101.715 110.02C101.915 110.348 102.191 110.604 102.543 110.788C102.895 110.972 103.299 111.064 103.755 111.064C104.131 111.064 104.471 111 104.775 110.872C105.087 110.744 105.359 110.552 105.591 110.296L106.227 111.04C105.939 111.376 105.579 111.632 105.147 111.808C104.723 111.984 104.247 112.072 103.719 112.072ZM108.435 112V105.64H109.539V107.368L109.431 106.936C109.607 106.496 109.903 106.16 110.319 105.928C110.735 105.696 111.247 105.58 111.855 105.58V106.696C111.807 106.688 111.759 106.684 111.711 106.684C111.671 106.684 111.631 106.684 111.591 106.684C110.975 106.684 110.487 106.868 110.127 107.236C109.767 107.604 109.587 108.136 109.587 108.832V112H108.435ZM115.369 112.072C114.841 112.072 114.337 112 113.857 111.856C113.385 111.712 113.013 111.536 112.741 111.328L113.221 110.416C113.493 110.6 113.829 110.756 114.229 110.884C114.629 111.012 115.037 111.076 115.453 111.076C115.989 111.076 116.373 111 116.605 110.848C116.845 110.696 116.965 110.484 116.965 110.212C116.965 110.012 116.893 109.856 116.749 109.744C116.605 109.632 116.413 109.548 116.173 109.492C115.941 109.436 115.681 109.388 115.393 109.348C115.105 109.3 114.817 109.244 114.529 109.18C114.241 109.108 113.977 109.012 113.737 108.892C113.497 108.764 113.305 108.592 113.161 108.376C113.017 108.152 112.945 107.856 112.945 107.488C112.945 107.104 113.053 106.768 113.269 106.48C113.485 106.192 113.789 105.972 114.181 105.82C114.581 105.66 115.053 105.58 115.597 105.58C116.013 105.58 116.433 105.632 116.857 105.736C117.289 105.832 117.641 105.972 117.913 106.156L117.421 107.068C117.133 106.876 116.833 106.744 116.521 106.672C116.209 106.6 115.897 106.564 115.585 106.564C115.081 106.564 114.705 106.648 114.457 106.816C114.209 106.976 114.085 107.184 114.085 107.44C114.085 107.656 114.157 107.824 114.301 107.944C114.453 108.056 114.645 108.144 114.877 108.208C115.117 108.272 115.381 108.328 115.669 108.376C115.957 108.416 116.245 108.472 116.533 108.544C116.821 108.608 117.081 108.7 117.313 108.82C117.553 108.94 117.745 109.108 117.889 109.324C118.041 109.54 118.117 109.828 118.117 110.188C118.117 110.572 118.005 110.904 117.781 111.184C117.557 111.464 117.241 111.684 116.833 111.844C116.425 111.996 115.937 112.072 115.369 112.072ZM122.481 112.072C121.841 112.072 121.273 111.932 120.777 111.652C120.281 111.372 119.889 110.988 119.601 110.5C119.313 110.004 119.169 109.444 119.169 108.82C119.169 108.188 119.313 107.628 119.601 107.14C119.889 106.652 120.281 106.272 120.777 106C121.273 105.72 121.841 105.58 122.481 105.58C123.113 105.58 123.677 105.72 124.173 106C124.677 106.272 125.069 106.652 125.349 107.14C125.637 107.62 125.781 108.18 125.781 108.82C125.781 109.452 125.637 110.012 125.349 110.5C125.069 110.988 124.677 111.372 124.173 111.652C123.677 111.932 123.113 112.072 122.481 112.072ZM122.481 111.064C122.889 111.064 123.253 110.972 123.573 110.788C123.901 110.604 124.157 110.344 124.341 110.008C124.525 109.664 124.617 109.268 124.617 108.82C124.617 108.364 124.525 107.972 124.341 107.644C124.157 107.308 123.901 107.048 123.573 106.864C123.253 106.68 122.889 106.588 122.481 106.588C122.073 106.588 121.709 106.68 121.389 106.864C121.069 107.048 120.813 107.308 120.621 107.644C120.429 107.972 120.333 108.364 120.333 108.82C120.333 109.268 120.429 109.664 120.621 110.008C120.813 110.344 121.069 110.604 121.389 110.788C121.709 110.972 122.073 111.064 122.481 111.064ZM130.97 105.58C131.49 105.58 131.946 105.68 132.338 105.88C132.738 106.08 133.05 106.384 133.274 106.792C133.498 107.2 133.61 107.716 133.61 108.34V112H132.458V108.472C132.458 107.856 132.306 107.392 132.002 107.08C131.706 106.768 131.286 106.612 130.742 106.612C130.334 106.612 129.978 106.692 129.674 106.852C129.37 107.012 129.134 107.248 128.966 107.56C128.806 107.872 128.726 108.26 128.726 108.724V112H127.574V105.64H128.678V107.356L128.498 106.9C128.706 106.484 129.026 106.16 129.458 105.928C129.89 105.696 130.394 105.58 130.97 105.58ZM139.89 112V110.656L139.83 110.404V108.112C139.83 107.624 139.686 107.248 139.398 106.984C139.118 106.712 138.694 106.576 138.126 106.576C137.75 106.576 137.382 106.64 137.022 106.768C136.662 106.888 136.358 107.052 136.11 107.26L135.63 106.396C135.958 106.132 136.35 105.932 136.806 105.796C137.27 105.652 137.754 105.58 138.258 105.58C139.13 105.58 139.802 105.792 140.274 106.216C140.746 106.64 140.982 107.288 140.982 108.16V112H139.89ZM137.802 112.072C137.33 112.072 136.914 111.992 136.554 111.832C136.202 111.672 135.93 111.452 135.738 111.172C135.546 110.884 135.45 110.56 135.45 110.2C135.45 109.856 135.53 109.544 135.69 109.264C135.858 108.984 136.126 108.76 136.494 108.592C136.87 108.424 137.374 108.34 138.006 108.34H140.022V109.168H138.054C137.478 109.168 137.09 109.264 136.89 109.456C136.69 109.648 136.59 109.88 136.59 110.152C136.59 110.464 136.714 110.716 136.962 110.908C137.21 111.092 137.554 111.184 137.994 111.184C138.426 111.184 138.802 111.088 139.122 110.896C139.45 110.704 139.686 110.424 139.83 110.056L140.058 110.848C139.906 111.224 139.638 111.524 139.254 111.748C138.87 111.964 138.386 112.072 137.802 112.072ZM143.314 112V103.096H144.466V112H143.314ZM150.456 112V103.6H151.656V112H150.456ZM157.599 105.58C158.119 105.58 158.575 105.68 158.967 105.88C159.367 106.08 159.679 106.384 159.903 106.792C160.127 107.2 160.239 107.716 160.239 108.34V112H159.087V108.472C159.087 107.856 158.935 107.392 158.631 107.08C158.335 106.768 157.915 106.612 157.371 106.612C156.963 106.612 156.607 106.692 156.303 106.852C155.999 107.012 155.763 107.248 155.595 107.56C155.435 107.872 155.355 108.26 155.355 108.724V112H154.203V105.64H155.307V107.356L155.127 106.9C155.335 106.484 155.655 106.16 156.087 105.928C156.519 105.696 157.023 105.58 157.599 105.58ZM162.739 112V105.076C162.739 104.452 162.919 103.956 163.279 103.588C163.647 103.212 164.167 103.024 164.839 103.024C165.087 103.024 165.323 103.056 165.547 103.12C165.779 103.176 165.975 103.268 166.135 103.396L165.787 104.272C165.667 104.176 165.531 104.104 165.379 104.056C165.227 104 165.067 103.972 164.899 103.972C164.563 103.972 164.307 104.068 164.131 104.26C163.955 104.444 163.867 104.72 163.867 105.088V105.94L163.891 106.468V112H162.739ZM161.659 106.588V105.64H165.715V106.588H161.659ZM169.632 112.072C168.992 112.072 168.424 111.932 167.928 111.652C167.432 111.372 167.04 110.988 166.752 110.5C166.464 110.004 166.32 109.444 166.32 108.82C166.32 108.188 166.464 107.628 166.752 107.14C167.04 106.652 167.432 106.272 167.928 106C168.424 105.72 168.992 105.58 169.632 105.58C170.264 105.58 170.828 105.72 171.324 106C171.828 106.272 172.22 106.652 172.5 107.14C172.788 107.62 172.932 108.18 172.932 108.82C172.932 109.452 172.788 110.012 172.5 110.5C172.22 110.988 171.828 111.372 171.324 111.652C170.828 111.932 170.264 112.072 169.632 112.072ZM169.632 111.064C170.04 111.064 170.404 110.972 170.724 110.788C171.052 110.604 171.308 110.344 171.492 110.008C171.676 109.664 171.768 109.268 171.768 108.82C171.768 108.364 171.676 107.972 171.492 107.644C171.308 107.308 171.052 107.048 170.724 106.864C170.404 106.68 170.04 106.588 169.632 106.588C169.224 106.588 168.86 106.68 168.54 106.864C168.22 107.048 167.964 107.308 167.772 107.644C167.58 107.972 167.484 108.364 167.484 108.82C167.484 109.268 167.58 109.664 167.772 110.008C167.964 110.344 168.22 110.604 168.54 110.788C168.86 110.972 169.224 111.064 169.632 111.064ZM174.725 112V105.64H175.829V107.368L175.721 106.936C175.897 106.496 176.193 106.16 176.609 105.928C177.025 105.696 177.537 105.58 178.145 105.58V106.696C178.097 106.688 178.049 106.684 178.001 106.684C177.961 106.684 177.921 106.684 177.881 106.684C177.265 106.684 176.777 106.868 176.417 107.236C176.057 107.604 175.877 108.136 175.877 108.832V112H174.725ZM187.721 105.58C188.233 105.58 188.685 105.68 189.077 105.88C189.469 106.08 189.773 106.384 189.989 106.792C190.213 107.2 190.325 107.716 190.325 108.34V112H189.173V108.472C189.173 107.856 189.029 107.392 188.741 107.08C188.453 106.768 188.049 106.612 187.529 106.612C187.145 106.612 186.809 106.692 186.521 106.852C186.233 107.012 186.009 107.248 185.849 107.56C185.697 107.872 185.621 108.26 185.621 108.724V112H184.469V108.472C184.469 107.856 184.325 107.392 184.037 107.08C183.757 106.768 183.353 106.612 182.825 106.612C182.449 106.612 182.117 106.692 181.829 106.852C181.541 107.012 181.317 107.248 181.157 107.56C180.997 107.872 180.917 108.26 180.917 108.724V112H179.765V105.64H180.869V107.332L180.689 106.9C180.889 106.484 181.197 106.16 181.613 105.928C182.029 105.696 182.513 105.58 183.065 105.58C183.673 105.58 184.197 105.732 184.637 106.036C185.077 106.332 185.365 106.784 185.501 107.392L185.033 107.2C185.225 106.712 185.561 106.32 186.041 106.024C186.521 105.728 187.081 105.58 187.721 105.58ZM196.592 112V110.656L196.532 110.404V108.112C196.532 107.624 196.388 107.248 196.1 106.984C195.82 106.712 195.396 106.576 194.828 106.576C194.452 106.576 194.084 106.64 193.724 106.768C193.364 106.888 193.06 107.052 192.812 107.26L192.332 106.396C192.66 106.132 193.052 105.932 193.508 105.796C193.972 105.652 194.456 105.58 194.96 105.58C195.832 105.58 196.504 105.792 196.976 106.216C197.448 106.64 197.684 107.288 197.684 108.16V112H196.592ZM194.504 112.072C194.032 112.072 193.616 111.992 193.256 111.832C192.904 111.672 192.632 111.452 192.44 111.172C192.248 110.884 192.152 110.56 192.152 110.2C192.152 109.856 192.232 109.544 192.392 109.264C192.56 108.984 192.828 108.76 193.196 108.592C193.572 108.424 194.076 108.34 194.708 108.34H196.724V109.168H194.756C194.18 109.168 193.792 109.264 193.592 109.456C193.392 109.648 193.292 109.88 193.292 110.152C193.292 110.464 193.416 110.716 193.664 110.908C193.912 111.092 194.256 111.184 194.696 111.184C195.128 111.184 195.504 111.088 195.824 110.896C196.152 110.704 196.388 110.424 196.532 110.056L196.76 110.848C196.608 111.224 196.34 111.524 195.956 111.748C195.572 111.964 195.088 112.072 194.504 112.072ZM202.2 112.072C201.56 112.072 201.064 111.9 200.712 111.556C200.36 111.212 200.184 110.72 200.184 110.08V104.248H201.336V110.032C201.336 110.376 201.42 110.64 201.588 110.824C201.764 111.008 202.012 111.1 202.332 111.1C202.692 111.1 202.992 111 203.232 110.8L203.592 111.628C203.416 111.78 203.204 111.892 202.956 111.964C202.716 112.036 202.464 112.072 202.2 112.072ZM199.104 106.588V105.64H203.16V106.588H199.104ZM205.185 112V105.64H206.337V112H205.185ZM205.761 104.416C205.537 104.416 205.349 104.344 205.197 104.2C205.053 104.056 204.981 103.88 204.981 103.672C204.981 103.456 205.053 103.276 205.197 103.132C205.349 102.988 205.537 102.916 205.761 102.916C205.985 102.916 206.169 102.988 206.313 103.132C206.465 103.268 206.541 103.44 206.541 103.648C206.541 103.864 206.469 104.048 206.325 104.2C206.181 104.344 205.993 104.416 205.761 104.416ZM211.461 112.072C210.821 112.072 210.253 111.932 209.757 111.652C209.261 111.372 208.869 110.988 208.581 110.5C208.293 110.004 208.149 109.444 208.149 108.82C208.149 108.188 208.293 107.628 208.581 107.14C208.869 106.652 209.261 106.272 209.757 106C210.253 105.72 210.821 105.58 211.461 105.58C212.093 105.58 212.657 105.72 213.153 106C213.657 106.272 214.049 106.652 214.329 107.14C214.617 107.62 214.761 108.18 214.761 108.82C214.761 109.452 214.617 110.012 214.329 110.5C214.049 110.988 213.657 111.372 213.153 111.652C212.657 111.932 212.093 112.072 211.461 112.072ZM211.461 111.064C211.869 111.064 212.233 110.972 212.553 110.788C212.881 110.604 213.137 110.344 213.321 110.008C213.505 109.664 213.597 109.268 213.597 108.82C213.597 108.364 213.505 107.972 213.321 107.644C213.137 107.308 212.881 107.048 212.553 106.864C212.233 106.68 211.869 106.588 211.461 106.588C211.053 106.588 210.689 106.68 210.369 106.864C210.049 107.048 209.793 107.308 209.601 107.644C209.409 107.972 209.313 108.364 209.313 108.82C209.313 109.268 209.409 109.664 209.601 110.008C209.793 110.344 210.049 110.604 210.369 110.788C210.689 110.972 211.053 111.064 211.461 111.064ZM219.95 105.58C220.47 105.58 220.926 105.68 221.318 105.88C221.718 106.08 222.03 106.384 222.254 106.792C222.478 107.2 222.59 107.716 222.59 108.34V112H221.438V108.472C221.438 107.856 221.286 107.392 220.982 107.08C220.686 106.768 220.266 106.612 219.722 106.612C219.314 106.612 218.958 106.692 218.654 106.852C218.35 107.012 218.114 107.248 217.946 107.56C217.786 107.872 217.706 108.26 217.706 108.724V112H216.554V105.64H217.658V107.356L217.478 106.9C217.686 106.484 218.006 106.16 218.438 105.928C218.87 105.696 219.374 105.58 219.95 105.58ZM41.26 130V121.6H44.536C45.272 121.6 45.9 121.716 46.42 121.948C46.94 122.18 47.34 122.516 47.62 122.956C47.9 123.396 48.04 123.92 48.04 124.528C48.04 125.136 47.9 125.66 47.62 126.1C47.34 126.532 46.94 126.868 46.42 127.108C45.9 127.34 45.272 127.456 44.536 127.456H41.92L42.46 126.892V130H41.26ZM42.46 127.012L41.92 126.412H44.5C45.268 126.412 45.848 126.248 46.24 125.92C46.64 125.592 46.84 125.128 46.84 124.528C46.84 123.928 46.64 123.464 46.24 123.136C45.848 122.808 45.268 122.644 44.5 122.644H41.92L42.46 122.044V127.012ZM49.7178 130V123.64H50.8218V125.368L50.7138 124.936C50.8898 124.496 51.1858 124.16 51.6018 123.928C52.0178 123.696 52.5298 123.58 53.1378 123.58V124.696C53.0898 124.688 53.0418 124.684 52.9938 124.684C52.9538 124.684 52.9138 124.684 52.8738 124.684C52.2578 124.684 51.7698 124.868 51.4098 125.236C51.0498 125.604 50.8698 126.136 50.8698 126.832V130H49.7178ZM57.423 130.072C56.783 130.072 56.215 129.932 55.719 129.652C55.223 129.372 54.831 128.988 54.543 128.5C54.255 128.004 54.111 127.444 54.111 126.82C54.111 126.188 54.255 125.628 54.543 125.14C54.831 124.652 55.223 124.272 55.719 124C56.215 123.72 56.783 123.58 57.423 123.58C58.055 123.58 58.619 123.72 59.115 124C59.619 124.272 60.011 124.652 60.291 125.14C60.579 125.62 60.723 126.18 60.723 126.82C60.723 127.452 60.579 128.012 60.291 128.5C60.011 128.988 59.619 129.372 59.115 129.652C58.619 129.932 58.055 130.072 57.423 130.072ZM57.423 129.064C57.831 129.064 58.195 128.972 58.515 128.788C58.843 128.604 59.099 128.344 59.283 128.008C59.467 127.664 59.559 127.268 59.559 126.82C59.559 126.364 59.467 125.972 59.283 125.644C59.099 125.308 58.843 125.048 58.515 124.864C58.195 124.68 57.831 124.588 57.423 124.588C57.015 124.588 56.651 124.68 56.331 124.864C56.011 125.048 55.755 125.308 55.563 125.644C55.371 125.972 55.275 126.364 55.275 126.82C55.275 127.268 55.371 127.664 55.563 128.008C55.755 128.344 56.011 128.604 56.331 128.788C56.651 128.972 57.015 129.064 57.423 129.064ZM64.7002 130.072C64.0602 130.072 63.5642 129.9 63.2122 129.556C62.8602 129.212 62.6842 128.72 62.6842 128.08V122.248H63.8362V128.032C63.8362 128.376 63.9202 128.64 64.0882 128.824C64.2642 129.008 64.5122 129.1 64.8322 129.1C65.1922 129.1 65.4922 129 65.7322 128.8L66.0922 129.628C65.9162 129.78 65.7042 129.892 65.4562 129.964C65.2162 130.036 64.9642 130.072 64.7002 130.072ZM61.6042 124.588V123.64H65.6602V124.588H61.6042ZM70.306 130.072C69.626 130.072 69.026 129.932 68.506 129.652C67.994 129.372 67.594 128.988 67.306 128.5C67.026 128.012 66.886 127.452 66.886 126.82C66.886 126.188 67.022 125.628 67.294 125.14C67.574 124.652 67.954 124.272 68.434 124C68.922 123.72 69.47 123.58 70.078 123.58C70.694 123.58 71.238 123.716 71.71 123.988C72.182 124.26 72.55 124.644 72.814 125.14C73.086 125.628 73.222 126.2 73.222 126.856C73.222 126.904 73.218 126.96 73.21 127.024C73.21 127.088 73.206 127.148 73.198 127.204H67.786V126.376H72.598L72.13 126.664C72.138 126.256 72.054 125.892 71.878 125.572C71.702 125.252 71.458 125.004 71.146 124.828C70.842 124.644 70.486 124.552 70.078 124.552C69.678 124.552 69.322 124.644 69.01 124.828C68.698 125.004 68.454 125.256 68.278 125.584C68.102 125.904 68.014 126.272 68.014 126.688V126.88C68.014 127.304 68.11 127.684 68.302 128.02C68.502 128.348 68.778 128.604 69.13 128.788C69.482 128.972 69.886 129.064 70.342 129.064C70.718 129.064 71.058 129 71.362 128.872C71.674 128.744 71.946 128.552 72.178 128.296L72.814 129.04C72.526 129.376 72.166 129.632 71.734 129.808C71.31 129.984 70.834 130.072 70.306 130.072ZM77.7937 130.072C77.1457 130.072 76.5657 129.932 76.0537 129.652C75.5497 129.372 75.1537 128.988 74.8657 128.5C74.5777 128.012 74.4337 127.452 74.4337 126.82C74.4337 126.188 74.5777 125.628 74.8657 125.14C75.1537 124.652 75.5497 124.272 76.0537 124C76.5657 123.72 77.1457 123.58 77.7937 123.58C78.3697 123.58 78.8817 123.696 79.3297 123.928C79.7857 124.152 80.1377 124.488 80.3857 124.936L79.5097 125.5C79.3017 125.188 79.0457 124.96 78.7417 124.816C78.4457 124.664 78.1257 124.588 77.7817 124.588C77.3657 124.588 76.9937 124.68 76.6657 124.864C76.3377 125.048 76.0777 125.308 75.8857 125.644C75.6937 125.972 75.5977 126.364 75.5977 126.82C75.5977 127.276 75.6937 127.672 75.8857 128.008C76.0777 128.344 76.3377 128.604 76.6657 128.788C76.9937 128.972 77.3657 129.064 77.7817 129.064C78.1257 129.064 78.4457 128.992 78.7417 128.848C79.0457 128.696 79.3017 128.464 79.5097 128.152L80.3857 128.704C80.1377 129.144 79.7857 129.484 79.3297 129.724C78.8817 129.956 78.3697 130.072 77.7937 130.072ZM84.3432 130.072C83.7032 130.072 83.2072 129.9 82.8552 129.556C82.5032 129.212 82.3272 128.72 82.3272 128.08V122.248H83.4792V128.032C83.4792 128.376 83.5632 128.64 83.7312 128.824C83.9072 129.008 84.1552 129.1 84.4752 129.1C84.8352 129.1 85.1352 129 85.3752 128.8L85.7352 129.628C85.5592 129.78 85.3472 129.892 85.0992 129.964C84.8592 130.036 84.6072 130.072 84.3432 130.072ZM81.2472 124.588V123.64H85.3032V124.588H81.2472ZM87.3279 130V123.64H88.4799V130H87.3279ZM87.9039 122.416C87.6799 122.416 87.4919 122.344 87.3399 122.2C87.1959 122.056 87.1239 121.88 87.1239 121.672C87.1239 121.456 87.1959 121.276 87.3399 121.132C87.4919 120.988 87.6799 120.916 87.9039 120.916C88.1279 120.916 88.3119 120.988 88.4559 121.132C88.6079 121.268 88.6839 121.44 88.6839 121.648C88.6839 121.864 88.6119 122.048 88.4679 122.2C88.3239 122.344 88.1359 122.416 87.9039 122.416ZM93.6035 130.072C92.9635 130.072 92.3955 129.932 91.8995 129.652C91.4035 129.372 91.0115 128.988 90.7235 128.5C90.4355 128.004 90.2915 127.444 90.2915 126.82C90.2915 126.188 90.4355 125.628 90.7235 125.14C91.0115 124.652 91.4035 124.272 91.8995 124C92.3955 123.72 92.9635 123.58 93.6035 123.58C94.2355 123.58 94.7995 123.72 95.2955 124C95.7995 124.272 96.1915 124.652 96.4715 125.14C96.7595 125.62 96.9035 126.18 96.9035 126.82C96.9035 127.452 96.7595 128.012 96.4715 128.5C96.1915 128.988 95.7995 129.372 95.2955 129.652C94.7995 129.932 94.2355 130.072 93.6035 130.072ZM93.6035 129.064C94.0115 129.064 94.3755 128.972 94.6955 128.788C95.0235 128.604 95.2795 128.344 95.4635 128.008C95.6475 127.664 95.7395 127.268 95.7395 126.82C95.7395 126.364 95.6475 125.972 95.4635 125.644C95.2795 125.308 95.0235 125.048 94.6955 124.864C94.3755 124.68 94.0115 124.588 93.6035 124.588C93.1955 124.588 92.8315 124.68 92.5115 124.864C92.1915 125.048 91.9355 125.308 91.7435 125.644C91.5515 125.972 91.4555 126.364 91.4555 126.82C91.4555 127.268 91.5515 127.664 91.7435 128.008C91.9355 128.344 92.1915 128.604 92.5115 128.788C92.8315 128.972 93.1955 129.064 93.6035 129.064ZM102.093 123.58C102.613 123.58 103.069 123.68 103.461 123.88C103.861 124.08 104.173 124.384 104.397 124.792C104.621 125.2 104.733 125.716 104.733 126.34V130H103.581V126.472C103.581 125.856 103.429 125.392 103.125 125.08C102.829 124.768 102.409 124.612 101.865 124.612C101.457 124.612 101.101 124.692 100.797 124.852C100.493 125.012 100.257 125.248 100.089 125.56C99.9287 125.872 99.8487 126.26 99.8487 126.724V130H98.6967V123.64H99.8007V125.356L99.6207 124.9C99.8287 124.484 100.149 124.16 100.581 123.928C101.013 123.696 101.517 123.58 102.093 123.58ZM114.435 130V128.656L114.375 128.404V126.112C114.375 125.624 114.231 125.248 113.943 124.984C113.663 124.712 113.239 124.576 112.671 124.576C112.295 124.576 111.927 124.64 111.567 124.768C111.207 124.888 110.903 125.052 110.655 125.26L110.175 124.396C110.503 124.132 110.895 123.932 111.351 123.796C111.815 123.652 112.299 123.58 112.803 123.58C113.675 123.58 114.347 123.792 114.819 124.216C115.291 124.64 115.527 125.288 115.527 126.16V130H114.435ZM112.347 130.072C111.875 130.072 111.459 129.992 111.099 129.832C110.747 129.672 110.475 129.452 110.283 129.172C110.091 128.884 109.995 128.56 109.995 128.2C109.995 127.856 110.075 127.544 110.235 127.264C110.403 126.984 110.671 126.76 111.039 126.592C111.415 126.424 111.919 126.34 112.551 126.34H114.567V127.168H112.599C112.023 127.168 111.635 127.264 111.435 127.456C111.235 127.648 111.135 127.88 111.135 128.152C111.135 128.464 111.259 128.716 111.507 128.908C111.755 129.092 112.099 129.184 112.539 129.184C112.971 129.184 113.347 129.088 113.667 128.896C113.995 128.704 114.231 128.424 114.375 128.056L114.603 128.848C114.451 129.224 114.183 129.524 113.799 129.748C113.415 129.964 112.931 130.072 112.347 130.072ZM121.255 123.58C121.775 123.58 122.231 123.68 122.623 123.88C123.023 124.08 123.335 124.384 123.559 124.792C123.783 125.2 123.895 125.716 123.895 126.34V130H122.743V126.472C122.743 125.856 122.591 125.392 122.287 125.08C121.991 124.768 121.571 124.612 121.027 124.612C120.619 124.612 120.263 124.692 119.959 124.852C119.655 125.012 119.419 125.248 119.251 125.56C119.091 125.872 119.011 126.26 119.011 126.724V130H117.859V123.64H118.963V125.356L118.783 124.9C118.991 124.484 119.311 124.16 119.743 123.928C120.175 123.696 120.679 123.58 121.255 123.58ZM128.855 130.072C128.239 130.072 127.687 129.936 127.199 129.664C126.719 129.392 126.339 129.012 126.059 128.524C125.779 128.036 125.639 127.468 125.639 126.82C125.639 126.172 125.779 125.608 126.059 125.128C126.339 124.64 126.719 124.26 127.199 123.988C127.687 123.716 128.239 123.58 128.855 123.58C129.391 123.58 129.875 123.7 130.307 123.94C130.739 124.18 131.083 124.54 131.339 125.02C131.603 125.5 131.735 126.1 131.735 126.82C131.735 127.54 131.607 128.14 131.351 128.62C131.103 129.1 130.763 129.464 130.331 129.712C129.899 129.952 129.407 130.072 128.855 130.072ZM128.951 129.064C129.351 129.064 129.711 128.972 130.031 128.788C130.359 128.604 130.615 128.344 130.799 128.008C130.991 127.664 131.087 127.268 131.087 126.82C131.087 126.364 130.991 125.972 130.799 125.644C130.615 125.308 130.359 125.048 130.031 124.864C129.711 124.68 129.351 124.588 128.951 124.588C128.543 124.588 128.179 124.68 127.859 124.864C127.539 125.048 127.283 125.308 127.091 125.644C126.899 125.972 126.803 126.364 126.803 126.82C126.803 127.268 126.899 127.664 127.091 128.008C127.283 128.344 127.539 128.604 127.859 128.788C128.179 128.972 128.543 129.064 128.951 129.064ZM131.123 130V128.284L131.195 126.808L131.075 125.332V121.096H132.227V130H131.123ZM139.29 125.224H143.61V126.244H139.29V125.224ZM139.398 128.956H144.294V130H138.198V121.6H144.126V122.644H139.398V128.956ZM146.269 130V121.096H147.421V130H146.269ZM152.652 130.072C151.972 130.072 151.372 129.932 150.852 129.652C150.34 129.372 149.94 128.988 149.652 128.5C149.372 128.012 149.232 127.452 149.232 126.82C149.232 126.188 149.368 125.628 149.64 125.14C149.92 124.652 150.3 124.272 150.78 124C151.268 123.72 151.816 123.58 152.424 123.58C153.04 123.58 153.584 123.716 154.056 123.988C154.528 124.26 154.896 124.644 155.16 125.14C155.432 125.628 155.568 126.2 155.568 126.856C155.568 126.904 155.564 126.96 155.556 127.024C155.556 127.088 155.552 127.148 155.544 127.204H150.132V126.376H154.944L154.476 126.664C154.484 126.256 154.4 125.892 154.224 125.572C154.048 125.252 153.804 125.004 153.492 124.828C153.188 124.644 152.832 124.552 152.424 124.552C152.024 124.552 151.668 124.644 151.356 124.828C151.044 125.004 150.8 125.256 150.624 125.584C150.448 125.904 150.36 126.272 150.36 126.688V126.88C150.36 127.304 150.456 127.684 150.648 128.02C150.848 128.348 151.124 128.604 151.476 128.788C151.828 128.972 152.232 129.064 152.688 129.064C153.064 129.064 153.404 129 153.708 128.872C154.02 128.744 154.292 128.552 154.524 128.296L155.16 129.04C154.872 129.376 154.512 129.632 154.08 129.808C153.656 129.984 153.18 130.072 152.652 130.072ZM160.14 130.072C159.492 130.072 158.912 129.932 158.4 129.652C157.896 129.372 157.5 128.988 157.212 128.5C156.924 128.012 156.78 127.452 156.78 126.82C156.78 126.188 156.924 125.628 157.212 125.14C157.5 124.652 157.896 124.272 158.4 124C158.912 123.72 159.492 123.58 160.14 123.58C160.716 123.58 161.228 123.696 161.676 123.928C162.132 124.152 162.484 124.488 162.732 124.936L161.856 125.5C161.648 125.188 161.392 124.96 161.088 124.816C160.792 124.664 160.472 124.588 160.128 124.588C159.712 124.588 159.34 124.68 159.012 124.864C158.684 125.048 158.424 125.308 158.232 125.644C158.04 125.972 157.944 126.364 157.944 126.82C157.944 127.276 158.04 127.672 158.232 128.008C158.424 128.344 158.684 128.604 159.012 128.788C159.34 128.972 159.712 129.064 160.128 129.064C160.472 129.064 160.792 128.992 161.088 128.848C161.392 128.696 161.648 128.464 161.856 128.152L162.732 128.704C162.484 129.144 162.132 129.484 161.676 129.724C161.228 129.956 160.716 130.072 160.14 130.072ZM166.689 130.072C166.049 130.072 165.553 129.9 165.201 129.556C164.849 129.212 164.673 128.72 164.673 128.08V122.248H165.825V128.032C165.825 128.376 165.909 128.64 166.077 128.824C166.253 129.008 166.501 129.1 166.821 129.1C167.181 129.1 167.481 129 167.721 128.8L168.081 129.628C167.905 129.78 167.693 129.892 167.445 129.964C167.205 130.036 166.953 130.072 166.689 130.072ZM163.593 124.588V123.64H167.649V124.588H163.593ZM169.674 130V123.64H170.778V125.368L170.67 124.936C170.846 124.496 171.142 124.16 171.558 123.928C171.974 123.696 172.486 123.58 173.094 123.58V124.696C173.046 124.688 172.998 124.684 172.95 124.684C172.91 124.684 172.87 124.684 172.83 124.684C172.214 124.684 171.726 124.868 171.366 125.236C171.006 125.604 170.826 126.136 170.826 126.832V130H169.674ZM177.379 130.072C176.739 130.072 176.171 129.932 175.675 129.652C175.179 129.372 174.787 128.988 174.499 128.5C174.211 128.004 174.067 127.444 174.067 126.82C174.067 126.188 174.211 125.628 174.499 125.14C174.787 124.652 175.179 124.272 175.675 124C176.171 123.72 176.739 123.58 177.379 123.58C178.011 123.58 178.575 123.72 179.071 124C179.575 124.272 179.967 124.652 180.247 125.14C180.535 125.62 180.679 126.18 180.679 126.82C180.679 127.452 180.535 128.012 180.247 128.5C179.967 128.988 179.575 129.372 179.071 129.652C178.575 129.932 178.011 130.072 177.379 130.072ZM177.379 129.064C177.787 129.064 178.151 128.972 178.471 128.788C178.799 128.604 179.055 128.344 179.239 128.008C179.423 127.664 179.515 127.268 179.515 126.82C179.515 126.364 179.423 125.972 179.239 125.644C179.055 125.308 178.799 125.048 178.471 124.864C178.151 124.68 177.787 124.588 177.379 124.588C176.971 124.588 176.607 124.68 176.287 124.864C175.967 125.048 175.711 125.308 175.519 125.644C175.327 125.972 175.231 126.364 175.231 126.82C175.231 127.268 175.327 127.664 175.519 128.008C175.711 128.344 175.967 128.604 176.287 128.788C176.607 128.972 176.971 129.064 177.379 129.064ZM185.868 123.58C186.388 123.58 186.844 123.68 187.236 123.88C187.636 124.08 187.948 124.384 188.172 124.792C188.396 125.2 188.508 125.716 188.508 126.34V130H187.356V126.472C187.356 125.856 187.204 125.392 186.9 125.08C186.604 124.768 186.184 124.612 185.64 124.612C185.232 124.612 184.876 124.692 184.572 124.852C184.268 125.012 184.032 125.248 183.864 125.56C183.704 125.872 183.624 126.26 183.624 126.724V130H182.472V123.64H183.576V125.356L183.396 124.9C183.604 124.484 183.924 124.16 184.356 123.928C184.788 123.696 185.292 123.58 185.868 123.58ZM190.84 130V123.64H191.992V130H190.84ZM191.416 122.416C191.192 122.416 191.004 122.344 190.852 122.2C190.708 122.056 190.636 121.88 190.636 121.672C190.636 121.456 190.708 121.276 190.852 121.132C191.004 120.988 191.192 120.916 191.416 120.916C191.64 120.916 191.824 120.988 191.968 121.132C192.12 121.268 192.196 121.44 192.196 121.648C192.196 121.864 192.124 122.048 191.98 122.2C191.836 122.344 191.648 122.416 191.416 122.416ZM197.164 130.072C196.516 130.072 195.936 129.932 195.424 129.652C194.92 129.372 194.524 128.988 194.236 128.5C193.948 128.012 193.804 127.452 193.804 126.82C193.804 126.188 193.948 125.628 194.236 125.14C194.524 124.652 194.92 124.272 195.424 124C195.936 123.72 196.516 123.58 197.164 123.58C197.74 123.58 198.252 123.696 198.7 123.928C199.156 124.152 199.508 124.488 199.756 124.936L198.88 125.5C198.672 125.188 198.416 124.96 198.112 124.816C197.816 124.664 197.496 124.588 197.152 124.588C196.736 124.588 196.364 124.68 196.036 124.864C195.708 125.048 195.448 125.308 195.256 125.644C195.064 125.972 194.968 126.364 194.968 126.82C194.968 127.276 195.064 127.672 195.256 128.008C195.448 128.344 195.708 128.604 196.036 128.788C196.364 128.972 196.736 129.064 197.152 129.064C197.496 129.064 197.816 128.992 198.112 128.848C198.416 128.696 198.672 128.464 198.88 128.152L199.756 128.704C199.508 129.144 199.156 129.484 198.7 129.724C198.252 129.956 197.74 130.072 197.164 130.072ZM41.26 148V139.6H44.8C45.696 139.6 46.484 139.776 47.164 140.128C47.852 140.48 48.384 140.972 48.76 141.604C49.144 142.236 49.336 142.968 49.336 143.8C49.336 144.632 49.144 145.364 48.76 145.996C48.384 146.628 47.852 147.12 47.164 147.472C46.484 147.824 45.696 148 44.8 148H41.26ZM42.46 146.956H44.728C45.424 146.956 46.024 146.824 46.528 146.56C47.04 146.296 47.436 145.928 47.716 145.456C47.996 144.976 48.136 144.424 48.136 143.8C48.136 143.168 47.996 142.616 47.716 142.144C47.436 141.672 47.04 141.304 46.528 141.04C46.024 140.776 45.424 140.644 44.728 140.644H42.46V146.956ZM53.9301 148.072C53.2901 148.072 52.7221 147.932 52.2261 147.652C51.7301 147.372 51.3381 146.988 51.0501 146.5C50.7621 146.004 50.6181 145.444 50.6181 144.82C50.6181 144.188 50.7621 143.628 51.0501 143.14C51.3381 142.652 51.7301 142.272 52.2261 142C52.7221 141.72 53.2901 141.58 53.9301 141.58C54.5621 141.58 55.1261 141.72 55.6221 142C56.1261 142.272 56.5181 142.652 56.7981 143.14C57.0861 143.62 57.2301 144.18 57.2301 144.82C57.2301 145.452 57.0861 146.012 56.7981 146.5C56.5181 146.988 56.1261 147.372 55.6221 147.652C55.1261 147.932 54.5621 148.072 53.9301 148.072ZM53.9301 147.064C54.3381 147.064 54.7021 146.972 55.0221 146.788C55.3501 146.604 55.6061 146.344 55.7901 146.008C55.9741 145.664 56.0661 145.268 56.0661 144.82C56.0661 144.364 55.9741 143.972 55.7901 143.644C55.6061 143.308 55.3501 143.048 55.0221 142.864C54.7021 142.68 54.3381 142.588 53.9301 142.588C53.5221 142.588 53.1581 142.68 52.8381 142.864C52.5181 143.048 52.2621 143.308 52.0701 143.644C51.8781 143.972 51.7821 144.364 51.7821 144.82C51.7821 145.268 51.8781 145.664 52.0701 146.008C52.2621 146.344 52.5181 146.604 52.8381 146.788C53.1581 146.972 53.5221 147.064 53.9301 147.064ZM61.7952 148.072C61.1472 148.072 60.5672 147.932 60.0552 147.652C59.5512 147.372 59.1552 146.988 58.8672 146.5C58.5792 146.012 58.4352 145.452 58.4352 144.82C58.4352 144.188 58.5792 143.628 58.8672 143.14C59.1552 142.652 59.5512 142.272 60.0552 142C60.5672 141.72 61.1472 141.58 61.7952 141.58C62.3712 141.58 62.8832 141.696 63.3312 141.928C63.7872 142.152 64.1393 142.488 64.3873 142.936L63.5113 143.5C63.3032 143.188 63.0472 142.96 62.7432 142.816C62.4472 142.664 62.1272 142.588 61.7832 142.588C61.3672 142.588 60.9952 142.68 60.6672 142.864C60.3392 143.048 60.0792 143.308 59.8872 143.644C59.6952 143.972 59.5992 144.364 59.5992 144.82C59.5992 145.276 59.6952 145.672 59.8872 146.008C60.0792 146.344 60.3392 146.604 60.6672 146.788C60.9952 146.972 61.3672 147.064 61.7832 147.064C62.1272 147.064 62.4472 146.992 62.7432 146.848C63.0472 146.696 63.3032 146.464 63.5113 146.152L64.3873 146.704C64.1393 147.144 63.7872 147.484 63.3312 147.724C62.8832 147.956 62.3712 148.072 61.7952 148.072ZM68.7547 148.072C68.2107 148.072 67.7307 147.972 67.3147 147.772C66.9067 147.572 66.5867 147.268 66.3547 146.86C66.1307 146.444 66.0187 145.924 66.0187 145.3V141.64H67.1707V145.168C67.1707 145.792 67.3187 146.26 67.6147 146.572C67.9187 146.884 68.3427 147.04 68.8867 147.04C69.2867 147.04 69.6347 146.96 69.9307 146.8C70.2267 146.632 70.4547 146.392 70.6147 146.08C70.7747 145.76 70.8547 145.376 70.8547 144.928V141.64H72.0067V148H70.9147V146.284L71.0947 146.74C70.8867 147.164 70.5747 147.492 70.1587 147.724C69.7427 147.956 69.2747 148.072 68.7547 148.072ZM82.3558 141.58C82.8678 141.58 83.3198 141.68 83.7118 141.88C84.1038 142.08 84.4078 142.384 84.6238 142.792C84.8478 143.2 84.9598 143.716 84.9598 144.34V148H83.8078V144.472C83.8078 143.856 83.6638 143.392 83.3758 143.08C83.0878 142.768 82.6838 142.612 82.1638 142.612C81.7798 142.612 81.4438 142.692 81.1558 142.852C80.8678 143.012 80.6438 143.248 80.4838 143.56C80.3318 143.872 80.2558 144.26 80.2558 144.724V148H79.1038V144.472C79.1038 143.856 78.9598 143.392 78.6718 143.08C78.3918 142.768 77.9878 142.612 77.4598 142.612C77.0838 142.612 76.7518 142.692 76.4638 142.852C76.1758 143.012 75.9518 143.248 75.7918 143.56C75.6318 143.872 75.5518 144.26 75.5518 144.724V148H74.3998V141.64H75.5038V143.332L75.3238 142.9C75.5238 142.484 75.8318 142.16 76.2478 141.928C76.6638 141.696 77.1478 141.58 77.6998 141.58C78.3078 141.58 78.8318 141.732 79.2718 142.036C79.7118 142.332 79.9998 142.784 80.1358 143.392L79.6678 143.2C79.8598 142.712 80.1958 142.32 80.6758 142.024C81.1558 141.728 81.7158 141.58 82.3558 141.58ZM90.1115 148.072C89.4315 148.072 88.8315 147.932 88.3115 147.652C87.7995 147.372 87.3995 146.988 87.1115 146.5C86.8315 146.012 86.6915 145.452 86.6915 144.82C86.6915 144.188 86.8275 143.628 87.0995 143.14C87.3795 142.652 87.7595 142.272 88.2395 142C88.7275 141.72 89.2755 141.58 89.8835 141.58C90.4995 141.58 91.0435 141.716 91.5155 141.988C91.9875 142.26 92.3555 142.644 92.6195 143.14C92.8915 143.628 93.0275 144.2 93.0275 144.856C93.0275 144.904 93.0235 144.96 93.0155 145.024C93.0155 145.088 93.0115 145.148 93.0035 145.204H87.5915V144.376H92.4035L91.9355 144.664C91.9435 144.256 91.8595 143.892 91.6835 143.572C91.5075 143.252 91.2635 143.004 90.9515 142.828C90.6475 142.644 90.2915 142.552 89.8835 142.552C89.4835 142.552 89.1275 142.644 88.8155 142.828C88.5035 143.004 88.2595 143.256 88.0835 143.584C87.9075 143.904 87.8195 144.272 87.8195 144.688V144.88C87.8195 145.304 87.9155 145.684 88.1075 146.02C88.3075 146.348 88.5835 146.604 88.9355 146.788C89.2875 146.972 89.6915 147.064 90.1475 147.064C90.5235 147.064 90.8635 147 91.1675 146.872C91.4795 146.744 91.7515 146.552 91.9835 146.296L92.6195 147.04C92.3315 147.376 91.9715 147.632 91.5395 147.808C91.1155 147.984 90.6395 148.072 90.1115 148.072ZM98.2232 141.58C98.7432 141.58 99.1992 141.68 99.5912 141.88C99.9912 142.08 100.303 142.384 100.527 142.792C100.751 143.2 100.863 143.716 100.863 144.34V148H99.7112V144.472C99.7112 143.856 99.5592 143.392 99.2552 143.08C98.9592 142.768 98.5392 142.612 97.9952 142.612C97.5872 142.612 97.2312 142.692 96.9272 142.852C96.6232 143.012 96.3872 143.248 96.2192 143.56C96.0592 143.872 95.9792 144.26 95.9792 144.724V148H94.8272V141.64H95.9312V143.356L95.7512 142.9C95.9592 142.484 96.2792 142.16 96.7112 141.928C97.1432 141.696 97.6472 141.58 98.2232 141.58ZM105.379 148.072C104.739 148.072 104.243 147.9 103.891 147.556C103.539 147.212 103.363 146.72 103.363 146.08V140.248H104.515V146.032C104.515 146.376 104.599 146.64 104.767 146.824C104.943 147.008 105.191 147.1 105.511 147.1C105.871 147.1 106.171 147 106.411 146.8L106.771 147.628C106.595 147.78 106.383 147.892 106.135 147.964C105.895 148.036 105.643 148.072 105.379 148.072ZM102.283 142.588V141.64H106.339V142.588H102.283ZM110.188 148.072C109.66 148.072 109.156 148 108.676 147.856C108.204 147.712 107.832 147.536 107.56 147.328L108.04 146.416C108.312 146.6 108.648 146.756 109.048 146.884C109.448 147.012 109.856 147.076 110.272 147.076C110.808 147.076 111.192 147 111.424 146.848C111.664 146.696 111.784 146.484 111.784 146.212C111.784 146.012 111.712 145.856 111.568 145.744C111.424 145.632 111.232 145.548 110.992 145.492C110.76 145.436 110.5 145.388 110.212 145.348C109.924 145.3 109.636 145.244 109.348 145.18C109.06 145.108 108.796 145.012 108.556 144.892C108.316 144.764 108.124 144.592 107.98 144.376C107.836 144.152 107.764 143.856 107.764 143.488C107.764 143.104 107.872 142.768 108.088 142.48C108.304 142.192 108.608 141.972 109 141.82C109.4 141.66 109.872 141.58 110.416 141.58C110.832 141.58 111.252 141.632 111.676 141.736C112.108 141.832 112.46 141.972 112.732 142.156L112.24 143.068C111.952 142.876 111.652 142.744 111.34 142.672C111.028 142.6 110.716 142.564 110.404 142.564C109.9 142.564 109.524 142.648 109.276 142.816C109.028 142.976 108.904 143.184 108.904 143.44C108.904 143.656 108.976 143.824 109.12 143.944C109.272 144.056 109.464 144.144 109.696 144.208C109.936 144.272 110.2 144.328 110.488 144.376C110.776 144.416 111.064 144.472 111.352 144.544C111.64 144.608 111.9 144.7 112.132 144.82C112.372 144.94 112.564 145.108 112.708 145.324C112.86 145.54 112.936 145.828 112.936 146.188C112.936 146.572 112.824 146.904 112.6 147.184C112.376 147.464 112.06 147.684 111.652 147.844C111.244 147.996 110.756 148.072 110.188 148.072ZM116.894 148L120.698 139.6H121.886L125.702 148H124.442L121.046 140.272H121.526L118.13 148H116.894ZM118.514 145.9L118.838 144.94H123.566L123.914 145.9H118.514ZM129.701 148.072C129.053 148.072 128.473 147.932 127.961 147.652C127.457 147.372 127.061 146.988 126.773 146.5C126.485 146.012 126.341 145.452 126.341 144.82C126.341 144.188 126.485 143.628 126.773 143.14C127.061 142.652 127.457 142.272 127.961 142C128.473 141.72 129.053 141.58 129.701 141.58C130.277 141.58 130.789 141.696 131.237 141.928C131.693 142.152 132.045 142.488 132.293 142.936L131.417 143.5C131.209 143.188 130.953 142.96 130.649 142.816C130.353 142.664 130.033 142.588 129.689 142.588C129.273 142.588 128.901 142.68 128.573 142.864C128.245 143.048 127.985 143.308 127.793 143.644C127.601 143.972 127.505 144.364 127.505 144.82C127.505 145.276 127.601 145.672 127.793 146.008C127.985 146.344 128.245 146.604 128.573 146.788C128.901 146.972 129.273 147.064 129.689 147.064C130.033 147.064 130.353 146.992 130.649 146.848C130.953 146.696 131.209 146.464 131.417 146.152L132.293 146.704C132.045 147.144 131.693 147.484 131.237 147.724C130.789 147.956 130.277 148.072 129.701 148.072ZM136.25 148.072C135.61 148.072 135.114 147.9 134.762 147.556C134.41 147.212 134.234 146.72 134.234 146.08V140.248H135.386V146.032C135.386 146.376 135.47 146.64 135.638 146.824C135.814 147.008 136.062 147.1 136.382 147.1C136.742 147.1 137.042 147 137.282 146.8L137.642 147.628C137.466 147.78 137.254 147.892 137.006 147.964C136.766 148.036 136.514 148.072 136.25 148.072ZM133.154 142.588V141.64H137.21V142.588H133.154Z" fill="#19191F"/>
<path d="M248 54.5C248 53.0166 247.56 51.5666 246.736 50.3332C245.912 49.0999 244.741 48.1386 243.37 47.5709C242 47.0032 240.492 46.8547 239.037 47.1441C237.582 47.4335 236.246 48.1478 235.197 49.1967C234.148 50.2456 233.434 51.582 233.144 53.0368C232.855 54.4917 233.003 55.9997 233.571 57.3701C234.139 58.7406 235.1 59.9119 236.333 60.736C237.567 61.5601 239.017 62 240.5 62C242.488 61.9978 244.395 61.2069 245.801 59.8009C247.207 58.3948 247.998 56.4884 248 54.5ZM239.97 58.0303C239.9 57.9606 239.845 57.878 239.807 57.787C239.769 57.696 239.75 57.5985 239.75 57.5C239.75 57.4015 239.769 57.304 239.807 57.213C239.845 57.122 239.9 57.0393 239.97 56.9697L241.689 55.25H237.5C237.301 55.25 237.11 55.171 236.97 55.0303C236.829 54.8897 236.75 54.6989 236.75 54.5C236.75 54.3011 236.829 54.1103 236.97 53.9697C237.11 53.829 237.301 53.75 237.5 53.75H241.689L239.97 52.0303C239.831 51.8892 239.754 51.6991 239.755 51.5014C239.756 51.3037 239.835 51.1143 239.975 50.9745C240.114 50.8347 240.304 50.7558 240.501 50.7549C240.699 50.754 240.889 50.8312 241.03 50.9698L244.03 53.9695C244.17 54.1105 244.249 54.3012 244.249 54.5C244.249 54.6988 244.17 54.8895 244.03 55.0305L241.03 58.0303C240.961 58.0999 240.878 58.1552 240.787 58.1929C240.696 58.2306 240.598 58.25 240.5 58.25C240.402 58.25 240.304 58.2306 240.213 58.1929C240.122 58.1552 240.039 58.0999 239.97 58.0303Z" fill="#5B588F"/>
<defs>
<filter id="filter0_dd_4190_12448" x="0" y="0" width="290" height="182" filterUnits="userSpaceOnUse" color-interpolation-filters="sRGB">
<feFlood flood-opacity="0" result="BackgroundImageFix"/>
<feColorMatrix in="SourceAlpha" type="matrix" values="0 0 0 0 0 0 0 0 0 0 0 0 0 0 0 0 0 0 127 0" result="hardAlpha"/>
<feMorphology radius="2" operator="dilate" in="SourceAlpha" result="effect1_dropShadow_4190_12448"/>
<feOffset dx="4" dy="4"/>
<feGaussianBlur stdDeviation="8"/>
<feComposite in2="hardAlpha" operator="out"/>
<feColorMatrix type="matrix" values="0 0 0 0 1 0 0 0 0 1 0 0 0 0 1 0 0 0 0.25 0"/>
<feBlend mode="normal" in2="BackgroundImageFix" result="effect1_dropShadow_4190_12448"/>
<feColorMatrix in="SourceAlpha" type="matrix" values="0 0 0 0 0 0 0 0 0 0 0 0 0 0 0 0 0 0 127 0" result="hardAlpha"/>
<feOffset dx="-4" dy="-4"/>
<feGaussianBlur stdDeviation="8"/>
<feComposite in2="hardAlpha" operator="out"/>
<feColorMatrix type="matrix" values="0 0 0 0 1 0 0 0 0 1 0 0 0 0 1 0 0 0 0.25 0"/>
<feBlend mode="normal" in2="effect1_dropShadow_4190_12448" result="effect2_dropShadow_4190_12448"/>
<feBlend mode="normal" in="SourceGraphic" in2="effect2_dropShadow_4190_12448" result="shape"/>
</filter>
</defs>
</svg>
