<svg width="290" height="182" viewBox="0 0 290 182" fill="none" xmlns="http://www.w3.org/2000/svg">
<g filter="url(#filter0_dd_4189_12444)">
<rect x="20" y="20" width="248" height="140" rx="10" fill="white"/>
</g>
<path d="M44.382 94.168C43.598 94.168 42.8467 94.0653 42.128 93.86C41.4093 93.6453 40.8307 93.37 40.392 93.034L41.162 91.326C41.582 91.6247 42.0767 91.872 42.646 92.068C43.2247 92.2547 43.808 92.348 44.396 92.348C44.844 92.348 45.2033 92.306 45.474 92.222C45.754 92.1287 45.9593 92.0027 46.09 91.844C46.2207 91.6853 46.286 91.5033 46.286 91.298C46.286 91.0367 46.1833 90.8313 45.978 90.682C45.7727 90.5233 45.502 90.3973 45.166 90.304C44.83 90.2013 44.4567 90.108 44.046 90.024C43.6447 89.9307 43.2387 89.8187 42.828 89.688C42.4267 89.5573 42.058 89.3893 41.722 89.184C41.386 88.9787 41.1107 88.708 40.896 88.372C40.6907 88.036 40.588 87.6067 40.588 87.084C40.588 86.524 40.7373 86.0153 41.036 85.558C41.344 85.0913 41.8013 84.7227 42.408 84.452C43.024 84.172 43.794 84.032 44.718 84.032C45.334 84.032 45.9407 84.1067 46.538 84.256C47.1353 84.396 47.6627 84.6107 48.12 84.9L47.42 86.622C46.9627 86.3607 46.5053 86.1693 46.048 86.048C45.5907 85.9173 45.1427 85.852 44.704 85.852C44.2653 85.852 43.906 85.9033 43.626 86.006C43.346 86.1087 43.1453 86.244 43.024 86.412C42.9027 86.5707 42.842 86.7573 42.842 86.972C42.842 87.224 42.9447 87.4293 43.15 87.588C43.3553 87.7373 43.626 87.8587 43.962 87.952C44.298 88.0453 44.6667 88.1387 45.068 88.232C45.4787 88.3253 45.8847 88.4327 46.286 88.554C46.6967 88.6753 47.07 88.8387 47.406 89.044C47.742 89.2493 48.0127 89.52 48.218 89.856C48.4327 90.192 48.54 90.6167 48.54 91.13C48.54 91.6807 48.386 92.1847 48.078 92.642C47.77 93.0993 47.308 93.468 46.692 93.748C46.0853 94.028 45.3153 94.168 44.382 94.168ZM53.7197 94.112C52.9171 94.112 52.2031 93.944 51.5777 93.608C50.9617 93.272 50.4717 92.8147 50.1077 92.236C49.7531 91.648 49.5757 90.9807 49.5757 90.234C49.5757 89.478 49.7531 88.8107 50.1077 88.232C50.4717 87.644 50.9617 87.1867 51.5777 86.86C52.2031 86.524 52.9171 86.356 53.7197 86.356C54.5131 86.356 55.2224 86.524 55.8477 86.86C56.4731 87.1867 56.9631 87.6393 57.3177 88.218C57.6724 88.7967 57.8497 89.4687 57.8497 90.234C57.8497 90.9807 57.6724 91.648 57.3177 92.236C56.9631 92.8147 56.4731 93.272 55.8477 93.608C55.2224 93.944 54.5131 94.112 53.7197 94.112ZM53.7197 92.32C54.0837 92.32 54.4104 92.236 54.6997 92.068C54.9891 91.9 55.2177 91.662 55.3857 91.354C55.5537 91.0367 55.6377 90.6633 55.6377 90.234C55.6377 89.7953 55.5537 89.422 55.3857 89.114C55.2177 88.806 54.9891 88.568 54.6997 88.4C54.4104 88.232 54.0837 88.148 53.7197 88.148C53.3557 88.148 53.0291 88.232 52.7397 88.4C52.4504 88.568 52.2171 88.806 52.0397 89.114C51.8717 89.422 51.7877 89.7953 51.7877 90.234C51.7877 90.6633 51.8717 91.0367 52.0397 91.354C52.2171 91.662 52.4504 91.9 52.7397 92.068C53.0291 92.236 53.3557 92.32 53.7197 92.32ZM62.6876 94.112C62.0622 94.112 61.5022 93.9907 61.0076 93.748C60.5222 93.5053 60.1442 93.1367 59.8736 92.642C59.6029 92.138 59.4676 91.4987 59.4676 90.724V86.468H61.6516V90.402C61.6516 91.0273 61.7822 91.4893 62.0436 91.788C62.3142 92.0773 62.6922 92.222 63.1776 92.222C63.5136 92.222 63.8122 92.152 64.0736 92.012C64.3349 91.8627 64.5402 91.6387 64.6896 91.34C64.8389 91.032 64.9136 90.6493 64.9136 90.192V86.468H67.0976V94H65.0256V91.928L65.4036 92.53C65.1516 93.0527 64.7782 93.4493 64.2836 93.72C63.7982 93.9813 63.2662 94.112 62.6876 94.112ZM72.4009 94.112C71.5142 94.112 70.8236 93.888 70.3289 93.44C69.8342 92.9827 69.5869 92.306 69.5869 91.41V84.802H71.7709V91.382C71.7709 91.6993 71.8549 91.9467 72.0229 92.124C72.1909 92.292 72.4196 92.376 72.7089 92.376C73.0542 92.376 73.3482 92.2827 73.5909 92.096L74.1789 93.636C73.9549 93.7947 73.6842 93.916 73.3669 94C73.0589 94.0747 72.7369 94.112 72.4009 94.112ZM68.4249 88.316V86.636H73.6469V88.316H68.4249ZM80.1829 86.356C80.7802 86.356 81.3122 86.4773 81.7789 86.72C82.2549 86.9533 82.6282 87.3173 82.8989 87.812C83.1695 88.2973 83.3049 88.9227 83.3049 89.688V94H81.1209V90.024C81.1209 89.4173 80.9855 88.9693 80.7149 88.68C80.4535 88.3907 80.0802 88.246 79.5949 88.246C79.2495 88.246 78.9369 88.3207 78.6569 88.47C78.3862 88.61 78.1715 88.8293 78.0129 89.128C77.8635 89.4267 77.7889 89.8093 77.7889 90.276V94H75.6049V83.612H77.7889V88.554L77.2989 87.924C77.5695 87.42 77.9569 87.0327 78.4609 86.762C78.9649 86.4913 79.5389 86.356 80.1829 86.356ZM88.5154 94L92.8834 84.2H95.1234L99.5054 94H97.1254L93.5414 85.348H94.4374L90.8394 94H88.5154ZM90.6994 91.9L91.3014 90.178H96.3414L96.9574 91.9H90.6994ZM100.834 94V86.3C100.834 85.4507 101.086 84.774 101.59 84.27C102.094 83.7567 102.813 83.5 103.746 83.5C104.063 83.5 104.367 83.5327 104.656 83.598C104.955 83.6633 105.207 83.766 105.412 83.906L104.838 85.488C104.717 85.404 104.581 85.3387 104.432 85.292C104.283 85.2453 104.124 85.222 103.956 85.222C103.639 85.222 103.391 85.3153 103.214 85.502C103.046 85.6793 102.962 85.95 102.962 86.314V87.014L103.018 87.952V94H100.834ZM99.6722 88.316V86.636H104.894V88.316H99.6722ZM106.237 94V86.468H108.323V88.596L108.029 87.98C108.253 87.448 108.612 87.0467 109.107 86.776C109.602 86.496 110.204 86.356 110.913 86.356V88.372C110.82 88.3627 110.736 88.358 110.661 88.358C110.586 88.3487 110.507 88.344 110.423 88.344C109.826 88.344 109.34 88.5167 108.967 88.862C108.603 89.198 108.421 89.7253 108.421 90.444V94H106.237ZM112.425 94V86.468H114.609V94H112.425ZM113.517 85.418C113.116 85.418 112.789 85.3013 112.537 85.068C112.285 84.8347 112.159 84.5453 112.159 84.2C112.159 83.8547 112.285 83.5653 112.537 83.332C112.789 83.0987 113.116 82.982 113.517 82.982C113.919 82.982 114.245 83.094 114.497 83.318C114.749 83.5327 114.875 83.8127 114.875 84.158C114.875 84.522 114.749 84.8253 114.497 85.068C114.255 85.3013 113.928 85.418 113.517 85.418ZM120.476 94.112C119.664 94.112 118.941 93.9487 118.306 93.622C117.671 93.286 117.172 92.824 116.808 92.236C116.453 91.648 116.276 90.9807 116.276 90.234C116.276 89.478 116.453 88.8107 116.808 88.232C117.172 87.644 117.671 87.1867 118.306 86.86C118.941 86.524 119.664 86.356 120.476 86.356C121.269 86.356 121.96 86.524 122.548 86.86C123.136 87.1867 123.57 87.658 123.85 88.274L122.156 89.184C121.96 88.8293 121.713 88.568 121.414 88.4C121.125 88.232 120.807 88.148 120.462 88.148C120.089 88.148 119.753 88.232 119.454 88.4C119.155 88.568 118.917 88.806 118.74 89.114C118.572 89.422 118.488 89.7953 118.488 90.234C118.488 90.6727 118.572 91.046 118.74 91.354C118.917 91.662 119.155 91.9 119.454 92.068C119.753 92.236 120.089 92.32 120.462 92.32C120.807 92.32 121.125 92.2407 121.414 92.082C121.713 91.914 121.96 91.648 122.156 91.284L123.85 92.208C123.57 92.8147 123.136 93.286 122.548 93.622C121.96 93.9487 121.269 94.112 120.476 94.112ZM129.928 94V92.53L129.788 92.208V89.576C129.788 89.1093 129.643 88.7453 129.354 88.484C129.074 88.2227 128.64 88.092 128.052 88.092C127.65 88.092 127.254 88.1573 126.862 88.288C126.479 88.4093 126.152 88.5773 125.882 88.792L125.098 87.266C125.508 86.9767 126.003 86.7527 126.582 86.594C127.16 86.4353 127.748 86.356 128.346 86.356C129.494 86.356 130.385 86.6267 131.02 87.168C131.654 87.7093 131.972 88.554 131.972 89.702V94H129.928ZM127.632 94.112C127.044 94.112 126.54 94.014 126.12 93.818C125.7 93.6127 125.378 93.3373 125.154 92.992C124.93 92.6467 124.818 92.2593 124.818 91.83C124.818 91.382 124.925 90.99 125.14 90.654C125.364 90.318 125.714 90.0567 126.19 89.87C126.666 89.674 127.286 89.576 128.052 89.576H130.054V90.85H128.29C127.776 90.85 127.422 90.934 127.226 91.102C127.039 91.27 126.946 91.48 126.946 91.732C126.946 92.012 127.053 92.236 127.268 92.404C127.492 92.5627 127.795 92.642 128.178 92.642C128.542 92.642 128.868 92.558 129.158 92.39C129.447 92.2127 129.657 91.956 129.788 91.62L130.124 92.628C129.965 93.1133 129.676 93.482 129.256 93.734C128.836 93.986 128.294 94.112 127.632 94.112ZM138.467 94V84.2H142.709C143.586 84.2 144.342 84.3447 144.977 84.634C145.612 84.914 146.102 85.32 146.447 85.852C146.792 86.384 146.965 87.0187 146.965 87.756C146.965 88.484 146.792 89.114 146.447 89.646C146.102 90.178 145.612 90.5887 144.977 90.878C144.342 91.158 143.586 91.298 142.709 91.298H139.727L140.735 90.276V94H138.467ZM140.735 90.528L139.727 89.45H142.583C143.283 89.45 143.806 89.3007 144.151 89.002C144.496 88.7033 144.669 88.288 144.669 87.756C144.669 87.2147 144.496 86.7947 144.151 86.496C143.806 86.1973 143.283 86.048 142.583 86.048H139.727L140.735 84.97V90.528ZM153.681 94.168C152.906 94.168 152.188 94.042 151.525 93.79C150.872 93.538 150.302 93.1833 149.817 92.726C149.341 92.2687 148.968 91.732 148.697 91.116C148.436 90.5 148.305 89.828 148.305 89.1C148.305 88.372 148.436 87.7 148.697 87.084C148.968 86.468 149.346 85.9313 149.831 85.474C150.316 85.0167 150.886 84.662 151.539 84.41C152.192 84.158 152.902 84.032 153.667 84.032C154.442 84.032 155.151 84.158 155.795 84.41C156.448 84.662 157.013 85.0167 157.489 85.474C157.974 85.9313 158.352 86.468 158.623 87.084C158.894 87.6907 159.029 88.3627 159.029 89.1C159.029 89.828 158.894 90.5047 158.623 91.13C158.352 91.746 157.974 92.2827 157.489 92.74C157.013 93.188 156.448 93.538 155.795 93.79C155.151 94.042 154.446 94.168 153.681 94.168ZM153.667 92.236C154.106 92.236 154.507 92.1613 154.871 92.012C155.244 91.8627 155.571 91.648 155.851 91.368C156.131 91.088 156.346 90.7567 156.495 90.374C156.654 89.9913 156.733 89.5667 156.733 89.1C156.733 88.6333 156.654 88.2087 156.495 87.826C156.346 87.4433 156.131 87.112 155.851 86.832C155.58 86.552 155.258 86.3373 154.885 86.188C154.512 86.0387 154.106 85.964 153.667 85.964C153.228 85.964 152.822 86.0387 152.449 86.188C152.085 86.3373 151.763 86.552 151.483 86.832C151.203 87.112 150.984 87.4433 150.825 87.826C150.676 88.2087 150.601 88.6333 150.601 89.1C150.601 89.5573 150.676 89.982 150.825 90.374C150.984 90.7567 151.198 91.088 151.469 91.368C151.749 91.648 152.076 91.8627 152.449 92.012C152.822 92.1613 153.228 92.236 153.667 92.236ZM160.933 94V84.2H165.175C166.053 84.2 166.809 84.3447 167.443 84.634C168.078 84.914 168.568 85.32 168.913 85.852C169.259 86.384 169.431 87.0187 169.431 87.756C169.431 88.484 169.259 89.114 168.913 89.646C168.568 90.178 168.078 90.5887 167.443 90.878C166.809 91.158 166.053 91.298 165.175 91.298H162.193L163.201 90.276V94H160.933ZM163.201 90.528L162.193 89.45H165.049C165.749 89.45 166.272 89.3007 166.617 89.002C166.963 88.7033 167.135 88.288 167.135 87.756C167.135 87.2147 166.963 86.7947 166.617 86.496C166.272 86.1973 165.749 86.048 165.049 86.048H162.193L163.201 84.97V90.528ZM171.251 94V84.2H173.519V94H171.251ZM174.756 94L179.124 84.2H181.364L185.746 94H183.366L179.782 85.348H180.678L177.08 94H174.756ZM176.94 91.9L177.542 90.178H182.582L183.198 91.9H176.94ZM43.708 112.096C43.068 112.096 42.456 112 41.872 111.808C41.288 111.608 40.828 111.352 40.492 111.04L40.936 110.104C41.256 110.384 41.664 110.616 42.16 110.8C42.656 110.984 43.172 111.076 43.708 111.076C44.196 111.076 44.592 111.02 44.896 110.908C45.2 110.796 45.424 110.644 45.568 110.452C45.712 110.252 45.784 110.028 45.784 109.78C45.784 109.492 45.688 109.26 45.496 109.084C45.312 108.908 45.068 108.768 44.764 108.664C44.468 108.552 44.14 108.456 43.78 108.376C43.42 108.296 43.056 108.204 42.688 108.1C42.328 107.988 41.996 107.848 41.692 107.68C41.396 107.512 41.156 107.288 40.972 107.008C40.788 106.72 40.696 106.352 40.696 105.904C40.696 105.472 40.808 105.076 41.032 104.716C41.264 104.348 41.616 104.056 42.088 103.84C42.568 103.616 43.176 103.504 43.912 103.504C44.4 103.504 44.884 103.568 45.364 103.696C45.844 103.824 46.26 104.008 46.612 104.248L46.216 105.208C45.856 104.968 45.476 104.796 45.076 104.692C44.676 104.58 44.288 104.524 43.912 104.524C43.44 104.524 43.052 104.584 42.748 104.704C42.444 104.824 42.22 104.984 42.076 105.184C41.94 105.384 41.872 105.608 41.872 105.856C41.872 106.152 41.964 106.388 42.148 106.564C42.34 106.74 42.584 106.88 42.88 106.984C43.184 107.088 43.516 107.184 43.876 107.272C44.236 107.352 44.596 107.444 44.956 107.548C45.324 107.652 45.656 107.788 45.952 107.956C46.256 108.124 46.5 108.348 46.684 108.628C46.868 108.908 46.96 109.268 46.96 109.708C46.96 110.132 46.844 110.528 46.612 110.896C46.38 111.256 46.02 111.548 45.532 111.772C45.052 111.988 44.444 112.096 43.708 112.096ZM51.4691 112.072C50.8291 112.072 50.2611 111.932 49.7651 111.652C49.2691 111.372 48.8771 110.988 48.5891 110.5C48.3011 110.004 48.1571 109.444 48.1571 108.82C48.1571 108.188 48.3011 107.628 48.5891 107.14C48.8771 106.652 49.2691 106.272 49.7651 106C50.2611 105.72 50.8291 105.58 51.4691 105.58C52.1011 105.58 52.6651 105.72 53.1611 106C53.6651 106.272 54.0571 106.652 54.3371 107.14C54.6251 107.62 54.7691 108.18 54.7691 108.82C54.7691 109.452 54.6251 110.012 54.3371 110.5C54.0571 110.988 53.6651 111.372 53.1611 111.652C52.6651 111.932 52.1011 112.072 51.4691 112.072ZM51.4691 111.064C51.8771 111.064 52.2411 110.972 52.5611 110.788C52.8891 110.604 53.1451 110.344 53.3291 110.008C53.5131 109.664 53.6051 109.268 53.6051 108.82C53.6051 108.364 53.5131 107.972 53.3291 107.644C53.1451 107.308 52.8891 107.048 52.5611 106.864C52.2411 106.68 51.8771 106.588 51.4691 106.588C51.0611 106.588 50.6971 106.68 50.3771 106.864C50.0571 107.048 49.8011 107.308 49.6091 107.644C49.4171 107.972 49.3211 108.364 49.3211 108.82C49.3211 109.268 49.4171 109.664 49.6091 110.008C49.8011 110.344 50.0571 110.604 50.3771 110.788C50.6971 110.972 51.0611 111.064 51.4691 111.064ZM59.2383 112.072C58.6943 112.072 58.2143 111.972 57.7983 111.772C57.3903 111.572 57.0703 111.268 56.8383 110.86C56.6143 110.444 56.5023 109.924 56.5023 109.3V105.64H57.6543V109.168C57.6543 109.792 57.8023 110.26 58.0983 110.572C58.4023 110.884 58.8263 111.04 59.3703 111.04C59.7703 111.04 60.1183 110.96 60.4143 110.8C60.7103 110.632 60.9383 110.392 61.0983 110.08C61.2583 109.76 61.3383 109.376 61.3383 108.928V105.64H62.4903V112H61.3983V110.284L61.5783 110.74C61.3703 111.164 61.0583 111.492 60.6423 111.724C60.2263 111.956 59.7583 112.072 59.2383 112.072ZM67.0674 112.072C66.4274 112.072 65.9314 111.9 65.5794 111.556C65.2274 111.212 65.0514 110.72 65.0514 110.08V104.248H66.2034V110.032C66.2034 110.376 66.2874 110.64 66.4554 110.824C66.6314 111.008 66.8794 111.1 67.1994 111.1C67.5594 111.1 67.8594 111 68.0994 110.8L68.4594 111.628C68.2834 111.78 68.0714 111.892 67.8234 111.964C67.5834 112.036 67.3314 112.072 67.0674 112.072ZM63.9714 106.588V105.64H68.0274V106.588H63.9714ZM73.4482 105.58C73.9682 105.58 74.4242 105.68 74.8162 105.88C75.2162 106.08 75.5282 106.384 75.7522 106.792C75.9762 107.2 76.0882 107.716 76.0882 108.34V112H74.9362V108.472C74.9362 107.856 74.7842 107.392 74.4802 107.08C74.1842 106.768 73.7642 106.612 73.2202 106.612C72.8122 106.612 72.4562 106.692 72.1522 106.852C71.8482 107.012 71.6122 107.248 71.4442 107.56C71.2842 107.872 71.2042 108.26 71.2042 108.724V112H70.0522V103.096H71.2042V107.356L70.9762 106.9C71.1842 106.484 71.5042 106.16 71.9362 105.928C72.3682 105.696 72.8722 105.58 73.4482 105.58ZM80.7388 112L84.5428 103.6H85.7308L89.5468 112H88.2868L84.8908 104.272H85.3708L81.9748 112H80.7388ZM82.3588 109.9L82.6828 108.94H87.4108L87.7588 109.9H82.3588ZM90.9998 112V105.076C90.9998 104.452 91.1798 103.956 91.5398 103.588C91.9078 103.212 92.4278 103.024 93.0998 103.024C93.3478 103.024 93.5838 103.056 93.8078 103.12C94.0398 103.176 94.2358 103.268 94.3958 103.396L94.0478 104.272C93.9278 104.176 93.7918 104.104 93.6398 104.056C93.4878 104 93.3278 103.972 93.1598 103.972C92.8238 103.972 92.5678 104.068 92.3918 104.26C92.2158 104.444 92.1278 104.72 92.1278 105.088V105.94L92.1518 106.468V112H90.9998ZM89.9198 106.588V105.64H93.9758V106.588H89.9198ZM95.2623 112V105.64H96.3663V107.368L96.2583 106.936C96.4343 106.496 96.7303 106.16 97.1463 105.928C97.5623 105.696 98.0743 105.58 98.6823 105.58V106.696C98.6343 106.688 98.5863 106.684 98.5383 106.684C98.4983 106.684 98.4583 106.684 98.4183 106.684C97.8023 106.684 97.3143 106.868 96.9543 107.236C96.5943 107.604 96.4143 108.136 96.4143 108.832V112H95.2623ZM100.302 112V105.64H101.454V112H100.302ZM100.878 104.416C100.654 104.416 100.466 104.344 100.314 104.2C100.17 104.056 100.098 103.88 100.098 103.672C100.098 103.456 100.17 103.276 100.314 103.132C100.466 102.988 100.654 102.916 100.878 102.916C101.102 102.916 101.286 102.988 101.43 103.132C101.582 103.268 101.658 103.44 101.658 103.648C101.658 103.864 101.586 104.048 101.442 104.2C101.298 104.344 101.11 104.416 100.878 104.416ZM106.626 112.072C105.978 112.072 105.398 111.932 104.886 111.652C104.382 111.372 103.986 110.988 103.698 110.5C103.41 110.012 103.266 109.452 103.266 108.82C103.266 108.188 103.41 107.628 103.698 107.14C103.986 106.652 104.382 106.272 104.886 106C105.398 105.72 105.978 105.58 106.626 105.58C107.202 105.58 107.714 105.696 108.162 105.928C108.618 106.152 108.97 106.488 109.218 106.936L108.342 107.5C108.134 107.188 107.878 106.96 107.574 106.816C107.278 106.664 106.958 106.588 106.614 106.588C106.198 106.588 105.826 106.68 105.498 106.864C105.17 107.048 104.91 107.308 104.718 107.644C104.526 107.972 104.43 108.364 104.43 108.82C104.43 109.276 104.526 109.672 104.718 110.008C104.91 110.344 105.17 110.604 105.498 110.788C105.826 110.972 106.198 111.064 106.614 111.064C106.958 111.064 107.278 110.992 107.574 110.848C107.878 110.696 108.134 110.464 108.342 110.152L109.218 110.704C108.97 111.144 108.618 111.484 108.162 111.724C107.714 111.956 107.202 112.072 106.626 112.072ZM114.857 112V110.656L114.797 110.404V108.112C114.797 107.624 114.653 107.248 114.365 106.984C114.085 106.712 113.661 106.576 113.093 106.576C112.717 106.576 112.349 106.64 111.989 106.768C111.629 106.888 111.325 107.052 111.077 107.26L110.597 106.396C110.925 106.132 111.317 105.932 111.773 105.796C112.237 105.652 112.721 105.58 113.225 105.58C114.097 105.58 114.769 105.792 115.241 106.216C115.713 106.64 115.949 107.288 115.949 108.16V112H114.857ZM112.769 112.072C112.297 112.072 111.881 111.992 111.521 111.832C111.169 111.672 110.897 111.452 110.705 111.172C110.513 110.884 110.417 110.56 110.417 110.2C110.417 109.856 110.497 109.544 110.657 109.264C110.825 108.984 111.093 108.76 111.461 108.592C111.837 108.424 112.341 108.34 112.973 108.34H114.989V109.168H113.021C112.445 109.168 112.057 109.264 111.857 109.456C111.657 109.648 111.557 109.88 111.557 110.152C111.557 110.464 111.681 110.716 111.929 110.908C112.177 111.092 112.521 111.184 112.961 111.184C113.393 111.184 113.769 111.088 114.089 110.896C114.417 110.704 114.653 110.424 114.797 110.056L115.025 110.848C114.873 111.224 114.605 111.524 114.221 111.748C113.837 111.964 113.353 112.072 112.769 112.072ZM121.872 112V103.6H125.148C125.884 103.6 126.512 103.716 127.032 103.948C127.552 104.18 127.952 104.516 128.232 104.956C128.512 105.396 128.652 105.92 128.652 106.528C128.652 107.136 128.512 107.66 128.232 108.1C127.952 108.532 127.552 108.868 127.032 109.108C126.512 109.34 125.884 109.456 125.148 109.456H122.532L123.072 108.892V112H121.872ZM123.072 109.012L122.532 108.412H125.112C125.88 108.412 126.46 108.248 126.852 107.92C127.252 107.592 127.452 107.128 127.452 106.528C127.452 105.928 127.252 105.464 126.852 105.136C126.46 104.808 125.88 104.644 125.112 104.644H122.532L123.072 104.044V109.012ZM130.33 112V105.64H131.434V107.368L131.326 106.936C131.502 106.496 131.798 106.16 132.214 105.928C132.63 105.696 133.142 105.58 133.75 105.58V106.696C133.702 106.688 133.654 106.684 133.606 106.684C133.566 106.684 133.526 106.684 133.486 106.684C132.87 106.684 132.382 106.868 132.022 107.236C131.662 107.604 131.482 108.136 131.482 108.832V112H130.33ZM138.035 112.072C137.395 112.072 136.827 111.932 136.331 111.652C135.835 111.372 135.443 110.988 135.155 110.5C134.867 110.004 134.723 109.444 134.723 108.82C134.723 108.188 134.867 107.628 135.155 107.14C135.443 106.652 135.835 106.272 136.331 106C136.827 105.72 137.395 105.58 138.035 105.58C138.667 105.58 139.231 105.72 139.727 106C140.231 106.272 140.623 106.652 140.903 107.14C141.191 107.62 141.335 108.18 141.335 108.82C141.335 109.452 141.191 110.012 140.903 110.5C140.623 110.988 140.231 111.372 139.727 111.652C139.231 111.932 138.667 112.072 138.035 112.072ZM138.035 111.064C138.443 111.064 138.807 110.972 139.127 110.788C139.455 110.604 139.711 110.344 139.895 110.008C140.079 109.664 140.171 109.268 140.171 108.82C140.171 108.364 140.079 107.972 139.895 107.644C139.711 107.308 139.455 107.048 139.127 106.864C138.807 106.68 138.443 106.588 138.035 106.588C137.627 106.588 137.263 106.68 136.943 106.864C136.623 107.048 136.367 107.308 136.175 107.644C135.983 107.972 135.887 108.364 135.887 108.82C135.887 109.268 135.983 109.664 136.175 110.008C136.367 110.344 136.623 110.604 136.943 110.788C137.263 110.972 137.627 111.064 138.035 111.064ZM145.312 112.072C144.672 112.072 144.176 111.9 143.824 111.556C143.472 111.212 143.296 110.72 143.296 110.08V104.248H144.448V110.032C144.448 110.376 144.532 110.64 144.7 110.824C144.876 111.008 145.124 111.1 145.444 111.1C145.804 111.1 146.104 111 146.344 110.8L146.704 111.628C146.528 111.78 146.316 111.892 146.068 111.964C145.828 112.036 145.576 112.072 145.312 112.072ZM142.216 106.588V105.64H146.272V106.588H142.216ZM150.918 112.072C150.238 112.072 149.638 111.932 149.118 111.652C148.606 111.372 148.206 110.988 147.918 110.5C147.638 110.012 147.498 109.452 147.498 108.82C147.498 108.188 147.634 107.628 147.906 107.14C148.186 106.652 148.566 106.272 149.046 106C149.534 105.72 150.082 105.58 150.69 105.58C151.306 105.58 151.85 105.716 152.322 105.988C152.794 106.26 153.162 106.644 153.426 107.14C153.698 107.628 153.834 108.2 153.834 108.856C153.834 108.904 153.83 108.96 153.822 109.024C153.822 109.088 153.818 109.148 153.81 109.204H148.398V108.376H153.21L152.742 108.664C152.75 108.256 152.666 107.892 152.49 107.572C152.314 107.252 152.07 107.004 151.758 106.828C151.454 106.644 151.098 106.552 150.69 106.552C150.29 106.552 149.934 106.644 149.622 106.828C149.31 107.004 149.066 107.256 148.89 107.584C148.714 107.904 148.626 108.272 148.626 108.688V108.88C148.626 109.304 148.722 109.684 148.914 110.02C149.114 110.348 149.39 110.604 149.742 110.788C150.094 110.972 150.498 111.064 150.954 111.064C151.33 111.064 151.67 111 151.974 110.872C152.286 110.744 152.558 110.552 152.79 110.296L153.426 111.04C153.138 111.376 152.778 111.632 152.346 111.808C151.922 111.984 151.446 112.072 150.918 112.072ZM158.405 112.072C157.757 112.072 157.177 111.932 156.665 111.652C156.161 111.372 155.765 110.988 155.477 110.5C155.189 110.012 155.045 109.452 155.045 108.82C155.045 108.188 155.189 107.628 155.477 107.14C155.765 106.652 156.161 106.272 156.665 106C157.177 105.72 157.757 105.58 158.405 105.58C158.981 105.58 159.493 105.696 159.941 105.928C160.397 106.152 160.749 106.488 160.997 106.936L160.121 107.5C159.913 107.188 159.657 106.96 159.353 106.816C159.057 106.664 158.737 106.588 158.393 106.588C157.977 106.588 157.605 106.68 157.277 106.864C156.949 107.048 156.689 107.308 156.497 107.644C156.305 107.972 156.209 108.364 156.209 108.82C156.209 109.276 156.305 109.672 156.497 110.008C156.689 110.344 156.949 110.604 157.277 110.788C157.605 110.972 157.977 111.064 158.393 111.064C158.737 111.064 159.057 110.992 159.353 110.848C159.657 110.696 159.913 110.464 160.121 110.152L160.997 110.704C160.749 111.144 160.397 111.484 159.941 111.724C159.493 111.956 158.981 112.072 158.405 112.072ZM164.955 112.072C164.315 112.072 163.819 111.9 163.467 111.556C163.115 111.212 162.939 110.72 162.939 110.08V104.248H164.091V110.032C164.091 110.376 164.175 110.64 164.343 110.824C164.519 111.008 164.767 111.1 165.087 111.1C165.447 111.1 165.747 111 165.987 110.8L166.347 111.628C166.171 111.78 165.959 111.892 165.711 111.964C165.471 112.036 165.219 112.072 164.955 112.072ZM161.859 106.588V105.64H165.915V106.588H161.859ZM167.94 112V105.64H169.092V112H167.94ZM168.516 104.416C168.292 104.416 168.104 104.344 167.952 104.2C167.808 104.056 167.736 103.88 167.736 103.672C167.736 103.456 167.808 103.276 167.952 103.132C168.104 102.988 168.292 102.916 168.516 102.916C168.74 102.916 168.924 102.988 169.068 103.132C169.22 103.268 169.296 103.44 169.296 103.648C169.296 103.864 169.224 104.048 169.08 104.2C168.936 104.344 168.748 104.416 168.516 104.416ZM174.215 112.072C173.575 112.072 173.007 111.932 172.511 111.652C172.015 111.372 171.623 110.988 171.335 110.5C171.047 110.004 170.903 109.444 170.903 108.82C170.903 108.188 171.047 107.628 171.335 107.14C171.623 106.652 172.015 106.272 172.511 106C173.007 105.72 173.575 105.58 174.215 105.58C174.847 105.58 175.411 105.72 175.907 106C176.411 106.272 176.803 106.652 177.083 107.14C177.371 107.62 177.515 108.18 177.515 108.82C177.515 109.452 177.371 110.012 177.083 110.5C176.803 110.988 176.411 111.372 175.907 111.652C175.411 111.932 174.847 112.072 174.215 112.072ZM174.215 111.064C174.623 111.064 174.987 110.972 175.307 110.788C175.635 110.604 175.891 110.344 176.075 110.008C176.259 109.664 176.351 109.268 176.351 108.82C176.351 108.364 176.259 107.972 176.075 107.644C175.891 107.308 175.635 107.048 175.307 106.864C174.987 106.68 174.623 106.588 174.215 106.588C173.807 106.588 173.443 106.68 173.123 106.864C172.803 107.048 172.547 107.308 172.355 107.644C172.163 107.972 172.067 108.364 172.067 108.82C172.067 109.268 172.163 109.664 172.355 110.008C172.547 110.344 172.803 110.604 173.123 110.788C173.443 110.972 173.807 111.064 174.215 111.064ZM182.704 105.58C183.224 105.58 183.68 105.68 184.072 105.88C184.472 106.08 184.784 106.384 185.008 106.792C185.232 107.2 185.344 107.716 185.344 108.34V112H184.192V108.472C184.192 107.856 184.04 107.392 183.736 107.08C183.44 106.768 183.02 106.612 182.476 106.612C182.068 106.612 181.712 106.692 181.408 106.852C181.104 107.012 180.868 107.248 180.7 107.56C180.54 107.872 180.46 108.26 180.46 108.724V112H179.308V105.64H180.412V107.356L180.232 106.9C180.44 106.484 180.76 106.16 181.192 105.928C181.624 105.696 182.128 105.58 182.704 105.58ZM193.823 112.072C193.183 112.072 192.615 111.932 192.119 111.652C191.623 111.372 191.231 110.988 190.943 110.5C190.655 110.004 190.511 109.444 190.511 108.82C190.511 108.188 190.655 107.628 190.943 107.14C191.231 106.652 191.623 106.272 192.119 106C192.615 105.72 193.183 105.58 193.823 105.58C194.455 105.58 195.019 105.72 195.515 106C196.019 106.272 196.411 106.652 196.691 107.14C196.979 107.62 197.123 108.18 197.123 108.82C197.123 109.452 196.979 110.012 196.691 110.5C196.411 110.988 196.019 111.372 195.515 111.652C195.019 111.932 194.455 112.072 193.823 112.072ZM193.823 111.064C194.231 111.064 194.595 110.972 194.915 110.788C195.243 110.604 195.499 110.344 195.683 110.008C195.867 109.664 195.959 109.268 195.959 108.82C195.959 108.364 195.867 107.972 195.683 107.644C195.499 107.308 195.243 107.048 194.915 106.864C194.595 106.68 194.231 106.588 193.823 106.588C193.415 106.588 193.051 106.68 192.731 106.864C192.411 107.048 192.155 107.308 191.963 107.644C191.771 107.972 191.675 108.364 191.675 108.82C191.675 109.268 191.771 109.664 191.963 110.008C192.155 110.344 192.411 110.604 192.731 110.788C193.051 110.972 193.415 111.064 193.823 111.064ZM199.084 112V105.076C199.084 104.452 199.264 103.956 199.624 103.588C199.992 103.212 200.512 103.024 201.184 103.024C201.432 103.024 201.668 103.056 201.892 103.12C202.124 103.176 202.32 103.268 202.48 103.396L202.132 104.272C202.012 104.176 201.876 104.104 201.724 104.056C201.572 104 201.412 103.972 201.244 103.972C200.908 103.972 200.652 104.068 200.476 104.26C200.3 104.444 200.212 104.72 200.212 105.088V105.94L200.236 106.468V112H199.084ZM198.004 106.588V105.64H202.06V106.588H198.004ZM41.26 130V121.6H44.536C45.272 121.6 45.9 121.716 46.42 121.948C46.94 122.18 47.34 122.516 47.62 122.956C47.9 123.396 48.04 123.92 48.04 124.528C48.04 125.136 47.9 125.66 47.62 126.1C47.34 126.532 46.94 126.868 46.42 127.108C45.9 127.34 45.272 127.456 44.536 127.456H41.92L42.46 126.892V130H41.26ZM42.46 127.012L41.92 126.412H44.5C45.268 126.412 45.848 126.248 46.24 125.92C46.64 125.592 46.84 125.128 46.84 124.528C46.84 123.928 46.64 123.464 46.24 123.136C45.848 122.808 45.268 122.644 44.5 122.644H41.92L42.46 122.044V127.012ZM52.6435 130.072C51.9635 130.072 51.3635 129.932 50.8435 129.652C50.3315 129.372 49.9315 128.988 49.6435 128.5C49.3635 128.012 49.2235 127.452 49.2235 126.82C49.2235 126.188 49.3595 125.628 49.6315 125.14C49.9115 124.652 50.2915 124.272 50.7715 124C51.2595 123.72 51.8075 123.58 52.4155 123.58C53.0315 123.58 53.5755 123.716 54.0475 123.988C54.5195 124.26 54.8875 124.644 55.1515 125.14C55.4235 125.628 55.5595 126.2 55.5595 126.856C55.5595 126.904 55.5555 126.96 55.5475 127.024C55.5475 127.088 55.5435 127.148 55.5355 127.204H50.1235V126.376H54.9355L54.4675 126.664C54.4755 126.256 54.3915 125.892 54.2155 125.572C54.0395 125.252 53.7955 125.004 53.4835 124.828C53.1795 124.644 52.8235 124.552 52.4155 124.552C52.0155 124.552 51.6595 124.644 51.3475 124.828C51.0355 125.004 50.7915 125.256 50.6155 125.584C50.4395 125.904 50.3515 126.272 50.3515 126.688V126.88C50.3515 127.304 50.4475 127.684 50.6395 128.02C50.8395 128.348 51.1155 128.604 51.4675 128.788C51.8195 128.972 52.2235 129.064 52.6795 129.064C53.0555 129.064 53.3955 129 53.6995 128.872C54.0115 128.744 54.2835 128.552 54.5155 128.296L55.1515 129.04C54.8635 129.376 54.5035 129.632 54.0715 129.808C53.6475 129.984 53.1715 130.072 52.6435 130.072ZM57.3592 130V123.64H58.4632V125.368L58.3552 124.936C58.5312 124.496 58.8272 124.16 59.2432 123.928C59.6592 123.696 60.1712 123.58 60.7792 123.58V124.696C60.7312 124.688 60.6832 124.684 60.6352 124.684C60.5952 124.684 60.5552 124.684 60.5152 124.684C59.8992 124.684 59.4112 124.868 59.0512 125.236C58.6912 125.604 58.5112 126.136 58.5112 126.832V130H57.3592ZM64.2933 130.072C63.7653 130.072 63.2613 130 62.7813 129.856C62.3093 129.712 61.9373 129.536 61.6653 129.328L62.1453 128.416C62.4173 128.6 62.7533 128.756 63.1533 128.884C63.5533 129.012 63.9613 129.076 64.3773 129.076C64.9133 129.076 65.2973 129 65.5293 128.848C65.7693 128.696 65.8893 128.484 65.8893 128.212C65.8893 128.012 65.8173 127.856 65.6733 127.744C65.5293 127.632 65.3373 127.548 65.0973 127.492C64.8653 127.436 64.6053 127.388 64.3173 127.348C64.0293 127.3 63.7413 127.244 63.4533 127.18C63.1653 127.108 62.9013 127.012 62.6613 126.892C62.4213 126.764 62.2293 126.592 62.0853 126.376C61.9413 126.152 61.8693 125.856 61.8693 125.488C61.8693 125.104 61.9773 124.768 62.1933 124.48C62.4093 124.192 62.7133 123.972 63.1053 123.82C63.5053 123.66 63.9773 123.58 64.5213 123.58C64.9373 123.58 65.3573 123.632 65.7813 123.736C66.2133 123.832 66.5653 123.972 66.8373 124.156L66.3453 125.068C66.0573 124.876 65.7573 124.744 65.4453 124.672C65.1333 124.6 64.8213 124.564 64.5093 124.564C64.0053 124.564 63.6293 124.648 63.3813 124.816C63.1333 124.976 63.0093 125.184 63.0093 125.44C63.0093 125.656 63.0813 125.824 63.2253 125.944C63.3773 126.056 63.5693 126.144 63.8013 126.208C64.0413 126.272 64.3053 126.328 64.5933 126.376C64.8813 126.416 65.1693 126.472 65.4573 126.544C65.7453 126.608 66.0053 126.7 66.2373 126.82C66.4773 126.94 66.6693 127.108 66.8133 127.324C66.9653 127.54 67.0413 127.828 67.0413 128.188C67.0413 128.572 66.9293 128.904 66.7053 129.184C66.4813 129.464 66.1653 129.684 65.7573 129.844C65.3493 129.996 64.8613 130.072 64.2933 130.072ZM71.4051 130.072C70.7651 130.072 70.1971 129.932 69.7011 129.652C69.2051 129.372 68.8131 128.988 68.5251 128.5C68.2371 128.004 68.0931 127.444 68.0931 126.82C68.0931 126.188 68.2371 125.628 68.5251 125.14C68.8131 124.652 69.2051 124.272 69.7011 124C70.1971 123.72 70.7651 123.58 71.4051 123.58C72.0371 123.58 72.6011 123.72 73.0971 124C73.6011 124.272 73.9931 124.652 74.2731 125.14C74.5611 125.62 74.7051 126.18 74.7051 126.82C74.7051 127.452 74.5611 128.012 74.2731 128.5C73.9931 128.988 73.6011 129.372 73.0971 129.652C72.6011 129.932 72.0371 130.072 71.4051 130.072ZM71.4051 129.064C71.8131 129.064 72.1771 128.972 72.4971 128.788C72.8251 128.604 73.0811 128.344 73.2651 128.008C73.4491 127.664 73.5411 127.268 73.5411 126.82C73.5411 126.364 73.4491 125.972 73.2651 125.644C73.0811 125.308 72.8251 125.048 72.4971 124.864C72.1771 124.68 71.8131 124.588 71.4051 124.588C70.9971 124.588 70.6331 124.68 70.3131 124.864C69.9931 125.048 69.7371 125.308 69.5451 125.644C69.3531 125.972 69.2571 126.364 69.2571 126.82C69.2571 127.268 69.3531 127.664 69.5451 128.008C69.7371 128.344 69.9931 128.604 70.3131 128.788C70.6331 128.972 70.9971 129.064 71.4051 129.064ZM79.8943 123.58C80.4143 123.58 80.8703 123.68 81.2623 123.88C81.6623 124.08 81.9743 124.384 82.1983 124.792C82.4223 125.2 82.5343 125.716 82.5343 126.34V130H81.3823V126.472C81.3823 125.856 81.2303 125.392 80.9263 125.08C80.6303 124.768 80.2103 124.612 79.6663 124.612C79.2583 124.612 78.9023 124.692 78.5983 124.852C78.2943 125.012 78.0583 125.248 77.8903 125.56C77.7303 125.872 77.6503 126.26 77.6503 126.724V130H76.4983V123.64H77.6023V125.356L77.4223 124.9C77.6303 124.484 77.9503 124.16 78.3823 123.928C78.8143 123.696 79.3183 123.58 79.8943 123.58ZM88.8142 130V128.656L88.7542 128.404V126.112C88.7542 125.624 88.6102 125.248 88.3222 124.984C88.0422 124.712 87.6182 124.576 87.0502 124.576C86.6742 124.576 86.3062 124.64 85.9462 124.768C85.5862 124.888 85.2822 125.052 85.0342 125.26L84.5542 124.396C84.8822 124.132 85.2742 123.932 85.7302 123.796C86.1942 123.652 86.6782 123.58 87.1822 123.58C88.0542 123.58 88.7262 123.792 89.1982 124.216C89.6702 124.64 89.9062 125.288 89.9062 126.16V130H88.8142ZM86.7262 130.072C86.2542 130.072 85.8382 129.992 85.4782 129.832C85.1262 129.672 84.8542 129.452 84.6622 129.172C84.4702 128.884 84.3742 128.56 84.3742 128.2C84.3742 127.856 84.4542 127.544 84.6142 127.264C84.7822 126.984 85.0502 126.76 85.4182 126.592C85.7942 126.424 86.2982 126.34 86.9302 126.34H88.9462V127.168H86.9782C86.4022 127.168 86.0142 127.264 85.8142 127.456C85.6142 127.648 85.5142 127.88 85.5142 128.152C85.5142 128.464 85.6382 128.716 85.8862 128.908C86.1342 129.092 86.4782 129.184 86.9182 129.184C87.3502 129.184 87.7262 129.088 88.0462 128.896C88.3742 128.704 88.6102 128.424 88.7542 128.056L88.9822 128.848C88.8302 129.224 88.5622 129.524 88.1782 129.748C87.7942 129.964 87.3102 130.072 86.7262 130.072ZM92.2381 130V121.096H93.3901V130H92.2381ZM99.3803 130V121.6H100.58V130H99.3803ZM106.523 123.58C107.043 123.58 107.499 123.68 107.891 123.88C108.291 124.08 108.603 124.384 108.827 124.792C109.051 125.2 109.163 125.716 109.163 126.34V130H108.011V126.472C108.011 125.856 107.859 125.392 107.555 125.08C107.259 124.768 106.839 124.612 106.295 124.612C105.887 124.612 105.531 124.692 105.227 124.852C104.923 125.012 104.687 125.248 104.519 125.56C104.359 125.872 104.279 126.26 104.279 126.724V130H103.127V123.64H104.231V125.356L104.051 124.9C104.259 124.484 104.579 124.16 105.011 123.928C105.443 123.696 105.947 123.58 106.523 123.58ZM111.663 130V123.076C111.663 122.452 111.843 121.956 112.203 121.588C112.571 121.212 113.091 121.024 113.763 121.024C114.011 121.024 114.247 121.056 114.471 121.12C114.703 121.176 114.899 121.268 115.059 121.396L114.711 122.272C114.591 122.176 114.455 122.104 114.303 122.056C114.151 122 113.991 121.972 113.823 121.972C113.487 121.972 113.231 122.068 113.055 122.26C112.879 122.444 112.791 122.72 112.791 123.088V123.94L112.815 124.468V130H111.663ZM110.583 124.588V123.64H114.639V124.588H110.583ZM118.556 130.072C117.916 130.072 117.348 129.932 116.852 129.652C116.356 129.372 115.964 128.988 115.676 128.5C115.388 128.004 115.244 127.444 115.244 126.82C115.244 126.188 115.388 125.628 115.676 125.14C115.964 124.652 116.356 124.272 116.852 124C117.348 123.72 117.916 123.58 118.556 123.58C119.188 123.58 119.752 123.72 120.248 124C120.752 124.272 121.144 124.652 121.424 125.14C121.712 125.62 121.856 126.18 121.856 126.82C121.856 127.452 121.712 128.012 121.424 128.5C121.144 128.988 120.752 129.372 120.248 129.652C119.752 129.932 119.188 130.072 118.556 130.072ZM118.556 129.064C118.964 129.064 119.328 128.972 119.648 128.788C119.976 128.604 120.232 128.344 120.416 128.008C120.6 127.664 120.692 127.268 120.692 126.82C120.692 126.364 120.6 125.972 120.416 125.644C120.232 125.308 119.976 125.048 119.648 124.864C119.328 124.68 118.964 124.588 118.556 124.588C118.148 124.588 117.784 124.68 117.464 124.864C117.144 125.048 116.888 125.308 116.696 125.644C116.504 125.972 116.408 126.364 116.408 126.82C116.408 127.268 116.504 127.664 116.696 128.008C116.888 128.344 117.144 128.604 117.464 128.788C117.784 128.972 118.148 129.064 118.556 129.064ZM123.649 130V123.64H124.753V125.368L124.645 124.936C124.821 124.496 125.117 124.16 125.533 123.928C125.949 123.696 126.461 123.58 127.069 123.58V124.696C127.021 124.688 126.973 124.684 126.925 124.684C126.885 124.684 126.845 124.684 126.805 124.684C126.189 124.684 125.701 124.868 125.341 125.236C124.981 125.604 124.801 126.136 124.801 126.832V130H123.649ZM136.645 123.58C137.157 123.58 137.609 123.68 138.001 123.88C138.393 124.08 138.697 124.384 138.913 124.792C139.137 125.2 139.249 125.716 139.249 126.34V130H138.097V126.472C138.097 125.856 137.953 125.392 137.665 125.08C137.377 124.768 136.973 124.612 136.453 124.612C136.069 124.612 135.733 124.692 135.445 124.852C135.157 125.012 134.933 125.248 134.773 125.56C134.621 125.872 134.545 126.26 134.545 126.724V130H133.393V126.472C133.393 125.856 133.249 125.392 132.961 125.08C132.681 124.768 132.277 124.612 131.749 124.612C131.373 124.612 131.041 124.692 130.753 124.852C130.465 125.012 130.241 125.248 130.081 125.56C129.921 125.872 129.841 126.26 129.841 126.724V130H128.689V123.64H129.793V125.332L129.613 124.9C129.813 124.484 130.121 124.16 130.537 123.928C130.953 123.696 131.437 123.58 131.989 123.58C132.597 123.58 133.121 123.732 133.561 124.036C134.001 124.332 134.289 124.784 134.425 125.392L133.957 125.2C134.149 124.712 134.485 124.32 134.965 124.024C135.445 123.728 136.005 123.58 136.645 123.58ZM145.517 130V128.656L145.457 128.404V126.112C145.457 125.624 145.313 125.248 145.025 124.984C144.745 124.712 144.321 124.576 143.753 124.576C143.377 124.576 143.009 124.64 142.649 124.768C142.289 124.888 141.985 125.052 141.737 125.26L141.257 124.396C141.585 124.132 141.977 123.932 142.433 123.796C142.897 123.652 143.381 123.58 143.885 123.58C144.757 123.58 145.429 123.792 145.901 124.216C146.373 124.64 146.609 125.288 146.609 126.16V130H145.517ZM143.429 130.072C142.957 130.072 142.541 129.992 142.181 129.832C141.829 129.672 141.557 129.452 141.365 129.172C141.173 128.884 141.077 128.56 141.077 128.2C141.077 127.856 141.157 127.544 141.317 127.264C141.485 126.984 141.753 126.76 142.121 126.592C142.497 126.424 143.001 126.34 143.633 126.34H145.649V127.168H143.681C143.105 127.168 142.717 127.264 142.517 127.456C142.317 127.648 142.217 127.88 142.217 128.152C142.217 128.464 142.341 128.716 142.589 128.908C142.837 129.092 143.181 129.184 143.621 129.184C144.053 129.184 144.429 129.088 144.749 128.896C145.077 128.704 145.313 128.424 145.457 128.056L145.685 128.848C145.533 129.224 145.265 129.524 144.881 129.748C144.497 129.964 144.013 130.072 143.429 130.072ZM151.124 130.072C150.484 130.072 149.988 129.9 149.636 129.556C149.284 129.212 149.108 128.72 149.108 128.08V122.248H150.26V128.032C150.26 128.376 150.344 128.64 150.512 128.824C150.688 129.008 150.936 129.1 151.256 129.1C151.616 129.1 151.916 129 152.156 128.8L152.516 129.628C152.34 129.78 152.128 129.892 151.88 129.964C151.64 130.036 151.388 130.072 151.124 130.072ZM148.028 124.588V123.64H152.084V124.588H148.028ZM154.109 130V123.64H155.261V130H154.109ZM154.685 122.416C154.461 122.416 154.273 122.344 154.121 122.2C153.977 122.056 153.905 121.88 153.905 121.672C153.905 121.456 153.977 121.276 154.121 121.132C154.273 120.988 154.461 120.916 154.685 120.916C154.909 120.916 155.093 120.988 155.237 121.132C155.389 121.268 155.465 121.44 155.465 121.648C155.465 121.864 155.393 122.048 155.249 122.2C155.105 122.344 154.917 122.416 154.685 122.416ZM160.385 130.072C159.745 130.072 159.177 129.932 158.681 129.652C158.185 129.372 157.793 128.988 157.505 128.5C157.217 128.004 157.073 127.444 157.073 126.82C157.073 126.188 157.217 125.628 157.505 125.14C157.793 124.652 158.185 124.272 158.681 124C159.177 123.72 159.745 123.58 160.385 123.58C161.017 123.58 161.581 123.72 162.077 124C162.581 124.272 162.973 124.652 163.253 125.14C163.541 125.62 163.685 126.18 163.685 126.82C163.685 127.452 163.541 128.012 163.253 128.5C162.973 128.988 162.581 129.372 162.077 129.652C161.581 129.932 161.017 130.072 160.385 130.072ZM160.385 129.064C160.793 129.064 161.157 128.972 161.477 128.788C161.805 128.604 162.061 128.344 162.245 128.008C162.429 127.664 162.521 127.268 162.521 126.82C162.521 126.364 162.429 125.972 162.245 125.644C162.061 125.308 161.805 125.048 161.477 124.864C161.157 124.68 160.793 124.588 160.385 124.588C159.977 124.588 159.613 124.68 159.293 124.864C158.973 125.048 158.717 125.308 158.525 125.644C158.333 125.972 158.237 126.364 158.237 126.82C158.237 127.268 158.333 127.664 158.525 128.008C158.717 128.344 158.973 128.604 159.293 128.788C159.613 128.972 159.977 129.064 160.385 129.064ZM168.874 123.58C169.394 123.58 169.85 123.68 170.242 123.88C170.642 124.08 170.954 124.384 171.178 124.792C171.402 125.2 171.514 125.716 171.514 126.34V130H170.362V126.472C170.362 125.856 170.21 125.392 169.906 125.08C169.61 124.768 169.19 124.612 168.646 124.612C168.238 124.612 167.882 124.692 167.578 124.852C167.274 125.012 167.038 125.248 166.87 125.56C166.71 125.872 166.63 126.26 166.63 126.724V130H165.478V123.64H166.582V125.356L166.402 124.9C166.61 124.484 166.93 124.16 167.362 123.928C167.794 123.696 168.298 123.58 168.874 123.58ZM176.165 130L179.969 121.6H181.157L184.973 130H183.713L180.317 122.272H180.797L177.401 130H176.165ZM177.785 127.9L178.109 126.94H182.837L183.185 127.9H177.785ZM188.971 130.072C188.323 130.072 187.743 129.932 187.231 129.652C186.727 129.372 186.331 128.988 186.043 128.5C185.755 128.012 185.611 127.452 185.611 126.82C185.611 126.188 185.755 125.628 186.043 125.14C186.331 124.652 186.727 124.272 187.231 124C187.743 123.72 188.323 123.58 188.971 123.58C189.547 123.58 190.059 123.696 190.507 123.928C190.963 124.152 191.315 124.488 191.563 124.936L190.687 125.5C190.479 125.188 190.223 124.96 189.919 124.816C189.623 124.664 189.303 124.588 188.959 124.588C188.543 124.588 188.171 124.68 187.843 124.864C187.515 125.048 187.255 125.308 187.063 125.644C186.871 125.972 186.775 126.364 186.775 126.82C186.775 127.276 186.871 127.672 187.063 128.008C187.255 128.344 187.515 128.604 187.843 128.788C188.171 128.972 188.543 129.064 188.959 129.064C189.303 129.064 189.623 128.992 189.919 128.848C190.223 128.696 190.479 128.464 190.687 128.152L191.563 128.704C191.315 129.144 190.963 129.484 190.507 129.724C190.059 129.956 189.547 130.072 188.971 130.072ZM195.521 130.072C194.881 130.072 194.385 129.9 194.033 129.556C193.681 129.212 193.505 128.72 193.505 128.08V122.248H194.657V128.032C194.657 128.376 194.741 128.64 194.909 128.824C195.085 129.008 195.333 129.1 195.653 129.1C196.013 129.1 196.313 129 196.553 128.8L196.913 129.628C196.737 129.78 196.525 129.892 196.277 129.964C196.037 130.036 195.785 130.072 195.521 130.072ZM192.425 124.588V123.64H196.481V124.588H192.425Z" fill="#19191F"/>
<g clip-path="url(#clip0_4189_12444)">
<path d="M55 70C63.2843 70 70 63.2843 70 55C70 46.7157 63.2843 40 55 40C46.7157 40 40 46.7157 40 55C40 63.2843 46.7157 70 55 70Z" fill="#F0F0F0"/>
<path d="M44.3934 65.6059C38.5355 59.7479 38.5355 50.2505 44.3934 44.3926C44.393 44.3932 53.0435 54.9992 53.0435 54.9992L44.3934 65.6059Z" fill="black"/>
<path d="M53.0435 54.9992L41.9894 47.5293C41.6467 48.125 41.3445 48.7468 41.0848 49.3904L46.681 54.9993L41.085 60.6085C41.3444 61.2516 41.6463 61.873 41.9888 62.4683L53.0435 54.9992Z" fill="#FFDA44"/>
<path d="M69.873 53.0444H53.0431L44.3932 44.3945C43.4611 45.3266 42.6513 46.3808 41.9894 47.5311L49.4448 55.0009L41.9888 62.4699C42.6507 63.6204 43.4609 64.6749 44.3932 65.6073L53.0431 56.9574H69.873C69.9564 56.317 70 55.664 70 55.0009C70 54.3378 69.9564 53.6849 69.873 53.0444Z" fill="#6DA544"/>
<path d="M45.8674 66.8981C48.3969 68.8423 51.5631 69.999 55 69.999C61.9304 69.999 67.762 65.2986 69.4832 58.9121H53.8535L45.8674 66.8981Z" fill="#0052B4"/>
<path d="M69.4832 51.0869C67.762 44.7004 61.9304 40 55 40C51.5631 40 48.3969 41.1567 45.8674 43.101L53.8534 51.0869H69.4832Z" fill="#D80027"/>
</g>
<path d="M248 54.5C248 53.0166 247.56 51.5666 246.736 50.3332C245.912 49.0999 244.741 48.1386 243.37 47.5709C242 47.0032 240.492 46.8547 239.037 47.1441C237.582 47.4335 236.246 48.1478 235.197 49.1967C234.148 50.2456 233.434 51.582 233.144 53.0368C232.855 54.4917 233.003 55.9997 233.571 57.3701C234.139 58.7406 235.1 59.9119 236.333 60.736C237.567 61.5601 239.017 62 240.5 62C242.488 61.9978 244.395 61.2069 245.801 59.8009C247.207 58.3948 247.998 56.4884 248 54.5ZM239.97 58.0303C239.9 57.9606 239.845 57.878 239.807 57.787C239.769 57.696 239.75 57.5985 239.75 57.5C239.75 57.4015 239.769 57.304 239.807 57.213C239.845 57.122 239.9 57.0393 239.97 56.9697L241.689 55.25H237.5C237.301 55.25 237.11 55.171 236.97 55.0303C236.829 54.8897 236.75 54.6989 236.75 54.5C236.75 54.3011 236.829 54.1103 236.97 53.9697C237.11 53.829 237.301 53.75 237.5 53.75H241.689L239.97 52.0303C239.831 51.8892 239.754 51.6991 239.755 51.5014C239.756 51.3037 239.835 51.1143 239.975 50.9745C240.114 50.8347 240.304 50.7558 240.501 50.7549C240.699 50.754 240.889 50.8312 241.03 50.9698L244.03 53.9695C244.17 54.1105 244.249 54.3012 244.249 54.5C244.249 54.6988 244.17 54.8895 244.03 55.0305L241.03 58.0303C240.961 58.0999 240.878 58.1552 240.787 58.1929C240.696 58.2306 240.598 58.25 240.5 58.25C240.402 58.25 240.304 58.2306 240.213 58.1929C240.122 58.1552 240.039 58.0999 239.97 58.0303Z" fill="#5B588F"/>
<defs>
<filter id="filter0_dd_4189_12444" x="0" y="0" width="290" height="182" filterUnits="userSpaceOnUse" color-interpolation-filters="sRGB">
<feFlood flood-opacity="0" result="BackgroundImageFix"/>
<feColorMatrix in="SourceAlpha" type="matrix" values="0 0 0 0 0 0 0 0 0 0 0 0 0 0 0 0 0 0 127 0" result="hardAlpha"/>
<feMorphology radius="2" operator="dilate" in="SourceAlpha" result="effect1_dropShadow_4189_12444"/>
<feOffset dx="4" dy="4"/>
<feGaussianBlur stdDeviation="8"/>
<feComposite in2="hardAlpha" operator="out"/>
<feColorMatrix type="matrix" values="0 0 0 0 1 0 0 0 0 1 0 0 0 0 1 0 0 0 0.25 0"/>
<feBlend mode="normal" in2="BackgroundImageFix" result="effect1_dropShadow_4189_12444"/>
<feColorMatrix in="SourceAlpha" type="matrix" values="0 0 0 0 0 0 0 0 0 0 0 0 0 0 0 0 0 0 127 0" result="hardAlpha"/>
<feOffset dx="-4" dy="-4"/>
<feGaussianBlur stdDeviation="8"/>
<feComposite in2="hardAlpha" operator="out"/>
<feColorMatrix type="matrix" values="0 0 0 0 1 0 0 0 0 1 0 0 0 0 1 0 0 0 0.25 0"/>
<feBlend mode="normal" in2="effect1_dropShadow_4189_12444" result="effect2_dropShadow_4189_12444"/>
<feBlend mode="normal" in="SourceGraphic" in2="effect2_dropShadow_4189_12444" result="shape"/>
</filter>
<clipPath id="clip0_4189_12444">
<rect width="30" height="30" fill="white" transform="translate(40 40)"/>
</clipPath>
</defs>
</svg>
