<svg width="290" height="182" viewBox="0 0 290 182" fill="none" xmlns="http://www.w3.org/2000/svg">
<g filter="url(#filter0_dd_4190_12447)">
<rect x="20" y="20" width="248" height="140" rx="10" fill="white"/>
</g>
<path d="M55 70C63.2843 70 70 63.2843 70 55C70 46.7157 63.2843 40 55 40C46.7157 40 40 46.7157 40 55C40 63.2843 46.7157 70 55 70Z" fill="#F0F0F0"/>
<path d="M40 55.0001C40 46.7158 46.7158 40 55 40C63.2842 40 70 46.7158 70 55.0001" fill="#D80027"/>
<path d="M49.1304 47.8269C49.1304 45.6414 50.6663 43.8158 52.7174 43.3678C52.4021 43.299 52.0751 43.2617 51.7391 43.2617C49.2177 43.2617 47.1739 45.3056 47.1739 47.8269C47.1739 50.3483 49.2177 52.3921 51.7391 52.3921C52.075 52.3921 52.4021 52.3548 52.7174 52.286C50.6663 51.838 49.1304 50.0124 49.1304 47.8269Z" fill="#F0F0F0"/>
<path d="M55 43.5879L55.3238 44.5843H56.3715L55.5238 45.2002L55.8476 46.1965L55 45.5808L54.1524 46.1965L54.4762 45.2002L53.6285 44.5843H54.6762L55 43.5879Z" fill="#F0F0F0"/>
<path d="M52.4585 45.5449L52.7822 46.5414H53.8299L52.9823 47.1572L53.3061 48.1536L52.4585 47.5378L51.6107 48.1536L51.9346 47.1572L51.0869 46.5414H52.1346L52.4585 45.5449Z" fill="#F0F0F0"/>
<path d="M57.5416 45.5449L57.8654 46.5414H58.9131L58.0654 47.1572L58.3892 48.1536L57.5416 47.5378L56.6939 48.1536L57.0177 47.1572L56.1701 46.5414H57.2178L57.5416 45.5449Z" fill="#F0F0F0"/>
<path d="M56.5633 48.4785L56.8871 49.475H57.9348L57.0872 50.0908L57.411 51.0872L56.5633 50.4714L55.7157 51.0872L56.0395 50.0908L55.1919 49.475H56.2395L56.5633 48.4785Z" fill="#F0F0F0"/>
<path d="M53.4367 48.4785L53.7605 49.475H54.8082L53.9605 50.0908L54.2844 51.0872L53.4367 50.4714L52.589 51.0872L52.9128 50.0908L52.0652 49.475H53.1129L53.4367 48.4785Z" fill="#F0F0F0"/>
<path d="M41.162 94V84.2H45.404C46.2813 84.2 47.0373 84.3447 47.672 84.634C48.3067 84.914 48.7967 85.32 49.142 85.852C49.4873 86.384 49.66 87.0187 49.66 87.756C49.66 88.484 49.4873 89.114 49.142 89.646C48.7967 90.178 48.3067 90.5887 47.672 90.878C47.0373 91.158 46.2813 91.298 45.404 91.298H42.422L43.43 90.276V94H41.162ZM43.43 90.528L42.422 89.45H45.278C45.978 89.45 46.5007 89.3007 46.846 89.002C47.1913 88.7033 47.364 88.288 47.364 87.756C47.364 87.2147 47.1913 86.7947 46.846 86.496C46.5007 86.1973 45.978 86.048 45.278 86.048H42.422L43.43 84.97V90.528ZM51.4792 94V84.2H55.9312C56.9952 84.2 57.9332 84.4053 58.7452 84.816C59.5572 85.2173 60.1919 85.782 60.6492 86.51C61.1065 87.238 61.3352 88.1013 61.3352 89.1C61.3352 90.0893 61.1065 90.9527 60.6492 91.69C60.1919 92.418 59.5572 92.9873 58.7452 93.398C57.9332 93.7993 56.9952 94 55.9312 94H51.4792ZM53.7472 92.138H55.8192C56.4725 92.138 57.0372 92.0167 57.5132 91.774C57.9985 91.522 58.3719 91.1673 58.6332 90.71C58.9039 90.2527 59.0392 89.716 59.0392 89.1C59.0392 88.4747 58.9039 87.938 58.6332 87.49C58.3719 87.0327 57.9985 86.6827 57.5132 86.44C57.0372 86.188 56.4725 86.062 55.8192 86.062H53.7472V92.138ZM63.2456 94V84.2H67.4876C68.3649 84.2 69.1209 84.3447 69.7556 84.634C70.3903 84.914 70.8803 85.32 71.2256 85.852C71.5709 86.384 71.7436 87.0187 71.7436 87.756C71.7436 88.484 71.5709 89.114 71.2256 89.646C70.8803 90.178 70.3903 90.5887 69.7556 90.878C69.1209 91.158 68.3649 91.298 67.4876 91.298H64.5056L65.5136 90.276V94H63.2456ZM65.5136 90.528L64.5056 89.45H67.3616C68.0616 89.45 68.5843 89.3007 68.9296 89.002C69.2749 88.7033 69.4476 88.288 69.4476 87.756C69.4476 87.2147 69.2749 86.7947 68.9296 86.496C68.5843 86.1973 68.0616 86.048 67.3616 86.048H64.5056L65.5136 84.97V90.528ZM71.7826 94L76.1506 84.2H78.3906L82.7726 94H80.3926L76.8086 85.348H77.7046L74.1066 94H71.7826ZM73.9666 91.9L74.5686 90.178H79.6086L80.2246 91.9H73.9666ZM43.708 112.096C43.068 112.096 42.456 112 41.872 111.808C41.288 111.608 40.828 111.352 40.492 111.04L40.936 110.104C41.256 110.384 41.664 110.616 42.16 110.8C42.656 110.984 43.172 111.076 43.708 111.076C44.196 111.076 44.592 111.02 44.896 110.908C45.2 110.796 45.424 110.644 45.568 110.452C45.712 110.252 45.784 110.028 45.784 109.78C45.784 109.492 45.688 109.26 45.496 109.084C45.312 108.908 45.068 108.768 44.764 108.664C44.468 108.552 44.14 108.456 43.78 108.376C43.42 108.296 43.056 108.204 42.688 108.1C42.328 107.988 41.996 107.848 41.692 107.68C41.396 107.512 41.156 107.288 40.972 107.008C40.788 106.72 40.696 106.352 40.696 105.904C40.696 105.472 40.808 105.076 41.032 104.716C41.264 104.348 41.616 104.056 42.088 103.84C42.568 103.616 43.176 103.504 43.912 103.504C44.4 103.504 44.884 103.568 45.364 103.696C45.844 103.824 46.26 104.008 46.612 104.248L46.216 105.208C45.856 104.968 45.476 104.796 45.076 104.692C44.676 104.58 44.288 104.524 43.912 104.524C43.44 104.524 43.052 104.584 42.748 104.704C42.444 104.824 42.22 104.984 42.076 105.184C41.94 105.384 41.872 105.608 41.872 105.856C41.872 106.152 41.964 106.388 42.148 106.564C42.34 106.74 42.584 106.88 42.88 106.984C43.184 107.088 43.516 107.184 43.876 107.272C44.236 107.352 44.596 107.444 44.956 107.548C45.324 107.652 45.656 107.788 45.952 107.956C46.256 108.124 46.5 108.348 46.684 108.628C46.868 108.908 46.96 109.268 46.96 109.708C46.96 110.132 46.844 110.528 46.612 110.896C46.38 111.256 46.02 111.548 45.532 111.772C45.052 111.988 44.444 112.096 43.708 112.096ZM48.7451 112V105.64H49.8971V112H48.7451ZM49.3211 104.416C49.0971 104.416 48.9091 104.344 48.7571 104.2C48.6131 104.056 48.5411 103.88 48.5411 103.672C48.5411 103.456 48.6131 103.276 48.7571 103.132C48.9091 102.988 49.0971 102.916 49.3211 102.916C49.5451 102.916 49.7291 102.988 49.8731 103.132C50.0251 103.268 50.1011 103.44 50.1011 103.648C50.1011 103.864 50.0291 104.048 49.8851 104.2C49.7411 104.344 49.5531 104.416 49.3211 104.416ZM55.6927 105.58C56.2127 105.58 56.6687 105.68 57.0607 105.88C57.4607 106.08 57.7727 106.384 57.9967 106.792C58.2207 107.2 58.3327 107.716 58.3327 108.34V112H57.1807V108.472C57.1807 107.856 57.0287 107.392 56.7247 107.08C56.4287 106.768 56.0087 106.612 55.4647 106.612C55.0567 106.612 54.7007 106.692 54.3967 106.852C54.0927 107.012 53.8567 107.248 53.6887 107.56C53.5287 107.872 53.4487 108.26 53.4487 108.724V112H52.2967V105.64H53.4007V107.356L53.2207 106.9C53.4287 106.484 53.7487 106.16 54.1807 105.928C54.6127 105.696 55.1167 105.58 55.6927 105.58ZM63.4487 114.4C62.8647 114.4 62.2967 114.316 61.7447 114.148C61.2007 113.988 60.7567 113.756 60.4127 113.452L60.9647 112.564C61.2607 112.82 61.6247 113.02 62.0567 113.164C62.4887 113.316 62.9407 113.392 63.4127 113.392C64.1647 113.392 64.7167 113.216 65.0687 112.864C65.4207 112.512 65.5967 111.976 65.5967 111.256V109.912L65.7167 108.652L65.6567 107.38V105.64H66.7487V111.136C66.7487 112.256 66.4687 113.08 65.9087 113.608C65.3487 114.136 64.5287 114.4 63.4487 114.4ZM63.3047 111.736C62.6887 111.736 62.1367 111.608 61.6487 111.352C61.1687 111.088 60.7847 110.724 60.4967 110.26C60.2167 109.796 60.0767 109.26 60.0767 108.652C60.0767 108.036 60.2167 107.5 60.4967 107.044C60.7847 106.58 61.1687 106.22 61.6487 105.964C62.1367 105.708 62.6887 105.58 63.3047 105.58C63.8487 105.58 64.3447 105.692 64.7927 105.916C65.2407 106.132 65.5967 106.468 65.8607 106.924C66.1327 107.38 66.2687 107.956 66.2687 108.652C66.2687 109.34 66.1327 109.912 65.8607 110.368C65.5967 110.824 65.2407 111.168 64.7927 111.4C64.3447 111.624 63.8487 111.736 63.3047 111.736ZM63.4367 110.728C63.8607 110.728 64.2367 110.64 64.5647 110.464C64.8927 110.288 65.1487 110.044 65.3327 109.732C65.5247 109.42 65.6207 109.06 65.6207 108.652C65.6207 108.244 65.5247 107.884 65.3327 107.572C65.1487 107.26 64.8927 107.02 64.5647 106.852C64.2367 106.676 63.8607 106.588 63.4367 106.588C63.0127 106.588 62.6327 106.676 62.2967 106.852C61.9687 107.02 61.7087 107.26 61.5167 107.572C61.3327 107.884 61.2407 108.244 61.2407 108.652C61.2407 109.06 61.3327 109.42 61.5167 109.732C61.7087 110.044 61.9687 110.288 62.2967 110.464C62.6327 110.64 63.0127 110.728 63.4367 110.728ZM73.0978 112V110.656L73.0378 110.404V108.112C73.0378 107.624 72.8938 107.248 72.6058 106.984C72.3258 106.712 71.9018 106.576 71.3338 106.576C70.9578 106.576 70.5898 106.64 70.2298 106.768C69.8698 106.888 69.5658 107.052 69.3178 107.26L68.8378 106.396C69.1658 106.132 69.5578 105.932 70.0138 105.796C70.4778 105.652 70.9618 105.58 71.4658 105.58C72.3378 105.58 73.0098 105.792 73.4818 106.216C73.9538 106.64 74.1898 107.288 74.1898 108.16V112H73.0978ZM71.0098 112.072C70.5378 112.072 70.1218 111.992 69.7618 111.832C69.4098 111.672 69.1378 111.452 68.9458 111.172C68.7538 110.884 68.6578 110.56 68.6578 110.2C68.6578 109.856 68.7378 109.544 68.8978 109.264C69.0658 108.984 69.3338 108.76 69.7018 108.592C70.0778 108.424 70.5818 108.34 71.2138 108.34H73.2298V109.168H71.2618C70.6858 109.168 70.2978 109.264 70.0978 109.456C69.8978 109.648 69.7978 109.88 69.7978 110.152C69.7978 110.464 69.9218 110.716 70.1698 110.908C70.4178 111.092 70.7618 111.184 71.2018 111.184C71.6338 111.184 72.0098 111.088 72.3298 110.896C72.6578 110.704 72.8938 110.424 73.0378 110.056L73.2658 110.848C73.1138 111.224 72.8458 111.524 72.4618 111.748C72.0778 111.964 71.5938 112.072 71.0098 112.072ZM79.8937 112.072C79.3657 112.072 78.8817 111.952 78.4417 111.712C78.0097 111.464 77.6617 111.1 77.3977 110.62C77.1417 110.14 77.0137 109.54 77.0137 108.82C77.0137 108.1 77.1377 107.5 77.3857 107.02C77.6417 106.54 77.9857 106.18 78.4177 105.94C78.8577 105.7 79.3497 105.58 79.8937 105.58C80.5177 105.58 81.0697 105.716 81.5497 105.988C82.0297 106.26 82.4097 106.64 82.6897 107.128C82.9697 107.608 83.1097 108.172 83.1097 108.82C83.1097 109.468 82.9697 110.036 82.6897 110.524C82.4097 111.012 82.0297 111.392 81.5497 111.664C81.0697 111.936 80.5177 112.072 79.8937 112.072ZM76.5217 114.328V105.64H77.6257V107.356L77.5537 108.832L77.6737 110.308V114.328H76.5217ZM79.7977 111.064C80.2057 111.064 80.5697 110.972 80.8897 110.788C81.2177 110.604 81.4737 110.344 81.6577 110.008C81.8497 109.664 81.9457 109.268 81.9457 108.82C81.9457 108.364 81.8497 107.972 81.6577 107.644C81.4737 107.308 81.2177 107.048 80.8897 106.864C80.5697 106.68 80.2057 106.588 79.7977 106.588C79.3977 106.588 79.0337 106.68 78.7057 106.864C78.3857 107.048 78.1297 107.308 77.9377 107.644C77.7537 107.972 77.6617 108.364 77.6617 108.82C77.6617 109.268 77.7537 109.664 77.9377 110.008C78.1297 110.344 78.3857 110.604 78.7057 110.788C79.0337 110.972 79.3977 111.064 79.7977 111.064ZM87.6254 112.072C86.9854 112.072 86.4174 111.932 85.9214 111.652C85.4254 111.372 85.0334 110.988 84.7454 110.5C84.4574 110.004 84.3134 109.444 84.3134 108.82C84.3134 108.188 84.4574 107.628 84.7454 107.14C85.0334 106.652 85.4254 106.272 85.9214 106C86.4174 105.72 86.9854 105.58 87.6254 105.58C88.2574 105.58 88.8214 105.72 89.3174 106C89.8214 106.272 90.2134 106.652 90.4934 107.14C90.7814 107.62 90.9254 108.18 90.9254 108.82C90.9254 109.452 90.7814 110.012 90.4934 110.5C90.2134 110.988 89.8214 111.372 89.3174 111.652C88.8214 111.932 88.2574 112.072 87.6254 112.072ZM87.6254 111.064C88.0334 111.064 88.3974 110.972 88.7174 110.788C89.0454 110.604 89.3014 110.344 89.4854 110.008C89.6694 109.664 89.7614 109.268 89.7614 108.82C89.7614 108.364 89.6694 107.972 89.4854 107.644C89.3014 107.308 89.0454 107.048 88.7174 106.864C88.3974 106.68 88.0334 106.588 87.6254 106.588C87.2174 106.588 86.8534 106.68 86.5334 106.864C86.2134 107.048 85.9574 107.308 85.7654 107.644C85.5734 107.972 85.4774 108.364 85.4774 108.82C85.4774 109.268 85.5734 109.664 85.7654 110.008C85.9574 110.344 86.2134 110.604 86.5334 110.788C86.8534 110.972 87.2174 111.064 87.6254 111.064ZM92.7186 112V105.64H93.8226V107.368L93.7146 106.936C93.8906 106.496 94.1866 106.16 94.6026 105.928C95.0186 105.696 95.5306 105.58 96.1386 105.58V106.696C96.0906 106.688 96.0426 106.684 95.9946 106.684C95.9546 106.684 95.9146 106.684 95.8746 106.684C95.2586 106.684 94.7706 106.868 94.4106 107.236C94.0506 107.604 93.8706 108.136 93.8706 108.832V112H92.7186ZM100.532 112.072C99.8518 112.072 99.2518 111.932 98.7318 111.652C98.2198 111.372 97.8198 110.988 97.5318 110.5C97.2518 110.012 97.1118 109.452 97.1118 108.82C97.1118 108.188 97.2478 107.628 97.5198 107.14C97.7998 106.652 98.1798 106.272 98.6598 106C99.1478 105.72 99.6958 105.58 100.304 105.58C100.92 105.58 101.464 105.716 101.936 105.988C102.408 106.26 102.776 106.644 103.04 107.14C103.312 107.628 103.448 108.2 103.448 108.856C103.448 108.904 103.444 108.96 103.436 109.024C103.436 109.088 103.432 109.148 103.424 109.204H98.0118V108.376H102.824L102.356 108.664C102.364 108.256 102.28 107.892 102.104 107.572C101.928 107.252 101.684 107.004 101.372 106.828C101.068 106.644 100.712 106.552 100.304 106.552C99.9038 106.552 99.5478 106.644 99.2358 106.828C98.9238 107.004 98.6798 107.256 98.5038 107.584C98.3278 107.904 98.2398 108.272 98.2398 108.688V108.88C98.2398 109.304 98.3358 109.684 98.5278 110.02C98.7278 110.348 99.0038 110.604 99.3558 110.788C99.7078 110.972 100.112 111.064 100.568 111.064C100.944 111.064 101.284 111 101.588 110.872C101.9 110.744 102.172 110.552 102.404 110.296L103.04 111.04C102.752 111.376 102.392 111.632 101.96 111.808C101.536 111.984 101.06 112.072 100.532 112.072ZM104.78 106.372L105.38 103.936L105.536 104.632C105.304 104.632 105.108 104.56 104.948 104.416C104.796 104.272 104.72 104.08 104.72 103.84C104.72 103.592 104.796 103.396 104.948 103.252C105.108 103.1 105.3 103.024 105.524 103.024C105.756 103.024 105.944 103.104 106.088 103.264C106.232 103.416 106.304 103.608 106.304 103.84C106.304 103.912 106.3 103.988 106.292 104.068C106.284 104.14 106.264 104.224 106.232 104.32C106.208 104.416 106.168 104.54 106.112 104.692L105.536 106.372H104.78ZM109.779 112.072C109.251 112.072 108.747 112 108.267 111.856C107.795 111.712 107.423 111.536 107.151 111.328L107.631 110.416C107.903 110.6 108.239 110.756 108.639 110.884C109.039 111.012 109.447 111.076 109.863 111.076C110.399 111.076 110.783 111 111.015 110.848C111.255 110.696 111.375 110.484 111.375 110.212C111.375 110.012 111.303 109.856 111.159 109.744C111.015 109.632 110.823 109.548 110.583 109.492C110.351 109.436 110.091 109.388 109.803 109.348C109.515 109.3 109.227 109.244 108.939 109.18C108.651 109.108 108.387 109.012 108.147 108.892C107.907 108.764 107.715 108.592 107.571 108.376C107.427 108.152 107.355 107.856 107.355 107.488C107.355 107.104 107.463 106.768 107.679 106.48C107.895 106.192 108.199 105.972 108.591 105.82C108.991 105.66 109.463 105.58 110.007 105.58C110.423 105.58 110.843 105.632 111.267 105.736C111.699 105.832 112.051 105.972 112.323 106.156L111.831 107.068C111.543 106.876 111.243 106.744 110.931 106.672C110.619 106.6 110.307 106.564 109.995 106.564C109.491 106.564 109.115 106.648 108.867 106.816C108.619 106.976 108.495 107.184 108.495 107.44C108.495 107.656 108.567 107.824 108.711 107.944C108.863 108.056 109.055 108.144 109.287 108.208C109.527 108.272 109.791 108.328 110.079 108.376C110.367 108.416 110.655 108.472 110.943 108.544C111.231 108.608 111.491 108.7 111.723 108.82C111.963 108.94 112.155 109.108 112.299 109.324C112.451 109.54 112.527 109.828 112.527 110.188C112.527 110.572 112.415 110.904 112.191 111.184C111.967 111.464 111.651 111.684 111.243 111.844C110.835 111.996 110.347 112.072 109.779 112.072ZM117.758 112V103.6H121.034C121.77 103.6 122.398 103.716 122.918 103.948C123.438 104.18 123.838 104.516 124.118 104.956C124.398 105.396 124.538 105.92 124.538 106.528C124.538 107.136 124.398 107.66 124.118 108.1C123.838 108.532 123.438 108.868 122.918 109.108C122.398 109.34 121.77 109.456 121.034 109.456H118.418L118.958 108.892V112H117.758ZM118.958 109.012L118.418 108.412H120.998C121.766 108.412 122.346 108.248 122.738 107.92C123.138 107.592 123.338 107.128 123.338 106.528C123.338 105.928 123.138 105.464 122.738 105.136C122.346 104.808 121.766 104.644 120.998 104.644H118.418L118.958 104.044V109.012ZM129.141 112.072C128.461 112.072 127.861 111.932 127.341 111.652C126.829 111.372 126.429 110.988 126.141 110.5C125.861 110.012 125.721 109.452 125.721 108.82C125.721 108.188 125.857 107.628 126.129 107.14C126.409 106.652 126.789 106.272 127.269 106C127.757 105.72 128.305 105.58 128.913 105.58C129.529 105.58 130.073 105.716 130.545 105.988C131.017 106.26 131.385 106.644 131.649 107.14C131.921 107.628 132.057 108.2 132.057 108.856C132.057 108.904 132.053 108.96 132.045 109.024C132.045 109.088 132.041 109.148 132.033 109.204H126.621V108.376H131.433L130.965 108.664C130.973 108.256 130.889 107.892 130.713 107.572C130.537 107.252 130.293 107.004 129.981 106.828C129.677 106.644 129.321 106.552 128.913 106.552C128.513 106.552 128.157 106.644 127.845 106.828C127.533 107.004 127.289 107.256 127.113 107.584C126.937 107.904 126.849 108.272 126.849 108.688V108.88C126.849 109.304 126.945 109.684 127.137 110.02C127.337 110.348 127.613 110.604 127.965 110.788C128.317 110.972 128.721 111.064 129.177 111.064C129.553 111.064 129.893 111 130.197 110.872C130.509 110.744 130.781 110.552 131.013 110.296L131.649 111.04C131.361 111.376 131.001 111.632 130.569 111.808C130.145 111.984 129.669 112.072 129.141 112.072ZM133.857 112V105.64H134.961V107.368L134.853 106.936C135.029 106.496 135.325 106.16 135.741 105.928C136.157 105.696 136.669 105.58 137.277 105.58V106.696C137.229 106.688 137.181 106.684 137.133 106.684C137.093 106.684 137.053 106.684 137.013 106.684C136.397 106.684 135.909 106.868 135.549 107.236C135.189 107.604 135.009 108.136 135.009 108.832V112H133.857ZM140.791 112.072C140.263 112.072 139.759 112 139.279 111.856C138.807 111.712 138.435 111.536 138.163 111.328L138.643 110.416C138.915 110.6 139.251 110.756 139.651 110.884C140.051 111.012 140.459 111.076 140.875 111.076C141.411 111.076 141.795 111 142.027 110.848C142.267 110.696 142.387 110.484 142.387 110.212C142.387 110.012 142.315 109.856 142.171 109.744C142.027 109.632 141.835 109.548 141.595 109.492C141.363 109.436 141.103 109.388 140.815 109.348C140.527 109.3 140.239 109.244 139.951 109.18C139.663 109.108 139.399 109.012 139.159 108.892C138.919 108.764 138.727 108.592 138.583 108.376C138.439 108.152 138.367 107.856 138.367 107.488C138.367 107.104 138.475 106.768 138.691 106.48C138.907 106.192 139.211 105.972 139.603 105.82C140.003 105.66 140.475 105.58 141.019 105.58C141.435 105.58 141.855 105.632 142.279 105.736C142.711 105.832 143.063 105.972 143.335 106.156L142.843 107.068C142.555 106.876 142.255 106.744 141.943 106.672C141.631 106.6 141.319 106.564 141.007 106.564C140.503 106.564 140.127 106.648 139.879 106.816C139.631 106.976 139.507 107.184 139.507 107.44C139.507 107.656 139.579 107.824 139.723 107.944C139.875 108.056 140.067 108.144 140.299 108.208C140.539 108.272 140.803 108.328 141.091 108.376C141.379 108.416 141.667 108.472 141.955 108.544C142.243 108.608 142.503 108.7 142.735 108.82C142.975 108.94 143.167 109.108 143.311 109.324C143.463 109.54 143.539 109.828 143.539 110.188C143.539 110.572 143.427 110.904 143.203 111.184C142.979 111.464 142.663 111.684 142.255 111.844C141.847 111.996 141.359 112.072 140.791 112.072ZM147.903 112.072C147.263 112.072 146.695 111.932 146.199 111.652C145.703 111.372 145.311 110.988 145.023 110.5C144.735 110.004 144.591 109.444 144.591 108.82C144.591 108.188 144.735 107.628 145.023 107.14C145.311 106.652 145.703 106.272 146.199 106C146.695 105.72 147.263 105.58 147.903 105.58C148.535 105.58 149.099 105.72 149.595 106C150.099 106.272 150.491 106.652 150.771 107.14C151.059 107.62 151.203 108.18 151.203 108.82C151.203 109.452 151.059 110.012 150.771 110.5C150.491 110.988 150.099 111.372 149.595 111.652C149.099 111.932 148.535 112.072 147.903 112.072ZM147.903 111.064C148.311 111.064 148.675 110.972 148.995 110.788C149.323 110.604 149.579 110.344 149.763 110.008C149.947 109.664 150.039 109.268 150.039 108.82C150.039 108.364 149.947 107.972 149.763 107.644C149.579 107.308 149.323 107.048 148.995 106.864C148.675 106.68 148.311 106.588 147.903 106.588C147.495 106.588 147.131 106.68 146.811 106.864C146.491 107.048 146.235 107.308 146.043 107.644C145.851 107.972 145.755 108.364 145.755 108.82C145.755 109.268 145.851 109.664 146.043 110.008C146.235 110.344 146.491 110.604 146.811 110.788C147.131 110.972 147.495 111.064 147.903 111.064ZM156.392 105.58C156.912 105.58 157.368 105.68 157.76 105.88C158.16 106.08 158.472 106.384 158.696 106.792C158.92 107.2 159.032 107.716 159.032 108.34V112H157.88V108.472C157.88 107.856 157.728 107.392 157.424 107.08C157.128 106.768 156.708 106.612 156.164 106.612C155.756 106.612 155.4 106.692 155.096 106.852C154.792 107.012 154.556 107.248 154.388 107.56C154.228 107.872 154.148 108.26 154.148 108.724V112H152.996V105.64H154.1V107.356L153.92 106.9C154.128 106.484 154.448 106.16 154.88 105.928C155.312 105.696 155.816 105.58 156.392 105.58ZM165.312 112V110.656L165.252 110.404V108.112C165.252 107.624 165.108 107.248 164.82 106.984C164.54 106.712 164.116 106.576 163.548 106.576C163.172 106.576 162.804 106.64 162.444 106.768C162.084 106.888 161.78 107.052 161.532 107.26L161.052 106.396C161.38 106.132 161.772 105.932 162.228 105.796C162.692 105.652 163.176 105.58 163.68 105.58C164.552 105.58 165.224 105.792 165.696 106.216C166.168 106.64 166.404 107.288 166.404 108.16V112H165.312ZM163.224 112.072C162.752 112.072 162.336 111.992 161.976 111.832C161.624 111.672 161.352 111.452 161.16 111.172C160.968 110.884 160.872 110.56 160.872 110.2C160.872 109.856 160.952 109.544 161.112 109.264C161.28 108.984 161.548 108.76 161.916 108.592C162.292 108.424 162.796 108.34 163.428 108.34H165.444V109.168H163.476C162.9 109.168 162.512 109.264 162.312 109.456C162.112 109.648 162.012 109.88 162.012 110.152C162.012 110.464 162.136 110.716 162.384 110.908C162.632 111.092 162.976 111.184 163.416 111.184C163.848 111.184 164.224 111.088 164.544 110.896C164.872 110.704 165.108 110.424 165.252 110.056L165.48 110.848C165.328 111.224 165.06 111.524 164.676 111.748C164.292 111.964 163.808 112.072 163.224 112.072ZM168.736 112V103.096H169.888V112H168.736ZM175.878 112V103.6H179.418C180.314 103.6 181.102 103.776 181.782 104.128C182.47 104.48 183.002 104.972 183.378 105.604C183.762 106.236 183.954 106.968 183.954 107.8C183.954 108.632 183.762 109.364 183.378 109.996C183.002 110.628 182.47 111.12 181.782 111.472C181.102 111.824 180.314 112 179.418 112H175.878ZM177.078 110.956H179.346C180.042 110.956 180.642 110.824 181.146 110.56C181.658 110.296 182.054 109.928 182.334 109.456C182.614 108.976 182.754 108.424 182.754 107.8C182.754 107.168 182.614 106.616 182.334 106.144C182.054 105.672 181.658 105.304 181.146 105.04C180.642 104.776 180.042 104.644 179.346 104.644H177.078V110.956ZM189.772 112V110.656L189.712 110.404V108.112C189.712 107.624 189.568 107.248 189.28 106.984C189 106.712 188.576 106.576 188.008 106.576C187.632 106.576 187.264 106.64 186.904 106.768C186.544 106.888 186.24 107.052 185.992 107.26L185.512 106.396C185.84 106.132 186.232 105.932 186.688 105.796C187.152 105.652 187.636 105.58 188.14 105.58C189.012 105.58 189.684 105.792 190.156 106.216C190.628 106.64 190.864 107.288 190.864 108.16V112H189.772ZM187.684 112.072C187.212 112.072 186.796 111.992 186.436 111.832C186.084 111.672 185.812 111.452 185.62 111.172C185.428 110.884 185.332 110.56 185.332 110.2C185.332 109.856 185.412 109.544 185.572 109.264C185.74 108.984 186.008 108.76 186.376 108.592C186.752 108.424 187.256 108.34 187.888 108.34H189.904V109.168H187.936C187.36 109.168 186.972 109.264 186.772 109.456C186.572 109.648 186.472 109.88 186.472 110.152C186.472 110.464 186.596 110.716 186.844 110.908C187.092 111.092 187.436 111.184 187.876 111.184C188.308 111.184 188.684 111.088 189.004 110.896C189.332 110.704 189.568 110.424 189.712 110.056L189.94 110.848C189.788 111.224 189.52 111.524 189.136 111.748C188.752 111.964 188.268 112.072 187.684 112.072ZM195.38 112.072C194.74 112.072 194.244 111.9 193.892 111.556C193.54 111.212 193.364 110.72 193.364 110.08V104.248H194.516V110.032C194.516 110.376 194.6 110.64 194.768 110.824C194.944 111.008 195.192 111.1 195.512 111.1C195.872 111.1 196.172 111 196.412 110.8L196.772 111.628C196.596 111.78 196.384 111.892 196.136 111.964C195.896 112.036 195.644 112.072 195.38 112.072ZM192.284 106.588V105.64H196.34V106.588H192.284ZM202.313 112V110.656L202.253 110.404V108.112C202.253 107.624 202.109 107.248 201.821 106.984C201.541 106.712 201.117 106.576 200.549 106.576C200.173 106.576 199.805 106.64 199.445 106.768C199.085 106.888 198.781 107.052 198.533 107.26L198.053 106.396C198.381 106.132 198.773 105.932 199.229 105.796C199.693 105.652 200.177 105.58 200.681 105.58C201.553 105.58 202.225 105.792 202.697 106.216C203.169 106.64 203.405 107.288 203.405 108.16V112H202.313ZM200.225 112.072C199.753 112.072 199.337 111.992 198.977 111.832C198.625 111.672 198.353 111.452 198.161 111.172C197.969 110.884 197.873 110.56 197.873 110.2C197.873 109.856 197.953 109.544 198.113 109.264C198.281 108.984 198.549 108.76 198.917 108.592C199.293 108.424 199.797 108.34 200.429 108.34H202.445V109.168H200.477C199.901 109.168 199.513 109.264 199.313 109.456C199.113 109.648 199.013 109.88 199.013 110.152C199.013 110.464 199.137 110.716 199.385 110.908C199.633 111.092 199.977 111.184 200.417 111.184C200.849 111.184 201.225 111.088 201.545 110.896C201.873 110.704 202.109 110.424 202.253 110.056L202.481 110.848C202.329 111.224 202.061 111.524 201.677 111.748C201.293 111.964 200.809 112.072 200.225 112.072ZM41.26 130V121.6H44.536C45.272 121.6 45.9 121.716 46.42 121.948C46.94 122.18 47.34 122.516 47.62 122.956C47.9 123.396 48.04 123.92 48.04 124.528C48.04 125.136 47.9 125.66 47.62 126.1C47.34 126.532 46.94 126.868 46.42 127.108C45.9 127.34 45.272 127.456 44.536 127.456H41.92L42.46 126.892V130H41.26ZM42.46 127.012L41.92 126.412H44.5C45.268 126.412 45.848 126.248 46.24 125.92C46.64 125.592 46.84 125.128 46.84 124.528C46.84 123.928 46.64 123.464 46.24 123.136C45.848 122.808 45.268 122.644 44.5 122.644H41.92L42.46 122.044V127.012ZM49.7178 130V123.64H50.8218V125.368L50.7138 124.936C50.8898 124.496 51.1858 124.16 51.6018 123.928C52.0178 123.696 52.5298 123.58 53.1378 123.58V124.696C53.0898 124.688 53.0418 124.684 52.9938 124.684C52.9538 124.684 52.9138 124.684 52.8738 124.684C52.2578 124.684 51.7698 124.868 51.4098 125.236C51.0498 125.604 50.8698 126.136 50.8698 126.832V130H49.7178ZM57.423 130.072C56.783 130.072 56.215 129.932 55.719 129.652C55.223 129.372 54.831 128.988 54.543 128.5C54.255 128.004 54.111 127.444 54.111 126.82C54.111 126.188 54.255 125.628 54.543 125.14C54.831 124.652 55.223 124.272 55.719 124C56.215 123.72 56.783 123.58 57.423 123.58C58.055 123.58 58.619 123.72 59.115 124C59.619 124.272 60.011 124.652 60.291 125.14C60.579 125.62 60.723 126.18 60.723 126.82C60.723 127.452 60.579 128.012 60.291 128.5C60.011 128.988 59.619 129.372 59.115 129.652C58.619 129.932 58.055 130.072 57.423 130.072ZM57.423 129.064C57.831 129.064 58.195 128.972 58.515 128.788C58.843 128.604 59.099 128.344 59.283 128.008C59.467 127.664 59.559 127.268 59.559 126.82C59.559 126.364 59.467 125.972 59.283 125.644C59.099 125.308 58.843 125.048 58.515 124.864C58.195 124.68 57.831 124.588 57.423 124.588C57.015 124.588 56.651 124.68 56.331 124.864C56.011 125.048 55.755 125.308 55.563 125.644C55.371 125.972 55.275 126.364 55.275 126.82C55.275 127.268 55.371 127.664 55.563 128.008C55.755 128.344 56.011 128.604 56.331 128.788C56.651 128.972 57.015 129.064 57.423 129.064ZM64.7002 130.072C64.0602 130.072 63.5642 129.9 63.2122 129.556C62.8602 129.212 62.6842 128.72 62.6842 128.08V122.248H63.8362V128.032C63.8362 128.376 63.9202 128.64 64.0882 128.824C64.2642 129.008 64.5122 129.1 64.8322 129.1C65.1922 129.1 65.4922 129 65.7322 128.8L66.0922 129.628C65.9162 129.78 65.7042 129.892 65.4562 129.964C65.2162 130.036 64.9642 130.072 64.7002 130.072ZM61.6042 124.588V123.64H65.6602V124.588H61.6042ZM70.306 130.072C69.626 130.072 69.026 129.932 68.506 129.652C67.994 129.372 67.594 128.988 67.306 128.5C67.026 128.012 66.886 127.452 66.886 126.82C66.886 126.188 67.022 125.628 67.294 125.14C67.574 124.652 67.954 124.272 68.434 124C68.922 123.72 69.47 123.58 70.078 123.58C70.694 123.58 71.238 123.716 71.71 123.988C72.182 124.26 72.55 124.644 72.814 125.14C73.086 125.628 73.222 126.2 73.222 126.856C73.222 126.904 73.218 126.96 73.21 127.024C73.21 127.088 73.206 127.148 73.198 127.204H67.786V126.376H72.598L72.13 126.664C72.138 126.256 72.054 125.892 71.878 125.572C71.702 125.252 71.458 125.004 71.146 124.828C70.842 124.644 70.486 124.552 70.078 124.552C69.678 124.552 69.322 124.644 69.01 124.828C68.698 125.004 68.454 125.256 68.278 125.584C68.102 125.904 68.014 126.272 68.014 126.688V126.88C68.014 127.304 68.11 127.684 68.302 128.02C68.502 128.348 68.778 128.604 69.13 128.788C69.482 128.972 69.886 129.064 70.342 129.064C70.718 129.064 71.058 129 71.362 128.872C71.674 128.744 71.946 128.552 72.178 128.296L72.814 129.04C72.526 129.376 72.166 129.632 71.734 129.808C71.31 129.984 70.834 130.072 70.306 130.072ZM77.7937 130.072C77.1457 130.072 76.5657 129.932 76.0537 129.652C75.5497 129.372 75.1537 128.988 74.8657 128.5C74.5777 128.012 74.4337 127.452 74.4337 126.82C74.4337 126.188 74.5777 125.628 74.8657 125.14C75.1537 124.652 75.5497 124.272 76.0537 124C76.5657 123.72 77.1457 123.58 77.7937 123.58C78.3697 123.58 78.8817 123.696 79.3297 123.928C79.7857 124.152 80.1377 124.488 80.3857 124.936L79.5097 125.5C79.3017 125.188 79.0457 124.96 78.7417 124.816C78.4457 124.664 78.1257 124.588 77.7817 124.588C77.3657 124.588 76.9937 124.68 76.6657 124.864C76.3377 125.048 76.0777 125.308 75.8857 125.644C75.6937 125.972 75.5977 126.364 75.5977 126.82C75.5977 127.276 75.6937 127.672 75.8857 128.008C76.0777 128.344 76.3377 128.604 76.6657 128.788C76.9937 128.972 77.3657 129.064 77.7817 129.064C78.1257 129.064 78.4457 128.992 78.7417 128.848C79.0457 128.696 79.3017 128.464 79.5097 128.152L80.3857 128.704C80.1377 129.144 79.7857 129.484 79.3297 129.724C78.8817 129.956 78.3697 130.072 77.7937 130.072ZM84.3432 130.072C83.7032 130.072 83.2072 129.9 82.8552 129.556C82.5032 129.212 82.3272 128.72 82.3272 128.08V122.248H83.4792V128.032C83.4792 128.376 83.5632 128.64 83.7312 128.824C83.9072 129.008 84.1552 129.1 84.4752 129.1C84.8352 129.1 85.1352 129 85.3752 128.8L85.7352 129.628C85.5592 129.78 85.3472 129.892 85.0992 129.964C84.8592 130.036 84.6072 130.072 84.3432 130.072ZM81.2472 124.588V123.64H85.3032V124.588H81.2472ZM87.3279 130V123.64H88.4799V130H87.3279ZM87.9039 122.416C87.6799 122.416 87.4919 122.344 87.3399 122.2C87.1959 122.056 87.1239 121.88 87.1239 121.672C87.1239 121.456 87.1959 121.276 87.3399 121.132C87.4919 120.988 87.6799 120.916 87.9039 120.916C88.1279 120.916 88.3119 120.988 88.4559 121.132C88.6079 121.268 88.6839 121.44 88.6839 121.648C88.6839 121.864 88.6119 122.048 88.4679 122.2C88.3239 122.344 88.1359 122.416 87.9039 122.416ZM93.6035 130.072C92.9635 130.072 92.3955 129.932 91.8995 129.652C91.4035 129.372 91.0115 128.988 90.7235 128.5C90.4355 128.004 90.2915 127.444 90.2915 126.82C90.2915 126.188 90.4355 125.628 90.7235 125.14C91.0115 124.652 91.4035 124.272 91.8995 124C92.3955 123.72 92.9635 123.58 93.6035 123.58C94.2355 123.58 94.7995 123.72 95.2955 124C95.7995 124.272 96.1915 124.652 96.4715 125.14C96.7595 125.62 96.9035 126.18 96.9035 126.82C96.9035 127.452 96.7595 128.012 96.4715 128.5C96.1915 128.988 95.7995 129.372 95.2955 129.652C94.7995 129.932 94.2355 130.072 93.6035 130.072ZM93.6035 129.064C94.0115 129.064 94.3755 128.972 94.6955 128.788C95.0235 128.604 95.2795 128.344 95.4635 128.008C95.6475 127.664 95.7395 127.268 95.7395 126.82C95.7395 126.364 95.6475 125.972 95.4635 125.644C95.2795 125.308 95.0235 125.048 94.6955 124.864C94.3755 124.68 94.0115 124.588 93.6035 124.588C93.1955 124.588 92.8315 124.68 92.5115 124.864C92.1915 125.048 91.9355 125.308 91.7435 125.644C91.5515 125.972 91.4555 126.364 91.4555 126.82C91.4555 127.268 91.5515 127.664 91.7435 128.008C91.9355 128.344 92.1915 128.604 92.5115 128.788C92.8315 128.972 93.1955 129.064 93.6035 129.064ZM102.093 123.58C102.613 123.58 103.069 123.68 103.461 123.88C103.861 124.08 104.173 124.384 104.397 124.792C104.621 125.2 104.733 125.716 104.733 126.34V130H103.581V126.472C103.581 125.856 103.429 125.392 103.125 125.08C102.829 124.768 102.409 124.612 101.865 124.612C101.457 124.612 101.101 124.692 100.797 124.852C100.493 125.012 100.257 125.248 100.089 125.56C99.9287 125.872 99.8487 126.26 99.8487 126.724V130H98.6967V123.64H99.8007V125.356L99.6207 124.9C99.8287 124.484 100.149 124.16 100.581 123.928C101.013 123.696 101.517 123.58 102.093 123.58ZM109.383 130L113.187 121.6H114.375L118.191 130H116.931L113.535 122.272H114.015L110.619 130H109.383ZM111.003 127.9L111.327 126.94H116.055L116.403 127.9H111.003ZM122.19 130.072C121.542 130.072 120.962 129.932 120.45 129.652C119.946 129.372 119.55 128.988 119.262 128.5C118.974 128.012 118.83 127.452 118.83 126.82C118.83 126.188 118.974 125.628 119.262 125.14C119.55 124.652 119.946 124.272 120.45 124C120.962 123.72 121.542 123.58 122.19 123.58C122.766 123.58 123.278 123.696 123.726 123.928C124.182 124.152 124.534 124.488 124.782 124.936L123.906 125.5C123.698 125.188 123.442 124.96 123.138 124.816C122.842 124.664 122.522 124.588 122.178 124.588C121.762 124.588 121.39 124.68 121.062 124.864C120.734 125.048 120.474 125.308 120.282 125.644C120.09 125.972 119.994 126.364 119.994 126.82C119.994 127.276 120.09 127.672 120.282 128.008C120.474 128.344 120.734 128.604 121.062 128.788C121.39 128.972 121.762 129.064 122.178 129.064C122.522 129.064 122.842 128.992 123.138 128.848C123.442 128.696 123.698 128.464 123.906 128.152L124.782 128.704C124.534 129.144 124.182 129.484 123.726 129.724C123.278 129.956 122.766 130.072 122.19 130.072ZM128.739 130.072C128.099 130.072 127.603 129.9 127.251 129.556C126.899 129.212 126.723 128.72 126.723 128.08V122.248H127.875V128.032C127.875 128.376 127.959 128.64 128.127 128.824C128.303 129.008 128.551 129.1 128.871 129.1C129.231 129.1 129.531 129 129.771 128.8L130.131 129.628C129.955 129.78 129.743 129.892 129.495 129.964C129.255 130.036 129.003 130.072 128.739 130.072ZM125.643 124.588V123.64H129.699V124.588H125.643Z" fill="#19191F"/>
<path d="M248 54.5C248 53.0166 247.56 51.5666 246.736 50.3332C245.912 49.0999 244.741 48.1386 243.37 47.5709C242 47.0032 240.492 46.8547 239.037 47.1441C237.582 47.4335 236.246 48.1478 235.197 49.1967C234.148 50.2456 233.434 51.582 233.144 53.0368C232.855 54.4917 233.003 55.9997 233.571 57.3701C234.139 58.7406 235.1 59.9119 236.333 60.736C237.567 61.5601 239.017 62 240.5 62C242.488 61.9978 244.395 61.2069 245.801 59.8009C247.207 58.3948 247.998 56.4884 248 54.5ZM239.97 58.0303C239.9 57.9606 239.845 57.878 239.807 57.787C239.769 57.696 239.75 57.5985 239.75 57.5C239.75 57.4015 239.769 57.304 239.807 57.213C239.845 57.122 239.9 57.0393 239.97 56.9697L241.689 55.25H237.5C237.301 55.25 237.11 55.171 236.97 55.0303C236.829 54.8897 236.75 54.6989 236.75 54.5C236.75 54.3011 236.829 54.1103 236.97 53.9697C237.11 53.829 237.301 53.75 237.5 53.75H241.689L239.97 52.0303C239.831 51.8892 239.754 51.6991 239.755 51.5014C239.756 51.3037 239.835 51.1143 239.975 50.9745C240.114 50.8347 240.304 50.7558 240.501 50.7549C240.699 50.754 240.889 50.8312 241.03 50.9698L244.03 53.9695C244.17 54.1105 244.249 54.3012 244.249 54.5C244.249 54.6988 244.17 54.8895 244.03 55.0305L241.03 58.0303C240.961 58.0999 240.878 58.1552 240.787 58.1929C240.696 58.2306 240.598 58.25 240.5 58.25C240.402 58.25 240.304 58.2306 240.213 58.1929C240.122 58.1552 240.039 58.0999 239.97 58.0303Z" fill="#5B588F"/>
<defs>
<filter id="filter0_dd_4190_12447" x="0" y="0" width="290" height="182" filterUnits="userSpaceOnUse" color-interpolation-filters="sRGB">
<feFlood flood-opacity="0" result="BackgroundImageFix"/>
<feColorMatrix in="SourceAlpha" type="matrix" values="0 0 0 0 0 0 0 0 0 0 0 0 0 0 0 0 0 0 127 0" result="hardAlpha"/>
<feMorphology radius="2" operator="dilate" in="SourceAlpha" result="effect1_dropShadow_4190_12447"/>
<feOffset dx="4" dy="4"/>
<feGaussianBlur stdDeviation="8"/>
<feComposite in2="hardAlpha" operator="out"/>
<feColorMatrix type="matrix" values="0 0 0 0 1 0 0 0 0 1 0 0 0 0 1 0 0 0 0.25 0"/>
<feBlend mode="normal" in2="BackgroundImageFix" result="effect1_dropShadow_4190_12447"/>
<feColorMatrix in="SourceAlpha" type="matrix" values="0 0 0 0 0 0 0 0 0 0 0 0 0 0 0 0 0 0 127 0" result="hardAlpha"/>
<feOffset dx="-4" dy="-4"/>
<feGaussianBlur stdDeviation="8"/>
<feComposite in2="hardAlpha" operator="out"/>
<feColorMatrix type="matrix" values="0 0 0 0 1 0 0 0 0 1 0 0 0 0 1 0 0 0 0.25 0"/>
<feBlend mode="normal" in2="effect1_dropShadow_4190_12447" result="effect2_dropShadow_4190_12447"/>
<feBlend mode="normal" in="SourceGraphic" in2="effect2_dropShadow_4190_12447" result="shape"/>
</filter>
</defs>
</svg>
