<svg width="290" height="132" viewBox="0 0 290 132" fill="none" xmlns="http://www.w3.org/2000/svg">
<g filter="url(#filter0_dd_4201_12441)">
<rect x="20" y="20" width="248" height="90" rx="10" fill="white"/>
</g>
<path d="M89.382 70.168C88.6073 70.168 87.856 70.0653 87.128 69.86C86.4093 69.6453 85.8307 69.37 85.392 69.034L86.162 67.326C86.582 67.634 87.0813 67.8813 87.66 68.068C88.2387 68.2547 88.8173 68.348 89.396 68.348C90.04 68.348 90.516 68.2547 90.824 68.068C91.132 67.872 91.286 67.6153 91.286 67.298C91.286 67.0647 91.1927 66.8733 91.006 66.724C90.8287 66.5653 90.5953 66.4393 90.306 66.346C90.026 66.2527 89.6433 66.15 89.158 66.038C88.4113 65.8607 87.8 65.6833 87.324 65.506C86.848 65.3287 86.4373 65.044 86.092 64.652C85.756 64.26 85.588 63.7373 85.588 63.084C85.588 62.5147 85.742 62.0013 86.05 61.544C86.358 61.0773 86.82 60.7087 87.436 60.438C88.0613 60.1673 88.822 60.032 89.718 60.032C90.3433 60.032 90.9547 60.1067 91.552 60.256C92.1493 60.4053 92.672 60.62 93.12 60.9L92.42 62.622C91.5147 62.1087 90.6093 61.852 89.704 61.852C89.0693 61.852 88.598 61.9547 88.29 62.16C87.9913 62.3653 87.842 62.636 87.842 62.972C87.842 63.308 88.0147 63.56 88.36 63.728C88.7147 63.8867 89.2513 64.0453 89.97 64.204C90.7167 64.3813 91.328 64.5587 91.804 64.736C92.28 64.9133 92.686 65.1933 93.022 65.576C93.3673 65.9587 93.54 66.4767 93.54 67.13C93.54 67.69 93.3813 68.2033 93.064 68.67C92.756 69.1273 92.2893 69.4913 91.664 69.762C91.0387 70.0327 90.278 70.168 89.382 70.168ZM98.7197 70.112C97.9264 70.112 97.2124 69.9487 96.5777 69.622C95.9524 69.286 95.4624 68.824 95.1077 68.236C94.7531 67.648 94.5757 66.9807 94.5757 66.234C94.5757 65.4873 94.7531 64.82 95.1077 64.232C95.4624 63.644 95.9524 63.1867 96.5777 62.86C97.2124 62.524 97.9264 62.356 98.7197 62.356C99.5131 62.356 100.222 62.524 100.848 62.86C101.473 63.1867 101.963 63.644 102.318 64.232C102.672 64.82 102.85 65.4873 102.85 66.234C102.85 66.9807 102.672 67.648 102.318 68.236C101.963 68.824 101.473 69.286 100.848 69.622C100.222 69.9487 99.5131 70.112 98.7197 70.112ZM98.7197 68.32C99.2797 68.32 99.7371 68.1333 100.092 67.76C100.456 67.3773 100.638 66.8687 100.638 66.234C100.638 65.5993 100.456 65.0953 100.092 64.722C99.7371 64.3393 99.2797 64.148 98.7197 64.148C98.1597 64.148 97.6977 64.3393 97.3337 64.722C96.9697 65.0953 96.7877 65.5993 96.7877 66.234C96.7877 66.8687 96.9697 67.3773 97.3337 67.76C97.6977 68.1333 98.1597 68.32 98.7197 68.32ZM112.098 62.468V70H110.026V69.104C109.736 69.4307 109.391 69.6827 108.99 69.86C108.588 70.028 108.154 70.112 107.688 70.112C106.698 70.112 105.914 69.8273 105.336 69.258C104.757 68.6887 104.468 67.844 104.468 66.724V62.468H106.652V66.402C106.652 67.6153 107.16 68.222 108.178 68.222C108.7 68.222 109.12 68.054 109.438 67.718C109.755 67.3727 109.914 66.864 109.914 66.192V62.468H112.098ZM119.179 69.636C118.964 69.7947 118.698 69.916 118.381 70C118.073 70.0747 117.746 70.112 117.401 70.112C116.505 70.112 115.81 69.8833 115.315 69.426C114.83 68.9687 114.587 68.2967 114.587 67.41V64.316H113.425V62.636H114.587V60.802H116.771V62.636H118.647V64.316H116.771V67.382C116.771 67.6993 116.85 67.9467 117.009 68.124C117.177 68.292 117.41 68.376 117.709 68.376C118.054 68.376 118.348 68.2827 118.591 68.096L119.179 69.636ZM125.183 62.356C126.116 62.356 126.868 62.636 127.437 63.196C128.016 63.756 128.305 64.5867 128.305 65.688V70H126.121V66.024C126.121 65.4267 125.99 64.9833 125.729 64.694C125.468 64.3953 125.09 64.246 124.595 64.246C124.044 64.246 123.606 64.4187 123.279 64.764C122.952 65.1 122.789 65.604 122.789 66.276V70H120.605V59.612H122.789V63.252C123.078 62.9627 123.428 62.7433 123.839 62.594C124.25 62.4353 124.698 62.356 125.183 62.356ZM141.257 67.9H136.707L135.839 70H133.515L137.883 60.2H140.123L144.505 70H142.125L141.257 67.9ZM140.543 66.178L138.989 62.426L137.435 66.178H140.543ZM147.962 62.636H149.894V64.316H148.018V70H145.834V64.316H144.672V62.636H145.834V62.3C145.834 61.4413 146.086 60.76 146.59 60.256C147.103 59.752 147.822 59.5 148.746 59.5C149.073 59.5 149.381 59.5373 149.67 59.612C149.969 59.6773 150.216 59.7753 150.412 59.906L149.838 61.488C149.586 61.3107 149.292 61.222 148.956 61.222C148.293 61.222 147.962 61.586 147.962 62.314V62.636ZM154.389 63.462C154.651 63.098 155.001 62.8227 155.439 62.636C155.887 62.4493 156.401 62.356 156.979 62.356V64.372C156.737 64.3533 156.573 64.344 156.489 64.344C155.864 64.344 155.374 64.5213 155.019 64.876C154.665 65.2213 154.487 65.744 154.487 66.444V70H152.303V62.468H154.389V63.462ZM158.478 62.468H160.662V70H158.478V62.468ZM159.57 61.418C159.169 61.418 158.842 61.3013 158.59 61.068C158.338 60.8347 158.212 60.5453 158.212 60.2C158.212 59.8547 158.338 59.5653 158.59 59.332C158.842 59.0987 159.169 58.982 159.57 58.982C159.971 58.982 160.298 59.094 160.55 59.318C160.802 59.542 160.928 59.822 160.928 60.158C160.928 60.522 160.802 60.8253 160.55 61.068C160.298 61.3013 159.971 61.418 159.57 61.418ZM166.529 70.112C165.726 70.112 165.003 69.9487 164.359 69.622C163.724 69.286 163.225 68.824 162.861 68.236C162.506 67.648 162.329 66.9807 162.329 66.234C162.329 65.4873 162.506 64.82 162.861 64.232C163.225 63.644 163.724 63.1867 164.359 62.86C165.003 62.524 165.726 62.356 166.529 62.356C167.322 62.356 168.013 62.524 168.601 62.86C169.198 63.1867 169.632 63.658 169.903 64.274L168.209 65.184C167.817 64.4933 167.252 64.148 166.515 64.148C165.946 64.148 165.474 64.3347 165.101 64.708C164.728 65.0813 164.541 65.59 164.541 66.234C164.541 66.878 164.728 67.3867 165.101 67.76C165.474 68.1333 165.946 68.32 166.515 68.32C167.262 68.32 167.826 67.9747 168.209 67.284L169.903 68.208C169.632 68.8053 169.198 69.272 168.601 69.608C168.013 69.944 167.322 70.112 166.529 70.112ZM174.398 62.356C175.565 62.356 176.461 62.636 177.086 63.196C177.712 63.7467 178.024 64.582 178.024 65.702V70H175.98V69.062C175.57 69.762 174.804 70.112 173.684 70.112C173.106 70.112 172.602 70.014 172.172 69.818C171.752 69.622 171.43 69.3513 171.206 69.006C170.982 68.6607 170.87 68.2687 170.87 67.83C170.87 67.13 171.132 66.5793 171.654 66.178C172.186 65.7767 173.003 65.576 174.104 65.576H175.84C175.84 65.1 175.696 64.736 175.406 64.484C175.117 64.2227 174.683 64.092 174.104 64.092C173.703 64.092 173.306 64.1573 172.914 64.288C172.532 64.4093 172.205 64.5773 171.934 64.792L171.15 63.266C171.561 62.9767 172.051 62.7527 172.62 62.594C173.199 62.4353 173.792 62.356 174.398 62.356ZM174.23 68.642C174.604 68.642 174.935 68.558 175.224 68.39C175.514 68.2127 175.719 67.956 175.84 67.62V66.85H174.342C173.446 66.85 172.998 67.144 172.998 67.732C172.998 68.012 173.106 68.236 173.32 68.404C173.544 68.5627 173.848 68.642 174.23 68.642Z" fill="#19191F"/>
<g clip-path="url(#clip0_4201_12441)">
<path d="M55 80C63.2843 80 70 73.2843 70 65C70 56.7157 63.2843 50 55 50C46.7157 50 40 56.7157 40 65C40 73.2843 46.7157 80 55 80Z" fill="#F0F0F0"/>
<path d="M44.3934 75.6059C38.5355 69.7479 38.5355 60.2505 44.3934 54.3926C44.393 54.3932 53.0435 64.9992 53.0435 64.9992L44.3934 75.6059Z" fill="black"/>
<path d="M53.0434 64.9992L41.9893 57.5293C41.6466 58.125 41.3444 58.7468 41.0847 59.3904L46.6809 64.9993L41.0849 70.6085C41.3443 71.2516 41.6463 71.873 41.9888 72.4683L53.0434 64.9992Z" fill="#FFDA44"/>
<path d="M69.873 63.0444H53.043L44.3932 54.3945C43.4611 55.3266 42.6512 56.3808 41.9894 57.5311L49.4448 65.0009L41.9888 72.4699C42.6506 73.6204 43.4608 74.6749 44.3932 75.6073L53.043 66.9574H69.873C69.9563 66.317 69.9999 65.664 69.9999 65.0009C69.9999 64.3378 69.9563 63.6849 69.873 63.0444Z" fill="#6DA544"/>
<path d="M45.8674 76.8981C48.3969 78.8423 51.5631 79.999 55 79.999C61.9304 79.999 67.762 75.2986 69.4832 68.9121H53.8535L45.8674 76.8981Z" fill="#0052B4"/>
<path d="M69.4832 61.0869C67.762 54.7004 61.9304 50 55 50C51.5631 50 48.3969 51.1567 45.8674 53.101L53.8534 61.0869H69.4832Z" fill="#D80027"/>
</g>
<path d="M248 64.5C248 63.0166 247.56 61.5666 246.736 60.3332C245.912 59.0999 244.741 58.1386 243.37 57.5709C242 57.0032 240.492 56.8547 239.037 57.1441C237.582 57.4335 236.246 58.1478 235.197 59.1967C234.148 60.2456 233.434 61.582 233.144 63.0368C232.855 64.4917 233.003 65.9997 233.571 67.3701C234.139 68.7406 235.1 69.9119 236.333 70.736C237.567 71.5601 239.017 72 240.5 72C242.488 71.9978 244.395 71.2069 245.801 69.8009C247.207 68.3948 247.998 66.4884 248 64.5ZM239.97 68.0303C239.9 67.9606 239.845 67.878 239.807 67.787C239.769 67.696 239.75 67.5985 239.75 67.5C239.75 67.4015 239.769 67.304 239.807 67.213C239.845 67.122 239.9 67.0393 239.97 66.9697L241.689 65.25H237.5C237.301 65.25 237.11 65.171 236.97 65.0303C236.829 64.8897 236.75 64.6989 236.75 64.5C236.75 64.3011 236.829 64.1103 236.97 63.9697C237.11 63.829 237.301 63.75 237.5 63.75H241.689L239.97 62.0303C239.831 61.8892 239.754 61.6991 239.755 61.5014C239.756 61.3037 239.835 61.1143 239.975 60.9745C240.114 60.8347 240.304 60.7558 240.501 60.7549C240.699 60.754 240.889 60.8312 241.03 60.9698L244.03 63.9695C244.17 64.1105 244.249 64.3012 244.249 64.5C244.249 64.6988 244.17 64.8895 244.03 65.0305L241.03 68.0303C240.961 68.0999 240.878 68.1552 240.787 68.1929C240.696 68.2306 240.598 68.25 240.5 68.25C240.402 68.25 240.304 68.2306 240.213 68.1929C240.122 68.1552 240.039 68.0999 239.97 68.0303Z" fill="#5B588F"/>
<defs>
<filter id="filter0_dd_4201_12441" x="0" y="0" width="290" height="132" filterUnits="userSpaceOnUse" color-interpolation-filters="sRGB">
<feFlood flood-opacity="0" result="BackgroundImageFix"/>
<feColorMatrix in="SourceAlpha" type="matrix" values="0 0 0 0 0 0 0 0 0 0 0 0 0 0 0 0 0 0 127 0" result="hardAlpha"/>
<feMorphology radius="2" operator="dilate" in="SourceAlpha" result="effect1_dropShadow_4201_12441"/>
<feOffset dx="4" dy="4"/>
<feGaussianBlur stdDeviation="8"/>
<feComposite in2="hardAlpha" operator="out"/>
<feColorMatrix type="matrix" values="0 0 0 0 1 0 0 0 0 1 0 0 0 0 1 0 0 0 0.25 0"/>
<feBlend mode="normal" in2="BackgroundImageFix" result="effect1_dropShadow_4201_12441"/>
<feColorMatrix in="SourceAlpha" type="matrix" values="0 0 0 0 0 0 0 0 0 0 0 0 0 0 0 0 0 0 127 0" result="hardAlpha"/>
<feOffset dx="-4" dy="-4"/>
<feGaussianBlur stdDeviation="8"/>
<feComposite in2="hardAlpha" operator="out"/>
<feColorMatrix type="matrix" values="0 0 0 0 1 0 0 0 0 1 0 0 0 0 1 0 0 0 0.25 0"/>
<feBlend mode="normal" in2="effect1_dropShadow_4201_12441" result="effect2_dropShadow_4201_12441"/>
<feBlend mode="normal" in="SourceGraphic" in2="effect2_dropShadow_4201_12441" result="shape"/>
</filter>
<clipPath id="clip0_4201_12441">
<rect width="30" height="30" fill="white" transform="translate(40 50)"/>
</clipPath>
</defs>
</svg>
