<svg width="290" height="132" viewBox="0 0 290 132" fill="none" xmlns="http://www.w3.org/2000/svg">
<g filter="url(#filter0_dd_4201_12448)">
<rect x="20" y="20" width="248" height="90" rx="10" fill="white"/>
</g>
<path d="M55 80C63.2843 80 70 73.2843 70 65C70 56.7157 63.2843 50 55 50C46.7157 50 40 56.7157 40 65C40 73.2843 46.7157 80 55 80Z" fill="#6DA544"/>
<path d="M48.4784 67.9355C48.4784 69.0161 49.3544 69.8921 50.4349 69.8921H56.3045C56.3045 70.7925 57.0344 71.5225 57.9349 71.5225H59.8914C60.7919 71.5225 61.5218 70.7925 61.5218 69.8921V67.9355H48.4784Z" fill="#F0F0F0"/>
<path d="M61.6848 58.4785V63.0437C61.6848 63.763 61.0997 64.3481 60.3805 64.3481V66.3046C62.1786 66.3046 63.6414 64.8417 63.6414 63.0437V58.4785H61.6848Z" fill="#F0F0F0"/>
<path d="M47.6631 63.0437C47.6631 63.763 47.078 64.3481 46.3588 64.3481V66.3046C48.1568 66.3046 49.6196 64.8417 49.6196 63.0437V58.4785H47.6631V63.0437Z" fill="#F0F0F0"/>
<path d="M58.75 58.4785H60.7065V63.0437H58.75V58.4785Z" fill="#F0F0F0"/>
<path d="M55.8153 61.0872C55.8153 61.2671 55.669 61.4133 55.4892 61.4133C55.3094 61.4133 55.1631 61.267 55.1631 61.0872V58.4785H53.2066V61.0872C53.2066 61.2671 53.0603 61.4133 52.8805 61.4133C52.7008 61.4133 52.5545 61.267 52.5545 61.0872V58.4785H50.5979V61.0872C50.5979 62.3459 51.6219 63.3699 52.8805 63.3699C53.3653 63.3699 53.8148 63.2175 54.1849 62.9588C54.5549 63.2175 55.0045 63.3699 55.4892 63.3699C55.5869 63.3699 55.6828 63.363 55.7772 63.351C55.6386 63.9222 55.1242 64.3481 54.511 64.3481V66.3046C56.309 66.3046 57.7718 64.8417 57.7718 63.0437V61.0872V58.4785H55.8153V61.0872H55.8153Z" fill="#F0F0F0"/>
<path d="M50.5979 64.3477H53.5327V66.3042H50.5979V64.3477Z" fill="#F0F0F0"/>
<path d="M89.382 70.168C88.598 70.168 87.8467 70.0653 87.128 69.86C86.4093 69.6453 85.8307 69.37 85.392 69.034L86.162 67.326C86.582 67.6247 87.0767 67.872 87.646 68.068C88.2247 68.2547 88.808 68.348 89.396 68.348C89.844 68.348 90.2033 68.306 90.474 68.222C90.754 68.1287 90.9593 68.0027 91.09 67.844C91.2207 67.6853 91.286 67.5033 91.286 67.298C91.286 67.0367 91.1833 66.8313 90.978 66.682C90.7727 66.5233 90.502 66.3973 90.166 66.304C89.83 66.2013 89.4567 66.108 89.046 66.024C88.6447 65.9307 88.2387 65.8187 87.828 65.688C87.4267 65.5573 87.058 65.3893 86.722 65.184C86.386 64.9787 86.1107 64.708 85.896 64.372C85.6907 64.036 85.588 63.6067 85.588 63.084C85.588 62.524 85.7373 62.0153 86.036 61.558C86.344 61.0913 86.8013 60.7227 87.408 60.452C88.024 60.172 88.794 60.032 89.718 60.032C90.334 60.032 90.9407 60.1067 91.538 60.256C92.1353 60.396 92.6627 60.6107 93.12 60.9L92.42 62.622C91.9627 62.3607 91.5053 62.1693 91.048 62.048C90.5907 61.9173 90.1427 61.852 89.704 61.852C89.2653 61.852 88.906 61.9033 88.626 62.006C88.346 62.1087 88.1453 62.244 88.024 62.412C87.9027 62.5707 87.842 62.7573 87.842 62.972C87.842 63.224 87.9447 63.4293 88.15 63.588C88.3553 63.7373 88.626 63.8587 88.962 63.952C89.298 64.0453 89.6667 64.1387 90.068 64.232C90.4787 64.3253 90.8847 64.4327 91.286 64.554C91.6967 64.6753 92.07 64.8387 92.406 65.044C92.742 65.2493 93.0127 65.52 93.218 65.856C93.4327 66.192 93.54 66.6167 93.54 67.13C93.54 67.6807 93.386 68.1847 93.078 68.642C92.77 69.0993 92.308 69.468 91.692 69.748C91.0853 70.028 90.3153 70.168 89.382 70.168ZM99.7557 70V68.53L99.6157 68.208V65.576C99.6157 65.1093 99.4711 64.7453 99.1817 64.484C98.9017 64.2227 98.4677 64.092 97.8797 64.092C97.4784 64.092 97.0817 64.1573 96.6897 64.288C96.3071 64.4093 95.9804 64.5773 95.7097 64.792L94.9257 63.266C95.3364 62.9767 95.8311 62.7527 96.4097 62.594C96.9884 62.4353 97.5764 62.356 98.1737 62.356C99.3217 62.356 100.213 62.6267 100.848 63.168C101.482 63.7093 101.8 64.554 101.8 65.702V70H99.7557ZM97.4597 70.112C96.8717 70.112 96.3677 70.014 95.9477 69.818C95.5277 69.6127 95.2057 69.3373 94.9817 68.992C94.7577 68.6467 94.6457 68.2593 94.6457 67.83C94.6457 67.382 94.7531 66.99 94.9677 66.654C95.1917 66.318 95.5417 66.0567 96.0177 65.87C96.4937 65.674 97.1144 65.576 97.8797 65.576H99.8817V66.85H98.1177C97.6044 66.85 97.2497 66.934 97.0537 67.102C96.8671 67.27 96.7737 67.48 96.7737 67.732C96.7737 68.012 96.8811 68.236 97.0957 68.404C97.3197 68.5627 97.6231 68.642 98.0057 68.642C98.3697 68.642 98.6964 68.558 98.9857 68.39C99.2751 68.2127 99.4851 67.956 99.6157 67.62L99.9517 68.628C99.7931 69.1133 99.5037 69.482 99.0837 69.734C98.6637 69.986 98.1224 70.112 97.4597 70.112ZM107.154 70.112C106.529 70.112 105.969 69.9907 105.474 69.748C104.989 69.5053 104.611 69.1367 104.34 68.642C104.07 68.138 103.934 67.4987 103.934 66.724V62.468H106.118V66.402C106.118 67.0273 106.249 67.4893 106.51 67.788C106.781 68.0773 107.159 68.222 107.644 68.222C107.98 68.222 108.279 68.152 108.54 68.012C108.802 67.8627 109.007 67.6387 109.156 67.34C109.306 67.032 109.38 66.6493 109.38 66.192V62.468H111.564V70H109.492V67.928L109.87 68.53C109.618 69.0527 109.245 69.4493 108.75 69.72C108.265 69.9813 107.733 70.112 107.154 70.112ZM117.022 70.112C116.312 70.112 115.673 69.9533 115.104 69.636C114.534 69.3093 114.082 68.8567 113.746 68.278C113.419 67.6993 113.256 67.018 113.256 66.234C113.256 65.4407 113.419 64.7547 113.746 64.176C114.082 63.5973 114.534 63.1493 115.104 62.832C115.673 62.5147 116.312 62.356 117.022 62.356C117.656 62.356 118.212 62.496 118.688 62.776C119.164 63.056 119.532 63.4807 119.794 64.05C120.055 64.6193 120.186 65.3473 120.186 66.234C120.186 67.1113 120.06 67.8393 119.808 68.418C119.556 68.9873 119.192 69.412 118.716 69.692C118.249 69.972 117.684 70.112 117.022 70.112ZM117.4 68.32C117.754 68.32 118.076 68.236 118.366 68.068C118.655 67.9 118.884 67.662 119.052 67.354C119.229 67.0367 119.318 66.6633 119.318 66.234C119.318 65.7953 119.229 65.422 119.052 65.114C118.884 64.806 118.655 64.568 118.366 64.4C118.076 64.232 117.754 64.148 117.4 64.148C117.036 64.148 116.709 64.232 116.42 64.4C116.13 64.568 115.897 64.806 115.72 65.114C115.552 65.422 115.468 65.7953 115.468 66.234C115.468 66.6633 115.552 67.0367 115.72 67.354C115.897 67.662 116.13 67.9 116.42 68.068C116.709 68.236 117.036 68.32 117.4 68.32ZM119.374 70V68.46L119.416 66.22L119.276 63.994V59.612H121.46V70H119.374ZM123.681 70V62.468H125.865V70H123.681ZM124.773 61.418C124.372 61.418 124.045 61.3013 123.793 61.068C123.541 60.8347 123.415 60.5453 123.415 60.2C123.415 59.8547 123.541 59.5653 123.793 59.332C124.045 59.0987 124.372 58.982 124.773 58.982C125.174 58.982 125.501 59.094 125.753 59.318C126.005 59.5327 126.131 59.8127 126.131 60.158C126.131 60.522 126.005 60.8253 125.753 61.068C125.51 61.3013 125.184 61.418 124.773 61.418ZM131.123 70L135.491 60.2H137.731L142.113 70H139.733L136.149 61.348H137.045L133.447 70H131.123ZM133.307 67.9L133.909 66.178H138.949L139.565 67.9H133.307ZM143.176 70V62.468H145.262V64.596L144.968 63.98C145.192 63.448 145.551 63.0467 146.046 62.776C146.54 62.496 147.142 62.356 147.852 62.356V64.372C147.758 64.3627 147.674 64.358 147.6 64.358C147.525 64.3487 147.446 64.344 147.362 64.344C146.764 64.344 146.279 64.5167 145.906 64.862C145.542 65.198 145.36 65.7253 145.36 66.444V70H143.176ZM153.478 70V68.53L153.338 68.208V65.576C153.338 65.1093 153.193 64.7453 152.904 64.484C152.624 64.2227 152.19 64.092 151.602 64.092C151.201 64.092 150.804 64.1573 150.412 64.288C150.029 64.4093 149.703 64.5773 149.432 64.792L148.648 63.266C149.059 62.9767 149.553 62.7527 150.132 62.594C150.711 62.4353 151.299 62.356 151.896 62.356C153.044 62.356 153.935 62.6267 154.57 63.168C155.205 63.7093 155.522 64.554 155.522 65.702V70H153.478ZM151.182 70.112C150.594 70.112 150.09 70.014 149.67 69.818C149.25 69.6127 148.928 69.3373 148.704 68.992C148.48 68.6467 148.368 68.2593 148.368 67.83C148.368 67.382 148.475 66.99 148.69 66.654C148.914 66.318 149.264 66.0567 149.74 65.87C150.216 65.674 150.837 65.576 151.602 65.576H153.604V66.85H151.84C151.327 66.85 150.972 66.934 150.776 67.102C150.589 67.27 150.496 67.48 150.496 67.732C150.496 68.012 150.603 68.236 150.818 68.404C151.042 68.5627 151.345 68.642 151.728 68.642C152.092 68.642 152.419 68.558 152.708 68.39C152.997 68.2127 153.207 67.956 153.338 67.62L153.674 68.628C153.515 69.1133 153.226 69.482 152.806 69.734C152.386 69.986 151.845 70.112 151.182 70.112ZM162.151 70.112C161.488 70.112 160.919 69.972 160.443 69.692C159.967 69.412 159.603 68.9873 159.351 68.418C159.099 67.8393 158.973 67.1113 158.973 66.234C158.973 65.3473 159.103 64.6193 159.365 64.05C159.635 63.4807 160.009 63.056 160.485 62.776C160.961 62.496 161.516 62.356 162.151 62.356C162.86 62.356 163.495 62.5147 164.055 62.832C164.624 63.1493 165.072 63.5973 165.399 64.176C165.735 64.7547 165.903 65.4407 165.903 66.234C165.903 67.018 165.735 67.6993 165.399 68.278C165.072 68.8567 164.624 69.3093 164.055 69.636C163.495 69.9533 162.86 70.112 162.151 70.112ZM157.699 70V59.612H159.883V63.994L159.743 66.22L159.785 68.46V70H157.699ZM161.773 68.32C162.137 68.32 162.459 68.236 162.739 68.068C163.028 67.9 163.257 67.662 163.425 67.354C163.602 67.0367 163.691 66.6633 163.691 66.234C163.691 65.7953 163.602 65.422 163.425 65.114C163.257 64.806 163.028 64.568 162.739 64.4C162.459 64.232 162.137 64.148 161.773 64.148C161.409 64.148 161.082 64.232 160.793 64.4C160.503 64.568 160.275 64.806 160.107 65.114C159.939 65.422 159.855 65.7953 159.855 66.234C159.855 66.6633 159.939 67.0367 160.107 67.354C160.275 67.662 160.503 67.9 160.793 68.068C161.082 68.236 161.409 68.32 161.773 68.32ZM167.565 70V62.468H169.749V70H167.565ZM168.657 61.418C168.255 61.418 167.929 61.3013 167.677 61.068C167.425 60.8347 167.299 60.5453 167.299 60.2C167.299 59.8547 167.425 59.5653 167.677 59.332C167.929 59.0987 168.255 58.982 168.657 58.982C169.058 58.982 169.385 59.094 169.637 59.318C169.889 59.5327 170.015 59.8127 170.015 60.158C170.015 60.522 169.889 60.8253 169.637 61.068C169.394 61.3013 169.067 61.418 168.657 61.418ZM176.596 70V68.53L176.456 68.208V65.576C176.456 65.1093 176.311 64.7453 176.022 64.484C175.742 64.2227 175.308 64.092 174.72 64.092C174.318 64.092 173.922 64.1573 173.53 64.288C173.147 64.4093 172.82 64.5773 172.55 64.792L171.766 63.266C172.176 62.9767 172.671 62.7527 173.25 62.594C173.828 62.4353 174.416 62.356 175.014 62.356C176.162 62.356 177.053 62.6267 177.688 63.168C178.322 63.7093 178.64 64.554 178.64 65.702V70H176.596ZM174.3 70.112C173.712 70.112 173.208 70.014 172.788 69.818C172.368 69.6127 172.046 69.3373 171.822 68.992C171.598 68.6467 171.486 68.2593 171.486 67.83C171.486 67.382 171.593 66.99 171.808 66.654C172.032 66.318 172.382 66.0567 172.858 65.87C173.334 65.674 173.954 65.576 174.72 65.576H176.722V66.85H174.958C174.444 66.85 174.09 66.934 173.894 67.102C173.707 67.27 173.614 67.48 173.614 67.732C173.614 68.012 173.721 68.236 173.936 68.404C174.16 68.5627 174.463 68.642 174.846 68.642C175.21 68.642 175.536 68.558 175.826 68.39C176.115 68.2127 176.325 67.956 176.456 67.62L176.792 68.628C176.633 69.1133 176.344 69.482 175.924 69.734C175.504 69.986 174.962 70.112 174.3 70.112Z" fill="#19191F"/>
<path d="M248 64.5C248 63.0166 247.56 61.5666 246.736 60.3332C245.912 59.0999 244.741 58.1386 243.37 57.5709C242 57.0032 240.492 56.8547 239.037 57.1441C237.582 57.4335 236.246 58.1478 235.197 59.1967C234.148 60.2456 233.434 61.582 233.144 63.0368C232.855 64.4917 233.003 65.9997 233.571 67.3701C234.139 68.7406 235.1 69.9119 236.333 70.736C237.567 71.5601 239.017 72 240.5 72C242.488 71.9978 244.395 71.2069 245.801 69.8009C247.207 68.3948 247.998 66.4884 248 64.5ZM239.97 68.0303C239.9 67.9606 239.845 67.878 239.807 67.787C239.769 67.696 239.75 67.5985 239.75 67.5C239.75 67.4015 239.769 67.304 239.807 67.213C239.845 67.122 239.9 67.0393 239.97 66.9697L241.689 65.25H237.5C237.301 65.25 237.11 65.171 236.97 65.0303C236.829 64.8897 236.75 64.6989 236.75 64.5C236.75 64.3011 236.829 64.1103 236.97 63.9697C237.11 63.829 237.301 63.75 237.5 63.75H241.689L239.97 62.0303C239.831 61.8892 239.754 61.6991 239.755 61.5014C239.756 61.3037 239.835 61.1143 239.975 60.9745C240.114 60.8347 240.304 60.7558 240.501 60.7549C240.699 60.754 240.889 60.8312 241.03 60.9698L244.03 63.9695C244.17 64.1105 244.249 64.3012 244.249 64.5C244.249 64.6988 244.17 64.8895 244.03 65.0305L241.03 68.0303C240.961 68.0999 240.878 68.1552 240.787 68.1929C240.696 68.2306 240.598 68.25 240.5 68.25C240.402 68.25 240.304 68.2306 240.213 68.1929C240.122 68.1552 240.039 68.0999 239.97 68.0303Z" fill="#5B588F"/>
<defs>
<filter id="filter0_dd_4201_12448" x="0" y="0" width="290" height="132" filterUnits="userSpaceOnUse" color-interpolation-filters="sRGB">
<feFlood flood-opacity="0" result="BackgroundImageFix"/>
<feColorMatrix in="SourceAlpha" type="matrix" values="0 0 0 0 0 0 0 0 0 0 0 0 0 0 0 0 0 0 127 0" result="hardAlpha"/>
<feMorphology radius="2" operator="dilate" in="SourceAlpha" result="effect1_dropShadow_4201_12448"/>
<feOffset dx="4" dy="4"/>
<feGaussianBlur stdDeviation="8"/>
<feComposite in2="hardAlpha" operator="out"/>
<feColorMatrix type="matrix" values="0 0 0 0 1 0 0 0 0 1 0 0 0 0 1 0 0 0 0.25 0"/>
<feBlend mode="normal" in2="BackgroundImageFix" result="effect1_dropShadow_4201_12448"/>
<feColorMatrix in="SourceAlpha" type="matrix" values="0 0 0 0 0 0 0 0 0 0 0 0 0 0 0 0 0 0 127 0" result="hardAlpha"/>
<feOffset dx="-4" dy="-4"/>
<feGaussianBlur stdDeviation="8"/>
<feComposite in2="hardAlpha" operator="out"/>
<feColorMatrix type="matrix" values="0 0 0 0 1 0 0 0 0 1 0 0 0 0 1 0 0 0 0.25 0"/>
<feBlend mode="normal" in2="effect1_dropShadow_4201_12448" result="effect2_dropShadow_4201_12448"/>
<feBlend mode="normal" in="SourceGraphic" in2="effect2_dropShadow_4201_12448" result="shape"/>
</filter>
</defs>
</svg>
