<svg width="290" height="132" viewBox="0 0 290 132" fill="none" xmlns="http://www.w3.org/2000/svg">
<g filter="url(#filter0_dd_4201_12444)">
<rect x="20" y="20" width="248" height="90" rx="10" fill="white"/>
</g>
<path d="M55 80C63.2843 80 70 73.2843 70 65C70 56.7157 63.2843 50 55 50C46.7157 50 40 56.7157 40 65C40 73.2843 46.7157 80 55 80Z" fill="#F0F0F0"/>
<path d="M40 65.0001C40 56.7158 46.7158 50 55 50C63.2842 50 70 56.7158 70 65.0001" fill="#D80027"/>
<path d="M49.1304 57.8269C49.1304 55.6414 50.6663 53.8158 52.7173 53.3678C52.4021 53.299 52.0751 53.2617 51.739 53.2617C49.2177 53.2617 47.1738 55.3056 47.1738 57.8269C47.1738 60.3483 49.2177 62.3921 51.739 62.3921C52.075 62.3921 52.402 62.3548 52.7173 62.286C50.6663 61.838 49.1304 60.0124 49.1304 57.8269Z" fill="#F0F0F0"/>
<path d="M55 53.5879L55.3238 54.5843H56.3715L55.5238 55.2002L55.8476 56.1965L55 55.5808L54.1524 56.1965L54.4762 55.2002L53.6285 54.5843H54.6762L55 53.5879Z" fill="#F0F0F0"/>
<path d="M52.4585 55.5449L52.7822 56.5414H53.8299L52.9823 57.1572L53.3061 58.1536L52.4585 57.5378L51.6107 58.1536L51.9346 57.1572L51.0869 56.5414H52.1346L52.4585 55.5449Z" fill="#F0F0F0"/>
<path d="M57.5415 55.5449L57.8653 56.5414H58.913L58.0653 57.1572L58.3892 58.1536L57.5415 57.5378L56.6939 58.1536L57.0177 57.1572L56.17 56.5414H57.2177L57.5415 55.5449Z" fill="#F0F0F0"/>
<path d="M56.5633 58.4785L56.8871 59.475H57.9348L57.0872 60.0908L57.411 61.0872L56.5633 60.4714L55.7157 61.0872L56.0395 60.0908L55.1919 59.475H56.2395L56.5633 58.4785Z" fill="#F0F0F0"/>
<path d="M53.4367 58.4785L53.7604 59.475H54.8082L53.9605 60.0908L54.2844 61.0872L53.4367 60.4714L52.589 61.0872L52.9128 60.0908L52.0652 59.475H53.1129L53.4367 58.4785Z" fill="#F0F0F0"/>
<path d="M89.382 70.168C88.6073 70.168 87.856 70.0653 87.128 69.86C86.4093 69.6453 85.8307 69.37 85.392 69.034L86.162 67.326C86.582 67.634 87.0813 67.8813 87.66 68.068C88.2387 68.2547 88.8173 68.348 89.396 68.348C90.04 68.348 90.516 68.2547 90.824 68.068C91.132 67.872 91.286 67.6153 91.286 67.298C91.286 67.0647 91.1927 66.8733 91.006 66.724C90.8287 66.5653 90.5953 66.4393 90.306 66.346C90.026 66.2527 89.6433 66.15 89.158 66.038C88.4113 65.8607 87.8 65.6833 87.324 65.506C86.848 65.3287 86.4373 65.044 86.092 64.652C85.756 64.26 85.588 63.7373 85.588 63.084C85.588 62.5147 85.742 62.0013 86.05 61.544C86.358 61.0773 86.82 60.7087 87.436 60.438C88.0613 60.1673 88.822 60.032 89.718 60.032C90.3433 60.032 90.9547 60.1067 91.552 60.256C92.1493 60.4053 92.672 60.62 93.12 60.9L92.42 62.622C91.5147 62.1087 90.6093 61.852 89.704 61.852C89.0693 61.852 88.598 61.9547 88.29 62.16C87.9913 62.3653 87.842 62.636 87.842 62.972C87.842 63.308 88.0147 63.56 88.36 63.728C88.7147 63.8867 89.2513 64.0453 89.97 64.204C90.7167 64.3813 91.328 64.5587 91.804 64.736C92.28 64.9133 92.686 65.1933 93.022 65.576C93.3673 65.9587 93.54 66.4767 93.54 67.13C93.54 67.69 93.3813 68.2033 93.064 68.67C92.756 69.1273 92.2893 69.4913 91.664 69.762C91.0387 70.0327 90.278 70.168 89.382 70.168ZM95.1357 62.468H97.3197V70H95.1357V62.468ZM96.2277 61.418C95.8264 61.418 95.4997 61.3013 95.2477 61.068C94.9957 60.8347 94.8697 60.5453 94.8697 60.2C94.8697 59.8547 94.9957 59.5653 95.2477 59.332C95.4997 59.0987 95.8264 58.982 96.2277 58.982C96.6291 58.982 96.9557 59.094 97.2077 59.318C97.4597 59.542 97.5857 59.822 97.5857 60.158C97.5857 60.522 97.4597 60.8253 97.2077 61.068C96.9557 61.3013 96.6291 61.418 96.2277 61.418ZM104.125 62.356C105.058 62.356 105.809 62.636 106.379 63.196C106.957 63.756 107.247 64.5867 107.247 65.688V70H105.063V66.024C105.063 65.4267 104.932 64.9833 104.671 64.694C104.409 64.3953 104.031 64.246 103.537 64.246C102.986 64.246 102.547 64.4187 102.221 64.764C101.894 65.1 101.731 65.604 101.731 66.276V70H99.5467V62.468H101.633V63.35C101.922 63.0327 102.281 62.79 102.711 62.622C103.14 62.4447 103.611 62.356 104.125 62.356ZM117.278 62.468V68.74C117.278 70.1213 116.919 71.148 116.2 71.82C115.482 72.492 114.432 72.828 113.05 72.828C112.322 72.828 111.632 72.7393 110.978 72.562C110.325 72.3847 109.784 72.128 109.354 71.792L110.222 70.224C110.54 70.4853 110.941 70.6907 111.426 70.84C111.912 70.9987 112.397 71.078 112.882 71.078C113.638 71.078 114.194 70.9053 114.548 70.56C114.912 70.224 115.094 69.7107 115.094 69.02V68.698C114.525 69.3233 113.732 69.636 112.714 69.636C112.024 69.636 111.389 69.4867 110.81 69.188C110.241 68.88 109.788 68.4507 109.452 67.9C109.116 67.3493 108.948 66.7147 108.948 65.996C108.948 65.2773 109.116 64.6427 109.452 64.092C109.788 63.5413 110.241 63.1167 110.81 62.818C111.389 62.51 112.024 62.356 112.714 62.356C113.806 62.356 114.637 62.7153 115.206 63.434V62.468H117.278ZM113.148 67.844C113.727 67.844 114.198 67.676 114.562 67.34C114.936 66.9947 115.122 66.5467 115.122 65.996C115.122 65.4453 114.936 65.002 114.562 64.666C114.198 64.3207 113.727 64.148 113.148 64.148C112.57 64.148 112.094 64.3207 111.72 64.666C111.347 65.002 111.16 65.4453 111.16 65.996C111.16 66.5467 111.347 66.9947 111.72 67.34C112.094 67.676 112.57 67.844 113.148 67.844ZM122.549 62.356C123.716 62.356 124.612 62.636 125.237 63.196C125.862 63.7467 126.175 64.582 126.175 65.702V70H124.131V69.062C123.72 69.762 122.955 70.112 121.835 70.112C121.256 70.112 120.752 70.014 120.323 69.818C119.903 69.622 119.581 69.3513 119.357 69.006C119.133 68.6607 119.021 68.2687 119.021 67.83C119.021 67.13 119.282 66.5793 119.805 66.178C120.337 65.7767 121.154 65.576 122.255 65.576H123.991C123.991 65.1 123.846 64.736 123.557 64.484C123.268 64.2227 122.834 64.092 122.255 64.092C121.854 64.092 121.457 64.1573 121.065 64.288C120.682 64.4093 120.356 64.5773 120.085 64.792L119.301 63.266C119.712 62.9767 120.202 62.7527 120.771 62.594C121.35 62.4353 121.942 62.356 122.549 62.356ZM122.381 68.642C122.754 68.642 123.086 68.558 123.375 68.39C123.664 68.2127 123.87 67.956 123.991 67.62V66.85H122.493C121.597 66.85 121.149 67.144 121.149 67.732C121.149 68.012 121.256 68.236 121.471 68.404C121.695 68.5627 121.998 68.642 122.381 68.642ZM132.804 62.356C133.504 62.356 134.138 62.5193 134.708 62.846C135.286 63.1633 135.739 63.616 136.066 64.204C136.392 64.7827 136.556 65.4593 136.556 66.234C136.556 67.0087 136.392 67.69 136.066 68.278C135.739 68.8567 135.286 69.3093 134.708 69.636C134.138 69.9533 133.504 70.112 132.804 70.112C131.842 70.112 131.086 69.8087 130.536 69.202V72.716H128.352V62.468H130.438V63.336C130.979 62.6827 131.768 62.356 132.804 62.356ZM132.426 68.32C132.986 68.32 133.443 68.1333 133.798 67.76C134.162 67.3773 134.344 66.8687 134.344 66.234C134.344 65.5993 134.162 65.0953 133.798 64.722C133.443 64.3393 132.986 64.148 132.426 64.148C131.866 64.148 131.404 64.3393 131.04 64.722C130.685 65.0953 130.508 65.5993 130.508 66.234C130.508 66.8687 130.685 67.3773 131.04 67.76C131.404 68.1333 131.866 68.32 132.426 68.32ZM141.802 70.112C141.008 70.112 140.294 69.9487 139.66 69.622C139.034 69.286 138.544 68.824 138.19 68.236C137.835 67.648 137.658 66.9807 137.658 66.234C137.658 65.4873 137.835 64.82 138.19 64.232C138.544 63.644 139.034 63.1867 139.66 62.86C140.294 62.524 141.008 62.356 141.802 62.356C142.595 62.356 143.304 62.524 143.93 62.86C144.555 63.1867 145.045 63.644 145.4 64.232C145.754 64.82 145.932 65.4873 145.932 66.234C145.932 66.9807 145.754 67.648 145.4 68.236C145.045 68.824 144.555 69.286 143.93 69.622C143.304 69.9487 142.595 70.112 141.802 70.112ZM141.802 68.32C142.362 68.32 142.819 68.1333 143.174 67.76C143.538 67.3773 143.72 66.8687 143.72 66.234C143.72 65.5993 143.538 65.0953 143.174 64.722C142.819 64.3393 142.362 64.148 141.802 64.148C141.242 64.148 140.78 64.3393 140.416 64.722C140.052 65.0953 139.87 65.5993 139.87 66.234C139.87 66.8687 140.052 67.3773 140.416 67.76C140.78 68.1333 141.242 68.32 141.802 68.32ZM149.678 63.462C149.939 63.098 150.289 62.8227 150.728 62.636C151.176 62.4493 151.689 62.356 152.268 62.356V64.372C152.025 64.3533 151.862 64.344 151.778 64.344C151.152 64.344 150.662 64.5213 150.308 64.876C149.953 65.2213 149.776 65.744 149.776 66.444V70H147.592V62.468H149.678V63.462ZM161.076 66.262C161.076 66.29 161.062 66.486 161.034 66.85H155.336C155.439 67.3167 155.681 67.6853 156.064 67.956C156.447 68.2267 156.923 68.362 157.492 68.362C157.884 68.362 158.229 68.306 158.528 68.194C158.836 68.0727 159.121 67.886 159.382 67.634L160.544 68.894C159.835 69.706 158.799 70.112 157.436 70.112C156.587 70.112 155.835 69.9487 155.182 69.622C154.529 69.286 154.025 68.824 153.67 68.236C153.315 67.648 153.138 66.9807 153.138 66.234C153.138 65.4967 153.311 64.834 153.656 64.246C154.011 63.6487 154.491 63.1867 155.098 62.86C155.714 62.524 156.4 62.356 157.156 62.356C157.893 62.356 158.561 62.5147 159.158 62.832C159.755 63.1493 160.222 63.6067 160.558 64.204C160.903 64.792 161.076 65.478 161.076 66.262ZM157.17 64.008C156.675 64.008 156.26 64.148 155.924 64.428C155.588 64.708 155.383 65.0907 155.308 65.576H159.018C158.943 65.1 158.738 64.722 158.402 64.442C158.066 64.1527 157.655 64.008 157.17 64.008Z" fill="#19191F"/>
<path d="M248 64.5C248 63.0166 247.56 61.5666 246.736 60.3332C245.912 59.0999 244.741 58.1386 243.37 57.5709C242 57.0032 240.492 56.8547 239.037 57.1441C237.582 57.4335 236.246 58.1478 235.197 59.1967C234.148 60.2456 233.434 61.582 233.144 63.0368C232.855 64.4917 233.003 65.9997 233.571 67.3701C234.139 68.7406 235.1 69.9119 236.333 70.736C237.567 71.5601 239.017 72 240.5 72C242.488 71.9978 244.395 71.2069 245.801 69.8009C247.207 68.3948 247.998 66.4884 248 64.5ZM239.97 68.0303C239.9 67.9606 239.845 67.878 239.807 67.787C239.769 67.696 239.75 67.5985 239.75 67.5C239.75 67.4015 239.769 67.304 239.807 67.213C239.845 67.122 239.9 67.0393 239.97 66.9697L241.689 65.25H237.5C237.301 65.25 237.11 65.171 236.97 65.0303C236.829 64.8897 236.75 64.6989 236.75 64.5C236.75 64.3011 236.829 64.1103 236.97 63.9697C237.11 63.829 237.301 63.75 237.5 63.75H241.689L239.97 62.0303C239.831 61.8892 239.754 61.6991 239.755 61.5014C239.756 61.3037 239.835 61.1143 239.975 60.9745C240.114 60.8347 240.304 60.7558 240.501 60.7549C240.699 60.754 240.889 60.8312 241.03 60.9698L244.03 63.9695C244.17 64.1105 244.249 64.3012 244.249 64.5C244.249 64.6988 244.17 64.8895 244.03 65.0305L241.03 68.0303C240.961 68.0999 240.878 68.1552 240.787 68.1929C240.696 68.2306 240.598 68.25 240.5 68.25C240.402 68.25 240.304 68.2306 240.213 68.1929C240.122 68.1552 240.039 68.0999 239.97 68.0303Z" fill="#5B588F"/>
<defs>
<filter id="filter0_dd_4201_12444" x="0" y="0" width="290" height="132" filterUnits="userSpaceOnUse" color-interpolation-filters="sRGB">
<feFlood flood-opacity="0" result="BackgroundImageFix"/>
<feColorMatrix in="SourceAlpha" type="matrix" values="0 0 0 0 0 0 0 0 0 0 0 0 0 0 0 0 0 0 127 0" result="hardAlpha"/>
<feMorphology radius="2" operator="dilate" in="SourceAlpha" result="effect1_dropShadow_4201_12444"/>
<feOffset dx="4" dy="4"/>
<feGaussianBlur stdDeviation="8"/>
<feComposite in2="hardAlpha" operator="out"/>
<feColorMatrix type="matrix" values="0 0 0 0 1 0 0 0 0 1 0 0 0 0 1 0 0 0 0.25 0"/>
<feBlend mode="normal" in2="BackgroundImageFix" result="effect1_dropShadow_4201_12444"/>
<feColorMatrix in="SourceAlpha" type="matrix" values="0 0 0 0 0 0 0 0 0 0 0 0 0 0 0 0 0 0 127 0" result="hardAlpha"/>
<feOffset dx="-4" dy="-4"/>
<feGaussianBlur stdDeviation="8"/>
<feComposite in2="hardAlpha" operator="out"/>
<feColorMatrix type="matrix" values="0 0 0 0 1 0 0 0 0 1 0 0 0 0 1 0 0 0 0.25 0"/>
<feBlend mode="normal" in2="effect1_dropShadow_4201_12444" result="effect2_dropShadow_4201_12444"/>
<feBlend mode="normal" in="SourceGraphic" in2="effect2_dropShadow_4201_12444" result="shape"/>
</filter>
</defs>
</svg>
