<svg width="290" height="132" viewBox="0 0 290 132" fill="none" xmlns="http://www.w3.org/2000/svg">
<g filter="url(#filter0_dd_4201_12440)">
<rect x="20" y="20" width="248" height="90" rx="10" fill="white"/>
</g>
<path d="M88.192 62.048H85.056V60.2H93.596V62.048H90.46V70H88.192V62.048ZM99.4403 62.356C100.374 62.356 101.125 62.636 101.694 63.196C102.273 63.756 102.562 64.5867 102.562 65.688V70H100.378V66.024C100.378 65.4267 100.248 64.9833 99.9863 64.694C99.725 64.3953 99.347 64.246 98.8523 64.246C98.3016 64.246 97.863 64.4187 97.5363 64.764C97.2096 65.1 97.0463 65.604 97.0463 66.276V70H94.8623V59.612H97.0463V63.252C97.3356 62.9627 97.6856 62.7433 98.0963 62.594C98.507 62.4353 98.955 62.356 99.4403 62.356ZM107.78 62.356C108.947 62.356 109.843 62.636 110.468 63.196C111.093 63.7467 111.406 64.582 111.406 65.702V70H109.362V69.062C108.951 69.762 108.186 70.112 107.066 70.112C106.487 70.112 105.983 70.014 105.554 69.818C105.134 69.622 104.812 69.3513 104.588 69.006C104.364 68.6607 104.252 68.2687 104.252 67.83C104.252 67.13 104.513 66.5793 105.036 66.178C105.568 65.7767 106.385 65.576 107.486 65.576H109.222C109.222 65.1 109.077 64.736 108.788 64.484C108.499 64.2227 108.065 64.092 107.486 64.092C107.085 64.092 106.688 64.1573 106.296 64.288C105.913 64.4093 105.587 64.5773 105.316 64.792L104.532 63.266C104.943 62.9767 105.433 62.7527 106.002 62.594C106.581 62.4353 107.173 62.356 107.78 62.356ZM107.612 68.642C107.985 68.642 108.317 68.558 108.606 68.39C108.895 68.2127 109.101 67.956 109.222 67.62V66.85H107.724C106.828 66.85 106.38 67.144 106.38 67.732C106.38 68.012 106.487 68.236 106.702 68.404C106.926 68.5627 107.229 68.642 107.612 68.642ZM113.583 62.468H115.767V70H113.583V62.468ZM114.675 61.418C114.273 61.418 113.947 61.3013 113.695 61.068C113.443 60.8347 113.317 60.5453 113.317 60.2C113.317 59.8547 113.443 59.5653 113.695 59.332C113.947 59.0987 114.273 58.982 114.675 58.982C115.076 58.982 115.403 59.094 115.655 59.318C115.907 59.542 116.033 59.822 116.033 60.158C116.033 60.522 115.907 60.8253 115.655 61.068C115.403 61.3013 115.076 61.418 114.675 61.418ZM117.994 59.612H120.178V70H117.994V59.612ZM125.442 62.356C126.609 62.356 127.505 62.636 128.13 63.196C128.756 63.7467 129.068 64.582 129.068 65.702V70H127.024V69.062C126.614 69.762 125.848 70.112 124.728 70.112C124.15 70.112 123.646 70.014 123.216 69.818C122.796 69.622 122.474 69.3513 122.25 69.006C122.026 68.6607 121.914 68.2687 121.914 67.83C121.914 67.13 122.176 66.5793 122.698 66.178C123.23 65.7767 124.047 65.576 125.148 65.576H126.884C126.884 65.1 126.74 64.736 126.45 64.484C126.161 64.2227 125.727 64.092 125.148 64.092C124.747 64.092 124.35 64.1573 123.958 64.288C123.576 64.4093 123.249 64.5773 122.978 64.792L122.194 63.266C122.605 62.9767 123.095 62.7527 123.664 62.594C124.243 62.4353 124.836 62.356 125.442 62.356ZM125.274 68.642C125.648 68.642 125.979 68.558 126.268 68.39C126.558 68.2127 126.763 67.956 126.884 67.62V66.85H125.386C124.49 66.85 124.042 67.144 124.042 67.732C124.042 68.012 124.15 68.236 124.364 68.404C124.588 68.5627 124.892 68.642 125.274 68.642ZM135.823 62.356C136.756 62.356 137.508 62.636 138.077 63.196C138.656 63.756 138.945 64.5867 138.945 65.688V70H136.761V66.024C136.761 65.4267 136.63 64.9833 136.369 64.694C136.108 64.3953 135.73 64.246 135.235 64.246C134.684 64.246 134.246 64.4187 133.919 64.764C133.592 65.1 133.429 65.604 133.429 66.276V70H131.245V62.468H133.331V63.35C133.62 63.0327 133.98 62.79 134.409 62.622C134.838 62.4447 135.31 62.356 135.823 62.356ZM148.879 59.612V70H146.793V69.132C146.251 69.7853 145.467 70.112 144.441 70.112C143.731 70.112 143.087 69.9533 142.509 69.636C141.939 69.3187 141.491 68.866 141.165 68.278C140.838 67.69 140.675 67.0087 140.675 66.234C140.675 65.4593 140.838 64.778 141.165 64.19C141.491 63.602 141.939 63.1493 142.509 62.832C143.087 62.5147 143.731 62.356 144.441 62.356C145.402 62.356 146.153 62.6593 146.695 63.266V59.612H148.879ZM144.819 68.32C145.369 68.32 145.827 68.1333 146.191 67.76C146.555 67.3773 146.737 66.8687 146.737 66.234C146.737 65.5993 146.555 65.0953 146.191 64.722C145.827 64.3393 145.369 64.148 144.819 64.148C144.259 64.148 143.797 64.3393 143.433 64.722C143.069 65.0953 142.887 65.5993 142.887 66.234C142.887 66.8687 143.069 67.3773 143.433 67.76C143.797 68.1333 144.259 68.32 144.819 68.32Z" fill="#19191F"/>
<path d="M55 80C63.2843 80 70 73.2843 70 65C70 56.7157 63.2843 50 55 50C46.7157 50 40 56.7157 40 65C40 73.2843 46.7157 80 55 80Z" fill="#F0F0F0"/>
<path d="M69.067 59.7832H40.933C40.33 61.4082 40 63.1658 40 65.0006C40 66.8354 40.33 68.5929 40.933 70.2179H69.0671C69.67 68.5929 70 66.8354 70 65.0006C70 63.1658 69.67 61.4082 69.067 59.7832Z" fill="#0052B4"/>
<path d="M55 50C50.4537 50 46.3801 52.0229 43.6293 55.2174H66.3707C63.62 52.0229 59.5464 50 55 50Z" fill="#D80027"/>
<path d="M66.3708 74.7832H43.6293C46.3801 77.9777 50.4537 80.0006 55 80.0006C59.5464 80.0006 63.62 77.9777 66.3708 74.7832Z" fill="#D80027"/>
<path d="M248 64.5C248 63.0166 247.56 61.5666 246.736 60.3332C245.912 59.0999 244.741 58.1386 243.37 57.5709C242 57.0032 240.492 56.8547 239.037 57.1441C237.582 57.4335 236.246 58.1478 235.197 59.1967C234.148 60.2456 233.434 61.582 233.144 63.0368C232.855 64.4917 233.003 65.9997 233.571 67.3701C234.139 68.7406 235.1 69.9119 236.333 70.736C237.567 71.5601 239.017 72 240.5 72C242.488 71.9978 244.395 71.2069 245.801 69.8009C247.207 68.3948 247.998 66.4884 248 64.5ZM239.97 68.0303C239.9 67.9606 239.845 67.878 239.807 67.787C239.769 67.696 239.75 67.5985 239.75 67.5C239.75 67.4015 239.769 67.304 239.807 67.213C239.845 67.122 239.9 67.0393 239.97 66.9697L241.689 65.25H237.5C237.301 65.25 237.11 65.171 236.97 65.0303C236.829 64.8897 236.75 64.6989 236.75 64.5C236.75 64.3011 236.829 64.1103 236.97 63.9697C237.11 63.829 237.301 63.75 237.5 63.75H241.689L239.97 62.0303C239.831 61.8892 239.754 61.6991 239.755 61.5014C239.756 61.3037 239.835 61.1143 239.975 60.9745C240.114 60.8347 240.304 60.7558 240.501 60.7549C240.699 60.754 240.889 60.8312 241.03 60.9698L244.03 63.9695C244.17 64.1105 244.249 64.3012 244.249 64.5C244.249 64.6988 244.17 64.8895 244.03 65.0305L241.03 68.0303C240.961 68.0999 240.878 68.1552 240.787 68.1929C240.696 68.2306 240.598 68.25 240.5 68.25C240.402 68.25 240.304 68.2306 240.213 68.1929C240.122 68.1552 240.039 68.0999 239.97 68.0303Z" fill="#5B588F"/>
<defs>
<filter id="filter0_dd_4201_12440" x="0" y="0" width="290" height="132" filterUnits="userSpaceOnUse" color-interpolation-filters="sRGB">
<feFlood flood-opacity="0" result="BackgroundImageFix"/>
<feColorMatrix in="SourceAlpha" type="matrix" values="0 0 0 0 0 0 0 0 0 0 0 0 0 0 0 0 0 0 127 0" result="hardAlpha"/>
<feMorphology radius="2" operator="dilate" in="SourceAlpha" result="effect1_dropShadow_4201_12440"/>
<feOffset dx="4" dy="4"/>
<feGaussianBlur stdDeviation="8"/>
<feComposite in2="hardAlpha" operator="out"/>
<feColorMatrix type="matrix" values="0 0 0 0 1 0 0 0 0 1 0 0 0 0 1 0 0 0 0.25 0"/>
<feBlend mode="normal" in2="BackgroundImageFix" result="effect1_dropShadow_4201_12440"/>
<feColorMatrix in="SourceAlpha" type="matrix" values="0 0 0 0 0 0 0 0 0 0 0 0 0 0 0 0 0 0 127 0" result="hardAlpha"/>
<feOffset dx="-4" dy="-4"/>
<feGaussianBlur stdDeviation="8"/>
<feComposite in2="hardAlpha" operator="out"/>
<feColorMatrix type="matrix" values="0 0 0 0 1 0 0 0 0 1 0 0 0 0 1 0 0 0 0.25 0"/>
<feBlend mode="normal" in2="effect1_dropShadow_4201_12440" result="effect2_dropShadow_4201_12440"/>
<feBlend mode="normal" in="SourceGraphic" in2="effect2_dropShadow_4201_12440" result="shape"/>
</filter>
</defs>
</svg>
