<svg width="290" height="132" viewBox="0 0 290 132" fill="none" xmlns="http://www.w3.org/2000/svg">
<g filter="url(#filter0_dd_4201_12449)">
<rect x="20" y="20" width="248" height="90" rx="10" fill="white"/>
</g>
<path d="M55 80C63.2843 80 70 73.2843 70 65C70 56.7157 63.2843 50 55 50C46.7157 50 40 56.7157 40 65C40 73.2843 46.7157 80 55 80Z" fill="#D80027"/>
<path d="M54.3859 62.2578L55.6167 63.9538L57.6098 63.3075L56.3771 65.0021L57.6077 66.698L55.6152 66.0492L54.3826 67.7438L54.3839 65.6484L52.3914 64.9996L54.3846 64.3534L54.3859 62.2578Z" fill="#F0F0F0"/>
<path d="M51.027 69.2398C48.6858 69.2398 46.7879 67.3418 46.7879 65.0006C46.7879 62.6595 48.6858 60.7615 51.027 60.7615C51.757 60.7615 52.4438 60.9461 53.0434 61.271C52.1027 60.351 50.8162 59.7832 49.3966 59.7832C46.515 59.7832 44.1792 62.1191 44.1792 65.0006C44.1792 67.882 46.5151 70.2179 49.3966 70.2179C50.8163 70.2179 52.1028 69.6501 53.0434 68.7301C52.4438 69.0551 51.757 69.2398 51.027 69.2398Z" fill="#F0F0F0"/>
<path d="M88.192 62.048H85.056V60.2H93.596V62.048H90.46V70H88.192V62.048ZM102.286 62.468V70H100.214V69.104C99.9249 69.4307 99.5796 69.6827 99.1782 69.86C98.7769 70.028 98.3429 70.112 97.8762 70.112C96.8869 70.112 96.1029 69.8273 95.5242 69.258C94.9456 68.6887 94.6562 67.844 94.6562 66.724V62.468H96.8402V66.402C96.8402 67.6153 97.3489 68.222 98.3662 68.222C98.8889 68.222 99.3089 68.054 99.6262 67.718C99.9436 67.3727 100.102 66.864 100.102 66.192V62.468H102.286ZM106.596 63.462C106.857 63.098 107.207 62.8227 107.646 62.636C108.094 62.4493 108.607 62.356 109.186 62.356V64.372C108.943 64.3533 108.78 64.344 108.696 64.344C108.07 64.344 107.58 64.5213 107.226 64.876C106.871 65.2213 106.694 65.744 106.694 66.444V70H104.51V62.468H106.596V63.462ZM113.918 67.046L112.868 68.082V70H110.684V59.612H112.868V65.492L116.06 62.468H118.664L115.528 65.66L118.944 70H116.298L113.918 67.046ZM127.176 66.262C127.176 66.29 127.162 66.486 127.134 66.85H121.436C121.539 67.3167 121.782 67.6853 122.164 67.956C122.547 68.2267 123.023 68.362 123.592 68.362C123.984 68.362 124.33 68.306 124.628 68.194C124.936 68.0727 125.221 67.886 125.482 67.634L126.644 68.894C125.935 69.706 124.899 70.112 123.536 70.112C122.687 70.112 121.936 69.9487 121.282 69.622C120.629 69.286 120.125 68.824 119.77 68.236C119.416 67.648 119.238 66.9807 119.238 66.234C119.238 65.4967 119.411 64.834 119.756 64.246C120.111 63.6487 120.592 63.1867 121.198 62.86C121.814 62.524 122.5 62.356 123.256 62.356C123.994 62.356 124.661 62.5147 125.258 62.832C125.856 63.1493 126.322 63.6067 126.658 64.204C127.004 64.792 127.176 65.478 127.176 66.262ZM123.27 64.008C122.776 64.008 122.36 64.148 122.024 64.428C121.688 64.708 121.483 65.0907 121.408 65.576H125.118C125.044 65.1 124.838 64.722 124.502 64.442C124.166 64.1527 123.756 64.008 123.27 64.008ZM136.17 62.468L132.768 70.462C132.422 71.33 131.993 71.9413 131.48 72.296C130.976 72.6507 130.364 72.828 129.646 72.828C129.254 72.828 128.866 72.7673 128.484 72.646C128.101 72.5247 127.788 72.3567 127.546 72.142L128.344 70.588C128.512 70.7373 128.703 70.854 128.918 70.938C129.142 71.022 129.361 71.064 129.576 71.064C129.874 71.064 130.117 70.9893 130.304 70.84C130.49 70.7 130.658 70.462 130.808 70.126L130.836 70.056L127.574 62.468H129.828L131.942 67.578L134.07 62.468H136.17Z" fill="#19191F"/>
<path d="M248 64.5C248 63.0166 247.56 61.5666 246.736 60.3332C245.912 59.0999 244.741 58.1386 243.37 57.5709C242 57.0032 240.492 56.8547 239.037 57.1441C237.582 57.4335 236.246 58.1478 235.197 59.1967C234.148 60.2456 233.434 61.582 233.144 63.0368C232.855 64.4917 233.003 65.9997 233.571 67.3701C234.139 68.7406 235.1 69.9119 236.333 70.736C237.567 71.5601 239.017 72 240.5 72C242.488 71.9978 244.395 71.2069 245.801 69.8009C247.207 68.3948 247.998 66.4884 248 64.5ZM239.97 68.0303C239.9 67.9606 239.845 67.878 239.807 67.787C239.769 67.696 239.75 67.5985 239.75 67.5C239.75 67.4015 239.769 67.304 239.807 67.213C239.845 67.122 239.9 67.0393 239.97 66.9697L241.689 65.25H237.5C237.301 65.25 237.11 65.171 236.97 65.0303C236.829 64.8897 236.75 64.6989 236.75 64.5C236.75 64.3011 236.829 64.1103 236.97 63.9697C237.11 63.829 237.301 63.75 237.5 63.75H241.689L239.97 62.0303C239.831 61.8892 239.754 61.6991 239.755 61.5014C239.756 61.3037 239.835 61.1143 239.975 60.9745C240.114 60.8347 240.304 60.7558 240.501 60.7549C240.699 60.754 240.889 60.8312 241.03 60.9698L244.03 63.9695C244.17 64.1105 244.249 64.3012 244.249 64.5C244.249 64.6988 244.17 64.8895 244.03 65.0305L241.03 68.0303C240.961 68.0999 240.878 68.1552 240.787 68.1929C240.696 68.2306 240.598 68.25 240.5 68.25C240.402 68.25 240.304 68.2306 240.213 68.1929C240.122 68.1552 240.039 68.0999 239.97 68.0303Z" fill="#5B588F"/>
<defs>
<filter id="filter0_dd_4201_12449" x="0" y="0" width="290" height="132" filterUnits="userSpaceOnUse" color-interpolation-filters="sRGB">
<feFlood flood-opacity="0" result="BackgroundImageFix"/>
<feColorMatrix in="SourceAlpha" type="matrix" values="0 0 0 0 0 0 0 0 0 0 0 0 0 0 0 0 0 0 127 0" result="hardAlpha"/>
<feMorphology radius="2" operator="dilate" in="SourceAlpha" result="effect1_dropShadow_4201_12449"/>
<feOffset dx="4" dy="4"/>
<feGaussianBlur stdDeviation="8"/>
<feComposite in2="hardAlpha" operator="out"/>
<feColorMatrix type="matrix" values="0 0 0 0 1 0 0 0 0 1 0 0 0 0 1 0 0 0 0.25 0"/>
<feBlend mode="normal" in2="BackgroundImageFix" result="effect1_dropShadow_4201_12449"/>
<feColorMatrix in="SourceAlpha" type="matrix" values="0 0 0 0 0 0 0 0 0 0 0 0 0 0 0 0 0 0 127 0" result="hardAlpha"/>
<feOffset dx="-4" dy="-4"/>
<feGaussianBlur stdDeviation="8"/>
<feComposite in2="hardAlpha" operator="out"/>
<feColorMatrix type="matrix" values="0 0 0 0 1 0 0 0 0 1 0 0 0 0 1 0 0 0 0.25 0"/>
<feBlend mode="normal" in2="effect1_dropShadow_4201_12449" result="effect2_dropShadow_4201_12449"/>
<feBlend mode="normal" in="SourceGraphic" in2="effect2_dropShadow_4201_12449" result="shape"/>
</filter>
</defs>
</svg>
