<svg width="290" height="132" viewBox="0 0 290 132" fill="none" xmlns="http://www.w3.org/2000/svg">
<g filter="url(#filter0_dd_4192_12455)">
<rect x="20" y="20" width="248" height="90" rx="10" fill="white"/>
</g>
<path d="M90.516 70.168C89.116 70.168 88.024 69.7807 87.24 69.006C86.4653 68.2313 86.078 67.1253 86.078 65.688V60.2H88.346V65.604C88.346 67.3587 89.074 68.236 90.53 68.236C91.2393 68.236 91.7807 68.026 92.154 67.606C92.5273 67.1767 92.714 66.5093 92.714 65.604V60.2H94.954V65.688C94.954 67.1253 94.562 68.2313 93.778 69.006C93.0033 69.7807 91.916 70.168 90.516 70.168ZM100.615 70.168C99.8405 70.168 99.0892 70.0653 98.3612 69.86C97.6425 69.6453 97.0639 69.37 96.6252 69.034L97.3952 67.326C97.8152 67.634 98.3145 67.8813 98.8932 68.068C99.4719 68.2547 100.051 68.348 100.629 68.348C101.273 68.348 101.749 68.2547 102.057 68.068C102.365 67.872 102.519 67.6153 102.519 67.298C102.519 67.0647 102.426 66.8733 102.239 66.724C102.062 66.5653 101.829 66.4393 101.539 66.346C101.259 66.2527 100.877 66.15 100.391 66.038C99.6445 65.8607 99.0332 65.6833 98.5572 65.506C98.0812 65.3287 97.6705 65.044 97.3252 64.652C96.9892 64.26 96.8212 63.7373 96.8212 63.084C96.8212 62.5147 96.9752 62.0013 97.2832 61.544C97.5912 61.0773 98.0532 60.7087 98.6692 60.438C99.2945 60.1673 100.055 60.032 100.951 60.032C101.577 60.032 102.188 60.1067 102.785 60.256C103.383 60.4053 103.905 60.62 104.353 60.9L103.653 62.622C102.748 62.1087 101.843 61.852 100.937 61.852C100.303 61.852 99.8312 61.9547 99.5232 62.16C99.2245 62.3653 99.0752 62.636 99.0752 62.972C99.0752 63.308 99.2479 63.56 99.5932 63.728C99.9479 63.8867 100.485 64.0453 101.203 64.204C101.95 64.3813 102.561 64.5587 103.037 64.736C103.513 64.9133 103.919 65.1933 104.255 65.576C104.601 65.9587 104.773 66.4767 104.773 67.13C104.773 67.69 104.615 68.2033 104.297 68.67C103.989 69.1273 103.523 69.4913 102.897 69.762C102.272 70.0327 101.511 70.168 100.615 70.168ZM112.977 67.9H108.427L107.559 70H105.235L109.603 60.2H111.843L116.225 70H113.845L112.977 67.9ZM112.263 66.178L110.709 62.426L109.155 66.178H112.263Z" fill="#19191F"/>
<g clip-path="url(#clip0_4192_12455)">
<path d="M55 80C63.2843 80 70 73.2843 70 65C70 56.7157 63.2843 50 55 50C46.7157 50 40 56.7157 40 65C40 73.2843 46.7157 80 55 80Z" fill="#F0F0F0"/>
<path d="M54.3478 65.001H69.9999C69.9999 63.6471 69.8195 62.3355 69.4832 61.0879H54.3478V65.001Z" fill="#D80027"/>
<path d="M54.3478 57.1748H67.7983C66.8801 55.6764 65.7061 54.352 64.3372 53.2617H54.3478V57.1748Z" fill="#D80027"/>
<path d="M55 80.0011C58.5302 80.0011 61.7749 78.7809 64.3373 76.7402H45.6627C48.225 78.7809 51.4698 80.0011 55 80.0011Z" fill="#D80027"/>
<path d="M42.2016 72.8271H67.7984C68.5356 71.6243 69.1073 70.3094 69.4833 68.9141H40.5167C40.8927 70.3094 41.4644 71.6243 42.2016 72.8271Z" fill="#D80027"/>
<path d="M46.9483 52.3425H48.3152L47.0437 53.2662L47.5294 54.7609L46.258 53.8371L44.9866 54.7609L45.4061 53.4696C44.2866 54.4021 43.3054 55.4947 42.4968 56.712H42.9348L42.1254 57.3C41.9993 57.5104 41.8784 57.7241 41.7625 57.9409L42.149 59.1304L41.4279 58.6065C41.2487 58.9863 41.0847 59.3746 40.9374 59.771L41.3632 61.0816H42.9348L41.6633 62.0053L42.149 63.5L40.8776 62.5763L40.116 63.1296C40.0397 63.7424 40 64.3665 40 65H55C55 56.7158 55 55.7391 55 50C52.0368 50 49.2745 50.8596 46.9483 52.3425ZM47.5294 63.5L46.258 62.5763L44.9866 63.5L45.4722 62.0053L44.2008 61.0816H45.7724L46.258 59.5869L46.7436 61.0816H48.3152L47.0437 62.0053L47.5294 63.5ZM47.0437 57.6358L47.5294 59.1304L46.258 58.2067L44.9866 59.1304L45.4722 57.6358L44.2008 56.712H45.7724L46.258 55.2174L46.7436 56.712H48.3152L47.0437 57.6358ZM52.9098 63.5L51.6384 62.5763L50.367 63.5L50.8527 62.0053L49.5812 61.0816H51.1528L51.6384 59.5869L52.124 61.0816H53.6956L52.4242 62.0053L52.9098 63.5ZM52.4242 57.6358L52.9098 59.1304L51.6384 58.2067L50.367 59.1304L50.8527 57.6358L49.5812 56.712H51.1528L51.6384 55.2174L52.124 56.712H53.6956L52.4242 57.6358ZM52.4242 53.2662L52.9098 54.7609L51.6384 53.8371L50.367 54.7609L50.8527 53.2662L49.5812 52.3425H51.1528L51.6384 50.8478L52.124 52.3425H53.6956L52.4242 53.2662Z" fill="#0052B4"/>
</g>
<path d="M248 64.5C248 63.0166 247.56 61.5666 246.736 60.3332C245.912 59.0999 244.741 58.1386 243.37 57.5709C242 57.0032 240.492 56.8547 239.037 57.1441C237.582 57.4335 236.246 58.1478 235.197 59.1967C234.148 60.2456 233.434 61.582 233.144 63.0368C232.855 64.4917 233.003 65.9997 233.571 67.3701C234.139 68.7406 235.1 69.9119 236.333 70.736C237.567 71.5601 239.017 72 240.5 72C242.488 71.9978 244.395 71.2069 245.801 69.8009C247.207 68.3948 247.998 66.4884 248 64.5ZM239.97 68.0303C239.9 67.9606 239.845 67.878 239.807 67.787C239.769 67.696 239.75 67.5985 239.75 67.5C239.75 67.4015 239.769 67.304 239.807 67.213C239.845 67.122 239.9 67.0393 239.97 66.9697L241.689 65.25H237.5C237.301 65.25 237.11 65.171 236.97 65.0303C236.829 64.8897 236.75 64.6989 236.75 64.5C236.75 64.3011 236.829 64.1103 236.97 63.9697C237.11 63.829 237.301 63.75 237.5 63.75H241.689L239.97 62.0303C239.831 61.8892 239.754 61.6991 239.755 61.5014C239.756 61.3037 239.835 61.1143 239.975 60.9745C240.114 60.8347 240.304 60.7558 240.501 60.7549C240.699 60.754 240.889 60.8312 241.03 60.9698L244.03 63.9695C244.17 64.1105 244.249 64.3012 244.249 64.5C244.249 64.6988 244.17 64.8895 244.03 65.0305L241.03 68.0303C240.961 68.0999 240.878 68.1552 240.787 68.1929C240.696 68.2306 240.598 68.25 240.5 68.25C240.402 68.25 240.304 68.2306 240.213 68.1929C240.122 68.1552 240.039 68.0999 239.97 68.0303Z" fill="#5B588F"/>
<defs>
<filter id="filter0_dd_4192_12455" x="0" y="0" width="290" height="132" filterUnits="userSpaceOnUse" color-interpolation-filters="sRGB">
<feFlood flood-opacity="0" result="BackgroundImageFix"/>
<feColorMatrix in="SourceAlpha" type="matrix" values="0 0 0 0 0 0 0 0 0 0 0 0 0 0 0 0 0 0 127 0" result="hardAlpha"/>
<feMorphology radius="2" operator="dilate" in="SourceAlpha" result="effect1_dropShadow_4192_12455"/>
<feOffset dx="4" dy="4"/>
<feGaussianBlur stdDeviation="8"/>
<feComposite in2="hardAlpha" operator="out"/>
<feColorMatrix type="matrix" values="0 0 0 0 1 0 0 0 0 1 0 0 0 0 1 0 0 0 0.25 0"/>
<feBlend mode="normal" in2="BackgroundImageFix" result="effect1_dropShadow_4192_12455"/>
<feColorMatrix in="SourceAlpha" type="matrix" values="0 0 0 0 0 0 0 0 0 0 0 0 0 0 0 0 0 0 127 0" result="hardAlpha"/>
<feOffset dx="-4" dy="-4"/>
<feGaussianBlur stdDeviation="8"/>
<feComposite in2="hardAlpha" operator="out"/>
<feColorMatrix type="matrix" values="0 0 0 0 1 0 0 0 0 1 0 0 0 0 1 0 0 0 0.25 0"/>
<feBlend mode="normal" in2="effect1_dropShadow_4192_12455" result="effect2_dropShadow_4192_12455"/>
<feBlend mode="normal" in="SourceGraphic" in2="effect2_dropShadow_4192_12455" result="shape"/>
</filter>
<clipPath id="clip0_4192_12455">
<rect width="30" height="30" fill="white" transform="translate(40 50)"/>
</clipPath>
</defs>
</svg>
