<svg width="20" height="20" viewBox="0 0 20 20" fill="none" xmlns="http://www.w3.org/2000/svg">
<path d="M10.7663 12.5C10.7497 12.4488 10.7243 12.4009 10.6913 12.3583L10.5913 12.2333C10.5139 12.1552 10.4217 12.0932 10.3202 12.0509C10.2186 12.0086 10.1097 11.9868 9.99968 11.9868C9.88967 11.9868 9.78075 12.0086 9.6792 12.0509C9.57765 12.0932 9.48548 12.1552 9.40801 12.2333C9.36829 12.2695 9.33454 12.3116 9.30801 12.3583C9.27503 12.4009 9.24965 12.4488 9.23301 12.5C9.20888 12.5501 9.19204 12.6034 9.18301 12.6583C9.17893 12.711 9.17893 12.764 9.18301 12.8167C9.18012 12.9287 9.20292 13.0398 9.24968 13.1417C9.33448 13.3443 9.49587 13.5053 9.69875 13.5896C9.90163 13.6738 10.1296 13.6746 10.333 13.5917C10.4343 13.5464 10.5272 13.4844 10.608 13.4083C10.683 13.3315 10.7424 13.241 10.783 13.1417C10.8268 13.0389 10.8495 12.9284 10.8497 12.8167C10.8538 12.764 10.8538 12.711 10.8497 12.6583C10.8302 12.6016 10.8021 12.5482 10.7663 12.5ZM9.99968 6.13333C9.77867 6.13333 9.5667 6.22112 9.41042 6.3774C9.25414 6.53368 9.16635 6.74565 9.16635 6.96666V9.46666C9.16635 9.68767 9.25414 9.89963 9.41042 10.0559C9.5667 10.2122 9.77867 10.3 9.99968 10.3C10.2207 10.3 10.4327 10.2122 10.5889 10.0559C10.7452 9.89963 10.833 9.68767 10.833 9.46666V6.96666C10.833 6.74565 10.7452 6.53368 10.5889 6.3774C10.4327 6.22112 10.2207 6.13333 9.99968 6.13333V6.13333ZM16.358 3.04166C16.2612 2.96334 16.1481 2.90772 16.0269 2.87888C15.9058 2.85004 15.7797 2.84871 15.658 2.87499C14.7675 3.06161 13.8483 3.06399 12.9569 2.88198C12.0655 2.69997 11.2207 2.33742 10.4747 1.81666C10.3352 1.71989 10.1695 1.66803 9.99968 1.66803C9.8299 1.66803 9.66418 1.71989 9.52468 1.81666C8.77864 2.33742 7.93391 2.69997 7.04248 2.88198C6.15106 3.06399 5.23182 3.06161 4.34135 2.87499C4.21963 2.84871 4.09357 2.85004 3.97243 2.87888C3.85129 2.90772 3.73816 2.96334 3.64135 3.04166C3.54466 3.12009 3.46678 3.21919 3.41342 3.33167C3.36007 3.44415 3.33259 3.56716 3.33301 3.69166V9.89999C3.33227 11.0948 3.61699 12.2725 4.16346 13.335C4.70993 14.3975 5.50233 15.314 6.47468 16.0083L9.51635 18.175C9.65748 18.2755 9.82643 18.3295 9.99968 18.3295C10.1729 18.3295 10.3419 18.2755 10.483 18.175L13.5247 16.0083C14.497 15.314 15.2894 14.3975 15.8359 13.335C16.3824 12.2725 16.6671 11.0948 16.6663 9.89999V3.69166C16.6668 3.56716 16.6393 3.44415 16.5859 3.33167C16.5326 3.21919 16.4547 3.12009 16.358 3.04166V3.04166ZM14.9997 9.89999C15.0003 10.829 14.7791 11.7446 14.3544 12.5708C13.9297 13.397 13.3138 14.1099 12.558 14.65L9.99968 16.475L7.44135 14.65C6.68554 14.1099 6.06967 13.397 5.64497 12.5708C5.22027 11.7446 4.99904 10.829 4.99968 9.89999V4.64999C6.7467 4.79952 8.49638 4.39418 9.99968 3.49166C11.503 4.39418 13.2527 4.79952 14.9997 4.64999V9.89999Z" fill="#7465F1"/>
</svg>
