<svg width="22" height="22" viewBox="0 0 22 22" fill="none" xmlns="http://www.w3.org/2000/svg">
<circle cx="11" cy="11" r="11" fill="#69CA94"/>
<path d="M15.9202 7.26917C15.8481 7.19655 15.7625 7.1389 15.668 7.09957C15.5736 7.06023 15.4723 7.03998 15.3701 7.03998C15.2678 7.03998 15.1665 7.06023 15.0721 7.09957C14.9776 7.1389 14.892 7.19655 14.8199 7.26917L9.04744 13.0494L6.62222 10.6164C6.54743 10.5442 6.45915 10.4874 6.3624 10.4493C6.26566 10.4111 6.16236 10.3924 6.05839 10.3942C5.95443 10.396 5.85183 10.4183 5.75647 10.4597C5.6611 10.5012 5.57483 10.561 5.50259 10.6358C5.43035 10.7106 5.37354 10.7989 5.33541 10.8956C5.29729 10.9924 5.27859 11.0957 5.28039 11.1996C5.28219 11.3036 5.30445 11.4062 5.3459 11.5016C5.38735 11.5969 5.44717 11.6832 5.52196 11.7554L8.49731 14.7308C8.56934 14.8034 8.65504 14.8611 8.74946 14.9004C8.84388 14.9397 8.94515 14.96 9.04744 14.96C9.14972 14.96 9.251 14.9397 9.34542 14.9004C9.43984 14.8611 9.52554 14.8034 9.59757 14.7308L15.9202 8.40817C15.9988 8.33562 16.0616 8.24755 16.1045 8.14954C16.1475 8.05152 16.1696 7.94568 16.1696 7.83867C16.1696 7.73167 16.1475 7.62582 16.1045 7.5278C16.0616 7.42979 15.9988 7.34173 15.9202 7.26917Z" fill="white"/>
</svg>
