<svg width="311" height="137" viewBox="0 0 311 137" fill="none" xmlns="http://www.w3.org/2000/svg">
<rect y="137" width="137" height="32.344" rx="2" transform="rotate(-90 0 137)" fill="#5B588F"/>
<path d="M13.2921 123.35C13.3988 123.143 13.5688 123.04 13.8021 123.04C13.9421 123.04 14.0788 123.09 14.2121 123.19C14.3521 123.297 14.4221 123.433 14.4221 123.6C14.4221 123.713 14.3921 123.827 14.3321 123.94C14.1788 124.267 14.1021 124.62 14.1021 125C14.1021 125.467 14.2021 125.873 14.4021 126.22C14.5955 126.567 14.8721 126.833 15.2321 127.02C15.5855 127.207 15.9921 127.3 16.4521 127.3C17.2388 127.3 17.8355 127.09 18.2421 126.67C18.6488 126.243 18.8521 125.687 18.8521 125C18.8521 124.593 18.7755 124.24 18.6221 123.94C18.5688 123.82 18.5421 123.713 18.5421 123.62C18.5421 123.447 18.6155 123.3 18.7621 123.18C18.8888 123.08 19.0255 123.03 19.1721 123.03C19.2788 123.03 19.3755 123.057 19.4621 123.11C19.5488 123.163 19.6155 123.24 19.6621 123.34C19.9221 123.86 20.0521 124.413 20.0521 125C20.0521 125.653 19.9155 126.253 19.6421 126.8C19.3621 127.347 18.9521 127.783 18.4121 128.11C17.8721 128.437 17.2188 128.6 16.4521 128.6C15.7721 128.6 15.1621 128.447 14.6221 128.14C14.0821 127.827 13.6621 127.397 13.3621 126.85C13.0555 126.303 12.9021 125.687 12.9021 125C12.9021 124.407 13.0321 123.857 13.2921 123.35ZM18.9721 114.49C19.0255 114.404 19.0955 114.337 19.1821 114.29C19.2688 114.237 19.3588 114.21 19.4521 114.21C19.5721 114.21 19.6821 114.25 19.7821 114.33C19.9021 114.43 19.9621 114.584 19.9621 114.79C19.9621 114.95 19.9255 115.097 19.8521 115.23C19.5788 115.71 19.0221 115.95 18.1821 115.95C17.9421 115.95 17.7521 116.03 17.6121 116.19C17.4721 116.344 17.4021 116.567 17.4021 116.86V118.73H19.3421C19.5221 118.73 19.6688 118.78 19.7821 118.88C19.8955 118.974 19.9521 119.1 19.9521 119.26C19.9521 119.454 19.8955 119.624 19.7821 119.77C19.6621 119.91 19.5155 119.98 19.3421 119.98H13.5621C13.3888 119.98 13.2455 119.924 13.1321 119.81C13.0121 119.69 12.9521 119.544 12.9521 119.37V116.49C12.9521 116.144 13.0455 115.817 13.2321 115.51C13.4188 115.204 13.6755 114.96 14.0021 114.78C14.3288 114.594 14.6955 114.5 15.1021 114.5C15.4355 114.5 15.7621 114.59 16.0821 114.77C16.3955 114.95 16.6455 115.184 16.8321 115.47C17.1255 115.05 17.5188 114.82 18.0121 114.78C18.1188 114.76 18.2221 114.75 18.3221 114.75C18.5288 114.724 18.6788 114.697 18.7721 114.67C18.8588 114.644 18.9255 114.584 18.9721 114.49ZM16.3721 116.54C16.3721 116.42 16.3155 116.304 16.2021 116.19C16.0888 116.077 15.9388 115.984 15.7521 115.91C15.5588 115.837 15.3521 115.8 15.1321 115.8C14.9455 115.8 14.7755 115.837 14.6221 115.91C14.4621 115.984 14.3355 116.077 14.2421 116.19C14.1488 116.304 14.1021 116.42 14.1021 116.54V118.73H16.3721V116.54ZM18.8021 107.155C18.8021 106.982 18.8621 106.839 18.9821 106.725C19.0955 106.605 19.2288 106.545 19.3821 106.545C19.5488 106.545 19.6855 106.605 19.7921 106.725C19.8988 106.839 19.9521 106.982 19.9521 107.155V110.505C19.9521 110.679 19.8955 110.825 19.7821 110.945C19.6621 111.059 19.5155 111.115 19.3421 111.115H13.5621C13.3888 111.115 13.2455 111.059 13.1321 110.945C13.0121 110.825 12.9521 110.679 12.9521 110.505V107.155C12.9521 106.982 13.0088 106.839 13.1221 106.725C13.2288 106.605 13.3688 106.545 13.5421 106.545C13.7088 106.545 13.8455 106.602 13.9521 106.715C14.0521 106.829 14.1021 106.975 14.1021 107.155V109.865H15.8021V107.605C15.8021 107.432 15.8588 107.289 15.9721 107.175C16.0788 107.055 16.2188 106.995 16.3921 106.995C16.5588 106.995 16.6955 107.052 16.8021 107.165C16.9021 107.279 16.9521 107.425 16.9521 107.605V109.865H18.8021V107.155ZM12.9521 100.393C12.9521 99.7659 13.1088 99.2292 13.4221 98.7826C13.7288 98.3292 14.1488 97.9859 14.6821 97.7526C15.2088 97.5126 15.7988 97.3926 16.4521 97.3926C17.1055 97.3926 17.6988 97.5126 18.2321 97.7526C18.7588 97.9859 19.1788 98.3292 19.4921 98.7826C19.7988 99.2292 19.9521 99.7659 19.9521 100.393V102.783C19.9521 102.956 19.8955 103.103 19.7821 103.223C19.6621 103.336 19.5155 103.393 19.3421 103.393H13.5621C13.3888 103.393 13.2455 103.336 13.1321 103.223C13.0121 103.103 12.9521 102.956 12.9521 102.783V100.393ZM18.8021 100.493C18.8021 99.8926 18.5821 99.4426 18.1421 99.1426C17.6955 98.8426 17.1321 98.6926 16.4521 98.6926C15.7721 98.6926 15.2121 98.8459 14.7721 99.1526C14.3255 99.4526 14.1021 99.8992 14.1021 100.493V102.143H18.8021V100.493ZM19.3421 92.9941C19.5155 92.9941 19.6621 93.0575 19.7821 93.1841C19.8955 93.3108 19.9521 93.4575 19.9521 93.6241C19.9521 93.8041 19.8955 93.9541 19.7821 94.0741C19.6621 94.1875 19.5155 94.2441 19.3421 94.2441H13.5621C13.3888 94.2441 13.2455 94.1841 13.1321 94.0641C13.0121 93.9441 12.9521 93.7908 12.9521 93.6041C12.9521 93.4375 13.0121 93.2941 13.1321 93.1741C13.2455 93.0541 13.3888 92.9941 13.5621 92.9941H19.3421ZM12.9521 84.8902C12.9521 84.7102 13.0055 84.5636 13.1121 84.4502C13.2188 84.3369 13.3588 84.2802 13.5321 84.2802C13.7055 84.2802 13.8455 84.3369 13.9521 84.4502C14.0521 84.5636 14.1021 84.7102 14.1021 84.8902V86.4602H19.3421C19.5155 86.4602 19.6621 86.5236 19.7821 86.6502C19.8955 86.7769 19.9521 86.9336 19.9521 87.1202C19.9521 87.3069 19.8955 87.4602 19.7821 87.5802C19.6621 87.7002 19.5155 87.7602 19.3421 87.7602H14.1021V89.3302C14.1021 89.5102 14.0488 89.6569 13.9421 89.7702C13.8355 89.8836 13.6955 89.9402 13.5221 89.9402C13.3555 89.9402 13.2188 89.8836 13.1121 89.7702C13.0055 89.6502 12.9521 89.5036 12.9521 89.3302V84.8902ZM13.2921 71.5277C13.3988 71.3211 13.5688 71.2177 13.8021 71.2177C13.9421 71.2177 14.0788 71.2677 14.2121 71.3677C14.3521 71.4744 14.4221 71.6111 14.4221 71.7777C14.4221 71.8911 14.3921 72.0044 14.3321 72.1177C14.1788 72.4444 14.1021 72.7977 14.1021 73.1777C14.1021 73.6444 14.2021 74.0511 14.4021 74.3977C14.5955 74.7444 14.8721 75.0111 15.2321 75.1977C15.5855 75.3844 15.9921 75.4777 16.4521 75.4777C17.2388 75.4777 17.8355 75.2677 18.2421 74.8477C18.6488 74.4211 18.8521 73.8644 18.8521 73.1777C18.8521 72.7711 18.7755 72.4177 18.6221 72.1177C18.5688 71.9977 18.5421 71.8911 18.5421 71.7977C18.5421 71.6244 18.6155 71.4777 18.7621 71.3577C18.8888 71.2577 19.0255 71.2077 19.1721 71.2077C19.2788 71.2077 19.3755 71.2344 19.4621 71.2877C19.5488 71.3411 19.6155 71.4177 19.6621 71.5177C19.9221 72.0377 20.0521 72.5911 20.0521 73.1777C20.0521 73.8311 19.9155 74.4311 19.6421 74.9777C19.3621 75.5244 18.9521 75.9611 18.4121 76.2877C17.8721 76.6144 17.2188 76.7777 16.4521 76.7777C15.7721 76.7777 15.1621 76.6244 14.6221 76.3177C14.0821 76.0044 13.6621 75.5744 13.3621 75.0277C13.0555 74.4811 12.9021 73.8644 12.9021 73.1777C12.9021 72.5844 13.0321 72.0344 13.2921 71.5277ZM19.1721 62.6682C19.2588 62.6349 19.3388 62.6182 19.4121 62.6182C19.5855 62.6182 19.7288 62.6749 19.8421 62.7882C19.9488 62.9015 20.0021 63.0315 20.0021 63.1782C20.0021 63.2982 19.9655 63.4082 19.8921 63.5082C19.8188 63.6015 19.7188 63.6749 19.5921 63.7282L18.3821 64.2482L18.3821 67.2282L19.6021 67.7482C19.7288 67.7949 19.8288 67.8682 19.9021 67.9682C19.9688 68.0615 20.0021 68.1649 20.0021 68.2782C20.0021 68.4515 19.9555 68.5849 19.8621 68.6782C19.7688 68.7649 19.6421 68.8082 19.4821 68.8082C19.4221 68.8082 19.3588 68.7982 19.2921 68.7782L13.3121 66.2882C13.1788 66.2349 13.0755 66.1549 13.0021 66.0482C12.9288 65.9415 12.8988 65.8215 12.9121 65.6882C12.9121 65.5682 12.9488 65.4582 13.0221 65.3582C13.0888 65.2515 13.1855 65.1749 13.3121 65.1282L19.1721 62.6682ZM17.2321 66.7382V64.7382L14.8921 65.7482L17.2321 66.7382ZM18.9721 54.2815C19.0255 54.1948 19.0955 54.1282 19.1821 54.0815C19.2688 54.0282 19.3588 54.0015 19.4521 54.0015C19.5721 54.0015 19.6821 54.0415 19.7821 54.1215C19.9021 54.2215 19.9621 54.3748 19.9621 54.5815C19.9621 54.7415 19.9255 54.8882 19.8521 55.0215C19.5788 55.5015 19.0221 55.7415 18.1821 55.7415C17.9421 55.7415 17.7521 55.8215 17.6121 55.9815C17.4721 56.1348 17.4021 56.3582 17.4021 56.6515V58.5215H19.3421C19.5221 58.5215 19.6688 58.5715 19.7821 58.6715C19.8955 58.7648 19.9521 58.8915 19.9521 59.0515C19.9521 59.2448 19.8955 59.4148 19.7821 59.5615C19.6621 59.7015 19.5155 59.7715 19.3421 59.7715H13.5621C13.3888 59.7715 13.2455 59.7148 13.1321 59.6015C13.0121 59.4815 12.9521 59.3348 12.9521 59.1615V56.2815C12.9521 55.9348 13.0455 55.6082 13.2321 55.3015C13.4188 54.9948 13.6755 54.7515 14.0021 54.5715C14.3288 54.3848 14.6955 54.2915 15.1021 54.2915C15.4355 54.2915 15.7621 54.3815 16.0821 54.5615C16.3955 54.7415 16.6455 54.9748 16.8321 55.2615C17.1255 54.8415 17.5188 54.6115 18.0121 54.5715C18.1188 54.5515 18.2221 54.5415 18.3221 54.5415C18.5288 54.5148 18.6788 54.4882 18.7721 54.4615C18.8588 54.4348 18.9255 54.3748 18.9721 54.2815ZM16.3721 56.3315C16.3721 56.2115 16.3155 56.0948 16.2021 55.9815C16.0888 55.8682 15.9388 55.7748 15.7521 55.7015C15.5588 55.6282 15.3521 55.5915 15.1321 55.5915C14.9455 55.5915 14.7755 55.6282 14.6221 55.7015C14.4621 55.7748 14.3355 55.8682 14.2421 55.9815C14.1488 56.0948 14.1021 56.2115 14.1021 56.3315V58.5215H16.3721V56.3315ZM12.9521 47.9062C12.9521 47.2796 13.1088 46.7429 13.4221 46.2962C13.7288 45.8429 14.1488 45.4996 14.6821 45.2662C15.2088 45.0262 15.7988 44.9062 16.4521 44.9062C17.1055 44.9062 17.6988 45.0262 18.2321 45.2662C18.7588 45.4996 19.1788 45.8429 19.4921 46.2962C19.7988 46.7429 19.9521 47.2796 19.9521 47.9062V50.2962C19.9521 50.4696 19.8955 50.6162 19.7821 50.7362C19.6621 50.8496 19.5155 50.9062 19.3421 50.9062H13.5621C13.3888 50.9062 13.2455 50.8496 13.1321 50.7362C13.0121 50.6162 12.9521 50.4696 12.9521 50.2962V47.9062ZM18.8021 48.0062C18.8021 47.4062 18.5821 46.9562 18.1421 46.6562C17.6955 46.3562 17.1321 46.2062 16.4521 46.2062C15.7721 46.2062 15.2121 46.3596 14.7721 46.6662C14.3255 46.9662 14.1021 47.4129 14.1021 48.0062V49.6562H18.8021V48.0062Z" fill="white"/>
<rect x="69.6641" y="137" width="122" height="32.344" rx="2" transform="rotate(-90 69.6641 137)" fill="#5B588F"/>
<path d="M88.8362 122.046C88.9229 122.013 89.0029 121.996 89.0762 121.996C89.2495 121.996 89.3929 122.053 89.5062 122.166C89.6129 122.279 89.6662 122.409 89.6662 122.556C89.6662 122.676 89.6295 122.786 89.5562 122.886C89.4829 122.979 89.3829 123.053 89.2562 123.106L88.0462 123.626V126.606L89.2662 127.126C89.3929 127.173 89.4929 127.246 89.5662 127.346C89.6329 127.439 89.6662 127.543 89.6662 127.656C89.6662 127.829 89.6195 127.963 89.5262 128.056C89.4329 128.143 89.3062 128.186 89.1462 128.186C89.0862 128.186 89.0229 128.176 88.9562 128.156L82.9762 125.666C82.8429 125.613 82.7395 125.533 82.6662 125.426C82.5929 125.319 82.5629 125.199 82.5762 125.066C82.5762 124.946 82.6129 124.836 82.6862 124.736C82.7529 124.629 82.8495 124.553 82.9762 124.506L88.8362 122.046ZM86.8962 126.116V124.116L84.5562 125.126L86.8962 126.116ZM82.6162 116.149C82.6162 115.522 82.7729 114.986 83.0862 114.539C83.3929 114.086 83.8129 113.742 84.3462 113.509C84.8729 113.269 85.4629 113.149 86.1162 113.149C86.7695 113.149 87.3629 113.269 87.8962 113.509C88.4229 113.742 88.8429 114.086 89.1562 114.539C89.4629 114.986 89.6162 115.522 89.6162 116.149V118.539C89.6162 118.712 89.5595 118.859 89.4462 118.979C89.3262 119.092 89.1795 119.149 89.0062 119.149H83.2262C83.0529 119.149 82.9095 119.092 82.7962 118.979C82.6762 118.859 82.6162 118.712 82.6162 118.539V116.149ZM88.4662 116.249C88.4662 115.649 88.2462 115.199 87.8062 114.899C87.3595 114.599 86.7962 114.449 86.1162 114.449C85.4362 114.449 84.8762 114.602 84.4362 114.909C83.9895 115.209 83.7662 115.656 83.7662 116.249V117.899H88.4662V116.249ZM82.6162 107.001C82.6162 106.374 82.7729 105.837 83.0862 105.391C83.3929 104.937 83.8129 104.594 84.3462 104.361C84.8729 104.121 85.4629 104.001 86.1162 104.001C86.7695 104.001 87.3629 104.121 87.8962 104.361C88.4229 104.594 88.8429 104.937 89.1562 105.391C89.4629 105.837 89.6162 106.374 89.6162 107.001V109.391C89.6162 109.564 89.5595 109.711 89.4462 109.831C89.3262 109.944 89.1795 110.001 89.0062 110.001H83.2262C83.0529 110.001 82.9095 109.944 82.7962 109.831C82.6762 109.711 82.6162 109.564 82.6162 109.391V107.001ZM88.4662 107.101C88.4662 106.501 88.2462 106.051 87.8062 105.751C87.3595 105.451 86.7962 105.301 86.1162 105.301C85.4362 105.301 84.8762 105.454 84.4362 105.761C83.9895 106.061 83.7662 106.507 83.7662 107.101V108.751H88.4662V107.101ZM88.6362 95.3623C88.6895 95.2756 88.7595 95.2089 88.8462 95.1623C88.9329 95.1089 89.0229 95.0823 89.1162 95.0823C89.2362 95.0823 89.3462 95.1223 89.4462 95.2023C89.5662 95.3023 89.6262 95.4556 89.6262 95.6623C89.6262 95.8223 89.5895 95.9689 89.5162 96.1023C89.2429 96.5823 88.6862 96.8223 87.8462 96.8223C87.6062 96.8223 87.4162 96.9023 87.2762 97.0623C87.1362 97.2156 87.0662 97.4389 87.0662 97.7323V99.6023H89.0062C89.1862 99.6023 89.3329 99.6523 89.4462 99.7523C89.5595 99.8456 89.6162 99.9723 89.6162 100.132C89.6162 100.326 89.5595 100.496 89.4462 100.642C89.3262 100.782 89.1795 100.852 89.0062 100.852H83.2262C83.0529 100.852 82.9095 100.796 82.7962 100.682C82.6762 100.562 82.6162 100.416 82.6162 100.242V97.3623C82.6162 97.0156 82.7095 96.6889 82.8962 96.3823C83.0829 96.0756 83.3395 95.8323 83.6662 95.6523C83.9929 95.4656 84.3595 95.3723 84.7662 95.3723C85.0995 95.3723 85.4262 95.4623 85.7462 95.6423C86.0595 95.8223 86.3095 96.0556 86.4962 96.3423C86.7895 95.9223 87.1829 95.6923 87.6762 95.6523C87.7829 95.6323 87.8862 95.6223 87.9862 95.6223C88.1929 95.5956 88.3429 95.5689 88.4362 95.5423C88.5229 95.5156 88.5895 95.4556 88.6362 95.3623ZM86.0362 97.4123C86.0362 97.2923 85.9795 97.1756 85.8662 97.0623C85.7529 96.9489 85.6029 96.8556 85.4162 96.7823C85.2229 96.7089 85.0162 96.6723 84.7962 96.6723C84.6095 96.6723 84.4395 96.7089 84.2862 96.7823C84.1262 96.8556 83.9995 96.9489 83.9062 97.0623C83.8129 97.1756 83.7662 97.2923 83.7662 97.4123V99.6023H86.0362V97.4123ZM88.4662 88.027C88.4662 87.8537 88.5262 87.7104 88.6462 87.597C88.7595 87.477 88.8929 87.417 89.0462 87.417C89.2129 87.417 89.3495 87.477 89.4562 87.597C89.5629 87.7104 89.6162 87.8537 89.6162 88.027V91.377C89.6162 91.5504 89.5595 91.697 89.4462 91.817C89.3262 91.9304 89.1795 91.987 89.0062 91.987H83.2262C83.0529 91.987 82.9095 91.9304 82.7962 91.817C82.6762 91.697 82.6162 91.5504 82.6162 91.377V88.027C82.6162 87.8537 82.6729 87.7104 82.7862 87.597C82.8929 87.477 83.0329 87.417 83.2062 87.417C83.3729 87.417 83.5095 87.4737 83.6162 87.587C83.7162 87.7004 83.7662 87.847 83.7662 88.027V90.737H85.4662V88.477C85.4662 88.3037 85.5229 88.1604 85.6362 88.047C85.7429 87.927 85.8829 87.867 86.0562 87.867C86.2229 87.867 86.3595 87.9237 86.4662 88.037C86.5662 88.1504 86.6162 88.297 86.6162 88.477V90.737H88.4662V88.027ZM89.7162 82.0144C89.7162 82.4944 89.6562 82.921 89.5362 83.2944C89.4162 83.6677 89.2129 84.0177 88.9262 84.3444C88.7662 84.5244 88.5895 84.6144 88.3962 84.6144C88.2429 84.6144 88.1095 84.5577 87.9962 84.4444C87.8762 84.331 87.8162 84.1944 87.8162 84.0344C87.8162 83.9077 87.8562 83.7944 87.9362 83.6944C88.1562 83.4277 88.3162 83.1677 88.4162 82.9144C88.5162 82.661 88.5662 82.361 88.5662 82.0144C88.5662 81.641 88.4829 81.321 88.3162 81.0544C88.1495 80.781 87.9429 80.6444 87.6962 80.6444C87.3962 80.6444 87.1629 80.7777 86.9962 81.0444C86.8229 81.311 86.6929 81.7344 86.6062 82.3144C86.3929 83.7744 85.7129 84.5044 84.5662 84.5044C84.1462 84.5044 83.7829 84.3944 83.4762 84.1744C83.1629 83.9544 82.9262 83.6544 82.7662 83.2744C82.5995 82.8944 82.5162 82.471 82.5162 82.0044C82.5162 81.5844 82.5795 81.191 82.7062 80.8244C82.8329 80.451 82.9995 80.141 83.2062 79.8944C83.3595 79.701 83.5362 79.6044 83.7362 79.6044C83.8895 79.6044 84.0262 79.661 84.1462 79.7744C84.2595 79.8877 84.3162 80.021 84.3162 80.1744C84.3162 80.2744 84.2862 80.3644 84.2262 80.4444C84.0862 80.6177 83.9595 80.861 83.8462 81.1744C83.7262 81.481 83.6662 81.7577 83.6662 82.0044C83.6662 82.4244 83.7462 82.751 83.9062 82.9844C84.0595 83.211 84.2629 83.3244 84.5162 83.3244C84.8029 83.3244 85.0195 83.2077 85.1662 82.9744C85.3129 82.7344 85.4329 82.361 85.5262 81.8544C85.6262 81.281 85.7562 80.8244 85.9162 80.4844C86.0695 80.1377 86.2829 79.8777 86.5562 79.7044C86.8229 79.531 87.1795 79.4444 87.6262 79.4444C88.0462 79.4444 88.4162 79.5644 88.7362 79.8044C89.0495 80.0377 89.2929 80.351 89.4662 80.7444C89.6329 81.1377 89.7162 81.561 89.7162 82.0144ZM89.7162 74.0476C89.7162 74.5276 89.6562 74.9542 89.5362 75.3276C89.4162 75.7009 89.2129 76.0509 88.9262 76.3776C88.7662 76.5576 88.5895 76.6476 88.3962 76.6476C88.2429 76.6476 88.1095 76.5909 87.9962 76.4776C87.8762 76.3642 87.8162 76.2276 87.8162 76.0676C87.8162 75.9409 87.8562 75.8276 87.9362 75.7276C88.1562 75.4609 88.3162 75.2009 88.4162 74.9476C88.5162 74.6942 88.5662 74.3942 88.5662 74.0476C88.5662 73.6742 88.4829 73.3542 88.3162 73.0876C88.1495 72.8142 87.9429 72.6776 87.6962 72.6776C87.3962 72.6776 87.1629 72.8109 86.9962 73.0776C86.8229 73.3442 86.6929 73.7676 86.6062 74.3476C86.3929 75.8076 85.7129 76.5376 84.5662 76.5376C84.1462 76.5376 83.7829 76.4276 83.4762 76.2076C83.1629 75.9876 82.9262 75.6876 82.7662 75.3076C82.5995 74.9276 82.5162 74.5042 82.5162 74.0376C82.5162 73.6176 82.5795 73.2242 82.7062 72.8576C82.8329 72.4842 82.9995 72.1742 83.2062 71.9276C83.3595 71.7342 83.5362 71.6376 83.7362 71.6376C83.8895 71.6376 84.0262 71.6942 84.1462 71.8076C84.2595 71.9209 84.3162 72.0542 84.3162 72.2076C84.3162 72.3076 84.2862 72.3976 84.2262 72.4776C84.0862 72.6509 83.9595 72.8942 83.8462 73.2076C83.7262 73.5142 83.6662 73.7909 83.6662 74.0376C83.6662 74.4576 83.7462 74.7842 83.9062 75.0176C84.0595 75.2442 84.2629 75.3576 84.5162 75.3576C84.8029 75.3576 85.0195 75.2409 85.1662 75.0076C85.3129 74.7676 85.4329 74.3942 85.5262 73.8876C85.6262 73.3142 85.7562 72.8576 85.9162 72.5176C86.0695 72.1709 86.2829 71.9109 86.5562 71.7376C86.8229 71.5642 87.1795 71.4776 87.6262 71.4776C88.0462 71.4776 88.4162 71.5976 88.7362 71.8376C89.0495 72.0709 89.2929 72.3842 89.4662 72.7776C89.6329 73.1709 89.7162 73.5942 89.7162 74.0476Z" fill="white"/>
<rect x="139.328" y="137" width="103" height="32.344" rx="2" transform="rotate(-90 139.328 137)" fill="#5B588F"/>
<path d="M158.11 125.033C158.11 124.859 158.167 124.716 158.28 124.603C158.387 124.483 158.527 124.423 158.7 124.423C158.867 124.423 159.007 124.483 159.12 124.603C159.227 124.716 159.28 124.859 159.28 125.033V128.283C159.28 128.456 159.224 128.603 159.11 128.723C158.99 128.836 158.844 128.893 158.67 128.893H152.89C152.717 128.893 152.574 128.833 152.46 128.713C152.34 128.593 152.28 128.439 152.28 128.253C152.28 128.086 152.34 127.943 152.46 127.823C152.574 127.703 152.717 127.643 152.89 127.643H158.11V125.033ZM158.67 120.027C158.844 120.027 158.99 120.091 159.11 120.217C159.224 120.344 159.28 120.491 159.28 120.657C159.28 120.837 159.224 120.987 159.11 121.107C158.99 121.221 158.844 121.277 158.67 121.277H152.89C152.717 121.277 152.574 121.217 152.46 121.097C152.34 120.977 152.28 120.824 152.28 120.637C152.28 120.471 152.34 120.327 152.46 120.207C152.574 120.087 152.717 120.027 152.89 120.027H158.67ZM159.38 114.273C159.38 114.753 159.32 115.18 159.2 115.553C159.08 115.927 158.877 116.277 158.59 116.603C158.43 116.783 158.254 116.873 158.06 116.873C157.907 116.873 157.774 116.817 157.66 116.703C157.54 116.59 157.48 116.453 157.48 116.293C157.48 116.167 157.52 116.053 157.6 115.953C157.82 115.687 157.98 115.427 158.08 115.173C158.18 114.92 158.23 114.62 158.23 114.273C158.23 113.9 158.147 113.58 157.98 113.313C157.814 113.04 157.607 112.903 157.36 112.903C157.06 112.903 156.827 113.037 156.66 113.303C156.487 113.57 156.357 113.993 156.27 114.573C156.057 116.033 155.377 116.763 154.23 116.763C153.81 116.763 153.447 116.653 153.14 116.433C152.827 116.213 152.59 115.913 152.43 115.533C152.264 115.153 152.18 114.73 152.18 114.263C152.18 113.843 152.244 113.45 152.37 113.083C152.497 112.71 152.664 112.4 152.87 112.153C153.024 111.96 153.2 111.863 153.4 111.863C153.554 111.863 153.69 111.92 153.81 112.033C153.924 112.147 153.98 112.28 153.98 112.433C153.98 112.533 153.95 112.623 153.89 112.703C153.75 112.877 153.624 113.12 153.51 113.433C153.39 113.74 153.33 114.017 153.33 114.263C153.33 114.683 153.41 115.01 153.57 115.243C153.724 115.47 153.927 115.583 154.18 115.583C154.467 115.583 154.684 115.467 154.83 115.233C154.977 114.993 155.097 114.62 155.19 114.113C155.29 113.54 155.42 113.083 155.58 112.743C155.734 112.397 155.947 112.137 156.22 111.963C156.487 111.79 156.844 111.703 157.29 111.703C157.71 111.703 158.08 111.823 158.4 112.063C158.714 112.297 158.957 112.61 159.13 113.003C159.297 113.397 159.38 113.82 159.38 114.273ZM158.13 104.597C158.13 104.423 158.19 104.28 158.31 104.167C158.424 104.047 158.557 103.987 158.71 103.987C158.877 103.987 159.014 104.047 159.12 104.167C159.227 104.28 159.28 104.423 159.28 104.597V107.947C159.28 108.12 159.224 108.267 159.11 108.387C158.99 108.5 158.844 108.557 158.67 108.557H152.89C152.717 108.557 152.574 108.5 152.46 108.387C152.34 108.267 152.28 108.12 152.28 107.947V104.597C152.28 104.423 152.337 104.28 152.45 104.167C152.557 104.047 152.697 103.987 152.87 103.987C153.037 103.987 153.174 104.043 153.28 104.157C153.38 104.27 153.43 104.417 153.43 104.597V107.307H155.13V105.047C155.13 104.873 155.187 104.73 155.3 104.617C155.407 104.497 155.547 104.437 155.72 104.437C155.887 104.437 156.024 104.493 156.13 104.607C156.23 104.72 156.28 104.867 156.28 105.047V107.307H158.13V104.597ZM152.28 95.524C152.28 95.364 152.334 95.234 152.44 95.134C152.547 95.034 152.68 94.984 152.84 94.984H158.67C158.844 94.984 158.99 95.044 159.11 95.164C159.224 95.2773 159.28 95.4207 159.28 95.594C159.28 95.6873 159.267 95.7807 159.24 95.874C159.207 95.9607 159.164 96.024 159.11 96.064L154.45 99.734H158.72C158.88 99.734 159.014 99.7873 159.12 99.894C159.227 99.994 159.28 100.127 159.28 100.294C159.28 100.454 159.227 100.584 159.12 100.684C159.014 100.784 158.88 100.834 158.72 100.834H152.89C152.717 100.834 152.574 100.777 152.46 100.664C152.34 100.544 152.28 100.397 152.28 100.224C152.28 100.124 152.3 100.027 152.34 99.934C152.38 99.834 152.434 99.7607 152.5 99.714L157.14 96.074H152.84C152.68 96.074 152.547 96.024 152.44 95.924C152.334 95.8173 152.28 95.684 152.28 95.524ZM152.62 86.5805C152.727 86.3738 152.897 86.2705 153.13 86.2705C153.27 86.2705 153.407 86.3205 153.54 86.4205C153.68 86.5271 153.75 86.6638 153.75 86.8305C153.75 86.9438 153.72 87.0571 153.66 87.1705C153.507 87.4971 153.43 87.8505 153.43 88.2305C153.43 88.6971 153.53 89.1038 153.73 89.4505C153.924 89.7971 154.2 90.0638 154.56 90.2505C154.914 90.4371 155.32 90.5305 155.78 90.5305C156.567 90.5305 157.164 90.3205 157.57 89.9005C157.977 89.4738 158.18 88.9171 158.18 88.2305C158.18 87.8238 158.104 87.4705 157.95 87.1705C157.897 87.0505 157.87 86.9438 157.87 86.8505C157.87 86.6771 157.944 86.5305 158.09 86.4105C158.217 86.3105 158.354 86.2605 158.5 86.2605C158.607 86.2605 158.704 86.2871 158.79 86.3405C158.877 86.3938 158.944 86.4705 158.99 86.5705C159.25 87.0905 159.38 87.6438 159.38 88.2305C159.38 88.8838 159.244 89.4838 158.97 90.0305C158.69 90.5771 158.28 91.0138 157.74 91.3405C157.2 91.6671 156.547 91.8305 155.78 91.8305C155.1 91.8305 154.49 91.6771 153.95 91.3705C153.41 91.0571 152.99 90.6271 152.69 90.0805C152.384 89.5338 152.23 88.9171 152.23 88.2305C152.23 87.6371 152.36 87.0871 152.62 86.5805ZM158.13 79.2509C158.13 79.0776 158.19 78.9343 158.31 78.8209C158.424 78.7009 158.557 78.6409 158.71 78.6409C158.877 78.6409 159.014 78.7009 159.12 78.8209C159.227 78.9343 159.28 79.0776 159.28 79.2509V82.6009C159.28 82.7743 159.224 82.9209 159.11 83.0409C158.99 83.1543 158.844 83.2109 158.67 83.2109H152.89C152.717 83.2109 152.574 83.1543 152.46 83.0409C152.34 82.9209 152.28 82.7743 152.28 82.6009V79.2509C152.28 79.0776 152.337 78.9343 152.45 78.8209C152.557 78.7009 152.697 78.6409 152.87 78.6409C153.037 78.6409 153.174 78.6976 153.28 78.8109C153.38 78.9243 153.43 79.0709 153.43 79.2509V81.9609H155.13V79.7009C155.13 79.5276 155.187 79.3843 155.3 79.2709C155.407 79.1509 155.547 79.0909 155.72 79.0909C155.887 79.0909 156.024 79.1476 156.13 79.2609C156.23 79.3743 156.28 79.5209 156.28 79.7009V81.9609H158.13V79.2509Z" fill="white"/>
<rect x="208.992" y="137" width="78.0001" height="32.344" rx="2" transform="rotate(-90 208.992 137)" fill="#5B588F"/>
<path d="M228.164 125.189C228.251 125.156 228.331 125.139 228.404 125.139C228.578 125.139 228.721 125.196 228.834 125.309C228.941 125.422 228.994 125.552 228.994 125.699C228.994 125.819 228.958 125.929 228.884 126.029C228.811 126.122 228.711 126.196 228.584 126.249L227.374 126.769V129.749L228.594 130.269C228.721 130.316 228.821 130.389 228.894 130.489C228.961 130.582 228.994 130.686 228.994 130.799C228.994 130.972 228.948 131.106 228.854 131.199C228.761 131.286 228.634 131.329 228.474 131.329C228.414 131.329 228.351 131.319 228.284 131.299L222.304 128.809C222.171 128.756 222.068 128.676 221.994 128.569C221.921 128.462 221.891 128.342 221.904 128.209C221.904 128.089 221.941 127.979 222.014 127.879C222.081 127.772 222.178 127.696 222.304 127.649L228.164 125.189ZM226.224 129.259V127.259L223.884 128.269L226.224 129.259ZM221.914 114.647C221.914 114.487 221.978 114.34 222.104 114.207C222.224 114.067 222.378 113.997 222.564 113.997C222.624 113.997 222.691 114.007 222.764 114.027L228.564 115.997C228.678 116.037 228.768 116.107 228.834 116.207C228.901 116.307 228.938 116.417 228.944 116.537C228.944 116.657 228.911 116.77 228.844 116.877C228.778 116.984 228.681 117.067 228.554 117.127L225.324 118.547L228.554 119.977C228.681 120.037 228.778 120.12 228.844 120.227C228.911 120.334 228.944 120.447 228.944 120.567C228.938 120.687 228.901 120.797 228.834 120.897C228.768 120.997 228.678 121.067 228.564 121.107L222.764 123.077C222.691 123.097 222.624 123.107 222.564 123.107C222.378 123.107 222.224 123.04 222.104 122.907C221.978 122.767 221.914 122.614 221.914 122.447C221.914 122.314 221.951 122.194 222.024 122.087C222.091 121.98 222.184 121.907 222.304 121.867L226.824 120.377L223.704 119.077C223.584 119.024 223.491 118.947 223.424 118.847C223.351 118.747 223.318 118.634 223.324 118.507C223.318 118.38 223.351 118.27 223.424 118.177C223.491 118.077 223.584 118 223.704 117.947L226.794 116.717L222.304 115.237C222.184 115.197 222.091 115.124 222.024 115.017C221.951 114.904 221.914 114.78 221.914 114.647ZM229.044 108.931C229.044 109.411 228.984 109.838 228.864 110.211C228.744 110.584 228.541 110.934 228.254 111.261C228.094 111.441 227.918 111.531 227.724 111.531C227.571 111.531 227.438 111.474 227.324 111.361C227.204 111.248 227.144 111.111 227.144 110.951C227.144 110.824 227.184 110.711 227.264 110.611C227.484 110.344 227.644 110.084 227.744 109.831C227.844 109.578 227.894 109.278 227.894 108.931C227.894 108.558 227.811 108.238 227.644 107.971C227.478 107.698 227.271 107.561 227.024 107.561C226.724 107.561 226.491 107.694 226.324 107.961C226.151 108.228 226.021 108.651 225.934 109.231C225.721 110.691 225.041 111.421 223.894 111.421C223.474 111.421 223.111 111.311 222.804 111.091C222.491 110.871 222.254 110.571 222.094 110.191C221.928 109.811 221.844 109.388 221.844 108.921C221.844 108.501 221.908 108.108 222.034 107.741C222.161 107.368 222.328 107.058 222.534 106.811C222.688 106.618 222.864 106.521 223.064 106.521C223.218 106.521 223.354 106.578 223.474 106.691C223.588 106.804 223.644 106.938 223.644 107.091C223.644 107.191 223.614 107.281 223.554 107.361C223.414 107.534 223.288 107.778 223.174 108.091C223.054 108.398 222.994 108.674 222.994 108.921C222.994 109.341 223.074 109.668 223.234 109.901C223.388 110.128 223.591 110.241 223.844 110.241C224.131 110.241 224.348 110.124 224.494 109.891C224.641 109.651 224.761 109.278 224.854 108.771C224.954 108.198 225.084 107.741 225.244 107.401C225.398 107.054 225.611 106.794 225.884 106.621C226.151 106.448 226.508 106.361 226.954 106.361C227.374 106.361 227.744 106.481 228.064 106.721C228.378 106.954 228.621 107.268 228.794 107.661C228.961 108.054 229.044 108.478 229.044 108.931ZM227.904 93.0514C227.958 93.0114 228.024 92.978 228.104 92.9514C228.178 92.9247 228.248 92.9114 228.314 92.9114C228.494 92.9114 228.644 92.9814 228.764 93.1214C228.884 93.2547 228.944 93.4114 228.944 93.5914C228.944 93.678 228.924 93.7614 228.884 93.8414C228.844 93.9214 228.788 93.988 228.714 94.0414L225.854 96.2114L226.764 97.1614H228.334C228.514 97.1614 228.661 97.2214 228.774 97.3414C228.888 97.4547 228.944 97.6047 228.944 97.7914C228.944 97.9714 228.888 98.1214 228.774 98.2414C228.654 98.3547 228.508 98.4114 228.334 98.4114H222.554C222.381 98.4114 222.238 98.3514 222.124 98.2314C222.004 98.1114 221.944 97.958 221.944 97.7714C221.944 97.5914 222.001 97.4447 222.114 97.3314C222.228 97.218 222.374 97.1614 222.554 97.1614H225.274L222.124 93.9614C221.971 93.808 221.894 93.6447 221.894 93.4714C221.894 93.318 221.958 93.188 222.084 93.0814C222.211 92.9747 222.344 92.9214 222.484 92.9214C222.624 92.9214 222.754 92.9814 222.874 93.1014L224.954 95.2814L227.904 93.0514ZM227.794 85.8986C227.794 85.7253 227.854 85.582 227.974 85.4686C228.088 85.3486 228.221 85.2886 228.374 85.2886C228.541 85.2886 228.678 85.3486 228.784 85.4686C228.891 85.582 228.944 85.7253 228.944 85.8986V89.2486C228.944 89.422 228.888 89.5686 228.774 89.6886C228.654 89.802 228.508 89.8586 228.334 89.8586H222.554C222.381 89.8586 222.238 89.802 222.124 89.6886C222.004 89.5686 221.944 89.422 221.944 89.2486V85.8986C221.944 85.7253 222.001 85.582 222.114 85.4686C222.221 85.3486 222.361 85.2886 222.534 85.2886C222.701 85.2886 222.838 85.3453 222.944 85.4586C223.044 85.572 223.094 85.7186 223.094 85.8986V88.6086H224.794V86.3486C224.794 86.1753 224.851 86.032 224.964 85.9186C225.071 85.7986 225.211 85.7386 225.384 85.7386C225.551 85.7386 225.688 85.7953 225.794 85.9086C225.894 86.022 225.944 86.1686 225.944 86.3486V88.6086H227.794V85.8986ZM222.534 77.076C222.668 77.076 222.791 77.1127 222.904 77.186L225.894 79.276H228.334C228.508 79.276 228.654 79.3327 228.774 79.446C228.888 79.5593 228.944 79.696 228.944 79.856C228.944 80.0227 228.888 80.166 228.774 80.286C228.654 80.3993 228.508 80.456 228.334 80.456H225.754L222.994 82.536C222.834 82.656 222.678 82.716 222.524 82.716C222.351 82.716 222.208 82.6493 222.094 82.516C221.974 82.376 221.914 82.2293 221.914 82.076C221.914 81.8893 222.008 81.726 222.194 81.586L224.624 79.826L222.214 78.176C222.014 78.036 221.914 77.8693 221.914 77.676C221.914 77.516 221.974 77.376 222.094 77.256C222.214 77.136 222.361 77.076 222.534 77.076Z" fill="white"/>
<rect x="278.656" y="137" width="115" height="32.344" rx="2" transform="rotate(-90 278.656 137)" fill="#5B588F"/>
<path d="M291.948 124.563C292.055 124.357 292.225 124.253 292.458 124.253C292.598 124.253 292.735 124.303 292.868 124.403C293.008 124.51 293.078 124.647 293.078 124.813C293.078 124.927 293.048 125.04 292.988 125.153C292.835 125.48 292.758 125.833 292.758 126.213C292.758 126.68 292.858 127.087 293.058 127.433C293.252 127.78 293.528 128.047 293.888 128.233C294.242 128.42 294.648 128.513 295.108 128.513C295.895 128.513 296.492 128.303 296.898 127.883C297.305 127.457 297.508 126.9 297.508 126.213C297.508 125.807 297.432 125.453 297.278 125.153C297.225 125.033 297.198 124.927 297.198 124.833C297.198 124.66 297.272 124.513 297.418 124.393C297.545 124.293 297.682 124.243 297.828 124.243C297.935 124.243 298.032 124.27 298.118 124.323C298.205 124.377 298.272 124.453 298.318 124.553C298.578 125.073 298.708 125.627 298.708 126.213C298.708 126.867 298.572 127.467 298.298 128.013C298.018 128.56 297.608 128.997 297.068 129.323C296.528 129.65 295.875 129.813 295.108 129.813C294.428 129.813 293.818 129.66 293.278 129.353C292.738 129.04 292.318 128.61 292.018 128.063C291.712 127.517 291.558 126.9 291.558 126.213C291.558 125.62 291.688 125.07 291.948 124.563ZM297.628 115.704C297.682 115.617 297.752 115.551 297.838 115.504C297.925 115.451 298.015 115.424 298.108 115.424C298.228 115.424 298.338 115.464 298.438 115.544C298.558 115.644 298.618 115.797 298.618 116.004C298.618 116.164 298.582 116.311 298.508 116.444C298.235 116.924 297.678 117.164 296.838 117.164C296.598 117.164 296.408 117.244 296.268 117.404C296.128 117.557 296.058 117.781 296.058 118.074V119.944H297.998C298.178 119.944 298.325 119.994 298.438 120.094C298.552 120.187 298.608 120.314 298.608 120.474C298.608 120.667 298.552 120.837 298.438 120.984C298.318 121.124 298.172 121.194 297.998 121.194H292.218C292.045 121.194 291.902 121.137 291.788 121.024C291.668 120.904 291.608 120.757 291.608 120.584V117.704C291.608 117.357 291.702 117.031 291.888 116.724C292.075 116.417 292.332 116.174 292.658 115.994C292.985 115.807 293.352 115.714 293.758 115.714C294.092 115.714 294.418 115.804 294.738 115.984C295.052 116.164 295.302 116.397 295.488 116.684C295.782 116.264 296.175 116.034 296.668 115.994C296.775 115.974 296.878 115.964 296.978 115.964C297.185 115.937 297.335 115.911 297.428 115.884C297.515 115.857 297.582 115.797 297.628 115.704ZM295.028 117.754C295.028 117.634 294.972 117.517 294.858 117.404C294.745 117.291 294.595 117.197 294.408 117.124C294.215 117.051 294.008 117.014 293.788 117.014C293.602 117.014 293.432 117.051 293.278 117.124C293.118 117.197 292.992 117.291 292.898 117.404C292.805 117.517 292.758 117.634 292.758 117.754V119.944H295.028V117.754ZM297.458 108.369C297.458 108.195 297.518 108.052 297.638 107.939C297.752 107.819 297.885 107.759 298.038 107.759C298.205 107.759 298.342 107.819 298.448 107.939C298.555 108.052 298.608 108.195 298.608 108.369V111.719C298.608 111.892 298.552 112.039 298.438 112.159C298.318 112.272 298.172 112.329 297.998 112.329H292.218C292.045 112.329 291.902 112.272 291.788 112.159C291.668 112.039 291.608 111.892 291.608 111.719V108.369C291.608 108.195 291.665 108.052 291.778 107.939C291.885 107.819 292.025 107.759 292.198 107.759C292.365 107.759 292.502 107.815 292.608 107.929C292.708 108.042 292.758 108.189 292.758 108.369V111.079H294.458V108.819C294.458 108.645 294.515 108.502 294.628 108.389C294.735 108.269 294.875 108.209 295.048 108.209C295.215 108.209 295.352 108.265 295.458 108.379C295.558 108.492 295.608 108.639 295.608 108.819V111.079H297.458V108.369ZM291.608 101.606C291.608 100.979 291.765 100.443 292.078 99.996C292.385 99.5426 292.805 99.1993 293.338 98.966C293.865 98.726 294.455 98.606 295.108 98.606C295.762 98.606 296.355 98.726 296.888 98.966C297.415 99.1993 297.835 99.5426 298.148 99.996C298.455 100.443 298.608 100.979 298.608 101.606V103.996C298.608 104.169 298.552 104.316 298.438 104.436C298.318 104.549 298.172 104.606 297.998 104.606H292.218C292.045 104.606 291.902 104.549 291.788 104.436C291.668 104.316 291.608 104.169 291.608 103.996V101.606ZM297.458 101.706C297.458 101.106 297.238 100.656 296.798 100.356C296.352 100.056 295.788 99.906 295.108 99.906C294.428 99.906 293.868 100.059 293.428 100.366C292.982 100.666 292.758 101.113 292.758 101.706V103.356H297.458V101.706ZM297.998 94.2075C298.172 94.2075 298.318 94.2709 298.438 94.3975C298.552 94.5242 298.608 94.6709 298.608 94.8375C298.608 95.0175 298.552 95.1675 298.438 95.2875C298.318 95.4009 298.172 95.4575 297.998 95.4575H292.218C292.045 95.4575 291.902 95.3975 291.788 95.2775C291.668 95.1575 291.608 95.0042 291.608 94.8175C291.608 94.6509 291.668 94.5075 291.788 94.3875C291.902 94.2675 292.045 94.2075 292.218 94.2075H297.998ZM291.608 86.1036C291.608 85.9236 291.662 85.7769 291.768 85.6636C291.875 85.5503 292.015 85.4936 292.188 85.4936C292.362 85.4936 292.502 85.5503 292.608 85.6636C292.708 85.7769 292.758 85.9236 292.758 86.1036V87.6736H297.998C298.172 87.6736 298.318 87.7369 298.438 87.8636C298.552 87.9903 298.608 88.1469 298.608 88.3336C298.608 88.5203 298.552 88.6736 298.438 88.7936C298.318 88.9136 298.172 88.9736 297.998 88.9736H292.758V90.5436C292.758 90.7236 292.705 90.8703 292.598 90.9836C292.492 91.0969 292.352 91.1536 292.178 91.1536C292.012 91.1536 291.875 91.0969 291.768 90.9836C291.662 90.8636 291.608 90.7169 291.608 90.5436V86.1036ZM291.948 72.7411C292.055 72.5344 292.225 72.4311 292.458 72.4311C292.598 72.4311 292.735 72.4811 292.868 72.5811C293.008 72.6878 293.078 72.8244 293.078 72.9911C293.078 73.1044 293.048 73.2178 292.988 73.3311C292.835 73.6578 292.758 74.0111 292.758 74.3911C292.758 74.8578 292.858 75.2644 293.058 75.6111C293.252 75.9578 293.528 76.2244 293.888 76.4111C294.242 76.5978 294.648 76.6911 295.108 76.6911C295.895 76.6911 296.492 76.4811 296.898 76.0611C297.305 75.6344 297.508 75.0778 297.508 74.3911C297.508 73.9844 297.432 73.6311 297.278 73.3311C297.225 73.2111 297.198 73.1044 297.198 73.0111C297.198 72.8378 297.272 72.6911 297.418 72.5711C297.545 72.4711 297.682 72.4211 297.828 72.4211C297.935 72.4211 298.032 72.4478 298.118 72.5011C298.205 72.5544 298.272 72.6311 298.318 72.7311C298.578 73.2511 298.708 73.8044 298.708 74.3911C298.708 75.0444 298.572 75.6444 298.298 76.1911C298.018 76.7378 297.608 77.1744 297.068 77.5011C296.528 77.8278 295.875 77.9911 295.108 77.9911C294.428 77.9911 293.818 77.8378 293.278 77.5311C292.738 77.2178 292.318 76.7878 292.018 76.2411C291.712 75.6944 291.558 75.0778 291.558 74.3911C291.558 73.7978 291.688 73.2478 291.948 72.7411ZM297.828 63.8816C297.915 63.8482 297.995 63.8316 298.068 63.8316C298.242 63.8316 298.385 63.8882 298.498 64.0016C298.605 64.1149 298.658 64.2449 298.658 64.3916C298.658 64.5116 298.622 64.6216 298.548 64.7216C298.475 64.8149 298.375 64.8882 298.248 64.9416L297.038 65.4616V68.4416L298.258 68.9616C298.385 69.0082 298.485 69.0816 298.558 69.1816C298.625 69.2749 298.658 69.3782 298.658 69.4916C298.658 69.6649 298.612 69.7982 298.518 69.8916C298.425 69.9782 298.298 70.0216 298.138 70.0216C298.078 70.0216 298.015 70.0116 297.948 69.9916L291.968 67.5016C291.835 67.4482 291.732 67.3682 291.658 67.2616C291.585 67.1549 291.555 67.0349 291.568 66.9016C291.568 66.7816 291.605 66.6716 291.678 66.5716C291.745 66.4649 291.842 66.3882 291.968 66.3416L297.828 63.8816ZM295.888 67.9516V65.9516L293.548 66.9616L295.888 67.9516ZM297.628 55.4949C297.682 55.4082 297.752 55.3415 297.838 55.2949C297.925 55.2415 298.015 55.2149 298.108 55.2149C298.228 55.2149 298.338 55.2549 298.438 55.3349C298.558 55.4349 298.618 55.5882 298.618 55.7949C298.618 55.9549 298.582 56.1015 298.508 56.2349C298.235 56.7149 297.678 56.9549 296.838 56.9549C296.598 56.9549 296.408 57.0349 296.268 57.1949C296.128 57.3482 296.058 57.5715 296.058 57.8649V59.7349H297.998C298.178 59.7349 298.325 59.7849 298.438 59.8849C298.552 59.9782 298.608 60.1049 298.608 60.2649C298.608 60.4582 298.552 60.6282 298.438 60.7749C298.318 60.9149 298.172 60.9849 297.998 60.9849H292.218C292.045 60.9849 291.902 60.9282 291.788 60.8149C291.668 60.6949 291.608 60.5482 291.608 60.3749V57.4949C291.608 57.1482 291.702 56.8215 291.888 56.5149C292.075 56.2082 292.332 55.9649 292.658 55.7849C292.985 55.5982 293.352 55.5049 293.758 55.5049C294.092 55.5049 294.418 55.5949 294.738 55.7749C295.052 55.9549 295.302 56.1882 295.488 56.4749C295.782 56.0549 296.175 55.8249 296.668 55.7849C296.775 55.7649 296.878 55.7549 296.978 55.7549C297.185 55.7282 297.335 55.7015 297.428 55.6749C297.515 55.6482 297.582 55.5882 297.628 55.4949ZM295.028 57.5449C295.028 57.4249 294.972 57.3082 294.858 57.1949C294.745 57.0815 294.595 56.9882 294.408 56.9149C294.215 56.8415 294.008 56.8049 293.788 56.8049C293.602 56.8049 293.432 56.8415 293.278 56.9149C293.118 56.9882 292.992 57.0815 292.898 57.1949C292.805 57.3082 292.758 57.4249 292.758 57.5449V59.7349H295.028V57.5449ZM291.608 49.1196C291.608 48.493 291.765 47.9563 292.078 47.5096C292.385 47.0563 292.805 46.713 293.338 46.4796C293.865 46.2396 294.455 46.1196 295.108 46.1196C295.762 46.1196 296.355 46.2396 296.888 46.4796C297.415 46.713 297.835 47.0563 298.148 47.5096C298.455 47.9563 298.608 48.493 298.608 49.1196V51.5096C298.608 51.683 298.552 51.8296 298.438 51.9496C298.318 52.063 298.172 52.1196 297.998 52.1196H292.218C292.045 52.1196 291.902 52.063 291.788 51.9496C291.668 51.8296 291.608 51.683 291.608 51.5096V49.1196ZM297.458 49.2196C297.458 48.6196 297.238 48.1696 296.798 47.8696C296.352 47.5696 295.788 47.4196 295.108 47.4196C294.428 47.4196 293.868 47.573 293.428 47.8796C292.982 48.1796 292.758 48.6263 292.758 49.2196V50.8696H297.458V49.2196Z" fill="white"/>
</svg>
