<svg width="32" height="32" viewBox="0 0 32 32" fill="none" xmlns="http://www.w3.org/2000/svg">
<path d="M19.0537 14.3867L14.667 18.7867L12.947 17.0533C12.6959 16.8023 12.3554 16.6612 12.0003 16.6612C11.6453 16.6612 11.3047 16.8023 11.0537 17.0533C10.8026 17.3044 10.6615 17.6449 10.6615 18C10.6615 18.3551 10.8026 18.6956 11.0537 18.9467L13.7203 21.6133C13.8443 21.7383 13.9917 21.8375 14.1542 21.9052C14.3167 21.9729 14.491 22.0077 14.667 22.0077C14.843 22.0077 15.0173 21.9729 15.1798 21.9052C15.3422 21.8375 15.4897 21.7383 15.6137 21.6133L20.947 16.28C21.1981 16.0289 21.3391 15.6884 21.3391 15.3333C21.3391 14.9783 21.1981 14.6377 20.947 14.3867C20.6959 14.1356 20.3554 13.9946 20.0003 13.9946C19.6453 13.9946 19.3047 14.1356 19.0537 14.3867ZM25.3337 7.33334H16.9603L16.5337 6.00001C16.2571 5.21765 15.744 4.54068 15.0655 4.06289C14.3871 3.5851 13.5768 3.33014 12.747 3.33334H6.66699C5.60613 3.33334 4.58871 3.75477 3.83857 4.50492C3.08842 5.25506 2.66699 6.27248 2.66699 7.33334V24.6667C2.66699 25.7275 3.08842 26.745 3.83857 27.4951C4.58871 28.2453 5.60613 28.6667 6.66699 28.6667H25.3337C26.3945 28.6667 27.4119 28.2453 28.1621 27.4951C28.9122 26.745 29.3337 25.7275 29.3337 24.6667V11.3333C29.3337 10.2725 28.9122 9.25506 28.1621 8.50492C27.4119 7.75477 26.3945 7.33334 25.3337 7.33334ZM26.667 24.6667C26.667 25.0203 26.5265 25.3594 26.2765 25.6095C26.0264 25.8595 25.6873 26 25.3337 26H6.66699C6.31337 26 5.97423 25.8595 5.72418 25.6095C5.47413 25.3594 5.33366 25.0203 5.33366 24.6667V7.33334C5.33366 6.97972 5.47413 6.64058 5.72418 6.39053C5.97423 6.14049 6.31337 6.00001 6.66699 6.00001H12.747C13.0265 5.99929 13.2992 6.08643 13.5265 6.24913C13.7538 6.41183 13.9242 6.64185 14.0137 6.90668L14.7337 9.09334C14.8231 9.35817 14.9935 9.58819 15.2208 9.75089C15.4481 9.91358 15.7208 10.0007 16.0003 10H25.3337C25.6873 10 26.0264 10.1405 26.2765 10.3905C26.5265 10.6406 26.667 10.9797 26.667 11.3333V24.6667Z" fill="white"/>
</svg>
