<svg width="162" height="162" viewBox="0 0 162 162" fill="none" xmlns="http://www.w3.org/2000/svg">
<path d="M153.9 81C158.374 81 162.042 84.6358 161.595 89.087C159.954 105.452 153.358 121.002 142.593 133.605C130.067 148.271 112.72 157.986 93.6712 161.003C74.6223 164.02 55.1219 160.141 38.6776 150.064C22.2333 139.987 9.92423 124.373 3.96442 106.03C-1.99539 87.688 -1.21481 67.8209 6.16576 50.0026C13.5463 32.1844 27.0425 17.5843 44.2268 8.82847C61.411 0.0726518 81.1556 -2.26427 99.9091 2.23804C116.026 6.10741 130.502 14.81 141.45 27.0847C144.427 30.4233 143.596 35.521 139.977 38.1504C136.358 40.7799 131.327 39.9354 128.266 36.6723C119.648 27.4826 108.491 20.9588 96.1273 17.9904C81.1245 14.3886 65.3288 16.2581 51.5814 23.2628C37.834 30.2674 27.0371 41.9475 21.1326 56.2021C15.2281 70.4567 14.6037 86.3504 19.3715 101.024C24.1394 115.698 33.9866 128.189 47.1421 136.251C60.2976 144.313 75.8978 147.416 91.137 145.002C106.376 142.589 120.254 134.817 130.274 123.084C138.532 113.415 143.724 101.58 145.295 89.0793C145.852 84.6407 149.426 81 153.9 81Z" fill="url(#paint0_linear_1992_11101)"/>
<defs>
<linearGradient id="paint0_linear_1992_11101" x1="81" y1="0" x2="81" y2="162" gradientUnits="userSpaceOnUse">
<stop stop-color="#D05351"/>
<stop offset="0.359375" stop-color="#ED629D"/>
<stop offset="0.71875" stop-color="#DC843F"/>
<stop offset="1" stop-color="#6ACB95"/>
</linearGradient>
</defs>
</svg>
