<svg width="24" height="24" viewBox="0 0 24 24" fill="none" xmlns="http://www.w3.org/2000/svg">
<circle opacity="0.5" cx="12" cy="12" r="12" fill="#ADF3CC"/>
<path d="M9.917 10.75H12.0003C12.2213 10.75 12.4333 10.6622 12.5896 10.5059C12.7459 10.3496 12.8337 10.1377 12.8337 9.91667C12.8337 9.69566 12.7459 9.4837 12.5896 9.32742C12.4333 9.17114 12.2213 9.08334 12.0003 9.08334H11.167V8.66667C11.167 8.44566 11.0792 8.2337 10.9229 8.07742C10.7666 7.92114 10.5547 7.83334 10.3337 7.83334C10.1127 7.83334 9.90069 7.92114 9.74441 8.07742C9.58813 8.2337 9.50033 8.44566 9.50033 8.66667V9.12501C8.99402 9.22782 8.54397 9.51509 8.23755 9.93106C7.93112 10.347 7.7902 10.862 7.84212 11.376C7.89404 11.8901 8.13511 12.3665 8.51853 12.7128C8.90194 13.0591 9.40035 13.2505 9.917 13.25H10.7503C10.8608 13.25 10.9668 13.2939 11.045 13.372C11.1231 13.4502 11.167 13.5562 11.167 13.6667C11.167 13.7772 11.1231 13.8832 11.045 13.9613C10.9668 14.0394 10.8608 14.0833 10.7503 14.0833H8.667C8.44598 14.0833 8.23402 14.1711 8.07774 14.3274C7.92146 14.4837 7.83367 14.6957 7.83367 14.9167C7.83367 15.1377 7.92146 15.3496 8.07774 15.5059C8.23402 15.6622 8.44598 15.75 8.667 15.75H9.50033V16.1667C9.50033 16.3877 9.58813 16.5996 9.74441 16.7559C9.90069 16.9122 10.1127 17 10.3337 17C10.5547 17 10.7666 16.9122 10.9229 16.7559C11.0792 16.5996 11.167 16.3877 11.167 16.1667V15.7083C11.6733 15.6055 12.1234 15.3183 12.4298 14.9023C12.7362 14.4863 12.8771 13.9713 12.8252 13.4573C12.7733 12.9433 12.5322 12.4669 12.1488 12.1206C11.7654 11.7743 11.267 11.5828 10.7503 11.5833H9.917C9.80649 11.5833 9.70051 11.5394 9.62237 11.4613C9.54423 11.3832 9.50033 11.2772 9.50033 11.1667C9.50033 11.0562 9.54423 10.9502 9.62237 10.872C9.70051 10.7939 9.80649 10.75 9.917 10.75ZM19.5003 12H17.0003V4.50001C17.0009 4.35316 16.9627 4.20878 16.8895 4.08146C16.8163 3.95415 16.7108 3.84843 16.5837 3.77501C16.457 3.70187 16.3133 3.66336 16.167 3.66336C16.0207 3.66336 15.877 3.70187 15.7503 3.77501L13.2503 5.20834L10.7503 3.77501C10.6236 3.70187 10.4799 3.66336 10.3337 3.66336C10.1874 3.66336 10.0437 3.70187 9.917 3.77501L7.417 5.20834L4.917 3.77501C4.79032 3.70187 4.64661 3.66336 4.50033 3.66336C4.35405 3.66336 4.21035 3.70187 4.08367 3.77501C3.9565 3.84843 3.85098 3.95415 3.77781 4.08146C3.70464 4.20878 3.66642 4.35316 3.667 4.50001V17.8333C3.667 18.4964 3.93039 19.1323 4.39923 19.6011C4.86807 20.0699 5.50396 20.3333 6.167 20.3333H17.8337C18.4967 20.3333 19.1326 20.0699 19.6014 19.6011C20.0703 19.1323 20.3337 18.4964 20.3337 17.8333V12.8333C20.3337 12.6123 20.2459 12.4004 20.0896 12.2441C19.9333 12.0878 19.7213 12 19.5003 12ZM6.167 18.6667C5.94598 18.6667 5.73402 18.5789 5.57774 18.4226C5.42146 18.2663 5.33367 18.0544 5.33367 17.8333V5.94167L7.00033 6.89167C7.12895 6.95885 7.2719 6.99393 7.417 6.99393C7.5621 6.99393 7.70505 6.95885 7.83367 6.89167L10.3337 5.45834L12.8337 6.89167C12.9623 6.95885 13.1052 6.99393 13.2503 6.99393C13.3954 6.99393 13.5384 6.95885 13.667 6.89167L15.3337 5.94167V17.8333C15.3359 18.1176 15.3866 18.3994 15.4837 18.6667H6.167ZM18.667 17.8333C18.667 18.0544 18.5792 18.2663 18.4229 18.4226C18.2666 18.5789 18.0547 18.6667 17.8337 18.6667C17.6126 18.6667 17.4007 18.5789 17.2444 18.4226C17.0881 18.2663 17.0003 18.0544 17.0003 17.8333V13.6667H18.667V17.8333Z" fill="#69CA94"/>
</svg>
