<svg width="19" height="20" viewBox="0 0 19 20" fill="none" xmlns="http://www.w3.org/2000/svg">
<path d="M12.1827 18.862C12.805 19.2779 13.5367 19.4999 14.2853 19.5C15.2891 19.4988 16.2515 19.0996 16.9613 18.3897C17.6711 17.6799 18.0703 16.7176 18.0715 15.7138L12.1827 18.862ZM12.1827 18.862C11.5601 18.446 11.0749 17.8548 10.7884 17.163M12.1827 18.862L10.7884 17.163M10.7884 17.163C10.5018 16.4713 10.4269 15.7101 10.5729 14.9758M10.7884 17.163L10.5729 14.9758M10.5729 14.9758C10.719 14.2414 11.0796 13.5669 11.609 13.0375M10.5729 14.9758L11.609 13.0375M11.609 13.0375C12.1384 12.508 12.813 12.1475 13.5473 12.0014M11.609 13.0375L13.5473 12.0014M13.5473 12.0014C14.2817 11.8553 15.0428 11.9303 15.7346 12.2168M13.5473 12.0014L15.7346 12.2168M15.7346 12.2168C16.4263 12.5034 17.0175 12.9886 17.4335 13.6111M15.7346 12.2168L17.4335 13.6111M17.4335 13.6111C17.8494 14.2335 18.0714 14.9652 18.0715 15.7138L17.4335 13.6111ZM14.2865 12.3572H14.2859C13.6219 12.3572 12.9728 12.5541 12.4207 12.923C11.8687 13.2919 11.4384 13.8162 11.1843 14.4296C10.9302 15.0431 10.8637 15.7181 10.9933 16.3693C11.1228 17.0205 11.4425 17.6187 11.912 18.0882C12.3815 18.5577 12.9797 18.8774 13.6309 19.0069C14.2821 19.1365 14.9571 19.07 15.5706 18.8159C16.184 18.5618 16.7083 18.1315 17.0772 17.5794C17.4461 17.0274 17.643 16.3783 17.643 15.7143V15.7137C17.6419 14.8239 17.2879 13.9708 16.6586 13.3415C16.0294 12.7123 15.1763 12.3583 14.2865 12.3572ZM3.35742 14.7858H8.07164V15.2143H3.35742V14.7858ZM3.35742 10.5001H9.50019V10.9287H3.35742V10.5001Z" fill="#7465F1" stroke="#7465F1"/>
<path d="M0.928554 18.5714V19.0714H1.42855H8.07133V19.5L1.43005 19.5C1.42986 19.5 1.42966 19.5 1.42947 19.5C1.18324 19.4991 0.947338 19.4009 0.773217 19.2268C0.599115 19.0527 0.500911 18.8168 0.5 18.5706V1.42962C0.500911 1.18343 0.599115 0.94756 0.773216 0.773459C0.947316 0.59936 1.18318 0.501156 1.42937 0.500243H8.57133V0.50043L8.585 0.500056C8.60658 0.499465 8.62804 0.503564 8.64788 0.51207L8.84429 0.0538041L8.64789 0.51207C8.66773 0.520576 8.6855 0.533286 8.69995 0.549322L8.70862 0.558931L8.71777 0.568079L13.7177 5.56802L13.7268 5.57708L13.7363 5.58566C13.7524 5.60018 13.7651 5.61801 13.7736 5.63793C13.7822 5.65784 13.7863 5.67937 13.7857 5.70104L13.7855 5.70103V5.71446V8.78584H13.357V7.14301V6.64301H12.857H8.57211C8.32593 6.64209 8.09008 6.54389 7.91599 6.3698C7.74189 6.1957 7.64369 5.95986 7.64277 5.71367V1.4288V0.928797H7.14277H1.42855H0.928554V1.4288V18.5714ZM8.92488 1.36095L8.07133 0.507401V1.71451V5.71446V6.21446H8.57133H12.5713H13.7784L12.9248 5.36091L8.92488 1.36095Z" fill="#7465F1" stroke="#7465F1"/>
</svg>
