<svg width="24" height="24" viewBox="0 0 24 24" fill="none" xmlns="http://www.w3.org/2000/svg">
<circle opacity="0.5" cx="12" cy="12" r="12" fill="#F9A8D1"/>
<path d="M21.167 11.3333C20.8337 10.3333 19.8337 9.66667 18.8337 9.66667C17.417 9.66667 16.3337 10.75 16.3337 12.1667C16.3337 13.25 17.0003 14.1667 18.0003 14.5V15.9167C18.0003 18 16.3337 19.6667 14.2503 19.6667C12.167 19.6667 10.5003 18 10.5003 15.9167V15.4167C12.917 15 14.667 12.9167 14.667 10.5V5.50001C14.667 5.00001 14.3337 4.66667 13.8337 4.66667H12.167C11.667 4.66667 11.3337 5.00001 11.3337 5.50001C11.3337 6.00001 11.667 6.33334 12.167 6.33334H13.0003V10.5C13.0003 12.3333 11.5003 13.8333 9.66699 13.8333C7.83366 13.8333 6.33366 12.3333 6.33366 10.5V6.33334H7.16699C7.66699 6.33334 8.00033 6.00001 8.00033 5.50001C8.00033 5.00001 7.66699 4.66667 7.16699 4.66667H5.50033C5.00033 4.66667 4.66699 5.00001 4.66699 5.50001V10.5C4.66699 12.9167 6.41699 15 8.83366 15.4167V15.9167C8.83366 18.9167 11.2503 21.3333 14.2503 21.3333C17.2503 21.3333 19.667 18.9167 19.667 15.9167V14.5C21.0003 14.0833 21.667 12.6667 21.167 11.3333Z" fill="#EF5DA8"/>
</svg>
