<svg width="13" height="10" viewBox="0 0 13 10" fill="none" xmlns="http://www.w3.org/2000/svg">
<path fill-rule="evenodd" clip-rule="evenodd" d="M4.45947 1.37649L3.8421 0.800707C4.56746 0.325296 5.40613 0.051207 6.27225 0.00650533C7.13838 -0.0381963 8.00082 0.148096 8.77126 0.546306C9.54171 0.944517 10.1925 1.54034 10.6569 2.27276C11.1214 3.00518 11.3829 3.84788 11.4146 4.71457L12.3883 3.75221L13 4.37204L11.2955 6.06024L10.6757 6.05209L8.97114 4.33126L9.59097 3.71144L10.599 4.73088C10.571 4.02681 10.3611 3.342 9.98963 2.74322C9.61819 2.14444 9.09793 1.65213 8.47958 1.31428C7.86122 0.976436 7.16587 0.804587 6.46133 0.81549C5.75678 0.826392 5.06708 1.01967 4.45947 1.37649ZM8.17026 8.62599L8.80966 9.22135C8.08017 9.60659 7.26513 9.80115 6.44028 9.78694C5.61544 9.77273 4.80758 9.55022 4.09179 9.14008C3.376 8.72994 2.77553 8.1455 2.34617 7.44107C1.91682 6.73664 1.67253 5.93509 1.63601 5.11093L0.636136 6.11733L0 5.48935L1.70452 3.80115L2.32434 3.8093L4.02886 5.53829L3.40903 6.15811L2.45728 5.19575C2.5054 5.84703 2.70923 6.47723 3.05164 7.03332C3.39404 7.58941 3.86499 8.05513 4.42488 8.3913C4.98476 8.72747 5.61719 8.92426 6.26897 8.9651C6.92074 9.00594 7.5728 8.88964 8.17026 8.62599Z" fill="url(#paint0_linear_2963_161809)"/>
<path d="M0.916016 0.774723L1.47223 0.177734L11.1896 9.2394L10.6334 9.83639L0.916016 0.774723Z" fill="url(#paint1_linear_2963_161809)"/>
<defs>
<linearGradient id="paint0_linear_2963_161809" x1="0" y1="0" x2="12.8695" y2="0.162007" gradientUnits="userSpaceOnUse">
<stop stop-color="#817EA6"/>
<stop offset="1" stop-color="#2E2952"/>
</linearGradient>
<linearGradient id="paint1_linear_2963_161809" x1="0.916016" y1="0.177734" x2="11.0871" y2="0.280271" gradientUnits="userSpaceOnUse">
<stop stop-color="#817EA6"/>
<stop offset="1" stop-color="#2E2952"/>
</linearGradient>
</defs>
</svg>
