<svg width="20" height="20" viewBox="0 0 20 20" fill="none" xmlns="http://www.w3.org/2000/svg">
<circle cx="10" cy="10" r="10" fill="#EA982E"/>
<path d="M9.85715 13.4286V10M11.1429 13.4286V12.7857C11.1429 12.0089 11.9877 11.2742 12.5357 10.75C13.3082 10.0115 13.7143 9.01938 13.7143 7.85715C13.7143 5.7143 12.0072 4.00001 9.85715 4.00001C9.35023 3.9986 8.84803 4.0974 8.37942 4.29074C7.91081 4.48408 7.48504 4.76814 7.12659 5.12659C6.76814 5.48504 6.48408 5.91081 6.29074 6.37942C6.0974 6.84803 5.9986 7.35023 6.00001 7.85715C6.00001 8.97787 6.4235 10.0372 7.17859 10.75C7.72367 11.2646 8.57144 12.0009 8.57144 12.7857V13.4286H11.1429ZM9.00001 16H10.7143H9.00001ZM8.57144 14.7143H11.1429H8.57144Z" stroke="white" stroke-width="0.7" stroke-linecap="round" stroke-linejoin="round"/>
<path d="M10.8746 9.57144C10.8746 9.57144 10.2984 10 9.85672 10C9.41503 10 8.83887 9.57144 8.83887 9.57144" stroke="white" stroke-width="0.7" stroke-linecap="round" stroke-linejoin="round"/>
</svg>
