<svg width="13" height="12" viewBox="0 0 13 12" fill="none" xmlns="http://www.w3.org/2000/svg">
<path fill-rule="evenodd" clip-rule="evenodd" d="M0.866667 0.866667H12.1333V10.4H0.866667V0.866667ZM0 0.866667C0 0.636812 0.0913093 0.416372 0.253841 0.253841C0.416372 0.0913092 0.636812 0 0.866667 0H12.1333C12.3632 0 12.5836 0.0913092 12.7462 0.253841C12.9087 0.416372 13 0.636812 13 0.866667V10.4C13 10.6299 12.9087 10.8503 12.7462 11.0128C12.5836 11.1754 12.3632 11.2667 12.1333 11.2667H0.866667C0.636812 11.2667 0.416372 11.1754 0.253841 11.0128C0.0913093 10.8503 0 10.6299 0 10.4V0.866667ZM4.225 5.63333C4.225 5.33458 4.28384 5.03874 4.39817 4.76273C4.5125 4.48671 4.68008 4.23592 4.89133 4.02467C5.10259 3.81341 5.35338 3.64584 5.6294 3.53151C5.90541 3.41718 6.20124 3.35833 6.5 3.35833C6.79876 3.35833 7.09459 3.41718 7.3706 3.53151C7.64662 3.64584 7.89741 3.81341 8.10867 4.02467C8.31992 4.23592 8.4875 4.48671 8.60183 4.76273C8.71616 5.03874 8.775 5.33458 8.775 5.63333C8.775 6.2367 8.53531 6.81536 8.10867 7.242C7.68202 7.66865 7.10337 7.90833 6.5 7.90833C5.89663 7.90833 5.31798 7.66865 4.89133 7.242C4.46469 6.81536 4.225 6.2367 4.225 5.63333ZM6.5 2.49167C5.66678 2.49167 4.86768 2.82266 4.27851 3.41184C3.68933 4.00102 3.35833 4.80011 3.35833 5.63333C3.35833 6.46656 3.68933 7.26565 4.27851 7.85483C4.86768 8.444 5.66678 8.775 6.5 8.775C7.33322 8.775 8.13232 8.444 8.72149 7.85483C9.31067 7.26565 9.64167 6.46656 9.64167 5.63333C9.64167 4.80011 9.31067 4.00102 8.72149 3.41184C8.13232 2.82266 7.33322 2.49167 6.5 2.49167Z" fill="white"/>
</svg>
