<svg width="24" height="24" viewBox="0 0 24 24" fill="none" xmlns="http://www.w3.org/2000/svg">
<circle opacity="0.5" cx="12" cy="12" r="12" fill="#F4BF6E"/>
<path d="M18.8168 10.4917C18.2174 10.3832 17.6092 10.3302 17.0001 10.3333C16.6501 10.3333 16.3084 10.3333 15.9668 10.4C15.5414 9.8324 14.9985 9.36338 14.3751 9.02501C14.9106 8.44022 15.2078 7.67624 15.2084 6.88334C15.2084 6.03023 14.8695 5.21205 14.2663 4.60881C13.6631 4.00557 12.8449 3.66667 11.9918 3.66667C11.1387 3.66667 10.3205 4.00557 9.71725 4.60881C9.11401 5.21205 8.77511 6.03023 8.77511 6.88334C8.77572 7.67624 9.07299 8.44022 9.60844 9.02501C8.98877 9.36514 8.44671 9.83057 8.01678 10.3917C7.69178 10.3333 7.35011 10.3333 7.00011 10.3333C6.39046 10.3357 5.78233 10.3943 5.18344 10.5083C4.98931 10.5438 4.81408 10.6471 4.68894 10.7997C4.56381 10.9523 4.49689 11.1443 4.50011 11.3417V18.2167C4.49991 18.3391 4.52669 18.4601 4.57854 18.571C4.63039 18.6819 4.70604 18.78 4.80011 18.8583C4.89359 18.9372 5.00326 18.9944 5.12136 19.0261C5.23945 19.0578 5.36307 19.0631 5.48344 19.0417C5.98212 18.9331 6.48992 18.8717 7.00011 18.8583C8.61436 18.8566 10.1936 19.3289 11.5418 20.2167L11.6501 20.2583C11.7606 20.3063 11.8796 20.3318 12.0001 20.3333C12.0796 20.3323 12.1585 20.3183 12.2334 20.2917H12.2918L12.4001 20.25C13.7611 19.3394 15.3626 18.8549 17.0001 18.8583C17.5092 18.8607 18.017 18.9109 18.5168 19.0083C18.6372 19.0298 18.7608 19.0245 18.8789 18.9928C18.997 18.9611 19.1066 18.9038 19.2001 18.825C19.2942 18.7467 19.3698 18.6485 19.4217 18.5376C19.4735 18.4267 19.5003 18.3058 19.5001 18.1833V11.3083C19.4994 11.1139 19.4307 10.9258 19.3059 10.7766C19.1811 10.6275 19.0081 10.5267 18.8168 10.4917ZM12.0001 5.33334C12.3905 5.36202 12.7556 5.53733 13.022 5.82407C13.2884 6.11082 13.4365 6.48775 13.4365 6.87917C13.4365 7.2706 13.2884 7.64753 13.022 7.93427C12.7556 8.22101 12.3905 8.39632 12.0001 8.42501C11.6097 8.39632 11.2447 8.22101 10.9782 7.93427C10.7118 7.64753 10.5637 7.2706 10.5637 6.87917C10.5637 6.48775 10.7118 6.11082 10.9782 5.82407C11.2447 5.53733 11.6097 5.36202 12.0001 5.33334ZM11.1668 18.1083C9.86067 17.5046 8.439 17.1918 7.00011 17.1917C6.72511 17.1917 6.45011 17.1917 6.16678 17.2333V12C6.86558 11.9218 7.57163 11.9358 8.26678 12.0417H8.35844C9.35144 12.2242 10.303 12.5856 11.1668 13.1083V18.1083ZM12.0001 11.6667C11.6295 11.4529 11.2454 11.2636 10.8501 11.1H10.8001C10.5251 10.9917 10.2501 10.8833 9.96678 10.8C10.5454 10.3395 11.2607 10.0844 12.0001 10.075C12.7376 10.0797 13.4527 10.3288 14.0334 10.7833C13.326 11.0042 12.6443 11.3003 12.0001 11.6667ZM17.8334 17.2333C16.1223 17.0614 14.3963 17.3491 12.8334 18.0667V13.0667C13.6988 12.5573 14.6509 12.2126 15.6418 12.05H15.8084C16.4784 11.9457 17.1591 11.9289 17.8334 12V17.2333Z" fill="#D68E22"/>
</svg>
