<svg width="13" height="13" viewBox="0 0 13 13" fill="none" xmlns="http://www.w3.org/2000/svg">
<path d="M6.5 0.928571C9.56429 0.928571 12.0714 3.43571 12.0714 6.5C12.0714 9.56429 9.56429 12.0714 6.5 12.0714C3.43571 12.0714 0.928571 9.56429 0.928571 6.5C0.928571 3.43571 3.43571 0.928571 6.5 0.928571ZM6.5 0C2.925 0 0 2.925 0 6.5C0 10.075 2.925 13 6.5 13C10.075 13 13 10.075 13 6.5C13 2.925 10.075 0 6.5 0Z" fill="white"/>
<path d="M10.2147 6.03572H6.9647V2.78572H6.03613V6.03572H2.78613V6.96429H6.03613V10.2143H6.9647V6.96429H10.2147V6.03572Z" fill="white"/>
</svg>
