<svg width="27" height="20" viewBox="0 0 27 20" fill="none" xmlns="http://www.w3.org/2000/svg">
<path d="M25 0H1.66667C1.22464 0 0.800716 0.175595 0.488155 0.488155C0.175595 0.800716 0 1.22464 0 1.66667V18.3333C0 18.7754 0.175595 19.1993 0.488155 19.5118C0.800716 19.8244 1.22464 20 1.66667 20H25C25.442 20 25.866 19.8244 26.1785 19.5118C26.4911 19.1993 26.6667 18.7754 26.6667 18.3333V1.66667C26.6667 1.22464 26.4911 0.800716 26.1785 0.488155C25.866 0.175595 25.442 0 25 0ZM23.7167 18.3333H3.05L8.88333 12.3L7.68333 11.1417L1.66667 17.3667V2.93333L12.025 13.2417C12.3373 13.5521 12.7597 13.7263 13.2 13.7263C13.6403 13.7263 14.0627 13.5521 14.375 13.2417L25 2.675V17.2583L18.8667 11.125L17.6917 12.3L23.7167 18.3333ZM2.75833 1.66667H23.65L13.2 12.0583L2.75833 1.66667Z" fill="#7465F1"/>
</svg>
