<svg width="18" height="28" viewBox="0 0 18 28" fill="none" xmlns="http://www.w3.org/2000/svg">
<path d="M8.97974 0C7.16107 0.00409512 5.3863 0.559079 3.8893 1.59183C2.3923 2.62457 1.24329 4.08662 0.593693 5.78533C-0.0559076 7.48403 -0.175628 9.33969 0.250308 11.1078C0.676244 12.8759 1.62785 14.4735 2.97974 15.69V28L8.97974 24L14.9797 28V15.69C16.3316 14.4735 17.2832 12.8759 17.7092 11.1078C18.1351 9.33969 18.0154 7.48403 17.3658 5.78533C16.7162 4.08662 15.5672 2.62457 14.0702 1.59183C12.5732 0.559079 10.7984 0.00409512 8.97974 0ZM12.9797 24.26L10.0897 22.34L8.97974 21.6L7.86974 22.34L4.97974 24.26V17.05C6.22023 17.6759 7.59029 18.0019 8.97974 18.0019C10.3692 18.0019 11.7392 17.6759 12.9797 17.05V24.26ZM13.8697 14C12.7132 15.1291 11.2017 15.8232 9.59158 15.9644C7.98151 16.1057 6.37216 15.6854 5.03671 14.775C3.70126 13.8646 2.72201 12.5201 2.26518 10.9697C1.80834 9.41939 1.90208 7.75872 2.53048 6.26962C3.15888 4.78053 4.28322 3.55477 5.71264 2.80041C7.14206 2.04606 8.78848 1.80959 10.3724 2.13115C11.9564 2.45271 13.3802 3.31249 14.4023 4.56454C15.4244 5.81658 15.9818 7.38374 15.9797 9C15.9786 9.93191 15.7913 10.8542 15.429 11.7128C15.0667 12.5714 14.5366 13.349 13.8697 14Z" fill="#69CA94"/>
<circle cx="9" cy="9" r="6" fill="#69CA94"/>
<path fill-rule="evenodd" clip-rule="evenodd" d="M13 7.5L7.88997 12L5 9.37392L5.3924 9.01735L7.88997 11.2869L12.6076 7L13 7.5Z" fill="white"/>
<path d="M13 7.5L13.1652 7.68762C13.2647 7.6 13.2785 7.44995 13.1967 7.34566L13 7.5ZM7.88997 12L7.72184 12.185L7.88735 12.3354L8.05519 12.1876L7.88997 12ZM5 9.37392L4.83187 9.18889C4.77973 9.23628 4.75 9.30346 4.75 9.37392C4.75 9.44437 4.77973 9.51156 4.83187 9.55894L5 9.37392ZM5.3924 9.01735L5.56052 8.83233C5.46518 8.74569 5.31961 8.74569 5.22427 8.83233L5.3924 9.01735ZM7.88997 11.2869L7.72184 11.4719L7.88997 11.6247L8.0581 11.4719L7.88997 11.2869ZM12.6076 7L12.8043 6.84566C12.7614 6.79103 12.6977 6.7567 12.6286 6.75088C12.5594 6.74506 12.4909 6.76828 12.4395 6.81498L12.6076 7ZM12.8348 7.31238L7.72475 11.8124L8.05519 12.1876L13.1652 7.68762L12.8348 7.31238ZM8.0581 11.815L5.16813 9.18889L4.83187 9.55894L7.72184 12.185L8.0581 11.815ZM5.16813 9.55894L5.56052 9.20237L5.22427 8.83233L4.83187 9.18889L5.16813 9.55894ZM5.22427 9.20237L7.72184 11.4719L8.0581 11.1018L5.56052 8.83233L5.22427 9.20237ZM8.0581 11.4719L12.7757 7.18502L12.4395 6.81498L7.72184 11.1018L8.0581 11.4719ZM12.4109 7.15434L12.8033 7.65434L13.1967 7.34566L12.8043 6.84566L12.4109 7.15434Z" fill="white"/>
</svg>
