<svg width="16" height="21" viewBox="0 0 16 21" fill="none" xmlns="http://www.w3.org/2000/svg">
<path d="M10.7348 19.7519L6.18555 20.9791C5.86144 21.0665 5.52525 20.8711 5.43839 20.5448C5.35158 20.2185 5.54567 19.88 5.86974 19.7926L10.419 18.5653C10.7431 18.4779 11.0793 18.6733 11.1662 18.9996C11.2531 19.3259 11.0589 19.6644 10.7348 19.7519ZM8.62848 5.67614C8.58773 6.23449 8.27404 6.54919 7.78702 6.54122C7.30212 6.53335 6.94923 6.19876 6.96087 5.68926C6.97216 5.19353 7.28088 4.86788 7.80604 4.87367C8.33087 4.87935 8.59101 5.19158 8.62848 5.67614ZM14.4607 3.7944C12.651 0.784991 9.06649 -0.677181 5.73643 0.30238C2.82218 1.15969 0.92204 3.09703 0.231124 6.07655C-0.452742 9.02559 0.39847 11.5621 2.55277 13.6864C3.05799 14.1846 3.52251 14.788 3.80733 15.432C4.09287 16.0774 4.18441 16.2793 4.87991 16.1098C5.84584 15.8745 6.79883 15.5855 7.76457 15.3493C8.25965 15.2282 8.44776 14.9499 8.44448 14.4474C8.43125 12.4193 8.43569 10.3911 8.44303 8.36302C8.44462 7.90393 8.30132 7.52593 7.81073 7.51446C7.3141 7.50284 7.16206 7.86821 7.16621 8.33623C7.1777 9.65111 7.16969 10.9661 7.16959 12.281C7.16954 14.3963 7.16959 14.3963 5.10375 14.7002C4.31839 13.7942 3.60324 12.9798 2.89953 12.1554C0.373894 9.19665 0.83576 4.82282 3.98795 2.5575C6.25257 0.929949 8.68531 0.839387 11.1108 2.21357C13.3628 3.48961 14.588 6.1185 14.2633 8.66159C14.0464 10.3604 13.2406 11.7165 12.0455 12.8823C11.3243 13.5858 10.6671 14.3433 10.4305 15.3606C10.3198 15.8364 10.0549 16.0724 9.59706 16.186C9.68262 16.1059 4.66255 17.5221 4.66255 17.5221C4.34495 17.6078 4.15476 17.9395 4.23988 18.2592L4.25297 18.3086C4.33809 18.6284 4.66752 18.8199 4.98512 18.7342C4.98512 18.7342 10.7452 17.1759 10.8207 17.1543C11.3541 17.0061 11.6444 16.6237 11.6566 16.078C11.6747 15.2634 12.0263 14.6293 12.5985 14.088C12.9048 13.7982 13.2097 13.5058 13.498 13.1981C15.8771 10.6576 16.2697 6.80275 14.4607 3.79436V3.7944Z" fill="#E9E9F4"/>
</svg>
