<svg width="55" height="55" viewBox="0 0 55 55" fill="none" xmlns="http://www.w3.org/2000/svg">
<circle cx="27.5" cy="27.5" r="27.5" fill="#7465F1"/>
<path d="M39 18H15.6667C15.2246 18 14.8007 18.1756 14.4882 18.4882C14.1756 18.8007 14 19.2246 14 19.6667V36.3333C14 36.7754 14.1756 37.1993 14.4882 37.5118C14.8007 37.8244 15.2246 38 15.6667 38H39C39.442 38 39.866 37.8244 40.1785 37.5118C40.4911 37.1993 40.6667 36.7754 40.6667 36.3333V19.6667C40.6667 19.2246 40.4911 18.8007 40.1785 18.4882C39.866 18.1756 39.442 18 39 18ZM37.7167 36.3333H17.05L22.8833 30.3L21.6833 29.1417L15.6667 35.3667V20.9333L26.025 31.2417C26.3373 31.5521 26.7597 31.7263 27.2 31.7263C27.6403 31.7263 28.0627 31.5521 28.375 31.2417L39 20.675V35.2583L32.8667 29.125L31.6917 30.3L37.7167 36.3333ZM16.7583 19.6667H37.65L27.2 30.0583L16.7583 19.6667Z" fill="white"/>
</svg>
