<svg width="16" height="16" viewBox="0 0 16 16" fill="none" xmlns="http://www.w3.org/2000/svg">
<path d="M8.0003 10.6667C7.86845 10.6667 7.73956 10.7058 7.62992 10.779C7.52029 10.8523 7.43484 10.9564 7.38438 11.0782C7.33393 11.2 7.32072 11.3341 7.34645 11.4634C7.37217 11.5927 7.43566 11.7115 7.5289 11.8047C7.62213 11.898 7.74092 11.9615 7.87024 11.9872C7.99956 12.0129 8.13361 11.9997 8.25543 11.9493C8.37724 11.8988 8.48136 11.8133 8.55462 11.7037C8.62787 11.5941 8.66697 11.4652 8.66697 11.3333C8.66697 11.1565 8.59673 10.987 8.47171 10.8619C8.34668 10.7369 8.17712 10.6667 8.0003 10.6667ZM15.1136 11.6467L9.74697 2.31334C9.57351 2.00235 9.32016 1.74331 9.0131 1.56298C8.70604 1.38266 8.3564 1.28758 8.0003 1.28758C7.64421 1.28758 7.29457 1.38266 6.98751 1.56298C6.68045 1.74331 6.4271 2.00235 6.25364 2.31334L0.920304 11.6467C0.740834 11.9493 0.644399 12.294 0.640734 12.6459C0.637068 12.9977 0.726303 13.3444 0.899428 13.6507C1.07255 13.9571 1.32344 14.2123 1.62676 14.3907C1.93008 14.5691 2.27509 14.6643 2.62697 14.6667H13.3736C13.7283 14.6702 14.0776 14.5793 14.3856 14.4033C14.6936 14.2273 14.9492 13.9726 15.1263 13.6652C15.3034 13.3579 15.3955 13.0089 15.3933 12.6542C15.3911 12.2995 15.2946 11.9518 15.1136 11.6467V11.6467ZM13.9603 12.98C13.9019 13.084 13.8166 13.1704 13.7134 13.2302C13.6102 13.29 13.4929 13.321 13.3736 13.32H2.62697C2.50771 13.321 2.39037 13.29 2.28718 13.2302C2.184 13.1704 2.09874 13.084 2.0403 12.98C1.98179 12.8787 1.95099 12.7637 1.95099 12.6467C1.95099 12.5296 1.98179 12.4147 2.0403 12.3133L7.37364 2.98C7.42958 2.8708 7.51458 2.77916 7.61927 2.71516C7.72396 2.65117 7.84427 2.61731 7.96697 2.61731C8.08967 2.61731 8.20999 2.65117 8.31467 2.71516C8.41936 2.77916 8.50436 2.8708 8.5603 2.98L13.927 12.3133C13.9931 12.4132 14.0311 12.5291 14.037 12.6488C14.0429 12.7684 14.0164 12.8875 13.9603 12.9933V12.98ZM8.0003 5.33334C7.82349 5.33334 7.65392 5.40357 7.5289 5.5286C7.40388 5.65362 7.33364 5.82319 7.33364 6V8.66667C7.33364 8.84348 7.40388 9.01305 7.5289 9.13807C7.65392 9.2631 7.82349 9.33334 8.0003 9.33334C8.17712 9.33334 8.34668 9.2631 8.47171 9.13807C8.59673 9.01305 8.66697 8.84348 8.66697 8.66667V6C8.66697 5.82319 8.59673 5.65362 8.47171 5.5286C8.34668 5.40357 8.17712 5.33334 8.0003 5.33334Z" fill="white"/>
</svg>
