<svg width="20" height="20" viewBox="0 0 20 20" fill="none" xmlns="http://www.w3.org/2000/svg">
<path d="M10.0003 5.83332C9.77931 5.83332 9.56735 5.92112 9.41107 6.0774C9.25479 6.23368 9.16699 6.44564 9.16699 6.66666V9.99999C9.16699 10.221 9.25479 10.433 9.41107 10.5892C9.56735 10.7455 9.77931 10.8333 10.0003 10.8333C10.2213 10.8333 10.4333 10.7455 10.5896 10.5892C10.7459 10.433 10.8337 10.221 10.8337 9.99999V6.66666C10.8337 6.44564 10.7459 6.23368 10.5896 6.0774C10.4333 5.92112 10.2213 5.83332 10.0003 5.83332ZM10.0003 12.5C9.83551 12.5 9.67439 12.5489 9.53735 12.6404C9.40031 12.732 9.2935 12.8621 9.23043 13.0144C9.16735 13.1667 9.15085 13.3342 9.183 13.4959C9.21516 13.6576 9.29453 13.806 9.41107 13.9226C9.52761 14.0391 9.6761 14.1185 9.83775 14.1506C9.9994 14.1828 10.167 14.1663 10.3192 14.1032C10.4715 14.0402 10.6016 13.9333 10.6932 13.7963C10.7848 13.6593 10.8337 13.4981 10.8337 13.3333C10.8337 13.1123 10.7459 12.9003 10.5896 12.7441C10.4333 12.5878 10.2213 12.5 10.0003 12.5ZM18.092 6.29999L13.7003 1.90832C13.5406 1.75605 13.3293 1.66973 13.1087 1.66666H6.89199C6.67135 1.66973 6.46002 1.75605 6.30033 1.90832L1.90866 6.29999C1.75638 6.45968 1.67006 6.67102 1.66699 6.89166V13.1083C1.67006 13.329 1.75638 13.5403 1.90866 13.7L6.30033 18.0917C6.46002 18.2439 6.67135 18.3303 6.89199 18.3333H13.1087C13.3293 18.3303 13.5406 18.2439 13.7003 18.0917L18.092 13.7C18.2443 13.5403 18.3306 13.329 18.3337 13.1083V6.89166C18.3306 6.67102 18.2443 6.45968 18.092 6.29999ZM16.667 12.7583L12.7587 16.6667H7.24199L3.33366 12.7583V7.24166L7.24199 3.33332H12.7587L16.667 7.24166V12.7583Z" fill="#CF5250"/>
</svg>
