<svg width="24" height="24" viewBox="0 0 24 24" fill="none" xmlns="http://www.w3.org/2000/svg">
<mask id="mask0_2963_16782" style="mask-type:alpha" maskUnits="userSpaceOnUse" x="0" y="0" width="24" height="24">
<circle cx="12" cy="12" r="12" fill="#C4C4C4"/>
</mask>
<g mask="url(#mask0_2963_16782)">
<path d="M20.5375 10.3143C20.7176 10.5831 20.7055 10.9348 20.7419 11.2501C20.7297 11.9181 20.7885 12.7135 20.6691 13.3926C20.6083 13.6744 20.4184 13.9666 20.1189 14.0728C19.6396 14.283 18.9925 14.2243 18.5496 13.9788C18.1773 13.721 18.1309 13.2886 18.0824 12.8782C18.046 12.0698 17.9853 11.2158 18.2139 10.477C18.3938 10.0212 18.8853 9.90398 19.3283 9.86865C19.7954 9.86858 20.2503 9.93931 20.5375 10.3143Z" fill="#0057AD"/>
<path d="M14.0071 20.5579L13.9241 20.6286C12.6764 20.8974 11.2833 20.9086 10.035 20.6043L10.1291 20.4993C11.2258 19.7848 12.9353 19.7848 14.0071 20.5579ZM9.78728 20.2891L9.55112 20.476C8.56012 20.2183 7.64091 19.7736 6.79151 19.1652V19.1298C7.07512 18.9539 7.35832 18.767 7.6647 18.6387C8.33667 19.3047 9.03237 19.809 9.78728 20.2891ZM17.2612 19.1298C16.602 19.6563 15.8354 20.0081 15.0567 20.3002L14.5026 20.476C14.4096 20.4285 14.3266 20.3598 14.2437 20.2891L14.2659 20.2537C15.0223 19.8089 15.7059 19.2703 16.3531 18.6266C16.6727 18.756 16.9781 18.9308 17.2612 19.1298ZM16.0012 18.4628C15.6231 18.8954 15.1397 19.2704 14.6907 19.5866C14.4198 19.7504 14.1487 19.9263 13.8655 20.0667L13.3579 19.8444L13.3942 19.7625C13.819 19.1885 14.1972 18.6034 14.5269 17.9829L14.5612 17.9587C15.0689 18.0758 15.5524 18.2406 16.0012 18.4628ZM9.51631 17.9707C9.85763 18.6145 10.2823 19.2229 10.707 19.8313C10.5412 19.9263 10.3415 19.985 10.1756 20.0778C9.39803 19.6918 8.65475 19.1532 8.03029 18.5094V18.474C8.4899 18.2518 8.9733 18.0879 9.46825 17.9587L9.51631 17.9707ZM14.173 17.8656L14.1831 17.901C13.8555 18.5326 13.4409 19.141 12.9939 19.715C12.7938 19.7382 12.6056 19.6564 12.4033 19.6443L12.2051 19.622C12.1809 18.9307 12.1688 18.3213 12.2051 17.6311C12.8766 17.6434 13.548 17.713 14.173 17.8656ZM11.8497 19.6099C11.6029 19.6685 11.3314 19.6685 11.0953 19.7272C10.6115 19.1532 10.211 18.5327 9.86919 17.8888L9.92833 17.8413C10.5412 17.7252 11.1782 17.6311 11.8385 17.6311L11.8497 19.6099ZM9.37417 16.9177C9.25588 16.9177 9.12638 16.8934 9.04399 16.9288L9.33875 17.619L9.30388 17.6544C8.77249 17.806 8.25374 17.9941 7.74757 18.2051L7.69951 18.181C7.36933 17.8192 7.05126 17.4209 6.79144 17.0219C6.7338 16.8238 6.49771 16.94 6.36828 16.9178C6.65086 17.4321 7.02753 17.889 7.40577 18.3569C7.08674 18.545 6.76874 18.7562 6.4385 18.9077C5.73118 18.369 5.07035 17.6666 4.57588 16.9289C4.4338 16.9056 4.33972 16.9178 4.19866 16.9289C5.04656 18.2638 6.36828 19.4342 7.74757 20.1244L7.75872 20.1134L7.77136 20.1487C8.7022 20.6046 9.69217 20.933 10.7418 21.0734C14.361 21.5534 17.8154 19.9962 19.8196 16.9289C19.7144 16.9178 19.5607 16.9178 19.4415 16.9289C18.9479 17.6434 18.323 18.3346 17.6395 18.8723L17.5221 18.8611C17.2267 18.6742 16.9072 18.5206 16.6241 18.3346C17.0023 17.8769 17.3684 17.4211 17.6514 16.9178H17.2853C16.99 17.3503 16.6827 17.8061 16.2944 18.1931C15.7746 17.9829 15.3034 17.795 14.7735 17.6544L14.7149 17.6079C14.7979 17.3734 14.9495 17.151 14.998 16.9177H14.6805L14.361 17.5493C13.6653 17.3967 12.8987 17.3148 12.1908 17.2683C12.1564 17.1632 12.205 17.0106 12.1564 16.9177H11.8495C11.8262 17.0571 11.8849 17.1632 11.8151 17.2794C11.0834 17.3148 10.3761 17.3967 9.69204 17.5372L9.37417 16.9177ZM1.89921 7.92525L1.16809 7.93741C1.15647 8.5966 1.15647 9.25594 1.16809 9.91514C1.56951 9.92825 1.94672 9.91514 2.33604 9.95053V13.9323L2.32339 14.0951L1.15647 14.1193C1.13268 14.7628 1.13268 15.407 1.15647 16.0506H6.35563V14.1193C5.96632 14.0951 5.5305 14.1303 5.15329 14.0839L5.16491 9.97478L5.18871 9.93939L6.35563 9.92825C6.36834 9.26022 6.37942 8.54674 6.34455 7.93734L1.89921 7.92525ZM21.9311 8.6286C20.3981 7.64528 18.0621 7.57455 16.4847 8.46385C15.6231 8.90851 15.0569 9.78775 14.8809 10.6882C14.5614 12.1758 14.6443 13.9434 15.7747 15.0561C17.0975 16.2264 19.0188 16.4841 20.7277 16.004C20.8085 15.9879 21.0675 15.9222 21.2434 15.8271L21.294 15.8049C21.8239 15.5827 22.3316 15.2187 22.7076 14.7276C23.5814 13.4401 23.6401 11.5078 23.1081 10.0566C22.8978 9.49467 22.461 8.99139 21.9311 8.6286ZM11.9326 8.25372C10.6352 7.70295 8.82007 7.64534 7.64098 8.49925C6.87445 9.06116 6.63836 10.0677 6.8391 10.958C6.9928 11.8009 7.7942 12.4214 8.56019 12.7135C9.61039 13.0885 10.707 13.3573 11.7668 13.7211C11.874 13.7676 12.015 13.8726 11.9929 14.002C11.9929 14.1071 11.8852 14.1658 11.8022 14.2122C10.6945 14.5165 9.49211 14.283 8.69071 13.4401C8.59669 13.3229 8.53755 13.1825 8.44252 13.0652L6.85079 13.0774C6.82808 14.0253 6.81537 15.1138 6.85079 16.0506L8.61947 16.0396L8.64326 15.4766C8.844 15.5715 9.0442 15.6878 9.24494 15.794C10.471 16.3084 12.0516 16.4246 13.2651 15.794C14.1489 15.3008 14.6221 14.3529 14.4907 13.3352C14.3612 12.3398 13.4186 11.4384 12.4641 11.1917L9.61039 10.361L9.39803 10.2549C9.30401 10.173 9.24487 10.0679 9.26758 9.93959C9.49204 9.5535 10.0113 9.67076 10.4006 9.68191C11.2258 9.7991 12.0737 10.0801 12.5571 10.8411C13.0768 10.8411 13.6775 10.8522 14.2438 10.83C14.2661 9.86887 14.2316 9.02604 14.2196 8.05385C13.6897 8.04271 13.0405 8.04271 12.5106 8.06696C12.4863 8.20739 12.5327 8.4055 12.4741 8.54694L11.9326 8.25372ZM12.8867 4.27286C13.3478 4.85801 13.7948 5.45524 14.1022 6.09902C13.4652 6.25161 12.8179 6.33245 12.1566 6.33245C12.1324 5.71293 12.1444 5.02173 12.1566 4.37789C12.3932 4.34263 12.6521 4.30724 12.8867 4.27286ZM11.7799 4.36689C11.8153 4.97527 11.791 5.67767 11.791 6.32145C11.4604 6.36798 11.1666 6.3103 10.8365 6.28605C10.5174 6.23951 10.1164 6.20419 9.7989 6.09909C10.1407 5.45531 10.5412 4.83484 11.0245 4.26077L11.7799 4.36689ZM10.6352 4.14453L10.6003 4.23746C10.1518 4.79938 9.7989 5.40877 9.44446 6.00601L9.39796 6.01715C8.91463 5.88875 8.44238 5.73617 7.99487 5.53711L8.01867 5.46632C8.66691 4.8468 9.35051 4.33142 10.1053 3.93324C10.2823 4.00301 10.4582 4.06266 10.6352 4.14453ZM15.9406 5.47957L15.9184 5.51394C15.4574 5.71307 14.9861 5.90003 14.4784 6.00608C14.1143 5.38459 13.7139 4.76507 13.2649 4.16776C13.4306 4.0738 13.6309 4.00301 13.8069 3.91007C14.5734 4.29616 15.3157 4.84693 15.9406 5.47957ZM9.75091 3.71095C9.02027 4.16776 8.30132 4.70637 7.64098 5.36129C7.3229 5.24403 7.02767 5.06922 6.74501 4.86915V4.84686C7.48775 4.29609 8.31288 3.88677 9.18559 3.60483L9.29123 3.53608V3.55829C9.38525 3.58255 9.4571 3.47643 9.53902 3.54715L9.75091 3.71095ZM17.1784 4.82268L17.1561 4.86921L16.3432 5.32698H16.2824C15.6595 4.69434 14.9274 4.14459 14.1831 3.71102L14.4096 3.51189C15.3986 3.76958 16.3309 4.2143 17.1784 4.82268ZM13.9364 3.39463V3.41793C12.911 4.16776 11.2485 4.23746 10.1645 3.54729L9.97592 3.39463C11.2258 3.10162 12.6986 3.07832 13.9364 3.39463ZM12.7229 2.86812C12.4034 2.83272 12.0151 2.82165 11.6727 2.85596C11.5433 2.84488 11.3902 2.85596 11.2369 2.86812C8.40703 3.09041 5.8016 4.55378 4.175 7.04797C4.29281 7.03588 4.43394 7.08235 4.55168 7.03588C4.83488 6.63871 5.15342 6.25167 5.50678 5.87673C5.81316 5.58365 6.09684 5.30374 6.42701 5.09253C6.73393 5.29165 7.07519 5.45531 7.36947 5.64228C7.00388 6.09909 6.62721 6.5559 6.3557 7.04804C6.43863 7.08241 6.59186 7.07127 6.70967 7.04804C7.00388 6.61453 7.3229 6.18095 7.69964 5.79493C8.20724 5.98189 8.70226 6.18095 9.22101 6.32145L9.26751 6.36798L8.97323 7.04811C9.10266 7.07134 9.18559 7.05925 9.31503 7.04811C9.42168 6.84803 9.5036 6.62567 9.62141 6.42757C10.305 6.57913 11.0245 6.66107 11.7556 6.68532C11.8496 6.7661 11.7799 6.94301 11.8152 7.04811H12.1322C12.1686 6.92989 12.1222 6.80156 12.1686 6.69639C12.8522 6.661 13.5702 6.59028 14.2316 6.42757L14.2902 6.43871L14.6077 7.04811C14.7149 7.04811 14.8565 7.07134 14.9394 7.02385L14.6441 6.34577L14.6683 6.32151C15.2104 6.18102 15.718 5.97082 16.2357 5.7596C16.6019 6.14569 16.9436 6.60346 17.2511 7.04811C17.3805 7.04811 17.5101 7.05925 17.603 7.02385C17.4588 6.76217 17.2894 6.5151 17.0974 6.28612C16.9436 6.06376 16.7778 5.86572 16.5776 5.6545V5.59587L17.4029 5.11583L17.5222 5.06936C18.2402 5.61911 18.8773 6.28612 19.3828 7.02385C19.5244 7.02385 19.6437 7.07134 19.7611 7.01271C18.1814 4.62457 15.5766 3.09048 12.7572 2.86812L12.7451 2.89135L12.7229 2.86812ZM-1.14258 0H25.1488V24H-1.14258V0Z" fill="#0057AD"/>
</g>
</svg>
