<svg width="3" height="7" viewBox="0 0 3 7" fill="none" xmlns="http://www.w3.org/2000/svg">
<mask id="path-1-inside-1_3991_15318" fill="white">
<path d="M2.99899 4.00101C2.99918 4.1011 2.96433 4.19809 2.90047 4.27516L0.758716 6.84526C0.686009 6.93273 0.581529 6.98774 0.468262 6.99819C0.354995 7.00863 0.242218 6.97365 0.154742 6.90094C0.067266 6.82824 0.0122556 6.72376 0.00181257 6.61049C-0.00863049 6.49722 0.0263492 6.38445 0.0990567 6.29697L2.01806 4.00101L0.167593 1.70506C0.132012 1.66124 0.10544 1.61083 0.0894066 1.55671C0.0733727 1.50259 0.0681923 1.44584 0.0741631 1.38971C0.080134 1.33359 0.0971381 1.27919 0.124199 1.22966C0.151259 1.18013 0.187842 1.13643 0.231845 1.10108C0.275889 1.06185 0.327559 1.03215 0.383619 1.01381C0.439679 0.995484 0.49892 0.988929 0.557631 0.994559C0.616342 1.00019 0.673258 1.01788 0.724813 1.04653C0.776367 1.07518 0.82145 1.11417 0.857236 1.16105L2.92617 3.73115C2.97993 3.81043 3.00557 3.90545 2.99899 4.00101Z"/>
</mask>
<path d="M2.99899 4.00101C2.99918 4.1011 2.96433 4.19809 2.90047 4.27516L0.758716 6.84526C0.686009 6.93273 0.581529 6.98774 0.468262 6.99819C0.354995 7.00863 0.242218 6.97365 0.154742 6.90094C0.067266 6.82824 0.0122556 6.72376 0.00181257 6.61049C-0.00863049 6.49722 0.0263492 6.38445 0.0990567 6.29697L2.01806 4.00101L0.167593 1.70506C0.132012 1.66124 0.10544 1.61083 0.0894066 1.55671C0.0733727 1.50259 0.0681923 1.44584 0.0741631 1.38971C0.080134 1.33359 0.0971381 1.27919 0.124199 1.22966C0.151259 1.18013 0.187842 1.13643 0.231845 1.10108C0.275889 1.06185 0.327559 1.03215 0.383619 1.01381C0.439679 0.995484 0.49892 0.988929 0.557631 0.994559C0.616342 1.00019 0.673258 1.01788 0.724813 1.04653C0.776367 1.07518 0.82145 1.11417 0.857236 1.16105L2.92617 3.73115C2.97993 3.81043 3.00557 3.90545 2.99899 4.00101Z" fill="#5B588F"/>
<path d="M2.90047 4.27516L6.74159 7.47609L6.75046 7.46539L2.90047 4.27516ZM0.758716 6.84526L-3.08239 3.64433L-3.08648 3.64925L0.758716 6.84526ZM0.0990567 6.29697L-3.73737 3.09041L-3.74614 3.10096L0.0990567 6.29697ZM2.01806 4.00101L5.85447 7.20756L8.48637 4.05869L5.91105 0.863387L2.01806 4.00101ZM0.167593 1.70506L4.06057 -1.43257L4.05478 -1.43976L4.04896 -1.44693L0.167593 1.70506ZM0.231845 1.10108L3.36321 4.9991L3.46238 4.91943L3.55738 4.83483L0.231845 1.10108ZM0.857236 1.16105L-3.11723 4.1948L-3.07807 4.24611L-3.03759 4.29639L0.857236 1.16105ZM2.92617 3.73115L7.06434 0.92482L6.94941 0.755335L6.82099 0.595817L2.92617 3.73115ZM-2.001 4.01078C-2.00309 2.94262 -1.63108 1.90743 -0.949524 1.08493L6.75046 7.46539C7.55973 6.48876 8.00146 5.25958 7.99898 3.99124L-2.001 4.01078ZM-0.94064 1.07424L-3.08239 3.64434L4.59982 10.0462L6.74157 7.47608L-0.94064 1.07424ZM-3.08648 3.64925C-2.31155 2.71692 -1.198 2.13061 0.009216 2.0193L0.927308 11.9771C2.36106 11.8449 3.68357 11.1486 4.60391 10.0413L-3.08648 3.64925ZM0.009216 2.0193C1.21643 1.908 2.41842 2.28082 3.35075 3.05575L-3.04127 10.7461C-1.93398 11.6665 -0.506442 12.1093 0.927308 11.9771L0.009216 2.0193ZM3.35075 3.05575C4.28309 3.83068 4.86939 4.94423 4.9807 6.15144L-4.97707 7.06953C-4.84488 8.50328 -4.14855 9.8258 -3.04127 10.7461L3.35075 3.05575ZM4.9807 6.15144C5.092 7.35866 4.71918 8.56064 3.94425 9.49298L-3.74614 3.10096C-4.66648 4.20825 -5.10926 5.63579 -4.97707 7.06953L4.9807 6.15144ZM3.93547 9.50352L5.85447 7.20756L-1.81834 0.794463L-3.73735 3.09042L3.93547 9.50352ZM5.91105 0.863387L4.06057 -1.43257L-3.72539 4.84268L-1.87492 7.13864L5.91105 0.863387ZM4.04896 -1.44693C4.4287 -0.979307 4.71229 -0.441243 4.88342 0.136343L-4.70461 2.97708C-4.50141 3.6629 -4.16468 4.30179 -3.71377 4.85704L4.04896 -1.44693ZM4.88342 0.136343C5.05454 0.713919 5.10983 1.31962 5.04611 1.91864L-4.89778 0.860783C-4.97345 1.57205 -4.9078 2.29126 -4.70461 2.97708L4.88342 0.136343ZM5.04611 1.91864C4.98238 2.51764 4.80091 3.09816 4.51209 3.62683L-4.26369 -1.1675C-4.60663 -0.53977 -4.82212 0.149535 -4.89778 0.860783L5.04611 1.91864ZM4.51209 3.62683C4.22328 4.15548 3.83284 4.62184 3.36321 4.9991L-2.89952 -2.79694C-3.45716 -2.34897 -3.92076 -1.79522 -4.26369 -1.1675L4.51209 3.62683ZM3.55738 4.83483C3.08731 5.2535 2.53585 5.57058 1.93754 5.76622L-1.17031 -3.73859C-1.88073 -3.50629 -2.53553 -3.12979 -3.09369 -2.63266L3.55738 4.83483ZM1.93754 5.76622C1.3392 5.96186 0.70694 6.03181 0.080368 5.97173L1.03489 -3.98261C0.2909 -4.05395 -0.459847 -3.97089 -1.17031 -3.73859L1.93754 5.76622ZM0.080368 5.97173C-0.54621 5.91165 -1.15366 5.72281 -1.70391 5.41703L3.15354 -3.32397C2.50017 -3.68705 1.77889 -3.91127 1.03489 -3.98261L0.080368 5.97173ZM-1.70391 5.41703C-2.25416 5.11126 -2.73531 4.69515 -3.11723 4.1948L4.83171 -1.87269C4.37821 -2.46681 3.8069 -2.96089 3.15354 -3.32397L-1.70391 5.41703ZM-3.03759 4.29639L-0.968659 6.86649L6.82099 0.595817L4.75206 -1.97428L-3.03759 4.29639ZM-1.21201 6.53749C-1.78582 5.69135 -2.05946 4.67729 -1.98919 3.65735L7.98716 4.34468C8.0706 3.13361 7.74569 1.92952 7.06434 0.92482L-1.21201 6.53749Z" fill="#5B588F" mask="url(#path-1-inside-1_3991_15318)"/>
</svg>
