<svg width="24" height="24" viewBox="0 0 24 24" fill="none" xmlns="http://www.w3.org/2000/svg">
<path d="M21.9002 7.59022L20.9002 3.72022C20.7984 3.3359 20.6211 2.97566 20.3788 2.66043C20.1365 2.34521 19.8339 2.0813 19.4887 1.88404C19.1435 1.68678 18.7626 1.56011 18.368 1.51138C17.9734 1.46266 17.573 1.49286 17.1902 1.60022L15.2602 2.12022C15.1325 2.15386 15.0128 2.21246 14.9079 2.29262C14.8029 2.37279 14.7149 2.47294 14.6489 2.58729C14.5829 2.70164 14.5402 2.82794 14.5233 2.95888C14.5063 3.08983 14.5155 3.22283 14.5502 3.35022L14.8102 4.35022L4.19021 7.16022C3.93455 7.22829 3.71628 7.3949 3.58321 7.62356C3.45013 7.85223 3.4131 8.12431 3.48021 8.38022L3.74021 9.38022L2.74021 9.64022C2.47499 9.67337 2.23381 9.81052 2.06971 10.0215C1.90562 10.2325 1.83206 10.5 1.86521 10.7652C1.89836 11.0304 2.03551 11.2716 2.24649 11.4357C2.45747 11.5998 2.72499 11.6734 2.99021 11.6402C3.07656 11.6506 3.16385 11.6506 3.25021 11.6402L4.25021 11.3702L4.51021 12.3702C4.57912 12.6227 4.74427 12.8381 4.97021 12.9702C5.12164 13.0601 5.29412 13.1084 5.47021 13.1102C5.55621 13.1254 5.6442 13.1254 5.73021 13.1102L9.00021 12.0802V12.5002C9.0009 12.9442 9.10354 13.3821 9.30021 13.7802L4.30021 18.7802C4.1119 18.9672 4.00559 19.2213 4.00465 19.4867C4.00371 19.752 4.10823 20.0069 4.29521 20.1952C4.48219 20.3835 4.73631 20.4898 5.00167 20.4908C5.26704 20.4917 5.5219 20.3872 5.71021 20.2002L10.7102 15.2002L10.9902 15.3102V21.5002C10.9902 21.7654 11.0956 22.0198 11.2831 22.2073C11.4706 22.3949 11.725 22.5002 11.9902 22.5002C12.2554 22.5002 12.5098 22.3949 12.6973 22.2073C12.8849 22.0198 12.9902 21.7654 12.9902 21.5002V15.3202C13.0893 15.2863 13.1861 15.2462 13.2802 15.2002L18.2802 20.2002C18.4685 20.3872 18.7234 20.4917 18.9887 20.4908C19.2541 20.4898 19.5082 20.3835 19.6952 20.1952C19.8822 20.0069 19.9867 19.752 19.9858 19.4867C19.9848 19.2213 19.8785 18.9672 19.6902 18.7802L14.6902 13.7802C14.8843 13.3808 14.9901 12.9442 15.0002 12.5002V10.5002L16.3502 10.1402L16.6002 11.1402C16.6588 11.3584 16.7895 11.5503 16.9711 11.6846C17.1527 11.819 17.3744 11.888 17.6002 11.8802H17.8602L19.7902 11.3602C20.1803 11.2578 20.5457 11.0779 20.8647 10.831C21.1836 10.5842 21.4495 10.2756 21.6465 9.92368C21.8434 9.57175 21.9674 9.18373 22.011 8.78279C22.0546 8.38186 22.0169 7.97626 21.9002 7.59022ZM13.0002 12.5002C12.9992 12.7577 12.8989 13.0048 12.7202 13.1902C12.5348 13.3689 12.2877 13.4692 12.0302 13.4702C11.7679 13.4691 11.5165 13.365 11.3302 13.1802C11.1455 12.994 11.0413 12.7426 11.0402 12.4802V11.4802L13.0002 11.0002V12.5002ZM6.19021 10.7602L5.67021 8.83022L15.3302 6.24022L15.5902 7.24022L15.8502 8.24022L6.19021 10.7602ZM19.8702 8.86022C19.8046 8.97499 19.717 9.07562 19.6123 9.15629C19.5076 9.23697 19.3879 9.29608 19.2602 9.33022L18.2602 9.59022L17.4802 6.69022L17.0002 4.76022L16.7402 3.76022L17.7402 3.50022C17.8676 3.46549 18.0006 3.45634 18.1315 3.47328C18.2625 3.49023 18.3888 3.53294 18.5031 3.59895C18.6175 3.66496 18.7176 3.75296 18.7978 3.85787C18.878 3.96279 18.9366 4.08254 18.9702 4.21022L19.9702 8.08022C20.0071 8.21024 20.0173 8.3464 20.0001 8.48046C19.9829 8.61453 19.9387 8.74371 19.8702 8.86022Z" fill="white"/>
</svg>
