<svg width="587" height="494" viewBox="0 0 587 494" fill="none" xmlns="http://www.w3.org/2000/svg">
<path d="M174.039 446.712C77.9197 420.957 20.8785 322.158 46.6335 226.039C72.3885 129.92 171.187 72.8784 267.306 98.6335C363.425 124.388 420.467 223.187 394.712 319.306C368.957 415.425 270.158 472.467 174.039 446.712Z" fill="#9591AF"/>
<path d="M196.552 362.71C146.835 349.389 117.331 298.286 130.653 248.569C143.974 198.852 195.077 169.348 244.794 182.67C294.51 195.991 324.015 247.094 310.693 296.811C297.372 346.528 246.269 376.032 196.552 362.71Z" fill="white"/>
<path fill-rule="evenodd" clip-rule="evenodd" d="M153.627 248.276L48.2415 220.038C62.2997 175.334 92.9311 137.753 133.746 115.134C174.562 92.5143 222.409 86.6032 267.306 98.6334C312.204 110.664 350.685 139.706 374.722 179.703C398.759 219.7 406.496 267.562 396.32 313.305L248.91 273.806C248.628 275.833 248.218 277.865 247.675 279.892C240.57 306.408 213.315 322.143 186.8 315.038C160.284 307.934 144.549 280.679 151.653 254.163C152.197 252.136 152.858 250.171 153.627 248.276Z" fill="#9591AF"/>
<path d="M506.692 436.145C612.901 407.687 675.93 298.517 647.471 192.308C619.013 86.0993 509.843 23.0701 403.634 51.5287C297.425 79.9873 234.396 189.157 262.855 295.366C291.313 401.575 400.483 464.604 506.692 436.145Z" fill="#69CA94"/>
<path d="M481.814 343.326C536.75 328.606 569.351 272.139 554.631 217.203C539.911 162.267 483.444 129.666 428.508 144.386C373.573 159.106 340.971 215.573 355.691 270.509C370.411 325.445 426.879 358.046 481.814 343.326Z" fill="white"/>
<path d="M492.592 290.65C521.891 282.8 539.278 252.684 531.428 223.385C523.577 194.086 493.461 176.699 464.162 184.549C434.863 192.4 417.476 222.516 425.327 251.815C433.177 281.114 463.293 298.501 492.592 290.65Z" fill="#69CA94"/>
<path d="M645.694 185.677L261.078 288.735C249.833 238.19 258.382 185.304 284.942 141.108C311.503 96.9132 354.023 64.8219 403.634 51.5287C453.245 38.2356 506.114 44.7672 551.214 69.7613C596.314 94.7553 630.161 136.281 645.694 185.677Z" fill="#69CA94"/>
</svg>
