<svg width="210" height="25" viewBox="0 0 210 25" fill="none" xmlns="http://www.w3.org/2000/svg">
<rect width="210" height="25" rx="12.5" fill="#69CA94"/>
<path d="M16.5396 14.38H13.0396L12.3496 16H11.0096L14.1596 9H15.4396L18.5996 16H17.2396L16.5396 14.38ZM16.1096 13.36L14.7896 10.3L13.4796 13.36H16.1096ZM24.5074 10.66V16H23.3174V15.32C23.1174 15.56 22.8674 15.7467 22.5674 15.88C22.2674 16.0067 21.9441 16.07 21.5974 16.07C20.8841 16.07 20.3208 15.8733 19.9074 15.48C19.5008 15.08 19.2974 14.49 19.2974 13.71V10.66H20.5474V13.54C20.5474 14.02 20.6541 14.38 20.8674 14.62C21.0874 14.8533 21.3974 14.97 21.7974 14.97C22.2441 14.97 22.5974 14.8333 22.8574 14.56C23.1241 14.28 23.2574 13.88 23.2574 13.36V10.66H24.5074ZM29.4194 15.71C29.2727 15.83 29.0927 15.92 28.8794 15.98C28.6727 16.04 28.4527 16.07 28.2194 16.07C27.6327 16.07 27.1793 15.9167 26.8593 15.61C26.5393 15.3033 26.3794 14.8567 26.3794 14.27V11.7H25.4993V10.7H26.3794V9.48H27.6294V10.7H29.0594V11.7H27.6294V14.24C27.6294 14.5 27.6927 14.7 27.8194 14.84C27.946 14.9733 28.1294 15.04 28.3694 15.04C28.6493 15.04 28.8827 14.9667 29.0694 14.82L29.4194 15.71ZM32.7371 16.07C32.1971 16.07 31.7104 15.9533 31.2771 15.72C30.8438 15.4867 30.5038 15.1633 30.2571 14.75C30.0171 14.33 29.8971 13.8567 29.8971 13.33C29.8971 12.8033 30.0171 12.3333 30.2571 11.92C30.5038 11.5067 30.8438 11.1833 31.2771 10.95C31.7104 10.7167 32.1971 10.6 32.7371 10.6C33.2838 10.6 33.7738 10.7167 34.2071 10.95C34.6404 11.1833 34.9771 11.5067 35.2171 11.92C35.4638 12.3333 35.5871 12.8033 35.5871 13.33C35.5871 13.8567 35.4638 14.33 35.2171 14.75C34.9771 15.1633 34.6404 15.4867 34.2071 15.72C33.7738 15.9533 33.2838 16.07 32.7371 16.07ZM32.7371 15C33.1971 15 33.5771 14.8467 33.8771 14.54C34.1771 14.2333 34.3271 13.83 34.3271 13.33C34.3271 12.83 34.1771 12.4267 33.8771 12.12C33.5771 11.8133 33.1971 11.66 32.7371 11.66C32.2771 11.66 31.8971 11.8133 31.5971 12.12C31.3038 12.4267 31.1571 12.83 31.1571 13.33C31.1571 13.83 31.3038 14.2333 31.5971 14.54C31.8971 14.8467 32.2771 15 32.7371 15ZM43.5877 10.6C44.261 10.6 44.7944 10.7967 45.1877 11.19C45.581 11.5767 45.7777 12.16 45.7777 12.94V16H44.5277V13.1C44.5277 12.6333 44.4244 12.2833 44.2177 12.05C44.011 11.81 43.7144 11.69 43.3277 11.69C42.9077 11.69 42.571 11.83 42.3177 12.11C42.0644 12.3833 41.9377 12.7767 41.9377 13.29V16H40.6877V13.1C40.6877 12.6333 40.5844 12.2833 40.3777 12.05C40.171 11.81 39.8744 11.69 39.4877 11.69C39.061 11.69 38.721 11.8267 38.4677 12.1C38.221 12.3733 38.0977 12.77 38.0977 13.29V16H36.8477V10.66H38.0377V11.34C38.2377 11.1 38.4877 10.9167 38.7877 10.79C39.0877 10.6633 39.421 10.6 39.7877 10.6C40.1877 10.6 40.541 10.6767 40.8477 10.83C41.161 10.9767 41.4077 11.1967 41.5877 11.49C41.8077 11.21 42.091 10.9933 42.4377 10.84C42.7844 10.68 43.1677 10.6 43.5877 10.6ZM49.4803 10.6C50.267 10.6 50.867 10.79 51.2803 11.17C51.7003 11.5433 51.9103 12.11 51.9103 12.87V16H50.7303V15.35C50.577 15.5833 50.357 15.7633 50.0703 15.89C49.7903 16.01 49.4503 16.07 49.0503 16.07C48.6503 16.07 48.3003 16.0033 48.0003 15.87C47.7003 15.73 47.467 15.54 47.3003 15.3C47.1403 15.0533 47.0603 14.7767 47.0603 14.47C47.0603 13.99 47.237 13.6067 47.5903 13.32C47.9503 13.0267 48.5136 12.88 49.2803 12.88H50.6603V12.8C50.6603 12.4267 50.547 12.14 50.3203 11.94C50.1003 11.74 49.7703 11.64 49.3303 11.64C49.0303 11.64 48.7336 11.6867 48.4403 11.78C48.1536 11.8733 47.9103 12.0033 47.7103 12.17L47.2203 11.26C47.5003 11.0467 47.837 10.8833 48.2303 10.77C48.6236 10.6567 49.0403 10.6 49.4803 10.6ZM49.3103 15.16C49.6236 15.16 49.9003 15.09 50.1403 14.95C50.387 14.8033 50.5603 14.5967 50.6603 14.33V13.71H49.3703C48.6503 13.71 48.2903 13.9467 48.2903 14.42C48.2903 14.6467 48.3803 14.8267 48.5603 14.96C48.7403 15.0933 48.9903 15.16 49.3103 15.16ZM56.7898 15.71C56.6431 15.83 56.4631 15.92 56.2498 15.98C56.0431 16.04 55.8231 16.07 55.5898 16.07C55.0031 16.07 54.5498 15.9167 54.2298 15.61C53.9098 15.3033 53.7498 14.8567 53.7498 14.27V11.7H52.8698V10.7H53.7498V9.48H54.9998V10.7H56.4298V11.7H54.9998V14.24C54.9998 14.5 55.0631 14.7 55.1898 14.84C55.3165 14.9733 55.4998 15.04 55.7398 15.04C56.0198 15.04 56.2531 14.9667 56.4398 14.82L56.7898 15.71ZM57.8833 10.66H59.1333V16H57.8833V10.66ZM58.5133 9.78C58.2867 9.78 58.0967 9.71 57.9433 9.57C57.79 9.42333 57.7133 9.24333 57.7133 9.03C57.7133 8.81667 57.79 8.64 57.9433 8.5C58.0967 8.35333 58.2867 8.28 58.5133 8.28C58.74 8.28 58.93 8.35 59.0833 8.49C59.2367 8.62333 59.3133 8.79333 59.3133 9C59.3133 9.22 59.2367 9.40667 59.0833 9.56C58.9367 9.70667 58.7467 9.78 58.5133 9.78ZM63.2892 16.07C62.7359 16.07 62.2392 15.9533 61.7992 15.72C61.3592 15.4867 61.0159 15.1633 60.7692 14.75C60.5226 14.33 60.3992 13.8567 60.3992 13.33C60.3992 12.8033 60.5226 12.3333 60.7692 11.92C61.0159 11.5067 61.3559 11.1833 61.7892 10.95C62.2292 10.7167 62.7292 10.6 63.2892 10.6C63.8159 10.6 64.2759 10.7067 64.6692 10.92C65.0692 11.1333 65.3692 11.44 65.5692 11.84L64.6092 12.4C64.4559 12.1533 64.2626 11.97 64.0292 11.85C63.8026 11.7233 63.5526 11.66 63.2792 11.66C62.8126 11.66 62.4259 11.8133 62.1192 12.12C61.8126 12.42 61.6592 12.8233 61.6592 13.33C61.6592 13.8367 61.8092 14.2433 62.1092 14.55C62.4159 14.85 62.8059 15 63.2792 15C63.5526 15 63.8026 14.94 64.0292 14.82C64.2626 14.6933 64.4559 14.5067 64.6092 14.26L65.5692 14.82C65.3626 15.22 65.0592 15.53 64.6592 15.75C64.2659 15.9633 63.8092 16.07 63.2892 16.07ZM68.755 10.6C69.5417 10.6 70.1417 10.79 70.555 11.17C70.975 11.5433 71.185 12.11 71.185 12.87V16H70.005V15.35C69.8517 15.5833 69.6317 15.7633 69.345 15.89C69.065 16.01 68.725 16.07 68.325 16.07C67.925 16.07 67.575 16.0033 67.275 15.87C66.975 15.73 66.7417 15.54 66.575 15.3C66.415 15.0533 66.335 14.7767 66.335 14.47C66.335 13.99 66.5117 13.6067 66.865 13.32C67.225 13.0267 67.7884 12.88 68.555 12.88H69.935V12.8C69.935 12.4267 69.8217 12.14 69.595 11.94C69.375 11.74 69.045 11.64 68.605 11.64C68.305 11.64 68.0084 11.6867 67.715 11.78C67.4284 11.8733 67.185 12.0033 66.985 12.17L66.495 11.26C66.775 11.0467 67.1117 10.8833 67.505 10.77C67.8984 10.6567 68.315 10.6 68.755 10.6ZM68.585 15.16C68.8984 15.16 69.175 15.09 69.415 14.95C69.6617 14.8033 69.835 14.5967 69.935 14.33V13.71H68.645C67.925 13.71 67.565 13.9467 67.565 14.42C67.565 14.6467 67.655 14.8267 67.835 14.96C68.015 15.0933 68.265 15.16 68.585 15.16ZM72.8545 8.58H74.1045V16H72.8545V8.58ZM75.8104 8.58H77.0604V16H75.8104V8.58ZM83.7663 10.66L81.2663 16.43C81.033 17.01 80.7496 17.4167 80.4163 17.65C80.083 17.89 79.6796 18.01 79.2063 18.01C78.9396 18.01 78.6763 17.9667 78.4163 17.88C78.1563 17.7933 77.943 17.6733 77.7763 17.52L78.2763 16.6C78.3963 16.7133 78.5363 16.8033 78.6963 16.87C78.863 16.9367 79.0296 16.97 79.1963 16.97C79.4163 16.97 79.5963 16.9133 79.7363 16.8C79.883 16.6867 80.0163 16.4967 80.1363 16.23L80.2263 16.02L77.8963 10.66H79.1963L80.8763 14.61L82.5663 10.66H83.7663ZM89.8918 16.07C89.3384 16.07 88.8418 15.9533 88.4017 15.72C87.9617 15.4867 87.6184 15.1633 87.3717 14.75C87.1251 14.33 87.0017 13.8567 87.0017 13.33C87.0017 12.8033 87.1251 12.3333 87.3717 11.92C87.6184 11.5067 87.9584 11.1833 88.3917 10.95C88.8317 10.7167 89.3318 10.6 89.8918 10.6C90.4184 10.6 90.8784 10.7067 91.2718 10.92C91.6718 11.1333 91.9718 11.44 92.1717 11.84L91.2118 12.4C91.0584 12.1533 90.8651 11.97 90.6318 11.85C90.4051 11.7233 90.1551 11.66 89.8817 11.66C89.4151 11.66 89.0284 11.8133 88.7217 12.12C88.4151 12.42 88.2617 12.8233 88.2617 13.33C88.2617 13.8367 88.4117 14.2433 88.7117 14.55C89.0184 14.85 89.4084 15 89.8817 15C90.1551 15 90.4051 14.94 90.6318 14.82C90.8651 14.6933 91.0584 14.5067 91.2118 14.26L92.1717 14.82C91.9651 15.22 91.6618 15.53 91.2618 15.75C90.8684 15.9633 90.4118 16.07 89.8918 16.07ZM93.2687 8.58H94.5187V16H93.2687V8.58ZM98.2646 10.6C99.0513 10.6 99.6513 10.79 100.065 11.17C100.485 11.5433 100.695 12.11 100.695 12.87V16H99.5146V15.35C99.3613 15.5833 99.1413 15.7633 98.8546 15.89C98.5746 16.01 98.2346 16.07 97.8346 16.07C97.4346 16.07 97.0846 16.0033 96.7846 15.87C96.4846 15.73 96.2513 15.54 96.0846 15.3C95.9246 15.0533 95.8446 14.7767 95.8446 14.47C95.8446 13.99 96.0213 13.6067 96.3746 13.32C96.7346 13.0267 97.298 12.88 98.0646 12.88H99.4446V12.8C99.4446 12.4267 99.3313 12.14 99.1046 11.94C98.8846 11.74 98.5546 11.64 98.1146 11.64C97.8146 11.64 97.518 11.6867 97.2246 11.78C96.938 11.8733 96.6946 12.0033 96.4946 12.17L96.0046 11.26C96.2846 11.0467 96.6213 10.8833 97.0146 10.77C97.408 10.6567 97.8246 10.6 98.2646 10.6ZM98.0946 15.16C98.408 15.16 98.6846 15.09 98.9246 14.95C99.1713 14.8033 99.3446 14.5967 99.4446 14.33V13.71H98.1546C97.4346 13.71 97.0746 13.9467 97.0746 14.42C97.0746 14.6467 97.1646 14.8267 97.3446 14.96C97.5246 15.0933 97.7746 15.16 98.0946 15.16ZM104.014 16.07C103.581 16.07 103.157 16.0133 102.744 15.9C102.331 15.7867 102.001 15.6433 101.754 15.47L102.234 14.52C102.474 14.68 102.761 14.81 103.094 14.91C103.434 15.0033 103.767 15.05 104.094 15.05C104.841 15.05 105.214 14.8533 105.214 14.46C105.214 14.2733 105.117 14.1433 104.924 14.07C104.737 13.9967 104.434 13.9267 104.014 13.86C103.574 13.7933 103.214 13.7167 102.934 13.63C102.661 13.5433 102.421 13.3933 102.214 13.18C102.014 12.96 101.914 12.6567 101.914 12.27C101.914 11.7633 102.124 11.36 102.544 11.06C102.971 10.7533 103.544 10.6 104.264 10.6C104.631 10.6 104.997 10.6433 105.364 10.73C105.731 10.81 106.031 10.92 106.264 11.06L105.784 12.01C105.331 11.7433 104.821 11.61 104.254 11.61C103.887 11.61 103.607 11.6667 103.414 11.78C103.227 11.8867 103.134 12.03 103.134 12.21C103.134 12.41 103.234 12.5533 103.434 12.64C103.641 12.72 103.957 12.7967 104.384 12.87C104.811 12.9367 105.161 13.0133 105.434 13.1C105.707 13.1867 105.941 13.3333 106.134 13.54C106.334 13.7467 106.434 14.04 106.434 14.42C106.434 14.92 106.217 15.32 105.784 15.62C105.351 15.92 104.761 16.07 104.014 16.07ZM109.226 16.07C108.793 16.07 108.369 16.0133 107.956 15.9C107.543 15.7867 107.213 15.6433 106.966 15.47L107.446 14.52C107.686 14.68 107.973 14.81 108.306 14.91C108.646 15.0033 108.979 15.05 109.306 15.05C110.053 15.05 110.426 14.8533 110.426 14.46C110.426 14.2733 110.329 14.1433 110.136 14.07C109.949 13.9967 109.646 13.9267 109.226 13.86C108.786 13.7933 108.426 13.7167 108.146 13.63C107.873 13.5433 107.633 13.3933 107.426 13.18C107.226 12.96 107.126 12.6567 107.126 12.27C107.126 11.7633 107.336 11.36 107.756 11.06C108.183 10.7533 108.756 10.6 109.476 10.6C109.843 10.6 110.209 10.6433 110.576 10.73C110.943 10.81 111.243 10.92 111.476 11.06L110.996 12.01C110.543 11.7433 110.033 11.61 109.466 11.61C109.099 11.61 108.819 11.6667 108.626 11.78C108.439 11.8867 108.346 12.03 108.346 12.21C108.346 12.41 108.446 12.5533 108.646 12.64C108.853 12.72 109.169 12.7967 109.596 12.87C110.023 12.9367 110.373 13.0133 110.646 13.1C110.919 13.1867 111.153 13.3333 111.346 13.54C111.546 13.7467 111.646 14.04 111.646 14.42C111.646 14.92 111.429 15.32 110.996 15.62C110.563 15.92 109.973 16.07 109.226 16.07ZM112.788 10.66H114.038V16H112.788V10.66ZM113.418 9.78C113.191 9.78 113.001 9.71 112.848 9.57C112.694 9.42333 112.618 9.24333 112.618 9.03C112.618 8.81667 112.694 8.64 112.848 8.5C113.001 8.35333 113.191 8.28 113.418 8.28C113.644 8.28 113.834 8.35 113.988 8.49C114.141 8.62333 114.218 8.79333 114.218 9C114.218 9.22 114.141 9.40667 113.988 9.56C113.841 9.70667 113.651 9.78 113.418 9.78ZM117.913 9.52C117.387 9.52 117.123 9.80667 117.123 10.38V10.7H118.593V11.7H117.163V16H115.913V11.7H115.033V10.7H115.913V10.36C115.913 9.78667 116.08 9.33667 116.413 9.01C116.747 8.67667 117.217 8.51 117.823 8.51C118.303 8.51 118.68 8.60667 118.953 8.8L118.603 9.74C118.39 9.59333 118.16 9.52 117.913 9.52ZM124.598 10.66L122.098 16.43C121.864 17.01 121.581 17.4167 121.248 17.65C120.914 17.89 120.511 18.01 120.038 18.01C119.771 18.01 119.508 17.9667 119.248 17.88C118.988 17.7933 118.774 17.6733 118.608 17.52L119.108 16.6C119.228 16.7133 119.368 16.8033 119.528 16.87C119.694 16.9367 119.861 16.97 120.028 16.97C120.248 16.97 120.428 16.9133 120.568 16.8C120.714 16.6867 120.848 16.4967 120.968 16.23L121.058 16.02L118.728 10.66H120.028L121.708 14.61L123.398 10.66H124.598ZM129.923 16.07C129.49 16.07 129.067 16.0133 128.653 15.9C128.24 15.7867 127.91 15.6433 127.663 15.47L128.143 14.52C128.383 14.68 128.67 14.81 129.003 14.91C129.343 15.0033 129.677 15.05 130.003 15.05C130.75 15.05 131.123 14.8533 131.123 14.46C131.123 14.2733 131.027 14.1433 130.833 14.07C130.647 13.9967 130.343 13.9267 129.923 13.86C129.483 13.7933 129.123 13.7167 128.843 13.63C128.57 13.5433 128.33 13.3933 128.123 13.18C127.923 12.96 127.823 12.6567 127.823 12.27C127.823 11.7633 128.033 11.36 128.453 11.06C128.88 10.7533 129.453 10.6 130.173 10.6C130.54 10.6 130.907 10.6433 131.273 10.73C131.64 10.81 131.94 10.92 132.173 11.06L131.693 12.01C131.24 11.7433 130.73 11.61 130.163 11.61C129.797 11.61 129.517 11.6667 129.323 11.78C129.137 11.8867 129.043 12.03 129.043 12.21C129.043 12.41 129.143 12.5533 129.343 12.64C129.55 12.72 129.867 12.7967 130.293 12.87C130.72 12.9367 131.07 13.0133 131.343 13.1C131.617 13.1867 131.85 13.3333 132.043 13.54C132.243 13.7467 132.343 14.04 132.343 14.42C132.343 14.92 132.127 15.32 131.693 15.62C131.26 15.92 130.67 16.07 129.923 16.07ZM138.505 13.36C138.505 13.4467 138.498 13.57 138.485 13.73H134.295C134.368 14.1233 134.558 14.4367 134.865 14.67C135.178 14.8967 135.565 15.01 136.025 15.01C136.612 15.01 137.095 14.8167 137.475 14.43L138.145 15.2C137.905 15.4867 137.602 15.7033 137.235 15.85C136.868 15.9967 136.455 16.07 135.995 16.07C135.408 16.07 134.892 15.9533 134.445 15.72C133.998 15.4867 133.652 15.1633 133.405 14.75C133.165 14.33 133.045 13.8567 133.045 13.33C133.045 12.81 133.162 12.3433 133.395 11.93C133.635 11.51 133.965 11.1833 134.385 10.95C134.805 10.7167 135.278 10.6 135.805 10.6C136.325 10.6 136.788 10.7167 137.195 10.95C137.608 11.1767 137.928 11.5 138.155 11.92C138.388 12.3333 138.505 12.8133 138.505 13.36ZM135.805 11.6C135.405 11.6 135.065 11.72 134.785 11.96C134.512 12.1933 134.345 12.5067 134.285 12.9H137.315C137.262 12.5133 137.098 12.2 136.825 11.96C136.552 11.72 136.212 11.6 135.805 11.6ZM142.801 10.6C143.474 10.6 144.014 10.7967 144.421 11.19C144.828 11.5833 145.031 12.1667 145.031 12.94V16H143.781V13.1C143.781 12.6333 143.671 12.2833 143.451 12.05C143.231 11.81 142.918 11.69 142.511 11.69C142.051 11.69 141.688 11.83 141.421 12.11C141.154 12.3833 141.021 12.78 141.021 13.3V16H139.771V10.66H140.961V11.35C141.168 11.1033 141.428 10.9167 141.741 10.79C142.054 10.6633 142.408 10.6 142.801 10.6ZM148.332 16.07C147.899 16.07 147.475 16.0133 147.062 15.9C146.649 15.7867 146.319 15.6433 146.072 15.47L146.552 14.52C146.792 14.68 147.079 14.81 147.412 14.91C147.752 15.0033 148.085 15.05 148.412 15.05C149.159 15.05 149.532 14.8533 149.532 14.46C149.532 14.2733 149.435 14.1433 149.242 14.07C149.055 13.9967 148.752 13.9267 148.332 13.86C147.892 13.7933 147.532 13.7167 147.252 13.63C146.979 13.5433 146.739 13.3933 146.532 13.18C146.332 12.96 146.232 12.6567 146.232 12.27C146.232 11.7633 146.442 11.36 146.862 11.06C147.289 10.7533 147.862 10.6 148.582 10.6C148.949 10.6 149.315 10.6433 149.682 10.73C150.049 10.81 150.349 10.92 150.582 11.06L150.102 12.01C149.649 11.7433 149.139 11.61 148.572 11.61C148.205 11.61 147.925 11.6667 147.732 11.78C147.545 11.8867 147.452 12.03 147.452 12.21C147.452 12.41 147.552 12.5533 147.752 12.64C147.959 12.72 148.275 12.7967 148.702 12.87C149.129 12.9367 149.479 13.0133 149.752 13.1C150.025 13.1867 150.259 13.3333 150.452 13.54C150.652 13.7467 150.752 14.04 150.752 14.42C150.752 14.92 150.535 15.32 150.102 15.62C149.669 15.92 149.079 16.07 148.332 16.07ZM151.894 10.66H153.144V16H151.894V10.66ZM152.524 9.78C152.297 9.78 152.107 9.71 151.954 9.57C151.8 9.42333 151.724 9.24333 151.724 9.03C151.724 8.81667 151.8 8.64 151.954 8.5C152.107 8.35333 152.297 8.28 152.524 8.28C152.75 8.28 152.94 8.35 153.094 8.49C153.247 8.62333 153.324 8.79333 153.324 9C153.324 9.22 153.247 9.40667 153.094 9.56C152.947 9.70667 152.757 9.78 152.524 9.78ZM158.06 15.71C157.913 15.83 157.733 15.92 157.52 15.98C157.313 16.04 157.093 16.07 156.86 16.07C156.273 16.07 155.82 15.9167 155.5 15.61C155.18 15.3033 155.02 14.8567 155.02 14.27V11.7H154.14V10.7H155.02V9.48H156.27V10.7H157.7V11.7H156.27V14.24C156.27 14.5 156.333 14.7 156.46 14.84C156.586 14.9733 156.77 15.04 157.01 15.04C157.29 15.04 157.523 14.9667 157.71 14.82L158.06 15.71ZM159.153 10.66H160.403V16H159.153V10.66ZM159.783 9.78C159.556 9.78 159.366 9.71 159.213 9.57C159.06 9.42333 158.983 9.24333 158.983 9.03C158.983 8.81667 159.06 8.64 159.213 8.5C159.366 8.35333 159.556 8.28 159.783 8.28C160.01 8.28 160.2 8.35 160.353 8.49C160.506 8.62333 160.583 8.79333 160.583 9C160.583 9.22 160.506 9.40667 160.353 9.56C160.206 9.70667 160.016 9.78 159.783 9.78ZM167.109 10.66L164.819 16H163.529L161.239 10.66H162.539L164.199 14.62L165.909 10.66H167.109ZM172.829 13.36C172.829 13.4467 172.822 13.57 172.809 13.73H168.619C168.692 14.1233 168.882 14.4367 169.189 14.67C169.502 14.8967 169.889 15.01 170.349 15.01C170.936 15.01 171.419 14.8167 171.799 14.43L172.469 15.2C172.229 15.4867 171.926 15.7033 171.559 15.85C171.192 15.9967 170.779 16.07 170.319 16.07C169.732 16.07 169.216 15.9533 168.769 15.72C168.322 15.4867 167.976 15.1633 167.729 14.75C167.489 14.33 167.369 13.8567 167.369 13.33C167.369 12.81 167.486 12.3433 167.719 11.93C167.959 11.51 168.289 11.1833 168.709 10.95C169.129 10.7167 169.602 10.6 170.129 10.6C170.649 10.6 171.112 10.7167 171.519 10.95C171.932 11.1767 172.252 11.5 172.479 11.92C172.712 12.3333 172.829 12.8133 172.829 13.36ZM170.129 11.6C169.729 11.6 169.389 11.72 169.109 11.96C168.836 12.1933 168.669 12.5067 168.609 12.9H171.639C171.586 12.5133 171.422 12.2 171.149 11.96C170.876 11.72 170.536 11.6 170.129 11.6ZM179.094 9.52C178.567 9.52 178.304 9.80667 178.304 10.38V10.7H179.774V11.7H178.344V16H177.094V11.7H176.214V10.7H177.094V10.36C177.094 9.78667 177.261 9.33667 177.594 9.01C177.927 8.67667 178.397 8.51 179.004 8.51C179.484 8.51 179.861 8.60667 180.134 8.8L179.784 9.74C179.571 9.59333 179.341 9.52 179.094 9.52ZM181.414 10.66H182.664V16H181.414V10.66ZM182.044 9.78C181.817 9.78 181.627 9.71 181.474 9.57C181.321 9.42333 181.244 9.24333 181.244 9.03C181.244 8.81667 181.321 8.64 181.474 8.5C181.627 8.35333 181.817 8.28 182.044 8.28C182.271 8.28 182.461 8.35 182.614 8.49C182.767 8.62333 182.844 8.79333 182.844 9C182.844 9.22 182.767 9.40667 182.614 9.56C182.467 9.70667 182.277 9.78 182.044 9.78ZM184.372 8.58H185.622V16H184.372V8.58ZM192.348 13.36C192.348 13.4467 192.341 13.57 192.328 13.73H188.138C188.211 14.1233 188.401 14.4367 188.708 14.67C189.021 14.8967 189.408 15.01 189.868 15.01C190.455 15.01 190.938 14.8167 191.318 14.43L191.988 15.2C191.748 15.4867 191.445 15.7033 191.078 15.85C190.711 15.9967 190.298 16.07 189.838 16.07C189.251 16.07 188.735 15.9533 188.288 15.72C187.841 15.4867 187.495 15.1633 187.248 14.75C187.008 14.33 186.888 13.8567 186.888 13.33C186.888 12.81 187.005 12.3433 187.238 11.93C187.478 11.51 187.808 11.1833 188.228 10.95C188.648 10.7167 189.121 10.6 189.648 10.6C190.168 10.6 190.631 10.7167 191.038 10.95C191.451 11.1767 191.771 11.5 191.998 11.92C192.231 12.3333 192.348 12.8133 192.348 13.36ZM189.648 11.6C189.248 11.6 188.908 11.72 188.628 11.96C188.355 12.1933 188.188 12.5067 188.128 12.9H191.158C191.105 12.5133 190.941 12.2 190.668 11.96C190.395 11.72 190.055 11.6 189.648 11.6ZM195.264 16.07C194.831 16.07 194.407 16.0133 193.994 15.9C193.581 15.7867 193.251 15.6433 193.004 15.47L193.484 14.52C193.724 14.68 194.011 14.81 194.344 14.91C194.684 15.0033 195.017 15.05 195.344 15.05C196.091 15.05 196.464 14.8533 196.464 14.46C196.464 14.2733 196.367 14.1433 196.174 14.07C195.987 13.9967 195.684 13.9267 195.264 13.86C194.824 13.7933 194.464 13.7167 194.184 13.63C193.911 13.5433 193.671 13.3933 193.464 13.18C193.264 12.96 193.164 12.6567 193.164 12.27C193.164 11.7633 193.374 11.36 193.794 11.06C194.221 10.7533 194.794 10.6 195.514 10.6C195.881 10.6 196.247 10.6433 196.614 10.73C196.981 10.81 197.281 10.92 197.514 11.06L197.034 12.01C196.581 11.7433 196.071 11.61 195.504 11.61C195.137 11.61 194.857 11.6667 194.664 11.78C194.477 11.8867 194.384 12.03 194.384 12.21C194.384 12.41 194.484 12.5533 194.684 12.64C194.891 12.72 195.207 12.7967 195.634 12.87C196.061 12.9367 196.411 13.0133 196.684 13.1C196.957 13.1867 197.191 13.3333 197.384 13.54C197.584 13.7467 197.684 14.04 197.684 14.42C197.684 14.92 197.467 15.32 197.034 15.62C196.601 15.92 196.011 16.07 195.264 16.07Z" fill="white"/>
</svg>
