<svg width="284" height="31" viewBox="0 0 284 31" fill="none" xmlns="http://www.w3.org/2000/svg">
<g filter="url(#filter0_b_3670_14805)">
<rect width="284" height="30" rx="9.21983" fill="#F9A8D1"/>
</g>
<path d="M59.89 23V10.4H65.542C66.994 10.4 68.11 10.694 68.89 11.282C69.67 11.858 70.06 12.65 70.06 13.658C70.06 14.342 69.904 14.918 69.592 15.386C69.292 15.854 68.884 16.214 68.368 16.466C67.852 16.718 67.294 16.844 66.694 16.844L67.018 16.304C67.738 16.304 68.374 16.43 68.926 16.682C69.478 16.934 69.916 17.306 70.24 17.798C70.564 18.278 70.726 18.878 70.726 19.598C70.726 20.678 70.318 21.518 69.502 22.118C68.698 22.706 67.498 23 65.902 23H59.89ZM61.69 21.542H65.83C66.826 21.542 67.588 21.374 68.116 21.038C68.644 20.702 68.908 20.174 68.908 19.454C68.908 18.722 68.644 18.188 68.116 17.852C67.588 17.516 66.826 17.348 65.83 17.348H61.528V15.89H65.38C66.292 15.89 67 15.722 67.504 15.386C68.008 15.05 68.26 14.546 68.26 13.874C68.26 13.202 68.008 12.698 67.504 12.362C67 12.026 66.292 11.858 65.38 11.858H61.69V21.542ZM75.8393 23V11.966H71.5193V10.4H81.9413V11.966H77.6213V23H75.8393Z" fill="url(#paint0_linear_3670_14805)"/>
<path d="M88.6034 23V10.4H94.3274C95.6954 10.4 96.9014 10.664 97.9454 11.192C98.9894 11.708 99.8054 12.434 100.393 13.37C100.981 14.306 101.275 15.416 101.275 16.7C101.275 17.972 100.981 19.082 100.393 20.03C99.8054 20.966 98.9894 21.698 97.9454 22.226C96.9014 22.742 95.6954 23 94.3274 23H88.6034ZM91.5194 20.606H94.1834C95.0234 20.606 95.7494 20.45 96.3614 20.138C96.9854 19.814 97.4654 19.358 97.8014 18.77C98.1494 18.182 98.3234 17.492 98.3234 16.7C98.3234 15.896 98.1494 15.206 97.8014 14.63C97.4654 14.042 96.9854 13.592 96.3614 13.28C95.7494 12.956 95.0234 12.794 94.1834 12.794H91.5194V20.606ZM109.216 23V21.11L109.036 20.696V17.312C109.036 16.712 108.85 16.244 108.478 15.908C108.118 15.572 107.56 15.404 106.804 15.404C106.288 15.404 105.778 15.488 105.274 15.656C104.782 15.812 104.362 16.028 104.014 16.304L103.006 14.342C103.534 13.97 104.17 13.682 104.914 13.478C105.658 13.274 106.414 13.172 107.182 13.172C108.658 13.172 109.804 13.52 110.62 14.216C111.436 14.912 111.844 15.998 111.844 17.474V23H109.216ZM106.264 23.144C105.508 23.144 104.86 23.018 104.32 22.766C103.78 22.502 103.366 22.148 103.078 21.704C102.79 21.26 102.646 20.762 102.646 20.21C102.646 19.634 102.784 19.13 103.06 18.698C103.348 18.266 103.798 17.93 104.41 17.69C105.022 17.438 105.82 17.312 106.804 17.312H109.378V18.95H107.11C106.45 18.95 105.994 19.058 105.742 19.274C105.502 19.49 105.382 19.76 105.382 20.084C105.382 20.444 105.52 20.732 105.796 20.948C106.084 21.152 106.474 21.254 106.966 21.254C107.434 21.254 107.854 21.146 108.226 20.93C108.598 20.702 108.868 20.372 109.036 19.94L109.468 21.236C109.264 21.86 108.892 22.334 108.352 22.658C107.812 22.982 107.116 23.144 106.264 23.144ZM118.346 23.144C117.206 23.144 116.318 22.856 115.682 22.28C115.046 21.692 114.728 20.822 114.728 19.67V11.174H117.536V19.634C117.536 20.042 117.644 20.36 117.86 20.588C118.076 20.804 118.37 20.912 118.742 20.912C119.186 20.912 119.564 20.792 119.876 20.552L120.632 22.532C120.344 22.736 119.996 22.892 119.588 23C119.192 23.096 118.778 23.144 118.346 23.144ZM113.234 15.692V13.532H119.948V15.692H113.234ZM128.148 23V21.11L127.968 20.696V17.312C127.968 16.712 127.782 16.244 127.41 15.908C127.05 15.572 126.492 15.404 125.736 15.404C125.22 15.404 124.71 15.488 124.206 15.656C123.714 15.812 123.294 16.028 122.946 16.304L121.938 14.342C122.466 13.97 123.102 13.682 123.846 13.478C124.59 13.274 125.346 13.172 126.114 13.172C127.59 13.172 128.736 13.52 129.552 14.216C130.368 14.912 130.776 15.998 130.776 17.474V23H128.148ZM125.196 23.144C124.44 23.144 123.792 23.018 123.252 22.766C122.712 22.502 122.298 22.148 122.01 21.704C121.722 21.26 121.578 20.762 121.578 20.21C121.578 19.634 121.716 19.13 121.992 18.698C122.28 18.266 122.73 17.93 123.342 17.69C123.954 17.438 124.752 17.312 125.736 17.312H128.31V18.95H126.042C125.382 18.95 124.926 19.058 124.674 19.274C124.434 19.49 124.314 19.76 124.314 20.084C124.314 20.444 124.452 20.732 124.728 20.948C125.016 21.152 125.406 21.254 125.898 21.254C126.366 21.254 126.786 21.146 127.158 20.93C127.53 20.702 127.8 20.372 127.968 19.94L128.4 21.236C128.196 21.86 127.824 22.334 127.284 22.658C126.744 22.982 126.048 23.144 125.196 23.144ZM138.613 23V10.4H144.769C146.353 10.4 147.541 10.7 148.333 11.3C149.137 11.9 149.539 12.692 149.539 13.676C149.539 14.336 149.377 14.912 149.053 15.404C148.729 15.884 148.285 16.256 147.721 16.52C147.157 16.784 146.509 16.916 145.777 16.916L146.119 16.178C146.911 16.178 147.613 16.31 148.225 16.574C148.837 16.826 149.311 17.204 149.647 17.708C149.995 18.212 150.169 18.83 150.169 19.562C150.169 20.642 149.743 21.488 148.891 22.1C148.039 22.7 146.785 23 145.129 23H138.613ZM141.511 20.804H144.913C145.669 20.804 146.239 20.684 146.623 20.444C147.019 20.192 147.217 19.796 147.217 19.256C147.217 18.728 147.019 18.338 146.623 18.086C146.239 17.822 145.669 17.69 144.913 17.69H141.295V15.566H144.409C145.117 15.566 145.657 15.446 146.029 15.206C146.413 14.954 146.605 14.576 146.605 14.072C146.605 13.58 146.413 13.214 146.029 12.974C145.657 12.722 145.117 12.596 144.409 12.596H141.511V20.804ZM156.787 23.144C155.755 23.144 154.837 22.928 154.033 22.496C153.241 22.064 152.611 21.476 152.143 20.732C151.687 19.976 151.459 19.118 151.459 18.158C151.459 17.186 151.687 16.328 152.143 15.584C152.611 14.828 153.241 14.24 154.033 13.82C154.837 13.388 155.755 13.172 156.787 13.172C157.807 13.172 158.719 13.388 159.523 13.82C160.327 14.24 160.957 14.822 161.413 15.566C161.869 16.31 162.097 17.174 162.097 18.158C162.097 19.118 161.869 19.976 161.413 20.732C160.957 21.476 160.327 22.064 159.523 22.496C158.719 22.928 157.807 23.144 156.787 23.144ZM156.787 20.84C157.255 20.84 157.675 20.732 158.047 20.516C158.419 20.3 158.713 19.994 158.929 19.598C159.145 19.19 159.253 18.71 159.253 18.158C159.253 17.594 159.145 17.114 158.929 16.718C158.713 16.322 158.419 16.016 158.047 15.8C157.675 15.584 157.255 15.476 156.787 15.476C156.319 15.476 155.899 15.584 155.527 15.8C155.155 16.016 154.855 16.322 154.627 16.718C154.411 17.114 154.303 17.594 154.303 18.158C154.303 18.71 154.411 19.19 154.627 19.598C154.855 19.994 155.155 20.3 155.527 20.516C155.899 20.732 156.319 20.84 156.787 20.84ZM168.06 23.144C167.256 23.144 166.536 22.988 165.9 22.676C165.276 22.364 164.79 21.89 164.442 21.254C164.094 20.606 163.92 19.784 163.92 18.788V13.316H166.728V18.374C166.728 19.178 166.896 19.772 167.232 20.156C167.58 20.528 168.066 20.714 168.69 20.714C169.122 20.714 169.506 20.624 169.842 20.444C170.178 20.252 170.442 19.964 170.634 19.58C170.826 19.184 170.922 18.692 170.922 18.104V13.316H173.73V23H171.066V20.336L171.552 21.11C171.228 21.782 170.748 22.292 170.112 22.64C169.488 22.976 168.804 23.144 168.06 23.144ZM182.217 13.172C182.985 13.172 183.669 13.328 184.269 13.64C184.881 13.94 185.361 14.408 185.709 15.044C186.057 15.668 186.231 16.472 186.231 17.456V23H183.423V17.888C183.423 17.108 183.249 16.532 182.901 16.16C182.565 15.788 182.085 15.602 181.461 15.602C181.017 15.602 180.615 15.698 180.255 15.89C179.907 16.07 179.631 16.352 179.427 16.736C179.235 17.12 179.139 17.612 179.139 18.212V23H176.331V13.316H179.013V15.998L178.509 15.188C178.857 14.54 179.355 14.042 180.003 13.694C180.651 13.346 181.389 13.172 182.217 13.172ZM193.005 23.144C192.093 23.144 191.271 22.94 190.539 22.532C189.807 22.112 189.225 21.53 188.793 20.786C188.373 20.042 188.163 19.166 188.163 18.158C188.163 17.138 188.373 16.256 188.793 15.512C189.225 14.768 189.807 14.192 190.539 13.784C191.271 13.376 192.093 13.172 193.005 13.172C193.821 13.172 194.535 13.352 195.147 13.712C195.759 14.072 196.233 14.618 196.569 15.35C196.905 16.082 197.073 17.018 197.073 18.158C197.073 19.286 196.911 20.222 196.587 20.966C196.263 21.698 195.795 22.244 195.183 22.604C194.583 22.964 193.857 23.144 193.005 23.144ZM193.491 20.84C193.947 20.84 194.361 20.732 194.733 20.516C195.105 20.3 195.399 19.994 195.615 19.598C195.843 19.19 195.957 18.71 195.957 18.158C195.957 17.594 195.843 17.114 195.615 16.718C195.399 16.322 195.105 16.016 194.733 15.8C194.361 15.584 193.947 15.476 193.491 15.476C193.023 15.476 192.603 15.584 192.231 15.8C191.859 16.016 191.559 16.322 191.331 16.718C191.115 17.114 191.007 17.594 191.007 18.158C191.007 18.71 191.115 19.19 191.331 19.598C191.559 19.994 191.859 20.3 192.231 20.516C192.603 20.732 193.023 20.84 193.491 20.84ZM196.029 23V21.02L196.083 18.14L195.903 15.278V9.644H198.711V23H196.029ZM207.25 23V21.11L207.07 20.696V17.312C207.07 16.712 206.884 16.244 206.512 15.908C206.152 15.572 205.594 15.404 204.838 15.404C204.322 15.404 203.812 15.488 203.308 15.656C202.816 15.812 202.396 16.028 202.048 16.304L201.04 14.342C201.568 13.97 202.204 13.682 202.948 13.478C203.692 13.274 204.448 13.172 205.216 13.172C206.692 13.172 207.838 13.52 208.654 14.216C209.47 14.912 209.878 15.998 209.878 17.474V23H207.25ZM204.298 23.144C203.542 23.144 202.894 23.018 202.354 22.766C201.814 22.502 201.4 22.148 201.112 21.704C200.824 21.26 200.68 20.762 200.68 20.21C200.68 19.634 200.818 19.13 201.094 18.698C201.382 18.266 201.832 17.93 202.444 17.69C203.056 17.438 203.854 17.312 204.838 17.312H207.412V18.95H205.144C204.484 18.95 204.028 19.058 203.776 19.274C203.536 19.49 203.416 19.76 203.416 20.084C203.416 20.444 203.554 20.732 203.83 20.948C204.118 21.152 204.508 21.254 205 21.254C205.468 21.254 205.888 21.146 206.26 20.93C206.632 20.702 206.902 20.372 207.07 19.94L207.502 21.236C207.298 21.86 206.926 22.334 206.386 22.658C205.846 22.982 205.15 23.144 204.298 23.144ZM212.419 23V13.316H215.101V16.052L214.723 15.26C215.011 14.576 215.473 14.06 216.109 13.712C216.745 13.352 217.519 13.172 218.431 13.172V15.764C218.311 15.752 218.203 15.746 218.107 15.746C218.011 15.734 217.909 15.728 217.801 15.728C217.033 15.728 216.409 15.95 215.929 16.394C215.461 16.826 215.227 17.504 215.227 18.428V23H212.419ZM221.659 26.636C221.155 26.636 220.657 26.558 220.165 26.402C219.673 26.246 219.271 26.03 218.959 25.754L219.985 23.756C220.201 23.948 220.447 24.098 220.723 24.206C221.011 24.314 221.293 24.368 221.569 24.368C221.965 24.368 222.277 24.272 222.505 24.08C222.745 23.9 222.961 23.594 223.153 23.162L223.657 21.974L223.873 21.668L227.347 13.316H230.047L225.673 23.594C225.361 24.374 225.001 24.986 224.593 25.43C224.197 25.874 223.753 26.186 223.261 26.366C222.781 26.546 222.247 26.636 221.659 26.636ZM223.315 23.378L218.995 13.316H221.893L225.241 21.416L223.315 23.378ZM232.445 17V10.628H229.94V9.44H236.355V10.628H233.849V17H232.445ZM237.733 17V9.44H238.888L242.193 14.9588H241.588L244.839 9.44H245.995L246.005 17H244.677L244.666 11.5244H244.947L242.182 16.136H241.556L238.748 11.5244H239.072V17H237.733Z" fill="#343458"/>
<path d="M42.1096 18.2913V18.2474C42.0989 18.0778 42.0692 17.91 42.0212 17.7469L40.5707 9.20401C40.4671 8.58235 40.1424 8.01816 39.6556 7.61382C39.1688 7.20948 38.5521 6.99178 37.9174 7.00024H28.5691C27.942 7.00225 27.3359 7.2247 26.8583 7.62811C26.3807 8.03153 26.0625 8.58984 25.96 9.20401L24.5273 17.7294C24.4792 17.8924 24.4495 18.0603 24.4388 18.2298V18.2737C24.4211 18.3352 24.4211 18.4142 24.4211 18.4142V21.9262C24.4211 22.6248 24.7007 23.2947 25.1983 23.7887C25.6959 24.2827 26.3707 24.5602 27.0744 24.5602H39.4563C40.16 24.5602 40.8349 24.2827 41.3325 23.7887C41.8301 23.2947 42.1096 22.6248 42.1096 21.9262V18.4142C42.1096 18.4142 42.1096 18.3352 42.1096 18.2913ZM27.7024 9.48497C27.7382 9.27882 27.8469 9.09214 28.0091 8.95853C28.1712 8.82493 28.3761 8.75319 28.5868 8.75623H37.9617C38.1723 8.75319 38.3772 8.82493 38.5394 8.95853C38.7015 9.09214 38.8103 9.27882 38.8461 9.48497L39.9074 15.8241C39.7588 15.7949 39.6078 15.7802 39.4563 15.7802H27.0744C26.9289 15.7814 26.7838 15.7961 26.641 15.8241L27.7024 9.48497ZM40.3407 21.9262C40.3407 22.1591 40.2476 22.3824 40.0817 22.547C39.9158 22.7117 39.6909 22.8042 39.4563 22.8042H27.0744C26.8398 22.8042 26.6149 22.7117 26.449 22.547C26.2832 22.3824 26.19 22.1591 26.19 21.9262V18.4844L26.2607 18.0806C26.3271 17.9202 26.4398 17.783 26.5846 17.6861C26.7294 17.5892 26.8998 17.5371 27.0744 17.5362H39.4563C39.6309 17.5371 39.8014 17.5892 39.9462 17.6861C40.091 17.783 40.2036 17.9202 40.27 18.0806L40.3407 18.4844V21.9262ZM37.6875 19.2922C37.5126 19.2922 37.3416 19.3437 37.1961 19.4402C37.0507 19.5367 36.9373 19.6738 36.8704 19.8342C36.8034 19.9946 36.7859 20.1712 36.8201 20.3415C36.8542 20.5118 36.9384 20.6683 37.0621 20.791C37.1858 20.9138 37.3434 20.9975 37.5149 21.0313C37.6865 21.0652 37.8643 21.0478 38.0259 20.9814C38.1875 20.9149 38.3257 20.8024 38.4229 20.658C38.52 20.5136 38.5719 20.3439 38.5719 20.1702C38.5719 19.9373 38.4787 19.714 38.3129 19.5494C38.147 19.3847 37.922 19.2922 37.6875 19.2922Z" fill="url(#paint1_linear_3670_14805)"/>
<rect x="33.4578" y="19.2148" width="5.19118" height="1.90872" rx="0.954358" fill="url(#paint2_linear_3670_14805)"/>
<g filter="url(#filter1_b_3670_14805)">
<path d="M19.4763 18.0166C21.3617 16.1449 24.4041 16.1449 26.2895 18.0166L27.3093 19.0291C29.2142 20.9201 29.2142 24.0009 27.3093 25.892L26.2895 26.9044C24.4041 28.7761 21.3617 28.7761 19.4763 26.9044L18.4565 25.892C16.5516 24.0009 16.5516 20.9201 18.4565 19.0291L19.4763 18.0166Z" fill="#9591AF" fill-opacity="0.1"/>
</g>
<defs>
<filter id="filter0_b_3670_14805" x="-6.91487" y="-6.91487" width="297.83" height="43.8297" filterUnits="userSpaceOnUse" color-interpolation-filters="sRGB">
<feFlood flood-opacity="0" result="BackgroundImageFix"/>
<feGaussianBlur in="BackgroundImage" stdDeviation="3.45744"/>
<feComposite in2="SourceAlpha" operator="in" result="effect1_backgroundBlur_3670_14805"/>
<feBlend mode="normal" in="SourceGraphic" in2="effect1_backgroundBlur_3670_14805" result="shape"/>
</filter>
<filter id="filter1_b_3670_14805" x="7.96175" y="7.5472" width="29.8424" height="29.8275" filterUnits="userSpaceOnUse" color-interpolation-filters="sRGB">
<feFlood flood-opacity="0" result="BackgroundImageFix"/>
<feGaussianBlur in="BackgroundImage" stdDeviation="4.53304"/>
<feComposite in2="SourceAlpha" operator="in" result="effect1_backgroundBlur_3670_14805"/>
<feBlend mode="normal" in="SourceGraphic" in2="effect1_backgroundBlur_3670_14805" result="shape"/>
</filter>
<linearGradient id="paint0_linear_3670_14805" x1="153" y1="6" x2="153" y2="28" gradientUnits="userSpaceOnUse">
<stop stop-color="#282466"/>
<stop offset="1" stop-color="#17143E"/>
</linearGradient>
<linearGradient id="paint1_linear_3670_14805" x1="33.2654" y1="7" x2="33.2654" y2="24.5602" gradientUnits="userSpaceOnUse">
<stop stop-color="#282466"/>
<stop offset="1" stop-color="#17143E"/>
</linearGradient>
<linearGradient id="paint2_linear_3670_14805" x1="36.0534" y1="19.2148" x2="36.0534" y2="21.1236" gradientUnits="userSpaceOnUse">
<stop stop-color="#282466"/>
<stop offset="1" stop-color="#17143E"/>
</linearGradient>
</defs>
</svg>
