<svg width="284" height="30" viewBox="0 0 284 30" fill="none" xmlns="http://www.w3.org/2000/svg">
<g filter="url(#filter0_b_3670_13486)">
<rect width="284" height="30" rx="9.21983" fill="#F4BF6E"/>
</g>
<path d="M59.89 23V10.4H65.542C66.994 10.4 68.11 10.694 68.89 11.282C69.67 11.858 70.06 12.65 70.06 13.658C70.06 14.342 69.904 14.918 69.592 15.386C69.292 15.854 68.884 16.214 68.368 16.466C67.852 16.718 67.294 16.844 66.694 16.844L67.018 16.304C67.738 16.304 68.374 16.43 68.926 16.682C69.478 16.934 69.916 17.306 70.24 17.798C70.564 18.278 70.726 18.878 70.726 19.598C70.726 20.678 70.318 21.518 69.502 22.118C68.698 22.706 67.498 23 65.902 23H59.89ZM61.69 21.542H65.83C66.826 21.542 67.588 21.374 68.116 21.038C68.644 20.702 68.908 20.174 68.908 19.454C68.908 18.722 68.644 18.188 68.116 17.852C67.588 17.516 66.826 17.348 65.83 17.348H61.528V15.89H65.38C66.292 15.89 67 15.722 67.504 15.386C68.008 15.05 68.26 14.546 68.26 13.874C68.26 13.202 68.008 12.698 67.504 12.362C67 12.026 66.292 11.858 65.38 11.858H61.69V21.542ZM75.8393 23V11.966H71.5193V10.4H81.9413V11.966H77.6213V23H75.8393Z" fill="url(#paint0_linear_3670_13486)"/>
<path d="M88.6034 23V10.4H94.3274C95.6954 10.4 96.9014 10.664 97.9454 11.192C98.9894 11.708 99.8054 12.434 100.393 13.37C100.981 14.306 101.275 15.416 101.275 16.7C101.275 17.972 100.981 19.082 100.393 20.03C99.8054 20.966 98.9894 21.698 97.9454 22.226C96.9014 22.742 95.6954 23 94.3274 23H88.6034ZM91.5194 20.606H94.1834C95.0234 20.606 95.7494 20.45 96.3614 20.138C96.9854 19.814 97.4654 19.358 97.8014 18.77C98.1494 18.182 98.3234 17.492 98.3234 16.7C98.3234 15.896 98.1494 15.206 97.8014 14.63C97.4654 14.042 96.9854 13.592 96.3614 13.28C95.7494 12.956 95.0234 12.794 94.1834 12.794H91.5194V20.606ZM109.216 23V21.11L109.036 20.696V17.312C109.036 16.712 108.85 16.244 108.478 15.908C108.118 15.572 107.56 15.404 106.804 15.404C106.288 15.404 105.778 15.488 105.274 15.656C104.782 15.812 104.362 16.028 104.014 16.304L103.006 14.342C103.534 13.97 104.17 13.682 104.914 13.478C105.658 13.274 106.414 13.172 107.182 13.172C108.658 13.172 109.804 13.52 110.62 14.216C111.436 14.912 111.844 15.998 111.844 17.474V23H109.216ZM106.264 23.144C105.508 23.144 104.86 23.018 104.32 22.766C103.78 22.502 103.366 22.148 103.078 21.704C102.79 21.26 102.646 20.762 102.646 20.21C102.646 19.634 102.784 19.13 103.06 18.698C103.348 18.266 103.798 17.93 104.41 17.69C105.022 17.438 105.82 17.312 106.804 17.312H109.378V18.95H107.11C106.45 18.95 105.994 19.058 105.742 19.274C105.502 19.49 105.382 19.76 105.382 20.084C105.382 20.444 105.52 20.732 105.796 20.948C106.084 21.152 106.474 21.254 106.966 21.254C107.434 21.254 107.854 21.146 108.226 20.93C108.598 20.702 108.868 20.372 109.036 19.94L109.468 21.236C109.264 21.86 108.892 22.334 108.352 22.658C107.812 22.982 107.116 23.144 106.264 23.144ZM118.346 23.144C117.206 23.144 116.318 22.856 115.682 22.28C115.046 21.692 114.728 20.822 114.728 19.67V11.174H117.536V19.634C117.536 20.042 117.644 20.36 117.86 20.588C118.076 20.804 118.37 20.912 118.742 20.912C119.186 20.912 119.564 20.792 119.876 20.552L120.632 22.532C120.344 22.736 119.996 22.892 119.588 23C119.192 23.096 118.778 23.144 118.346 23.144ZM113.234 15.692V13.532H119.948V15.692H113.234ZM128.148 23V21.11L127.968 20.696V17.312C127.968 16.712 127.782 16.244 127.41 15.908C127.05 15.572 126.492 15.404 125.736 15.404C125.22 15.404 124.71 15.488 124.206 15.656C123.714 15.812 123.294 16.028 122.946 16.304L121.938 14.342C122.466 13.97 123.102 13.682 123.846 13.478C124.59 13.274 125.346 13.172 126.114 13.172C127.59 13.172 128.736 13.52 129.552 14.216C130.368 14.912 130.776 15.998 130.776 17.474V23H128.148ZM125.196 23.144C124.44 23.144 123.792 23.018 123.252 22.766C122.712 22.502 122.298 22.148 122.01 21.704C121.722 21.26 121.578 20.762 121.578 20.21C121.578 19.634 121.716 19.13 121.992 18.698C122.28 18.266 122.73 17.93 123.342 17.69C123.954 17.438 124.752 17.312 125.736 17.312H128.31V18.95H126.042C125.382 18.95 124.926 19.058 124.674 19.274C124.434 19.49 124.314 19.76 124.314 20.084C124.314 20.444 124.452 20.732 124.728 20.948C125.016 21.152 125.406 21.254 125.898 21.254C126.366 21.254 126.786 21.146 127.158 20.93C127.53 20.702 127.8 20.372 127.968 19.94L128.4 21.236C128.196 21.86 127.824 22.334 127.284 22.658C126.744 22.982 126.048 23.144 125.196 23.144ZM144.643 23.216C143.671 23.216 142.765 23.06 141.925 22.748C141.097 22.424 140.377 21.968 139.765 21.38C139.153 20.792 138.673 20.102 138.325 19.31C137.989 18.518 137.821 17.648 137.821 16.7C137.821 15.752 137.989 14.882 138.325 14.09C138.673 13.298 139.153 12.608 139.765 12.02C140.389 11.432 141.115 10.982 141.943 10.67C142.771 10.346 143.677 10.184 144.661 10.184C145.753 10.184 146.737 10.376 147.613 10.76C148.501 11.132 149.245 11.684 149.845 12.416L147.973 14.144C147.541 13.652 147.061 13.286 146.533 13.046C146.005 12.794 145.429 12.668 144.805 12.668C144.217 12.668 143.677 12.764 143.185 12.956C142.693 13.148 142.267 13.424 141.907 13.784C141.547 14.144 141.265 14.57 141.061 15.062C140.869 15.554 140.773 16.1 140.773 16.7C140.773 17.3 140.869 17.846 141.061 18.338C141.265 18.83 141.547 19.256 141.907 19.616C142.267 19.976 142.693 20.252 143.185 20.444C143.677 20.636 144.217 20.732 144.805 20.732C145.429 20.732 146.005 20.612 146.533 20.372C147.061 20.12 147.541 19.742 147.973 19.238L149.845 20.966C149.245 21.698 148.501 22.256 147.613 22.64C146.737 23.024 145.747 23.216 144.643 23.216ZM155.89 23.144C154.858 23.144 153.94 22.928 153.136 22.496C152.344 22.064 151.714 21.476 151.246 20.732C150.79 19.976 150.562 19.118 150.562 18.158C150.562 17.186 150.79 16.328 151.246 15.584C151.714 14.828 152.344 14.24 153.136 13.82C153.94 13.388 154.858 13.172 155.89 13.172C156.91 13.172 157.822 13.388 158.626 13.82C159.43 14.24 160.06 14.822 160.516 15.566C160.972 16.31 161.2 17.174 161.2 18.158C161.2 19.118 160.972 19.976 160.516 20.732C160.06 21.476 159.43 22.064 158.626 22.496C157.822 22.928 156.91 23.144 155.89 23.144ZM155.89 20.84C156.358 20.84 156.778 20.732 157.15 20.516C157.522 20.3 157.816 19.994 158.032 19.598C158.248 19.19 158.356 18.71 158.356 18.158C158.356 17.594 158.248 17.114 158.032 16.718C157.816 16.322 157.522 16.016 157.15 15.8C156.778 15.584 156.358 15.476 155.89 15.476C155.422 15.476 155.002 15.584 154.63 15.8C154.258 16.016 153.958 16.322 153.73 16.718C153.514 17.114 153.406 17.594 153.406 18.158C153.406 18.71 153.514 19.19 153.73 19.598C153.958 19.994 154.258 20.3 154.63 20.516C155.002 20.732 155.422 20.84 155.89 20.84ZM175.479 13.172C176.247 13.172 176.925 13.328 177.513 13.64C178.113 13.94 178.581 14.408 178.917 15.044C179.265 15.668 179.439 16.472 179.439 17.456V23H176.631V17.888C176.631 17.108 176.469 16.532 176.145 16.16C175.821 15.788 175.365 15.602 174.777 15.602C174.369 15.602 174.003 15.698 173.679 15.89C173.355 16.07 173.103 16.346 172.923 16.718C172.743 17.09 172.653 17.564 172.653 18.14V23H169.845V17.888C169.845 17.108 169.683 16.532 169.359 16.16C169.047 15.788 168.597 15.602 168.009 15.602C167.601 15.602 167.235 15.698 166.911 15.89C166.587 16.07 166.335 16.346 166.155 16.718C165.975 17.09 165.885 17.564 165.885 18.14V23H163.077V13.316H165.759V15.962L165.255 15.188C165.591 14.528 166.065 14.03 166.677 13.694C167.301 13.346 168.009 13.172 168.801 13.172C169.689 13.172 170.463 13.4 171.123 13.856C171.795 14.3 172.239 14.984 172.455 15.908L171.465 15.638C171.789 14.882 172.305 14.282 173.013 13.838C173.733 13.394 174.555 13.172 175.479 13.172ZM187.68 23.144C186.864 23.144 186.15 22.964 185.538 22.604C184.926 22.244 184.446 21.698 184.098 20.966C183.762 20.222 183.594 19.286 183.594 18.158C183.594 17.018 183.756 16.082 184.08 15.35C184.404 14.618 184.872 14.072 185.484 13.712C186.096 13.352 186.828 13.172 187.68 13.172C188.592 13.172 189.408 13.382 190.128 13.802C190.86 14.21 191.436 14.786 191.856 15.53C192.288 16.274 192.504 17.15 192.504 18.158C192.504 19.178 192.288 20.06 191.856 20.804C191.436 21.548 190.86 22.124 190.128 22.532C189.408 22.94 188.592 23.144 187.68 23.144ZM181.956 26.492V13.316H184.638V15.296L184.584 18.176L184.764 21.038V26.492H181.956ZM187.194 20.84C187.662 20.84 188.076 20.732 188.436 20.516C188.808 20.3 189.102 19.994 189.318 19.598C189.546 19.19 189.66 18.71 189.66 18.158C189.66 17.594 189.546 17.114 189.318 16.718C189.102 16.322 188.808 16.016 188.436 15.8C188.076 15.584 187.662 15.476 187.194 15.476C186.726 15.476 186.306 15.584 185.934 15.8C185.562 16.016 185.268 16.322 185.052 16.718C184.836 17.114 184.728 17.594 184.728 18.158C184.728 18.71 184.836 19.19 185.052 19.598C185.268 19.994 185.562 20.3 185.934 20.516C186.306 20.732 186.726 20.84 187.194 20.84ZM194.384 23V9.644H197.192V23H194.384ZM199.798 23V13.316H202.606V23H199.798ZM201.202 11.966C200.686 11.966 200.266 11.816 199.942 11.516C199.618 11.216 199.456 10.844 199.456 10.4C199.456 9.956 199.618 9.584 199.942 9.284C200.266 8.984 200.686 8.834 201.202 8.834C201.718 8.834 202.138 8.978 202.462 9.266C202.786 9.542 202.948 9.902 202.948 10.346C202.948 10.814 202.786 11.204 202.462 11.516C202.15 11.816 201.73 11.966 201.202 11.966ZM211.152 23V21.11L210.972 20.696V17.312C210.972 16.712 210.786 16.244 210.414 15.908C210.054 15.572 209.496 15.404 208.74 15.404C208.224 15.404 207.714 15.488 207.21 15.656C206.718 15.812 206.298 16.028 205.95 16.304L204.942 14.342C205.47 13.97 206.106 13.682 206.85 13.478C207.594 13.274 208.35 13.172 209.118 13.172C210.594 13.172 211.74 13.52 212.556 14.216C213.372 14.912 213.78 15.998 213.78 17.474V23H211.152ZM208.2 23.144C207.444 23.144 206.796 23.018 206.256 22.766C205.716 22.502 205.302 22.148 205.014 21.704C204.726 21.26 204.582 20.762 204.582 20.21C204.582 19.634 204.72 19.13 204.996 18.698C205.284 18.266 205.734 17.93 206.346 17.69C206.958 17.438 207.756 17.312 208.74 17.312H211.314V18.95H209.046C208.386 18.95 207.93 19.058 207.678 19.274C207.438 19.49 207.318 19.76 207.318 20.084C207.318 20.444 207.456 20.732 207.732 20.948C208.02 21.152 208.41 21.254 208.902 21.254C209.37 21.254 209.79 21.146 210.162 20.93C210.534 20.702 210.804 20.372 210.972 19.94L211.404 21.236C211.2 21.86 210.828 22.334 210.288 22.658C209.748 22.982 209.052 23.144 208.2 23.144ZM222.207 13.172C222.975 13.172 223.659 13.328 224.259 13.64C224.871 13.94 225.351 14.408 225.699 15.044C226.047 15.668 226.221 16.472 226.221 17.456V23H223.413V17.888C223.413 17.108 223.239 16.532 222.891 16.16C222.555 15.788 222.075 15.602 221.451 15.602C221.007 15.602 220.605 15.698 220.245 15.89C219.897 16.07 219.621 16.352 219.417 16.736C219.225 17.12 219.129 17.612 219.129 18.212V23H216.321V13.316H219.003V15.998L218.499 15.188C218.847 14.54 219.345 14.042 219.993 13.694C220.641 13.346 221.379 13.172 222.207 13.172ZM233.517 23.144C232.473 23.144 231.543 22.934 230.727 22.514C229.911 22.082 229.269 21.488 228.801 20.732C228.345 19.976 228.117 19.118 228.117 18.158C228.117 17.186 228.345 16.328 228.801 15.584C229.269 14.828 229.911 14.24 230.727 13.82C231.543 13.388 232.473 13.172 233.517 13.172C234.537 13.172 235.425 13.388 236.181 13.82C236.937 14.24 237.495 14.846 237.855 15.638L235.677 16.808C235.425 16.352 235.107 16.016 234.723 15.8C234.351 15.584 233.943 15.476 233.499 15.476C233.019 15.476 232.587 15.584 232.203 15.8C231.819 16.016 231.513 16.322 231.285 16.718C231.069 17.114 230.961 17.594 230.961 18.158C230.961 18.722 231.069 19.202 231.285 19.598C231.513 19.994 231.819 20.3 232.203 20.516C232.587 20.732 233.019 20.84 233.499 20.84C233.943 20.84 234.351 20.738 234.723 20.534C235.107 20.318 235.425 19.976 235.677 19.508L237.855 20.696C237.495 21.476 236.937 22.082 236.181 22.514C235.425 22.934 234.537 23.144 233.517 23.144ZM244.155 23.144C243.051 23.144 242.079 22.928 241.239 22.496C240.411 22.064 239.769 21.476 239.313 20.732C238.857 19.976 238.629 19.118 238.629 18.158C238.629 17.186 238.851 16.328 239.295 15.584C239.751 14.828 240.369 14.24 241.149 13.82C241.929 13.388 242.811 13.172 243.795 13.172C244.743 13.172 245.595 13.376 246.351 13.784C247.119 14.18 247.725 14.756 248.169 15.512C248.613 16.256 248.835 17.15 248.835 18.194C248.835 18.302 248.829 18.428 248.817 18.572C248.805 18.704 248.793 18.83 248.781 18.95H240.915V17.312H247.305L246.225 17.798C246.225 17.294 246.123 16.856 245.919 16.484C245.715 16.112 245.433 15.824 245.073 15.62C244.713 15.404 244.293 15.296 243.813 15.296C243.333 15.296 242.907 15.404 242.535 15.62C242.175 15.824 241.893 16.118 241.689 16.502C241.485 16.874 241.383 17.318 241.383 17.834V18.266C241.383 18.794 241.497 19.262 241.725 19.67C241.965 20.066 242.295 20.372 242.715 20.588C243.147 20.792 243.651 20.894 244.227 20.894C244.743 20.894 245.193 20.816 245.577 20.66C245.973 20.504 246.333 20.27 246.657 19.958L248.151 21.578C247.707 22.082 247.149 22.472 246.477 22.748C245.805 23.012 245.031 23.144 244.155 23.144ZM251.957 17V10.628H249.451V9.44H255.867V10.628H253.361V17H251.957ZM257.244 17V9.44H258.4L261.705 14.9588H261.1L264.351 9.44H265.506L265.517 17H264.189L264.178 11.5244H264.459L261.694 16.136H261.067L258.259 11.5244H258.583V17H257.244Z" fill="#343458"/>
<path d="M44.8425 7H40.4963C40.3042 7 40.1199 7.07654 39.9841 7.21277C39.8483 7.349 39.7719 7.53377 39.7719 7.72644C39.7719 7.9191 39.8483 8.10387 39.9841 8.24011C40.1199 8.37634 40.3042 8.45287 40.4963 8.45287H44.1182V12.0851C44.1182 12.2777 44.1945 12.4625 44.3303 12.5987C44.4662 12.735 44.6504 12.8115 44.8425 12.8115C45.0347 12.8115 45.2189 12.735 45.3547 12.5987C45.4906 12.4625 45.5669 12.2777 45.5669 12.0851V7.72644C45.5669 7.53377 45.4906 7.349 45.3547 7.21277C45.2189 7.07654 45.0347 7 44.8425 7ZM44.8425 15.7172C44.6504 15.7172 44.4662 15.7938 44.3303 15.93C44.1945 16.0663 44.1182 16.251 44.1182 16.4437V20.0759H40.4963C40.3042 20.0759 40.1199 20.1524 39.9841 20.2886C39.8483 20.4249 39.7719 20.6096 39.7719 20.8023C39.7719 20.995 39.8483 21.1797 39.9841 21.316C40.1199 21.4522 40.3042 21.5287 40.4963 21.5287H44.8425C45.0347 21.5287 45.2189 21.4522 45.3547 21.316C45.4906 21.1797 45.5669 20.995 45.5669 20.8023V16.4437C45.5669 16.251 45.4906 16.0663 45.3547 15.93C45.2189 15.7938 45.0347 15.7172 44.8425 15.7172ZM38.3232 9.90575C37.7468 9.90575 37.1941 10.1354 36.7866 10.5441C36.379 10.9528 36.1501 11.5071 36.1501 12.0851V12.8115C35.7658 12.8115 35.3973 12.9646 35.1257 13.237C34.854 13.5095 34.7013 13.879 34.7013 14.2644V17.1701C34.7013 17.5555 34.854 17.925 35.1257 18.1975C35.3973 18.4699 35.7658 18.623 36.1501 18.623H40.4963C40.8805 18.623 41.249 18.4699 41.5207 18.1975C41.7924 17.925 41.9451 17.5555 41.9451 17.1701V14.2644C41.9451 13.879 41.7924 13.5095 41.5207 13.237C41.249 12.9646 40.8805 12.8115 40.4963 12.8115V12.0851C40.4963 11.5071 40.2674 10.9528 39.8598 10.5441C39.4523 10.1354 38.8995 9.90575 38.3232 9.90575ZM37.5988 12.0851C37.5988 11.8924 37.6751 11.7076 37.811 11.5714C37.9468 11.4352 38.1311 11.3586 38.3232 11.3586C38.5153 11.3586 38.6996 11.4352 38.8354 11.5714C38.9712 11.7076 39.0476 11.8924 39.0476 12.0851V12.8115H37.5988V12.0851ZM40.4963 17.1701H36.1501V14.2644H40.4963V17.1701ZM31.8038 12.8115C31.996 12.8115 32.1802 12.735 32.316 12.5987C32.4519 12.4625 32.5282 12.2777 32.5282 12.0851V8.45287H36.1501C36.3422 8.45287 36.5264 8.37634 36.6623 8.24011C36.7981 8.10387 36.8744 7.9191 36.8744 7.72644C36.8744 7.53377 36.7981 7.349 36.6623 7.21277C36.5264 7.07654 36.3422 7 36.1501 7H31.8038C31.6117 7 31.4275 7.07654 31.2916 7.21277C31.1558 7.349 31.0795 7.53377 31.0795 7.72644V12.0851C31.0795 12.2777 31.1558 12.4625 31.2916 12.5987C31.4275 12.735 31.6117 12.8115 31.8038 12.8115ZM36.1501 20.0759H32.5282V16.4437C32.5282 16.251 32.4519 16.0663 32.316 15.93C32.1802 15.7938 31.996 15.7172 31.8038 15.7172C31.6117 15.7172 31.4275 15.7938 31.2916 15.93C31.1558 16.0663 31.0795 16.251 31.0795 16.4437V20.8023C31.0795 20.995 31.1558 21.1797 31.2916 21.316C31.4275 21.4522 31.6117 21.5287 31.8038 21.5287H36.1501C36.3422 21.5287 36.5264 21.4522 36.6623 21.316C36.7981 21.1797 36.8744 20.995 36.8744 20.8023C36.8744 20.6096 36.7981 20.4249 36.6623 20.2886C36.5264 20.1524 36.3422 20.0759 36.1501 20.0759Z" fill="url(#paint1_linear_3670_13486)"/>
<g filter="url(#filter1_b_3670_13486)">
<path fill-rule="evenodd" clip-rule="evenodd" d="M32.483 17.2434C32.483 14.9009 30.584 13.002 28.2415 13.002C25.899 13.002 24 14.9009 24 17.2434V22.0259C24 24.3684 25.899 26.2673 28.2415 26.2673C28.2745 26.2673 28.3075 26.267 28.3404 26.2662C28.3593 26.2664 28.3783 26.2666 28.3973 26.2666H33.1179C35.467 26.2666 37.3714 24.3622 37.3714 22.013C37.3714 19.6638 35.467 17.7594 33.1179 17.7594H32.483V17.2434Z" fill="#9591AF" fill-opacity="0.1"/>
</g>
<defs>
<filter id="filter0_b_3670_13486" x="-6.91487" y="-6.91487" width="297.83" height="43.8297" filterUnits="userSpaceOnUse" color-interpolation-filters="sRGB">
<feFlood flood-opacity="0" result="BackgroundImageFix"/>
<feGaussianBlur in="BackgroundImage" stdDeviation="3.45744"/>
<feComposite in2="SourceAlpha" operator="in" result="effect1_backgroundBlur_3670_13486"/>
<feBlend mode="normal" in="SourceGraphic" in2="effect1_backgroundBlur_3670_13486" result="shape"/>
</filter>
<filter id="filter1_b_3670_13486" x="14.9339" y="3.93587" width="31.5036" height="31.3978" filterUnits="userSpaceOnUse" color-interpolation-filters="sRGB">
<feFlood flood-opacity="0" result="BackgroundImageFix"/>
<feGaussianBlur in="BackgroundImage" stdDeviation="4.53304"/>
<feComposite in2="SourceAlpha" operator="in" result="effect1_backgroundBlur_3670_13486"/>
<feBlend mode="normal" in="SourceGraphic" in2="effect1_backgroundBlur_3670_13486" result="shape"/>
</filter>
<linearGradient id="paint0_linear_3670_13486" x1="162.5" y1="6" x2="162.5" y2="28" gradientUnits="userSpaceOnUse">
<stop stop-color="#282466"/>
<stop offset="1" stop-color="#17143E"/>
</linearGradient>
<linearGradient id="paint1_linear_3670_13486" x1="38.3232" y1="7" x2="38.3232" y2="21.5287" gradientUnits="userSpaceOnUse">
<stop stop-color="#282466"/>
<stop offset="1" stop-color="#17143E"/>
</linearGradient>
</defs>
</svg>
