<svg width="291" height="30" viewBox="0 0 291 30" fill="none" xmlns="http://www.w3.org/2000/svg">
<g filter="url(#filter0_b_3670_12826)">
<rect width="291" height="30" rx="9.21983" fill="#6AE1C1"/>
</g>
<path d="M59.89 23V10.4H65.542C66.994 10.4 68.11 10.694 68.89 11.282C69.67 11.858 70.06 12.65 70.06 13.658C70.06 14.342 69.904 14.918 69.592 15.386C69.292 15.854 68.884 16.214 68.368 16.466C67.852 16.718 67.294 16.844 66.694 16.844L67.018 16.304C67.738 16.304 68.374 16.43 68.926 16.682C69.478 16.934 69.916 17.306 70.24 17.798C70.564 18.278 70.726 18.878 70.726 19.598C70.726 20.678 70.318 21.518 69.502 22.118C68.698 22.706 67.498 23 65.902 23H59.89ZM61.69 21.542H65.83C66.826 21.542 67.588 21.374 68.116 21.038C68.644 20.702 68.908 20.174 68.908 19.454C68.908 18.722 68.644 18.188 68.116 17.852C67.588 17.516 66.826 17.348 65.83 17.348H61.528V15.89H65.38C66.292 15.89 67 15.722 67.504 15.386C68.008 15.05 68.26 14.546 68.26 13.874C68.26 13.202 68.008 12.698 67.504 12.362C67 12.026 66.292 11.858 65.38 11.858H61.69V21.542ZM75.8393 23V11.966H71.5193V10.4H81.9413V11.966H77.6213V23H75.8393Z" fill="url(#paint0_linear_3670_12826)"/>
<path d="M88.6034 23V10.4H94.3274C95.6954 10.4 96.9014 10.664 97.9454 11.192C98.9894 11.708 99.8054 12.434 100.393 13.37C100.981 14.306 101.275 15.416 101.275 16.7C101.275 17.972 100.981 19.082 100.393 20.03C99.8054 20.966 98.9894 21.698 97.9454 22.226C96.9014 22.742 95.6954 23 94.3274 23H88.6034ZM91.5194 20.606H94.1834C95.0234 20.606 95.7494 20.45 96.3614 20.138C96.9854 19.814 97.4654 19.358 97.8014 18.77C98.1494 18.182 98.3234 17.492 98.3234 16.7C98.3234 15.896 98.1494 15.206 97.8014 14.63C97.4654 14.042 96.9854 13.592 96.3614 13.28C95.7494 12.956 95.0234 12.794 94.1834 12.794H91.5194V20.606ZM103.276 23V13.316H106.084V23H103.276ZM104.68 11.966C104.164 11.966 103.744 11.816 103.42 11.516C103.096 11.216 102.934 10.844 102.934 10.4C102.934 9.956 103.096 9.584 103.42 9.284C103.744 8.984 104.164 8.834 104.68 8.834C105.196 8.834 105.616 8.978 105.94 9.266C106.264 9.542 106.426 9.902 106.426 10.346C106.426 10.814 106.264 11.204 105.94 11.516C105.628 11.816 105.208 11.966 104.68 11.966ZM111.949 23.144C111.121 23.144 110.323 23.048 109.555 22.856C108.799 22.652 108.199 22.4 107.755 22.1L108.691 20.084C109.135 20.36 109.657 20.588 110.257 20.768C110.869 20.936 111.469 21.02 112.057 21.02C112.705 21.02 113.161 20.942 113.425 20.786C113.701 20.63 113.839 20.414 113.839 20.138C113.839 19.91 113.731 19.742 113.515 19.634C113.311 19.514 113.035 19.424 112.687 19.364C112.339 19.304 111.955 19.244 111.535 19.184C111.127 19.124 110.713 19.046 110.293 18.95C109.873 18.842 109.489 18.686 109.141 18.482C108.793 18.278 108.511 18.002 108.295 17.654C108.091 17.306 107.989 16.856 107.989 16.304C107.989 15.692 108.163 15.152 108.511 14.684C108.871 14.216 109.387 13.85 110.059 13.586C110.731 13.31 111.535 13.172 112.471 13.172C113.131 13.172 113.803 13.244 114.487 13.388C115.171 13.532 115.741 13.742 116.197 14.018L115.261 16.016C114.793 15.74 114.319 15.554 113.839 15.458C113.371 15.35 112.915 15.296 112.471 15.296C111.847 15.296 111.391 15.38 111.103 15.548C110.815 15.716 110.671 15.932 110.671 16.196C110.671 16.436 110.773 16.616 110.977 16.736C111.193 16.856 111.475 16.952 111.823 17.024C112.171 17.096 112.549 17.162 112.957 17.222C113.377 17.27 113.797 17.348 114.217 17.456C114.637 17.564 115.015 17.72 115.351 17.924C115.699 18.116 115.981 18.386 116.197 18.734C116.413 19.07 116.521 19.514 116.521 20.066C116.521 20.666 116.341 21.2 115.981 21.668C115.621 22.124 115.099 22.484 114.415 22.748C113.743 23.012 112.921 23.144 111.949 23.144ZM122.933 23.144C121.889 23.144 120.959 22.934 120.143 22.514C119.327 22.082 118.685 21.488 118.217 20.732C117.761 19.976 117.533 19.118 117.533 18.158C117.533 17.186 117.761 16.328 118.217 15.584C118.685 14.828 119.327 14.24 120.143 13.82C120.959 13.388 121.889 13.172 122.933 13.172C123.953 13.172 124.841 13.388 125.597 13.82C126.353 14.24 126.911 14.846 127.271 15.638L125.093 16.808C124.841 16.352 124.523 16.016 124.139 15.8C123.767 15.584 123.359 15.476 122.915 15.476C122.435 15.476 122.003 15.584 121.619 15.8C121.235 16.016 120.929 16.322 120.701 16.718C120.485 17.114 120.377 17.594 120.377 18.158C120.377 18.722 120.485 19.202 120.701 19.598C120.929 19.994 121.235 20.3 121.619 20.516C122.003 20.732 122.435 20.84 122.915 20.84C123.359 20.84 123.767 20.738 124.139 20.534C124.523 20.318 124.841 19.976 125.093 19.508L127.271 20.696C126.911 21.476 126.353 22.082 125.597 22.514C124.841 22.934 123.953 23.144 122.933 23.144ZM133.373 23.144C132.341 23.144 131.423 22.928 130.619 22.496C129.827 22.064 129.197 21.476 128.729 20.732C128.273 19.976 128.045 19.118 128.045 18.158C128.045 17.186 128.273 16.328 128.729 15.584C129.197 14.828 129.827 14.24 130.619 13.82C131.423 13.388 132.341 13.172 133.373 13.172C134.393 13.172 135.305 13.388 136.109 13.82C136.913 14.24 137.543 14.822 137.999 15.566C138.455 16.31 138.683 17.174 138.683 18.158C138.683 19.118 138.455 19.976 137.999 20.732C137.543 21.476 136.913 22.064 136.109 22.496C135.305 22.928 134.393 23.144 133.373 23.144ZM133.373 20.84C133.841 20.84 134.261 20.732 134.633 20.516C135.005 20.3 135.299 19.994 135.515 19.598C135.731 19.19 135.839 18.71 135.839 18.158C135.839 17.594 135.731 17.114 135.515 16.718C135.299 16.322 135.005 16.016 134.633 15.8C134.261 15.584 133.841 15.476 133.373 15.476C132.905 15.476 132.485 15.584 132.113 15.8C131.741 16.016 131.441 16.322 131.213 16.718C130.997 17.114 130.889 17.594 130.889 18.158C130.889 18.71 130.997 19.19 131.213 19.598C131.441 19.994 131.741 20.3 132.113 20.516C132.485 20.732 132.905 20.84 133.373 20.84ZM142.924 23L138.856 13.316H141.754L145.138 21.65H143.698L147.208 13.316H149.908L145.822 23H142.924ZM155.596 23.144C154.492 23.144 153.52 22.928 152.68 22.496C151.852 22.064 151.21 21.476 150.754 20.732C150.298 19.976 150.07 19.118 150.07 18.158C150.07 17.186 150.292 16.328 150.736 15.584C151.192 14.828 151.81 14.24 152.59 13.82C153.37 13.388 154.252 13.172 155.236 13.172C156.184 13.172 157.036 13.376 157.792 13.784C158.56 14.18 159.166 14.756 159.61 15.512C160.054 16.256 160.276 17.15 160.276 18.194C160.276 18.302 160.27 18.428 160.258 18.572C160.246 18.704 160.234 18.83 160.222 18.95H152.356V17.312H158.746L157.666 17.798C157.666 17.294 157.564 16.856 157.36 16.484C157.156 16.112 156.874 15.824 156.514 15.62C156.154 15.404 155.734 15.296 155.254 15.296C154.774 15.296 154.348 15.404 153.976 15.62C153.616 15.824 153.334 16.118 153.13 16.502C152.926 16.874 152.824 17.318 152.824 17.834V18.266C152.824 18.794 152.938 19.262 153.166 19.67C153.406 20.066 153.736 20.372 154.156 20.588C154.588 20.792 155.092 20.894 155.668 20.894C156.184 20.894 156.634 20.816 157.018 20.66C157.414 20.504 157.774 20.27 158.098 19.958L159.592 21.578C159.148 22.082 158.59 22.472 157.918 22.748C157.246 23.012 156.472 23.144 155.596 23.144ZM162.146 23V13.316H164.828V16.052L164.45 15.26C164.738 14.576 165.2 14.06 165.836 13.712C166.472 13.352 167.246 13.172 168.158 13.172V15.764C168.038 15.752 167.93 15.746 167.834 15.746C167.738 15.734 167.636 15.728 167.528 15.728C166.76 15.728 166.136 15.95 165.656 16.394C165.188 16.826 164.954 17.504 164.954 18.428V23H162.146ZM171.385 26.636C170.881 26.636 170.383 26.558 169.891 26.402C169.399 26.246 168.997 26.03 168.685 25.754L169.711 23.756C169.927 23.948 170.173 24.098 170.449 24.206C170.737 24.314 171.019 24.368 171.295 24.368C171.691 24.368 172.003 24.272 172.231 24.08C172.471 23.9 172.687 23.594 172.879 23.162L173.383 21.974L173.599 21.668L177.073 13.316H179.773L175.399 23.594C175.087 24.374 174.727 24.986 174.319 25.43C173.923 25.874 173.479 26.186 172.987 26.366C172.507 26.546 171.973 26.636 171.385 26.636ZM173.041 23.378L168.721 13.316H171.619L174.967 21.416L173.041 23.378ZM188.897 15.476H194.963V17.744H188.897V15.476ZM189.113 20.66H195.971V23H186.215V10.4H195.737V12.74H189.113V20.66ZM203.979 13.172C204.747 13.172 205.431 13.328 206.031 13.64C206.643 13.94 207.123 14.408 207.471 15.044C207.819 15.668 207.993 16.472 207.993 17.456V23H205.185V17.888C205.185 17.108 205.011 16.532 204.663 16.16C204.327 15.788 203.847 15.602 203.223 15.602C202.779 15.602 202.377 15.698 202.017 15.89C201.669 16.07 201.393 16.352 201.189 16.736C200.997 17.12 200.901 17.612 200.901 18.212V23H198.093V13.316H200.775V15.998L200.271 15.188C200.619 14.54 201.117 14.042 201.765 13.694C202.413 13.346 203.151 13.172 203.979 13.172ZM215.163 26.636C214.251 26.636 213.369 26.522 212.517 26.294C211.677 26.078 210.975 25.748 210.411 25.304L211.527 23.288C211.935 23.624 212.451 23.888 213.075 24.08C213.711 24.284 214.335 24.386 214.947 24.386C215.943 24.386 216.663 24.164 217.107 23.72C217.563 23.276 217.791 22.616 217.791 21.74V20.282L217.971 17.852L217.935 15.404V13.316H220.599V21.38C220.599 23.18 220.131 24.506 219.195 25.358C218.259 26.21 216.915 26.636 215.163 26.636ZM214.731 22.532C213.831 22.532 213.015 22.34 212.283 21.956C211.563 21.56 210.981 21.014 210.537 20.318C210.105 19.61 209.889 18.788 209.889 17.852C209.889 16.904 210.105 16.082 210.537 15.386C210.981 14.678 211.563 14.132 212.283 13.748C213.015 13.364 213.831 13.172 214.731 13.172C215.547 13.172 216.267 13.34 216.891 13.676C217.515 14 218.001 14.51 218.349 15.206C218.697 15.89 218.871 16.772 218.871 17.852C218.871 18.92 218.697 19.802 218.349 20.498C218.001 21.182 217.515 21.692 216.891 22.028C216.267 22.364 215.547 22.532 214.731 22.532ZM215.289 20.228C215.781 20.228 216.219 20.132 216.603 19.94C216.987 19.736 217.287 19.454 217.503 19.094C217.719 18.734 217.827 18.32 217.827 17.852C217.827 17.372 217.719 16.958 217.503 16.61C217.287 16.25 216.987 15.974 216.603 15.782C216.219 15.578 215.781 15.476 215.289 15.476C214.797 15.476 214.359 15.578 213.975 15.782C213.591 15.974 213.285 16.25 213.057 16.61C212.841 16.958 212.733 17.372 212.733 17.852C212.733 18.32 212.841 18.734 213.057 19.094C213.285 19.454 213.591 19.736 213.975 19.94C214.359 20.132 214.797 20.228 215.289 20.228ZM223.212 23V13.316H226.02V23H223.212ZM224.616 11.966C224.1 11.966 223.68 11.816 223.356 11.516C223.032 11.216 222.87 10.844 222.87 10.4C222.87 9.956 223.032 9.584 223.356 9.284C223.68 8.984 224.1 8.834 224.616 8.834C225.132 8.834 225.552 8.978 225.876 9.266C226.2 9.542 226.362 9.902 226.362 10.346C226.362 10.814 226.2 11.204 225.876 11.516C225.564 11.816 225.144 11.966 224.616 11.966ZM234.512 13.172C235.28 13.172 235.964 13.328 236.564 13.64C237.176 13.94 237.656 14.408 238.004 15.044C238.352 15.668 238.526 16.472 238.526 17.456V23H235.718V17.888C235.718 17.108 235.544 16.532 235.196 16.16C234.86 15.788 234.38 15.602 233.756 15.602C233.312 15.602 232.91 15.698 232.55 15.89C232.202 16.07 231.926 16.352 231.722 16.736C231.53 17.12 231.434 17.612 231.434 18.212V23H228.626V13.316H231.308V15.998L230.804 15.188C231.152 14.54 231.65 14.042 232.298 13.694C232.946 13.346 233.684 13.172 234.512 13.172ZM245.948 23.144C244.844 23.144 243.872 22.928 243.032 22.496C242.204 22.064 241.562 21.476 241.106 20.732C240.65 19.976 240.422 19.118 240.422 18.158C240.422 17.186 240.644 16.328 241.088 15.584C241.544 14.828 242.162 14.24 242.942 13.82C243.722 13.388 244.604 13.172 245.588 13.172C246.536 13.172 247.388 13.376 248.144 13.784C248.912 14.18 249.518 14.756 249.962 15.512C250.406 16.256 250.628 17.15 250.628 18.194C250.628 18.302 250.622 18.428 250.61 18.572C250.598 18.704 250.586 18.83 250.574 18.95H242.708V17.312H249.098L248.018 17.798C248.018 17.294 247.916 16.856 247.712 16.484C247.508 16.112 247.226 15.824 246.866 15.62C246.506 15.404 246.086 15.296 245.606 15.296C245.126 15.296 244.7 15.404 244.328 15.62C243.968 15.824 243.686 16.118 243.482 16.502C243.278 16.874 243.176 17.318 243.176 17.834V18.266C243.176 18.794 243.29 19.262 243.518 19.67C243.758 20.066 244.088 20.372 244.508 20.588C244.94 20.792 245.444 20.894 246.02 20.894C246.536 20.894 246.986 20.816 247.37 20.66C247.766 20.504 248.126 20.27 248.45 19.958L249.944 21.578C249.5 22.082 248.942 22.472 248.27 22.748C247.598 23.012 246.824 23.144 245.948 23.144ZM253.75 17V10.628H251.244V9.44H257.66V10.628H255.154V17H253.75ZM259.037 17V9.44H260.193L263.498 14.9588H262.893L266.144 9.44H267.299L267.31 17H265.982L265.971 11.5244H266.252L263.487 16.136H262.86L260.052 11.5244H260.376V17H259.037Z" fill="#343458"/>
<path d="M33.195 6.75651C34.2085 6.18454 35.3534 5.88391 36.5182 5.88391C37.683 5.88391 38.828 6.18454 39.8414 6.75651C39.9498 6.81904 40.0695 6.8596 40.1937 6.87585C40.3178 6.89211 40.444 6.88373 40.5649 6.8512C40.6858 6.81867 40.7991 6.76264 40.8982 6.68633C40.9972 6.61002 41.0802 6.51494 41.1422 6.40657C41.266 6.1894 41.2985 5.93228 41.2327 5.69131C41.1669 5.45033 41.0081 5.24507 40.7909 5.1203C39.4875 4.38594 38.0156 4 36.5182 4C35.0208 4 33.5489 4.38594 32.2455 5.1203C32.0283 5.24507 31.8695 5.45033 31.8037 5.69131C31.7379 5.93228 31.7704 6.1894 31.8942 6.40657C31.9562 6.51494 32.0392 6.61002 32.1383 6.68633C32.2373 6.76264 32.3506 6.81867 32.4715 6.8512C32.5924 6.88373 32.7186 6.89211 32.8427 6.87585C32.9669 6.8596 33.0866 6.81904 33.195 6.75651ZM42.6139 11.7408C42.5153 11.5096 42.4011 11.2852 42.2721 11.0693C42.2069 10.9628 42.1213 10.8702 42.02 10.7968C41.9188 10.7234 41.8039 10.6706 41.6821 10.6416C41.5604 10.6126 41.434 10.6079 41.3104 10.6277C41.1868 10.6476 41.0683 10.6915 40.9618 10.7572C40.7485 10.8882 40.5958 11.098 40.5371 11.3407C40.4784 11.5834 40.5184 11.8395 40.6485 12.0529C40.7953 12.3049 40.9161 12.5711 41.0093 12.8474C41.0635 13.0099 41.1611 13.1547 41.2915 13.2663C41.422 13.3779 41.5804 13.4521 41.7499 13.481C42.4106 13.5946 43.0099 13.9366 43.4424 14.4469C43.8748 14.9573 44.1127 15.6032 44.1141 16.2711C44.1141 17.0236 43.814 17.7453 43.2798 18.2774C42.7456 18.8095 42.0211 19.1084 41.2656 19.1084H30.4985C30.1111 19.0491 29.7516 18.8717 29.4695 18.6008C29.1873 18.3299 28.9961 17.9786 28.9223 17.5952C28.8653 17.3172 28.8718 17.0299 28.9413 16.7548C29.0108 16.4796 29.1416 16.2235 29.324 16.0055C29.5064 15.7875 29.7356 15.6132 29.9948 15.4955C30.254 15.3777 30.5365 15.3196 30.8213 15.3253C31.0731 15.3253 31.3146 15.2257 31.4927 15.0483C31.6707 14.8709 31.7708 14.6304 31.7708 14.3795C31.7689 13.5521 31.9885 12.7392 32.4069 12.0245C32.4697 11.9166 32.5104 11.7973 32.5267 11.6736C32.5431 11.5499 32.5346 11.4243 32.502 11.3038C32.4693 11.1834 32.4131 11.0706 32.3365 10.9719C32.2599 10.8732 32.1644 10.7906 32.0556 10.7288C31.8376 10.6055 31.5795 10.5731 31.3376 10.6386C31.0956 10.7042 30.8896 10.8624 30.7643 11.0787C30.3197 11.8328 30.0353 12.6697 29.9288 13.5378C29.1366 13.73 28.4275 14.171 27.9064 14.7957C27.4632 15.3141 27.1686 15.9421 27.0539 16.6134C26.9391 17.2847 27.0084 17.9744 27.2544 18.6097C27.5004 19.2451 27.914 19.8025 28.4515 20.2232C28.9891 20.6439 29.6306 20.9123 30.3086 21H30.432H41.2656C42.4044 20.9969 43.5041 20.5861 44.3642 19.8426C45.2242 19.0992 45.7874 18.0725 45.9508 16.9499C46.1143 15.8273 45.8672 14.6836 45.2546 13.7274C44.6421 12.7711 43.7049 12.0661 42.6139 11.7408ZM39.2432 9.6506C39.2432 9.6506 39.2432 9.6506 39.2432 9.59386C39.2924 9.53641 39.3339 9.47282 39.3667 9.4047C39.4566 9.17137 39.4502 8.91207 39.3487 8.68345C39.2473 8.45484 39.0592 8.27551 38.8255 8.18464C38.2944 7.98825 37.7383 7.86726 37.1734 7.82524C37.0784 7.82524 36.9835 7.82524 36.8885 7.82524C36.6325 7.80631 36.3754 7.80631 36.1194 7.82524C36.0214 7.82019 35.9231 7.82019 35.8251 7.82524C35.2602 7.86726 34.704 7.98825 34.173 8.18464C33.9461 8.28268 33.7666 8.46501 33.6726 8.69287C33.5786 8.92072 33.5776 9.17611 33.6697 9.4047C33.7021 9.46796 33.7402 9.52812 33.7837 9.5844C33.7805 9.61901 33.7805 9.65383 33.7837 9.68843C33.8465 9.79602 33.93 9.8902 34.0295 9.96557C34.1289 10.0409 34.2423 10.096 34.3631 10.1276C34.484 10.1593 34.6099 10.1668 34.7337 10.1499C34.8575 10.133 34.9767 10.0918 35.0845 10.0289C35.5199 9.78707 36.0102 9.66011 36.5087 9.66011C37.0073 9.66011 37.4975 9.78707 37.9329 10.0289C38.0434 10.0918 38.1655 10.132 38.2918 10.147C38.4182 10.162 38.5463 10.1515 38.6685 10.1162C38.7908 10.081 38.9046 10.0215 39.0034 9.94156C39.1021 9.86157 39.1837 9.76262 39.2432 9.6506ZM35.5687 12.488C35.5687 12.675 35.6244 12.8579 35.7287 13.0134C35.8331 13.1689 35.9814 13.2902 36.1549 13.3617C36.3284 13.4333 36.5193 13.4521 36.7034 13.4156C36.8876 13.3791 37.0568 13.289 37.1896 13.1567C37.3224 13.0245 37.4128 12.8559 37.4494 12.6725C37.4861 12.489 37.4673 12.2988 37.3954 12.126C37.3236 11.9532 37.2019 11.8055 37.0457 11.7016C36.8896 11.5976 36.706 11.5422 36.5182 11.5422C36.2664 11.5422 36.0249 11.6418 35.8468 11.8192C35.6688 11.9966 35.5687 12.2371 35.5687 12.488Z" fill="#343458"/>
<g filter="url(#filter1_b_3670_12826)">
<ellipse cx="28.5" cy="19" rx="7.5" ry="8" fill="#9591AF" fill-opacity="0.1"/>
</g>
<defs>
<filter id="filter0_b_3670_12826" x="-6.91487" y="-6.91487" width="304.83" height="43.8297" filterUnits="userSpaceOnUse" color-interpolation-filters="sRGB">
<feFlood flood-opacity="0" result="BackgroundImageFix"/>
<feGaussianBlur in="BackgroundImage" stdDeviation="3.45744"/>
<feComposite in2="SourceAlpha" operator="in" result="effect1_backgroundBlur_3670_12826"/>
<feBlend mode="normal" in="SourceGraphic" in2="effect1_backgroundBlur_3670_12826" result="shape"/>
</filter>
<filter id="filter1_b_3670_12826" x="14.0749" y="4.07491" width="28.8502" height="29.8502" filterUnits="userSpaceOnUse" color-interpolation-filters="sRGB">
<feFlood flood-opacity="0" result="BackgroundImageFix"/>
<feGaussianBlur in="BackgroundImage" stdDeviation="3.46254"/>
<feComposite in2="SourceAlpha" operator="in" result="effect1_backgroundBlur_3670_12826"/>
<feBlend mode="normal" in="SourceGraphic" in2="effect1_backgroundBlur_3670_12826" result="shape"/>
</filter>
<linearGradient id="paint0_linear_3670_12826" x1="163.5" y1="6" x2="163.5" y2="28" gradientUnits="userSpaceOnUse">
<stop stop-color="#282466"/>
<stop offset="1" stop-color="#17143E"/>
</linearGradient>
</defs>
</svg>
