<svg width="252" height="32" viewBox="0 0 252 32" fill="none" xmlns="http://www.w3.org/2000/svg">
<g filter="url(#filter0_b_3670_12158)">
<rect width="252" height="32" rx="9.21983" fill="#FFDA44"/>
</g>
<path d="M29.0672 4.4679C28.9279 4.31964 28.7621 4.20196 28.5794 4.12165C28.3967 4.04135 28.2008 4 28.0029 4C27.805 4 27.6091 4.04135 27.4264 4.12165C27.2437 4.20196 27.0779 4.31964 26.9386 4.4679L19.4434 12.3769C19.3029 12.524 19.1914 12.6989 19.1153 12.8917C19.0392 13.0844 19 13.2912 19 13.5C19 13.7088 19.0392 13.9156 19.1153 14.1083C19.1914 14.3011 19.3029 14.476 19.4434 14.6231L26.9386 22.5321C27.0779 22.6804 27.2437 22.798 27.4264 22.8783C27.6091 22.9587 27.805 23 28.0029 23C28.2008 23 28.3967 22.9587 28.5794 22.8783C28.7621 22.798 28.9279 22.6804 29.0672 22.5321C29.2077 22.3851 29.3192 22.2101 29.3953 22.0173C29.4714 21.8246 29.5106 21.6178 29.5106 21.409C29.5106 21.2002 29.4714 20.9935 29.3953 20.8007C29.3192 20.6079 29.2077 20.433 29.0672 20.2859L22.6214 13.5L29.0672 6.71406C29.2077 6.56701 29.3192 6.39206 29.3953 6.1993C29.4714 6.00654 29.5106 5.79979 29.5106 5.59098C29.5106 5.38216 29.4714 5.17541 29.3953 4.98265C29.3192 4.78989 29.2077 4.61494 29.0672 4.4679ZM45.5566 12.3769L38.0614 4.4679C37.9216 4.32041 37.7557 4.20342 37.5731 4.1236C37.3905 4.04378 37.1948 4.0027 36.9971 4.0027C36.5979 4.0027 36.2151 4.17004 35.9328 4.4679C35.793 4.61538 35.6821 4.79047 35.6065 4.98317C35.5309 5.17587 35.4919 5.3824 35.4919 5.59098C35.4919 6.01221 35.6505 6.4162 35.9328 6.71406L42.3786 13.5L35.9328 20.2859C35.7923 20.433 35.6808 20.6079 35.6047 20.8007C35.5286 20.9935 35.4894 21.2002 35.4894 21.409C35.4894 21.6178 35.5286 21.8246 35.6047 22.0173C35.6808 22.2101 35.7923 22.3851 35.9328 22.5321C36.0721 22.6804 36.2379 22.798 36.4206 22.8783C36.6033 22.9587 36.7992 23 36.9971 23C37.195 23 37.3909 22.9587 37.5736 22.8783C37.7563 22.798 37.9221 22.6804 38.0614 22.5321L45.5566 14.6231C45.6971 14.476 45.8086 14.3011 45.8847 14.1083C45.9608 13.9156 46 13.7088 46 13.5C46 13.2912 45.9608 13.0844 45.8847 12.8917C45.8086 12.6989 45.6971 12.524 45.5566 12.3769Z" fill="url(#paint0_linear_3670_12158)"/>
<g filter="url(#filter1_b_3670_12158)">
<rect x="11" y="12" width="20" height="18" rx="9" fill="#9591AF" fill-opacity="0.1"/>
</g>
<path d="M59.89 23V10.4H65.542C66.994 10.4 68.11 10.694 68.89 11.282C69.67 11.858 70.06 12.65 70.06 13.658C70.06 14.342 69.904 14.918 69.592 15.386C69.292 15.854 68.884 16.214 68.368 16.466C67.852 16.718 67.294 16.844 66.694 16.844L67.018 16.304C67.738 16.304 68.374 16.43 68.926 16.682C69.478 16.934 69.916 17.306 70.24 17.798C70.564 18.278 70.726 18.878 70.726 19.598C70.726 20.678 70.318 21.518 69.502 22.118C68.698 22.706 67.498 23 65.902 23H59.89ZM61.69 21.542H65.83C66.826 21.542 67.588 21.374 68.116 21.038C68.644 20.702 68.908 20.174 68.908 19.454C68.908 18.722 68.644 18.188 68.116 17.852C67.588 17.516 66.826 17.348 65.83 17.348H61.528V15.89H65.38C66.292 15.89 67 15.722 67.504 15.386C68.008 15.05 68.26 14.546 68.26 13.874C68.26 13.202 68.008 12.698 67.504 12.362C67 12.026 66.292 11.858 65.38 11.858H61.69V21.542ZM75.8393 23V11.966H71.5193V10.4H81.9413V11.966H77.6213V23H75.8393Z" fill="url(#paint1_linear_3670_12158)"/>
<path d="M94.6334 23.216C93.6614 23.216 92.7554 23.06 91.9154 22.748C91.0874 22.424 90.3674 21.968 89.7554 21.38C89.1434 20.792 88.6634 20.102 88.3154 19.31C87.9794 18.518 87.8114 17.648 87.8114 16.7C87.8114 15.752 87.9794 14.882 88.3154 14.09C88.6634 13.298 89.1434 12.608 89.7554 12.02C90.3794 11.432 91.1054 10.982 91.9334 10.67C92.7614 10.346 93.6674 10.184 94.6514 10.184C95.7434 10.184 96.7274 10.376 97.6034 10.76C98.4914 11.132 99.2354 11.684 99.8354 12.416L97.9634 14.144C97.5314 13.652 97.0514 13.286 96.5234 13.046C95.9954 12.794 95.4194 12.668 94.7954 12.668C94.2074 12.668 93.6674 12.764 93.1754 12.956C92.6834 13.148 92.2574 13.424 91.8974 13.784C91.5374 14.144 91.2554 14.57 91.0514 15.062C90.8594 15.554 90.7634 16.1 90.7634 16.7C90.7634 17.3 90.8594 17.846 91.0514 18.338C91.2554 18.83 91.5374 19.256 91.8974 19.616C92.2574 19.976 92.6834 20.252 93.1754 20.444C93.6674 20.636 94.2074 20.732 94.7954 20.732C95.4194 20.732 95.9954 20.612 96.5234 20.372C97.0514 20.12 97.5314 19.742 97.9634 19.238L99.8354 20.966C99.2354 21.698 98.4914 22.256 97.6034 22.64C96.7274 23.024 95.7374 23.216 94.6334 23.216ZM105.881 23.144C104.849 23.144 103.931 22.928 103.127 22.496C102.335 22.064 101.705 21.476 101.237 20.732C100.781 19.976 100.553 19.118 100.553 18.158C100.553 17.186 100.781 16.328 101.237 15.584C101.705 14.828 102.335 14.24 103.127 13.82C103.931 13.388 104.849 13.172 105.881 13.172C106.901 13.172 107.813 13.388 108.617 13.82C109.421 14.24 110.051 14.822 110.507 15.566C110.963 16.31 111.191 17.174 111.191 18.158C111.191 19.118 110.963 19.976 110.507 20.732C110.051 21.476 109.421 22.064 108.617 22.496C107.813 22.928 106.901 23.144 105.881 23.144ZM105.881 20.84C106.349 20.84 106.769 20.732 107.141 20.516C107.513 20.3 107.807 19.994 108.023 19.598C108.239 19.19 108.347 18.71 108.347 18.158C108.347 17.594 108.239 17.114 108.023 16.718C107.807 16.322 107.513 16.016 107.141 15.8C106.769 15.584 106.349 15.476 105.881 15.476C105.413 15.476 104.993 15.584 104.621 15.8C104.249 16.016 103.949 16.322 103.721 16.718C103.505 17.114 103.397 17.594 103.397 18.158C103.397 18.71 103.505 19.19 103.721 19.598C103.949 19.994 104.249 20.3 104.621 20.516C104.993 20.732 105.413 20.84 105.881 20.84ZM117.225 23.144C116.313 23.144 115.491 22.94 114.759 22.532C114.027 22.112 113.445 21.53 113.013 20.786C112.593 20.042 112.383 19.166 112.383 18.158C112.383 17.138 112.593 16.256 113.013 15.512C113.445 14.768 114.027 14.192 114.759 13.784C115.491 13.376 116.313 13.172 117.225 13.172C118.041 13.172 118.755 13.352 119.367 13.712C119.979 14.072 120.453 14.618 120.789 15.35C121.125 16.082 121.293 17.018 121.293 18.158C121.293 19.286 121.131 20.222 120.807 20.966C120.483 21.698 120.015 22.244 119.403 22.604C118.803 22.964 118.077 23.144 117.225 23.144ZM117.711 20.84C118.167 20.84 118.581 20.732 118.953 20.516C119.325 20.3 119.619 19.994 119.835 19.598C120.063 19.19 120.177 18.71 120.177 18.158C120.177 17.594 120.063 17.114 119.835 16.718C119.619 16.322 119.325 16.016 118.953 15.8C118.581 15.584 118.167 15.476 117.711 15.476C117.243 15.476 116.823 15.584 116.451 15.8C116.079 16.016 115.779 16.322 115.551 16.718C115.335 17.114 115.227 17.594 115.227 18.158C115.227 18.71 115.335 19.19 115.551 19.598C115.779 19.994 116.079 20.3 116.451 20.516C116.823 20.732 117.243 20.84 117.711 20.84ZM120.249 23V21.02L120.303 18.14L120.123 15.278V9.644H122.931V23H120.249ZM130.336 23.144C129.232 23.144 128.26 22.928 127.42 22.496C126.592 22.064 125.95 21.476 125.494 20.732C125.038 19.976 124.81 19.118 124.81 18.158C124.81 17.186 125.032 16.328 125.476 15.584C125.932 14.828 126.55 14.24 127.33 13.82C128.11 13.388 128.992 13.172 129.976 13.172C130.924 13.172 131.776 13.376 132.532 13.784C133.3 14.18 133.906 14.756 134.35 15.512C134.794 16.256 135.016 17.15 135.016 18.194C135.016 18.302 135.01 18.428 134.998 18.572C134.986 18.704 134.974 18.83 134.962 18.95H127.096V17.312H133.486L132.406 17.798C132.406 17.294 132.304 16.856 132.1 16.484C131.896 16.112 131.614 15.824 131.254 15.62C130.894 15.404 130.474 15.296 129.994 15.296C129.514 15.296 129.088 15.404 128.716 15.62C128.356 15.824 128.074 16.118 127.87 16.502C127.666 16.874 127.564 17.318 127.564 17.834V18.266C127.564 18.794 127.678 19.262 127.906 19.67C128.146 20.066 128.476 20.372 128.896 20.588C129.328 20.792 129.832 20.894 130.408 20.894C130.924 20.894 131.374 20.816 131.758 20.66C132.154 20.504 132.514 20.27 132.838 19.958L134.332 21.578C133.888 22.082 133.33 22.472 132.658 22.748C131.986 23.012 131.212 23.144 130.336 23.144ZM142.182 23V10.4H147.636C148.764 10.4 149.736 10.586 150.552 10.958C151.368 11.318 151.998 11.84 152.442 12.524C152.886 13.208 153.108 14.024 153.108 14.972C153.108 15.908 152.886 16.718 152.442 17.402C151.998 18.086 151.368 18.614 150.552 18.986C149.736 19.346 148.764 19.526 147.636 19.526H143.802L145.098 18.212V23H142.182ZM145.098 18.536L143.802 17.15H147.474C148.374 17.15 149.046 16.958 149.49 16.574C149.934 16.19 150.156 15.656 150.156 14.972C150.156 14.276 149.934 13.736 149.49 13.352C149.046 12.968 148.374 12.776 147.474 12.776H143.802L145.098 11.39V18.536ZM155.167 23V9.644H157.975V23H155.167ZM164.667 23.144C163.863 23.144 163.143 22.988 162.507 22.676C161.883 22.364 161.397 21.89 161.049 21.254C160.701 20.606 160.527 19.784 160.527 18.788V13.316H163.335V18.374C163.335 19.178 163.503 19.772 163.839 20.156C164.187 20.528 164.673 20.714 165.297 20.714C165.729 20.714 166.113 20.624 166.449 20.444C166.785 20.252 167.049 19.964 167.241 19.58C167.433 19.184 167.529 18.692 167.529 18.104V13.316H170.337V23H167.673V20.336L168.159 21.11C167.835 21.782 167.355 22.292 166.719 22.64C166.095 22.976 165.411 23.144 164.667 23.144ZM177.493 26.636C176.581 26.636 175.699 26.522 174.847 26.294C174.007 26.078 173.305 25.748 172.741 25.304L173.857 23.288C174.265 23.624 174.781 23.888 175.405 24.08C176.041 24.284 176.665 24.386 177.277 24.386C178.273 24.386 178.993 24.164 179.437 23.72C179.893 23.276 180.121 22.616 180.121 21.74V20.282L180.301 17.852L180.265 15.404V13.316H182.929V21.38C182.929 23.18 182.461 24.506 181.525 25.358C180.589 26.21 179.245 26.636 177.493 26.636ZM177.061 22.532C176.161 22.532 175.345 22.34 174.613 21.956C173.893 21.56 173.311 21.014 172.867 20.318C172.435 19.61 172.219 18.788 172.219 17.852C172.219 16.904 172.435 16.082 172.867 15.386C173.311 14.678 173.893 14.132 174.613 13.748C175.345 13.364 176.161 13.172 177.061 13.172C177.877 13.172 178.597 13.34 179.221 13.676C179.845 14 180.331 14.51 180.679 15.206C181.027 15.89 181.201 16.772 181.201 17.852C181.201 18.92 181.027 19.802 180.679 20.498C180.331 21.182 179.845 21.692 179.221 22.028C178.597 22.364 177.877 22.532 177.061 22.532ZM177.619 20.228C178.111 20.228 178.549 20.132 178.933 19.94C179.317 19.736 179.617 19.454 179.833 19.094C180.049 18.734 180.157 18.32 180.157 17.852C180.157 17.372 180.049 16.958 179.833 16.61C179.617 16.25 179.317 15.974 178.933 15.782C178.549 15.578 178.111 15.476 177.619 15.476C177.127 15.476 176.689 15.578 176.305 15.782C175.921 15.974 175.615 16.25 175.387 16.61C175.171 16.958 175.063 17.372 175.063 17.852C175.063 18.32 175.171 18.734 175.387 19.094C175.615 19.454 175.921 19.736 176.305 19.94C176.689 20.132 177.127 20.228 177.619 20.228ZM185.542 23V13.316H188.35V23H185.542ZM186.946 11.966C186.43 11.966 186.01 11.816 185.686 11.516C185.362 11.216 185.2 10.844 185.2 10.4C185.2 9.956 185.362 9.584 185.686 9.284C186.01 8.984 186.43 8.834 186.946 8.834C187.462 8.834 187.882 8.978 188.206 9.266C188.53 9.542 188.692 9.902 188.692 10.346C188.692 10.814 188.53 11.204 188.206 11.516C187.894 11.816 187.474 11.966 186.946 11.966ZM196.842 13.172C197.61 13.172 198.294 13.328 198.894 13.64C199.506 13.94 199.986 14.408 200.334 15.044C200.682 15.668 200.856 16.472 200.856 17.456V23H198.048V17.888C198.048 17.108 197.874 16.532 197.526 16.16C197.19 15.788 196.71 15.602 196.086 15.602C195.642 15.602 195.24 15.698 194.88 15.89C194.532 16.07 194.256 16.352 194.052 16.736C193.86 17.12 193.764 17.612 193.764 18.212V23H190.956V13.316H193.638V15.998L193.134 15.188C193.482 14.54 193.98 14.042 194.628 13.694C195.276 13.346 196.014 13.172 196.842 13.172ZM206.659 23.144C205.831 23.144 205.033 23.048 204.265 22.856C203.509 22.652 202.909 22.4 202.465 22.1L203.401 20.084C203.845 20.36 204.367 20.588 204.967 20.768C205.579 20.936 206.179 21.02 206.767 21.02C207.415 21.02 207.871 20.942 208.135 20.786C208.411 20.63 208.549 20.414 208.549 20.138C208.549 19.91 208.441 19.742 208.225 19.634C208.021 19.514 207.745 19.424 207.397 19.364C207.049 19.304 206.665 19.244 206.245 19.184C205.837 19.124 205.423 19.046 205.003 18.95C204.583 18.842 204.199 18.686 203.851 18.482C203.503 18.278 203.221 18.002 203.005 17.654C202.801 17.306 202.699 16.856 202.699 16.304C202.699 15.692 202.873 15.152 203.221 14.684C203.581 14.216 204.097 13.85 204.769 13.586C205.441 13.31 206.245 13.172 207.181 13.172C207.841 13.172 208.513 13.244 209.197 13.388C209.881 13.532 210.451 13.742 210.907 14.018L209.971 16.016C209.503 15.74 209.029 15.554 208.549 15.458C208.081 15.35 207.625 15.296 207.181 15.296C206.557 15.296 206.101 15.38 205.813 15.548C205.525 15.716 205.381 15.932 205.381 16.196C205.381 16.436 205.483 16.616 205.687 16.736C205.903 16.856 206.185 16.952 206.533 17.024C206.881 17.096 207.259 17.162 207.667 17.222C208.087 17.27 208.507 17.348 208.927 17.456C209.347 17.564 209.725 17.72 210.061 17.924C210.409 18.116 210.691 18.386 210.907 18.734C211.123 19.07 211.231 19.514 211.231 20.066C211.231 20.666 211.051 21.2 210.691 21.668C210.331 22.124 209.809 22.484 209.125 22.748C208.453 23.012 207.631 23.144 206.659 23.144ZM214.217 17V10.628H211.711V9.44H218.126V10.628H215.621V17H214.217ZM219.504 17V9.44H220.66L223.964 14.9588H223.36L226.61 9.44H227.766L227.777 17H226.448L226.438 11.5244H226.718L223.954 16.136H223.327L220.519 11.5244H220.843V17H219.504Z" fill="#343458"/>
<defs>
<filter id="filter0_b_3670_12158" x="-6.91487" y="-6.91487" width="265.83" height="45.8297" filterUnits="userSpaceOnUse" color-interpolation-filters="sRGB">
<feFlood flood-opacity="0" result="BackgroundImageFix"/>
<feGaussianBlur in="BackgroundImage" stdDeviation="3.45744"/>
<feComposite in2="SourceAlpha" operator="in" result="effect1_backgroundBlur_3670_12158"/>
<feBlend mode="normal" in="SourceGraphic" in2="effect1_backgroundBlur_3670_12158" result="shape"/>
</filter>
<filter id="filter1_b_3670_12158" x="4.08513" y="5.08513" width="33.8297" height="31.8297" filterUnits="userSpaceOnUse" color-interpolation-filters="sRGB">
<feFlood flood-opacity="0" result="BackgroundImageFix"/>
<feGaussianBlur in="BackgroundImage" stdDeviation="3.45744"/>
<feComposite in2="SourceAlpha" operator="in" result="effect1_backgroundBlur_3670_12158"/>
<feBlend mode="normal" in="SourceGraphic" in2="effect1_backgroundBlur_3670_12158" result="shape"/>
</filter>
<linearGradient id="paint0_linear_3670_12158" x1="32.5" y1="4" x2="32.5" y2="23" gradientUnits="userSpaceOnUse">
<stop stop-color="#282466"/>
<stop offset="1" stop-color="#17143E"/>
</linearGradient>
<linearGradient id="paint1_linear_3670_12158" x1="144" y1="6" x2="144" y2="28" gradientUnits="userSpaceOnUse">
<stop stop-color="#282466"/>
<stop offset="1" stop-color="#17143E"/>
</linearGradient>
</defs>
</svg>
