<svg width="174" height="30" viewBox="0 0 174 30" fill="none" xmlns="http://www.w3.org/2000/svg">
<g filter="url(#filter0_b_3670_14145)">
<rect width="174" height="30" rx="9.21983" fill="#BCF165"/>
</g>
<path d="M59.89 23V10.4H65.542C66.994 10.4 68.11 10.694 68.89 11.282C69.67 11.858 70.06 12.65 70.06 13.658C70.06 14.342 69.904 14.918 69.592 15.386C69.292 15.854 68.884 16.214 68.368 16.466C67.852 16.718 67.294 16.844 66.694 16.844L67.018 16.304C67.738 16.304 68.374 16.43 68.926 16.682C69.478 16.934 69.916 17.306 70.24 17.798C70.564 18.278 70.726 18.878 70.726 19.598C70.726 20.678 70.318 21.518 69.502 22.118C68.698 22.706 67.498 23 65.902 23H59.89ZM61.69 21.542H65.83C66.826 21.542 67.588 21.374 68.116 21.038C68.644 20.702 68.908 20.174 68.908 19.454C68.908 18.722 68.644 18.188 68.116 17.852C67.588 17.516 66.826 17.348 65.83 17.348H61.528V15.89H65.38C66.292 15.89 67 15.722 67.504 15.386C68.008 15.05 68.26 14.546 68.26 13.874C68.26 13.202 68.008 12.698 67.504 12.362C67 12.026 66.292 11.858 65.38 11.858H61.69V21.542ZM75.8393 23V11.966H71.5193V10.4H81.9413V11.966H77.6213V23H75.8393ZM92.3834 23L86.9474 10.4H90.0974L94.8494 21.56H92.9954L97.8194 10.4H100.717L95.2634 23H92.3834ZM106.791 23V21.11L106.611 20.696V17.312C106.611 16.712 106.425 16.244 106.053 15.908C105.693 15.572 105.135 15.404 104.379 15.404C103.863 15.404 103.353 15.488 102.849 15.656C102.357 15.812 101.937 16.028 101.589 16.304L100.581 14.342C101.109 13.97 101.745 13.682 102.489 13.478C103.233 13.274 103.989 13.172 104.757 13.172C106.233 13.172 107.379 13.52 108.195 14.216C109.011 14.912 109.419 15.998 109.419 17.474V23H106.791ZM103.839 23.144C103.083 23.144 102.435 23.018 101.895 22.766C101.355 22.502 100.941 22.148 100.653 21.704C100.365 21.26 100.221 20.762 100.221 20.21C100.221 19.634 100.359 19.13 100.635 18.698C100.923 18.266 101.373 17.93 101.985 17.69C102.597 17.438 103.395 17.312 104.379 17.312H106.953V18.95H104.685C104.025 18.95 103.569 19.058 103.317 19.274C103.077 19.49 102.957 19.76 102.957 20.084C102.957 20.444 103.095 20.732 103.371 20.948C103.659 21.152 104.049 21.254 104.541 21.254C105.009 21.254 105.429 21.146 105.801 20.93C106.173 20.702 106.443 20.372 106.611 19.94L107.043 21.236C106.839 21.86 106.467 22.334 105.927 22.658C105.387 22.982 104.691 23.144 103.839 23.144ZM116.046 23.144C115.242 23.144 114.522 22.988 113.886 22.676C113.262 22.364 112.776 21.89 112.428 21.254C112.08 20.606 111.906 19.784 111.906 18.788V13.316H114.714V18.374C114.714 19.178 114.882 19.772 115.218 20.156C115.566 20.528 116.052 20.714 116.676 20.714C117.108 20.714 117.492 20.624 117.828 20.444C118.164 20.252 118.428 19.964 118.62 19.58C118.812 19.184 118.908 18.692 118.908 18.104V13.316H121.716V23H119.052V20.336L119.538 21.11C119.214 21.782 118.734 22.292 118.098 22.64C117.474 22.976 116.79 23.144 116.046 23.144ZM124.317 23V9.644H127.125V23H124.317ZM134.412 23.144C133.272 23.144 132.384 22.856 131.748 22.28C131.112 21.692 130.794 20.822 130.794 19.67V11.174H133.602V19.634C133.602 20.042 133.71 20.36 133.926 20.588C134.142 20.804 134.436 20.912 134.808 20.912C135.252 20.912 135.63 20.792 135.942 20.552L136.698 22.532C136.41 22.736 136.062 22.892 135.654 23C135.258 23.096 134.844 23.144 134.412 23.144ZM129.3 15.692V13.532H136.014V15.692H129.3Z" fill="url(#paint0_linear_3670_14145)"/>
<path d="M139.527 17V10.628H137.022V9.44H143.437V10.628H140.931V17H139.527ZM144.815 17V9.44H145.97L149.275 14.9588H148.67L151.921 9.44H153.077L153.087 17H151.759L151.748 11.5244H152.029L149.264 16.136H148.638L145.83 11.5244H146.154V17H144.815Z" fill="#343458"/>
<path d="M32.25 17.75C32.0893 17.75 31.9322 17.7999 31.7986 17.8933C31.665 17.9866 31.5608 18.1194 31.4993 18.2747C31.4379 18.43 31.4218 18.6009 31.4531 18.7658C31.4845 18.9307 31.5618 19.0822 31.6755 19.201C31.7891 19.3199 31.9339 19.4009 32.0915 19.4337C32.2491 19.4665 32.4125 19.4496 32.5609 19.3853C32.7094 19.321 32.8363 19.212 32.9256 19.0722C33.0148 18.9325 33.0625 18.7681 33.0625 18.6C33.0625 18.3746 32.9769 18.1584 32.8245 17.999C32.6722 17.8396 32.4655 17.75 32.25 17.75ZM32.25 12.65C32.0893 12.65 31.9322 12.6999 31.7986 12.7933C31.665 12.8867 31.5608 13.0194 31.4993 13.1747C31.4379 13.33 31.4218 13.5009 31.4531 13.6658C31.4845 13.8307 31.5618 13.9822 31.6755 14.101C31.7891 14.2199 31.9339 14.3009 32.0915 14.3337C32.2491 14.3665 32.4125 14.3496 32.5609 14.2853C32.7094 14.221 32.8363 14.112 32.9256 13.9722C33.0148 13.8325 33.0625 13.6681 33.0625 13.5C33.0625 13.2746 32.9769 13.0584 32.8245 12.899C32.6722 12.7396 32.4655 12.65 32.25 12.65ZM38.75 5H32.25C31.388 5 30.5614 5.35821 29.9519 5.99584C29.3424 6.63346 29 7.49826 29 8.4V18.6C29 19.5017 29.3424 20.3665 29.9519 21.0042C30.5614 21.6418 31.388 22 32.25 22H38.75C39.612 22 40.4386 21.6418 41.0481 21.0042C41.6576 20.3665 42 19.5017 42 18.6V8.4C42 7.49826 41.6576 6.63346 41.0481 5.99584C40.4386 5.35821 39.612 5 38.75 5ZM40.375 18.6C40.375 19.0509 40.2038 19.4833 39.899 19.8021C39.5943 20.1209 39.181 20.3 38.75 20.3H32.25C31.819 20.3 31.4057 20.1209 31.101 19.8021C30.7962 19.4833 30.625 19.0509 30.625 18.6V16.424C31.1157 16.733 31.6772 16.8975 32.25 16.9H38.75C39.3228 16.8975 39.8843 16.733 40.375 16.424V18.6ZM40.375 13.5C40.375 13.9509 40.2038 14.3833 39.899 14.7021C39.5943 15.0209 39.181 15.2 38.75 15.2H32.25C31.819 15.2 31.4057 15.0209 31.101 14.7021C30.7962 14.3833 30.625 13.9509 30.625 13.5V11.324C31.1157 11.633 31.6772 11.7975 32.25 11.8H38.75C39.3228 11.7975 39.8843 11.633 40.375 11.324V13.5ZM38.75 10.1H32.25C31.819 10.1 31.4057 9.92089 31.101 9.60208C30.7962 9.28327 30.625 8.85087 30.625 8.4C30.625 7.94913 30.7962 7.51673 31.101 7.19792C31.4057 6.87911 31.819 6.7 32.25 6.7H38.75C39.181 6.7 39.5943 6.87911 39.899 7.19792C40.2038 7.51673 40.375 7.94913 40.375 8.4C40.375 8.85087 40.2038 9.28327 39.899 9.60208C39.5943 9.92089 39.181 10.1 38.75 10.1Z" fill="url(#paint1_linear_3670_14145)"/>
<g filter="url(#filter1_b_3670_14145)">
<path d="M31.1868 19.5C32.1882 19.5 33.0216 20.3234 32.7819 21.2956C32.5277 22.3265 32.0557 23.2986 31.3899 24.1432C30.3469 25.4662 28.8889 26.3995 27.2508 26.7928C25.6127 27.186 23.8899 27.0164 22.3601 26.3111C20.8302 25.6058 19.5823 24.406 18.8175 22.9049C18.0526 21.4039 17.8155 19.6891 18.1441 18.0368C18.4728 16.3846 19.3481 14.891 20.6291 13.797C21.9102 12.7029 23.5222 12.0719 25.2056 12.0058C26.2802 11.9636 27.344 12.1531 28.3275 12.5534C29.255 12.9309 29.4312 14.0891 28.8426 14.8993L27.5917 16.621C26.7209 17.8196 27.5771 19.5 29.0586 19.5H31.1868Z" fill="#9591AF" fill-opacity="0.1"/>
</g>
<defs>
<filter id="filter0_b_3670_14145" x="-6.91487" y="-6.91487" width="187.83" height="43.8297" filterUnits="userSpaceOnUse" color-interpolation-filters="sRGB">
<feFlood flood-opacity="0" result="BackgroundImageFix"/>
<feGaussianBlur in="BackgroundImage" stdDeviation="3.45744"/>
<feComposite in2="SourceAlpha" operator="in" result="effect1_backgroundBlur_3670_14145"/>
<feBlend mode="normal" in="SourceGraphic" in2="effect1_backgroundBlur_3670_14145" result="shape"/>
</filter>
<filter id="filter1_b_3670_14145" x="8.93392" y="2.93392" width="32.9557" height="33.1322" filterUnits="userSpaceOnUse" color-interpolation-filters="sRGB">
<feFlood flood-opacity="0" result="BackgroundImageFix"/>
<feGaussianBlur in="BackgroundImage" stdDeviation="4.53304"/>
<feComposite in2="SourceAlpha" operator="in" result="effect1_backgroundBlur_3670_14145"/>
<feBlend mode="normal" in="SourceGraphic" in2="effect1_backgroundBlur_3670_14145" result="shape"/>
</filter>
<linearGradient id="paint0_linear_3670_14145" x1="106.5" y1="6" x2="106.5" y2="28" gradientUnits="userSpaceOnUse">
<stop stop-color="#282466"/>
<stop offset="1" stop-color="#17143E"/>
</linearGradient>
<linearGradient id="paint1_linear_3670_14145" x1="35.5" y1="5" x2="35.5" y2="22" gradientUnits="userSpaceOnUse">
<stop stop-color="#282466"/>
<stop offset="1" stop-color="#17143E"/>
</linearGradient>
</defs>
</svg>
