<svg width="772" height="349" viewBox="0 0 772 349" fill="none" xmlns="http://www.w3.org/2000/svg">
<g filter="url(#filter0_b_3428_11507)">
<path d="M118.387 142.254C118.387 135.926 113.258 130.797 106.93 130.797H11.4569C5.12943 130.797 3.8147e-05 135.926 3.8147e-05 142.254V154.665C3.8147e-05 160.993 5.12943 166.122 11.4569 166.122H118.387V142.254Z" fill="#D3D2E1" fill-opacity="0.7"/>
</g>
<path d="M21.1272 144.189H22.6166V152.209H21.1272V144.189ZM24.8707 144.189H28.3765C29.2319 144.189 29.9919 144.357 30.6564 144.693C31.3209 145.022 31.8364 145.491 32.203 146.102C32.5697 146.706 32.753 147.405 32.753 148.199C32.753 148.993 32.5697 149.696 32.203 150.307C31.8364 150.911 31.3209 151.38 30.6564 151.716C29.9919 152.045 29.2319 152.209 28.3765 152.209H24.8707V144.189ZM28.3077 150.949C28.8958 150.949 29.4114 150.838 29.8544 150.616C30.305 150.387 30.6487 150.067 30.8855 149.654C31.1299 149.234 31.2521 148.749 31.2521 148.199C31.2521 147.649 31.1299 147.168 30.8855 146.756C30.6487 146.335 30.305 146.015 29.8544 145.793C29.4114 145.564 28.8958 145.449 28.3077 145.449H26.3601V150.949H28.3077ZM40.4357 150.96V152.209H34.4208V144.189H40.2753V145.438H35.9102V147.523H39.7826V148.749H35.9102V150.96H40.4357ZM48.7316 144.189C49.4267 144.189 50.03 144.304 50.5418 144.533C51.0612 144.762 51.4583 145.09 51.7333 145.518C52.0083 145.946 52.1457 146.454 52.1457 147.042C52.1457 147.622 52.0083 148.13 51.7333 148.566C51.4583 148.993 51.0612 149.322 50.5418 149.551C50.03 149.78 49.4267 149.895 48.7316 149.895H46.9214V152.209H45.432V144.189H48.7316ZM48.6629 148.634C49.3121 148.634 49.8047 148.497 50.1408 148.222C50.4769 147.947 50.6449 147.554 50.6449 147.042C50.6449 146.53 50.4769 146.137 50.1408 145.862C49.8047 145.587 49.3121 145.449 48.6629 145.449H46.9214V148.634H48.6629ZM53.7179 144.189H55.2073V150.949H59.4005V152.209H53.7179V144.189ZM63.9979 152.324C62.8904 152.324 62.0273 152.014 61.4086 151.396C60.7899 150.769 60.4806 149.876 60.4806 148.715V144.189H61.97V148.657C61.97 150.231 62.6498 151.017 64.0093 151.017C65.3612 151.017 66.0372 150.231 66.0372 148.657V144.189H67.5036V148.715C67.5036 149.876 67.1943 150.769 66.5756 151.396C65.9646 152.014 65.1053 152.324 63.9979 152.324ZM75.1507 148.107H76.5599V151.304C76.1475 151.632 75.6663 151.884 75.1164 152.06C74.5664 152.236 74.0012 152.324 73.4207 152.324C72.6035 152.324 71.8664 152.148 71.2096 151.797C70.5527 151.438 70.0372 150.945 69.6629 150.319C69.2887 149.692 69.1015 148.986 69.1015 148.199C69.1015 147.412 69.2887 146.706 69.6629 146.08C70.0372 145.453 70.5527 144.964 71.2096 144.613C71.8741 144.254 72.6188 144.075 73.4437 144.075C74.1158 144.075 74.7268 144.185 75.2768 144.407C75.8267 144.628 76.2888 144.953 76.663 145.381L75.7236 146.297C75.1125 145.686 74.3755 145.381 73.5124 145.381C72.9472 145.381 72.4431 145.499 72.0001 145.736C71.5647 145.973 71.221 146.305 70.969 146.733C70.7246 147.16 70.6024 147.649 70.6024 148.199C70.6024 148.734 70.7246 149.215 70.969 149.643C71.221 150.07 71.5647 150.406 72.0001 150.651C72.4431 150.895 72.9434 151.017 73.5009 151.017C74.1273 151.017 74.6772 150.88 75.1507 150.605V148.107ZM78.6092 144.189H80.0986V152.209H78.6092V144.189ZM89.4788 144.189V152.209H88.2529L83.8305 146.778V152.209H82.3526V144.189H83.5785L88.0008 149.62V144.189H89.4788ZM94.1987 152.324C93.58 152.324 92.9805 152.236 92.4 152.06C91.8272 151.884 91.3727 151.651 91.0366 151.361L91.5522 150.204C91.8806 150.464 92.2816 150.678 92.7552 150.846C93.2363 151.006 93.7175 151.086 94.1987 151.086C94.7945 151.086 95.2375 150.991 95.5277 150.8C95.8256 150.609 95.9745 150.357 95.9745 150.044C95.9745 149.815 95.8905 149.627 95.7225 149.482C95.5621 149.33 95.3559 149.211 95.1038 149.127C94.8518 149.043 94.508 148.948 94.0727 148.841C93.4617 148.696 92.9652 148.55 92.5833 148.405C92.209 148.26 91.8844 148.035 91.6095 147.729C91.3421 147.416 91.2085 146.996 91.2085 146.469C91.2085 146.026 91.3269 145.625 91.5636 145.266C91.8081 144.9 92.1709 144.609 92.652 144.395C93.1409 144.182 93.7366 144.075 94.4393 144.075C94.9281 144.075 95.4093 144.136 95.8829 144.258C96.3564 144.38 96.765 144.556 97.1087 144.785L96.639 145.942C96.2877 145.736 95.9211 145.579 95.5392 145.472C95.1573 145.365 94.7868 145.312 94.4279 145.312C93.8397 145.312 93.4006 145.411 93.1103 145.61C92.8277 145.808 92.6864 146.072 92.6864 146.4C92.6864 146.63 92.7666 146.817 92.927 146.962C93.095 147.107 93.3051 147.221 93.5571 147.305C93.8092 147.389 94.1529 147.485 94.5882 147.592C95.184 147.729 95.6728 147.874 96.0547 148.027C96.4366 148.172 96.7612 148.398 97.0286 148.703C97.3035 149.009 97.441 149.421 97.441 149.941C97.441 150.384 97.3188 150.785 97.0744 151.143C96.8376 151.502 96.4748 151.789 95.986 152.003C95.4972 152.217 94.9014 152.324 94.1987 152.324Z" fill="#19191F"/>
<g filter="url(#filter1_b_3428_11507)">
<path d="M153.719 248.23C153.719 241.903 148.59 236.773 142.262 236.773H25.7848C19.4573 236.773 14.3279 241.903 14.3279 248.23V260.642C14.3279 266.969 19.4573 272.099 25.7847 272.099H153.719V248.23Z" fill="#D3D2E1" fill-opacity="0.7"/>
</g>
<path d="M38.0655 254.174H39.4747V257.37C39.0623 257.699 38.5811 257.951 38.0311 258.126C37.4812 258.302 36.916 258.39 36.3355 258.39C35.5183 258.39 34.7812 258.214 34.1244 257.863C33.4675 257.504 32.9519 257.011 32.5777 256.385C32.2034 255.759 32.0163 255.052 32.0163 254.266C32.0163 253.479 32.2034 252.772 32.5777 252.146C32.9519 251.52 33.4675 251.031 34.1244 250.68C34.7889 250.321 35.5336 250.141 36.3584 250.141C37.0306 250.141 37.6416 250.252 38.1915 250.473C38.7415 250.695 39.2036 251.019 39.5778 251.447L38.6384 252.364C38.0273 251.753 37.2903 251.447 36.4272 251.447C35.862 251.447 35.3579 251.566 34.9149 251.802C34.4795 252.039 34.1358 252.371 33.8838 252.799C33.6394 253.227 33.5172 253.716 33.5172 254.266C33.5172 254.8 33.6394 255.281 33.8838 255.709C34.1358 256.137 34.4795 256.473 34.9149 256.717C35.3579 256.962 35.8582 257.084 36.4157 257.084C37.042 257.084 37.592 256.946 38.0655 256.671V254.174ZM41.4391 250.256H44.9449C45.8003 250.256 46.5603 250.424 47.2248 250.76C47.8893 251.088 48.4048 251.558 48.7715 252.169C49.1381 252.772 49.3214 253.471 49.3214 254.266C49.3214 255.06 49.1381 255.763 48.7715 256.374C48.4048 256.977 47.8893 257.447 47.2248 257.783C46.5603 258.111 45.8003 258.275 44.9449 258.275H41.4391V250.256ZM44.8761 257.015C45.4643 257.015 45.9798 256.904 46.4228 256.683C46.8735 256.454 47.2172 256.133 47.4539 255.721C47.6983 255.3 47.8205 254.815 47.8205 254.266C47.8205 253.716 47.6983 253.234 47.4539 252.822C47.2172 252.402 46.8735 252.081 46.4228 251.86C45.9798 251.63 45.4643 251.516 44.8761 251.516H42.9285V257.015H44.8761ZM54.204 250.256C54.899 250.256 55.5024 250.37 56.0141 250.599C56.5335 250.828 56.9307 251.157 57.2057 251.585C57.4806 252.012 57.6181 252.52 57.6181 253.108C57.6181 253.689 57.4806 254.197 57.2057 254.632C56.9307 255.06 56.5335 255.388 56.0141 255.617C55.5024 255.847 54.899 255.961 54.204 255.961H52.3938V258.275H50.9044V250.256H54.204ZM54.1352 254.701C54.7844 254.701 55.2771 254.563 55.6132 254.288C55.9492 254.013 56.1173 253.62 56.1173 253.108C56.1173 252.597 55.9492 252.203 55.6132 251.928C55.2771 251.653 54.7844 251.516 54.1352 251.516H52.3938V254.701H54.1352ZM64.3527 258.275L62.7143 255.927C62.6456 255.934 62.5425 255.938 62.405 255.938H60.5948V258.275H59.1054V250.256H62.405C63.1 250.256 63.7034 250.37 64.2152 250.599C64.7345 250.828 65.1317 251.157 65.4067 251.585C65.6816 252.012 65.8191 252.52 65.8191 253.108C65.8191 253.712 65.6702 254.231 65.3723 254.666C65.0821 255.102 64.662 255.426 64.1121 255.64L65.9566 258.275H64.3527ZM64.3183 253.108C64.3183 252.597 64.1503 252.203 63.8142 251.928C63.4781 251.653 62.9855 251.516 62.3363 251.516H60.5948V254.712H62.3363C62.9855 254.712 63.4781 254.575 63.8142 254.3C64.1503 254.017 64.3183 253.62 64.3183 253.108ZM73.9513 250.256C74.6464 250.256 75.2498 250.37 75.7615 250.599C76.2809 250.828 76.678 251.157 76.953 251.585C77.228 252.012 77.3655 252.52 77.3655 253.108C77.3655 253.689 77.228 254.197 76.953 254.632C76.678 255.06 76.2809 255.388 75.7615 255.617C75.2498 255.847 74.6464 255.961 73.9513 255.961H72.1411V258.275H70.6518V250.256H73.9513ZM73.8826 254.701C74.5318 254.701 75.0244 254.563 75.3605 254.288C75.6966 254.013 75.8646 253.62 75.8646 253.108C75.8646 252.597 75.6966 252.203 75.3605 251.928C75.0244 251.653 74.5318 251.516 73.8826 251.516H72.1411V254.701H73.8826ZM78.8528 250.256H80.3422V258.275H78.8528V250.256ZM82.5114 250.256H84.0008V258.275H82.5114V250.256ZM96.6686 250.256L93.1743 258.275H91.7078L88.202 250.256H89.8174L92.4869 256.442L95.1792 250.256H96.6686ZM102.459 256.419H98.4491L97.6585 258.275H96.1233L99.7322 250.256H101.199L104.819 258.275H103.261L102.459 256.419ZM101.966 255.251L100.454 251.745L98.9532 255.251H101.966ZM109.12 258.39C108.012 258.39 107.149 258.081 106.53 257.462C105.912 256.836 105.602 255.942 105.602 254.781V250.256H107.092V254.724C107.092 256.297 107.772 257.084 109.131 257.084C110.483 257.084 111.159 256.297 111.159 254.724V250.256H112.625V254.781C112.625 255.942 112.316 256.836 111.697 257.462C111.086 258.081 110.227 258.39 109.12 258.39ZM114.711 250.256H116.201V257.015H120.394V258.275H114.711V250.256ZM122.447 251.516H119.789V250.256H126.594V251.516H123.936V258.275H122.447V251.516Z" fill="#19191F"/>
<g filter="url(#filter2_b_3428_11507)">
<path d="M166.125 50.5994C166.125 44.272 160.995 39.1426 154.668 39.1426H47.7376C41.4102 39.1426 36.2808 44.272 36.2808 50.5994V63.011C36.2808 69.3384 41.4102 74.4678 47.7376 74.4678H166.125V50.5994Z" fill="#D3D2E1" fill-opacity="0.7"/>
</g>
<path d="M62.8651 60.5547L62.8536 55.2387L60.2185 59.6381H59.554L56.919 55.3075V60.5547H55.4983V52.5349H56.7242L59.9092 57.8509L63.0369 52.5349H64.2628L64.2743 60.5547H62.8651ZM71.7268 58.6987H67.7169L66.9263 60.5547H65.3911L69 52.5349H70.4665L74.0869 60.5547H72.5287L71.7268 58.6987ZM71.2341 57.5301L69.7218 54.0243L68.221 57.5301H71.2341ZM80.4389 60.5547L78.8005 58.206C78.7318 58.2137 78.6287 58.2175 78.4912 58.2175H76.681V60.5547H75.1916V52.5349H78.4912C79.1863 52.5349 79.7897 52.6495 80.3014 52.8786C80.8208 53.1078 81.2179 53.4362 81.4929 53.8639C81.7679 54.2916 81.9053 54.7995 81.9053 55.3877C81.9053 55.9911 81.7564 56.5104 81.4585 56.9458C81.1683 57.3811 80.7482 57.7058 80.1983 57.9196L82.0428 60.5547H80.4389ZM80.4045 55.3877C80.4045 54.8759 80.2365 54.4826 79.9004 54.2076C79.5643 53.9326 79.0717 53.7952 78.4225 53.7952H76.681V56.9916H78.4225C79.0717 56.9916 79.5643 56.8541 79.9004 56.5792C80.2365 56.2966 80.4045 55.8994 80.4045 55.3877ZM86.4177 57.1978L85.1459 58.5039V60.5547H83.6566V52.5349H85.1459V56.6479L89.11 52.5349H90.7827L87.4144 56.1209L90.9889 60.5547H89.2475L86.4177 57.1978ZM98.1027 59.3059V60.5547H92.0879V52.5349H97.9423V53.7837H93.5773V55.8688H97.4497V57.0947H93.5773V59.3059H98.1027ZM101.475 53.7952H98.8168V52.5349H105.622V53.7952H102.964V60.5547H101.475V53.7952ZM113.376 52.5349C114.071 52.5349 114.674 52.6495 115.186 52.8786C115.705 53.1078 116.102 53.4362 116.377 53.8639C116.652 54.2916 116.79 54.7995 116.79 55.3877C116.79 55.9681 116.652 56.4761 116.377 56.9114C116.102 57.3391 115.705 57.6676 115.186 57.8967C114.674 58.1258 114.071 58.2404 113.376 58.2404H111.565V60.5547H110.076V52.5349H113.376ZM113.307 56.9802C113.956 56.9802 114.449 56.8427 114.785 56.5677C115.121 56.2927 115.289 55.8994 115.289 55.3877C115.289 54.8759 115.121 54.4826 114.785 54.2076C114.449 53.9326 113.956 53.7952 113.307 53.7952H111.565V56.9802H113.307ZM118.362 52.5349H119.851V59.2944H124.044V60.5547H118.362V52.5349ZM130.562 58.6987H126.553L125.762 60.5547H124.227L127.836 52.5349H129.302L132.923 60.5547H131.364L130.562 58.6987ZM130.07 57.5301L128.558 54.0243L127.057 57.5301H130.07ZM137.628 60.6693C136.818 60.6693 136.085 60.4936 135.428 60.1422C134.779 59.7833 134.267 59.2906 133.893 58.6643C133.526 58.038 133.343 57.3315 133.343 56.5448C133.343 55.7581 133.53 55.0516 133.904 54.4253C134.278 53.799 134.79 53.3102 135.439 52.9588C136.096 52.5998 136.829 52.4203 137.639 52.4203C138.296 52.4203 138.895 52.5349 139.438 52.764C139.98 52.9932 140.438 53.3254 140.813 53.7608L139.85 54.6659C139.27 54.0396 138.556 53.7264 137.708 53.7264C137.158 53.7264 136.665 53.8486 136.23 54.093C135.794 54.3298 135.455 54.6621 135.21 55.0898C134.966 55.5175 134.843 56.0025 134.843 56.5448C134.843 57.0871 134.966 57.5721 135.21 57.9998C135.455 58.4275 135.794 58.7636 136.23 59.008C136.665 59.2448 137.158 59.3632 137.708 59.3632C138.556 59.3632 139.27 59.0462 139.85 58.4123L140.813 59.3288C140.438 59.7642 139.976 60.0964 139.426 60.3256C138.884 60.5547 138.284 60.6693 137.628 60.6693ZM148.339 59.3059V60.5547H142.324V52.5349H148.179V53.7837H143.814V55.8688H147.686V57.0947H143.814V59.3059H148.339Z" fill="#19191F"/>
<g filter="url(#filter3_b_3428_11507)">
<path d="M638.719 160.394C638.719 154.067 643.848 148.938 650.176 148.938H715.098C721.425 148.938 726.555 154.067 726.555 160.394V172.806C726.555 179.133 721.425 184.263 715.098 184.263H638.719V160.394Z" fill="#69CA94"/>
</g>
<path d="M658.418 162.42C659.128 162.42 659.743 162.538 660.262 162.775C660.789 163.012 661.194 163.348 661.477 163.783C661.759 164.218 661.901 164.734 661.901 165.33C661.901 165.918 661.759 166.433 661.477 166.876C661.194 167.312 660.789 167.648 660.262 167.885C659.743 168.114 659.128 168.228 658.418 168.228H656.802V170.439H654.946V162.42H658.418ZM658.315 166.716C658.872 166.716 659.296 166.598 659.586 166.361C659.877 166.116 660.022 165.773 660.022 165.33C660.022 164.879 659.877 164.535 659.586 164.299C659.296 164.054 658.872 163.932 658.315 163.932H656.802V166.716H658.315ZM663.226 162.42H665.082V170.439H663.226V162.42ZM666.985 162.42H668.841V170.439H666.985V162.42ZM681.699 162.42L678.228 170.439H676.395L672.935 162.42H674.94L677.38 168.148L679.855 162.42H681.699ZM687.382 168.721H683.658L682.948 170.439H681.046L684.621 162.42H686.454L690.04 170.439H688.092L687.382 168.721ZM686.798 167.312L685.526 164.241L684.254 167.312H686.798ZM694.267 170.577C693.121 170.577 692.228 170.26 691.586 169.626C690.952 168.992 690.635 168.087 690.635 166.911V162.42H692.491V166.842C692.491 168.278 693.087 168.996 694.279 168.996C694.859 168.996 695.302 168.824 695.608 168.48C695.913 168.129 696.066 167.583 696.066 166.842V162.42H697.899V166.911C697.899 168.087 697.578 168.992 696.937 169.626C696.303 170.26 695.413 170.577 694.267 170.577ZM699.733 162.42H701.589V168.927H705.61V170.439H699.733V162.42ZM707.559 163.932H704.993V162.42H711.981V163.932H709.415V170.439H707.559V163.932Z" fill="white"/>
<g filter="url(#filter4_b_3428_11507)">
<path d="M575.708 98.3377C575.708 92.0103 580.837 86.8809 587.164 86.8809H759.971C766.299 86.8809 771.428 92.0103 771.428 98.3377V110.749C771.428 117.077 766.299 122.206 759.971 122.206H575.708V98.3377Z" fill="#D3D2E1" fill-opacity="0.7"/>
</g>
<path d="M597.789 100.363H601.294C602.15 100.363 602.91 100.531 603.574 100.867C604.239 101.196 604.754 101.665 605.121 102.276C605.488 102.88 605.671 103.579 605.671 104.373C605.671 105.167 605.488 105.87 605.121 106.481C604.754 107.084 604.239 107.554 603.574 107.89C602.91 108.219 602.15 108.383 601.294 108.383H597.789V100.363ZM601.226 107.123C601.814 107.123 602.329 107.012 602.772 106.79C603.223 106.561 603.567 106.24 603.803 105.828C604.048 105.408 604.17 104.923 604.17 104.373C604.17 103.823 604.048 103.342 603.803 102.929C603.567 102.509 603.223 102.188 602.772 101.967C602.329 101.738 601.814 101.623 601.226 101.623H599.278V107.123H601.226ZM612.343 106.527H608.334L607.543 108.383H606.008L609.617 100.363H611.083L614.704 108.383H613.145L612.343 106.527ZM611.851 105.358L610.338 101.852L608.838 105.358H611.851ZM616.948 101.623H614.29V100.363H621.095V101.623H618.437V108.383H616.948V101.623ZM627.011 106.527H623.001L622.211 108.383H620.676L624.285 100.363H625.751L629.371 108.383H627.813L627.011 106.527ZM626.519 105.358L625.006 101.852L623.506 105.358H626.519ZM638.805 108.383L637.167 106.034C637.098 106.042 636.995 106.046 636.857 106.046H635.047V108.383H633.558V100.363H636.857C637.552 100.363 638.156 100.478 638.667 100.707C639.187 100.936 639.584 101.264 639.859 101.692C640.134 102.12 640.271 102.628 640.271 103.216C640.271 103.819 640.122 104.339 639.825 104.774C639.534 105.209 639.114 105.534 638.564 105.748L640.409 108.383H638.805ZM638.77 103.216C638.77 102.704 638.602 102.311 638.266 102.036C637.93 101.761 637.438 101.623 636.788 101.623H635.047V104.82H636.788C637.438 104.82 637.93 104.682 638.266 104.407C638.602 104.125 638.77 103.728 638.77 103.216ZM647.952 107.134V108.383H641.938V100.363H647.792V101.612H643.427V103.697H647.299V104.923H643.427V107.134H647.952ZM652.099 108.497C651.48 108.497 650.881 108.41 650.3 108.234C649.727 108.058 649.273 107.825 648.937 107.535L649.452 106.378C649.781 106.638 650.182 106.851 650.655 107.019C651.137 107.18 651.618 107.26 652.099 107.26C652.695 107.26 653.138 107.165 653.428 106.974C653.726 106.783 653.875 106.531 653.875 106.217C653.875 105.988 653.791 105.801 653.623 105.656C653.462 105.503 653.256 105.385 653.004 105.301C652.752 105.217 652.408 105.121 651.973 105.015C651.362 104.869 650.865 104.724 650.484 104.579C650.109 104.434 649.785 104.209 649.51 103.903C649.242 103.59 649.109 103.17 649.109 102.643C649.109 102.2 649.227 101.799 649.464 101.44C649.708 101.073 650.071 100.783 650.552 100.569C651.041 100.355 651.637 100.248 652.34 100.248C652.828 100.248 653.31 100.31 653.783 100.432C654.257 100.554 654.665 100.73 655.009 100.959L654.539 102.116C654.188 101.91 653.821 101.753 653.439 101.646C653.058 101.539 652.687 101.486 652.328 101.486C651.74 101.486 651.301 101.585 651.011 101.784C650.728 101.982 650.587 102.246 650.587 102.574C650.587 102.803 650.667 102.99 650.827 103.136C650.995 103.281 651.205 103.395 651.457 103.479C651.709 103.563 652.053 103.659 652.489 103.766C653.084 103.903 653.573 104.048 653.955 104.201C654.337 104.346 654.661 104.572 654.929 104.877C655.204 105.183 655.341 105.595 655.341 106.114C655.341 106.557 655.219 106.958 654.975 107.317C654.738 107.676 654.375 107.963 653.886 108.177C653.397 108.39 652.802 108.497 652.099 108.497ZM656.818 100.363H658.307V108.383H656.818V100.363ZM660.477 100.363H663.982C664.838 100.363 665.598 100.531 666.262 100.867C666.927 101.196 667.442 101.665 667.809 102.276C668.176 102.88 668.359 103.579 668.359 104.373C668.359 105.167 668.176 105.87 667.809 106.481C667.442 107.084 666.927 107.554 666.262 107.89C665.598 108.219 664.838 108.383 663.982 108.383H660.477V100.363ZM663.914 107.123C664.502 107.123 665.017 107.012 665.46 106.79C665.911 106.561 666.255 106.24 666.492 105.828C666.736 105.408 666.858 104.923 666.858 104.373C666.858 103.823 666.736 103.342 666.492 102.929C666.255 102.509 665.911 102.188 665.46 101.967C665.017 101.738 664.502 101.623 663.914 101.623H661.966V107.123H663.914ZM675.957 107.134V108.383H669.942V100.363H675.796V101.612H671.431V103.697H675.304V104.923H671.431V107.134H675.957ZM684.743 100.363V108.383H683.517L679.095 102.952V108.383H677.617V100.363H678.843L683.265 105.794V100.363H684.743ZM690.604 108.497C689.795 108.497 689.061 108.322 688.405 107.97C687.755 107.611 687.244 107.119 686.869 106.492C686.503 105.866 686.319 105.16 686.319 104.373C686.319 103.586 686.507 102.88 686.881 102.253C687.255 101.627 687.767 101.138 688.416 100.787C689.073 100.428 689.806 100.248 690.616 100.248C691.273 100.248 691.872 100.363 692.414 100.592C692.957 100.821 693.415 101.154 693.789 101.589L692.827 102.494C692.246 101.868 691.532 101.555 690.684 101.555C690.135 101.555 689.642 101.677 689.207 101.921C688.771 102.158 688.431 102.49 688.187 102.918C687.942 103.346 687.82 103.831 687.82 104.373C687.82 104.915 687.942 105.4 688.187 105.828C688.431 106.256 688.771 106.592 689.207 106.836C689.642 107.073 690.135 107.191 690.684 107.191C691.532 107.191 692.246 106.874 692.827 106.24L693.789 107.157C693.415 107.592 692.953 107.925 692.403 108.154C691.861 108.383 691.261 108.497 690.604 108.497ZM698.564 105.553V108.383H697.075V105.576L693.924 100.363H695.517L697.866 104.27L700.237 100.363H701.704L698.564 105.553ZM711.86 107.134V108.383H705.845V100.363H711.7V101.612H707.335V103.697H711.207V104.923H707.335V107.134H711.86ZM720.647 100.363V108.383H719.421L714.998 102.952V108.383H713.52V100.363H714.746L719.169 105.794V100.363H720.647ZM728.272 104.281H729.681V107.478C729.269 107.806 728.787 108.058 728.238 108.234C727.688 108.41 727.122 108.497 726.542 108.497C725.725 108.497 724.988 108.322 724.331 107.97C723.674 107.611 723.158 107.119 722.784 106.492C722.41 105.866 722.223 105.16 722.223 104.373C722.223 103.586 722.41 102.88 722.784 102.253C723.158 101.627 723.674 101.138 724.331 100.787C724.995 100.428 725.74 100.248 726.565 100.248C727.237 100.248 727.848 100.359 728.398 100.581C728.948 100.802 729.41 101.127 729.784 101.555L728.845 102.471C728.234 101.86 727.497 101.555 726.634 101.555C726.068 101.555 725.564 101.673 725.121 101.91C724.686 102.146 724.342 102.479 724.09 102.906C723.846 103.334 723.724 103.823 723.724 104.373C723.724 104.908 723.846 105.389 724.09 105.816C724.342 106.244 724.686 106.58 725.121 106.825C725.564 107.069 726.065 107.191 726.622 107.191C727.248 107.191 727.798 107.054 728.272 106.779V104.281ZM731.645 100.363H733.135V108.383H731.645V100.363ZM742.43 100.363V108.383H741.204L736.782 102.952V108.383H735.304V100.363H736.53L740.952 105.794V100.363H742.43ZM750.594 107.134V108.383H744.579V100.363H750.434V101.612H746.069V103.697H749.941V104.923H746.069V107.134H750.594Z" fill="#19191F"/>
<g filter="url(#filter5_b_3428_11507)">
<path d="M590.029 220.543C590.029 214.215 595.158 209.086 601.486 209.086H706.507C712.834 209.086 717.963 214.215 717.963 220.543V232.954C717.963 239.282 712.834 244.411 706.506 244.411H590.029V220.543Z" fill="#D3D2E1" fill-opacity="0.7"/>
</g>
<path d="M615.822 230.702C615.012 230.702 614.279 230.527 613.622 230.175C612.973 229.816 612.461 229.324 612.087 228.698C611.72 228.071 611.537 227.365 611.537 226.578C611.537 225.791 611.724 225.085 612.098 224.458C612.472 223.832 612.984 223.343 613.633 222.992C614.29 222.633 615.024 222.454 615.833 222.454C616.49 222.454 617.09 222.568 617.632 222.797C618.174 223.026 618.632 223.359 619.007 223.794L618.044 224.699C617.464 224.073 616.75 223.76 615.902 223.76C615.352 223.76 614.859 223.882 614.424 224.126C613.989 224.363 613.649 224.695 613.404 225.123C613.16 225.551 613.038 226.036 613.038 226.578C613.038 227.12 613.16 227.605 613.404 228.033C613.649 228.461 613.989 228.797 614.424 229.041C614.859 229.278 615.352 229.396 615.902 229.396C616.75 229.396 617.464 229.079 618.044 228.445L619.007 229.362C618.632 229.797 618.17 230.13 617.62 230.359C617.078 230.588 616.479 230.702 615.822 230.702ZM624.012 230.702C623.195 230.702 622.458 230.527 621.801 230.175C621.144 229.816 620.629 229.324 620.254 228.698C619.88 228.064 619.693 227.357 619.693 226.578C619.693 225.799 619.88 225.096 620.254 224.47C620.629 223.836 621.144 223.343 621.801 222.992C622.458 222.633 623.195 222.454 624.012 222.454C624.83 222.454 625.567 222.633 626.223 222.992C626.88 223.343 627.396 223.832 627.77 224.458C628.144 225.085 628.332 225.791 628.332 226.578C628.332 227.365 628.144 228.071 627.77 228.698C627.396 229.324 626.88 229.816 626.223 230.175C625.567 230.527 624.83 230.702 624.012 230.702ZM624.012 229.396C624.547 229.396 625.028 229.278 625.456 229.041C625.884 228.797 626.22 228.461 626.464 228.033C626.708 227.598 626.831 227.113 626.831 226.578C626.831 226.043 626.708 225.562 626.464 225.134C626.22 224.699 625.884 224.363 625.456 224.126C625.028 223.882 624.547 223.76 624.012 223.76C623.478 223.76 622.996 223.882 622.569 224.126C622.141 224.363 621.805 224.699 621.561 225.134C621.316 225.562 621.194 226.043 621.194 226.578C621.194 227.113 621.316 227.598 621.561 228.033C621.805 228.461 622.141 228.797 622.569 229.041C622.996 229.278 623.478 229.396 624.012 229.396ZM637.277 230.588L637.266 225.272L634.63 229.671H633.966L631.331 225.341V230.588H629.91V222.568H631.136L634.321 227.884L637.449 222.568H638.675L638.686 230.588H637.277ZM644.152 222.568C644.847 222.568 645.45 222.683 645.962 222.912C646.482 223.141 646.879 223.469 647.154 223.897C647.429 224.325 647.566 224.833 647.566 225.421C647.566 226.001 647.429 226.509 647.154 226.945C646.879 227.372 646.482 227.701 645.962 227.93C645.45 228.159 644.847 228.274 644.152 228.274H642.342V230.588H640.852V222.568H644.152ZM644.083 227.013C644.732 227.013 645.225 226.876 645.561 226.601C645.897 226.326 646.065 225.933 646.065 225.421C646.065 224.909 645.897 224.516 645.561 224.241C645.225 223.966 644.732 223.828 644.083 223.828H642.342V227.013H644.083ZM649.053 222.568H650.543V229.328H654.736V230.588H649.053V222.568ZM661.169 228.732H657.159L656.369 230.588H654.834L658.442 222.568H659.909L663.529 230.588H661.971L661.169 228.732ZM660.677 227.563L659.164 224.058L657.663 227.563H660.677ZM664.549 222.568H666.039V230.588H664.549V222.568ZM675.334 222.568V230.588H674.108L669.686 225.157V230.588H668.208V222.568H669.434L673.856 227.999V222.568H675.334ZM681.195 230.702C680.385 230.702 679.652 230.527 678.995 230.175C678.346 229.816 677.834 229.324 677.46 228.698C677.093 228.071 676.91 227.365 676.91 226.578C676.91 225.791 677.097 225.085 677.471 224.458C677.846 223.832 678.357 223.343 679.007 222.992C679.664 222.633 680.397 222.454 681.206 222.454C681.863 222.454 682.463 222.568 683.005 222.797C683.547 223.026 684.006 223.359 684.38 223.794L683.418 224.699C682.837 224.073 682.123 223.76 681.275 223.76C680.725 223.76 680.233 223.882 679.797 224.126C679.362 224.363 679.022 224.695 678.778 225.123C678.533 225.551 678.411 226.036 678.411 226.578C678.411 227.12 678.533 227.605 678.778 228.033C679.022 228.461 679.362 228.797 679.797 229.041C680.233 229.278 680.725 229.396 681.275 229.396C682.123 229.396 682.837 229.079 683.418 228.445L684.38 229.362C684.006 229.797 683.544 230.13 682.994 230.359C682.451 230.588 681.852 230.702 681.195 230.702ZM691.822 229.339V230.588H685.807V222.568H691.661V223.817H687.296V225.902H691.169V227.128H687.296V229.339H691.822ZM695.968 230.702C695.35 230.702 694.75 230.615 694.17 230.439C693.597 230.263 693.142 230.03 692.806 229.74L693.322 228.583C693.65 228.843 694.051 229.056 694.525 229.225C695.006 229.385 695.487 229.465 695.968 229.465C696.564 229.465 697.007 229.37 697.297 229.179C697.595 228.988 697.744 228.736 697.744 228.423C697.744 228.193 697.66 228.006 697.492 227.861C697.332 227.708 697.125 227.59 696.873 227.506C696.621 227.422 696.278 227.327 695.842 227.22C695.231 227.074 694.735 226.929 694.353 226.784C693.979 226.639 693.654 226.414 693.379 226.108C693.112 225.795 692.978 225.375 692.978 224.848C692.978 224.405 693.096 224.004 693.333 223.645C693.578 223.278 693.94 222.988 694.422 222.774C694.91 222.56 695.506 222.454 696.209 222.454C696.698 222.454 697.179 222.515 697.652 222.637C698.126 222.759 698.535 222.935 698.878 223.164L698.409 224.321C698.057 224.115 697.691 223.958 697.309 223.851C696.927 223.744 696.556 223.691 696.197 223.691C695.609 223.691 695.17 223.79 694.88 223.989C694.597 224.187 694.456 224.451 694.456 224.779C694.456 225.008 694.536 225.196 694.697 225.341C694.865 225.486 695.075 225.6 695.327 225.684C695.579 225.768 695.922 225.864 696.358 225.971C696.954 226.108 697.442 226.253 697.824 226.406C698.206 226.551 698.531 226.777 698.798 227.082C699.073 227.388 699.211 227.8 699.211 228.319C699.211 228.762 699.088 229.163 698.844 229.522C698.607 229.881 698.244 230.168 697.756 230.382C697.267 230.596 696.671 230.702 695.968 230.702Z" fill="#19191F"/>
<g filter="url(#filter6_d_3428_11507)">
<path d="M576.374 261.503C624.515 213.362 624.515 135.31 576.374 87.1684C528.233 39.0271 450.18 39.0271 402.039 87.1684L314.871 174.336L402.039 261.503C450.18 309.645 528.233 309.645 576.374 261.503Z" fill="url(#paint0_linear_3428_11507)"/>
</g>
<path d="M525.657 212.085C546.505 191.237 546.505 157.435 525.657 136.587C504.809 115.739 471.007 115.739 450.159 136.587L412.41 174.336L450.159 212.085C471.007 232.933 504.809 232.933 525.657 212.085Z" fill="white" stroke="#E9E9F4" stroke-width="16.9731"/>
<g filter="url(#filter7_d_3428_11507)">
<path d="M139.679 261.503C91.5375 213.362 91.5375 135.31 139.679 87.1684C187.82 39.0271 265.873 39.0271 314.014 87.1684L401.181 174.336L314.014 261.503C265.873 309.645 187.82 309.645 139.679 261.503Z" fill="url(#paint1_linear_3428_11507)"/>
</g>
<path d="M190.343 212.085C169.495 191.237 169.495 157.435 190.343 136.587C211.191 115.739 244.993 115.739 265.841 136.587L303.59 174.336L265.841 212.085C244.993 232.933 211.191 232.933 190.343 212.085Z" fill="white" stroke="#E9E9F4" stroke-width="16.9731"/>
<path d="M212.445 256.404H209.982V254.605H217.165V256.404H214.713V262.625H212.445V256.404ZM223.712 259.532C223.712 259.547 223.701 259.726 223.678 260.07H219.164C219.256 260.391 219.431 260.639 219.691 260.815C219.958 260.983 220.291 261.067 220.688 261.067C220.986 261.067 221.242 261.025 221.455 260.941C221.677 260.857 221.898 260.719 222.12 260.528L223.266 261.72C222.662 262.392 221.78 262.728 220.619 262.728C219.894 262.728 219.256 262.591 218.706 262.316C218.156 262.041 217.728 261.659 217.423 261.17C217.125 260.681 216.976 260.127 216.976 259.509C216.976 258.898 217.121 258.352 217.411 257.87C217.709 257.382 218.118 257 218.637 256.725C219.156 256.45 219.741 256.312 220.39 256.312C221.009 256.312 221.57 256.442 222.074 256.702C222.578 256.954 222.975 257.324 223.266 257.813C223.564 258.294 223.712 258.867 223.712 259.532ZM220.401 257.859C220.065 257.859 219.783 257.954 219.554 258.145C219.332 258.336 219.191 258.596 219.13 258.924H221.673C221.612 258.596 221.467 258.336 221.238 258.145C221.016 257.954 220.738 257.859 220.401 257.859ZM227.058 262.728C226.539 262.728 226.027 262.671 225.523 262.556C225.019 262.434 224.614 262.277 224.308 262.087L224.961 260.597C225.244 260.773 225.58 260.914 225.97 261.021C226.359 261.12 226.745 261.17 227.127 261.17C227.478 261.17 227.726 261.136 227.871 261.067C228.024 260.99 228.101 260.884 228.101 260.746C228.101 260.609 228.009 260.513 227.826 260.46C227.65 260.399 227.367 260.341 226.978 260.288C226.481 260.227 226.057 260.147 225.706 260.047C225.362 259.948 225.064 259.765 224.812 259.497C224.56 259.23 224.434 258.856 224.434 258.375C224.434 257.977 224.553 257.626 224.789 257.32C225.026 257.007 225.37 256.763 225.821 256.587C226.279 256.404 226.825 256.312 227.459 256.312C227.91 256.312 228.356 256.358 228.799 256.45C229.242 256.541 229.613 256.671 229.911 256.839L229.258 258.317C228.708 258.012 228.112 257.859 227.47 257.859C227.127 257.859 226.875 257.901 226.714 257.985C226.554 258.061 226.474 258.164 226.474 258.294C226.474 258.439 226.561 258.543 226.737 258.604C226.913 258.657 227.203 258.714 227.608 258.776C228.12 258.852 228.544 258.94 228.88 259.039C229.216 259.138 229.506 259.322 229.75 259.589C230.002 259.849 230.128 260.215 230.128 260.689C230.128 261.078 230.01 261.43 229.773 261.743C229.536 262.048 229.185 262.289 228.719 262.465C228.261 262.64 227.707 262.728 227.058 262.728ZM235.436 262.373C235.253 262.488 235.027 262.575 234.76 262.636C234.5 262.698 234.222 262.728 233.924 262.728C233.114 262.728 232.492 262.53 232.056 262.132C231.621 261.735 231.403 261.143 231.403 260.357V258.271H230.498V256.645H231.403V255.029H233.58V256.645H235.001V258.271H233.58V260.334C233.58 260.555 233.637 260.731 233.752 260.861C233.874 260.983 234.035 261.044 234.233 261.044C234.485 261.044 234.707 260.979 234.898 260.849L235.436 262.373Z" fill="white"/>
<path d="M475.12 262.625L475.097 258.375L473.035 261.834H472.027L469.976 258.489V262.625H467.88V254.605H469.747L472.565 259.234L475.315 254.605H477.183L477.205 262.625H475.12ZM481.909 262.728C481.244 262.728 480.645 262.591 480.11 262.316C479.575 262.041 479.155 261.659 478.85 261.17C478.552 260.681 478.403 260.127 478.403 259.509C478.403 258.898 478.552 258.348 478.85 257.859C479.155 257.37 479.571 256.992 480.098 256.725C480.633 256.45 481.236 256.312 481.909 256.312C482.581 256.312 483.184 256.45 483.719 256.725C484.253 256.992 484.67 257.37 484.968 257.859C485.265 258.34 485.414 258.89 485.414 259.509C485.414 260.127 485.265 260.681 484.968 261.17C484.67 261.659 484.253 262.041 483.719 262.316C483.184 262.591 482.581 262.728 481.909 262.728ZM481.909 260.998C482.29 260.998 482.604 260.868 482.848 260.609C483.092 260.341 483.215 259.975 483.215 259.509C483.215 259.05 483.092 258.691 482.848 258.432C482.604 258.172 482.29 258.042 481.909 258.042C481.527 258.042 481.214 258.172 480.969 258.432C480.725 258.691 480.603 259.05 480.603 259.509C480.603 259.975 480.725 260.341 480.969 260.609C481.214 260.868 481.527 260.998 481.909 260.998ZM490.552 256.312C491.323 256.312 491.942 256.541 492.408 257C492.881 257.458 493.118 258.149 493.118 259.073V262.625H490.941V259.429C490.941 258.581 490.602 258.157 489.922 258.157C489.548 258.157 489.246 258.279 489.017 258.523C488.795 258.768 488.684 259.134 488.684 259.623V262.625H486.508V256.415H488.581V257.091C488.826 256.839 489.116 256.648 489.452 256.519C489.788 256.381 490.155 256.312 490.552 256.312ZM494.57 256.415H496.747V262.625H494.57V256.415ZM495.658 255.728C495.261 255.728 494.94 255.617 494.696 255.396C494.451 255.174 494.329 254.899 494.329 254.571C494.329 254.242 494.451 253.967 494.696 253.746C494.94 253.524 495.261 253.414 495.658 253.414C496.055 253.414 496.376 253.521 496.621 253.735C496.865 253.941 496.987 254.208 496.987 254.536C496.987 254.88 496.865 255.167 496.621 255.396C496.376 255.617 496.055 255.728 495.658 255.728ZM502.531 262.373C502.348 262.488 502.122 262.575 501.855 262.636C501.595 262.698 501.316 262.728 501.019 262.728C500.209 262.728 499.587 262.53 499.151 262.132C498.716 261.735 498.498 261.143 498.498 260.357V258.271H497.593V256.645H498.498V255.029H500.675V256.645H502.096V258.271H500.675V260.334C500.675 260.555 500.732 260.731 500.847 260.861C500.969 260.983 501.129 261.044 501.328 261.044C501.58 261.044 501.802 260.979 501.992 260.849L502.531 262.373ZM506.392 262.728C505.728 262.728 505.128 262.591 504.594 262.316C504.059 262.041 503.639 261.659 503.333 261.17C503.036 260.681 502.887 260.127 502.887 259.509C502.887 258.898 503.036 258.348 503.333 257.859C503.639 257.37 504.055 256.992 504.582 256.725C505.117 256.45 505.72 256.312 506.392 256.312C507.065 256.312 507.668 256.45 508.203 256.725C508.737 256.992 509.154 257.37 509.451 257.859C509.749 258.34 509.898 258.89 509.898 259.509C509.898 260.127 509.749 260.681 509.451 261.17C509.154 261.659 508.737 262.041 508.203 262.316C507.668 262.591 507.065 262.728 506.392 262.728ZM506.392 260.998C506.774 260.998 507.087 260.868 507.332 260.609C507.576 260.341 507.698 259.975 507.698 259.509C507.698 259.05 507.576 258.691 507.332 258.432C507.087 258.172 506.774 258.042 506.392 258.042C506.011 258.042 505.697 258.172 505.453 258.432C505.209 258.691 505.086 259.05 505.086 259.509C505.086 259.975 505.209 260.341 505.453 260.609C505.697 260.868 506.011 260.998 506.392 260.998ZM513.065 257.16C513.287 256.877 513.573 256.667 513.924 256.53C514.283 256.385 514.692 256.312 515.15 256.312V258.271C514.952 258.248 514.787 258.237 514.658 258.237C514.192 258.237 513.825 258.363 513.558 258.615C513.298 258.867 513.168 259.253 513.168 259.772V262.625H510.991V256.415H513.065V257.16Z" fill="white"/>
<path d="M467.88 84.8748H471.672C472.55 84.8748 473.329 85.039 474.009 85.3674C474.689 85.6958 475.216 86.1617 475.59 86.7651C475.964 87.3685 476.151 88.075 476.151 88.8846C476.151 89.6943 475.964 90.4008 475.59 91.0042C475.216 91.6075 474.689 92.0735 474.009 92.4019C473.329 92.7303 472.55 92.8945 471.672 92.8945H467.88V84.8748ZM471.58 91.0844C472.268 91.0844 472.818 90.8896 473.23 90.5001C473.65 90.1105 473.86 89.5721 473.86 88.8846C473.86 88.1972 473.65 87.6588 473.23 87.2692C472.818 86.8797 472.268 86.6849 471.58 86.6849H470.148V91.0844H471.58ZM483.674 89.8012C483.674 89.8165 483.662 89.996 483.639 90.3397H479.125C479.217 90.6605 479.393 90.9087 479.652 91.0844C479.92 91.2524 480.252 91.3364 480.649 91.3364C480.947 91.3364 481.203 91.2944 481.417 91.2104C481.638 91.1264 481.86 90.9889 482.081 90.7979L483.227 91.9894C482.624 92.6616 481.741 92.9976 480.58 92.9976C479.855 92.9976 479.217 92.8602 478.667 92.5852C478.117 92.3102 477.689 91.9283 477.384 91.4395C477.086 90.9507 476.937 90.3969 476.937 89.7783C476.937 89.1672 477.082 88.6211 477.373 88.1399C477.67 87.6511 478.079 87.2692 478.598 86.9943C479.118 86.7193 479.702 86.5818 480.351 86.5818C480.97 86.5818 481.531 86.7117 482.035 86.9714C482.54 87.2234 482.937 87.5938 483.227 88.0827C483.525 88.5639 483.674 89.1367 483.674 89.8012ZM480.363 88.1285C480.027 88.1285 479.744 88.224 479.515 88.4149C479.293 88.6059 479.152 88.8655 479.091 89.194H481.634C481.573 88.8655 481.428 88.6059 481.199 88.4149C480.978 88.224 480.699 88.1285 480.363 88.1285ZM488.669 86.5818C489.234 86.5818 489.746 86.7155 490.204 86.9828C490.67 87.2425 491.037 87.6168 491.304 88.1056C491.579 88.5868 491.717 89.1481 491.717 89.7897C491.717 90.4313 491.579 90.9965 491.304 91.4853C491.037 91.9665 490.67 92.3408 490.204 92.6081C489.746 92.8678 489.234 92.9976 488.669 92.9976C487.943 92.9976 487.367 92.78 486.939 92.3446V95.1172H484.762V86.6849H486.836V87.3036C487.241 86.8224 487.852 86.5818 488.669 86.5818ZM488.211 91.2677C488.593 91.2677 488.906 91.1378 489.15 90.8781C489.395 90.6108 489.517 90.248 489.517 89.7897C489.517 89.3315 489.395 88.9725 489.15 88.7128C488.906 88.4455 488.593 88.3118 488.211 88.3118C487.829 88.3118 487.516 88.4455 487.271 88.7128C487.027 88.9725 486.905 89.3315 486.905 89.7897C486.905 90.248 487.027 90.6108 487.271 90.8781C487.516 91.1378 487.829 91.2677 488.211 91.2677ZM492.813 84.3936H494.99V92.8945H492.813V84.3936ZM499.606 92.9976C498.941 92.9976 498.342 92.8602 497.807 92.5852C497.272 92.3102 496.852 91.9283 496.547 91.4395C496.249 90.9507 496.1 90.3969 496.1 89.7783C496.1 89.1672 496.249 88.6173 496.547 88.1285C496.852 87.6397 497.269 87.2616 497.796 86.9943C498.33 86.7193 498.934 86.5818 499.606 86.5818C500.278 86.5818 500.881 86.7193 501.416 86.9943C501.951 87.2616 502.367 87.6397 502.665 88.1285C502.963 88.6097 503.112 89.1596 503.112 89.7783C503.112 90.3969 502.963 90.9507 502.665 91.4395C502.367 91.9283 501.951 92.3102 501.416 92.5852C500.881 92.8602 500.278 92.9976 499.606 92.9976ZM499.606 91.2677C499.988 91.2677 500.301 91.1378 500.545 90.8781C500.79 90.6108 500.912 90.2442 500.912 89.7783C500.912 89.32 500.79 88.961 500.545 88.7013C500.301 88.4416 499.988 88.3118 499.606 88.3118C499.224 88.3118 498.911 88.4416 498.666 88.7013C498.422 88.961 498.3 89.32 498.3 89.7783C498.3 90.2442 498.422 90.6108 498.666 90.8781C498.911 91.1378 499.224 91.2677 499.606 91.2677ZM510.579 86.6849L507.898 93.1466C507.585 93.9104 507.203 94.445 506.752 94.7505C506.302 95.0637 505.752 95.2203 505.102 95.2203C504.774 95.2203 504.442 95.1668 504.106 95.0599C503.777 94.9606 503.51 94.8269 503.304 94.6589L504.06 93.1351C504.182 93.2497 504.327 93.3375 504.495 93.3986C504.671 93.4674 504.847 93.5017 505.022 93.5017C505.228 93.5017 505.397 93.4597 505.526 93.3757C505.664 93.2917 505.778 93.158 505.87 92.9747L503.212 86.6849H505.446L506.97 90.4771L508.505 86.6849H510.579Z" fill="white"/>
<path d="M187.58 93.0549C186.74 93.0549 185.984 92.8793 185.312 92.5279C184.647 92.1689 184.124 91.6725 183.742 91.0385C183.36 90.4046 183.169 89.6866 183.169 88.8846C183.169 88.0827 183.36 87.3647 183.742 86.7308C184.124 86.0968 184.647 85.6042 185.312 85.2528C185.984 84.8938 186.74 84.7144 187.58 84.7144C188.313 84.7144 188.974 84.8442 189.562 85.1039C190.15 85.3636 190.639 85.7378 191.029 86.2267L189.585 87.5327C189.066 86.9064 188.436 86.5933 187.695 86.5933C187.259 86.5933 186.87 86.6888 186.526 86.8797C186.19 87.0706 185.927 87.3418 185.736 87.6931C185.552 88.0368 185.461 88.434 185.461 88.8846C185.461 89.3353 185.552 89.7363 185.736 90.0876C185.927 90.4313 186.19 90.6986 186.526 90.8896C186.87 91.0805 187.259 91.176 187.695 91.176C188.436 91.176 189.066 90.8629 189.585 90.2365L191.029 91.5426C190.639 92.0315 190.15 92.4057 189.562 92.6654C188.974 92.9251 188.313 93.0549 187.58 93.0549ZM194.948 92.9976C194.283 92.9976 193.684 92.8602 193.149 92.5852C192.615 92.3102 192.194 91.9283 191.889 91.4395C191.591 90.9507 191.442 90.3969 191.442 89.7783C191.442 89.1672 191.591 88.6173 191.889 88.1285C192.194 87.6397 192.611 87.2616 193.138 86.9943C193.672 86.7193 194.276 86.5818 194.948 86.5818C195.62 86.5818 196.223 86.7193 196.758 86.9943C197.293 87.2616 197.709 87.6397 198.007 88.1285C198.305 88.6097 198.454 89.1596 198.454 89.7783C198.454 90.3969 198.305 90.9507 198.007 91.4395C197.709 91.9283 197.293 92.3102 196.758 92.5852C196.223 92.8602 195.62 92.9976 194.948 92.9976ZM194.948 91.2677C195.33 91.2677 195.643 91.1378 195.887 90.8781C196.132 90.6108 196.254 90.2442 196.254 89.7783C196.254 89.32 196.132 88.961 195.887 88.7013C195.643 88.4416 195.33 88.3118 194.948 88.3118C194.566 88.3118 194.253 88.4416 194.008 88.7013C193.764 88.961 193.642 89.32 193.642 89.7783C193.642 90.2442 193.764 90.6108 194.008 90.8781C194.253 91.1378 194.566 91.2677 194.948 91.2677ZM206.146 84.3936V92.8945H204.072V92.2759C203.668 92.757 203.06 92.9976 202.251 92.9976C201.686 92.9976 201.17 92.8678 200.704 92.6081C200.238 92.3408 199.868 91.9627 199.593 91.4739C199.325 90.9851 199.192 90.4199 199.192 89.7783C199.192 89.1367 199.325 88.5753 199.593 88.0941C199.868 87.6053 200.238 87.231 200.704 86.9714C201.17 86.7117 201.686 86.5818 202.251 86.5818C202.992 86.5818 203.564 86.7957 203.969 87.2234V84.3936H206.146ZM202.709 91.2677C203.083 91.2677 203.393 91.1378 203.637 90.8781C203.881 90.6108 204.004 90.2442 204.004 89.7783C204.004 89.32 203.881 88.961 203.637 88.7013C203.4 88.4416 203.091 88.3118 202.709 88.3118C202.327 88.3118 202.014 88.4416 201.77 88.7013C201.525 88.961 201.403 89.32 201.403 89.7783C201.403 90.2442 201.525 90.6108 201.77 90.8781C202.014 91.1378 202.327 91.2677 202.709 91.2677ZM213.979 89.8012C213.979 89.8165 213.967 89.996 213.944 90.3397H209.43C209.522 90.6605 209.698 90.9087 209.957 91.0844C210.225 91.2524 210.557 91.3364 210.954 91.3364C211.252 91.3364 211.508 91.2944 211.722 91.2104C211.943 91.1264 212.165 90.9889 212.386 90.7979L213.532 91.9894C212.928 92.6616 212.046 92.9976 210.885 92.9976C210.16 92.9976 209.522 92.8602 208.972 92.5852C208.422 92.3102 207.994 91.9283 207.689 91.4395C207.391 90.9507 207.242 90.3969 207.242 89.7783C207.242 89.1672 207.387 88.6211 207.677 88.1399C207.975 87.6511 208.384 87.2692 208.903 86.9943C209.423 86.7193 210.007 86.5818 210.656 86.5818C211.275 86.5818 211.836 86.7117 212.34 86.9714C212.844 87.2234 213.241 87.5938 213.532 88.0827C213.83 88.5639 213.979 89.1367 213.979 89.8012ZM210.668 88.1285C210.331 88.1285 210.049 88.224 209.82 88.4149C209.598 88.6059 209.457 88.8655 209.396 89.194H211.939C211.878 88.8655 211.733 88.6059 211.504 88.4149C211.282 88.224 211.004 88.1285 210.668 88.1285Z" fill="white"/>
<path d="M304.362 125.185C305.088 125.185 305.718 125.308 306.253 125.552C306.787 125.789 307.2 126.132 307.49 126.583C307.78 127.026 307.925 127.549 307.925 128.153C307.925 128.756 307.78 129.279 307.49 129.722C307.2 130.165 306.787 130.509 306.253 130.753C305.718 130.99 305.088 131.108 304.362 131.108H302.964V133.205H300.696V125.185H304.362ZM304.225 129.321C304.691 129.321 305.042 129.222 305.279 129.023C305.516 128.817 305.634 128.527 305.634 128.153C305.634 127.778 305.516 127.488 305.279 127.282C305.042 127.076 304.691 126.973 304.225 126.973H302.964V129.321H304.225ZM309.125 124.704H311.302V133.205H309.125V124.704ZM315.448 126.892C316.479 126.892 317.266 127.129 317.808 127.603C318.35 128.069 318.621 128.787 318.621 129.757V133.205H316.593V132.403C316.28 133.006 315.669 133.308 314.76 133.308C314.279 133.308 313.863 133.224 313.512 133.056C313.16 132.888 312.893 132.663 312.71 132.38C312.534 132.09 312.446 131.762 312.446 131.395C312.446 130.807 312.671 130.352 313.122 130.032C313.573 129.703 314.268 129.539 315.207 129.539H316.445C316.406 128.882 315.967 128.554 315.127 128.554C314.829 128.554 314.527 128.603 314.222 128.703C313.916 128.794 313.657 128.924 313.443 129.092L312.71 127.614C313.053 127.385 313.47 127.209 313.958 127.087C314.455 126.957 314.951 126.892 315.448 126.892ZM315.368 131.933C315.62 131.933 315.841 131.872 316.032 131.75C316.223 131.628 316.361 131.448 316.445 131.212V130.673H315.505C314.871 130.673 314.554 130.883 314.554 131.303C314.554 131.494 314.627 131.647 314.772 131.762C314.917 131.876 315.116 131.933 315.368 131.933ZM324.124 126.892C324.896 126.892 325.515 127.122 325.98 127.58C326.454 128.038 326.691 128.729 326.691 129.653V133.205H324.514V130.009C324.514 129.161 324.174 128.737 323.494 128.737C323.12 128.737 322.818 128.859 322.589 129.104C322.368 129.348 322.257 129.715 322.257 130.203V133.205H320.08V126.995H322.154V127.671C322.398 127.419 322.689 127.228 323.025 127.099C323.361 126.961 323.727 126.892 324.124 126.892Z" fill="white"/>
<path d="M219.701 79.2066C219.387 79.5552 219.416 80.0917 219.764 80.4051L225.444 85.5114C225.793 85.8247 226.33 85.7962 226.643 85.4476C226.956 85.0991 226.928 84.5625 226.579 84.2492L221.53 79.7102L226.069 74.6613C226.383 74.3127 226.354 73.7762 226.005 73.4628C225.657 73.1495 225.12 73.178 224.807 73.5266L219.701 79.2066ZM298.796 115.029C292.413 108.647 280.861 99.2086 266.89 91.5734C252.928 83.9431 236.464 78.066 220.287 78.9265L220.377 80.6214C236.109 79.7846 252.248 85.5058 266.076 93.0628C279.895 100.615 291.319 109.953 297.596 116.23L298.796 115.029Z" fill="#69CA94"/>
<path d="M330.955 197.206C330.925 196.738 330.522 196.382 330.055 196.412L322.432 196.89C321.964 196.919 321.609 197.322 321.638 197.79C321.667 198.257 322.07 198.613 322.538 198.584L329.314 198.159L329.739 204.935C329.768 205.402 330.171 205.758 330.639 205.729C331.106 205.699 331.462 205.296 331.433 204.829L330.955 197.206ZM254.125 258.179C267.393 252.002 301.197 231.319 330.744 197.82L329.471 196.697C300.092 230.006 266.483 250.553 253.409 256.64L254.125 258.179Z" fill="#69CA94"/>
<path d="M454.809 91.1102C455.094 90.7382 455.024 90.2055 454.652 89.9203L448.591 85.2726C448.219 84.9874 447.686 85.0577 447.401 85.4296C447.116 85.8016 447.186 86.3343 447.558 86.6195L452.946 90.7508L448.814 96.1384C448.529 96.5103 448.599 97.043 448.971 97.3282C449.343 97.6134 449.876 97.5431 450.161 97.1712L454.809 91.1102ZM376.568 155.327C382.617 145.585 393.785 130.677 407.596 117.663C421.427 104.63 437.796 93.6062 454.246 91.4351L454.024 89.7524C437.038 91.9943 420.344 103.318 406.432 116.428C392.499 129.556 381.241 144.583 375.126 154.432L376.568 155.327Z" fill="#69CA94"/>
<path d="M457.575 252.517C442.445 248.491 405.248 232.102 377.499 198.754" stroke="#69CA94" stroke-width="1.69731"/>
<path d="M322.412 140.876C321.943 140.861 321.551 141.228 321.535 141.696L321.281 149.33C321.265 149.798 321.632 150.191 322.101 150.206C322.569 150.222 322.961 149.855 322.977 149.387L323.203 142.601L329.989 142.827C330.457 142.843 330.85 142.476 330.865 142.007C330.881 141.539 330.514 141.146 330.045 141.131L322.412 140.876ZM335.309 154.299L323.003 141.145L321.764 142.304L334.069 155.459L335.309 154.299Z" fill="#69CA94"/>
<path d="M338.572 178.176H337.335V180.307H335.066V172.287H338.732C339.458 172.287 340.088 172.409 340.623 172.653C341.157 172.89 341.57 173.234 341.86 173.685C342.15 174.128 342.295 174.651 342.295 175.254C342.295 175.835 342.158 176.343 341.883 176.778C341.616 177.206 341.23 177.542 340.726 177.786L342.456 180.307H340.027L338.572 178.176ZM340.004 175.254C340.004 174.88 339.886 174.59 339.649 174.383C339.412 174.177 339.061 174.074 338.595 174.074H337.335V176.423H338.595C339.061 176.423 339.412 176.323 339.649 176.125C339.886 175.919 340.004 175.628 340.004 175.254ZM349.876 177.213C349.876 177.229 349.864 177.408 349.841 177.752H345.327C345.419 178.073 345.595 178.321 345.854 178.496C346.122 178.664 346.454 178.749 346.851 178.749C347.149 178.749 347.405 178.707 347.619 178.622C347.84 178.538 348.062 178.401 348.283 178.21L349.429 179.402C348.825 180.074 347.943 180.41 346.782 180.41C346.057 180.41 345.419 180.272 344.869 179.997C344.319 179.722 343.891 179.34 343.586 178.852C343.288 178.363 343.139 177.809 343.139 177.19C343.139 176.579 343.284 176.033 343.574 175.552C343.872 175.063 344.281 174.681 344.8 174.406C345.32 174.131 345.904 173.994 346.553 173.994C347.172 173.994 347.733 174.124 348.237 174.383C348.741 174.636 349.139 175.006 349.429 175.495C349.727 175.976 349.876 176.549 349.876 177.213ZM346.565 175.541C346.229 175.541 345.946 175.636 345.717 175.827C345.495 176.018 345.354 176.278 345.293 176.606H347.836C347.775 176.278 347.63 176.018 347.401 175.827C347.18 175.636 346.901 175.541 346.565 175.541ZM350.964 171.806H353.141V180.307H350.964V171.806ZM360.988 177.213C360.988 177.229 360.976 177.408 360.953 177.752H356.439C356.531 178.073 356.707 178.321 356.966 178.496C357.234 178.664 357.566 178.749 357.963 178.749C358.261 178.749 358.517 178.707 358.731 178.622C358.952 178.538 359.174 178.401 359.395 178.21L360.541 179.402C359.937 180.074 359.055 180.41 357.894 180.41C357.169 180.41 356.531 180.272 355.981 179.997C355.431 179.722 355.003 179.34 354.698 178.852C354.4 178.363 354.251 177.809 354.251 177.19C354.251 176.579 354.396 176.033 354.686 175.552C354.984 175.063 355.393 174.681 355.912 174.406C356.432 174.131 357.016 173.994 357.665 173.994C358.284 173.994 358.845 174.124 359.349 174.383C359.853 174.636 360.251 175.006 360.541 175.495C360.839 175.976 360.988 176.549 360.988 177.213ZM357.677 175.541C357.341 175.541 357.058 175.636 356.829 175.827C356.607 176.018 356.466 176.278 356.405 176.606H358.948C358.887 176.278 358.742 176.018 358.513 175.827C358.291 175.636 358.013 175.541 357.677 175.541ZM364.555 173.994C365.586 173.994 366.373 174.231 366.915 174.704C367.457 175.17 367.728 175.888 367.728 176.858V180.307H365.7V179.505C365.387 180.108 364.776 180.41 363.867 180.41C363.386 180.41 362.97 180.326 362.619 180.158C362.267 179.99 362 179.764 361.817 179.482C361.641 179.192 361.553 178.863 361.553 178.496C361.553 177.908 361.778 177.454 362.229 177.133C362.68 176.805 363.375 176.64 364.314 176.64H365.552C365.513 175.984 365.074 175.655 364.234 175.655C363.936 175.655 363.634 175.705 363.329 175.804C363.023 175.896 362.764 176.026 362.55 176.194L361.817 174.716C362.16 174.487 362.577 174.311 363.065 174.189C363.562 174.059 364.058 173.994 364.555 173.994ZM364.475 179.035C364.727 179.035 364.948 178.974 365.139 178.852C365.33 178.729 365.468 178.55 365.552 178.313V177.775H364.612C363.978 177.775 363.661 177.985 363.661 178.405C363.661 178.596 363.734 178.749 363.879 178.863C364.024 178.978 364.223 179.035 364.475 179.035ZM371.444 180.41C370.925 180.41 370.413 180.352 369.909 180.238C369.405 180.116 369 179.959 368.695 179.768L369.348 178.279C369.63 178.454 369.966 178.596 370.356 178.703C370.745 178.802 371.131 178.852 371.513 178.852C371.864 178.852 372.113 178.817 372.258 178.749C372.41 178.672 372.487 178.565 372.487 178.428C372.487 178.29 372.395 178.195 372.212 178.141C372.036 178.08 371.754 178.023 371.364 177.969C370.868 177.908 370.444 177.828 370.092 177.729C369.749 177.63 369.451 177.446 369.199 177.179C368.947 176.912 368.821 176.537 368.821 176.056C368.821 175.659 368.939 175.308 369.176 175.002C369.413 174.689 369.756 174.445 370.207 174.269C370.665 174.086 371.211 173.994 371.845 173.994C372.296 173.994 372.743 174.04 373.186 174.131C373.629 174.223 373.999 174.353 374.297 174.521L373.644 175.999C373.094 175.693 372.498 175.541 371.857 175.541C371.513 175.541 371.261 175.583 371.101 175.667C370.94 175.743 370.86 175.846 370.86 175.976C370.86 176.121 370.948 176.224 371.123 176.285C371.299 176.339 371.589 176.396 371.994 176.457C372.506 176.534 372.93 176.621 373.266 176.721C373.602 176.82 373.892 177.003 374.137 177.271C374.389 177.53 374.515 177.897 374.515 178.37C374.515 178.76 374.396 179.111 374.159 179.424C373.923 179.73 373.571 179.971 373.105 180.146C372.647 180.322 372.093 180.41 371.444 180.41ZM381.885 177.213C381.885 177.229 381.873 177.408 381.85 177.752H377.336C377.428 178.073 377.604 178.321 377.863 178.496C378.131 178.664 378.463 178.749 378.86 178.749C379.158 178.749 379.414 178.707 379.628 178.622C379.849 178.538 380.071 178.401 380.292 178.21L381.438 179.402C380.834 180.074 379.952 180.41 378.791 180.41C378.066 180.41 377.428 180.272 376.878 179.997C376.328 179.722 375.9 179.34 375.595 178.852C375.297 178.363 375.148 177.809 375.148 177.19C375.148 176.579 375.293 176.033 375.583 175.552C375.881 175.063 376.29 174.681 376.809 174.406C377.329 174.131 377.913 173.994 378.562 173.994C379.181 173.994 379.742 174.124 380.246 174.383C380.75 174.636 381.148 175.006 381.438 175.495C381.736 175.976 381.885 176.549 381.885 177.213ZM378.574 175.541C378.238 175.541 377.955 175.636 377.726 175.827C377.504 176.018 377.363 176.278 377.302 176.606H379.845C379.784 176.278 379.639 176.018 379.41 175.827C379.188 175.636 378.91 175.541 378.574 175.541Z" fill="white"/>
<path d="M125.778 176.125C126.236 176.285 126.595 176.537 126.854 176.881C127.114 177.217 127.244 177.626 127.244 178.107C127.244 178.81 126.961 179.352 126.396 179.734C125.831 180.116 125.014 180.307 123.944 180.307H119.614V172.287H123.715C124.739 172.287 125.518 172.478 126.052 172.86C126.587 173.234 126.854 173.742 126.854 174.383C126.854 174.765 126.759 175.109 126.568 175.415C126.385 175.712 126.121 175.949 125.778 176.125ZM121.859 173.925V175.472H123.417C124.181 175.472 124.563 175.212 124.563 174.693C124.563 174.181 124.181 173.925 123.417 173.925H121.859ZM123.761 178.668C124.555 178.668 124.953 178.397 124.953 177.855C124.953 177.313 124.555 177.041 123.761 177.041H121.859V178.668H123.761ZM134.931 174.097V180.307H132.857V179.642C132.628 179.894 132.353 180.085 132.033 180.215C131.712 180.345 131.372 180.41 131.013 180.41C130.211 180.41 129.569 180.173 129.088 179.699C128.615 179.226 128.378 178.516 128.378 177.568V174.097H130.555V177.213C130.555 177.679 130.642 178.019 130.818 178.233C130.994 178.447 131.25 178.554 131.586 178.554C131.929 178.554 132.208 178.435 132.422 178.199C132.644 177.954 132.754 177.584 132.754 177.087V174.097H134.931ZM136.418 174.097H138.595V180.307H136.418V174.097ZM137.506 173.41C137.109 173.41 136.789 173.299 136.544 173.077C136.3 172.856 136.177 172.581 136.177 172.252C136.177 171.924 136.3 171.649 136.544 171.428C136.789 171.206 137.109 171.095 137.506 171.095C137.904 171.095 138.224 171.202 138.469 171.416C138.713 171.622 138.835 171.89 138.835 172.218C138.835 172.562 138.713 172.848 138.469 173.077C138.224 173.299 137.904 173.41 137.506 173.41ZM140.094 171.806H142.271V180.307H140.094V171.806ZM150.37 171.806V180.307H148.296V179.688C147.891 180.169 147.284 180.41 146.474 180.41C145.909 180.41 145.394 180.28 144.928 180.02C144.462 179.753 144.091 179.375 143.817 178.886C143.549 178.397 143.416 177.832 143.416 177.19C143.416 176.549 143.549 175.987 143.817 175.506C144.091 175.017 144.462 174.643 144.928 174.383C145.394 174.124 145.909 173.994 146.474 173.994C147.215 173.994 147.788 174.208 148.193 174.636V171.806H150.37ZM146.933 178.68C147.307 178.68 147.616 178.55 147.861 178.29C148.105 178.023 148.227 177.656 148.227 177.19C148.227 176.732 148.105 176.373 147.861 176.113C147.624 175.854 147.315 175.724 146.933 175.724C146.551 175.724 146.238 175.854 145.993 176.113C145.749 176.373 145.627 176.732 145.627 177.19C145.627 177.656 145.749 178.023 145.993 178.29C146.238 178.55 146.551 178.68 146.933 178.68Z" fill="white"/>
<path d="M135.001 158.571C135.283 158.946 135.815 159.021 136.189 158.739L142.293 154.148C142.668 153.866 142.743 153.334 142.461 152.959C142.179 152.585 141.647 152.509 141.273 152.791L135.847 156.873L131.766 151.447C131.484 151.073 130.952 150.998 130.577 151.279C130.203 151.561 130.128 152.093 130.409 152.468L135.001 158.571ZM171.043 95.4178C160.862 102.659 139.462 125.237 134.839 157.942L136.519 158.18C141.062 126.048 162.123 103.845 172.027 96.8009L171.043 95.4178Z" fill="#69CA94"/>
<path d="M194.849 260.012C195.262 259.791 195.418 259.276 195.196 258.863L191.588 252.131C191.367 251.718 190.852 251.563 190.439 251.784C190.026 252.006 189.871 252.52 190.092 252.933L193.299 258.917L187.315 262.124C186.902 262.346 186.747 262.86 186.968 263.273C187.19 263.686 187.704 263.842 188.117 263.62L194.849 260.012ZM136.112 190.005C138.679 208.264 153.86 247.888 194.203 260.077L194.694 258.452C155.263 246.539 140.317 207.719 137.792 189.769L136.112 190.005Z" fill="#69CA94"/>
<path d="M561.882 180.467C561.034 180.467 560.27 180.288 559.591 179.929C558.918 179.57 558.388 179.073 557.998 178.439C557.616 177.805 557.425 177.091 557.425 176.297C557.425 175.502 557.616 174.788 557.998 174.154C558.388 173.52 558.918 173.024 559.591 172.665C560.27 172.306 561.034 172.126 561.882 172.126C562.73 172.126 563.49 172.306 564.162 172.665C564.842 173.024 565.372 173.52 565.754 174.154C566.144 174.788 566.339 175.502 566.339 176.297C566.339 177.091 566.144 177.805 565.754 178.439C565.372 179.073 564.842 179.57 564.162 179.929C563.49 180.288 562.73 180.467 561.882 180.467ZM561.882 178.588C562.287 178.588 562.653 178.493 562.982 178.302C563.31 178.111 563.57 177.843 563.761 177.5C563.952 177.148 564.047 176.747 564.047 176.297C564.047 175.846 563.952 175.449 563.761 175.105C563.57 174.754 563.31 174.483 562.982 174.292C562.653 174.101 562.287 174.005 561.882 174.005C561.477 174.005 561.11 174.101 560.782 174.292C560.454 174.483 560.194 174.754 560.003 175.105C559.812 175.449 559.717 175.846 559.717 176.297C559.717 176.747 559.812 177.148 560.003 177.5C560.194 177.843 560.454 178.111 560.782 178.302C561.11 178.493 561.477 178.588 561.882 178.588ZM571.415 173.994C571.98 173.994 572.492 174.128 572.95 174.395C573.416 174.655 573.783 175.029 574.05 175.518C574.325 175.999 574.463 176.56 574.463 177.202C574.463 177.843 574.325 178.409 574.05 178.897C573.783 179.379 573.416 179.753 572.95 180.02C572.492 180.28 571.98 180.41 571.415 180.41C570.69 180.41 570.113 180.192 569.685 179.757V182.529H567.508V174.097H569.582V174.716C569.987 174.235 570.598 173.994 571.415 173.994ZM570.957 178.68C571.339 178.68 571.652 178.55 571.896 178.29C572.141 178.023 572.263 177.66 572.263 177.202C572.263 176.744 572.141 176.385 571.896 176.125C571.652 175.858 571.339 175.724 570.957 175.724C570.575 175.724 570.262 175.858 570.017 176.125C569.773 176.385 569.651 176.744 569.651 177.202C569.651 177.66 569.773 178.023 570.017 178.29C570.262 178.55 570.575 178.68 570.957 178.68ZM581.906 177.213C581.906 177.229 581.895 177.408 581.872 177.752H577.358C577.45 178.073 577.625 178.321 577.885 178.496C578.152 178.664 578.485 178.749 578.882 178.749C579.18 178.749 579.436 178.707 579.649 178.622C579.871 178.538 580.092 178.401 580.314 178.21L581.46 179.402C580.856 180.074 579.974 180.41 578.813 180.41C578.088 180.41 577.45 180.272 576.9 179.997C576.35 179.722 575.922 179.34 575.617 178.852C575.319 178.363 575.17 177.809 575.17 177.19C575.17 176.579 575.315 176.033 575.605 175.552C575.903 175.063 576.312 174.681 576.831 174.406C577.35 174.131 577.935 173.994 578.584 173.994C579.203 173.994 579.764 174.124 580.268 174.383C580.772 174.636 581.169 175.006 581.46 175.495C581.758 175.976 581.906 176.549 581.906 177.213ZM578.595 175.541C578.259 175.541 577.977 175.636 577.748 175.827C577.526 176.018 577.385 176.278 577.324 176.606H579.867C579.806 176.278 579.661 176.018 579.432 175.827C579.21 175.636 578.932 175.541 578.595 175.541ZM585.069 174.842C585.29 174.559 585.577 174.349 585.928 174.212C586.287 174.066 586.696 173.994 587.154 173.994V175.953C586.955 175.93 586.791 175.919 586.661 175.919C586.195 175.919 585.829 176.045 585.561 176.297C585.302 176.549 585.172 176.935 585.172 177.454V180.307H582.995V174.097H585.069V174.842ZM590.739 173.994C591.77 173.994 592.557 174.231 593.099 174.704C593.641 175.17 593.912 175.888 593.912 176.858V180.307H591.884V179.505C591.571 180.108 590.96 180.41 590.051 180.41C589.57 180.41 589.154 180.326 588.803 180.158C588.451 179.99 588.184 179.764 588.001 179.482C587.825 179.192 587.737 178.863 587.737 178.496C587.737 177.908 587.962 177.454 588.413 177.133C588.864 176.805 589.559 176.64 590.498 176.64H591.735C591.697 175.984 591.258 175.655 590.418 175.655C590.12 175.655 589.818 175.705 589.513 175.804C589.207 175.896 588.948 176.026 588.734 176.194L588.001 174.716C588.344 174.487 588.761 174.311 589.249 174.189C589.746 174.059 590.242 173.994 590.739 173.994ZM590.659 179.035C590.911 179.035 591.132 178.974 591.323 178.852C591.514 178.729 591.651 178.55 591.735 178.313V177.775H590.796C590.162 177.775 589.845 177.985 589.845 178.405C589.845 178.596 589.918 178.749 590.063 178.863C590.208 178.978 590.406 179.035 590.659 179.035ZM599.656 180.055C599.473 180.169 599.247 180.257 598.98 180.318C598.72 180.379 598.442 180.41 598.144 180.41C597.334 180.41 596.712 180.211 596.276 179.814C595.841 179.417 595.623 178.825 595.623 178.038V175.953H594.718V174.326H595.623V172.711H597.8V174.326H599.221V175.953H597.8V178.015C597.8 178.237 597.857 178.412 597.972 178.542C598.094 178.664 598.254 178.726 598.453 178.726C598.705 178.726 598.927 178.661 599.118 178.531L599.656 180.055ZM606.748 177.213C606.748 177.229 606.737 177.408 606.714 177.752H602.2C602.292 178.073 602.467 178.321 602.727 178.496C602.994 178.664 603.327 178.749 603.724 178.749C604.022 178.749 604.277 178.707 604.491 178.622C604.713 178.538 604.934 178.401 605.156 178.21L606.301 179.402C605.698 180.074 604.816 180.41 603.655 180.41C602.929 180.41 602.292 180.272 601.742 179.997C601.192 179.722 600.764 179.34 600.459 178.852C600.161 178.363 600.012 177.809 600.012 177.19C600.012 176.579 600.157 176.033 600.447 175.552C600.745 175.063 601.154 174.681 601.673 174.406C602.192 174.131 602.777 173.994 603.426 173.994C604.045 173.994 604.606 174.124 605.11 174.383C605.614 174.636 606.011 175.006 606.301 175.495C606.599 175.976 606.748 176.549 606.748 177.213ZM603.437 175.541C603.101 175.541 602.819 175.636 602.589 175.827C602.368 176.018 602.227 176.278 602.166 176.606H604.709C604.648 176.278 604.503 176.018 604.274 175.827C604.052 175.636 603.773 175.541 603.437 175.541Z" fill="white"/>
<path d="M581.353 160.228C581.729 160.508 582.26 160.429 582.54 160.053L587.091 153.919C587.37 153.542 587.291 153.011 586.915 152.731C586.538 152.452 586.007 152.531 585.728 152.907L581.682 158.36L576.23 154.314C575.853 154.035 575.322 154.114 575.043 154.49C574.763 154.867 574.842 155.398 575.219 155.677L581.353 160.228ZM520.546 89.719C537.875 94.1212 574.296 114.292 581.019 159.671L582.698 159.423C575.842 113.147 538.712 92.5826 520.964 88.074L520.546 89.719Z" fill="#69CA94"/>
<path d="M521.533 257.311C521.274 257.702 521.382 258.229 521.774 258.487L528.15 262.692C528.541 262.95 529.067 262.842 529.325 262.451C529.583 262.06 529.475 261.533 529.084 261.275L523.417 257.537L527.155 251.87C527.413 251.479 527.305 250.952 526.914 250.694C526.522 250.436 525.996 250.544 525.738 250.935L521.533 257.311ZM581.024 191.858C579.382 201.01 574.452 215.293 565.011 228.287C555.577 241.271 541.672 252.926 522.07 256.947L522.411 258.61C542.527 254.483 556.769 242.518 566.384 229.285C575.991 216.063 581.012 201.535 582.694 192.158L581.024 191.858Z" fill="#69CA94"/>
<defs>
<filter id="filter0_b_3428_11507" x="-11.4568" y="119.34" width="141.301" height="58.2398" filterUnits="userSpaceOnUse" color-interpolation-filters="sRGB">
<feFlood flood-opacity="0" result="BackgroundImageFix"/>
<feGaussianBlur in="BackgroundImage" stdDeviation="5.72841"/>
<feComposite in2="SourceAlpha" operator="in" result="effect1_backgroundBlur_3428_11507"/>
<feBlend mode="normal" in="SourceGraphic" in2="effect1_backgroundBlur_3428_11507" result="shape"/>
</filter>
<filter id="filter1_b_3428_11507" x="2.87106" y="225.317" width="162.305" height="58.2398" filterUnits="userSpaceOnUse" color-interpolation-filters="sRGB">
<feFlood flood-opacity="0" result="BackgroundImageFix"/>
<feGaussianBlur in="BackgroundImage" stdDeviation="5.72841"/>
<feComposite in2="SourceAlpha" operator="in" result="effect1_backgroundBlur_3428_11507"/>
<feBlend mode="normal" in="SourceGraphic" in2="effect1_backgroundBlur_3428_11507" result="shape"/>
</filter>
<filter id="filter2_b_3428_11507" x="24.8239" y="27.6858" width="152.758" height="58.2398" filterUnits="userSpaceOnUse" color-interpolation-filters="sRGB">
<feFlood flood-opacity="0" result="BackgroundImageFix"/>
<feGaussianBlur in="BackgroundImage" stdDeviation="5.72841"/>
<feComposite in2="SourceAlpha" operator="in" result="effect1_backgroundBlur_3428_11507"/>
<feBlend mode="normal" in="SourceGraphic" in2="effect1_backgroundBlur_3428_11507" result="shape"/>
</filter>
<filter id="filter3_b_3428_11507" x="627.262" y="137.481" width="110.749" height="58.2398" filterUnits="userSpaceOnUse" color-interpolation-filters="sRGB">
<feFlood flood-opacity="0" result="BackgroundImageFix"/>
<feGaussianBlur in="BackgroundImage" stdDeviation="5.72841"/>
<feComposite in2="SourceAlpha" operator="in" result="effect1_backgroundBlur_3428_11507"/>
<feBlend mode="normal" in="SourceGraphic" in2="effect1_backgroundBlur_3428_11507" result="shape"/>
</filter>
<filter id="filter4_b_3428_11507" x="564.251" y="75.424" width="218.634" height="58.2398" filterUnits="userSpaceOnUse" color-interpolation-filters="sRGB">
<feFlood flood-opacity="0" result="BackgroundImageFix"/>
<feGaussianBlur in="BackgroundImage" stdDeviation="5.72841"/>
<feComposite in2="SourceAlpha" operator="in" result="effect1_backgroundBlur_3428_11507"/>
<feBlend mode="normal" in="SourceGraphic" in2="effect1_backgroundBlur_3428_11507" result="shape"/>
</filter>
<filter id="filter5_b_3428_11507" x="578.572" y="197.629" width="150.848" height="58.2398" filterUnits="userSpaceOnUse" color-interpolation-filters="sRGB">
<feFlood flood-opacity="0" result="BackgroundImageFix"/>
<feGaussianBlur in="BackgroundImage" stdDeviation="5.72841"/>
<feComposite in2="SourceAlpha" operator="in" result="effect1_backgroundBlur_3428_11507"/>
<feBlend mode="normal" in="SourceGraphic" in2="effect1_backgroundBlur_3428_11507" result="shape"/>
</filter>
<filter id="filter6_d_3428_11507" x="300.578" y="45.3451" width="326.195" height="275.134" filterUnits="userSpaceOnUse" color-interpolation-filters="sRGB">
<feFlood flood-opacity="0" result="BackgroundImageFix"/>
<feColorMatrix in="SourceAlpha" type="matrix" values="0 0 0 0 0 0 0 0 0 0 0 0 0 0 0 0 0 0 127 0" result="hardAlpha"/>
<feMorphology radius="2.85868" operator="erode" in="SourceAlpha" result="effect1_dropShadow_3428_11507"/>
<feOffset dy="8.57604"/>
<feGaussianBlur stdDeviation="8.57604"/>
<feComposite in2="hardAlpha" operator="out"/>
<feColorMatrix type="matrix" values="0 0 0 0 0 0 0 0 0 0 0 0 0 0 0 0 0 0 0.32 0"/>
<feBlend mode="normal" in2="BackgroundImageFix" result="effect1_dropShadow_3428_11507"/>
<feBlend mode="normal" in="SourceGraphic" in2="effect1_dropShadow_3428_11507" result="shape"/>
</filter>
<filter id="filter7_d_3428_11507" x="89.2793" y="45.3451" width="326.195" height="275.134" filterUnits="userSpaceOnUse" color-interpolation-filters="sRGB">
<feFlood flood-opacity="0" result="BackgroundImageFix"/>
<feColorMatrix in="SourceAlpha" type="matrix" values="0 0 0 0 0 0 0 0 0 0 0 0 0 0 0 0 0 0 127 0" result="hardAlpha"/>
<feMorphology radius="2.85868" operator="erode" in="SourceAlpha" result="effect1_dropShadow_3428_11507"/>
<feOffset dy="8.57604"/>
<feGaussianBlur stdDeviation="8.57604"/>
<feComposite in2="hardAlpha" operator="out"/>
<feColorMatrix type="matrix" values="0 0 0 0 0 0 0 0 0 0 0 0 0 0 0 0 0 0 0.32 0"/>
<feBlend mode="normal" in2="BackgroundImageFix" result="effect1_dropShadow_3428_11507"/>
<feBlend mode="normal" in="SourceGraphic" in2="effect1_dropShadow_3428_11507" result="shape"/>
</filter>
<linearGradient id="paint0_linear_3428_11507" x1="611.677" y1="168.019" x2="471.373" y2="37.912" gradientUnits="userSpaceOnUse">
<stop stop-color="#817EA6"/>
<stop offset="0.635959" stop-color="#2E2952"/>
</linearGradient>
<linearGradient id="paint1_linear_3428_11507" x1="52.5112" y1="290.028" x2="207.567" y2="-12.02" gradientUnits="userSpaceOnUse">
<stop offset="0.282166" stop-color="#817EA6"/>
<stop offset="0.782615" stop-color="#2E2952"/>
</linearGradient>
</defs>
</svg>
