<svg width="808" height="366" viewBox="0 0 808 366" fill="none" xmlns="http://www.w3.org/2000/svg">
<g filter="url(#filter0_d_3428_11502)">
<path d="M603.7 273.9C654.123 223.476 654.123 141.723 603.7 91.2994C553.276 40.8757 471.523 40.8757 421.099 91.2994L329.799 182.6L421.099 273.9C471.523 324.323 553.276 324.324 603.7 273.9Z" fill="url(#paint0_linear_3428_11502)"/>
</g>
<path d="M550.578 222.138C572.415 200.302 572.415 164.897 550.578 143.061C528.742 121.224 493.338 121.224 471.501 143.061L431.962 182.6L471.501 222.138C493.338 243.975 528.742 243.975 550.578 222.138Z" fill="white" stroke="#E9E9F4" stroke-width="17.7778"/>
<g filter="url(#filter1_d_3428_11502)">
<path d="M146.3 273.9C95.8765 223.476 95.8765 141.723 146.3 91.2994C196.724 40.8757 278.477 40.8757 328.901 91.2994L420.201 182.6L328.901 273.9C278.477 324.323 196.724 324.324 146.3 273.9Z" fill="url(#paint1_linear_3428_11502)"/>
</g>
<path d="M199.365 222.138C177.528 200.302 177.528 164.897 199.365 143.061C221.202 121.224 256.606 121.224 278.442 143.061L317.981 182.6L278.442 222.138C256.606 243.975 221.202 243.975 199.365 222.138Z" fill="white" stroke="#E9E9F4" stroke-width="17.7778"/>
<path d="M222.517 275.555V269.039H219.937V267.155H227.461V269.039H224.893V275.555H222.517ZM231.079 275.663C230.311 275.663 229.639 275.519 229.063 275.231C228.495 274.935 228.051 274.535 227.731 274.031C227.419 273.519 227.263 272.939 227.263 272.291C227.263 271.643 227.415 271.067 227.719 270.563C228.031 270.051 228.459 269.655 229.003 269.375C229.547 269.087 230.159 268.943 230.839 268.943C231.479 268.943 232.063 269.075 232.591 269.339C233.119 269.595 233.539 269.975 233.851 270.479C234.163 270.983 234.319 271.595 234.319 272.315C234.319 272.395 234.315 272.487 234.307 272.591C234.299 272.695 234.291 272.791 234.283 272.879H229.135V271.679H233.071L232.207 272.015C232.215 271.719 232.159 271.463 232.039 271.247C231.927 271.031 231.767 270.863 231.559 270.743C231.359 270.623 231.123 270.563 230.851 270.563C230.579 270.563 230.339 270.623 230.131 270.743C229.931 270.863 229.775 271.035 229.663 271.259C229.551 271.475 229.495 271.731 229.495 272.027V272.375C229.495 272.695 229.559 272.971 229.687 273.203C229.823 273.435 230.015 273.615 230.263 273.743C230.511 273.863 230.807 273.923 231.151 273.923C231.471 273.923 231.743 273.879 231.967 273.791C232.199 273.695 232.427 273.551 232.651 273.359L233.851 274.607C233.539 274.951 233.155 275.215 232.699 275.399C232.243 275.575 231.703 275.663 231.079 275.663ZM237.823 275.663C237.271 275.663 236.731 275.599 236.203 275.471C235.683 275.343 235.263 275.183 234.943 274.991L235.627 273.431C235.931 273.615 236.287 273.763 236.695 273.875C237.103 273.979 237.503 274.031 237.895 274.031C238.279 274.031 238.543 273.991 238.687 273.911C238.839 273.831 238.915 273.723 238.915 273.587C238.915 273.459 238.843 273.367 238.699 273.311C238.563 273.247 238.379 273.199 238.147 273.167C237.923 273.135 237.675 273.099 237.403 273.059C237.131 273.019 236.855 272.967 236.575 272.903C236.303 272.831 236.051 272.727 235.819 272.591C235.595 272.447 235.415 272.255 235.279 272.015C235.143 271.775 235.075 271.471 235.075 271.103C235.075 270.687 235.195 270.319 235.435 269.999C235.683 269.671 236.043 269.415 236.515 269.231C236.987 269.039 237.563 268.943 238.243 268.943C238.699 268.943 239.159 268.991 239.623 269.087C240.095 269.175 240.491 269.311 240.811 269.495L240.127 271.043C239.807 270.859 239.487 270.735 239.167 270.671C238.847 270.599 238.543 270.563 238.255 270.563C237.871 270.563 237.599 270.607 237.439 270.695C237.287 270.783 237.211 270.891 237.211 271.019C237.211 271.147 237.279 271.247 237.415 271.319C237.551 271.383 237.731 271.435 237.955 271.475C238.187 271.507 238.439 271.543 238.711 271.583C238.983 271.615 239.255 271.667 239.527 271.739C239.807 271.811 240.059 271.919 240.283 272.063C240.515 272.199 240.699 272.387 240.835 272.627C240.971 272.859 241.039 273.159 241.039 273.527C241.039 273.927 240.915 274.287 240.667 274.607C240.427 274.927 240.067 275.183 239.587 275.375C239.115 275.567 238.527 275.663 237.823 275.663ZM245.014 275.663C244.182 275.663 243.534 275.459 243.07 275.051C242.606 274.635 242.374 274.011 242.374 273.179V267.599H244.654V273.155C244.654 273.387 244.718 273.571 244.846 273.707C244.974 273.835 245.138 273.899 245.338 273.899C245.61 273.899 245.842 273.831 246.034 273.695L246.598 275.291C246.406 275.419 246.17 275.511 245.89 275.567C245.61 275.631 245.318 275.663 245.014 275.663ZM241.426 270.995V269.291H246.142V270.995H241.426Z" fill="white"/>
<path d="M490.062 275.555V267.155H492.018L495.498 272.867H494.466L497.85 267.155H499.806L499.83 275.555H497.646L497.622 270.479H497.994L495.462 274.727H494.406L491.802 270.479H492.258V275.555H490.062ZM504.756 275.663C504.044 275.663 503.412 275.519 502.86 275.231C502.308 274.943 501.872 274.547 501.552 274.043C501.24 273.531 501.084 272.947 501.084 272.291C501.084 271.635 501.24 271.055 501.552 270.551C501.872 270.047 502.308 269.655 502.86 269.375C503.412 269.087 504.044 268.943 504.756 268.943C505.468 268.943 506.1 269.087 506.652 269.375C507.212 269.655 507.648 270.047 507.96 270.551C508.272 271.055 508.428 271.635 508.428 272.291C508.428 272.947 508.272 273.531 507.96 274.043C507.648 274.547 507.212 274.943 506.652 275.231C506.1 275.519 505.468 275.663 504.756 275.663ZM504.756 273.851C505.02 273.851 505.252 273.791 505.452 273.671C505.66 273.551 505.824 273.375 505.944 273.143C506.064 272.903 506.124 272.619 506.124 272.291C506.124 271.963 506.064 271.687 505.944 271.463C505.824 271.231 505.66 271.055 505.452 270.935C505.252 270.815 505.02 270.755 504.756 270.755C504.5 270.755 504.268 270.815 504.06 270.935C503.86 271.055 503.696 271.231 503.568 271.463C503.448 271.687 503.388 271.963 503.388 272.291C503.388 272.619 503.448 272.903 503.568 273.143C503.696 273.375 503.86 273.551 504.06 273.671C504.268 273.791 504.5 273.851 504.756 273.851ZM513.809 268.943C514.313 268.943 514.769 269.047 515.177 269.255C515.585 269.455 515.905 269.767 516.137 270.191C516.377 270.615 516.497 271.163 516.497 271.835V275.555H514.217V272.207C514.217 271.743 514.121 271.407 513.929 271.199C513.745 270.983 513.485 270.875 513.149 270.875C512.909 270.875 512.689 270.931 512.489 271.043C512.289 271.147 512.133 271.311 512.021 271.535C511.909 271.759 511.853 272.051 511.853 272.411V275.555H509.573V269.051H511.745V270.899L511.325 270.359C511.573 269.887 511.913 269.535 512.345 269.303C512.777 269.063 513.265 268.943 513.809 268.943ZM518.018 275.555V269.051H520.298V275.555H518.018ZM519.158 268.331C518.742 268.331 518.406 268.215 518.15 267.983C517.894 267.751 517.766 267.463 517.766 267.119C517.766 266.775 517.894 266.487 518.15 266.255C518.406 266.023 518.742 265.907 519.158 265.907C519.574 265.907 519.91 266.019 520.166 266.243C520.422 266.459 520.55 266.739 520.55 267.083C520.55 267.443 520.422 267.743 520.166 267.983C519.918 268.215 519.582 268.331 519.158 268.331ZM524.772 275.663C523.94 275.663 523.292 275.459 522.828 275.051C522.364 274.635 522.132 274.011 522.132 273.179V267.599H524.412V273.155C524.412 273.387 524.476 273.571 524.604 273.707C524.732 273.835 524.896 273.899 525.096 273.899C525.368 273.899 525.6 273.831 525.792 273.695L526.356 275.291C526.164 275.419 525.928 275.511 525.648 275.567C525.368 275.631 525.076 275.663 524.772 275.663ZM521.184 270.995V269.291H525.9V270.995H521.184ZM530.401 275.663C529.689 275.663 529.057 275.519 528.505 275.231C527.953 274.943 527.517 274.547 527.197 274.043C526.885 273.531 526.729 272.947 526.729 272.291C526.729 271.635 526.885 271.055 527.197 270.551C527.517 270.047 527.953 269.655 528.505 269.375C529.057 269.087 529.689 268.943 530.401 268.943C531.113 268.943 531.745 269.087 532.297 269.375C532.857 269.655 533.293 270.047 533.605 270.551C533.917 271.055 534.073 271.635 534.073 272.291C534.073 272.947 533.917 273.531 533.605 274.043C533.293 274.547 532.857 274.943 532.297 275.231C531.745 275.519 531.113 275.663 530.401 275.663ZM530.401 273.851C530.665 273.851 530.897 273.791 531.097 273.671C531.305 273.551 531.469 273.375 531.589 273.143C531.709 272.903 531.769 272.619 531.769 272.291C531.769 271.963 531.709 271.687 531.589 271.463C531.469 271.231 531.305 271.055 531.097 270.935C530.897 270.815 530.665 270.755 530.401 270.755C530.145 270.755 529.913 270.815 529.705 270.935C529.505 271.055 529.341 271.231 529.213 271.463C529.093 271.687 529.033 271.963 529.033 272.291C529.033 272.619 529.093 272.903 529.213 273.143C529.341 273.375 529.505 273.551 529.705 273.671C529.913 273.791 530.145 273.851 530.401 273.851ZM535.218 275.555V269.051H537.39V270.947L537.066 270.407C537.258 269.919 537.57 269.555 538.002 269.315C538.434 269.067 538.958 268.943 539.574 268.943V270.995C539.47 270.979 539.378 270.971 539.298 270.971C539.226 270.963 539.146 270.959 539.058 270.959C538.594 270.959 538.218 271.087 537.93 271.343C537.642 271.591 537.498 271.999 537.498 272.567V275.555H535.218Z" fill="white"/>
<path d="M490.062 97.7773V89.3773H494.034C494.962 89.3773 495.778 89.5493 496.482 89.8933C497.186 90.2373 497.734 90.7213 498.126 91.3453C498.526 91.9693 498.726 92.7133 498.726 93.5773C498.726 94.4333 498.526 95.1773 498.126 95.8093C497.734 96.4333 497.186 96.9173 496.482 97.2613C495.778 97.6053 494.962 97.7773 494.034 97.7773H490.062ZM492.438 95.8813H493.938C494.418 95.8813 494.834 95.7933 495.186 95.6173C495.546 95.4333 495.826 95.1693 496.026 94.8253C496.226 94.4733 496.326 94.0573 496.326 93.5773C496.326 93.0893 496.226 92.6733 496.026 92.3293C495.826 91.9853 495.546 91.7253 495.186 91.5493C494.834 91.3653 494.418 91.2733 493.938 91.2733H492.438V95.8813ZM503.365 97.8853C502.597 97.8853 501.925 97.7413 501.349 97.4533C500.781 97.1573 500.337 96.7573 500.017 96.2533C499.705 95.7413 499.549 95.1613 499.549 94.5133C499.549 93.8653 499.701 93.2893 500.005 92.7853C500.317 92.2733 500.745 91.8773 501.289 91.5973C501.833 91.3093 502.445 91.1653 503.125 91.1653C503.765 91.1653 504.349 91.2973 504.877 91.5613C505.405 91.8173 505.825 92.1973 506.137 92.7013C506.449 93.2053 506.605 93.8173 506.605 94.5373C506.605 94.6173 506.601 94.7093 506.593 94.8133C506.585 94.9173 506.577 95.0133 506.569 95.1013H501.421V93.9013H505.357L504.493 94.2373C504.501 93.9413 504.445 93.6853 504.325 93.4693C504.213 93.2533 504.053 93.0853 503.845 92.9653C503.645 92.8453 503.409 92.7853 503.137 92.7853C502.865 92.7853 502.625 92.8453 502.417 92.9653C502.217 93.0853 502.061 93.2573 501.949 93.4813C501.837 93.6973 501.781 93.9533 501.781 94.2493V94.5973C501.781 94.9173 501.845 95.1933 501.973 95.4253C502.109 95.6573 502.301 95.8373 502.549 95.9653C502.797 96.0853 503.093 96.1453 503.437 96.1453C503.757 96.1453 504.029 96.1013 504.253 96.0133C504.485 95.9173 504.713 95.7733 504.937 95.5813L506.137 96.8293C505.825 97.1733 505.441 97.4373 504.985 97.6213C504.529 97.7973 503.989 97.8853 503.365 97.8853ZM511.837 97.8853C511.285 97.8853 510.813 97.7653 510.421 97.5253C510.029 97.2773 509.729 96.9093 509.521 96.4213C509.321 95.9253 509.221 95.2933 509.221 94.5253C509.221 93.7493 509.317 93.1173 509.509 92.6293C509.701 92.1333 509.989 91.7653 510.373 91.5253C510.765 91.2853 511.253 91.1653 511.837 91.1653C512.429 91.1653 512.965 91.3053 513.445 91.5853C513.933 91.8573 514.317 92.2453 514.597 92.7493C514.885 93.2453 515.029 93.8373 515.029 94.5253C515.029 95.2133 514.885 95.8093 514.597 96.3133C514.317 96.8173 513.933 97.2053 513.445 97.4773C512.965 97.7493 512.429 97.8853 511.837 97.8853ZM507.745 100.105V91.2733H509.917V92.3773L509.905 94.5253L510.025 96.6853V100.105H507.745ZM511.357 96.0733C511.613 96.0733 511.841 96.0133 512.041 95.8933C512.249 95.7733 512.413 95.5973 512.533 95.3653C512.661 95.1333 512.725 94.8533 512.725 94.5253C512.725 94.1973 512.661 93.9173 512.533 93.6853C512.413 93.4533 512.249 93.2773 512.041 93.1573C511.841 93.0373 511.613 92.9773 511.357 92.9773C511.101 92.9773 510.869 93.0373 510.661 93.1573C510.461 93.2773 510.297 93.4533 510.169 93.6853C510.049 93.9173 509.989 94.1973 509.989 94.5253C509.989 94.8533 510.049 95.1333 510.169 95.3653C510.297 95.5973 510.461 95.7733 510.661 95.8933C510.869 96.0133 511.101 96.0733 511.357 96.0733ZM516.178 97.7773V88.8733H518.458V97.7773H516.178ZM523.292 97.8853C522.58 97.8853 521.948 97.7413 521.396 97.4533C520.844 97.1653 520.408 96.7693 520.088 96.2653C519.776 95.7533 519.62 95.1693 519.62 94.5133C519.62 93.8573 519.776 93.2773 520.088 92.7733C520.408 92.2693 520.844 91.8773 521.396 91.5973C521.948 91.3093 522.58 91.1653 523.292 91.1653C524.004 91.1653 524.636 91.3093 525.188 91.5973C525.748 91.8773 526.184 92.2693 526.496 92.7733C526.808 93.2773 526.964 93.8573 526.964 94.5133C526.964 95.1693 526.808 95.7533 526.496 96.2653C526.184 96.7693 525.748 97.1653 525.188 97.4533C524.636 97.7413 524.004 97.8853 523.292 97.8853ZM523.292 96.0733C523.556 96.0733 523.788 96.0133 523.988 95.8933C524.196 95.7733 524.36 95.5973 524.48 95.3653C524.6 95.1253 524.66 94.8413 524.66 94.5133C524.66 94.1853 524.6 93.9093 524.48 93.6853C524.36 93.4533 524.196 93.2773 523.988 93.1573C523.788 93.0373 523.556 92.9773 523.292 92.9773C523.036 92.9773 522.804 93.0373 522.596 93.1573C522.396 93.2773 522.232 93.4533 522.104 93.6853C521.984 93.9093 521.924 94.1853 521.924 94.5133C521.924 94.8413 521.984 95.1253 522.104 95.3653C522.232 95.5973 522.396 95.7733 522.596 95.8933C522.804 96.0133 523.036 96.0733 523.292 96.0733ZM529.05 100.213C528.706 100.213 528.358 100.157 528.006 100.045C527.662 99.9413 527.382 99.8013 527.166 99.6253L527.958 98.0293C528.094 98.1493 528.25 98.2413 528.426 98.3053C528.61 98.3773 528.79 98.4133 528.966 98.4133C529.214 98.4133 529.41 98.3573 529.554 98.2453C529.698 98.1333 529.822 97.9573 529.926 97.7173L530.226 96.9613L530.406 96.7333L532.614 91.2733H534.786L531.978 98.0413C531.754 98.6013 531.494 99.0373 531.198 99.3493C530.91 99.6693 530.586 99.8933 530.226 100.021C529.874 100.149 529.482 100.213 529.05 100.213ZM529.938 98.0533L527.07 91.2733H529.41L531.522 96.5293L529.938 98.0533Z" fill="white"/>
<path d="M196.472 97.9453C195.808 97.9453 195.192 97.8413 194.624 97.6333C194.064 97.4173 193.576 97.1133 193.16 96.7213C192.752 96.3293 192.432 95.8693 192.2 95.3413C191.968 94.8053 191.852 94.2173 191.852 93.5773C191.852 92.9373 191.968 92.3533 192.2 91.8253C192.432 91.2893 192.752 90.8253 193.16 90.4333C193.576 90.0413 194.064 89.7413 194.624 89.5333C195.192 89.3173 195.808 89.2093 196.472 89.2093C197.248 89.2093 197.94 89.3453 198.548 89.6173C199.164 89.8893 199.676 90.2813 200.084 90.7933L198.572 92.1613C198.3 91.8413 198 91.5973 197.672 91.4293C197.352 91.2613 196.992 91.1773 196.592 91.1773C196.248 91.1773 195.932 91.2333 195.644 91.3453C195.356 91.4573 195.108 91.6213 194.9 91.8373C194.7 92.0453 194.54 92.2973 194.42 92.5933C194.308 92.8893 194.252 93.2173 194.252 93.5773C194.252 93.9373 194.308 94.2653 194.42 94.5613C194.54 94.8573 194.7 95.1133 194.9 95.3293C195.108 95.5373 195.356 95.6973 195.644 95.8093C195.932 95.9213 196.248 95.9773 196.592 95.9773C196.992 95.9773 197.352 95.8933 197.672 95.7253C198 95.5573 198.3 95.3133 198.572 94.9933L200.084 96.3613C199.676 96.8653 199.164 97.2573 198.548 97.5373C197.94 97.8093 197.248 97.9453 196.472 97.9453ZM204.178 97.8853C203.466 97.8853 202.834 97.7413 202.282 97.4533C201.73 97.1653 201.294 96.7693 200.974 96.2653C200.662 95.7533 200.506 95.1693 200.506 94.5133C200.506 93.8573 200.662 93.2773 200.974 92.7733C201.294 92.2693 201.73 91.8773 202.282 91.5973C202.834 91.3093 203.466 91.1653 204.178 91.1653C204.89 91.1653 205.522 91.3093 206.074 91.5973C206.634 91.8773 207.07 92.2693 207.382 92.7733C207.694 93.2773 207.85 93.8573 207.85 94.5133C207.85 95.1693 207.694 95.7533 207.382 96.2653C207.07 96.7693 206.634 97.1653 206.074 97.4533C205.522 97.7413 204.89 97.8853 204.178 97.8853ZM204.178 96.0733C204.442 96.0733 204.674 96.0133 204.874 95.8933C205.082 95.7733 205.246 95.5973 205.366 95.3653C205.486 95.1253 205.546 94.8413 205.546 94.5133C205.546 94.1853 205.486 93.9093 205.366 93.6853C205.246 93.4533 205.082 93.2773 204.874 93.1573C204.674 93.0373 204.442 92.9773 204.178 92.9773C203.922 92.9773 203.69 93.0373 203.482 93.1573C203.282 93.2773 203.118 93.4533 202.99 93.6853C202.87 93.9093 202.81 94.1853 202.81 94.5133C202.81 94.8413 202.87 95.1253 202.99 95.3653C203.118 95.5973 203.282 95.7733 203.482 95.8933C203.69 96.0133 203.922 96.0733 204.178 96.0733ZM211.827 97.8853C211.235 97.8853 210.695 97.7493 210.207 97.4773C209.727 97.1973 209.343 96.8093 209.055 96.3133C208.767 95.8093 208.623 95.2093 208.623 94.5133C208.623 93.8253 208.767 93.2333 209.055 92.7373C209.343 92.2333 209.727 91.8453 210.207 91.5733C210.695 91.3013 211.235 91.1653 211.827 91.1653C212.387 91.1653 212.859 91.2853 213.243 91.5253C213.635 91.7653 213.931 92.1333 214.131 92.6293C214.331 93.1253 214.431 93.7533 214.431 94.5133C214.431 95.2893 214.335 95.9253 214.143 96.4213C213.951 96.9173 213.663 97.2853 213.279 97.5253C212.895 97.7653 212.411 97.8853 211.827 97.8853ZM212.307 96.0733C212.563 96.0733 212.791 96.0133 212.991 95.8933C213.199 95.7733 213.363 95.5973 213.483 95.3653C213.603 95.1253 213.663 94.8413 213.663 94.5133C213.663 94.1853 213.603 93.9093 213.483 93.6853C213.363 93.4533 213.199 93.2773 212.991 93.1573C212.791 93.0373 212.563 92.9773 212.307 92.9773C212.043 92.9773 211.807 93.0373 211.599 93.1573C211.399 93.2773 211.239 93.4533 211.119 93.6853C210.999 93.9093 210.939 94.1853 210.939 94.5133C210.939 94.8413 210.999 95.1253 211.119 95.3653C211.239 95.5973 211.399 95.7733 211.599 95.8933C211.807 96.0133 212.043 96.0733 212.307 96.0733ZM213.735 97.7773V96.6613L213.747 94.5133L213.627 92.3653V88.8733H215.907V97.7773H213.735ZM220.871 97.8853C220.103 97.8853 219.431 97.7413 218.855 97.4533C218.287 97.1573 217.843 96.7573 217.523 96.2533C217.211 95.7413 217.055 95.1613 217.055 94.5133C217.055 93.8653 217.207 93.2893 217.511 92.7853C217.823 92.2733 218.251 91.8773 218.795 91.5973C219.339 91.3093 219.951 91.1653 220.631 91.1653C221.271 91.1653 221.855 91.2973 222.383 91.5613C222.911 91.8173 223.331 92.1973 223.643 92.7013C223.955 93.2053 224.111 93.8173 224.111 94.5373C224.111 94.6173 224.107 94.7093 224.099 94.8133C224.091 94.9173 224.083 95.0133 224.075 95.1013H218.927V93.9013H222.863L221.999 94.2373C222.007 93.9413 221.951 93.6853 221.831 93.4693C221.719 93.2533 221.559 93.0853 221.351 92.9653C221.151 92.8453 220.915 92.7853 220.643 92.7853C220.371 92.7853 220.131 92.8453 219.923 92.9653C219.723 93.0853 219.567 93.2573 219.455 93.4813C219.343 93.6973 219.287 93.9533 219.287 94.2493V94.5973C219.287 94.9173 219.351 95.1933 219.479 95.4253C219.615 95.6573 219.807 95.8373 220.055 95.9653C220.303 96.0853 220.599 96.1453 220.943 96.1453C221.263 96.1453 221.535 96.1013 221.759 96.0133C221.991 95.9173 222.219 95.7733 222.443 95.5813L223.643 96.8293C223.331 97.1733 222.947 97.4373 222.491 97.6213C222.035 97.7973 221.495 97.8853 220.871 97.8853Z" fill="white"/>
<path d="M314.951 140V131.6H318.791C319.559 131.6 320.219 131.724 320.771 131.972C321.331 132.22 321.763 132.58 322.067 133.052C322.371 133.516 322.523 134.068 322.523 134.708C322.523 135.34 322.371 135.888 322.067 136.352C321.763 136.816 321.331 137.176 320.771 137.432C320.219 137.68 319.559 137.804 318.791 137.804H316.271L317.327 136.772V140H314.951ZM317.327 137.024L316.271 135.932H318.647C319.143 135.932 319.511 135.824 319.751 135.608C319.999 135.392 320.123 135.092 320.123 134.708C320.123 134.316 319.999 134.012 319.751 133.796C319.511 133.58 319.143 133.472 318.647 133.472H316.271L317.327 132.38V137.024ZM323.78 140V131.096H326.06V140H323.78ZM331.602 140V138.788L331.446 138.488V136.256C331.446 135.896 331.334 135.62 331.11 135.428C330.894 135.228 330.546 135.128 330.066 135.128C329.754 135.128 329.438 135.18 329.118 135.284C328.798 135.38 328.526 135.516 328.302 135.692L327.534 134.144C327.902 133.904 328.342 133.72 328.854 133.592C329.374 133.456 329.89 133.388 330.402 133.388C331.458 133.388 332.274 133.632 332.85 134.12C333.434 134.6 333.726 135.356 333.726 136.388V140H331.602ZM329.682 140.108C329.162 140.108 328.722 140.02 328.362 139.844C328.002 139.668 327.726 139.428 327.534 139.124C327.35 138.82 327.258 138.48 327.258 138.104C327.258 137.704 327.358 137.36 327.558 137.072C327.766 136.776 328.082 136.552 328.506 136.4C328.93 136.24 329.478 136.16 330.15 136.16H331.686V137.348H330.462C330.094 137.348 329.834 137.408 329.682 137.528C329.538 137.648 329.466 137.808 329.466 138.008C329.466 138.208 329.542 138.368 329.694 138.488C329.846 138.608 330.054 138.668 330.318 138.668C330.566 138.668 330.79 138.608 330.99 138.488C331.198 138.36 331.35 138.168 331.446 137.912L331.758 138.752C331.638 139.2 331.402 139.54 331.05 139.772C330.706 139.996 330.25 140.108 329.682 140.108ZM339.49 133.388C339.994 133.388 340.45 133.492 340.858 133.7C341.266 133.9 341.586 134.212 341.818 134.636C342.058 135.06 342.178 135.608 342.178 136.28V140H339.898V136.652C339.898 136.188 339.802 135.852 339.61 135.644C339.426 135.428 339.166 135.32 338.83 135.32C338.59 135.32 338.37 135.376 338.17 135.488C337.97 135.592 337.814 135.756 337.702 135.98C337.59 136.204 337.534 136.496 337.534 136.856V140H335.254V133.496H337.426V135.344L337.006 134.804C337.254 134.332 337.594 133.98 338.026 133.748C338.458 133.508 338.946 133.388 339.49 133.388Z" fill="white"/>
<path d="M230.117 82.961C229.789 83.326 229.818 83.8881 230.184 84.2163L236.133 89.5647C236.498 89.8929 237.06 89.863 237.388 89.4979C237.716 89.1328 237.687 88.5708 237.321 88.2426L232.033 83.4885L236.787 78.2002C237.115 77.8351 237.086 77.2731 236.72 76.9448C236.355 76.6166 235.793 76.6465 235.465 77.0116L230.117 82.961ZM312.962 120.482C306.277 113.797 294.176 103.911 279.543 95.9141C264.919 87.922 247.675 81.7663 230.731 82.6676L230.825 84.4429C247.303 83.5664 264.207 89.5588 278.69 97.4741C293.165 105.384 305.131 115.165 311.705 121.739L312.962 120.482Z" fill="#69CA94"/>
<path d="M346.645 206.553C346.614 206.064 346.192 205.691 345.702 205.722L337.718 206.222C337.228 206.253 336.855 206.675 336.886 207.165C336.917 207.655 337.339 208.027 337.829 207.997L344.926 207.552L345.371 214.649C345.402 215.139 345.824 215.511 346.314 215.481C346.804 215.45 347.176 215.028 347.145 214.538L346.645 206.553ZM266.173 270.417C280.069 263.948 315.476 242.284 346.424 207.197L345.091 206.021C314.319 240.909 279.116 262.43 265.422 268.806L266.173 270.417Z" fill="#69CA94"/>
<path d="M476.372 95.4296C476.671 95.04 476.597 94.482 476.207 94.1833L469.859 89.3152C469.469 89.0165 468.911 89.0902 468.613 89.4797C468.314 89.8693 468.388 90.4273 468.777 90.726L474.42 95.0532L470.093 100.696C469.794 101.086 469.868 101.644 470.258 101.942C470.647 102.241 471.205 102.168 471.504 101.778L476.372 95.4296ZM394.422 162.691C400.757 152.488 412.455 136.872 426.921 123.241C441.408 109.59 458.552 98.044 475.783 95.7699L475.55 94.0074C457.758 96.3556 440.273 108.217 425.701 121.947C411.108 135.698 399.316 151.438 392.911 161.753L394.422 162.691Z" fill="#69CA94"/>
<path d="M479.27 264.489C463.423 260.272 424.462 243.107 395.397 208.178" stroke="#69CA94" stroke-width="1.77778"/>
<path d="M337.696 147.557C337.205 147.541 336.794 147.925 336.778 148.416L336.512 156.411C336.495 156.902 336.88 157.313 337.37 157.329C337.861 157.346 338.272 156.961 338.288 156.47L338.525 149.363L345.632 149.6C346.123 149.617 346.534 149.232 346.55 148.741C346.567 148.251 346.182 147.84 345.692 147.823L337.696 147.557ZM351.205 161.616L338.316 147.838L337.017 149.053L349.906 162.83L351.205 161.616Z" fill="#69CA94"/>
<path d="M350.951 189.334V180.934H354.791C355.559 180.934 356.219 181.058 356.771 181.306C357.331 181.554 357.763 181.914 358.067 182.386C358.371 182.85 358.523 183.402 358.523 184.042C358.523 184.674 358.371 185.222 358.067 185.686C357.763 186.142 357.331 186.494 356.771 186.742C356.219 186.982 355.559 187.102 354.791 187.102H352.271L353.327 186.106V189.334H350.951ZM356.147 189.334L354.059 186.274H356.591L358.691 189.334H356.147ZM353.327 186.358L352.271 185.266H354.647C355.143 185.266 355.511 185.158 355.751 184.942C355.999 184.726 356.123 184.426 356.123 184.042C356.123 183.65 355.999 183.346 355.751 183.13C355.511 182.914 355.143 182.806 354.647 182.806H352.271L353.327 181.714V186.358ZM363.223 189.442C362.455 189.442 361.783 189.298 361.207 189.01C360.639 188.714 360.195 188.314 359.875 187.81C359.563 187.298 359.407 186.718 359.407 186.07C359.407 185.422 359.559 184.846 359.863 184.342C360.175 183.83 360.603 183.434 361.147 183.154C361.691 182.866 362.303 182.722 362.983 182.722C363.623 182.722 364.207 182.854 364.735 183.118C365.263 183.374 365.683 183.754 365.995 184.258C366.307 184.762 366.463 185.374 366.463 186.094C366.463 186.174 366.459 186.266 366.451 186.37C366.443 186.474 366.435 186.57 366.427 186.658H361.279V185.458H365.215L364.351 185.794C364.359 185.498 364.303 185.242 364.183 185.026C364.071 184.81 363.911 184.642 363.703 184.522C363.503 184.402 363.267 184.342 362.995 184.342C362.723 184.342 362.483 184.402 362.275 184.522C362.075 184.642 361.919 184.814 361.807 185.038C361.695 185.254 361.639 185.51 361.639 185.806V186.154C361.639 186.474 361.703 186.75 361.831 186.982C361.967 187.214 362.159 187.394 362.407 187.522C362.655 187.642 362.951 187.702 363.295 187.702C363.615 187.702 363.887 187.658 364.111 187.57C364.343 187.474 364.571 187.33 364.795 187.138L365.995 188.386C365.683 188.73 365.299 188.994 364.843 189.178C364.387 189.354 363.847 189.442 363.223 189.442ZM367.603 189.334V180.43H369.883V189.334H367.603ZM374.862 189.442C374.094 189.442 373.422 189.298 372.846 189.01C372.278 188.714 371.834 188.314 371.514 187.81C371.202 187.298 371.046 186.718 371.046 186.07C371.046 185.422 371.198 184.846 371.502 184.342C371.814 183.83 372.242 183.434 372.786 183.154C373.33 182.866 373.942 182.722 374.622 182.722C375.262 182.722 375.846 182.854 376.374 183.118C376.902 183.374 377.322 183.754 377.634 184.258C377.946 184.762 378.102 185.374 378.102 186.094C378.102 186.174 378.098 186.266 378.09 186.37C378.082 186.474 378.074 186.57 378.066 186.658H372.918V185.458H376.854L375.99 185.794C375.998 185.498 375.942 185.242 375.822 185.026C375.71 184.81 375.55 184.642 375.342 184.522C375.142 184.402 374.906 184.342 374.634 184.342C374.362 184.342 374.122 184.402 373.914 184.522C373.714 184.642 373.558 184.814 373.446 185.038C373.334 185.254 373.278 185.51 373.278 185.806V186.154C373.278 186.474 373.342 186.75 373.47 186.982C373.606 187.214 373.798 187.394 374.046 187.522C374.294 187.642 374.59 187.702 374.934 187.702C375.254 187.702 375.526 187.658 375.75 187.57C375.982 187.474 376.21 187.33 376.434 187.138L377.634 188.386C377.322 188.73 376.938 188.994 376.482 189.178C376.026 189.354 375.486 189.442 374.862 189.442ZM383.038 189.334V188.122L382.882 187.822V185.59C382.882 185.23 382.77 184.954 382.546 184.762C382.33 184.562 381.982 184.462 381.502 184.462C381.19 184.462 380.874 184.514 380.554 184.618C380.234 184.714 379.962 184.85 379.738 185.026L378.97 183.478C379.338 183.238 379.778 183.054 380.29 182.926C380.81 182.79 381.326 182.722 381.838 182.722C382.894 182.722 383.71 182.966 384.286 183.454C384.87 183.934 385.162 184.69 385.162 185.722V189.334H383.038ZM381.118 189.442C380.598 189.442 380.158 189.354 379.798 189.178C379.438 189.002 379.162 188.762 378.97 188.458C378.786 188.154 378.694 187.814 378.694 187.438C378.694 187.038 378.794 186.694 378.994 186.406C379.202 186.11 379.518 185.886 379.942 185.734C380.366 185.574 380.914 185.494 381.586 185.494H383.122V186.682H381.898C381.53 186.682 381.27 186.742 381.118 186.862C380.974 186.982 380.902 187.142 380.902 187.342C380.902 187.542 380.978 187.702 381.13 187.822C381.282 187.942 381.49 188.002 381.754 188.002C382.002 188.002 382.226 187.942 382.426 187.822C382.634 187.694 382.786 187.502 382.882 187.246L383.194 188.086C383.074 188.534 382.838 188.874 382.486 189.106C382.142 189.33 381.686 189.442 381.118 189.442ZM389.054 189.442C388.502 189.442 387.962 189.378 387.434 189.25C386.914 189.122 386.494 188.962 386.174 188.77L386.858 187.21C387.162 187.394 387.518 187.542 387.926 187.654C388.334 187.758 388.734 187.81 389.126 187.81C389.51 187.81 389.774 187.77 389.918 187.69C390.07 187.61 390.146 187.502 390.146 187.366C390.146 187.238 390.074 187.146 389.93 187.09C389.794 187.026 389.61 186.978 389.378 186.946C389.154 186.914 388.906 186.878 388.634 186.838C388.362 186.798 388.086 186.746 387.806 186.682C387.534 186.61 387.282 186.506 387.05 186.37C386.826 186.226 386.646 186.034 386.51 185.794C386.374 185.554 386.306 185.25 386.306 184.882C386.306 184.466 386.426 184.098 386.666 183.778C386.914 183.45 387.274 183.194 387.746 183.01C388.218 182.818 388.794 182.722 389.474 182.722C389.93 182.722 390.39 182.77 390.854 182.866C391.326 182.954 391.722 183.09 392.042 183.274L391.358 184.822C391.038 184.638 390.718 184.514 390.398 184.45C390.078 184.378 389.774 184.342 389.486 184.342C389.102 184.342 388.83 184.386 388.67 184.474C388.518 184.562 388.442 184.67 388.442 184.798C388.442 184.926 388.51 185.026 388.646 185.098C388.782 185.162 388.962 185.214 389.186 185.254C389.418 185.286 389.67 185.322 389.942 185.362C390.214 185.394 390.486 185.446 390.758 185.518C391.038 185.59 391.29 185.698 391.514 185.842C391.746 185.978 391.93 186.166 392.066 186.406C392.202 186.638 392.27 186.938 392.27 187.306C392.27 187.706 392.146 188.066 391.898 188.386C391.658 188.706 391.298 188.962 390.818 189.154C390.346 189.346 389.758 189.442 389.054 189.442ZM396.749 189.442C395.981 189.442 395.309 189.298 394.733 189.01C394.165 188.714 393.721 188.314 393.401 187.81C393.089 187.298 392.933 186.718 392.933 186.07C392.933 185.422 393.085 184.846 393.389 184.342C393.701 183.83 394.129 183.434 394.673 183.154C395.217 182.866 395.829 182.722 396.509 182.722C397.149 182.722 397.733 182.854 398.261 183.118C398.789 183.374 399.209 183.754 399.521 184.258C399.833 184.762 399.989 185.374 399.989 186.094C399.989 186.174 399.985 186.266 399.977 186.37C399.969 186.474 399.961 186.57 399.953 186.658H394.805V185.458H398.741L397.877 185.794C397.885 185.498 397.829 185.242 397.709 185.026C397.597 184.81 397.437 184.642 397.229 184.522C397.029 184.402 396.793 184.342 396.521 184.342C396.249 184.342 396.009 184.402 395.801 184.522C395.601 184.642 395.445 184.814 395.333 185.038C395.221 185.254 395.165 185.51 395.165 185.806V186.154C395.165 186.474 395.229 186.75 395.357 186.982C395.493 187.214 395.685 187.394 395.933 187.522C396.181 187.642 396.477 187.702 396.821 187.702C397.141 187.702 397.413 187.658 397.637 187.57C397.869 187.474 398.097 187.33 398.321 187.138L399.521 188.386C399.209 188.73 398.825 188.994 398.369 189.178C397.913 189.354 397.373 189.442 396.749 189.442Z" fill="white"/>
<path d="M125.284 189.334V180.934H129.58C130.684 180.934 131.508 181.138 132.052 181.546C132.596 181.946 132.868 182.474 132.868 183.13C132.868 183.562 132.752 183.942 132.52 184.27C132.296 184.59 131.976 184.846 131.56 185.038C131.152 185.222 130.664 185.314 130.096 185.314L130.336 184.738C130.928 184.738 131.444 184.83 131.884 185.014C132.324 185.19 132.664 185.45 132.904 185.794C133.152 186.13 133.276 186.542 133.276 187.03C133.276 187.758 132.98 188.326 132.388 188.734C131.804 189.134 130.948 189.334 129.82 189.334H125.284ZM127.636 187.618H129.628C130.036 187.618 130.344 187.55 130.552 187.414C130.768 187.27 130.876 187.054 130.876 186.766C130.876 186.478 130.768 186.266 130.552 186.13C130.344 185.986 130.036 185.914 129.628 185.914H127.468V184.27H129.268C129.668 184.27 129.968 184.202 130.168 184.066C130.368 183.93 130.468 183.726 130.468 183.454C130.468 183.182 130.368 182.982 130.168 182.854C129.968 182.718 129.668 182.65 129.268 182.65H127.636V187.618ZM137.224 189.442C136.696 189.442 136.22 189.338 135.796 189.13C135.38 188.922 135.052 188.598 134.812 188.158C134.58 187.71 134.464 187.146 134.464 186.466V182.83H136.744V186.094C136.744 186.598 136.836 186.958 137.02 187.174C137.212 187.39 137.48 187.498 137.824 187.498C138.048 187.498 138.252 187.446 138.436 187.342C138.62 187.238 138.768 187.074 138.88 186.85C138.992 186.618 139.048 186.322 139.048 185.962V182.83H141.328V189.334H139.156V187.498L139.576 188.014C139.352 188.494 139.028 188.854 138.604 189.094C138.18 189.326 137.72 189.442 137.224 189.442ZM142.885 189.334V182.83H145.165V189.334H142.885ZM144.025 182.11C143.609 182.11 143.273 181.994 143.017 181.762C142.761 181.53 142.633 181.242 142.633 180.898C142.633 180.554 142.761 180.266 143.017 180.034C143.273 179.802 143.609 179.686 144.025 179.686C144.441 179.686 144.777 179.798 145.033 180.022C145.289 180.238 145.417 180.518 145.417 180.862C145.417 181.222 145.289 181.522 145.033 181.762C144.785 181.994 144.449 182.11 144.025 182.11ZM146.736 189.334V180.43H149.016V189.334H146.736ZM153.419 189.442C152.827 189.442 152.287 189.306 151.799 189.034C151.319 188.754 150.935 188.366 150.647 187.87C150.359 187.366 150.215 186.766 150.215 186.07C150.215 185.382 150.359 184.79 150.647 184.294C150.935 183.79 151.319 183.402 151.799 183.13C152.287 182.858 152.827 182.722 153.419 182.722C153.979 182.722 154.451 182.842 154.835 183.082C155.227 183.322 155.523 183.69 155.723 184.186C155.923 184.682 156.023 185.31 156.023 186.07C156.023 186.846 155.927 187.482 155.735 187.978C155.543 188.474 155.255 188.842 154.871 189.082C154.487 189.322 154.003 189.442 153.419 189.442ZM153.899 187.63C154.155 187.63 154.383 187.57 154.583 187.45C154.791 187.33 154.955 187.154 155.075 186.922C155.195 186.682 155.255 186.398 155.255 186.07C155.255 185.742 155.195 185.466 155.075 185.242C154.955 185.01 154.791 184.834 154.583 184.714C154.383 184.594 154.155 184.534 153.899 184.534C153.635 184.534 153.399 184.594 153.191 184.714C152.991 184.834 152.831 185.01 152.711 185.242C152.591 185.466 152.531 185.742 152.531 186.07C152.531 186.398 152.591 186.682 152.711 186.922C152.831 187.154 152.991 187.33 153.191 187.45C153.399 187.57 153.635 187.63 153.899 187.63ZM155.327 189.334V188.218L155.339 186.07L155.219 183.922V180.43H157.499V189.334H155.327Z" fill="white"/>
<path d="M141.401 166.089C141.696 166.482 142.253 166.56 142.645 166.265L149.038 161.456C149.431 161.161 149.509 160.603 149.214 160.211C148.919 159.819 148.362 159.74 147.97 160.035L142.287 164.31L138.012 158.628C137.717 158.235 137.16 158.156 136.767 158.452C136.375 158.747 136.296 159.304 136.591 159.696L141.401 166.089ZM179.151 99.9417C168.488 107.526 146.073 131.175 141.231 165.43L142.991 165.679C147.749 132.024 169.808 108.769 180.182 101.39L179.151 99.9417Z" fill="#69CA94"/>
<path d="M204.086 272.339C204.519 272.107 204.682 271.568 204.45 271.135L200.671 264.084C200.439 263.652 199.9 263.489 199.468 263.721C199.035 263.953 198.872 264.491 199.104 264.924L202.463 271.192L196.196 274.551C195.763 274.783 195.6 275.322 195.832 275.754C196.064 276.187 196.603 276.35 197.035 276.118L204.086 272.339ZM142.564 199.012C145.253 218.137 161.154 259.64 203.409 272.406L203.924 270.704C162.623 258.226 146.969 217.566 144.325 198.765L142.564 199.012Z" fill="#69CA94"/>
<path d="M588.52 189.502C587.848 189.502 587.228 189.394 586.66 189.178C586.092 188.962 585.596 188.658 585.172 188.266C584.756 187.866 584.432 187.402 584.2 186.874C583.968 186.346 583.852 185.766 583.852 185.134C583.852 184.502 583.968 183.922 584.2 183.394C584.432 182.866 584.756 182.406 585.172 182.014C585.596 181.614 586.092 181.306 586.66 181.09C587.228 180.874 587.848 180.766 588.52 180.766C589.2 180.766 589.82 180.874 590.38 181.09C590.948 181.306 591.44 181.614 591.856 182.014C592.272 182.406 592.596 182.866 592.828 183.394C593.068 183.922 593.188 184.502 593.188 185.134C593.188 185.766 593.068 186.35 592.828 186.886C592.596 187.414 592.272 187.874 591.856 188.266C591.44 188.658 590.948 188.962 590.38 189.178C589.82 189.394 589.2 189.502 588.52 189.502ZM588.52 187.534C588.84 187.534 589.136 187.478 589.408 187.366C589.688 187.254 589.928 187.094 590.128 186.886C590.336 186.67 590.496 186.414 590.608 186.118C590.728 185.822 590.788 185.494 590.788 185.134C590.788 184.766 590.728 184.438 590.608 184.15C590.496 183.854 590.336 183.602 590.128 183.394C589.928 183.178 589.688 183.014 589.408 182.902C589.136 182.79 588.84 182.734 588.52 182.734C588.2 182.734 587.9 182.79 587.62 182.902C587.348 183.014 587.108 183.178 586.9 183.394C586.7 183.602 586.54 183.854 586.42 184.15C586.308 184.438 586.252 184.766 586.252 185.134C586.252 185.494 586.308 185.822 586.42 186.118C586.54 186.414 586.7 186.67 586.9 186.886C587.108 187.094 587.348 187.254 587.62 187.366C587.9 187.478 588.2 187.534 588.52 187.534ZM598.506 189.442C597.954 189.442 597.482 189.322 597.09 189.082C596.698 188.834 596.398 188.466 596.19 187.978C595.99 187.482 595.89 186.85 595.89 186.082C595.89 185.306 595.986 184.674 596.178 184.186C596.37 183.69 596.658 183.322 597.042 183.082C597.434 182.842 597.922 182.722 598.506 182.722C599.098 182.722 599.634 182.862 600.114 183.142C600.602 183.414 600.986 183.802 601.266 184.306C601.554 184.802 601.698 185.394 601.698 186.082C601.698 186.77 601.554 187.366 601.266 187.87C600.986 188.374 600.602 188.762 600.114 189.034C599.634 189.306 599.098 189.442 598.506 189.442ZM594.414 191.662V182.83H596.586V183.934L596.574 186.082L596.694 188.242V191.662H594.414ZM598.026 187.63C598.282 187.63 598.51 187.57 598.71 187.45C598.918 187.33 599.082 187.154 599.202 186.922C599.33 186.69 599.394 186.41 599.394 186.082C599.394 185.754 599.33 185.474 599.202 185.242C599.082 185.01 598.918 184.834 598.71 184.714C598.51 184.594 598.282 184.534 598.026 184.534C597.77 184.534 597.538 184.594 597.33 184.714C597.13 184.834 596.966 185.01 596.838 185.242C596.718 185.474 596.658 185.754 596.658 186.082C596.658 186.41 596.718 186.69 596.838 186.922C596.966 187.154 597.13 187.33 597.33 187.45C597.538 187.57 597.77 187.63 598.026 187.63ZM606.254 189.442C605.486 189.442 604.814 189.298 604.238 189.01C603.67 188.714 603.226 188.314 602.906 187.81C602.594 187.298 602.438 186.718 602.438 186.07C602.438 185.422 602.59 184.846 602.894 184.342C603.206 183.83 603.634 183.434 604.178 183.154C604.722 182.866 605.334 182.722 606.014 182.722C606.654 182.722 607.238 182.854 607.766 183.118C608.294 183.374 608.714 183.754 609.026 184.258C609.338 184.762 609.494 185.374 609.494 186.094C609.494 186.174 609.49 186.266 609.482 186.37C609.474 186.474 609.466 186.57 609.458 186.658H604.31V185.458H608.246L607.382 185.794C607.39 185.498 607.334 185.242 607.214 185.026C607.102 184.81 606.942 184.642 606.734 184.522C606.534 184.402 606.298 184.342 606.026 184.342C605.754 184.342 605.514 184.402 605.306 184.522C605.106 184.642 604.95 184.814 604.838 185.038C604.726 185.254 604.67 185.51 604.67 185.806V186.154C604.67 186.474 604.734 186.75 604.862 186.982C604.998 187.214 605.19 187.394 605.438 187.522C605.686 187.642 605.982 187.702 606.326 187.702C606.646 187.702 606.918 187.658 607.142 187.57C607.374 187.474 607.602 187.33 607.826 187.138L609.026 188.386C608.714 188.73 608.33 188.994 607.874 189.178C607.418 189.354 606.878 189.442 606.254 189.442ZM610.634 189.334V182.83H612.806V184.726L612.482 184.186C612.674 183.698 612.986 183.334 613.418 183.094C613.85 182.846 614.374 182.722 614.99 182.722V184.774C614.886 184.758 614.794 184.75 614.714 184.75C614.642 184.742 614.562 184.738 614.474 184.738C614.01 184.738 613.634 184.866 613.346 185.122C613.058 185.37 612.914 185.778 612.914 186.346V189.334H610.634ZM619.605 189.334V188.122L619.449 187.822V185.59C619.449 185.23 619.337 184.954 619.113 184.762C618.897 184.562 618.549 184.462 618.069 184.462C617.757 184.462 617.441 184.514 617.121 184.618C616.801 184.714 616.529 184.85 616.305 185.026L615.537 183.478C615.905 183.238 616.345 183.054 616.857 182.926C617.377 182.79 617.893 182.722 618.405 182.722C619.461 182.722 620.277 182.966 620.853 183.454C621.437 183.934 621.729 184.69 621.729 185.722V189.334H619.605ZM617.685 189.442C617.165 189.442 616.725 189.354 616.365 189.178C616.005 189.002 615.729 188.762 615.537 188.458C615.353 188.154 615.261 187.814 615.261 187.438C615.261 187.038 615.361 186.694 615.561 186.406C615.769 186.11 616.085 185.886 616.509 185.734C616.933 185.574 617.481 185.494 618.153 185.494H619.689V186.682H618.465C618.097 186.682 617.837 186.742 617.685 186.862C617.541 186.982 617.469 187.142 617.469 187.342C617.469 187.542 617.545 187.702 617.697 187.822C617.849 187.942 618.057 188.002 618.321 188.002C618.569 188.002 618.793 187.942 618.993 187.822C619.201 187.694 619.353 187.502 619.449 187.246L619.761 188.086C619.641 188.534 619.405 188.874 619.053 189.106C618.709 189.33 618.253 189.442 617.685 189.442ZM626.161 189.442C625.329 189.442 624.681 189.238 624.217 188.83C623.753 188.414 623.521 187.79 623.521 186.958V181.378H625.801V186.934C625.801 187.166 625.865 187.35 625.993 187.486C626.121 187.614 626.285 187.678 626.485 187.678C626.757 187.678 626.989 187.61 627.181 187.474L627.745 189.07C627.553 189.198 627.317 189.29 627.037 189.346C626.757 189.41 626.465 189.442 626.161 189.442ZM622.573 184.774V183.07H627.289V184.774H622.573ZM631.934 189.442C631.166 189.442 630.494 189.298 629.918 189.01C629.35 188.714 628.906 188.314 628.586 187.81C628.274 187.298 628.118 186.718 628.118 186.07C628.118 185.422 628.27 184.846 628.574 184.342C628.886 183.83 629.314 183.434 629.858 183.154C630.402 182.866 631.014 182.722 631.694 182.722C632.334 182.722 632.918 182.854 633.446 183.118C633.974 183.374 634.394 183.754 634.706 184.258C635.018 184.762 635.174 185.374 635.174 186.094C635.174 186.174 635.17 186.266 635.162 186.37C635.154 186.474 635.146 186.57 635.138 186.658H629.99V185.458H633.926L633.062 185.794C633.07 185.498 633.014 185.242 632.894 185.026C632.782 184.81 632.622 184.642 632.414 184.522C632.214 184.402 631.978 184.342 631.706 184.342C631.434 184.342 631.194 184.402 630.986 184.522C630.786 184.642 630.63 184.814 630.518 185.038C630.406 185.254 630.35 185.51 630.35 185.806V186.154C630.35 186.474 630.414 186.75 630.542 186.982C630.678 187.214 630.87 187.394 631.118 187.522C631.366 187.642 631.662 187.702 632.006 187.702C632.326 187.702 632.598 187.658 632.822 187.57C633.054 187.474 633.282 187.33 633.506 187.138L634.706 188.386C634.394 188.73 634.01 188.994 633.554 189.178C633.098 189.354 632.558 189.442 631.934 189.442Z" fill="white"/>
<path d="M608.915 167.825C609.309 168.118 609.866 168.035 610.158 167.641L614.925 161.216C615.217 160.822 615.135 160.265 614.741 159.973C614.346 159.68 613.79 159.763 613.497 160.157L609.26 165.868L603.549 161.631C603.155 161.338 602.598 161.421 602.306 161.815C602.013 162.209 602.096 162.766 602.49 163.058L608.915 167.825ZM545.225 93.9729C563.376 98.5838 601.523 119.711 608.565 167.242L610.324 166.981C603.143 118.512 564.253 96.9722 545.663 92.2498L545.225 93.9729Z" fill="#69CA94"/>
<path d="M546.258 269.511C545.988 269.921 546.101 270.472 546.511 270.742L553.189 275.147C553.599 275.417 554.15 275.304 554.42 274.894C554.69 274.485 554.577 273.933 554.168 273.663L548.231 269.748L552.147 263.811C552.417 263.402 552.304 262.85 551.894 262.58C551.484 262.31 550.933 262.423 550.663 262.833L546.258 269.511ZM608.57 200.954C606.85 210.54 601.687 225.501 591.798 239.111C581.917 252.71 567.352 264.918 546.821 269.129L547.179 270.871C568.248 266.549 583.165 254.017 593.236 240.156C603.298 226.307 608.557 211.09 610.319 201.268L608.57 200.954Z" fill="#69CA94"/>
<g filter="url(#filter2_b_3428_11502)">
<path d="M172 53C172 46.3726 166.627 41 160 41H48C41.3726 41 36 46.3726 36 53V66C36 72.6274 41.3726 78 48 78H172V53Z" fill="#69CA94"/>
</g>
<path d="M56.128 64V55.6H57.412L61.084 61.732H60.412L64.024 55.6H65.308L65.32 64H63.844L63.832 57.916H64.144L61.072 63.04H60.376L57.256 57.916H57.616V64H56.128ZM66.4898 64L70.2698 55.6H71.8058L75.5978 64H73.9658L70.7138 56.428H71.3378L68.0978 64H66.4898ZM68.2298 62.056L68.6498 60.832H73.1858L73.6058 62.056H68.2298ZM76.755 64V55.6H80.211C80.955 55.6 81.591 55.72 82.119 55.96C82.655 56.2 83.067 56.544 83.355 56.992C83.643 57.44 83.787 57.972 83.787 58.588C83.787 59.204 83.643 59.736 83.355 60.184C83.067 60.624 82.655 60.964 82.119 61.204C81.591 61.436 80.955 61.552 80.211 61.552H77.619L78.315 60.844V64H76.755ZM82.251 64L80.127 60.952H81.795L83.931 64H82.251ZM78.315 61.012L77.619 60.268H80.139C80.827 60.268 81.343 60.12 81.687 59.824C82.039 59.528 82.215 59.116 82.215 58.588C82.215 58.052 82.039 57.64 81.687 57.352C81.343 57.064 80.827 56.92 80.139 56.92H77.619L78.315 56.152V61.012ZM87.0132 62.02L86.9292 60.172L91.3332 55.6H93.0852L89.4252 59.488L88.5612 60.436L87.0132 62.02ZM85.6212 64V55.6H87.1812V64H85.6212ZM91.4772 64L88.2612 60.172L89.2932 59.032L93.3012 64H91.4772ZM95.8923 59.092H100.068V60.376H95.8923V59.092ZM96.0123 62.692H100.752V64H94.4523V55.6H100.584V56.908H96.0123V62.692ZM104.284 64V56.92H101.5V55.6H108.628V56.92H105.844V64H104.284ZM113.293 64V55.6H116.749C117.493 55.6 118.129 55.72 118.657 55.96C119.193 56.2 119.605 56.544 119.893 56.992C120.181 57.44 120.325 57.972 120.325 58.588C120.325 59.204 120.181 59.736 119.893 60.184C119.605 60.632 119.193 60.976 118.657 61.216C118.129 61.456 117.493 61.576 116.749 61.576H114.157L114.853 60.844V64H113.293ZM114.853 61.012L114.157 60.256H116.677C117.365 60.256 117.881 60.112 118.225 59.824C118.577 59.528 118.753 59.116 118.753 58.588C118.753 58.052 118.577 57.64 118.225 57.352C117.881 57.064 117.365 56.92 116.677 56.92H114.157L114.853 56.152V61.012ZM121.972 64V55.6H123.532V62.68H127.924V64H121.972ZM128.068 64L131.848 55.6H133.384L137.176 64H135.544L132.292 56.428H132.916L129.676 64H128.068ZM129.808 62.056L130.228 60.832H134.764L135.184 62.056H129.808ZM142.104 64.12C141.464 64.12 140.868 64.016 140.316 63.808C139.772 63.592 139.296 63.292 138.888 62.908C138.488 62.516 138.176 62.056 137.952 61.528C137.728 61 137.616 60.424 137.616 59.8C137.616 59.176 137.728 58.6 137.952 58.072C138.176 57.544 138.492 57.088 138.9 56.704C139.308 56.312 139.784 56.012 140.328 55.804C140.872 55.588 141.468 55.48 142.116 55.48C142.804 55.48 143.432 55.6 144 55.84C144.568 56.072 145.048 56.42 145.44 56.884L144.432 57.832C144.128 57.504 143.788 57.26 143.412 57.1C143.036 56.932 142.628 56.848 142.188 56.848C141.748 56.848 141.344 56.92 140.976 57.064C140.616 57.208 140.3 57.412 140.028 57.676C139.764 57.94 139.556 58.252 139.404 58.612C139.26 58.972 139.188 59.368 139.188 59.8C139.188 60.232 139.26 60.628 139.404 60.988C139.556 61.348 139.764 61.66 140.028 61.924C140.3 62.188 140.616 62.392 140.976 62.536C141.344 62.68 141.748 62.752 142.188 62.752C142.628 62.752 143.036 62.672 143.412 62.512C143.788 62.344 144.128 62.092 144.432 61.756L145.44 62.716C145.048 63.172 144.568 63.52 144 63.76C143.432 64 142.8 64.12 142.104 64.12ZM148.464 59.092H152.64V60.376H148.464V59.092ZM148.584 62.692H153.324V64H147.024V55.6H153.156V56.908H148.584V62.692Z" fill="white"/>
<g filter="url(#filter3_b_3428_11502)">
<path d="M124 149C124 142.373 118.627 137 112 137H12C5.37259 137 0 142.373 0 149V162C0 168.627 5.37258 174 12 174H124V149Z" fill="#D3D2E1" fill-opacity="0.7"/>
</g>
<path d="M22.128 160H23.688V151.6H22.128V160ZM26.0489 160H29.7209C32.4449 160 34.3049 158.32 34.3049 155.8C34.3049 153.28 32.4449 151.6 29.7209 151.6H26.0489V160ZM27.6089 158.68V152.92H29.6489C31.5209 152.92 32.7329 154.06 32.7329 155.8C32.7329 157.54 31.5209 158.68 29.6489 158.68H27.6089ZM37.6119 158.692V156.376H41.6679V155.092H37.6119V152.908H42.1839V151.6H36.0519V160H42.3519V158.692H37.6119ZM51.0411 151.6H47.5851V160H49.1451V157.576H51.0411C53.2491 157.576 54.6171 156.436 54.6171 154.588C54.6171 152.728 53.2491 151.6 51.0411 151.6ZM50.9691 156.256H49.1451V152.92H50.9691C52.3371 152.92 53.0451 153.532 53.0451 154.588C53.0451 155.644 52.3371 156.256 50.9691 156.256ZM56.2638 160H62.2158V158.68H57.8238V151.6H56.2638V160ZM67.0311 160.12C69.3231 160.12 70.7031 158.788 70.7031 156.34V151.6H69.1671V156.28C69.1671 158.008 68.3991 158.752 67.0431 158.752C65.6871 158.752 64.9071 158.008 64.9071 156.28V151.6H63.3471V156.34C63.3471 158.788 64.7271 160.12 67.0311 160.12ZM78.7128 158.32C78.1728 158.632 77.5848 158.752 76.9848 158.752C75.2088 158.752 73.9488 157.504 73.9488 155.8C73.9488 154.06 75.2088 152.848 76.9968 152.848C77.8968 152.848 78.6528 153.148 79.3128 153.808L80.2968 152.848C79.5048 151.948 78.3288 151.48 76.9248 151.48C74.2968 151.48 72.3768 153.292 72.3768 155.8C72.3768 158.308 74.2968 160.12 76.9008 160.12C78.0888 160.12 79.3128 159.76 80.1888 159.052V155.704H78.7128V158.32ZM82.3352 160H83.8952V151.6H82.3352V160ZM92.1721 151.6V157.288L87.5401 151.6H86.2561V160H87.8041V154.312L92.4361 160H93.7201V151.6H92.1721ZM98.6639 160.12C100.968 160.12 102.06 158.968 102.06 157.624C102.06 154.54 97.0799 155.704 97.0799 153.916C97.0799 153.28 97.6079 152.776 98.9039 152.776C99.6359 152.776 100.464 152.992 101.22 153.436L101.712 152.224C100.98 151.744 99.9239 151.48 98.9159 151.48C96.6119 151.48 95.5319 152.632 95.5319 153.988C95.5319 157.108 100.524 155.92 100.524 157.732C100.524 158.356 99.9719 158.824 98.6639 158.824C97.6319 158.824 96.5639 158.44 95.8919 157.9L95.3519 159.112C96.0479 159.712 97.3559 160.12 98.6639 160.12Z" fill="#19191F"/>
<g filter="url(#filter4_b_3428_11502)">
<path d="M154 260C154 253.373 148.627 248 142 248H30C23.3726 248 18 253.373 18 260V273C18 279.627 23.3726 285 30 285H154V260Z" fill="#D3D2E1" fill-opacity="0.7"/>
</g>
<path d="M42.864 269.32C42.324 269.632 41.736 269.752 41.136 269.752C39.36 269.752 38.1 268.504 38.1 266.8C38.1 265.06 39.36 263.848 41.148 263.848C42.048 263.848 42.804 264.148 43.464 264.808L44.448 263.848C43.656 262.948 42.48 262.48 41.076 262.48C38.448 262.48 36.528 264.292 36.528 266.8C36.528 269.308 38.448 271.12 41.052 271.12C42.24 271.12 43.464 270.76 44.34 270.052V266.704H42.864V269.32ZM46.3975 271H50.0695C52.7935 271 54.6535 269.32 54.6535 266.8C54.6535 264.28 52.7935 262.6 50.0695 262.6H46.3975V271ZM47.9575 269.68V263.92H49.9975C51.8695 263.92 53.0815 265.06 53.0815 266.8C53.0815 268.54 51.8695 269.68 49.9975 269.68H47.9575ZM59.7676 262.6H56.3116V271H57.8716V268.576H59.7676C61.9756 268.576 63.3436 267.436 63.3436 265.588C63.3436 263.728 61.9756 262.6 59.7676 262.6ZM59.6956 267.256H57.8716V263.92H59.6956C61.0636 263.92 61.7716 264.532 61.7716 265.588C61.7716 266.644 61.0636 267.256 59.6956 267.256ZM72.0774 271L70.1454 268.24C71.2854 267.796 71.9334 266.86 71.9334 265.588C71.9334 263.728 70.5654 262.6 68.3574 262.6H64.9014V271H66.4614V268.552H68.3574C68.4654 268.552 68.5734 268.552 68.6814 268.54L70.3974 271H72.0774ZM70.3614 265.588C70.3614 266.644 69.6534 267.268 68.2854 267.268H66.4614V263.92H68.2854C69.6534 263.92 70.3614 264.532 70.3614 265.588ZM80.4512 262.6H76.9952V271H78.5552V268.576H80.4512C82.6592 268.576 84.0272 267.436 84.0272 265.588C84.0272 263.728 82.6592 262.6 80.4512 262.6ZM80.3792 267.256H78.5552V263.92H80.3792C81.7472 263.92 82.4552 264.532 82.4552 265.588C82.4552 266.644 81.7472 267.256 80.3792 267.256ZM85.585 271H87.145V262.6H85.585V271ZM89.4171 271H90.9771V262.6H89.4171V271ZM102.686 262.6L99.8655 269.08L97.0695 262.6H95.3775L99.0495 271H100.586L104.246 262.6H102.686ZM111.15 271H112.782L108.99 262.6H107.454L103.674 271H105.282L106.11 269.056H110.31L111.15 271ZM106.638 267.832L108.21 264.16L109.794 267.832H106.638ZM117.287 271.12C119.579 271.12 120.959 269.788 120.959 267.34V262.6H119.423V267.28C119.423 269.008 118.655 269.752 117.299 269.752C115.943 269.752 115.163 269.008 115.163 267.28V262.6H113.603V267.34C113.603 269.788 114.983 271.12 117.287 271.12ZM123.144 271H129.096V269.68H124.704V262.6H123.144V271ZM131.246 271H132.806V263.92H135.59V262.6H128.462V263.92H131.246V271Z" fill="#19191F"/>
<g filter="url(#filter5_b_3428_11502)">
<path d="M603 103C603 96.3726 608.373 91 615 91H796C802.627 91 808 96.3726 808 103V116C808 122.627 802.627 128 796 128H603V103Z" fill="#D3D2E1" fill-opacity="0.7"/>
</g>
<path d="M626.128 114H629.8C632.524 114 634.384 112.32 634.384 109.8C634.384 107.28 632.524 105.6 629.8 105.6H626.128V114ZM627.688 112.68V106.92H629.728C631.6 106.92 632.812 108.06 632.812 109.8C632.812 111.54 631.6 112.68 629.728 112.68H627.688ZM642.213 114H643.845L640.053 105.6H638.517L634.737 114H636.345L637.173 112.056H641.373L642.213 114ZM637.701 110.832L639.273 107.16L640.857 110.832H637.701ZM646.195 114H647.755V106.92H650.539V105.6H643.411V106.92H646.195V114ZM657.576 114H659.208L655.416 105.6H653.88L650.1 114H651.708L652.536 112.056H656.736L657.576 114ZM653.064 110.832L654.636 107.16L656.22 110.832H653.064ZM670.769 114L668.837 111.24C669.977 110.796 670.625 109.86 670.625 108.588C670.625 106.728 669.257 105.6 667.049 105.6H663.593V114H665.153V111.552H667.049C667.157 111.552 667.265 111.552 667.373 111.54L669.089 114H670.769ZM669.053 108.588C669.053 109.644 668.345 110.268 666.977 110.268H665.153V106.92H666.977C668.345 106.92 669.053 107.532 669.053 108.588ZM673.93 112.692V110.376H677.986V109.092H673.93V106.908H678.502V105.6H672.37V114H678.67V112.692H673.93ZM683.013 114.12C685.317 114.12 686.409 112.968 686.409 111.624C686.409 108.54 681.429 109.704 681.429 107.916C681.429 107.28 681.957 106.776 683.253 106.776C683.985 106.776 684.813 106.992 685.569 107.436L686.061 106.224C685.329 105.744 684.273 105.48 683.265 105.48C680.961 105.48 679.881 106.632 679.881 107.988C679.881 111.108 684.873 109.92 684.873 111.732C684.873 112.356 684.321 112.824 683.013 112.824C681.981 112.824 680.913 112.44 680.241 111.9L679.701 113.112C680.397 113.712 681.705 114.12 683.013 114.12ZM687.956 114H689.516V105.6H687.956V114ZM691.788 114H695.46C698.184 114 700.044 112.32 700.044 109.8C700.044 107.28 698.184 105.6 695.46 105.6H691.788V114ZM693.348 112.68V106.92H695.388C697.26 106.92 698.472 108.06 698.472 109.8C698.472 111.54 697.26 112.68 695.388 112.68H693.348ZM703.262 112.692V110.376H707.318V109.092H703.262V106.908H707.834V105.6H701.702V114H708.002V112.692H703.262ZM715.657 105.6V111.288L711.025 105.6H709.741V114H711.289V108.312L715.921 114H717.205V105.6H715.657ZM723.344 114.12C724.724 114.12 725.9 113.628 726.68 112.716L725.672 111.756C725.06 112.428 724.304 112.752 723.428 112.752C721.688 112.752 720.428 111.528 720.428 109.8C720.428 108.072 721.688 106.848 723.428 106.848C724.304 106.848 725.06 107.172 725.672 107.832L726.68 106.884C725.9 105.972 724.724 105.48 723.356 105.48C720.776 105.48 718.856 107.292 718.856 109.8C718.856 112.308 720.776 114.12 723.344 114.12ZM734.97 105.6H733.434L730.95 109.692L728.49 105.6H726.822L730.122 111.06V114H731.682V111.036L734.97 105.6ZM740.868 112.692V110.376H744.924V109.092H740.868V106.908H745.44V105.6H739.308V114H745.608V112.692H740.868ZM753.263 105.6V111.288L748.631 105.6H747.347V114H748.895V108.312L753.527 114H754.811V105.6H753.263ZM762.798 112.32C762.258 112.632 761.67 112.752 761.07 112.752C759.294 112.752 758.034 111.504 758.034 109.8C758.034 108.06 759.294 106.848 761.082 106.848C761.982 106.848 762.738 107.148 763.398 107.808L764.382 106.848C763.59 105.948 762.414 105.48 761.01 105.48C758.382 105.48 756.462 107.292 756.462 109.8C756.462 112.308 758.382 114.12 760.986 114.12C762.174 114.12 763.398 113.76 764.274 113.052V109.704H762.798V112.32ZM766.331 114H767.891V105.6H766.331V114ZM776.079 105.6V111.288L771.447 105.6H770.163V114H771.711V108.312L776.343 114H777.627V105.6H776.079ZM781.438 112.692V110.376H785.494V109.092H781.438V106.908H786.01V105.6H779.878V114H786.178V112.692H781.438Z" fill="#19191F"/>
<g filter="url(#filter6_b_3428_11502)">
<path d="M624 231C624 224.373 629.373 219 636 219H746C752.627 219 758 224.373 758 231V244C758 250.627 752.627 256 746 256H624V231Z" fill="#D3D2E1" fill-opacity="0.7"/>
</g>
<path d="M651.016 242.12C652.396 242.12 653.572 241.628 654.352 240.716L653.344 239.756C652.732 240.428 651.976 240.752 651.1 240.752C649.36 240.752 648.1 239.528 648.1 237.8C648.1 236.072 649.36 234.848 651.1 234.848C651.976 234.848 652.732 235.172 653.344 235.832L654.352 234.884C653.572 233.972 652.396 233.48 651.028 233.48C648.448 233.48 646.528 235.292 646.528 237.8C646.528 240.308 648.448 242.12 651.016 242.12ZM659.595 242.12C662.199 242.12 664.119 240.296 664.119 237.8C664.119 235.304 662.199 233.48 659.595 233.48C656.991 233.48 655.071 235.316 655.071 237.8C655.071 240.284 656.991 242.12 659.595 242.12ZM659.595 240.752C657.903 240.752 656.643 239.516 656.643 237.8C656.643 236.084 657.903 234.848 659.595 234.848C661.287 234.848 662.547 236.084 662.547 237.8C662.547 239.516 661.287 240.752 659.595 240.752ZM674.965 242L674.953 233.6H673.669L670.393 239.168L667.057 233.6H665.773V242H667.261V236.504L670.021 241.04H670.717L673.477 236.432L673.489 242H674.965ZM680.689 233.6H677.233V242H678.793V239.576H680.689C682.897 239.576 684.265 238.436 684.265 236.588C684.265 234.728 682.897 233.6 680.689 233.6ZM680.617 238.256H678.793V234.92H680.617C681.985 234.92 682.693 235.532 682.693 236.588C682.693 237.644 681.985 238.256 680.617 238.256ZM685.823 242H691.775V240.68H687.383V233.6H685.823V242ZM699.354 242H700.986L697.194 233.6H695.658L691.877 242H693.486L694.314 240.056H698.514L699.354 242ZM694.842 238.832L696.414 235.16L697.997 238.832H694.842ZM702.054 242H703.614V233.6H702.054V242ZM711.802 233.6V239.288L707.17 233.6H705.886V242H707.434V236.312L712.066 242H713.35V233.6H711.802ZM719.489 242.12C720.869 242.12 722.045 241.628 722.825 240.716L721.817 239.756C721.205 240.428 720.449 240.752 719.573 240.752C717.833 240.752 716.573 239.528 716.573 237.8C716.573 236.072 717.833 234.848 719.573 234.848C720.449 234.848 721.205 235.172 721.817 235.832L722.825 234.884C722.045 233.972 720.869 233.48 719.501 233.48C716.921 233.48 715.001 235.292 715.001 237.8C715.001 240.308 716.921 242.12 719.489 242.12ZM725.879 240.692V238.376H729.935V237.092H725.879V234.908H730.451V233.6H724.319V242H730.619V240.692H725.879ZM734.962 242.12C737.266 242.12 738.358 240.968 738.358 239.624C738.358 236.54 733.378 237.704 733.378 235.916C733.378 235.28 733.906 234.776 735.202 234.776C735.934 234.776 736.762 234.992 737.518 235.436L738.01 234.224C737.278 233.744 736.222 233.48 735.214 233.48C732.91 233.48 731.83 234.632 731.83 235.988C731.83 239.108 736.822 237.92 736.822 239.732C736.822 240.356 736.27 240.824 734.962 240.824C733.93 240.824 732.862 240.44 732.19 239.9L731.65 241.112C732.346 241.712 733.654 242.12 734.962 242.12Z" fill="#19191F"/>
<g filter="url(#filter7_b_3428_11502)">
<path d="M663 164C663 157.373 668.373 152 675 152H743C749.627 152 755 157.373 755 164V177C755 183.627 749.627 189 743 189H663V164Z" fill="#D3D2E1" fill-opacity="0.7"/>
</g>
<path d="M683.584 166.6H680.128V175H681.688V172.576H683.584C685.792 172.576 687.16 171.436 687.16 169.588C687.16 167.728 685.792 166.6 683.584 166.6ZM683.512 171.256H681.688V167.92H683.512C684.88 167.92 685.588 168.532 685.588 169.588C685.588 170.644 684.88 171.256 683.512 171.256ZM688.718 175H690.278V166.6H688.718V175ZM692.55 175H694.11V166.6H692.55V175ZM705.818 166.6L702.998 173.08L700.202 166.6H698.51L702.182 175H703.718L707.378 166.6H705.818ZM714.283 175H715.915L712.123 166.6H710.587L706.807 175H708.415L709.243 173.056H713.443L714.283 175ZM709.771 171.832L711.343 168.16L712.927 171.832H709.771ZM720.42 175.12C722.712 175.12 724.092 173.788 724.092 171.34V166.6H722.556V171.28C722.556 173.008 721.788 173.752 720.432 173.752C719.076 173.752 718.296 173.008 718.296 171.28V166.6H716.736V171.34C716.736 173.788 718.116 175.12 720.42 175.12ZM726.276 175H732.228V173.68H727.836V166.6H726.276V175ZM734.379 175H735.939V167.92H738.723V166.6H731.595V167.92H734.379V175Z" fill="#19191F"/>
<defs>
<filter id="filter0_d_3428_11502" x="314.828" y="47.494" width="341.661" height="288.177" filterUnits="userSpaceOnUse" color-interpolation-filters="sRGB">
<feFlood flood-opacity="0" result="BackgroundImageFix"/>
<feColorMatrix in="SourceAlpha" type="matrix" values="0 0 0 0 0 0 0 0 0 0 0 0 0 0 0 0 0 0 127 0" result="hardAlpha"/>
<feMorphology radius="2.99421" operator="erode" in="SourceAlpha" result="effect1_dropShadow_3428_11502"/>
<feOffset dy="8.98264"/>
<feGaussianBlur stdDeviation="8.98264"/>
<feComposite in2="hardAlpha" operator="out"/>
<feColorMatrix type="matrix" values="0 0 0 0 0 0 0 0 0 0 0 0 0 0 0 0 0 0 0.32 0"/>
<feBlend mode="normal" in2="BackgroundImageFix" result="effect1_dropShadow_3428_11502"/>
<feBlend mode="normal" in="SourceGraphic" in2="effect1_dropShadow_3428_11502" result="shape"/>
</filter>
<filter id="filter1_d_3428_11502" x="93.5114" y="47.494" width="341.661" height="288.177" filterUnits="userSpaceOnUse" color-interpolation-filters="sRGB">
<feFlood flood-opacity="0" result="BackgroundImageFix"/>
<feColorMatrix in="SourceAlpha" type="matrix" values="0 0 0 0 0 0 0 0 0 0 0 0 0 0 0 0 0 0 127 0" result="hardAlpha"/>
<feMorphology radius="2.99421" operator="erode" in="SourceAlpha" result="effect1_dropShadow_3428_11502"/>
<feOffset dy="8.98264"/>
<feGaussianBlur stdDeviation="8.98264"/>
<feComposite in2="hardAlpha" operator="out"/>
<feColorMatrix type="matrix" values="0 0 0 0 0 0 0 0 0 0 0 0 0 0 0 0 0 0 0.32 0"/>
<feBlend mode="normal" in2="BackgroundImageFix" result="effect1_dropShadow_3428_11502"/>
<feBlend mode="normal" in="SourceGraphic" in2="effect1_dropShadow_3428_11502" result="shape"/>
</filter>
<filter id="filter2_b_3428_11502" x="24" y="29" width="160" height="61" filterUnits="userSpaceOnUse" color-interpolation-filters="sRGB">
<feFlood flood-opacity="0" result="BackgroundImageFix"/>
<feGaussianBlur in="BackgroundImage" stdDeviation="6"/>
<feComposite in2="SourceAlpha" operator="in" result="effect1_backgroundBlur_3428_11502"/>
<feBlend mode="normal" in="SourceGraphic" in2="effect1_backgroundBlur_3428_11502" result="shape"/>
</filter>
<filter id="filter3_b_3428_11502" x="-12" y="125" width="148" height="61" filterUnits="userSpaceOnUse" color-interpolation-filters="sRGB">
<feFlood flood-opacity="0" result="BackgroundImageFix"/>
<feGaussianBlur in="BackgroundImage" stdDeviation="6"/>
<feComposite in2="SourceAlpha" operator="in" result="effect1_backgroundBlur_3428_11502"/>
<feBlend mode="normal" in="SourceGraphic" in2="effect1_backgroundBlur_3428_11502" result="shape"/>
</filter>
<filter id="filter4_b_3428_11502" x="6" y="236" width="160" height="61" filterUnits="userSpaceOnUse" color-interpolation-filters="sRGB">
<feFlood flood-opacity="0" result="BackgroundImageFix"/>
<feGaussianBlur in="BackgroundImage" stdDeviation="6"/>
<feComposite in2="SourceAlpha" operator="in" result="effect1_backgroundBlur_3428_11502"/>
<feBlend mode="normal" in="SourceGraphic" in2="effect1_backgroundBlur_3428_11502" result="shape"/>
</filter>
<filter id="filter5_b_3428_11502" x="591" y="79" width="229" height="61" filterUnits="userSpaceOnUse" color-interpolation-filters="sRGB">
<feFlood flood-opacity="0" result="BackgroundImageFix"/>
<feGaussianBlur in="BackgroundImage" stdDeviation="6"/>
<feComposite in2="SourceAlpha" operator="in" result="effect1_backgroundBlur_3428_11502"/>
<feBlend mode="normal" in="SourceGraphic" in2="effect1_backgroundBlur_3428_11502" result="shape"/>
</filter>
<filter id="filter6_b_3428_11502" x="612" y="207" width="158" height="61" filterUnits="userSpaceOnUse" color-interpolation-filters="sRGB">
<feFlood flood-opacity="0" result="BackgroundImageFix"/>
<feGaussianBlur in="BackgroundImage" stdDeviation="6"/>
<feComposite in2="SourceAlpha" operator="in" result="effect1_backgroundBlur_3428_11502"/>
<feBlend mode="normal" in="SourceGraphic" in2="effect1_backgroundBlur_3428_11502" result="shape"/>
</filter>
<filter id="filter7_b_3428_11502" x="651" y="140" width="116" height="61" filterUnits="userSpaceOnUse" color-interpolation-filters="sRGB">
<feFlood flood-opacity="0" result="BackgroundImageFix"/>
<feGaussianBlur in="BackgroundImage" stdDeviation="6"/>
<feComposite in2="SourceAlpha" operator="in" result="effect1_backgroundBlur_3428_11502"/>
<feBlend mode="normal" in="SourceGraphic" in2="effect1_backgroundBlur_3428_11502" result="shape"/>
</filter>
<linearGradient id="paint0_linear_3428_11502" x1="640.677" y1="175.984" x2="493.72" y2="39.7077" gradientUnits="userSpaceOnUse">
<stop stop-color="#817EA6"/>
<stop offset="0.635959" stop-color="#2E2952"/>
</linearGradient>
<linearGradient id="paint1_linear_3428_11502" x1="55" y1="303.777" x2="217.407" y2="-12.5916" gradientUnits="userSpaceOnUse">
<stop offset="0.282166" stop-color="#817EA6"/>
<stop offset="0.782615" stop-color="#2E2952"/>
</linearGradient>
</defs>
</svg>
