<svg width="249" height="38" viewBox="0 0 249 38" fill="none" xmlns="http://www.w3.org/2000/svg">
<path d="M9.19128 26.3301C4.49727 26.3301 0.691284 22.5241 0.691284 17.8301C0.691284 13.136 4.49725 9.33008 9.19128 9.33008C13.8853 9.33008 17.6913 13.136 17.6913 17.8301C17.6913 22.5241 13.8853 26.3301 9.19128 26.3301ZM9.19128 10.6749C5.25845 10.6749 2.03606 13.8973 2.03606 17.8301C2.03606 21.7629 5.25845 24.9853 9.19128 24.9853C13.1241 24.9853 16.3465 21.7629 16.3465 17.8301C16.3465 13.8973 13.1495 10.6749 9.19128 10.6749Z" fill="white"/>
<path d="M16.7058 25.2578L20.2179 28.7369L19.3851 29.5619L15.873 26.0828L16.7058 25.2578Z" fill="white"/>
<rect x="67" width="182" height="38" rx="19" fill="url(#paint0_linear_3968_11993)"/>
<path d="M94.406 24L92.516 21.27H92.404H90.43V24H88.162V14.2H92.404C93.272 14.2 94.0233 14.3447 94.658 14.634C95.302 14.9233 95.7967 15.334 96.142 15.866C96.4873 16.398 96.66 17.028 96.66 17.756C96.66 18.484 96.4827 19.114 96.128 19.646C95.7827 20.1687 95.288 20.57 94.644 20.85L96.842 24H94.406ZM94.364 17.756C94.364 17.2053 94.1867 16.7853 93.832 16.496C93.4773 16.1973 92.9593 16.048 92.278 16.048H90.43V19.464H92.278C92.9593 19.464 93.4773 19.3147 93.832 19.016C94.1867 18.7173 94.364 18.2973 94.364 17.756ZM105.881 20.262C105.881 20.29 105.867 20.486 105.839 20.85H100.141C100.244 21.3167 100.486 21.6853 100.869 21.956C101.252 22.2267 101.728 22.362 102.297 22.362C102.689 22.362 103.034 22.306 103.333 22.194C103.641 22.0727 103.926 21.886 104.187 21.634L105.349 22.894C104.64 23.706 103.604 24.112 102.241 24.112C101.392 24.112 100.64 23.9487 99.9869 23.622C99.3336 23.286 98.8296 22.824 98.4749 22.236C98.1203 21.648 97.9429 20.9807 97.9429 20.234C97.9429 19.4967 98.1156 18.834 98.4609 18.246C98.8156 17.6487 99.2963 17.1867 99.9029 16.86C100.519 16.524 101.205 16.356 101.961 16.356C102.698 16.356 103.366 16.5147 103.963 16.832C104.56 17.1493 105.027 17.6067 105.363 18.204C105.708 18.792 105.881 19.478 105.881 20.262ZM101.975 18.008C101.48 18.008 101.065 18.148 100.729 18.428C100.393 18.708 100.188 19.0907 100.113 19.576H103.823C103.748 19.1 103.543 18.722 103.207 18.442C102.871 18.1527 102.46 18.008 101.975 18.008ZM115.179 16.468V26.716H112.995V23.202C112.454 23.8087 111.702 24.112 110.741 24.112C110.032 24.112 109.388 23.9533 108.809 23.636C108.24 23.3187 107.792 22.866 107.465 22.278C107.138 21.69 106.975 21.0087 106.975 20.234C106.975 19.4593 107.138 18.778 107.465 18.19C107.792 17.602 108.24 17.1493 108.809 16.832C109.388 16.5147 110.032 16.356 110.741 16.356C111.768 16.356 112.552 16.6827 113.093 17.336V16.468H115.179ZM111.119 22.32C111.67 22.32 112.127 22.1333 112.491 21.76C112.855 21.3773 113.037 20.8687 113.037 20.234C113.037 19.5993 112.855 19.0953 112.491 18.722C112.127 18.3393 111.67 18.148 111.119 18.148C110.559 18.148 110.097 18.3393 109.733 18.722C109.369 19.0953 109.187 19.5993 109.187 20.234C109.187 20.8687 109.369 21.3773 109.733 21.76C110.097 22.1333 110.559 22.32 111.119 22.32ZM124.989 16.468V24H122.917V23.104C122.628 23.4307 122.282 23.6827 121.881 23.86C121.48 24.028 121.046 24.112 120.579 24.112C119.59 24.112 118.806 23.8273 118.227 23.258C117.648 22.6887 117.359 21.844 117.359 20.724V16.468H119.543V20.402C119.543 21.6153 120.052 22.222 121.069 22.222C121.592 22.222 122.012 22.054 122.329 21.718C122.646 21.3727 122.805 20.864 122.805 20.192V16.468H124.989ZM134.59 20.262C134.59 20.29 134.576 20.486 134.548 20.85H128.85C128.953 21.3167 129.196 21.6853 129.578 21.956C129.961 22.2267 130.437 22.362 131.006 22.362C131.398 22.362 131.744 22.306 132.042 22.194C132.35 22.0727 132.635 21.886 132.896 21.634L134.058 22.894C133.349 23.706 132.313 24.112 130.95 24.112C130.101 24.112 129.35 23.9487 128.696 23.622C128.043 23.286 127.539 22.824 127.184 22.236C126.83 21.648 126.652 20.9807 126.652 20.234C126.652 19.4967 126.825 18.834 127.17 18.246C127.525 17.6487 128.006 17.1867 128.612 16.86C129.228 16.524 129.914 16.356 130.67 16.356C131.408 16.356 132.075 16.5147 132.672 16.832C133.27 17.1493 133.736 17.6067 134.072 18.204C134.418 18.792 134.59 19.478 134.59 20.262ZM130.684 18.008C130.19 18.008 129.774 18.148 129.438 18.428C129.102 18.708 128.897 19.0907 128.822 19.576H132.532C132.458 19.1 132.252 18.722 131.916 18.442C131.58 18.1527 131.17 18.008 130.684 18.008ZM138.778 24.112C138.153 24.112 137.542 24.0373 136.944 23.888C136.347 23.7293 135.871 23.5333 135.516 23.3L136.244 21.732C136.58 21.9467 136.986 22.124 137.462 22.264C137.938 22.3947 138.405 22.46 138.862 22.46C139.786 22.46 140.248 22.2313 140.248 21.774C140.248 21.5593 140.122 21.4053 139.87 21.312C139.618 21.2187 139.231 21.1393 138.708 21.074C138.092 20.9807 137.584 20.8733 137.182 20.752C136.781 20.6307 136.431 20.416 136.132 20.108C135.843 19.8 135.698 19.3613 135.698 18.792C135.698 18.316 135.834 17.896 136.104 17.532C136.384 17.1587 136.786 16.8693 137.308 16.664C137.84 16.4587 138.466 16.356 139.184 16.356C139.716 16.356 140.244 16.4167 140.766 16.538C141.298 16.65 141.737 16.8087 142.082 17.014L141.354 18.568C140.692 18.1947 139.968 18.008 139.184 18.008C138.718 18.008 138.368 18.0733 138.134 18.204C137.901 18.3347 137.784 18.5027 137.784 18.708C137.784 18.9413 137.91 19.1047 138.162 19.198C138.414 19.2913 138.816 19.38 139.366 19.464C139.982 19.5667 140.486 19.6787 140.878 19.8C141.27 19.912 141.611 20.122 141.9 20.43C142.19 20.738 142.334 21.1673 142.334 21.718C142.334 22.1847 142.194 22.6 141.914 22.964C141.634 23.328 141.224 23.6127 140.682 23.818C140.15 24.014 139.516 24.112 138.778 24.112ZM148.74 23.636C148.525 23.7947 148.259 23.916 147.942 24C147.634 24.0747 147.307 24.112 146.962 24.112C146.066 24.112 145.37 23.8833 144.876 23.426C144.39 22.9687 144.148 22.2967 144.148 21.41V18.316H142.986V16.636H144.148V14.802H146.332V16.636H148.208V18.316H146.332V21.382C146.332 21.6993 146.411 21.9467 146.57 22.124C146.738 22.292 146.971 22.376 147.27 22.376C147.615 22.376 147.909 22.2827 148.152 22.096L148.74 23.636ZM157.369 16.356C158.535 16.356 159.431 16.636 160.057 17.196C160.682 17.7467 160.995 18.582 160.995 19.702V24H158.951V23.062C158.54 23.762 157.775 24.112 156.655 24.112C156.076 24.112 155.572 24.014 155.143 23.818C154.723 23.622 154.401 23.3513 154.177 23.006C153.953 22.6607 153.841 22.2687 153.841 21.83C153.841 21.13 154.102 20.5793 154.625 20.178C155.157 19.7767 155.973 19.576 157.075 19.576H158.811C158.811 19.1 158.666 18.736 158.377 18.484C158.087 18.2227 157.653 18.092 157.075 18.092C156.673 18.092 156.277 18.1573 155.885 18.288C155.502 18.4093 155.175 18.5773 154.905 18.792L154.121 17.266C154.531 16.9767 155.021 16.7527 155.591 16.594C156.169 16.4353 156.762 16.356 157.369 16.356ZM157.201 22.642C157.574 22.642 157.905 22.558 158.195 22.39C158.484 22.2127 158.689 21.956 158.811 21.62V20.85H157.313C156.417 20.85 155.969 21.144 155.969 21.732C155.969 22.012 156.076 22.236 156.291 22.404C156.515 22.5627 156.818 22.642 157.201 22.642ZM167.49 14.2H171.942C173.006 14.2 173.944 14.4053 174.756 14.816C175.577 15.2173 176.212 15.7867 176.66 16.524C177.117 17.2613 177.346 18.12 177.346 19.1C177.346 20.08 177.117 20.9387 176.66 21.676C176.212 22.4133 175.577 22.9873 174.756 23.398C173.944 23.7993 173.006 24 171.942 24H167.49V14.2ZM171.83 22.138C172.81 22.138 173.589 21.8673 174.168 21.326C174.756 20.7753 175.05 20.0333 175.05 19.1C175.05 18.1667 174.756 17.4293 174.168 16.888C173.589 16.3373 172.81 16.062 171.83 16.062H169.758V22.138H171.83ZM186.481 20.262C186.481 20.29 186.467 20.486 186.439 20.85H180.741C180.843 21.3167 181.086 21.6853 181.469 21.956C181.851 22.2267 182.327 22.362 182.897 22.362C183.289 22.362 183.634 22.306 183.933 22.194C184.241 22.0727 184.525 21.886 184.787 21.634L185.949 22.894C185.239 23.706 184.203 24.112 182.841 24.112C181.991 24.112 181.24 23.9487 180.587 23.622C179.933 23.286 179.429 22.824 179.075 22.236C178.72 21.648 178.543 20.9807 178.543 20.234C178.543 19.4967 178.715 18.834 179.061 18.246C179.415 17.6487 179.896 17.1867 180.503 16.86C181.119 16.524 181.805 16.356 182.561 16.356C183.298 16.356 183.965 16.5147 184.563 16.832C185.16 17.1493 185.627 17.6067 185.963 18.204C186.308 18.792 186.481 19.478 186.481 20.262ZM182.575 18.008C182.08 18.008 181.665 18.148 181.329 18.428C180.993 18.708 180.787 19.0907 180.713 19.576H184.423C184.348 19.1 184.143 18.722 183.807 18.442C183.471 18.1527 183.06 18.008 182.575 18.008ZM197.781 16.356C198.723 16.356 199.47 16.636 200.021 17.196C200.581 17.7467 200.861 18.5773 200.861 19.688V24H198.677V20.024C198.677 19.4267 198.551 18.9833 198.299 18.694C198.056 18.3953 197.706 18.246 197.249 18.246C196.735 18.246 196.329 18.414 196.031 18.75C195.732 19.0767 195.583 19.5667 195.583 20.22V24H193.399V20.024C193.399 18.8387 192.923 18.246 191.971 18.246C191.467 18.246 191.065 18.414 190.767 18.75C190.468 19.0767 190.319 19.5667 190.319 20.22V24H188.135V16.468H190.221V17.336C190.501 17.0187 190.841 16.776 191.243 16.608C191.653 16.44 192.101 16.356 192.587 16.356C193.119 16.356 193.599 16.4633 194.029 16.678C194.458 16.8833 194.803 17.1867 195.065 17.588C195.373 17.196 195.76 16.8927 196.227 16.678C196.703 16.4633 197.221 16.356 197.781 16.356ZM206.684 24.112C205.891 24.112 205.177 23.9487 204.542 23.622C203.917 23.286 203.427 22.824 203.072 22.236C202.718 21.648 202.54 20.9807 202.54 20.234C202.54 19.4873 202.718 18.82 203.072 18.232C203.427 17.644 203.917 17.1867 204.542 16.86C205.177 16.524 205.891 16.356 206.684 16.356C207.478 16.356 208.187 16.524 208.812 16.86C209.438 17.1867 209.928 17.644 210.282 18.232C210.637 18.82 210.814 19.4873 210.814 20.234C210.814 20.9807 210.637 21.648 210.282 22.236C209.928 22.824 209.438 23.286 208.812 23.622C208.187 23.9487 207.478 24.112 206.684 24.112ZM206.684 22.32C207.244 22.32 207.702 22.1333 208.056 21.76C208.42 21.3773 208.602 20.8687 208.602 20.234C208.602 19.5993 208.42 19.0953 208.056 18.722C207.702 18.3393 207.244 18.148 206.684 18.148C206.124 18.148 205.662 18.3393 205.298 18.722C204.934 19.0953 204.752 19.5993 204.752 20.234C204.752 20.8687 204.934 21.3773 205.298 21.76C205.662 22.1333 206.124 22.32 206.684 22.32Z" fill="white"/>
<path fill-rule="evenodd" clip-rule="evenodd" d="M217 19C217 18.8106 217.079 18.6289 217.22 18.495C217.36 18.3611 217.551 18.2858 217.75 18.2858H226.438L223.218 15.2207C223.077 15.0866 222.998 14.9047 222.998 14.7151C222.998 14.5254 223.077 14.3435 223.218 14.2094C223.359 14.0753 223.55 14 223.749 14C223.948 14 224.139 14.0753 224.28 14.2094L228.78 18.4944C228.85 18.5607 228.905 18.6395 228.943 18.7263C228.981 18.8131 229 18.9061 229 19C229 19.0939 228.981 19.1869 228.943 19.2737C228.905 19.3605 228.85 19.4393 228.78 19.5056L224.28 23.7906C224.139 23.9247 223.948 24 223.749 24C223.55 24 223.359 23.9247 223.218 23.7906C223.077 23.6565 222.998 23.4746 222.998 23.2849C222.998 23.0953 223.077 22.9134 223.218 22.7793L226.438 19.7142H217.75C217.551 19.7142 217.36 19.6389 217.22 19.505C217.079 19.3711 217 19.1894 217 19Z" fill="white"/>
<defs>
<linearGradient id="paint0_linear_3968_11993" x1="67" y1="0" x2="246.832" y2="8.16317" gradientUnits="userSpaceOnUse">
<stop stop-color="#817EA6"/>
<stop offset="1" stop-color="#2E2952"/>
</linearGradient>
</defs>
</svg>
