<svg width="194" height="29" viewBox="0 0 194 29" fill="none" xmlns="http://www.w3.org/2000/svg">
<path d="M114.493 6.18359V9.16252H109.61V24.5844H105.935V9.16252H101.052V6.18359H114.493Z" fill="white"/>
<path d="M120.849 12.2469C121.322 11.4736 121.934 10.8673 122.687 10.4279C123.457 9.98854 124.332 9.76885 125.312 9.76885V13.6441H124.341C123.186 13.6441 122.311 13.9165 121.716 14.4613C121.138 15.0061 120.849 15.9552 120.849 17.3084V24.5844H117.174V9.97975H120.849V12.2469Z" fill="white"/>
<path d="M141.516 9.97975V24.5844H137.815V22.7391C137.343 23.3718 136.721 23.8726 135.951 24.2417C135.199 24.5932 134.376 24.769 133.484 24.769C132.346 24.769 131.34 24.5317 130.465 24.0572C129.59 23.5651 128.899 22.8533 128.391 21.9218C127.901 20.9728 127.656 19.848 127.656 18.5475V9.97975H131.331V18.0202C131.331 19.1802 131.62 20.0765 132.197 20.7092C132.775 21.3243 133.562 21.6318 134.56 21.6318C135.575 21.6318 136.371 21.3243 136.949 20.7092C137.526 20.0765 137.815 19.1802 137.815 18.0202V9.97975H141.516Z" fill="white"/>
<path d="M150.708 24.8217C149.518 24.8217 148.45 24.6108 147.505 24.189C146.56 23.7496 145.808 23.1609 145.248 22.4227C144.705 21.6846 144.408 20.8673 144.355 19.971H148.056C148.126 20.5334 148.398 20.9992 148.87 21.3682C149.36 21.7373 149.964 21.9218 150.681 21.9218C151.381 21.9218 151.924 21.7812 152.309 21.5C152.712 21.2188 152.913 20.8586 152.913 20.4192C152.913 19.9447 152.668 19.5932 152.178 19.3647C151.705 19.1187 150.944 18.855 149.894 18.5738C148.809 18.3102 147.916 18.0378 147.216 17.7566C146.534 17.4754 145.939 17.0448 145.431 16.4649C144.941 15.8849 144.696 15.1028 144.696 14.1186C144.696 13.3102 144.924 12.572 145.379 11.9042C145.851 11.2363 146.516 10.7091 147.374 10.3225C148.249 9.93581 149.273 9.74249 150.445 9.74249C152.178 9.74249 153.56 10.1819 154.593 11.0606C155.625 11.9218 156.194 13.0905 156.299 14.5668H152.782C152.729 13.9868 152.484 13.5299 152.047 13.1959C151.626 12.8444 151.058 12.6687 150.34 12.6687C149.675 12.6687 149.159 12.7917 148.791 13.0378C148.441 13.2838 148.266 13.6265 148.266 14.0659C148.266 14.558 148.511 14.9358 149.001 15.1995C149.491 15.4455 150.253 15.7004 151.285 15.964C152.335 16.2276 153.202 16.5 153.884 16.7812C154.567 17.0624 155.153 17.5018 155.643 18.0993C156.15 18.6793 156.413 19.4526 156.43 20.4192C156.43 21.2628 156.194 22.0185 155.722 22.6863C155.267 23.3542 154.602 23.8814 153.727 24.2681C152.869 24.6371 151.863 24.8217 150.708 24.8217Z" fill="white"/>
<path d="M163.726 13.0114V20.0765C163.726 20.5686 163.84 20.9289 164.067 21.1573C164.312 21.3682 164.715 21.4737 165.275 21.4737H166.981V24.5844H164.671C161.574 24.5844 160.025 23.073 160.025 20.0501V13.0114H158.292V9.97975H160.025V6.36813H163.726V9.97975H166.981V13.0114H163.726Z" fill="white"/>
<path d="M182.769 21.1147H175.472L174.264 24.6233H170.405L176.994 6.18359H181.273L187.862 24.6233H183.977L182.769 21.1147ZM181.772 18.1601L179.121 10.4572L176.469 18.1601H181.772Z" fill="#7465F1"/>
<path d="M194 6.20998V24.6233H190.325V6.20998H194Z" fill="#7465F1"/>
<path d="M46.0023 15.1789C46.8936 14.9132 47.6836 14.3809 48.2676 13.6528C48.8482 12.8811 49.1477 11.9318 49.1157 10.9642C49.1302 10.0974 48.8883 9.24591 48.4208 8.51798C47.9158 7.76601 47.1994 7.18285 46.3634 6.8431C45.3512 6.41467 44.2601 6.20808 43.1625 6.23705H35.6443V24.6167H43.5181C44.6236 24.6442 45.7217 24.4279 46.7355 23.9831C47.5828 23.6146 48.3052 23.0059 48.8148 22.2311C49.3026 21.4582 49.552 20.5571 49.5316 19.6416C49.5448 18.5962 49.1988 17.5782 48.5521 16.7602C47.9303 15.9285 47.0197 15.3638 46.0023 15.1789ZM39.3049 9.20115H42.6536C43.3755 9.15145 44.0908 9.36675 44.6672 9.8072C44.9053 10.0197 45.0925 10.2838 45.2148 10.5796C45.337 10.8754 45.3911 11.1953 45.373 11.5151C45.3923 11.8343 45.3387 12.1537 45.2164 12.4489C45.094 12.744 44.9062 13.0069 44.6672 13.2176C44.0851 13.6451 43.3726 13.8537 42.6536 13.8071H39.3049V9.20115ZM45.0721 20.9694C44.4773 21.4256 43.739 21.6505 42.9928 21.603H39.3049V16.6445H42.9162C43.6796 16.603 44.432 16.8418 45.0338 17.3166C45.2962 17.5458 45.5035 17.832 45.64 18.1536C45.7765 18.4753 45.8387 18.824 45.8217 19.1733C45.8418 19.5105 45.7847 19.8479 45.6547 20.1593C45.5247 20.4707 45.3254 20.7479 45.0721 20.9694Z" fill="white"/>
<path d="M56.1193 5.11914H52.4587V24.6062H56.1193V5.11914Z" fill="white"/>
<path d="M63.55 10.0176H59.8894V24.6067H63.55V10.0176Z" fill="white"/>
<path d="M75.0354 9.80867C74.1714 9.80064 73.3166 9.98896 72.5348 10.3596C71.8011 10.6963 71.1591 11.2067 70.6635 11.8472V10.029H67.0029V24.6181H70.6635V16.5468C70.6012 15.5756 70.915 14.6179 71.539 13.8747C71.8507 13.5582 72.2254 13.3116 72.6384 13.1511C73.0515 12.9906 73.4935 12.9199 73.9356 12.9436C74.3711 12.9209 74.8063 12.9923 75.2121 13.1529C75.6179 13.3135 75.9849 13.5596 76.2885 13.8747C76.9065 14.6206 77.2161 15.5773 77.153 16.5468V24.6071H80.8355V16.0509C80.8355 14.0859 80.3029 12.5524 79.2377 11.4505C78.6894 10.8974 78.0323 10.4657 77.3087 10.1829C76.5851 9.90022 75.8108 9.77274 75.0354 9.80867Z" fill="white"/>
<path d="M97.5735 10.0171H92.8131L87.9487 16.2097V5.11914H84.2881V24.6062H87.9487V18.3915L92.8678 24.6062H97.6282L91.1934 17.3392L97.5735 10.0171Z" fill="white"/>
<path d="M61.7494 7.80333C62.7437 7.80333 63.5497 6.99171 63.5497 5.99053C63.5497 4.98935 62.7437 4.17773 61.7494 4.17773C60.755 4.17773 59.949 4.98935 59.949 5.99053C59.949 6.99171 60.755 7.80333 61.7494 7.80333Z" fill="#7465F1"/>
<path d="M16.5904 25.354C22.556 23.7477 26.0963 17.5855 24.4978 11.5905C22.8993 5.59551 16.7674 2.0378 10.8018 3.64416C4.83611 5.25052 1.29583 11.4127 2.89432 17.4077C4.49281 23.4027 10.6248 26.9604 16.5904 25.354Z" fill="#7465F1"/>
<path d="M15.1936 20.1135C18.2792 19.2826 20.1104 16.0953 19.2836 12.9944C18.4568 9.89356 15.2851 8.05336 12.1994 8.88424C9.11375 9.71511 7.28256 12.9024 8.10937 16.0033C8.93617 19.1042 12.1079 20.9444 15.1936 20.1135Z" fill="white"/>
<path d="M15.7983 17.1436C17.444 16.7005 18.4207 15.0006 17.9797 13.3468C17.5387 11.693 15.8472 10.7115 14.2015 11.1547C12.5558 11.5978 11.5792 13.2977 12.0201 14.9515C12.4611 16.6053 14.1526 17.5867 15.7983 17.1436Z" fill="#292929"/>
<path d="M24.398 11.2162L2.79452 17.0334C2.16289 14.1803 2.6431 11.1952 4.13497 8.70053C5.62685 6.20591 8.01518 4.3945 10.8018 3.64416C13.5883 2.89383 16.558 3.26251 19.0912 4.67331C21.6244 6.08411 23.5255 8.42805 24.398 11.2162Z" fill="#3D36A8"/>
</svg>
