<svg width="58" height="23" viewBox="0 0 58 23" fill="none" xmlns="http://www.w3.org/2000/svg">
<rect width="58" height="23" rx="8" fill="#69CA94"/>
<path d="M17.5687 11.904C18.1287 12.0813 18.5674 12.38 18.8847 12.8C19.2021 13.2107 19.3607 13.7193 19.3607 14.326C19.3607 15.1847 19.0247 15.8473 18.3527 16.314C17.6901 16.7713 16.7194 17 15.4407 17H10.3727V7.2H15.1607C16.3554 7.2 17.2701 7.42867 17.9047 7.886C18.5487 8.34333 18.8707 8.964 18.8707 9.748C18.8707 10.224 18.7541 10.6487 18.5207 11.022C18.2967 11.3953 17.9794 11.6893 17.5687 11.904ZM12.6267 8.908V11.218H14.8807C15.4407 11.218 15.8654 11.12 16.1547 10.924C16.4441 10.728 16.5887 10.4387 16.5887 10.056C16.5887 9.67333 16.4441 9.38867 16.1547 9.202C15.8654 9.006 15.4407 8.908 14.8807 8.908H12.6267ZM15.2727 15.292C15.8701 15.292 16.3181 15.194 16.6167 14.998C16.9247 14.802 17.0787 14.4987 17.0787 14.088C17.0787 13.276 16.4767 12.87 15.2727 12.87H12.6267V15.292H15.2727ZM28.8658 15.18V17H21.2778V7.2H28.6838V9.02H23.5318V11.148H28.0818V12.912H23.5318V15.18H28.8658ZM32.9004 9.048H29.7644V7.2H38.3044V9.048H35.1684V17H32.9004V9.048ZM45.6865 14.9H41.1365L40.2685 17H37.9445L42.3125 7.2H44.5525L48.9345 17H46.5545L45.6865 14.9ZM44.9725 13.178L43.4185 9.426L41.8645 13.178H44.9725Z" fill="#19191F"/>
</svg>
