<svg width="1440" height="1027" viewBox="0 0 1440 1027" fill="none" xmlns="http://www.w3.org/2000/svg">
<g opacity="0.15">
<path d="M1379.36 510.186C1380.42 512.053 1382.28 515.538 1385.71 521.948L1379.23 509.812C1379.23 509.937 1379.3 510.124 1379.36 510.186Z" fill="#343458"/>
<path d="M1354.47 468.55C1357.46 473.341 1360.57 478.569 1363.24 483.236C1367.04 489.646 1370.59 495.745 1371.77 497.176C1371.71 496.679 1371.64 496.554 1370.52 494.625L1352.6 465.687L1351.92 464.629C1352.85 465.936 1353.66 467.243 1354.47 468.55Z" fill="#343458"/>
<path d="M1336.17 442.288C1353.03 469.173 1353.03 469.173 1354.28 469.857C1354.46 468.675 1350.42 462.265 1347 457.1L1330.75 433.887C1331.31 434.758 1332.68 436.812 1336.17 442.288Z" fill="#343458"/>
<path d="M1315.51 415.717C1326.52 433.329 1332.87 442.228 1334.36 442.166C1334.43 442.041 1335.3 438.992 1313.7 411.423C1311.65 408.747 1311.28 408.373 1310.9 408C1311.03 408.498 1311.03 408.56 1315.51 415.717Z" fill="#343458"/>
<path d="M1292.86 389.018C1304.31 407.625 1312.21 416.338 1312.34 413.973C1312.46 411.733 1304.99 400.344 1292.67 385.844C1290.43 383.292 1289.68 382.483 1289.19 382.234C1289.12 382.546 1289 382.857 1292.86 389.018Z" fill="#343458"/>
<path d="M1268.15 362.26C1276.92 376.76 1287.19 388.46 1288.13 386.282C1289 384.415 1281.16 372.84 1269.52 360.144C1266.84 357.281 1265.85 356.41 1265.29 356.41C1265.29 356.721 1265.16 357.281 1268.15 362.26Z" fill="#343458"/>
<path d="M1241.76 335.561C1249.35 348.568 1261.37 361.201 1262.24 358.276C1262.86 356.098 1255.52 345.394 1244.69 334.379C1241.58 331.329 1240.27 330.272 1239.65 330.458C1239.46 330.769 1239.27 331.329 1241.76 335.561Z" fill="#CF5250"/>
<path d="M1213.7 308.988C1220.48 321.061 1233.92 334.13 1234.61 330.458C1235.04 328.031 1228.32 318.51 1217.99 308.677C1216.31 307.121 1212.33 303.449 1212.08 305.005C1212.02 305.316 1212.14 306.25 1213.7 308.988Z" fill="#343458"/>
<path d="M1184.07 282.602C1189.36 292.622 1203.49 306.437 1205.17 303.139C1206.17 301.085 1200.07 292.31 1189.67 282.975C1184.94 278.93 1182.7 277.872 1182.95 279.802C1183.01 280.237 1183.26 281.046 1184.07 282.602Z" fill="#343458"/>
<path d="M1153.08 256.525C1157.44 265.611 1172.87 279.551 1174.24 275.631C1174.99 273.453 1169.39 265.674 1159.87 257.583C1153.21 252.169 1152.15 252.916 1152.34 254.534C1152.46 254.907 1152.71 255.654 1153.08 256.525Z" fill="#343458"/>
<path d="M1120.72 230.699C1124.58 239.909 1141.13 252.48 1142.13 248.56C1142.69 246.382 1137.77 239.723 1128.63 232.317C1120.47 226.031 1120.1 228.21 1120.29 229.392C1120.41 229.828 1120.54 230.326 1120.72 230.699Z" fill="#343458"/>
<path d="M1087.12 205.308C1089.67 212.775 1106.59 226.155 1108.65 222.359C1109.64 220.492 1105.23 214.456 1096.14 207.423C1086.74 200.578 1086.74 203.565 1086.99 204.685C1086.93 204.872 1086.99 205.121 1087.12 205.308Z" fill="#343458"/>
<path d="M1052.27 180.351C1053.95 187.134 1072.24 200.514 1073.98 196.22C1074.73 194.415 1070.87 189.188 1062.28 182.902C1053.95 177.177 1051.64 177.924 1052.27 180.351Z" fill="#343458"/>
<path d="M1016.23 155.832C1016.92 161.869 1035.28 174.564 1038.01 170.954C1039.2 169.399 1035.84 164.793 1027.25 158.881C1019.28 153.592 1015.98 153.529 1016.23 155.832Z" fill="#343458"/>
<path d="M979.204 131.936C978.955 137.101 997.251 149.174 1000.92 146.249C1002.48 145.004 999.616 140.835 991.09 135.296C983 130.193 979.266 129.882 979.204 131.936Z" fill="#7465F1"/>
<path d="M941.18 108.597C940.059 113.078 958.231 124.404 962.774 122.101C964.703 121.106 962.276 117.434 953.937 112.206C945.723 107.352 941.615 106.917 941.18 108.597Z" fill="#343458"/>
<path d="M902.098 86.0099C900.106 89.7439 918.216 100.386 923.568 98.7053C925.87 97.9585 923.941 94.6603 915.602 89.8061C907.387 85.2009 902.844 84.5786 902.098 86.0099Z" fill="#343458"/>
<path d="M862.207 64.163C859.656 67.0257 875.899 76.3606 882.682 75.9872C884.611 75.8627 885.545 74.8047 882.371 72.0665C880.317 70.324 877.517 68.7682 876.272 68.0836C868.057 63.7273 863.265 62.9806 862.207 64.163Z" fill="#343458"/>
<path d="M822.004 43.4406C819.452 45.1831 829.161 51.842 838.371 53.709C842.541 54.518 844.594 53.8957 843.35 52.0909C842.043 50.1617 837.811 47.9836 836.442 47.299C828.787 43.5028 823.373 42.5071 822.004 43.4406Z" fill="#343458"/>
<path d="M782.425 24.3353C780.185 25.2687 784.043 28.6293 790.329 31.1186C797.112 33.919 804.144 34.6036 803.46 32.4877C803.211 31.7409 801.904 30.3718 797.05 28.007C789.644 24.5842 784.106 23.5885 782.425 24.3353Z" fill="#343458"/>
<path d="M743.344 6.72165C741.664 7.15728 742.597 8.71313 745.584 10.4556C752.492 14.4385 764.067 16.4299 763.881 14.1273C763.819 13.505 762.76 12.3849 758.155 10.2689C751.061 7.21956 745.335 6.16156 743.344 6.72165Z" fill="#343458"/>
<path d="M1419.63 600.361C1422.3 608.14 1424.48 615.235 1428.09 626.872L1418.82 597.996C1419.07 598.743 1419.38 599.676 1419.63 600.361Z" fill="#343458"/>
<path d="M1405.68 565.822C1417.76 598.619 1417.76 598.619 1418.57 599.365C1418.75 598.494 1417.76 594.947 1415.45 588.786C1411.04 577.895 1405.37 563.27 1400.58 552.566C1401.7 555.242 1403.57 559.91 1405.68 565.822Z" fill="#343458"/>
<path d="M1391.31 537.94C1401.2 564.762 1404.56 570.363 1405.68 570.363C1406.99 568.122 1398.65 547.15 1389.13 528.854C1388.01 526.738 1387.64 526.115 1387.26 525.68C1387.08 525.929 1386.95 526.115 1391.31 537.94Z" fill="#343458"/>
<path d="M1374.07 509.687C1380.67 527.734 1388.14 542.546 1389.75 540.679C1391.5 538.687 1383.28 517.964 1373.57 501.97C1372.02 499.481 1371.46 498.796 1370.96 498.609C1370.77 499.169 1370.46 499.916 1374.07 509.687Z" fill="#343458"/>
<path d="M1354.22 481.06C1360.26 497.925 1369.28 513.732 1371.15 510.745C1373.01 507.696 1364.3 487.781 1355.34 474.65C1354.16 473.032 1352.17 470.294 1351.73 471.414C1351.48 472.285 1352.35 475.833 1354.22 481.06Z" fill="#343458"/>
<path d="M1332 452.246C1337.91 469.36 1348.31 484.482 1350.11 480.499C1351.85 476.579 1343.64 458.718 1334.74 446.956C1333.43 445.338 1330.32 441.48 1330.13 444.28C1330.07 444.965 1330.13 446.956 1332 452.246Z" fill="#343458"/>
<path d="M1307.61 423.372C1313.02 439.739 1324.97 455.173 1326.77 450.132C1328.2 446.149 1321.42 430.715 1311.77 419.078C1310.47 417.584 1306.48 413.104 1306.24 416.651C1306.11 417.46 1306.24 419.327 1307.61 423.372Z" fill="#343458"/>
<path d="M1281.09 394.494C1285.39 408.434 1298.21 425.112 1300.95 420.383C1303 416.898 1296.4 402.086 1286.57 391.196C1282.4 386.902 1280.22 386.155 1280.04 389.08C1280.04 390.2 1280.41 392.191 1281.09 394.494Z" fill="#343458"/>
<path d="M1252.78 365.683C1256.64 379.311 1270.76 395.928 1273.5 390.078C1275.24 386.344 1269.21 373.213 1259.62 363.255C1253.28 357.157 1252.22 359.459 1252.09 361.451C1252.03 362.135 1252.16 363.504 1252.78 365.683Z" fill="#343458"/>
<path d="M1222.72 337.054C1225.83 349.438 1240.52 365.681 1243.88 360.516C1246.12 357.155 1240.52 344.895 1230.69 335.312C1222.22 327.657 1222.1 333.009 1222.29 334.814C1222.41 335.561 1222.53 336.432 1222.72 337.054Z" fill="#343458"/>
<path d="M1191.04 308.739C1193.53 320.564 1209.65 336.744 1212.83 330.645C1214.69 327.16 1209.53 316.332 1200.13 307.681C1190.05 299.093 1190.73 306.748 1190.86 307.681C1190.92 307.993 1190.98 308.366 1191.04 308.739Z" fill="#343458"/>
<path d="M1158 280.731C1159.8 291.56 1175.92 306.994 1179.9 301.579C1182.14 298.468 1177.48 288.511 1168.08 280.296C1157.69 271.957 1157.87 278.927 1157.87 279.798C1157.87 280.047 1157.94 280.483 1158 280.731Z" fill="#343458"/>
<path d="M1123.4 253.101C1124.45 263.059 1140.76 277.746 1145.43 273.016C1148.1 270.278 1143.87 261.005 1134.41 253.226C1126.2 246.94 1122.96 248.745 1123.4 253.101Z" fill="#343458"/>
<path d="M1087.55 225.842C1087.99 235.426 1105.66 249.988 1110.08 244.387C1112.38 241.525 1108.58 233.559 1099.37 226.34C1090.97 220.365 1087.36 221.859 1087.55 225.842Z" fill="#CF5250"/>
<path d="M1050.4 199.144C1050.09 207.919 1067.82 221.797 1072.99 216.756C1075.6 214.204 1072.3 206.861 1063.09 200.078C1054.57 194.29 1050.52 195.535 1050.4 199.144Z" fill="#343458"/>
<path d="M1012 172.947C1011.07 180.601 1028.99 193.919 1034.59 189.687C1037.58 187.385 1034.65 180.664 1025.5 174.254C1017.17 168.902 1012.44 169.524 1012 172.947Z" fill="#343458"/>
<path d="M972.547 147.429C970.928 154.399 988.789 166.97 995.075 163.236C998.435 161.244 995.884 155.021 986.798 148.922C978.396 143.882 973.231 144.317 972.547 147.429Z" fill="#343458"/>
<path d="M931.971 122.602C929.73 128.949 947.466 140.774 954.374 137.475C958.046 135.733 955.93 130.007 946.906 124.344C937.447 118.868 932.78 120.299 931.971 122.602Z" fill="#343458"/>
<path d="M890.336 98.4553C887.474 104.118 905.085 115.258 912.553 112.458C916.536 110.964 914.794 105.737 905.832 100.385C897.431 95.7793 891.581 95.966 890.336 98.4553Z" fill="#343458"/>
<path d="M847.768 75.1791C844.469 80.0332 860.152 89.8038 868.74 88.248C873.532 87.3767 872.723 83.2693 866.811 79.0998C865.691 78.2907 864.508 77.6684 863.637 77.1083C855.36 72.9387 849.261 73.0009 847.768 75.1791Z" fill="#343458"/>
<path d="M804.892 53.1485C801.22 57.2558 814.787 65.7194 823.997 65.0971C829.1 64.7237 829.784 61.6744 825.615 58.1271C823.935 56.6958 822.068 55.7 820.947 55.0777C812.857 51.157 806.634 51.157 804.892 53.1485Z" fill="#343458"/>
<path d="M762.572 32.7383C758.838 36.0367 769.168 42.8822 778.566 43.38C784.353 43.6912 786.843 41.3886 784.104 38.277C782.486 36.4723 779.748 35.1032 778.566 34.4808C770.911 30.9958 764.626 30.9958 762.572 32.7383Z" fill="#343458"/>
<path d="M720.878 14.0063C717.331 16.4956 723.866 21.5987 732.578 23.0923C739.735 24.337 744.527 22.5322 742.411 19.4206C741.166 17.5536 738.179 16.1845 736.934 15.5621C729.529 12.4505 723.119 12.4505 720.878 14.0063Z" fill="#7465F1"/>
<path d="M680.054 -3.04601C676.88 -1.24126 680.49 2.30602 687.335 4.17299C695.176 6.2889 702.769 4.85753 700.777 1.62143C699.782 0.0033884 697.044 -1.17902 695.861 -1.67688C688.891 -4.41511 682.481 -4.41512 680.054 -3.04601Z" fill="#CF5250"/>
<path d="M1430.14 644.233C1433.75 666.512 1436.55 678.896 1438.11 680.016C1440.16 677.465 1434.75 650.02 1429.33 632.222C1428.71 630.293 1428.59 629.919 1428.27 629.297C1427.96 629.608 1427.78 629.857 1430.14 644.233Z" fill="#343458"/>
<path d="M1417.88 614.424C1421.31 635.396 1426.41 652.448 1428.46 649.585C1430.89 646.163 1425.35 619.527 1418.88 603.658C1417.88 601.355 1417.51 600.733 1416.95 600.359C1416.51 600.671 1415.77 601.231 1417.88 614.424Z" fill="#343458"/>
<path d="M1402.45 584.367C1405.62 604.344 1412.53 622.702 1415.21 618.222C1417.88 613.679 1412.22 588.972 1405.19 574.97C1404.25 573.29 1402.51 570.178 1401.77 571.983C1401.21 573.414 1401.45 578.02 1402.45 584.367Z" fill="#343458"/>
<path d="M1384.21 553.997C1386.95 572.107 1394.92 590.465 1398.47 586.669C1401.76 583.122 1396.91 560.282 1388.51 545.907C1387.33 544.102 1384.65 539.932 1383.78 543.853C1383.53 544.724 1383.22 547.463 1384.21 553.997Z" fill="#343458"/>
<path d="M1363.18 523.316C1365.61 540.679 1375.38 559.66 1379.17 554.557C1382.47 550.138 1377.68 529.602 1368.84 516.346C1365.3 511.554 1363.24 511.368 1362.81 515.724C1362.56 517.466 1362.74 520.267 1363.18 523.316Z" fill="#CF5250"/>
<path d="M1339.65 492.509C1341.71 508.627 1352.29 527.297 1356.83 522.692C1360.63 518.833 1355.96 499.106 1346.75 486.597C1341.09 479.689 1339.78 483.61 1339.47 486.535C1339.28 487.593 1339.28 489.522 1339.65 492.509Z" fill="#7465F1"/>
<path d="M1313.83 461.645C1315.57 477.452 1327.77 496.246 1332.44 490.334C1335.98 485.853 1331.57 468.366 1322.11 456.604C1315.14 448.887 1313.89 454.488 1313.71 457.226C1313.64 458.346 1313.64 460.151 1313.83 461.645Z" fill="#343458"/>
<path d="M1285.88 430.839C1287.19 445.775 1299.95 463.885 1305.36 458.533C1309.47 454.487 1305.24 437.996 1295.34 426.67C1286.76 417.833 1285.88 426.172 1285.82 427.976C1285.76 428.785 1285.76 429.968 1285.88 430.839Z" fill="#CF5250"/>
<path d="M1256.01 400.218C1256.95 414.967 1271.26 433.014 1276.74 426.356C1280.35 421.937 1276.24 407.126 1266.59 396.795C1258.32 388.892 1256.08 394.368 1256.01 398.849C1255.95 399.222 1256.01 399.782 1256.01 400.218Z" fill="#7465F1"/>
<path d="M1224.34 369.849C1224.77 383.292 1239.71 400.903 1245.62 394.991C1249.6 391.008 1245.81 377.006 1235.85 367.049C1227.64 359.706 1224.15 363.377 1224.34 369.849Z" fill="#343458"/>
<path d="M1191.04 339.792C1191.04 352.425 1206.23 369.352 1212.7 363.876C1217.06 360.204 1213.57 347.073 1203.43 337.551C1194.34 329.897 1190.98 334.689 1191.04 339.792Z" fill="#343458"/>
<path d="M1156.26 310.169C1155.76 322.616 1172.25 339.107 1178.6 332.511C1182.39 328.59 1179.16 317.264 1169.39 308.489C1160.11 301.083 1156.44 305.44 1156.26 310.169Z" fill="#343458"/>
<path d="M1119.91 280.919C1118.92 292.557 1135.59 308.301 1142.5 302.265C1146.61 298.655 1143.68 287.951 1133.79 279.612C1124.27 272.518 1120.29 276.501 1119.91 280.919Z" fill="#343458"/>
<path d="M1082.2 252.168C1080.71 263.058 1097.51 278.119 1104.92 272.518C1109.33 269.219 1106.66 259.2 1096.7 251.234C1087.05 244.451 1082.76 248.06 1082.2 252.168Z" fill="#343458"/>
<path d="M1043.18 223.977C1041.25 234.121 1058.05 248.434 1065.96 243.331C1070.62 240.282 1068.32 230.947 1058.36 223.355C1048.53 216.82 1043.93 220.119 1043.18 223.977Z" fill="#343458"/>
<path d="M1002.85 196.41C1000.55 205.558 1017.54 219.25 1025.57 214.769C1030.55 211.968 1028.55 203.256 1018.6 196.099C1009.82 190.498 1003.91 192.054 1002.85 196.41Z" fill="#343458"/>
<path d="M961.405 169.524C958.667 177.988 975.594 190.995 984.058 186.887C988.663 184.647 988.476 176.743 977.648 169.462C968.811 164.11 962.712 165.479 961.405 169.524Z" fill="#343458"/>
<path d="M918.775 143.322C915.601 151.226 932.404 163.486 941.304 159.689C946.096 157.636 946.282 150.292 935.578 143.447C926.679 138.406 920.269 139.588 918.775 143.322Z" fill="#343458"/>
<path d="M874.966 117.997C871.418 125.278 888.097 136.791 897.307 133.368C902.286 131.501 902.784 124.656 892.142 118.184C883.305 113.392 876.708 114.512 874.966 117.997Z" fill="#7465F1"/>
<path d="M830.219 93.5381C826.485 99.8858 841.359 110.154 851.129 107.976C858.224 106.42 856.979 99.4502 848.765 94.4716C848.391 94.2227 847.893 93.9738 847.582 93.7871C838.807 89.3686 832.149 90.3642 830.219 93.5381Z" fill="#343458"/>
<path d="M785.099 70.3859C780.992 76.2357 795.181 85.5706 805.076 83.5169C811.797 82.1478 811.548 76.2979 804.64 71.8172C804.018 71.3816 803.085 70.8837 802.4 70.5726C792.941 65.9673 786.78 68.021 785.099 70.3859Z" fill="#7465F1"/>
<path d="M740.605 48.9768C736.311 54.1421 748.26 62.1701 758.403 60.9255C765.187 60.0542 766.68 55.5112 761.639 51.2794C760.27 50.1592 759.026 49.5369 757.781 48.8523C748.633 44.8695 742.41 46.7987 740.605 48.9768Z" fill="#343458"/>
<path d="M696.67 29.3149C692.5 33.6711 701.337 40.2056 711.294 40.1434C719.073 40.0811 722.434 35.9115 718.015 31.7419C716.584 30.3728 714.779 29.5015 713.659 29.0037C705.88 25.8298 699.097 26.8256 696.67 29.3149Z" fill="#343458"/>
<path d="M653.602 11.4545C649.682 15.0018 655.905 20.2915 664.742 20.9138C672.895 21.4739 678.122 17.8022 674.762 13.8816C673.455 12.388 671.463 11.4545 670.281 10.9566C662.439 8.0317 655.781 9.52529 653.602 11.4545Z" fill="#343458"/>
<path d="M611.163 -4.6668C607.242 -1.55517 612.034 2.86341 620.249 3.67243C628.588 4.48145 634.936 0.934147 631.699 -2.7998C630.517 -4.16892 628.65 -4.91573 627.53 -5.35136C619.626 -8.02736 613.341 -6.34708 611.163 -4.6668Z" fill="#343458"/>
<path d="M1432.82 696.32C1432.26 717.355 1435.18 736.273 1438.48 733.224C1442.4 729.552 1441.59 700.552 1437.11 684.745C1436.55 683.002 1435.43 679.766 1434.37 682.131C1433.57 683.874 1432.94 689.226 1432.82 696.32Z" fill="#343458"/>
<path d="M1419.93 664.524C1419.37 685.309 1424.17 705.659 1428.52 700.805C1433.07 695.764 1431.57 668.631 1425.91 654.006C1425.04 652.077 1422.98 647.596 1421.3 652.575C1420.99 653.695 1420.18 656.994 1419.93 664.524Z" fill="#343458"/>
<path d="M1403.94 632.534C1403.32 652.075 1409.42 672.363 1414.64 668.007C1419.56 663.899 1418.63 638.322 1411.47 623.324C1408.55 618.096 1406.37 618.158 1404.94 623.51C1404.44 625.689 1404 629.049 1403.94 632.534Z" fill="#343458"/>
<path d="M1384.9 600.358C1384.15 619.464 1392.12 640 1397.97 634.088C1402.95 629.11 1401.58 606.208 1393.74 592.268C1388.82 584.8 1386.64 589.654 1385.77 593.264C1385.4 594.571 1385.02 596.873 1384.9 600.358Z" fill="#343458"/>
<path d="M1362.99 567.873C1362.12 585.671 1371.15 605.959 1377.62 600.731C1383.22 596.188 1381.79 574.407 1373.01 560.778C1365.73 551.008 1363.62 561.898 1363.3 564.201C1363.18 565.259 1363.06 566.752 1362.99 567.873Z" fill="#343458"/>
<path d="M1338.54 535.327C1337.48 553.001 1348.37 573.413 1355.21 566.505C1360.38 561.34 1358.57 541.488 1349.74 529.103C1342.46 520.266 1339.34 527.734 1338.66 533.522C1338.6 534.082 1338.54 534.829 1338.54 535.327Z" fill="#343458"/>
<path d="M1311.71 502.841C1310.47 519.582 1322.1 539.372 1329.57 533.086C1335.17 528.357 1333.37 509.5 1323.91 497.427C1315.94 488.528 1312.21 495.809 1311.71 502.841Z" fill="#343458"/>
<path d="M1282.65 470.42C1281.16 486.351 1293.48 505.519 1301.45 499.669C1307.48 495.313 1305.74 477.328 1295.78 465.628C1287.32 456.978 1283.27 463.699 1282.65 470.42Z" fill="#343458"/>
<path d="M1251.66 438.245C1249.85 454.052 1263.98 473.157 1272.07 465.814C1277.55 460.897 1275.62 444.966 1265.66 434.138C1256.7 425.612 1252.41 431.897 1251.66 438.245Z" fill="#343458"/>
<path d="M1218.8 406.379C1216.81 421.004 1231.62 439.674 1239.9 432.953C1245.62 428.348 1243.75 413.225 1233.55 402.77C1224.28 394.493 1219.67 400.405 1218.8 406.379Z" fill="#343458"/>
<path d="M1184.26 374.891C1182.02 388.769 1197.14 406.629 1205.79 400.406C1211.77 396.112 1210.09 381.799 1199.63 371.779C1191.17 364.622 1185.38 368.045 1184.26 374.891Z" fill="#343458"/>
<path d="M1148.17 343.899C1145.68 356.906 1160.92 373.957 1169.89 368.108C1176.05 364.125 1174.55 350.62 1164.04 341.161C1155.45 334.378 1149.41 337.489 1148.17 343.899Z" fill="#343458"/>
<path d="M1110.51 313.406C1107.78 325.665 1123.21 341.908 1132.54 336.556C1138.95 332.884 1137.59 320.127 1127.01 310.978C1118.11 304.382 1111.88 307.307 1110.51 313.406Z" fill="#343458"/>
<path d="M1071.43 283.407C1068.45 295.045 1083.94 310.54 1093.59 305.5C1100.19 302.077 1099 289.942 1088.3 281.291C1079.34 274.943 1072.93 277.682 1071.43 283.407Z" fill="#343458"/>
<path d="M1030.98 254.037C1027.75 265.052 1043.3 279.739 1053.26 275.071C1060.04 271.835 1059.11 260.447 1048.34 252.17C1039.2 246.071 1032.6 248.56 1030.98 254.037Z" fill="#343458"/>
<path d="M989.16 225.284C985.675 235.739 1001.23 249.741 1011.44 245.26C1018.35 242.211 1017.6 231.445 1006.9 223.603C997.686 217.816 990.903 220.181 989.16 225.284Z" fill="#343458"/>
<path d="M946.158 197.341C942.424 207.173 958.044 220.367 968.375 216.197C975.469 213.334 974.909 203.19 964.205 195.785C954.995 190.246 948.025 192.486 946.158 197.341Z" fill="#343458"/>
<path d="M901.975 170.146C897.992 179.481 913.488 191.99 924.067 187.945C931.286 185.269 930.913 175.623 920.271 168.715C910.998 163.549 903.904 165.603 901.975 170.146Z" fill="#343458"/>
<path d="M856.544 143.821C852.312 152.596 867.746 164.296 878.512 160.562C885.855 158.01 885.731 148.924 875.152 142.39C865.879 137.536 858.66 139.527 856.544 143.821Z" fill="#7465F1"/>
<path d="M810.056 118.494C805.638 126.646 820.761 137.537 831.589 133.99C838.995 131.563 839.057 123.161 828.602 117.062C819.516 112.582 812.297 114.449 810.056 118.494Z" fill="#343458"/>
<path d="M763.196 94.5336C758.84 101.69 771.971 111.399 782.675 108.972C791.325 106.98 791.325 98.7032 782.737 93.6001C782.364 93.4134 781.866 93.1645 781.555 92.9778C771.66 88.3103 765.063 91.422 763.196 94.5336Z" fill="#343458"/>
<path d="M716.957 72.3776C712.538 78.912 723.554 87.3134 734.258 85.6331C742.846 84.3262 744.837 77.5428 738.178 72.4398C737.058 71.5685 735.938 71.0085 735.004 70.5729C726.478 66.9011 719.384 68.7681 716.957 72.3776Z" fill="#343458"/>
<path d="M671.215 52.0269C666.61 58.1257 677.003 65.7803 687.52 63.9756C695.921 62.5442 698.224 56.2587 692.001 51.6535C690.943 50.9068 689.885 50.3466 689.014 49.9732C680.861 46.7994 673.766 48.6664 671.215 52.0269Z" fill="#343458"/>
<path d="M626.409 33.61C621.928 39.0242 630.392 45.5586 640.349 44.3762C648.75 43.3805 652.235 37.7796 647.132 33.4233C645.95 32.3654 644.767 31.9297 643.647 31.3696C635.93 28.6314 629.023 30.4362 626.409 33.61Z" fill="#CF5250"/>
<path d="M582.161 16.9914C577.992 21.5966 583.904 27.0108 592.865 26.7618C601.516 26.5751 606.992 21.0987 602.823 16.8669C601.578 15.56 599.898 14.9376 598.902 14.502C591.683 12.1372 584.9 14.0042 582.161 16.9914Z" fill="#343458"/>
<path d="M538.784 2.18178C534.801 6.2269 539.406 10.9566 547.434 10.9566C556.333 11.0188 562.743 5.60453 558.761 1.55942C557.64 0.377002 556.084 -0.183007 555.089 -0.49417C547.745 -2.67231 541.149 -0.183053 538.784 2.18178Z" fill="#343458"/>
<path d="M1425.04 748.536C1420.5 769.757 1422.42 790.729 1428.46 785.875C1434.25 781.27 1438.48 753.701 1434.31 737.832C1433.69 735.965 1431.76 730.426 1428.46 737.396C1427.59 739.139 1426.35 742.499 1425.04 748.536Z" fill="#343458"/>
<path d="M1411.97 715.116C1407.61 735.529 1411.1 756.812 1418.13 752.456C1424.91 748.286 1428.71 721.215 1422.92 705.284C1419.25 697.256 1415.95 702.981 1414.33 707.088C1413.65 708.644 1412.78 711.258 1411.97 715.116Z" fill="#343458"/>
<path d="M1395.6 681.574C1391.18 701.862 1396.85 723.706 1404.94 717.545C1411.72 712.317 1414.46 687.486 1407.8 672.862C1401.14 661.037 1396.6 677.467 1396.1 679.396C1395.91 680.081 1395.73 680.952 1395.6 681.574Z" fill="#343458"/>
<path d="M1376.12 647.845C1371.95 666.763 1378.92 688.234 1387.39 682.757C1394.73 678.027 1397.03 654.317 1389.38 640.066C1383.09 630.42 1377.99 639.443 1376.12 647.845Z" fill="#343458"/>
<path d="M1353.72 613.926C1349.61 631.973 1357.64 652.945 1366.79 647.905C1374.57 643.548 1376.62 620.833 1368.03 606.956C1360.88 597.372 1355.59 605.835 1353.72 613.926Z" fill="#343458"/>
<path d="M1328.76 580.008C1324.53 598.118 1334.68 619.277 1344.32 612.369C1351.67 607.079 1352.91 586.605 1344.01 573.723C1336.11 564.201 1330.57 572.291 1328.76 580.008Z" fill="#343458"/>
<path d="M1301.32 546.156C1297.09 563.456 1308.1 583.993 1318.12 577.521C1325.78 572.604 1326.83 553.001 1317.31 540.492C1308.85 531.158 1303.12 538.812 1301.32 546.156Z" fill="#343458"/>
<path d="M1271.63 512.488C1267.4 529.042 1279.16 548.957 1289.56 542.92C1297.52 538.315 1298.39 519.521 1288.31 507.323C1279.35 498.175 1273.44 505.394 1271.63 512.488Z" fill="#343458"/>
<path d="M1239.9 479.066C1235.67 494.873 1247.99 514.103 1258.75 508.44C1266.91 504.146 1267.72 486.161 1257.26 474.461C1247.8 465.499 1241.7 472.345 1239.9 479.066Z" fill="#343458"/>
<path d="M1206.29 446.085C1202 461.27 1214.82 479.816 1225.83 474.401C1234.17 470.294 1234.86 453.118 1224.09 441.791C1214.38 433.141 1208.16 439.613 1206.29 446.085Z" fill="#7465F1"/>
<path d="M1170.94 413.474C1166.46 428.659 1181.15 447.017 1192.17 440.047C1199.7 435.255 1199.76 420.008 1189.18 409.553C1180.28 402.086 1173.18 406.006 1170.94 413.474Z" fill="#343458"/>
<path d="M1134.04 381.425C1129.5 395.863 1144.37 413.351 1155.51 406.692C1163.1 402.211 1163.16 387.649 1152.52 377.816C1142.44 369.85 1135.84 375.824 1134.04 381.425Z" fill="#343458"/>
<path d="M1095.52 349.876C1091.1 363.194 1106.41 380.121 1117.36 374.022C1125.08 369.79 1125.14 355.913 1114.31 346.453C1103.92 338.799 1097.38 344.275 1095.52 349.876Z" fill="#7465F1"/>
<path d="M1055.44 318.942C1050.96 331.699 1066.45 347.88 1077.53 342.03C1085.31 337.923 1085.37 324.729 1074.42 315.706C1064.03 308.362 1057.31 313.839 1055.44 318.942Z" fill="#CF5250"/>
<path d="M1014.05 288.699C1009.45 300.897 1025.07 316.33 1036.33 310.73C1044.17 306.809 1044.3 294.238 1033.34 285.65C1022.77 278.618 1015.86 283.783 1014.05 288.699Z" fill="#343458"/>
<path d="M971.238 259.137C966.633 270.775 982.315 285.461 993.58 280.047C1001.48 276.251 1001.67 264.24 990.717 256.15C981.195 250.176 973.603 253.225 971.238 259.137Z" fill="#7465F1"/>
<path d="M927.179 230.45C922.449 241.589 938.194 255.467 949.583 250.24C957.486 246.63 957.797 235.179 946.782 227.463C937.26 221.862 929.544 224.787 927.179 230.45Z" fill="#343458"/>
<path d="M881.873 202.57C877.082 213.274 892.764 226.405 904.215 221.302C912.181 217.755 912.492 206.864 901.601 199.645C890.897 193.671 883.803 198.214 881.873 202.57Z" fill="#343458"/>
<path d="M835.322 175.562C830.717 185.332 844.719 197.281 856.481 193.609C865.505 190.808 866.501 179.731 855.112 172.637C845.528 167.658 837.749 170.396 835.322 175.562Z" fill="#343458"/>
<path d="M787.651 149.61C783.046 158.759 796.799 169.898 808.437 166.413C817.46 163.675 818.518 153.22 807.254 146.685C797.235 141.707 789.767 145.379 787.651 149.61Z" fill="#343458"/>
<path d="M739.546 125.027C734.754 133.802 748.01 144.008 759.461 140.399C767.364 137.909 770.351 128.201 758.776 121.853C748.57 117.186 741.538 121.355 739.546 125.027Z" fill="#343458"/>
<path d="M692.002 102.437C687.459 110.278 698.723 119.364 709.676 116.688C719.447 114.323 720.691 104.615 711.854 99.5739C711.481 99.3872 711.045 99.1384 710.672 98.9517C700.963 94.8443 694.056 98.8894 692.002 102.437Z" fill="#7465F1"/>
<path d="M645.078 81.7118C640.472 89.1797 651.114 97.4567 661.818 94.6562C670.904 92.2914 672.895 83.89 665.428 79.0981C664.805 78.7247 663.934 78.289 663.249 77.9778C654.412 74.555 647.256 78.1023 645.078 81.7118Z" fill="#343458"/>
<path d="M598.963 62.9833C594.607 69.6422 603.382 76.7989 613.401 74.8074C622.861 72.8782 625.785 64.4768 618.566 60.0583C618.006 59.6849 617.197 59.3738 616.575 59.0626C608.111 56.0754 601.204 59.5605 598.963 62.9833Z" fill="#343458"/>
<path d="M553.409 46.0543C549.178 52.1531 556.334 58.4386 565.794 56.945C575.128 55.4514 579.298 47.6723 573.137 43.316C572.204 42.6315 571.208 42.2581 570.399 41.8847C561.998 39.2087 555.525 43.0049 553.409 46.0543Z" fill="#CF5250"/>
<path d="M508.665 31.0552C504.434 36.7806 511.093 42.4438 520.179 40.8258C529.202 39.2078 533.434 31.8021 527.647 27.8814C526.775 27.3213 525.842 26.9479 525.095 26.699C517.565 24.5209 510.906 27.9436 508.665 31.0552Z" fill="#343458"/>
<path d="M464.789 18.0499C460.744 23.2152 466.096 28.256 474.311 26.9491C483.335 25.5178 488.562 18.0499 483.086 14.4404C482.277 13.9425 481.405 13.6314 480.721 13.3825C473.502 11.64 467.092 15.0627 464.789 18.0499Z" fill="#343458"/>
<path d="M421.849 6.97034C417.991 11.7 422.098 15.994 429.504 14.9983C438.092 13.8781 444.315 6.97033 439.897 3.36084C438.963 2.61405 438.092 2.36508 437.096 2.05392C430.064 0.684801 424.027 4.29434 421.849 6.97034Z" fill="#343458"/>
<path d="M380.031 -2.04995C376.421 2.18186 379.408 5.9158 385.88 5.23124C394.406 4.35999 401.501 -2.73457 397.269 -6.09512C396.46 -6.71745 395.589 -6.96637 394.717 -7.15307C388.432 -8.14879 382.333 -4.78818 380.031 -2.04995Z" fill="#343458"/>
<path d="M130.851 -1.30668C128.922 0.435827 128.175 1.68042 128.922 1.74265C131.162 2.11604 142.239 -5.9741 141.43 -7.40544C141.244 -7.65437 140.684 -7.46768 140.31 -7.40544C137.572 -6.34749 133.34 -3.48482 130.851 -1.30668Z" fill="#343458"/>
<path d="M104.029 9.33597C102.162 11.0162 101.353 12.012 101.975 12.012C103.656 11.9498 113.551 4.3574 113.675 3.05052C113.551 2.92605 113.426 2.98828 112.804 3.23721C110.315 4.41962 106.394 7.28229 104.029 9.33597Z" fill="#343458"/>
<path d="M80.2567 23.0896C79.1987 23.9609 77.9541 25.0811 77.8296 25.4545C78.5764 25.579 88.4091 17.302 88.7825 16.6797C88.658 16.6797 88.6581 16.6797 88.1602 16.9909C86.0443 18.36 82.4348 21.2227 80.2567 23.0896Z" fill="#343458"/>
<path d="M1393.86 765.089C1385.89 784.505 1387.89 806.411 1397.28 802.926C1406.49 799.441 1414.96 772.432 1409.54 756.376C1404.56 745.299 1397.1 757.248 1393.86 765.089Z" fill="#343458"/>
<path d="M1377.49 730.363C1369.59 749.841 1373.94 772.432 1384.59 766.955C1393.92 762.163 1400.7 737.457 1394.29 722.397C1388.57 712.066 1381.1 721.526 1377.49 730.363Z" fill="#343458"/>
<path d="M1358.01 695.575C1350.48 714.183 1356.21 736.151 1367.29 731.11C1376.99 726.754 1383.09 703.043 1375.56 688.356C1368.97 678.15 1361.44 687.049 1358.01 695.575Z" fill="#343458"/>
<path d="M1335.55 660.537C1328.27 678.522 1335.11 699.93 1346.69 695.2C1356.77 691.093 1362.37 668.191 1353.91 653.816C1346.44 643.796 1338.85 652.384 1335.55 660.537Z" fill="#343458"/>
<path d="M1310.41 625.625C1303.37 643.112 1311.21 663.835 1323.23 659.293C1333.49 655.372 1338.66 633.342 1329.45 619.464C1321.23 609.569 1313.58 617.721 1310.41 625.625Z" fill="#343458"/>
<path d="M1282.77 590.839C1275.93 607.704 1284.7 627.868 1296.96 623.574C1307.48 619.84 1312.21 598.556 1302.31 585.114C1293.6 575.343 1285.89 583.185 1282.77 590.839Z" fill="#343458"/>
<path d="M1252.84 556.172C1245.99 573.038 1256.95 593.45 1269.64 587.351C1279.48 582.621 1282.9 563.329 1272.94 550.82C1263.67 541.423 1255.7 549.14 1252.84 556.172Z" fill="#343458"/>
<path d="M1220.85 521.948C1214.19 538.191 1225.83 557.98 1238.65 552.131C1248.61 547.588 1251.78 528.98 1241.33 516.907C1231.68 507.759 1223.65 515.165 1220.85 521.948Z" fill="#CF5250"/>
<path d="M1187 488.155C1180.53 503.837 1192.73 522.88 1205.67 517.279C1215.63 512.923 1218.55 495 1207.72 483.363C1197.7 474.464 1189.68 481.558 1187 488.155Z" fill="#343458"/>
<path d="M1151.28 454.798C1144.93 469.983 1157.56 488.279 1170.57 482.803C1180.59 478.571 1183.26 461.333 1172.12 450.131C1161.92 441.543 1153.89 448.451 1151.28 454.798Z" fill="#343458"/>
<path d="M1114 422.062C1108.03 436.189 1121.1 453.863 1133.73 448.698C1143.62 444.653 1146.05 428.223 1134.91 417.644C1124.46 409.429 1116.55 416.026 1114 422.062Z" fill="#343458"/>
<path d="M1075.04 389.827C1069.07 403.829 1082.26 420.508 1095.14 415.343C1105.1 411.36 1107.34 395.553 1095.95 385.409C1085.44 377.63 1077.53 383.977 1075.04 389.827Z" fill="#343458"/>
<path d="M1034.59 358.34C1028.93 371.471 1042.49 387.651 1055.07 382.735C1064.96 378.876 1067.01 363.692 1055.5 353.984C1044.86 346.516 1037.02 352.677 1034.59 358.34Z" fill="#343458"/>
<path d="M992.709 327.468C987.17 340.164 1000.92 355.597 1013.43 350.806C1023.27 347.009 1025.26 332.385 1013.68 323.237C1002.91 316.08 995.074 322.054 992.709 327.468Z" fill="#343458"/>
<path d="M949.396 297.411C943.982 309.671 957.86 324.358 970.306 319.628C980.077 315.894 981.944 301.892 970.369 293.18C960.66 287.143 952.321 290.877 949.396 297.411Z" fill="#7465F1"/>
<path d="M904.774 268.226C899.422 279.988 913.425 293.99 925.809 289.261C934.584 285.962 938.131 272.769 925.622 263.932C915.914 258.269 907.637 261.878 904.774 268.226Z" fill="#343458"/>
<path d="M858.908 239.908C853.618 251.296 867.683 264.552 880.067 259.884C888.717 256.586 892.202 243.891 879.818 235.614C868.741 229.577 861.148 235.054 858.908 239.908Z" fill="#343458"/>
<path d="M811.737 212.59C806.572 223.543 820.636 236.052 832.896 231.447C841.546 228.21 844.907 216.013 832.46 208.234C822.627 203.131 814.475 206.678 811.737 212.59Z" fill="#343458"/>
<path d="M763.382 186.263C758.403 196.718 772.219 208.355 784.23 203.812C793.627 200.265 795.121 188.503 783.67 181.782C773.526 176.928 765.685 181.471 763.382 186.263Z" fill="#343458"/>
<path d="M714.592 161.494C709.987 170.954 721.935 181.471 733.448 178.048C743.53 175.061 745.833 163.112 734.32 156.764C724.487 152.346 716.832 156.827 714.592 161.494Z" fill="#343458"/>
<path d="M666.299 138.717C661.694 147.803 673.082 157.387 684.222 153.839C693.992 150.665 696.357 139.277 685.404 133.614C676.007 129.693 668.601 134.236 666.299 138.717Z" fill="#343458"/>
<path d="M618.565 117.809C614.022 126.522 624.851 135.296 635.617 131.562C645.325 128.264 646.819 117.622 638.169 113.017C637.857 112.83 637.36 112.644 637.048 112.457C628.025 109.034 620.806 113.577 618.565 117.809Z" fill="#7465F1"/>
<path d="M571.706 99.0159C567.474 106.919 576.498 114.574 586.517 111.711C596.599 108.849 598.902 98.1447 590.438 93.9129C590.127 93.7262 589.691 93.6017 589.38 93.415C580.854 90.4901 573.884 94.9085 571.706 99.0159Z" fill="#343458"/>
<path d="M525.405 82.0855C521.235 89.6157 529.699 96.648 539.345 93.5986C548.991 90.5492 551.418 80.4675 543.39 76.6713C543.079 76.5469 542.706 76.3601 542.332 76.2357C534.242 73.7464 527.583 78.1649 525.405 82.0855Z" fill="#CF5250"/>
<path d="M479.851 67.0894C475.93 73.9972 482.838 80.2205 491.862 77.7934C501.259 75.2419 504.993 65.6581 498.023 61.7997C497.525 61.4886 496.716 61.2396 496.156 60.9907C488.439 58.937 481.967 63.3555 479.851 67.0894Z" fill="#343458"/>
<path d="M435.104 54.1454C431.37 60.4932 436.909 65.9074 445.186 64.0404C454.209 61.9245 458.939 52.963 453.213 48.9801C452.404 48.42 451.471 48.1088 450.786 47.8599C443.505 46.1796 437.22 50.536 435.104 54.1454Z" fill="#343458"/>
<path d="M391.295 43.2523C387.623 49.3511 392.726 54.2674 400.567 52.1515C409.155 49.8489 413.885 41.1363 408.533 37.6513C407.786 37.1534 406.915 36.9046 406.23 36.7179C399.447 35.411 393.411 39.7673 391.295 43.2523Z" fill="#343458"/>
<path d="M348.602 34.4147C345.242 39.8912 349.225 44.1853 356.132 42.5673C364.721 40.5758 370.259 31.7388 364.97 28.5027C364.223 28.067 363.476 27.8804 362.791 27.6937C356.444 26.8225 350.656 31.0542 348.602 34.4147Z" fill="#343458"/>
<path d="M307.031 27.7587C303.92 32.675 306.969 36.5957 313.006 35.2888C321.22 33.5463 327.568 24.3981 322.652 21.5354C321.967 21.162 321.283 21.0375 320.723 20.913C314.624 20.2907 309.023 24.5226 307.031 27.7587Z" fill="#343458"/>
<path d="M266.83 23.3396C263.967 27.6959 266.145 31.1187 271.248 30.1852C278.716 28.8161 285.811 20.1035 281.89 17.1163C281.143 16.5562 280.396 16.4318 279.65 16.3074C274.111 16.0584 268.821 20.2902 266.83 23.3396Z" fill="#343458"/>
<path d="M228.244 21.2234C225.63 25.0818 227.061 28.0067 231.231 27.3222C238.014 26.202 245.669 17.4273 242.122 14.7513C241.499 14.2534 240.815 14.1911 240.13 14.1289C235.152 14.1911 230.173 18.2985 228.244 21.2234Z" fill="#343458"/>
<path d="M191.276 21.5356C188.912 25.0206 189.721 27.51 193.081 27.0121C199.242 26.1408 207.395 17.1171 204.159 14.8145C203.599 14.4411 203.038 14.3789 202.354 14.3789C197.624 14.7523 193.019 18.9841 191.276 21.5356Z" fill="#343458"/>
<path d="M156.179 24.3957C153.814 27.7563 154.374 29.9344 157.424 29.2499C162.962 28.0674 170.804 19.2926 168.065 17.3634C167.63 17.0523 167.07 17.1144 166.51 17.1144C162.527 17.799 158.046 21.782 156.179 24.3957Z" fill="#343458"/>
<path d="M123.257 29.997C121.141 32.8597 121.265 34.7889 123.506 34.3533C128.111 33.4198 136.388 24.3339 134.085 22.8403C133.712 22.5914 133.214 22.6536 132.716 22.7158C129.231 23.5871 125.062 27.5077 123.257 29.997Z" fill="#343458"/>
<path d="M92.7638 38.3993C90.8346 40.9509 90.648 42.6311 92.2661 42.3199C95.9378 41.6354 104.526 32.2383 102.597 30.9937C102.285 30.807 101.912 30.9314 101.539 31.0559C98.3648 32.176 94.5064 36.0345 92.7638 38.3993Z" fill="#343458"/>
<path d="M64.9467 49.7872C63.2664 51.9654 62.8307 53.3967 63.8265 53.21C66.378 52.7744 75.215 43.0662 73.7837 42.2571C73.597 42.1327 73.2235 42.2571 72.8502 42.4438C70.4231 43.6885 66.8759 47.2357 64.9467 49.7872Z" fill="#343458"/>
<path d="M40.1766 64.2884C38.683 66.1554 38.0607 67.4 38.6208 67.3378C40.2388 67.2133 49.0759 57.1939 47.9557 56.7583C47.8312 56.6961 47.5201 56.8828 47.2711 57.0695C45.2174 58.5008 42.0436 61.8613 40.1766 64.2884Z" fill="#343458"/>
<path d="M18.7691 82.2096C17.96 83.2053 17.0266 84.4499 16.9644 84.8233C17.6489 84.8233 25.3657 75.3017 25.6147 74.6172C25.4902 74.6172 25.4902 74.6172 25.1168 74.9906C23.3743 76.6708 20.5116 80.0314 18.7691 82.2096Z" fill="#343458"/>
<path d="M1349.67 777.972C1338.53 796.144 1340.34 817.615 1352.85 815.063C1365.05 812.574 1377.31 787.121 1370.9 771.065C1364.98 760.423 1354.96 769.384 1349.67 777.972Z" fill="#343458"/>
<path d="M1330.51 742.497C1319.93 759.985 1323.1 780.895 1335.98 778.53C1348.55 776.227 1359.88 751.646 1352.29 735.963C1345.44 725.508 1335.55 734.158 1330.51 742.497Z" fill="#343458"/>
<path d="M1308.35 706.901C1297.9 724.513 1303.44 746.046 1317.31 741.814C1329.51 738.08 1338.79 715.427 1330.57 700.803C1322.98 690.41 1313.15 698.749 1308.35 706.901Z" fill="#343458"/>
<path d="M1283.46 671.365C1273.44 688.603 1280.1 709.575 1294.23 705.344C1306.55 701.672 1315.14 679.642 1306.11 665.515C1297.9 655.433 1287.88 663.772 1283.46 671.365Z" fill="#343458"/>
<path d="M1256.08 636.017C1246.49 652.758 1254.08 673.17 1268.4 669.063C1280.84 665.516 1288.75 644.17 1278.98 630.416C1270.2 620.521 1260.49 628.363 1256.08 636.017Z" fill="#343458"/>
<path d="M1226.39 600.918C1217.24 617.222 1225.65 637.075 1240.08 633.092C1252.59 629.607 1259.87 608.821 1249.54 595.503C1240.27 585.857 1230.44 593.699 1226.39 600.918Z" fill="#343458"/>
<path d="M1194.65 566.194C1185.94 582.064 1195.09 601.293 1209.53 597.311C1222.03 593.888 1228.76 573.724 1217.99 560.904C1208.16 551.57 1198.45 559.224 1194.65 566.194Z" fill="#343458"/>
<path d="M1160.86 531.964C1152.71 547.087 1162.6 565.943 1176.73 562.085C1189.18 558.662 1195.34 539.121 1184.2 526.737C1174.11 517.775 1164.53 525.181 1160.86 531.964Z" fill="#343458"/>
<path d="M1125.33 498.235C1117.55 512.984 1127.94 531.156 1141.94 527.235C1154.33 523.812 1160.05 504.831 1148.54 493.007C1139.39 485.29 1129.75 489.958 1125.33 498.235Z" fill="#343458"/>
<path d="M1088.17 465.189C1080.77 479.44 1091.53 496.803 1105.35 492.882C1117.55 489.46 1122.78 471.225 1111.2 460.024C1100.74 451.747 1091.53 458.779 1088.17 465.189Z" fill="#343458"/>
<path d="M1049.34 432.642C1042.25 446.458 1053.39 463.074 1067.08 459.215C1079.15 455.793 1084 438.181 1072.18 427.415C1061.54 419.573 1052.51 426.481 1049.34 432.642Z" fill="#343458"/>
<path d="M1008.89 400.844C1002.11 414.349 1013.56 430.28 1027.12 426.36C1039.01 422.937 1043.43 405.823 1031.48 395.617C1021.96 388.958 1012.75 393.314 1008.89 400.844Z" fill="#343458"/>
<path d="M967.068 369.851C960.596 382.92 972.233 398.229 985.675 394.246C997.437 390.823 1001.54 374.207 989.534 364.499C978.643 357.342 969.993 364.001 967.068 369.851Z" fill="#343458"/>
<path d="M923.756 339.605C917.532 352.425 929.356 366.988 942.674 362.942C954.249 359.395 957.984 343.401 945.973 334.253C936.202 328.154 927.241 332.449 923.756 339.605Z" fill="#343458"/>
<path d="M879.195 310.232C873.221 322.616 885.294 336.494 898.362 332.449C909.751 328.901 913.236 313.405 901.101 304.693C891.33 299.03 882.493 303.324 879.195 310.232Z" fill="#343458"/>
<path d="M833.207 281.855C827.482 293.99 839.617 307.184 852.624 302.952C863.764 299.28 866.938 284.344 854.927 276.192C843.912 270.218 835.759 276.503 833.207 281.855Z" fill="#343458"/>
<path d="M785.973 254.47C780.559 266.17 792.757 278.741 805.514 274.447C816.529 270.775 819.454 256.275 807.381 248.621C797.548 243.642 789.023 247.874 785.973 254.47Z" fill="#7465F1"/>
<path d="M737.554 228.208C732.389 239.472 744.524 251.172 756.97 246.94C767.674 243.268 770.288 229.39 758.34 222.358C748.694 217.691 740.417 221.922 737.554 228.208Z" fill="#7465F1"/>
<path d="M688.64 203.44C683.662 214.393 695.423 225.159 707.372 220.741C717.703 216.883 720.192 203.565 708.741 197.155C699.344 193.048 691.378 197.342 688.64 203.44Z" fill="#7465F1"/>
<path d="M640.223 180.725C635.431 191.366 646.633 201.261 658.146 196.594C668.041 192.549 670.468 179.791 659.515 174.128C649.433 170.083 642.339 175.995 640.223 180.725Z" fill="#7465F1"/>
<path d="M592.304 160.004C587.948 169.713 597.469 178.674 608.236 175.002C618.877 171.393 621.118 158.573 611.97 153.594C611.659 153.408 611.161 153.221 610.85 153.034C602.261 149.86 594.856 154.279 592.304 160.004Z" fill="#7465F1"/>
<path d="M545.195 141.332C541.026 150.604 549.987 158.695 560.131 154.898C570.088 151.102 572.329 139.029 563.741 134.673C563.43 134.486 562.994 134.362 562.683 134.175C554.655 131.499 547.622 135.917 545.195 141.332Z" fill="#7465F1"/>
<path d="M498.646 124.654C494.726 133.429 503.314 140.897 512.835 136.976C522.419 133.056 524.535 121.418 516.445 117.622C516.133 117.497 515.698 117.311 515.387 117.186C507.67 114.946 501.011 119.364 498.646 124.654Z" fill="#7465F1"/>
<path d="M452.779 109.965C449.17 117.993 456.326 124.714 465.101 121.541C474.934 117.993 477.797 106.107 469.706 102.622C469.395 102.497 469.022 102.373 468.711 102.249C460.994 100.319 454.771 105.609 452.779 109.965Z" fill="#343458"/>
<path d="M407.785 97.3337C404.3 105.113 410.959 111.212 419.298 107.789C428.57 104.055 431.433 92.6663 423.841 89.6791C423.592 89.5547 423.218 89.4924 422.907 89.368C415.688 87.8121 409.714 93.1019 407.785 97.3337Z" fill="#343458"/>
<path d="M363.724 86.7525C360.55 93.847 365.902 99.2613 373.495 96.5231C382.332 93.3492 386.252 82.5208 379.718 79.2224C379.22 78.9735 378.598 78.7867 378.1 78.6623C371.192 77.4799 365.529 82.7074 363.724 86.7525Z" fill="#343458"/>
<path d="M320.661 78.2907C317.549 85.1363 322.528 90.0526 329.684 87.1277C338.023 83.7049 341.82 73.3121 335.721 70.4494C335.285 70.2627 334.663 70.076 334.165 69.9516C327.817 69.2048 322.403 74.3701 320.661 78.2907Z" fill="#343458"/>
<path d="M278.716 72.068C275.915 78.229 279.96 82.5853 286.246 80.2827C294.336 77.2955 298.817 66.4671 292.967 64.04C292.531 63.8533 291.971 63.7289 291.536 63.6666C285.499 63.1688 280.396 68.2718 278.716 72.068Z" fill="#343458"/>
<path d="M238.14 68.085C235.651 73.6859 238.7 77.6066 244.115 75.7397C251.769 73.0637 256.872 62.8575 251.956 60.1192C251.334 59.7458 250.649 59.6836 250.089 59.5592C244.55 59.4969 239.758 64.4755 238.14 68.085Z" fill="#343458"/>
<path d="M199.183 66.4675C196.818 71.6951 199.494 75.1178 204.41 73.1264C211.131 70.3881 216.048 60.6177 211.816 58.3773C211.256 58.0661 210.634 58.0661 210.136 58.0039C205.157 58.1906 200.676 63.0447 199.183 66.4675Z" fill="#343458"/>
<path d="M161.717 67.3347C159.476 72.1266 161.406 75.1138 165.637 73.4958C171.923 71.0687 177.337 60.987 173.354 59.12C172.856 58.8711 172.296 58.8711 171.861 58.8711C167.629 59.3067 163.459 63.5385 161.717 67.3347Z" fill="#343458"/>
<path d="M126.182 70.8249C124.191 75.0567 125.498 77.6704 128.921 76.4258C134.708 74.3099 140.558 63.917 136.824 62.4234C136.388 62.2367 135.891 62.299 135.517 62.299C131.472 63.0458 127.676 67.7132 126.182 70.8249Z" fill="#343458"/>
<path d="M92.8248 77.0461C91.02 80.8422 91.7668 83.1449 94.4428 82.2114C99.4214 80.4689 105.52 70.5117 102.782 68.7069C102.346 68.3958 101.848 68.458 101.351 68.5824C97.7411 69.5159 94.1939 74.1211 92.8248 77.0461Z" fill="#343458"/>
<path d="M61.836 86.068C60.2801 89.3041 60.5913 91.3578 62.5827 90.6732C66.6901 89.3041 73.1 78.9735 70.7352 77.5422C70.3618 77.2932 69.9262 77.4177 69.4905 77.5422C66.3789 78.849 63.1428 83.3298 61.836 86.068Z" fill="#343458"/>
<path d="M33.4567 98.2063C32.0875 101.069 32.0876 102.874 33.519 102.376C36.6928 101.38 43.2894 90.6762 41.4224 89.6805C41.1113 89.556 40.8002 89.6805 40.4268 89.8049C37.6885 91.2985 34.7013 95.5925 33.4567 98.2063Z" fill="#343458"/>
<path d="M8.12798 113.515C6.94556 115.942 6.69662 117.498 7.63011 117.187C9.93271 116.502 16.5916 105.612 15.098 104.927C14.9113 104.803 14.6001 104.989 14.2889 105.176C12.0486 106.856 9.3104 111.088 8.12798 113.515Z" fill="#343458"/>
<path d="M1294.66 786.683C1281.97 802.241 1283.9 822.342 1298.02 821.409C1311.84 820.537 1326.52 797.636 1319.49 782.14C1312.77 771.498 1300.7 779.277 1294.66 786.683Z" fill="#343458"/>
<path d="M1273.19 750.963C1261.37 765.899 1264.67 785.938 1278.73 785.004C1292.79 784.071 1306.42 761.667 1298.27 746.482C1290.8 736.027 1278.92 743.682 1273.19 750.963Z" fill="#343458"/>
<path d="M1248.98 715.302C1237.1 730.922 1242.7 751.334 1258.07 748.41C1271.57 745.858 1282.84 724.886 1274.31 710.883C1266.1 700.615 1254.46 708.145 1248.98 715.302Z" fill="#343458"/>
<path d="M1222.28 679.893C1211.02 695.202 1217.62 715.116 1233.05 712.191C1246.55 709.577 1256.95 689.103 1247.67 675.474C1238.9 665.517 1227.45 672.922 1222.28 679.893Z" fill="#343458"/>
<path d="M1193.29 644.733C1182.58 659.793 1190.11 679.21 1205.48 676.16C1218.99 673.484 1228.51 653.383 1218.61 640.19C1209.34 630.544 1198.14 637.887 1193.29 644.733Z" fill="#343458"/>
<path d="M1162.11 610.069C1151.96 624.88 1160.3 643.675 1175.61 640.625C1188.99 637.887 1197.76 618.284 1187.37 605.526C1177.66 596.067 1166.77 603.286 1162.11 610.069Z" fill="#343458"/>
<path d="M1129 575.839C1119.35 590.463 1128.37 608.698 1143.62 605.462C1156.81 602.599 1164.91 583.369 1154.08 571.109C1144.12 562.023 1133.42 569.18 1129 575.839Z" fill="#CF5250"/>
<path d="M1094.09 542.11C1085 556.424 1094.65 574.036 1109.65 570.675C1122.65 567.75 1130 549.018 1118.86 537.256C1109.15 528.979 1098.51 535.14 1094.09 542.11Z" fill="#343458"/>
<path d="M1057.56 509.126C1049.22 522.755 1059.36 539.869 1073.8 536.446C1086.49 533.397 1093.15 515.225 1081.95 504.147C1071.99 496.244 1061.73 502.343 1057.56 509.126Z" fill="#343458"/>
<path d="M1019.28 476.705C1011.44 490.022 1022.08 506.514 1036.21 502.967C1048.66 499.855 1054.76 482.181 1043.24 471.539C1032.6 463.636 1022.89 470.544 1019.28 476.705Z" fill="#CF5250"/>
<path d="M979.452 445.026C972.108 458.095 983.061 473.902 997.001 470.231C1009.26 467.057 1014.74 449.756 1003.04 439.612C992.832 432.518 983.123 438.492 979.452 445.026Z" fill="#343458"/>
<path d="M938.131 414.16C931.223 426.98 942.487 442.165 956.116 438.369C968.065 435.008 973.043 418.205 961.281 408.621C950.515 401.465 941.367 408.248 938.131 414.16Z" fill="#343458"/>
<path d="M895.376 384.1C888.904 396.671 900.417 411.171 913.859 407.25C925.559 403.828 929.977 387.398 918.216 378.312C907.823 371.902 898.612 377.814 895.376 384.1Z" fill="#343458"/>
<path d="M851.317 354.976C845.218 367.298 856.98 381.113 870.112 377.068C881.5 373.521 885.483 357.527 873.659 349.001C863.204 342.965 854.304 348.877 851.317 354.976Z" fill="#343458"/>
<path d="M805.887 326.847C800.162 338.92 812.111 352.114 824.993 347.882C836.132 344.21 839.68 328.652 827.855 320.624C817.338 314.961 808.688 320.873 805.887 326.847Z" fill="#343458"/>
<path d="M759.089 299.775C753.737 311.599 765.811 324.108 778.382 319.752C789.272 315.956 792.322 300.833 780.497 293.303C770.105 288.013 761.703 293.925 759.089 299.775Z" fill="#343458"/>
<path d="M711.168 273.761C706.251 285.15 718.325 296.85 730.46 292.431C740.977 288.573 743.591 274.072 731.891 267.04C721.623 262.311 713.595 268.098 711.168 273.761Z" fill="#CF5250"/>
<path d="M662.627 249.368C658.022 260.57 669.722 271.398 681.359 266.669C691.378 262.624 693.743 248.559 682.417 242.274C672.584 238.042 664.93 243.892 662.627 249.368Z" fill="#343458"/>
<path d="M614.646 227.089C610.352 237.918 621.554 247.875 632.631 242.959C642.153 238.727 644.331 225.223 633.44 219.622C624.043 215.888 616.762 221.737 614.646 227.089Z" fill="#343458"/>
<path d="M567.101 206.74C563.056 217.32 573.885 226.468 584.402 221.303C593.488 216.884 595.417 203.815 585.024 198.837C576.001 195.601 569.155 201.513 567.101 206.74Z" fill="#343458"/>
<path d="M520.425 188.504C516.878 198.088 526.026 206.24 535.61 202.133C545.007 198.15 547.496 184.895 537.227 180.352C528.702 177.676 522.229 183.526 520.425 188.504Z" fill="#343458"/>
<path d="M474.187 172.262C470.889 181.597 479.54 189.065 488.75 184.709C497.587 180.539 499.827 167.782 490.119 163.861C481.967 161.558 475.93 167.408 474.187 172.262Z" fill="#343458"/>
<path d="M428.696 158.071C425.585 167.094 433.862 173.815 442.512 169.397C450.851 165.041 452.905 152.843 443.694 149.483C435.978 147.553 430.252 153.341 428.696 158.071Z" fill="#343458"/>
<path d="M383.949 145.875C381.211 154.09 388.243 160.313 396.022 156.579C404.797 152.347 406.664 140.336 399.01 137.287C398.761 137.163 398.387 137.1 398.076 136.976C390.857 135.544 385.443 141.332 383.949 145.875Z" fill="#343458"/>
<path d="M340.137 135.854C337.648 143.758 344.182 149.297 351.463 145.438C359.74 141.082 361.421 129.569 354.202 127.017C353.953 126.955 353.579 126.831 353.331 126.769C346.609 125.711 341.506 131.436 340.137 135.854Z" fill="#343458"/>
<path d="M297.322 127.953C295.082 135.234 300.434 140.274 307.093 137.038C315.245 133.056 317.486 121.045 310.516 118.929C310.267 118.866 309.955 118.804 309.707 118.742C303.359 117.995 298.629 123.721 297.322 127.953Z" fill="#343458"/>
<path d="M255.564 122.226C253.448 129.258 258.489 133.739 264.712 130.316C272.243 126.209 274.358 114.758 267.886 113.016C267.637 112.954 267.388 112.891 267.139 112.891C261.227 112.58 256.809 118.181 255.564 122.226Z" fill="#343458"/>
<path d="M215.237 118.866C213.433 125.151 217.478 129.134 222.892 126.396C229.924 122.849 232.787 111.709 227.248 109.655C226.875 109.531 226.315 109.468 225.941 109.406C220.465 109.406 216.295 115.069 215.237 118.866Z" fill="#343458"/>
<path d="M176.404 117.87C174.723 123.782 178.333 127.33 183.187 124.467C189.472 120.795 192.148 110.34 187.17 108.784C186.858 108.66 186.361 108.66 185.987 108.598C181.133 108.847 177.461 114.199 176.404 117.87Z" fill="#343458"/>
<path d="M139.126 119.366C137.633 124.718 140.495 127.892 144.665 125.527C150.826 122.042 153.813 111.4 149.021 110.093C148.71 110.031 148.274 110.031 147.963 109.969C143.482 110.591 140.122 115.819 139.126 119.366Z" fill="#343458"/>
<path d="M103.717 123.407C102.41 128.262 104.526 131 108.073 129.071C113.425 126.208 116.91 115.815 113.114 114.259C112.616 114.073 112.118 114.073 111.745 114.135C107.699 115.006 104.588 120.109 103.717 123.407Z" fill="#343458"/>
<path d="M70.3597 130.255C69.2395 134.487 70.7331 136.914 73.5958 135.42C78.5122 132.868 82.3083 122.227 78.761 120.982C78.3254 120.858 77.8898 120.92 77.5164 120.982C74.0314 122.102 71.2309 127.081 70.3597 130.255Z" fill="#343458"/>
<path d="M39.4312 139.965C38.4355 143.761 39.4312 145.877 41.7338 144.695C45.9656 142.517 50.0108 131.564 46.8369 130.755C46.4635 130.63 46.0901 130.755 45.779 130.879C42.7296 132.186 40.2403 136.978 39.4312 139.965Z" fill="#343458"/>
<path d="M11.0536 152.719C10.1823 155.955 10.8668 157.822 12.5471 156.951C15.9699 155.208 20.0151 144.691 17.7747 143.509C17.4013 143.322 17.0279 143.509 16.6545 143.633C14.0407 145.189 11.8004 149.856 11.0536 152.719Z" fill="#343458"/>
<path d="M1253.09 825.33C1238.71 838.772 1239.59 857.877 1254.52 858.313C1269.39 858.749 1286.57 838.523 1279.97 823.214C1273.44 812.51 1260 818.795 1253.09 825.33Z" fill="#343458"/>
<path d="M1232.55 789.983C1218.93 803.425 1221.04 822.219 1236.23 822.468C1251.29 822.717 1267.28 802.616 1259.56 787.618C1252.34 777.163 1239.15 783.511 1232.55 789.983Z" fill="#343458"/>
<path d="M1209.4 754.757C1196.71 767.888 1200.07 786.62 1215.13 786.62C1230.13 786.62 1244.94 766.706 1236.47 752.268C1228.44 741.937 1215.63 748.347 1209.4 754.757Z" fill="#343458"/>
<path d="M1183.76 719.722C1171.81 732.79 1176.17 751.149 1191.23 750.9C1206.23 750.651 1219.98 730.924 1210.71 716.921C1202.12 706.964 1189.61 713.374 1183.76 719.722Z" fill="#343458"/>
<path d="M1155.76 684.998C1144.49 697.942 1149.78 715.928 1164.84 715.492C1179.78 715.056 1192.41 695.578 1182.52 681.949C1173.37 672.24 1161.23 678.65 1155.76 684.998Z" fill="#343458"/>
<path d="M1125.64 650.766C1114.44 664.395 1121.9 682.629 1137.77 680.327C1151.78 678.273 1162.11 659.977 1152.15 647.406C1143.13 638.444 1131.24 643.983 1125.64 650.766Z" fill="#343458"/>
<path d="M1093.59 616.973C1083.07 630.478 1091.28 648.152 1106.97 645.662C1120.72 643.422 1130.12 625.374 1119.66 613.301C1110.33 604.713 1098.81 610.252 1093.59 616.973Z" fill="#343458"/>
<path d="M1059.67 583.682C1049.77 597.124 1058.61 614.238 1074.05 611.438C1087.55 608.948 1096.08 591.15 1085.37 579.575C1075.73 571.422 1064.52 577.085 1059.67 583.682Z" fill="#343458"/>
<path d="M1024.14 551.196C1014.93 564.389 1024.32 580.756 1039.32 577.769C1052.39 575.155 1060.04 557.855 1049.15 546.84C1039.38 539.06 1028.68 544.661 1024.14 551.196Z" fill="#343458"/>
<path d="M986.858 519.269C978.27 532.338 988.103 548.145 1002.79 544.909C1015.55 542.108 1022.46 525.056 1011.32 514.539C1001.48 507.071 991.09 512.797 986.858 519.269Z" fill="#343458"/>
<path d="M948.089 488.092C940.31 500.663 950.765 516.097 964.768 512.736C977.214 509.749 983.375 493.008 971.987 483.051C962.03 475.957 952.01 481.744 948.089 488.092Z" fill="#343458"/>
<path d="M907.763 457.723C900.544 470.17 911.31 484.981 925.001 481.434C937.136 478.26 942.613 461.831 931.162 452.309C921.081 445.588 911.434 451.438 907.763 457.723Z" fill="#343458"/>
<path d="M866.003 428.162C859.344 440.422 870.484 454.673 883.739 450.877C895.501 447.517 900.293 431.398 888.78 422.499C878.636 416.151 869.364 422.001 866.003 428.162Z" fill="#343458"/>
<path d="M822.939 399.597C816.84 411.67 828.229 425.237 841.111 421.316C852.5 417.831 856.731 402.086 845.094 393.622C834.95 387.648 825.989 393.498 822.939 399.597Z" fill="#343458"/>
<path d="M778.506 372.029C772.843 383.978 784.48 396.922 797.051 392.69C808.066 388.956 811.738 373.585 800.1 365.619C789.894 360.081 781.368 366.055 778.506 372.029Z" fill="#7465F1"/>
<path d="M732.764 345.453C727.599 357.152 739.423 369.474 751.62 365.118C762.324 361.26 765.311 346.199 753.674 338.794C743.53 333.628 735.315 339.603 732.764 345.453Z" fill="#343458"/>
<path d="M685.777 320.124C681.172 331.513 692.996 343.088 704.696 338.545C714.902 334.562 717.391 320 705.878 313.154C695.859 308.487 688.08 314.399 685.777 320.124Z" fill="#343458"/>
<path d="M638.295 296.356C634.125 307.558 645.638 318.199 656.778 313.408C666.424 309.238 668.477 295.111 657.4 288.95C647.691 284.781 640.41 290.755 638.295 296.356Z" fill="#343458"/>
<path d="M591.245 274.633C587.387 285.586 598.589 295.418 609.044 290.315C618.192 285.897 619.872 272.206 609.23 266.729C600.02 263.12 593.175 269.156 591.245 274.633Z" fill="#343458"/>
<path d="M544.696 254.969C541.274 265.673 552.04 274.634 561.935 269.345C570.523 264.739 571.954 251.484 561.686 246.63C552.787 243.518 546.377 249.617 544.696 254.969Z" fill="#7465F1"/>
<path d="M498.832 237.355C495.783 247.685 505.989 255.838 515.137 250.362C523.103 245.632 524.223 232.999 514.639 228.767C506.3 226.153 500.388 232.19 498.832 237.355Z" fill="#343458"/>
<path d="M453.526 221.736C450.913 231.258 459.687 238.663 468.213 234.058C476.49 229.64 477.922 216.633 468.338 212.837C460.372 210.659 454.896 216.758 453.526 221.736Z" fill="#343458"/>
<path d="M408.844 208.171C406.541 217.444 414.881 224.165 422.846 219.435C430.563 214.83 431.746 202.259 422.66 198.961C415.192 197.218 410.089 203.317 408.844 208.171Z" fill="#343458"/>
<path d="M364.97 196.657C362.917 205.681 370.82 211.717 378.226 206.801C385.383 202.009 386.316 189.936 377.853 187.26C370.758 185.891 366.028 191.927 364.97 196.657Z" fill="#343458"/>
<path d="M321.967 187.258C320.224 195.597 326.946 201.074 333.729 196.904C341.072 192.423 342.379 179.977 333.916 177.612C327.319 176.679 322.963 182.715 321.967 187.258Z" fill="#343458"/>
<path d="M279.959 179.979C278.403 187.945 284.751 192.862 291.036 188.63C297.819 183.962 298.94 172.014 290.912 170.209C284.751 169.649 280.768 175.561 279.959 179.979Z" fill="#343458"/>
<path d="M239.012 174.938C237.705 182.53 243.742 187.011 249.467 182.593C255.691 177.801 256.624 166.288 249.218 164.981C243.368 164.794 239.697 170.644 239.012 174.938Z" fill="#343458"/>
<path d="M199.369 172.199C198.311 179.107 203.289 183.09 208.393 179.418C214.74 174.875 215.363 163.549 209.326 162.304C209.077 162.242 208.828 162.242 208.641 162.242C203.289 162.304 199.991 168.092 199.369 172.199Z" fill="#343458"/>
<path d="M161.281 171.766C160.41 178.3 164.891 181.785 169.434 177.989C175.035 173.384 175.533 162.68 170.118 161.933C169.932 161.933 169.683 161.933 169.496 161.871C164.704 162.369 161.779 167.908 161.281 171.766Z" fill="#343458"/>
<path d="M124.688 173.88C123.941 179.729 127.675 182.841 131.596 179.667C137.01 175.373 137.757 164.483 132.654 164.047C132.467 164.047 132.28 164.047 132.093 164.047C127.737 164.731 125.123 170.208 124.688 173.88Z" fill="#343458"/>
<path d="M89.9654 178.548C89.3431 183.838 92.268 186.576 95.6908 183.962C100.607 180.228 101.852 169.524 97.4956 168.778C97.1844 168.715 96.811 168.778 96.562 168.778C92.6414 169.711 90.3388 175.063 89.9654 178.548Z" fill="#343458"/>
<path d="M57.2296 185.892C56.794 190.559 59.0344 192.986 61.8971 190.87C66.5023 187.51 67.9336 176.619 63.8263 176.184C63.5773 176.184 63.204 176.246 62.955 176.246C59.5322 177.49 57.5408 182.594 57.2296 185.892Z" fill="#343458"/>
<path d="M26.7983 196.158C26.4249 200.576 28.3541 202.692 30.8434 200.452C34.7641 196.842 36.0087 186.574 32.5237 186.512C32.2748 186.512 31.9637 186.574 31.777 186.636C28.852 188.005 27.1095 192.984 26.7983 196.158Z" fill="#343458"/>
<path d="M-1.01988 209.351C-1.33104 213.147 0.162542 215.014 2.09175 213.209C5.39007 210.16 6.88361 200.265 4.08314 199.829C3.77198 199.767 3.39862 199.891 3.14969 200.016C0.722624 201.634 -0.833178 206.55 -1.01988 209.351Z" fill="#343458"/>
<path d="M1246.43 961.37C1228.88 971.701 1223.28 988.317 1236.1 991.989C1250.29 996.034 1275.43 978.92 1273.5 962.677C1270.39 951.973 1255.21 956.205 1246.43 961.37Z" fill="#343458"/>
<path d="M1236.47 926.955C1219.79 937.535 1215.69 954.711 1229 958.196C1244.13 962.116 1268.27 944.38 1264.6 928.013C1260.25 917.06 1245.06 921.541 1236.47 926.955Z" fill="#343458"/>
<path d="M1223.22 892.602C1207.29 903.369 1204.67 920.545 1218.55 923.719C1234.05 927.266 1256.82 909.343 1251.66 893.287C1246.24 882.459 1231.37 887.126 1223.22 892.602Z" fill="#343458"/>
<path d="M1206.91 858.188C1191.91 869.016 1190.73 885.943 1204.73 888.868C1220.42 892.104 1241.64 874.181 1235.23 858.437C1229.07 847.857 1214.57 852.649 1206.91 858.188Z" fill="#343458"/>
<path d="M1187.68 823.713C1172.75 835.226 1173.87 852.963 1189.55 854.269C1205.17 855.576 1223.03 837.964 1216 823.464C1208.97 813.134 1194.9 818.112 1187.68 823.713Z" fill="#343458"/>
<path d="M1165.78 789.361C1151.65 801.061 1153.89 818.486 1169.7 819.419C1185.32 820.353 1201.93 802.741 1193.97 788.614C1186.31 778.47 1172.62 783.698 1165.78 789.361Z" fill="#343458"/>
<path d="M1141.38 755.196C1128.13 766.958 1131.49 784.072 1147.17 784.757C1162.66 785.379 1178.04 767.705 1169.32 754.014C1161.11 744.181 1147.85 749.533 1141.38 755.196Z" fill="#343458"/>
<path d="M1114.75 721.34C1102.49 732.978 1106.91 750.029 1122.15 750.34C1137.52 750.652 1151.71 732.978 1142.32 719.66C1133.6 710.076 1120.78 715.615 1114.75 721.34Z" fill="#343458"/>
<path d="M1086.06 687.921C1074.61 699.559 1079.9 716.237 1094.96 716.237C1110.08 716.237 1123.15 698.625 1113.19 685.805C1103.98 676.533 1091.66 682.133 1086.06 687.921Z" fill="#343458"/>
<path d="M1055.31 654.937C1044.61 666.699 1050.65 682.941 1065.58 682.568C1080.39 682.195 1092.34 664.645 1081.95 652.323C1072.93 643.859 1060.98 648.776 1055.31 654.937Z" fill="#343458"/>
<path d="M1022.83 622.514C1012.87 634.276 1019.59 650.083 1034.22 649.336C1048.72 648.59 1059.61 631.165 1048.84 619.34C1039.57 611.312 1028.06 616.353 1022.83 622.514Z" fill="#343458"/>
<path d="M988.663 590.838C979.453 602.538 986.672 617.723 1000.99 616.665C1015.05 615.607 1024.88 598.368 1013.93 587.166C1004.53 579.512 993.517 584.677 988.663 590.838Z" fill="#343458"/>
<path d="M952.818 559.724C943.856 571.983 953.005 587.23 967.629 584.492C980.511 582.065 988.104 565.822 977.4 555.616C967.816 548.335 957.236 553.625 952.818 559.724Z" fill="#7465F1"/>
<path d="M915.416 529.35C907.139 541.61 916.722 556.359 931.036 553.185C943.482 550.447 950.204 534.453 939.313 524.745C929.605 517.899 919.523 523.313 915.416 529.35Z" fill="#343458"/>
<path d="M876.582 499.851C868.989 512.049 879.009 526.176 892.887 522.815C904.96 519.89 910.872 504.083 899.795 494.811C889.962 488.276 880.316 493.815 876.582 499.851Z" fill="#343458"/>
<path d="M836.194 471.101C829.41 482.988 839.99 496.803 853.121 493.132C864.696 489.896 869.799 474.338 858.722 465.625C848.827 459.526 839.617 465.127 836.194 471.101Z" fill="#343458"/>
<path d="M794.56 443.407C788.461 455.169 799.352 468.363 811.985 464.504C823.187 461.081 827.543 445.71 816.341 437.495C806.446 431.708 797.671 437.433 794.56 443.407Z" fill="#343458"/>
<path d="M751.622 416.65C746.083 428.412 757.285 440.983 769.482 436.813C780.435 433.017 784.045 418.206 772.656 410.365C762.761 404.95 754.36 410.8 751.622 416.65Z" fill="#343458"/>
<path d="M707.31 390.945C702.394 402.52 713.845 414.531 725.607 410.113C735.937 406.254 738.862 391.381 727.66 384.224C717.703 379.245 709.737 385.158 707.31 390.945Z" fill="#343458"/>
<path d="M661.818 366.489C657.524 377.815 669.037 389.079 680.239 384.474C690.321 380.367 692.499 366.178 681.172 359.457C671.402 354.852 663.996 360.826 661.818 366.489Z" fill="#CF5250"/>
<path d="M615.827 343.527C612.031 354.667 623.295 365.122 633.812 360.205C643.023 355.911 644.765 341.847 633.999 335.872C624.602 331.889 617.694 337.988 615.827 343.527Z" fill="#343458"/>
<path d="M570.214 322.676C566.853 333.691 577.806 343.275 587.701 338.047C596.538 333.38 597.783 319.938 587.265 314.524C578.241 311.101 571.894 317.2 570.214 322.676Z" fill="#343458"/>
<path d="M525.032 303.822C522.169 314.588 532.748 323.425 541.959 317.949C550.049 313.157 550.92 299.901 540.963 295.234C532.375 292.246 526.463 298.47 525.032 303.822Z" fill="#343458"/>
<path d="M480.596 287.019C478.169 297.474 488.251 305.44 496.715 299.776C504.245 294.736 504.805 282.227 495.283 278.12C487.193 275.692 481.841 281.854 480.596 287.019Z" fill="#343458"/>
<path d="M436.66 272.207C434.73 281.853 443.505 289.134 451.284 284.404C458.939 279.799 459.561 266.606 450.227 262.996C442.572 260.943 437.655 267.166 436.66 272.207Z" fill="#343458"/>
<path d="M393.348 259.388C391.73 268.785 400.132 275.444 407.351 270.465C414.57 265.549 414.881 253.04 405.857 249.866C398.638 248.311 394.22 254.472 393.348 259.388Z" fill="#343458"/>
<path d="M350.843 248.621C349.536 257.77 357.564 263.806 364.223 258.641C370.695 253.662 370.695 241.402 362.418 238.851C355.51 237.668 351.465 243.829 350.843 248.621Z" fill="#343458"/>
<path d="M309.084 239.971C308.088 248.809 315.68 254.16 321.779 248.933C327.754 243.83 327.442 232.068 319.601 230.014C313.253 229.205 309.644 235.304 309.084 239.971Z" fill="#343458"/>
<path d="M268.384 233.438C267.637 241.59 274.172 246.507 279.773 242.026C285.872 237.172 285.747 225.037 277.968 223.294C271.994 222.796 268.758 228.957 268.384 233.438Z" fill="#343458"/>
<path d="M228.68 229.017C228.244 236.733 234.467 241.09 239.446 236.609C244.922 231.693 244.611 220.055 237.392 218.81C231.854 218.686 228.929 224.723 228.68 229.017Z" fill="#343458"/>
<path d="M190.346 226.901C190.097 233.996 195.387 237.979 199.867 234.12C205.406 229.391 205.219 217.504 198.125 216.695C192.96 216.882 190.47 222.794 190.346 226.901Z" fill="#343458"/>
<path d="M153.442 227.09C153.38 233.749 158.109 237.171 162.092 233.313C166.76 228.708 166.449 217.381 160.163 217.07C155.62 217.506 153.504 223.169 153.442 227.09Z" fill="#343458"/>
<path d="M118.032 229.766C118.094 235.74 122.139 238.852 125.562 235.616C130.416 231.073 129.669 220.12 124.504 219.809C124.317 219.809 124.131 219.809 123.944 219.809C119.836 220.493 118.032 226.032 118.032 229.766Z" fill="#343458"/>
<path d="M84.4246 234.93C84.6113 240.531 88.2831 243.207 91.2702 239.909C95.5643 235.241 94.6308 224.911 89.9633 224.973C89.8389 224.973 89.5899 224.973 89.4654 225.035C85.7937 225.969 84.3002 231.383 84.4246 234.93Z" fill="#343458"/>
<path d="M52.8116 242.709C53.0605 247.812 55.9855 250.177 58.5992 247.376C62.7066 243.02 61.8976 232.441 57.5413 232.876C57.4168 232.876 57.2301 232.939 57.1056 232.939C53.8695 234.183 52.6249 239.411 52.8116 242.709Z" fill="#343458"/>
<path d="M23.4384 253.29C23.7496 257.771 26.1144 259.825 28.2926 257.584C31.7776 253.913 31.4042 243.582 27.7325 243.582C27.4836 243.582 27.1724 243.644 26.9857 243.707C24.1853 245.138 23.2518 250.179 23.4384 253.29Z" fill="#343458"/>
<path d="M-3.38603 266.794C-3.01264 271.026 -0.95895 272.768 0.908026 270.403C3.83295 266.607 3.27289 256.899 0.161266 257.272C-0.0254314 257.272 -0.274399 257.397 -0.461097 257.521C-2.9504 259.139 -3.6972 263.931 -3.38603 266.794Z" fill="#343458"/>
<path d="M1192.91 984.336C1174.36 992.053 1167.89 1006.93 1180.9 1011.84C1195.65 1017.38 1222.66 1004.25 1221.23 988.692C1218.36 978.175 1202.31 980.415 1192.91 984.336Z" fill="#343458"/>
<path d="M1184.13 951.288C1166.09 959.565 1161.11 974.874 1174.92 979.479C1190.48 984.707 1216.5 970.767 1213.38 955.022C1209.34 944.38 1193.28 947.056 1184.13 951.288Z" fill="#343458"/>
<path d="M1172.12 918.245C1155.26 926.708 1151.77 942.329 1165.71 946.56C1181.65 951.352 1206.1 936.914 1201.56 921.418C1196.52 910.839 1180.84 913.888 1172.12 918.245Z" fill="#343458"/>
<path d="M1157.19 885.135C1141.32 893.909 1139.14 909.343 1153.33 913.202C1169.39 917.558 1192.29 902.746 1186.5 887.624C1180.59 877.293 1165.4 880.654 1157.19 885.135Z" fill="#343458"/>
<path d="M1139.33 851.966C1124.33 860.99 1123.46 876.362 1137.77 879.847C1153.95 883.767 1175.36 868.583 1168.45 853.771C1161.86 843.627 1147.11 847.299 1139.33 851.966Z" fill="#343458"/>
<path d="M1118.92 818.918C1104.66 828.315 1104.98 843.562 1119.41 846.549C1135.59 849.91 1155.57 834.352 1147.79 820.038C1140.57 810.143 1126.26 814.064 1118.92 818.918Z" fill="#343458"/>
<path d="M1096.14 786C1082.76 795.584 1084.13 810.644 1098.5 813.258C1114.62 816.183 1133.17 800.376 1124.58 786.374C1116.74 776.852 1102.98 781.084 1096.14 786Z" fill="#343458"/>
<path d="M1071.06 753.389C1058.55 763.221 1060.79 778.095 1075.17 780.335C1091.16 782.825 1108.4 766.706 1099.13 753.14C1090.79 743.805 1077.47 748.348 1071.06 753.389Z" fill="#343458"/>
<path d="M1043.93 721.215C1031.67 731.732 1036.02 747.166 1051.39 747.788C1066.64 748.41 1080.77 732.603 1071.43 720.281C1062.66 711.258 1049.9 716.049 1043.93 721.215Z" fill="#343458"/>
<path d="M1014.93 689.476C1003.72 699.993 1008.95 715.303 1023.76 715.489C1038.7 715.676 1051.58 699.745 1041.81 687.796C1033.16 679.643 1020.9 683.813 1014.93 689.476Z" fill="#343458"/>
<path d="M984.059 658.234C973.728 668.876 979.64 683.812 994.14 683.563C1008.7 683.314 1020.34 667.32 1010.2 655.932C1001.36 648.091 989.597 652.571 984.059 658.234Z" fill="#343458"/>
<path d="M951.698 627.678C942.177 638.382 948.711 652.82 962.776 652.135C976.778 651.513 987.295 635.581 976.903 624.815C967.879 617.347 956.739 622.014 951.698 627.678Z" fill="#343458"/>
<path d="M917.531 597.744C908.818 608.51 915.913 622.513 929.604 621.455C943.233 620.459 952.568 604.528 941.864 594.259C932.28 586.791 921.825 592.454 917.531 597.744Z" fill="#343458"/>
<path d="M881.936 568.559C873.535 579.948 882.496 593.95 896.437 591.274C908.821 588.909 915.916 573.786 905.523 564.389C896.25 557.73 886.106 562.834 881.936 568.559Z" fill="#343458"/>
<path d="M844.843 540.118C837.251 551.631 846.648 565.135 860.09 562.024C871.914 559.285 878.138 544.287 867.62 535.45C857.725 528.791 848.391 534.766 844.843 540.118Z" fill="#343458"/>
<path d="M806.323 512.551C799.478 524.064 809.311 537.07 822.255 533.648C833.643 530.598 838.933 515.725 828.354 507.323C818.832 501.349 809.746 506.825 806.323 512.551Z" fill="#343458"/>
<path d="M766.492 485.913C760.331 497.426 770.538 509.873 782.984 506.139C793.875 502.841 798.293 488.092 787.589 480.188C778.13 474.649 769.542 480.188 766.492 485.913Z" fill="#343458"/>
<path d="M725.422 460.271C720.132 471.473 730.774 483.608 742.473 479.563C752.866 476.016 756.476 461.391 745.709 453.986C736.188 448.82 728.098 454.546 725.422 460.271Z" fill="#343458"/>
<path d="M682.977 435.694C678.372 446.896 689.325 458.409 700.464 454.115C710.422 450.319 713.16 435.881 702.331 428.973C692.872 424.181 685.342 430.031 682.977 435.694Z" fill="#343458"/>
<path d="M639.413 412.294C635.493 423.247 646.57 434.076 657.087 429.595C666.485 425.612 668.476 411.547 657.71 405.137C648.437 400.781 641.405 406.693 639.413 412.294Z" fill="#343458"/>
<path d="M595.292 390.448C591.931 401.339 602.884 411.421 612.717 406.504C621.429 402.148 622.798 388.395 612.468 382.731C603.444 378.935 597.034 384.972 595.292 390.448Z" fill="#343458"/>
<path d="M551.606 370.596C548.805 381.3 559.447 390.573 568.533 385.408C576.623 380.802 577.432 367.422 567.413 362.382C558.887 359.083 553.037 365.182 551.606 370.596Z" fill="#343458"/>
<path d="M508.353 352.735C506.113 363.314 516.443 371.84 524.845 366.364C532.313 361.51 532.624 348.441 523.04 343.96C514.763 341.16 509.473 347.383 508.353 352.735Z" fill="#343458"/>
<path d="M465.786 336.868C464.043 347.074 473.876 354.791 481.53 349.19C488.314 344.212 488.189 331.641 479.166 327.782C471.386 325.48 466.657 331.703 465.786 336.868Z" fill="#343458"/>
<path d="M423.594 322.987C422.287 333.069 431.808 340.101 438.84 334.189C444.566 329.397 445.25 317.137 435.915 313.528C428.51 311.661 424.278 317.946 423.594 322.987Z" fill="#343458"/>
<path d="M382.145 311.04C381.274 320.312 389.613 326.722 396.085 321.806C402.433 316.89 401.873 304.319 393.347 301.394C386.315 299.9 382.581 306.123 382.145 311.04Z" fill="#343458"/>
<path d="M341.383 301.084C340.885 310.232 348.851 316.02 354.7 310.792C360.488 305.565 359.679 293.554 351.527 291.127C344.992 290.069 341.632 296.292 341.383 301.084Z" fill="#343458"/>
<path d="M301.429 293.178C301.242 302.015 308.897 307.181 314.124 301.891C319.352 296.601 318.17 285.026 310.515 283.097C304.416 282.35 301.554 288.573 301.429 293.178Z" fill="#343458"/>
<path d="M262.471 287.39C262.595 295.543 269.192 300.272 273.984 295.729C279.211 290.813 278.029 278.615 270.561 277.122C264.898 276.748 262.409 282.909 262.471 287.39Z" fill="#343458"/>
<path d="M224.509 283.722C224.883 291.376 231.231 295.67 235.525 291.127C240.192 286.086 238.698 274.449 231.791 273.391C226.439 273.329 224.323 279.365 224.509 283.722Z" fill="#343458"/>
<path d="M187.856 282.229C188.478 289.697 194.328 293.431 198.186 288.701C202.356 283.598 200.613 272.458 194.141 271.836C189.722 272.023 187.482 277.375 187.856 282.229Z" fill="#343458"/>
<path d="M152.631 282.972C153.378 289.569 158.356 292.929 161.655 289.009C165.575 284.341 163.895 273.015 157.921 272.828C153.565 273.326 152.195 279.051 152.631 282.972Z" fill="#343458"/>
<path d="M118.839 286.084C119.71 292.432 124.377 295.357 127.24 291.374C130.601 286.644 128.671 275.816 123.319 276.002C119.399 276.749 118.341 282.35 118.839 286.084Z" fill="#343458"/>
<path d="M86.8516 291.623C87.7851 297.224 91.7058 299.838 94.2573 296.54C97.6178 292.121 95.6886 281.106 90.5233 281.728C86.976 282.724 86.2293 288.138 86.8516 291.623Z" fill="#343458"/>
<path d="M56.7328 299.775C57.7908 305.127 61.2758 307.243 63.454 303.882C66.3167 299.402 64.263 289.071 59.5956 290.005C56.5462 291.187 56.1105 296.415 56.7328 299.775Z" fill="#343458"/>
<path d="M28.8515 310.542C29.9094 315.271 32.8343 317.2 34.6391 314.338C37.4395 310.044 35.0124 300.149 31.403 300.896C31.2785 300.958 31.154 301.02 31.0296 301.02C28.3536 302.451 28.1669 307.43 28.8515 310.542Z" fill="#343458"/>
<path d="M3.33543 324.106C4.33115 328.214 6.75824 329.832 8.31406 327.529C10.7411 323.795 8.7497 314.211 5.51361 314.585C5.32691 314.585 5.07794 314.709 4.89125 314.772C2.65088 316.452 2.58864 321.244 3.33543 324.106Z" fill="#343458"/>
<path d="M1136.59 999.828C1118.3 1004.62 1110.7 1016.51 1121.78 1022.98C1135.66 1031.13 1166.53 1022.29 1165.59 1006.99C1163.04 996.841 1146.86 997.152 1136.59 999.828Z" fill="#343458"/>
<path d="M1129 968.53C1111.2 973.944 1104.92 986.328 1116.8 992.614C1131.61 1000.45 1161.55 990.498 1158.93 975.002C1155.2 964.671 1138.96 965.48 1129 968.53Z" fill="#343458"/>
<path d="M1118.29 937.227C1101.61 943.076 1096.57 955.896 1108.71 961.684C1124.02 968.965 1152.4 958.137 1148.35 942.828C1143.75 932.684 1127.5 933.991 1118.29 937.227Z" fill="#343458"/>
<path d="M1104.85 905.86C1089.17 912.146 1085.5 924.966 1097.82 930.318C1113.32 937.039 1139.89 925.526 1134.6 910.528C1129.12 900.633 1113.44 902.438 1104.85 905.86Z" fill="#343458"/>
<path d="M1088.55 874.432C1073.67 881.153 1071.19 893.973 1083.76 898.951C1100.06 905.361 1123.21 892.479 1118.67 879.535C1118.54 879.099 1118.23 878.601 1118.11 878.166C1111.95 868.458 1096.7 870.698 1088.55 874.432Z" fill="#343458"/>
<path d="M1069.82 843.005C1055.75 850.161 1054.38 862.981 1067.14 867.524C1083.44 873.25 1104.98 859.808 1099.63 847.237C1099.44 846.801 1099.13 846.303 1098.94 845.93C1092.16 836.408 1077.47 839.084 1069.82 843.005Z" fill="#343458"/>
<path d="M1048.72 811.765C1035.53 819.295 1035.09 832.115 1047.91 836.16C1064.21 841.325 1084.25 827.323 1078.15 815.063C1077.97 814.69 1077.59 814.13 1077.35 813.756C1070.06 804.546 1055.94 807.658 1048.72 811.765Z" fill="#343458"/>
<path d="M1025.44 780.772C1012.62 789.049 1014.06 802.615 1028.18 805.416C1044.05 808.59 1062.16 794.836 1053.57 781.954C1045.73 772.993 1032.16 776.478 1025.44 780.772Z" fill="#343458"/>
<path d="M1000.24 750.154C988.229 758.742 990.594 772.184 1004.53 774.487C1020.28 777.101 1035.53 762.6 1028.62 751.71C1028.37 751.336 1028 750.901 1027.75 750.465C1019.84 742.313 1006.9 745.362 1000.24 750.154Z" fill="#343458"/>
<path d="M973.107 719.969C961.967 728.868 965.203 742.061 978.894 743.928C994.328 746.044 1008.21 731.233 1000.74 720.653C1000.49 720.28 1000.05 719.844 999.804 719.471C991.652 711.568 979.268 715.052 973.107 719.969Z" fill="#343458"/>
<path d="M944.23 690.287C933.401 699.871 938.504 713.562 952.942 713.811C967.318 714.122 979.64 699.746 970.118 688.918C961.717 681.45 949.955 685.184 944.23 690.287Z" fill="#343458"/>
<path d="M913.797 661.224C904.213 670.746 910.001 684.188 923.629 684.001C937.445 683.814 948.398 669.439 938.628 659.108C930.102 652.076 918.962 656.121 913.797 661.224Z" fill="#343458"/>
<path d="M881.748 632.721C872.973 642.491 879.383 655.56 892.638 654.938C905.956 654.315 915.727 639.753 905.707 629.92C896.995 623.199 886.477 627.493 881.748 632.721Z" fill="#343458"/>
<path d="M848.206 604.964C840.302 614.859 847.272 627.554 860.03 626.496C872.912 625.438 881.438 610.751 871.17 601.416C862.395 595.069 852.438 599.674 848.206 604.964Z" fill="#343458"/>
<path d="M813.23 577.957C805.7 588.536 814.412 601.294 827.356 598.618C838.932 596.191 845.342 582.189 835.384 573.725C826.423 567.751 817.026 572.605 813.23 577.957Z" fill="#343458"/>
<path d="M776.825 551.756C770.104 562.46 779.315 574.782 791.699 571.671C802.714 568.87 808.128 554.93 798.047 546.964C789.023 541.301 780.248 546.404 776.825 551.756Z" fill="#343458"/>
<path d="M739.236 526.551C733.386 537.317 742.97 549.079 754.794 545.656C765.249 542.607 769.667 528.667 759.461 521.137C750.375 515.785 742.161 521.075 739.236 526.551Z" fill="#343458"/>
<path d="M700.342 502.22C695.239 513.111 705.134 524.375 716.46 520.517C726.355 517.094 729.84 503.216 719.634 496.184C710.61 491.267 702.894 496.744 700.342 502.22Z" fill="#343458"/>
<path d="M660.2 478.942C655.906 489.771 666.174 500.599 676.816 496.43C686.213 492.758 688.827 479.004 678.496 472.408C669.473 467.865 662.378 473.528 660.2 478.942Z" fill="#343458"/>
<path d="M618.941 456.85C615.394 467.616 625.787 477.76 635.806 473.28C644.581 469.359 646.324 455.854 636.055 449.818C627.218 445.773 620.746 451.498 618.941 456.85Z" fill="#7465F1"/>
<path d="M577.183 436.254C574.382 446.709 584.837 456.23 593.861 451.5C601.889 447.269 602.884 434.013 593.052 428.599C584.464 425.052 578.614 430.902 577.183 436.254Z" fill="#343458"/>
<path d="M535.798 417.645C533.62 427.976 543.826 436.813 552.103 431.71C559.508 427.167 559.82 414.16 550.36 409.368C542.146 406.257 536.918 412.356 535.798 417.645Z" fill="#343458"/>
<path d="M494.786 400.841C493.168 411.048 503.125 419.138 510.718 413.786C517.439 408.994 517.252 396.361 508.104 392.129C500.262 389.515 495.595 395.676 494.786 400.841Z" fill="#CF5250"/>
<path d="M454.46 386.092C453.402 396.049 462.985 403.393 469.769 397.792C475.743 392.813 475.058 380.615 466.47 377.006C459.065 374.89 454.957 381.051 454.46 386.092Z" fill="#343458"/>
<path d="M414.569 373.212C414.009 382.983 423.281 389.642 429.38 383.854C434.794 378.751 433.55 366.864 425.397 363.815C418.365 362.01 414.818 368.234 414.569 373.212Z" fill="#343458"/>
<path d="M375.237 362.197C375.113 371.283 383.265 377.382 388.866 372.465C394.405 367.549 393.036 355.165 384.883 352.426C378.349 351.12 375.299 357.343 375.237 362.197Z" fill="#343458"/>
<path d="M336.715 353.173C336.964 362.072 344.867 367.548 349.846 362.445C354.762 357.404 352.958 345.456 345.365 343.215C339.142 342.22 336.528 348.443 336.715 353.173Z" fill="#343458"/>
<path d="M299.003 346.079C299.626 354.729 307.156 359.708 311.575 354.418C315.869 349.253 313.69 337.677 306.534 335.935C300.746 335.25 298.63 341.473 299.003 346.079Z" fill="#343458"/>
<path d="M262.161 340.975C263.094 349.315 270.313 353.733 274.172 348.381C277.657 343.589 275.914 332.138 268.695 330.769C263.343 330.458 261.663 336.557 262.161 340.975Z" fill="#343458"/>
<path d="M226.317 337.924C227.499 345.454 233.909 349.624 237.394 345.019C241.253 339.978 238.639 328.527 231.98 327.531C227.001 327.656 225.694 333.692 226.317 337.924Z" fill="#343458"/>
<path d="M191.775 337.053C193.206 344.397 199.18 347.944 202.23 343.277C205.59 338.173 202.665 327.283 196.504 326.723C191.899 327.034 190.965 332.946 191.775 337.053Z" fill="#343458"/>
<path d="M158.605 338.238C160.098 344.71 165.264 347.946 167.877 344.025C171.051 339.358 168.126 328.218 162.339 328.094C158.294 328.716 157.733 334.441 158.605 338.238Z" fill="#343458"/>
<path d="M126.867 341.782C128.547 347.943 133.339 350.743 135.58 346.76C138.256 342.093 135.082 331.576 129.854 331.825C126.12 332.634 125.871 338.11 126.867 341.782Z" fill="#343458"/>
<path d="M96.8107 347.632C98.4909 353.108 102.598 355.597 104.59 352.299C107.203 347.943 103.905 337.114 98.9887 337.737C95.6904 338.795 95.7527 344.147 96.8107 347.632Z" fill="#343458"/>
<path d="M68.5568 355.847C70.2993 361.012 74.0333 363.066 75.7136 359.768C77.8918 355.411 74.4067 345.267 70.0504 346.201C67.1877 347.508 67.4989 352.673 68.5568 355.847Z" fill="#343458"/>
<path d="M42.4812 366.675C44.2237 371.28 47.3975 373.085 48.8288 370.284C51.007 366.052 47.1485 356.344 43.6635 357.153C43.539 357.153 43.4146 357.215 43.3524 357.278C40.8631 358.709 41.361 363.625 42.4812 366.675Z" fill="#343458"/>
<path d="M18.707 380.117C20.4495 384.287 23.3744 385.781 24.4324 382.98C26.0504 378.748 22.2542 369.849 19.2671 370.907C19.2049 370.969 19.0804 371.031 18.9559 371.031C16.9022 372.649 17.5868 377.441 18.707 380.117Z" fill="#343458"/>
<path d="M-2.51487 396.3C-0.896826 399.909 1.5303 401.216 2.40155 398.914C3.95737 394.931 0.0989292 386.094 -2.57707 387.463C-2.6393 387.525 -2.76382 387.587 -2.82605 387.65C-4.4441 389.392 -3.57282 393.748 -2.51487 396.3Z" fill="#343458"/>
<path d="M10.3682 726.132L9.74579 725.137H9.68359L10.3682 726.132Z" fill="#343458"/>
<path d="M1393.99 545.096C1401.33 557.418 1408.61 574.283 1407.99 576.461C1406.06 576.959 1385.83 542.544 1382.85 533.645C1382.54 532.462 1382.1 530.72 1383.47 531.405C1385.09 532.151 1388.95 536.694 1393.99 545.096Z" fill="#343458"/>
<path d="M1383.53 520.016C1390.81 531.964 1398.59 548.456 1399.09 550.883C1399.03 550.883 1398.9 550.883 1398.9 550.883C1397.35 549.141 1378.18 518.709 1374.32 509.996C1373.57 508.129 1373.51 507.631 1373.88 507.32C1375.56 507.756 1380.17 514.415 1383.53 520.016Z" fill="#343458"/>
<path d="M1370.34 494.503C1374.01 500.477 1377.68 507.074 1379.17 509.874L1385.65 522.009C1386.08 522.818 1386.52 523.627 1386.89 524.499C1386.77 524.374 1366.85 493.196 1363.05 486.164C1362.12 484.297 1361.87 483.674 1361.93 483.301C1363.62 483.799 1368.34 491.267 1370.34 494.503Z" fill="#343458"/>
<path d="M1352.66 465.689L1370.59 494.627C1363.99 483.301 1356.15 472.783 1349.18 461.706C1348.06 459.839 1347.68 459.217 1347.56 458.719C1347.68 458.719 1348.18 458.781 1352.04 464.693L1352.66 465.689Z" fill="#343458"/>
<path d="M1346.94 457.102C1345.69 455.235 1345.69 455.235 1332.56 436.751C1331.69 435.507 1330.63 434.013 1330.32 433.453C1330.44 433.578 1330.57 433.764 1330.63 433.889L1346.94 457.102Z" fill="#343458"/>
<path d="M262.409 15.6218C259.235 15.7462 257.244 14.875 258.239 13.8793C259.795 12.3235 267.885 11.7011 268.072 13.7548C267.761 14.9994 264.463 15.5595 262.409 15.6218Z" fill="#343458"/>
<path d="M263.221 37.7772C260.296 37.9639 258.304 37.1549 259.051 36.1592C260.234 34.6034 267.453 33.8565 268.013 35.848C268.013 37.0304 265.088 37.6527 263.221 37.7772Z" fill="#343458"/>
<path d="M268.012 61.7366C265.461 61.9233 263.656 61.1765 264.402 60.1808C265.46 58.7495 271.186 58.1894 271.87 59.8696C271.933 60.8031 269.941 61.6122 268.012 61.7366Z" fill="#343458"/>
<path d="M276.724 87.5621C274.172 87.8732 272.679 87.0019 273.425 86.0685C274.483 84.8238 278.964 84.326 279.711 85.6951C279.96 86.6908 278.404 87.3754 276.724 87.5621Z" fill="#343458"/>
<path d="M289.356 115.132C287.303 115.443 285.809 114.697 286.556 113.763C287.427 112.643 290.974 112.207 291.721 113.452C292.032 114.199 290.725 114.883 289.356 115.132Z" fill="#343458"/>
<path d="M305.974 144.131C304.418 144.442 303.111 143.882 303.609 143.073C304.231 142.015 306.907 141.766 307.654 142.699C307.965 143.446 306.845 143.944 305.974 144.131Z" fill="#343458"/>
<path d="M324.517 174.253L325.575 173.195L327.504 173.382L326.509 174.564L324.517 174.253Z" fill="#343458"/>
<path d="M349.474 206.055L349.972 205.309L351.154 205.433L350.657 206.18L349.474 206.055Z" fill="#343458"/>
<path d="M378.038 238.85L378.224 238.477L378.722 238.601L378.535 238.85H378.038Z" fill="#343458"/>
<path d="M1417.2 593.39C1417.76 594.884 1418.32 596.44 1418.81 597.996L1428.09 626.871C1428.09 626.996 1428.15 627.12 1428.21 627.183C1412.84 586.109 1412.22 584.242 1411.28 581.379C1410.79 579.699 1410.72 579.326 1410.72 578.766C1411.91 578.952 1416.64 591.959 1417.2 593.39Z" fill="#343458"/>
<path d="M1415.45 588.847C1412.53 580.819 1412.53 580.819 1401.58 555.241C1400.77 553.312 1400.46 552.627 1400.33 552.254C1400.39 552.378 1400.46 552.503 1400.52 552.627C1405.06 563.456 1411.35 577.832 1415.45 588.847Z" fill="#343458"/>
<path d="M200.365 3.11242C197.503 3.61028 195.698 3.17469 196.258 2.17897C197.503 0.0630629 206.153 -1.80392 206.775 -0.0614059C206.837 0.0630592 206.775 0.187543 206.775 0.249776C206.153 1.61889 202.668 2.73902 200.365 3.11242Z" fill="#343458"/>
<path d="M196.071 24.958C193.208 25.5181 191.341 25.0202 192.026 23.8378C193.395 21.6596 201.236 20.0416 201.609 21.9086C201.609 21.9708 201.609 22.033 201.609 22.0953C201.298 23.5266 198.062 24.6469 196.071 24.958Z" fill="#343458"/>
<path d="M196.134 49.0394C193.333 49.5995 191.528 49.0394 192.275 47.7947C193.582 45.6788 200.241 44.3097 200.863 46.0522C200.863 46.1145 200.863 46.1767 200.863 46.1767C200.801 47.5458 197.938 48.666 196.134 49.0394Z" fill="#343458"/>
<path d="M200.426 75.1789C198.185 75.6767 196.132 75.2411 196.941 73.9342C198.061 72.1917 203.475 70.7604 204.16 72.5651C204.284 73.7475 202.044 74.8055 200.426 75.1789Z" fill="#343458"/>
<path d="M209.015 103.369C206.775 103.929 205.157 103.245 205.904 102.062C206.899 100.507 211.318 99.3864 212.065 100.942C212.314 102 210.447 102.996 209.015 103.369Z" fill="#343458"/>
<path d="M221.898 133.427C220.155 133.925 218.475 133.49 219.035 132.369C219.72 130.938 223.329 129.942 224.2 131.249C224.512 132.183 223.018 133.116 221.898 133.427Z" fill="#343458"/>
<path d="M239.136 165.168C237.581 165.665 236.336 165.168 236.772 164.172C237.394 162.865 240.008 162.305 240.692 163.363C241.066 164.11 240.008 164.919 239.136 165.168Z" fill="#343458"/>
<path d="M258.738 198.338L259.734 196.969L261.663 197.031L260.792 198.462L258.738 198.338Z" fill="#343458"/>
<path d="M285.124 233.062L285.621 232.129L286.866 232.253L286.368 233.125L285.124 233.062Z" fill="#343458"/>
<path d="M315.62 268.971L315.806 268.535L316.366 268.597L316.117 268.971H315.62Z" fill="#343458"/>
<path d="M148.339 -0.182894C145.849 0.688362 144.356 0.688388 144.605 -0.0584021C145.351 -2.04984 154.873 -5.97053 155.433 -4.47695C155.495 -4.35249 155.371 -4.16575 155.309 -4.04128C154.251 -2.5477 150.454 -0.867451 148.339 -0.182894Z" fill="#343458"/>
<path d="M138.442 20.8514C135.766 21.7849 134.148 21.5982 134.771 20.478C136.14 18.1132 144.23 14.9394 144.666 16.6197C144.666 16.7441 144.666 16.8685 144.603 16.9307C143.919 18.4243 140.621 20.1046 138.442 20.8514Z" fill="#343458"/>
<path d="M133.028 44.312C130.415 45.2455 128.734 44.9343 129.419 43.6897C130.664 41.3248 137.571 38.6488 138.256 40.2047C138.318 40.2669 138.256 40.4536 138.256 40.5158C137.945 42.0717 134.895 43.6897 133.028 44.312Z" fill="#343458"/>
<path d="M132.159 70.1988C129.545 71.1946 127.865 70.7589 128.611 69.3276C129.856 66.9005 136.141 64.5979 136.639 66.3405C136.639 66.4027 136.639 66.4649 136.639 66.5271C136.577 68.0207 133.839 69.5765 132.159 70.1988Z" fill="#343458"/>
<path d="M135.83 98.3277C133.714 99.1367 131.785 98.8255 132.532 97.3319C133.652 95.1538 138.569 93.349 139.253 94.9049C139.253 94.9671 139.253 95.0293 139.315 95.0915C139.44 96.3362 137.386 97.7053 135.83 98.3277Z" fill="#343458"/>
<path d="M144.168 128.696C142.177 129.505 140.621 129.07 141.119 127.763C141.804 125.833 146.16 124.153 146.969 125.522L147.031 125.647C147.218 126.891 145.413 128.136 144.168 128.696Z" fill="#343458"/>
<path d="M157.112 161.06C155.431 161.807 154 161.309 154.373 160.065C154.933 158.447 158.356 156.953 159.227 158.385C159.539 159.442 158.169 160.563 157.112 161.06Z" fill="#343458"/>
<path d="M174.663 195.352C173.169 196.036 171.987 195.538 172.36 194.418C172.858 192.925 175.472 192.053 176.219 193.111C176.654 193.92 175.534 194.916 174.663 195.352Z" fill="#343458"/>
<path d="M195.135 231.134L195.944 229.578L197.874 229.516L197.002 231.196L195.135 231.134Z" fill="#343458"/>
<path d="M222.52 268.659L222.956 267.601L224.263 267.539L223.765 268.659H222.52Z" fill="#343458"/>
<path d="M254.505 307.369L254.568 306.934H255.19L254.941 307.369H254.505Z" fill="#343458"/>
<path d="M108.075 6.41146C106.768 7.09602 105.15 7.96728 104.839 7.78058C104.714 6.8471 115.169 0.437141 115.978 0.872769C115.978 0.997234 115.978 1.05951 115.667 1.30844C114.111 2.86426 110.191 5.22904 108.075 6.41146Z" fill="#343458"/>
<path d="M92.7031 25.6421C90.5872 26.8246 89.3426 27.1357 89.467 26.5756C89.7782 24.8953 98.553 19.2944 99.4243 20.1656C99.5487 20.2901 99.4242 20.4768 99.2998 20.7257C98.1174 22.2815 94.6324 24.5842 92.7031 25.6421Z" fill="#343458"/>
<path d="M81.4987 47.9841C79.3828 49.1665 78.0137 49.4155 78.1382 48.6064C78.5116 46.5528 86.4773 41.3252 87.2241 42.6943C87.2863 42.8187 87.2863 43.0055 87.2241 43.1922C86.4151 44.748 83.4279 46.9261 81.4987 47.9841Z" fill="#343458"/>
<path d="M74.9652 72.9392C72.7248 74.1839 71.2313 74.2462 71.6669 73.0015C72.5381 70.5122 79.2593 66.3427 79.8816 67.9607C79.8816 68.0229 79.8816 68.2096 79.8816 68.2718C79.446 69.8898 76.7699 72.0058 74.9652 72.9392Z" fill="#343458"/>
<path d="M73.1623 100.507C70.9219 101.751 69.3662 101.689 69.8018 100.258C70.6108 97.7062 76.2739 94.2212 77.1452 95.7147C77.2074 95.777 77.2074 95.9637 77.2074 96.0259C77.0829 97.7062 74.6559 99.6354 73.1623 100.507Z" fill="#343458"/>
<path d="M76.1493 130.441C74.1578 131.562 72.7265 131.313 73.0999 129.881C73.7223 127.579 78.2652 124.84 79.1987 126.147C79.2609 126.209 79.3232 126.396 79.3232 126.458C79.4476 127.765 77.7673 129.508 76.1493 130.441Z" fill="#343458"/>
<path d="M84.0511 162.74C82.0597 163.923 80.7528 163.363 81.1262 162.056C81.7485 159.878 85.6692 157.637 86.416 159.069C86.416 159.131 86.4782 159.193 86.4782 159.193C86.7893 160.5 85.1713 162.056 84.0511 162.74Z" fill="#343458"/>
<path d="M96.8076 197.215C95.1895 198.211 93.8204 197.838 94.1938 196.406C94.6917 194.477 97.8033 192.797 98.6123 193.979C98.6123 194.042 98.6746 194.041 98.6746 194.104C99.048 195.099 97.99 196.469 96.8076 197.215Z" fill="#343458"/>
<path d="M114.545 233.624C113.176 234.495 111.994 234.059 112.305 232.752C112.741 231.072 115.043 229.952 115.79 231.072C116.226 232.068 115.292 233.126 114.545 233.624Z" fill="#343458"/>
<path d="M135.395 271.894L136.141 270.089L138.008 269.902L137.261 271.832L135.395 271.894Z" fill="#343458"/>
<path d="M163.524 311.725L163.897 310.605L165.08 310.48L164.706 311.663L163.524 311.725Z" fill="#343458"/>
<path d="M196.442 352.986L196.567 352.426L197.002 352.488L196.94 352.861L196.442 352.986Z" fill="#343458"/>
<path d="M59.7804 40.0813C57.6022 41.8861 57.3532 42.0728 57.291 42.135C57.9756 41.1393 66.5014 33.9203 67.186 33.5469C67.1237 33.6713 67.1237 33.6714 66.8126 33.9825C64.8834 35.7873 60.3405 39.6457 59.7804 40.0813Z" fill="#343458"/>
<path d="M43.166 60.4311C42.1081 61.3023 40.8633 62.298 40.5522 62.1736C40.4277 61.2401 48.6425 53.6477 49.3893 54.0211C49.3893 54.1456 49.3892 54.2078 49.1403 54.519C47.9579 56.1993 44.8463 59.062 43.166 60.4311Z" fill="#343458"/>
<path d="M30.8427 84.0171C29.2247 85.3239 28.1667 85.8841 28.1045 85.2618C28.1667 83.5193 35.1368 76.8604 36.0702 77.6694C36.1947 77.7939 36.1325 77.9805 36.0702 78.2295C35.2612 79.9098 32.523 82.6479 30.8427 84.0171Z" fill="#343458"/>
<path d="M23.3129 110.4C21.6327 111.769 20.4502 112.143 20.4502 111.334C20.5124 109.218 26.798 103.181 27.607 104.488C27.7315 104.612 27.6692 104.799 27.6692 104.924C27.1713 106.666 24.7443 109.218 23.3129 110.4Z" fill="#343458"/>
<path d="M20.6356 139.401C18.8308 140.895 17.5862 141.019 17.7729 139.712C18.1463 137.223 23.0626 132.618 24.1206 133.8C24.245 133.924 24.245 134.111 24.245 134.236C24.1206 135.916 21.9424 138.281 20.6356 139.401Z" fill="#343458"/>
<path d="M22.9397 170.893C21.5083 172.075 20.0147 172.324 20.2014 170.831C20.5126 168.466 24.4332 164.794 25.4911 165.914C25.6156 166.039 25.6778 166.226 25.6778 166.35C25.8023 167.844 24.1843 169.897 22.9397 170.893Z" fill="#343458"/>
<path d="M30.3435 204.81C28.85 206.054 27.6053 205.868 27.7298 204.436C27.9787 202.134 31.3393 199.209 32.335 200.453C32.3973 200.516 32.4595 200.64 32.4595 200.765C32.7707 202.071 31.4015 203.938 30.3435 204.81Z" fill="#343458"/>
<path d="M42.7913 241.029C41.5466 242.024 40.2397 242.024 40.3642 240.531C40.6131 238.477 43.227 236.237 44.2227 237.295C44.2849 237.357 44.3471 237.481 44.4094 237.544C44.7205 238.726 43.6003 240.344 42.7913 241.029Z" fill="#343458"/>
<path d="M60.342 279.302C59.2218 280.235 58.1639 279.924 58.2883 278.679C58.475 276.75 60.6532 275.381 61.3377 276.377C61.3377 276.377 61.3999 276.439 61.3999 276.501C61.8356 277.497 61.0266 278.742 60.342 279.302Z" fill="#343458"/>
<path d="M81.4365 319.565L82.0589 317.573L83.7391 317.324L83.179 319.378L81.4365 319.565Z" fill="#343458"/>
<path d="M109.815 361.326L110.126 360.081L111.184 359.957L110.935 361.202L109.815 361.326Z" fill="#343458"/>
<path d="M143.234 404.575L143.359 403.953H143.857L143.732 404.451L143.234 404.575Z" fill="#343458"/>
<path d="M1.2207 103.558C-0.459581 105.55 -0.646264 105.736 -0.708496 105.799C-0.272868 104.803 6.26149 96.6505 6.82159 96.2148C6.82159 96.2771 6.82157 96.2771 6.51041 96.7127C4.89236 98.9531 1.34516 103.372 1.2207 103.558Z" fill="#343458"/>
<path d="M13.9772 331.265C13.106 332.261 12.1724 332.074 12.1724 330.892C12.048 328.901 13.915 327.096 14.724 327.967C14.7862 328.029 14.8485 328.092 14.8485 328.154C15.2841 329.15 14.5996 330.581 13.9772 331.265Z" fill="#343458"/>
<path d="M35.1997 372.962L35.5109 370.846L37.0045 370.535L36.6311 372.713L35.1997 372.962Z" fill="#343458"/>
<path d="M63.3896 416.215L63.514 414.846L64.572 414.535L64.3231 416.029L63.3896 416.215Z" fill="#343458"/>
<path d="M96.9324 460.709L96.8701 460.211L97.368 460.148L97.2435 460.709H96.9324Z" fill="#343458"/>
<path d="M25.8647 474.837V473.405L26.736 473.219L26.6738 474.65L25.8647 474.837Z" fill="#343458"/>
<path d="M58.9106 520.204V519.582H59.284V520.08L58.9106 520.204Z" fill="#343458"/>
<path d="M31.5275 579.759L31.4653 579.137L31.7765 579.074L31.8387 579.634L31.5275 579.759Z" fill="#343458"/>
<path d="M16.4053 634.9L16.2808 634.402L16.5297 634.34L16.5919 634.9H16.4053Z" fill="#343458"/>
<path d="M12.7331 684.685L12.5464 684.188L12.7331 684.25L12.8576 684.623L12.7331 684.685Z" fill="#343458"/>
<path d="M19.6415 728.248L19.3926 727.75L19.5171 727.812L19.766 728.248H19.6415Z" fill="#343458"/>
<path d="M36.3208 764.838L36.0718 764.465V764.527L36.383 764.901L36.3208 764.838Z" fill="#343458"/>
</g>
</svg>
