<svg width="425" height="35" viewBox="0 0 425 35" fill="none" xmlns="http://www.w3.org/2000/svg">
<path d="M203.26 22.112C202.514 22.112 201.823 21.9907 201.188 21.748C200.563 21.496 200.017 21.146 199.55 20.698C199.093 20.2407 198.734 19.7087 198.472 19.102C198.211 18.4953 198.08 17.828 198.08 17.1C198.08 16.372 198.211 15.7047 198.472 15.098C198.734 14.4913 199.098 13.964 199.564 13.516C200.031 13.0587 200.577 12.7087 201.202 12.466C201.837 12.214 202.528 12.088 203.274 12.088C204.03 12.088 204.726 12.2187 205.36 12.48C206.004 12.732 206.55 13.11 206.998 13.614L206.088 14.496C205.715 14.104 205.295 13.8147 204.828 13.628C204.362 13.432 203.862 13.334 203.33 13.334C202.78 13.334 202.266 13.4273 201.79 13.614C201.324 13.8007 200.918 14.062 200.572 14.398C200.227 14.734 199.956 15.1353 199.76 15.602C199.574 16.0593 199.48 16.5587 199.48 17.1C199.48 17.6413 199.574 18.1453 199.76 18.612C199.956 19.0693 200.227 19.466 200.572 19.802C200.918 20.138 201.324 20.3993 201.79 20.586C202.266 20.7727 202.78 20.866 203.33 20.866C203.862 20.866 204.362 20.7727 204.828 20.586C205.295 20.39 205.715 20.0913 206.088 19.69L206.998 20.572C206.55 21.076 206.004 21.4587 205.36 21.72C204.726 21.9813 204.026 22.112 203.26 22.112ZM211.863 22.084C211.116 22.084 210.454 21.9207 209.875 21.594C209.296 21.2673 208.839 20.8193 208.503 20.25C208.167 19.6713 207.999 19.018 207.999 18.29C207.999 17.5527 208.167 16.8993 208.503 16.33C208.839 15.7607 209.296 15.3173 209.875 15C210.454 14.6733 211.116 14.51 211.863 14.51C212.6 14.51 213.258 14.6733 213.837 15C214.425 15.3173 214.882 15.7607 215.209 16.33C215.545 16.89 215.713 17.5433 215.713 18.29C215.713 19.0273 215.545 19.6807 215.209 20.25C214.882 20.8193 214.425 21.2673 213.837 21.594C213.258 21.9207 212.6 22.084 211.863 22.084ZM211.863 20.908C212.339 20.908 212.764 20.8007 213.137 20.586C213.52 20.3713 213.818 20.068 214.033 19.676C214.248 19.2747 214.355 18.8127 214.355 18.29C214.355 17.758 214.248 17.3007 214.033 16.918C213.818 16.526 213.52 16.2227 213.137 16.008C212.764 15.7933 212.339 15.686 211.863 15.686C211.387 15.686 210.962 15.7933 210.589 16.008C210.216 16.2227 209.917 16.526 209.693 16.918C209.469 17.3007 209.357 17.758 209.357 18.29C209.357 18.8127 209.469 19.2747 209.693 19.676C209.917 20.068 210.216 20.3713 210.589 20.586C210.962 20.8007 211.387 20.908 211.863 20.908ZM221.706 22.084C221.09 22.084 220.525 21.944 220.012 21.664C219.508 21.3747 219.102 20.95 218.794 20.39C218.495 19.83 218.346 19.13 218.346 18.29C218.346 17.45 218.49 16.75 218.78 16.19C219.078 15.63 219.48 15.21 219.984 14.93C220.497 14.65 221.071 14.51 221.706 14.51C222.434 14.51 223.078 14.6687 223.638 14.986C224.198 15.3033 224.641 15.7467 224.968 16.316C225.294 16.876 225.458 17.534 225.458 18.29C225.458 19.046 225.294 19.7087 224.968 20.278C224.641 20.8473 224.198 21.2907 223.638 21.608C223.078 21.9253 222.434 22.084 221.706 22.084ZM217.772 24.716V14.58H219.06V16.582L218.976 18.304L219.116 20.026V24.716H217.772ZM221.594 20.908C222.07 20.908 222.494 20.8007 222.868 20.586C223.25 20.3713 223.549 20.068 223.764 19.676C223.988 19.2747 224.1 18.8127 224.1 18.29C224.1 17.758 223.988 17.3007 223.764 16.918C223.549 16.526 223.25 16.2227 222.868 16.008C222.494 15.7933 222.07 15.686 221.594 15.686C221.127 15.686 220.702 15.7933 220.32 16.008C219.946 16.2227 219.648 16.526 219.424 16.918C219.209 17.3007 219.102 17.758 219.102 18.29C219.102 18.8127 219.209 19.2747 219.424 19.676C219.648 20.068 219.946 20.3713 220.32 20.586C220.702 20.8007 221.127 20.908 221.594 20.908ZM227.632 24.8C227.277 24.8 226.932 24.7393 226.596 24.618C226.26 24.506 225.97 24.338 225.728 24.114L226.302 23.106C226.488 23.2833 226.694 23.4187 226.918 23.512C227.142 23.6053 227.38 23.652 227.632 23.652C227.958 23.652 228.229 23.568 228.444 23.4C228.658 23.232 228.859 22.9333 229.046 22.504L229.508 21.482L229.648 21.314L232.56 14.58H233.876L230.278 22.742C230.063 23.2647 229.82 23.6753 229.55 23.974C229.288 24.2727 228.999 24.4827 228.682 24.604C228.364 24.7347 228.014 24.8 227.632 24.8ZM229.396 22.238L226.008 14.58H227.408L230.292 21.188L229.396 22.238ZM235.33 22V14.58H236.618V16.596L236.492 16.092C236.697 15.5787 237.043 15.1867 237.528 14.916C238.013 14.6453 238.611 14.51 239.32 14.51V15.812C239.264 15.8027 239.208 15.798 239.152 15.798C239.105 15.798 239.059 15.798 239.012 15.798C238.293 15.798 237.724 16.0127 237.304 16.442C236.884 16.8713 236.674 17.492 236.674 18.304V22H235.33ZM241.176 22V14.58H242.52V22H241.176ZM241.848 13.152C241.587 13.152 241.368 13.068 241.19 12.9C241.022 12.732 240.938 12.5267 240.938 12.284C240.938 12.032 241.022 11.822 241.19 11.654C241.368 11.486 241.587 11.402 241.848 11.402C242.11 11.402 242.324 11.486 242.492 11.654C242.67 11.8127 242.758 12.0133 242.758 12.256C242.758 12.508 242.674 12.7227 242.506 12.9C242.338 13.068 242.119 13.152 241.848 13.152ZM248.535 24.8C247.853 24.8 247.191 24.702 246.547 24.506C245.912 24.3193 245.394 24.0487 244.993 23.694L245.637 22.658C245.982 22.9567 246.407 23.19 246.911 23.358C247.415 23.5353 247.942 23.624 248.493 23.624C249.37 23.624 250.014 23.4187 250.425 23.008C250.835 22.5973 251.041 21.972 251.041 21.132V19.564L251.181 18.094L251.111 16.61V14.58H252.385V20.992C252.385 22.2987 252.058 23.26 251.405 23.876C250.751 24.492 249.795 24.8 248.535 24.8ZM248.367 21.692C247.648 21.692 247.004 21.5427 246.435 21.244C245.875 20.936 245.427 20.5113 245.091 19.97C244.764 19.4287 244.601 18.8033 244.601 18.094C244.601 17.3753 244.764 16.75 245.091 16.218C245.427 15.6767 245.875 15.2567 246.435 14.958C247.004 14.6593 247.648 14.51 248.367 14.51C249.001 14.51 249.58 14.6407 250.103 14.902C250.625 15.154 251.041 15.546 251.349 16.078C251.666 16.61 251.825 17.282 251.825 18.094C251.825 18.8967 251.666 19.564 251.349 20.096C251.041 20.628 250.625 21.0293 250.103 21.3C249.58 21.5613 249.001 21.692 248.367 21.692ZM248.521 20.516C249.015 20.516 249.454 20.4133 249.837 20.208C250.219 20.0027 250.518 19.718 250.733 19.354C250.957 18.99 251.069 18.57 251.069 18.094C251.069 17.618 250.957 17.198 250.733 16.834C250.518 16.47 250.219 16.19 249.837 15.994C249.454 15.7887 249.015 15.686 248.521 15.686C248.026 15.686 247.583 15.7887 247.191 15.994C246.808 16.19 246.505 16.47 246.281 16.834C246.066 17.198 245.959 17.618 245.959 18.094C245.959 18.57 246.066 18.99 246.281 19.354C246.505 19.718 246.808 20.0027 247.191 20.208C247.583 20.4133 248.026 20.516 248.521 20.516ZM259.115 14.51C259.721 14.51 260.253 14.6267 260.711 14.86C261.177 15.0933 261.541 15.448 261.803 15.924C262.064 16.4 262.195 17.002 262.195 17.73V22H260.851V17.884C260.851 17.1653 260.673 16.624 260.319 16.26C259.973 15.896 259.483 15.714 258.849 15.714C258.373 15.714 257.957 15.8073 257.603 15.994C257.248 16.1807 256.973 16.456 256.777 16.82C256.59 17.184 256.497 17.6367 256.497 18.178V22H255.153V11.612H256.497V16.582L256.231 16.05C256.473 15.5647 256.847 15.1867 257.351 14.916C257.855 14.6453 258.443 14.51 259.115 14.51ZM267.43 22.084C266.683 22.084 266.104 21.8833 265.694 21.482C265.283 21.0807 265.078 20.5067 265.078 19.76V12.956H266.422V19.704C266.422 20.1053 266.52 20.4133 266.716 20.628C266.921 20.8427 267.21 20.95 267.584 20.95C268.004 20.95 268.354 20.8333 268.634 20.6L269.054 21.566C268.848 21.7433 268.601 21.874 268.312 21.958C268.032 22.042 267.738 22.084 267.43 22.084ZM263.818 15.686V14.58H268.55V15.686H263.818ZM280.788 24.828C279.818 24.828 278.931 24.6693 278.128 24.352C277.326 24.0347 276.635 23.5913 276.056 23.022C275.478 22.4527 275.03 21.7807 274.712 21.006C274.395 20.222 274.236 19.368 274.236 18.444C274.236 17.52 274.395 16.6707 274.712 15.896C275.03 15.1213 275.478 14.4493 276.056 13.88C276.644 13.3107 277.344 12.872 278.156 12.564C278.968 12.256 279.864 12.102 280.844 12.102C281.806 12.102 282.683 12.2513 283.476 12.55C284.27 12.8487 284.956 13.2733 285.534 13.824C286.122 14.3653 286.575 15.014 286.892 15.77C287.21 16.5167 287.368 17.3427 287.368 18.248C287.368 19.0413 287.27 19.7227 287.074 20.292C286.878 20.8613 286.594 21.3047 286.22 21.622C285.856 21.93 285.408 22.084 284.876 22.084C284.354 22.084 283.934 21.9253 283.616 21.608C283.308 21.2907 283.154 20.838 283.154 20.25V19.298L283.224 18.444L283.098 16.834V14.972H284.316V20.012C284.316 20.3853 284.391 20.6467 284.54 20.796C284.699 20.9453 284.89 21.02 285.114 21.02C285.385 21.02 285.618 20.9127 285.814 20.698C286.02 20.4833 286.169 20.1707 286.262 19.76C286.365 19.34 286.416 18.8407 286.416 18.262C286.416 17.478 286.281 16.7687 286.01 16.134C285.749 15.49 285.366 14.9347 284.862 14.468C284.368 14.0013 283.78 13.6467 283.098 13.404C282.426 13.152 281.675 13.026 280.844 13.026C280.014 13.026 279.253 13.1613 278.562 13.432C277.881 13.6933 277.293 14.0667 276.798 14.552C276.304 15.028 275.921 15.5973 275.65 16.26C275.389 16.9227 275.258 17.6507 275.258 18.444C275.258 19.2467 275.389 19.984 275.65 20.656C275.912 21.3187 276.285 21.888 276.77 22.364C277.265 22.8493 277.848 23.2227 278.52 23.484C279.202 23.7547 279.958 23.89 280.788 23.89C281.218 23.89 281.67 23.8387 282.146 23.736C282.622 23.6427 283.07 23.4887 283.49 23.274L283.798 24.17C283.369 24.3847 282.884 24.548 282.342 24.66C281.801 24.772 281.283 24.828 280.788 24.828ZM280.536 22.084C279.874 22.084 279.286 21.93 278.772 21.622C278.259 21.3047 277.853 20.8753 277.554 20.334C277.256 19.7927 277.106 19.1767 277.106 18.486C277.106 17.786 277.256 17.17 277.554 16.638C277.853 16.0967 278.259 15.6767 278.772 15.378C279.286 15.07 279.874 14.916 280.536 14.916C281.18 14.916 281.745 15.056 282.23 15.336C282.716 15.6067 283.094 16.008 283.364 16.54C283.644 17.072 283.784 17.7207 283.784 18.486C283.784 19.2513 283.649 19.9 283.378 20.432C283.108 20.964 282.73 21.3747 282.244 21.664C281.759 21.944 281.19 22.084 280.536 22.084ZM280.732 20.992C281.19 20.992 281.596 20.894 281.95 20.698C282.314 20.4927 282.599 20.2033 282.804 19.83C283.019 19.4473 283.126 18.9993 283.126 18.486C283.126 17.9633 283.019 17.5153 282.804 17.142C282.599 16.7687 282.314 16.484 281.95 16.288C281.596 16.092 281.19 15.994 280.732 15.994C280.266 15.994 279.85 16.0967 279.486 16.302C279.132 16.498 278.852 16.7827 278.646 17.156C278.45 17.5293 278.352 17.9727 278.352 18.486C278.352 18.99 278.45 19.4287 278.646 19.802C278.852 20.1753 279.132 20.4693 279.486 20.684C279.85 20.8893 280.266 20.992 280.732 20.992ZM292.721 22V21.048L296.711 17.198C297.065 16.862 297.327 16.568 297.495 16.316C297.672 16.0547 297.789 15.8167 297.845 15.602C297.91 15.378 297.943 15.1633 297.943 14.958C297.943 14.454 297.765 14.0573 297.411 13.768C297.056 13.4787 296.538 13.334 295.857 13.334C295.334 13.334 294.863 13.4227 294.443 13.6C294.023 13.768 293.659 14.034 293.351 14.398L292.399 13.572C292.772 13.096 293.271 12.732 293.897 12.48C294.531 12.2187 295.227 12.088 295.983 12.088C296.664 12.088 297.257 12.2 297.761 12.424C298.265 12.6387 298.652 12.9513 298.923 13.362C299.203 13.7727 299.343 14.258 299.343 14.818C299.343 15.1353 299.301 15.448 299.217 15.756C299.133 16.064 298.974 16.3907 298.741 16.736C298.507 17.0813 298.171 17.4687 297.733 17.898L294.177 21.328L293.841 20.782H299.763V22H292.721ZM305.104 22.112C304.339 22.112 303.653 21.916 303.046 21.524C302.449 21.132 301.973 20.5627 301.618 19.816C301.273 19.0693 301.1 18.164 301.1 17.1C301.1 16.036 301.273 15.1307 301.618 14.384C301.973 13.6373 302.449 13.068 303.046 12.676C303.653 12.284 304.339 12.088 305.104 12.088C305.86 12.088 306.541 12.284 307.148 12.676C307.755 13.068 308.231 13.6373 308.576 14.384C308.921 15.1307 309.094 16.036 309.094 17.1C309.094 18.164 308.921 19.0693 308.576 19.816C308.231 20.5627 307.755 21.132 307.148 21.524C306.541 21.916 305.86 22.112 305.104 22.112ZM305.104 20.866C305.617 20.866 306.065 20.726 306.448 20.446C306.84 20.166 307.143 19.746 307.358 19.186C307.582 18.626 307.694 17.9307 307.694 17.1C307.694 16.2693 307.582 15.574 307.358 15.014C307.143 14.454 306.84 14.034 306.448 13.754C306.065 13.474 305.617 13.334 305.104 13.334C304.591 13.334 304.138 13.474 303.746 13.754C303.354 14.034 303.046 14.454 302.822 15.014C302.607 15.574 302.5 16.2693 302.5 17.1C302.5 17.9307 302.607 18.626 302.822 19.186C303.046 19.746 303.354 20.166 303.746 20.446C304.138 20.726 304.591 20.866 305.104 20.866ZM310.484 22V21.048L314.474 17.198C314.829 16.862 315.09 16.568 315.258 16.316C315.435 16.0547 315.552 15.8167 315.608 15.602C315.673 15.378 315.706 15.1633 315.706 14.958C315.706 14.454 315.529 14.0573 315.174 13.768C314.819 13.4787 314.301 13.334 313.62 13.334C313.097 13.334 312.626 13.4227 312.206 13.6C311.786 13.768 311.422 14.034 311.114 14.398L310.162 13.572C310.535 13.096 311.035 12.732 311.66 12.48C312.295 12.2187 312.99 12.088 313.746 12.088C314.427 12.088 315.02 12.2 315.524 12.424C316.028 12.6387 316.415 12.9513 316.686 13.362C316.966 13.7727 317.106 14.258 317.106 14.818C317.106 15.1353 317.064 15.448 316.98 15.756C316.896 16.064 316.737 16.3907 316.504 16.736C316.271 17.0813 315.935 17.4687 315.496 17.898L311.94 21.328L311.604 20.782H317.526V22H310.484ZM318.723 22V21.048L322.713 17.198C323.068 16.862 323.329 16.568 323.497 16.316C323.674 16.0547 323.791 15.8167 323.847 15.602C323.912 15.378 323.945 15.1633 323.945 14.958C323.945 14.454 323.768 14.0573 323.413 13.768C323.058 13.4787 322.54 13.334 321.859 13.334C321.336 13.334 320.865 13.4227 320.445 13.6C320.025 13.768 319.661 14.034 319.353 14.398L318.401 13.572C318.774 13.096 319.274 12.732 319.899 12.48C320.534 12.2187 321.229 12.088 321.985 12.088C322.666 12.088 323.259 12.2 323.763 12.424C324.267 12.6387 324.654 12.9513 324.925 13.362C325.205 13.7727 325.345 14.258 325.345 14.818C325.345 15.1353 325.303 15.448 325.219 15.756C325.135 16.064 324.976 16.3907 324.743 16.736C324.51 17.0813 324.174 17.4687 323.735 17.898L320.179 21.328L319.843 20.782H325.765V22H318.723ZM331.874 22V12.2H336.27C337.399 12.2 338.267 12.4287 338.874 12.886C339.481 13.334 339.784 13.95 339.784 14.734C339.784 15.266 339.663 15.714 339.42 16.078C339.187 16.442 338.869 16.722 338.468 16.918C338.067 17.114 337.633 17.212 337.166 17.212L337.418 16.792C337.978 16.792 338.473 16.89 338.902 17.086C339.331 17.282 339.672 17.5713 339.924 17.954C340.176 18.3273 340.302 18.794 340.302 19.354C340.302 20.194 339.985 20.8473 339.35 21.314C338.725 21.7713 337.791 22 336.55 22H331.874ZM333.274 20.866H336.494C337.269 20.866 337.861 20.7353 338.272 20.474C338.683 20.2127 338.888 19.802 338.888 19.242C338.888 18.6727 338.683 18.2573 338.272 17.996C337.861 17.7347 337.269 17.604 336.494 17.604H333.148V16.47H336.144C336.853 16.47 337.404 16.3393 337.796 16.078C338.188 15.8167 338.384 15.4247 338.384 14.902C338.384 14.3793 338.188 13.9873 337.796 13.726C337.404 13.4647 336.853 13.334 336.144 13.334H333.274V20.866ZM342.474 22V11.612H343.818V22H342.474ZM346.584 22V14.58H347.928V22H346.584ZM347.256 13.152C346.994 13.152 346.775 13.068 346.598 12.9C346.43 12.732 346.346 12.5267 346.346 12.284C346.346 12.032 346.43 11.822 346.598 11.654C346.775 11.486 346.994 11.402 347.256 11.402C347.517 11.402 347.732 11.486 347.9 11.654C348.077 11.8127 348.166 12.0133 348.166 12.256C348.166 12.508 348.082 12.7227 347.914 12.9C347.746 13.068 347.526 13.152 347.256 13.152ZM354.656 14.51C355.263 14.51 355.795 14.6267 356.252 14.86C356.719 15.0933 357.083 15.448 357.344 15.924C357.605 16.4 357.736 17.002 357.736 17.73V22H356.392V17.884C356.392 17.1653 356.215 16.624 355.86 16.26C355.515 15.896 355.025 15.714 354.39 15.714C353.914 15.714 353.499 15.8073 353.144 15.994C352.789 16.1807 352.514 16.456 352.318 16.82C352.131 17.184 352.038 17.6367 352.038 18.178V22H350.694V14.58H351.982V16.582L351.772 16.05C352.015 15.5647 352.388 15.1867 352.892 14.916C353.396 14.6453 353.984 14.51 354.656 14.51ZM361.515 20.208L361.543 18.486L365.813 14.58H367.437L364.161 17.8L363.433 18.416L361.515 20.208ZM360.423 22V11.612H361.767V22H360.423ZM366.093 22L363.181 18.388L364.049 17.31L367.745 22H366.093ZM371.05 22V13.418H367.69V12.2H375.796V13.418H372.436V22H371.05ZM377.147 22V14.58H378.435V16.596L378.309 16.092C378.515 15.5787 378.86 15.1867 379.345 14.916C379.831 14.6453 380.428 14.51 381.137 14.51V15.812C381.081 15.8027 381.025 15.798 380.969 15.798C380.923 15.798 380.876 15.798 380.829 15.798C380.111 15.798 379.541 16.0127 379.121 16.442C378.701 16.8713 378.491 17.492 378.491 18.304V22H377.147ZM386.212 22.084C385.577 22.084 385.017 21.9673 384.532 21.734C384.056 21.5007 383.682 21.146 383.412 20.67C383.15 20.1847 383.02 19.578 383.02 18.85V14.58H384.364V18.696C384.364 19.424 384.536 19.97 384.882 20.334C385.236 20.698 385.731 20.88 386.366 20.88C386.832 20.88 387.238 20.7867 387.584 20.6C387.929 20.404 388.195 20.124 388.382 19.76C388.568 19.3867 388.662 18.9387 388.662 18.416V14.58H390.006V22H388.732V19.998L388.942 20.53C388.699 21.0247 388.335 21.4073 387.85 21.678C387.364 21.9487 386.818 22.084 386.212 22.084ZM394.892 22.084C394.276 22.084 393.688 22 393.128 21.832C392.578 21.664 392.144 21.4587 391.826 21.216L392.386 20.152C392.704 20.3667 393.096 20.5487 393.562 20.698C394.029 20.8473 394.505 20.922 394.99 20.922C395.616 20.922 396.064 20.8333 396.334 20.656C396.614 20.4787 396.754 20.2313 396.754 19.914C396.754 19.6807 396.67 19.4987 396.502 19.368C396.334 19.2373 396.11 19.1393 395.83 19.074C395.56 19.0087 395.256 18.9527 394.92 18.906C394.584 18.85 394.248 18.7847 393.912 18.71C393.576 18.626 393.268 18.514 392.988 18.374C392.708 18.2247 392.484 18.024 392.316 17.772C392.148 17.5107 392.064 17.1653 392.064 16.736C392.064 16.288 392.19 15.896 392.442 15.56C392.694 15.224 393.049 14.9673 393.506 14.79C393.973 14.6033 394.524 14.51 395.158 14.51C395.644 14.51 396.134 14.5707 396.628 14.692C397.132 14.804 397.543 14.9673 397.86 15.182L397.286 16.246C396.95 16.022 396.6 15.868 396.236 15.784C395.872 15.7 395.508 15.658 395.144 15.658C394.556 15.658 394.118 15.756 393.828 15.952C393.539 16.1387 393.394 16.3813 393.394 16.68C393.394 16.932 393.478 17.128 393.646 17.268C393.824 17.3987 394.048 17.5013 394.318 17.576C394.598 17.6507 394.906 17.716 395.242 17.772C395.578 17.8187 395.914 17.884 396.25 17.968C396.586 18.0427 396.89 18.15 397.16 18.29C397.44 18.43 397.664 18.626 397.832 18.878C398.01 19.13 398.098 19.466 398.098 19.886C398.098 20.334 397.968 20.7213 397.706 21.048C397.445 21.3747 397.076 21.6313 396.6 21.818C396.124 21.9953 395.555 22.084 394.892 22.084ZM402.526 22.084C401.779 22.084 401.201 21.8833 400.79 21.482C400.379 21.0807 400.174 20.5067 400.174 19.76V12.956H401.518V19.704C401.518 20.1053 401.616 20.4133 401.812 20.628C402.017 20.8427 402.307 20.95 402.68 20.95C403.1 20.95 403.45 20.8333 403.73 20.6L404.15 21.566C403.945 21.7433 403.697 21.874 403.408 21.958C403.128 22.042 402.834 22.084 402.526 22.084ZM398.914 15.686V14.58H403.646V15.686H398.914ZM408.647 22L413.085 12.2H414.471L418.923 22H417.453L413.491 12.984H414.051L410.089 22H408.647ZM410.537 19.55L410.915 18.43H416.431L416.837 19.55H410.537ZM420.584 22V12.2H421.984V22H420.584Z" fill="#19191F"/>
<line x1="177.908" y1="0.5" x2="177.908" y2="34.5" stroke="black" stroke-linecap="round"/>
<path d="M87.7525 10.1562V12.4288H84.0276V24.194H81.2239V12.4288H77.499V10.1562H87.7525Z" fill="#19191F"/>
<path d="M92.6019 14.7819C92.9624 14.1919 93.4297 13.7294 94.0038 13.3942C94.5912 13.059 95.2587 12.8914 96.0064 12.8914V15.8478H95.2654C94.3843 15.8478 93.7167 16.0556 93.2628 16.4712C92.8222 16.8869 92.6019 17.6109 92.6019 18.6433V24.194H89.7982V13.0523H92.6019V14.7819Z" fill="#19191F"/>
<path d="M108.369 13.0523V24.194H105.545V22.7862C105.184 23.2689 104.71 23.651 104.123 23.9325C103.549 24.2007 102.921 24.3348 102.241 24.3348C101.373 24.3348 100.605 24.1538 99.9375 23.7918C99.27 23.4164 98.7426 22.8733 98.3554 22.1627C97.9816 21.4387 97.7947 20.5807 97.7947 19.5885V13.0523H100.598V19.1863C100.598 20.0712 100.819 20.7549 101.259 21.2376C101.7 21.7069 102.301 21.9415 103.062 21.9415C103.836 21.9415 104.443 21.7069 104.884 21.2376C105.325 20.7549 105.545 20.0712 105.545 19.1863V13.0523H108.369Z" fill="#19191F"/>
<path d="M115.381 24.375C114.473 24.375 113.658 24.2141 112.937 23.8923C112.216 23.5571 111.642 23.108 111.215 22.5449C110.801 21.9817 110.574 21.3583 110.534 20.6745H113.358C113.411 21.1035 113.618 21.4588 113.979 21.7404C114.353 22.022 114.813 22.1627 115.361 22.1627C115.895 22.1627 116.308 22.0555 116.602 21.841C116.909 21.6264 117.063 21.3516 117.063 21.0164C117.063 20.6544 116.876 20.3862 116.502 20.2119C116.142 20.0242 115.561 19.8231 114.76 19.6086C113.932 19.4075 113.251 19.1997 112.717 18.9851C112.196 18.7706 111.742 18.4421 111.355 17.9997C110.981 17.5572 110.794 16.9606 110.794 16.2098C110.794 15.593 110.968 15.0299 111.315 14.5204C111.676 14.0109 112.183 13.6087 112.837 13.3137C113.505 13.0188 114.286 12.8713 115.18 12.8713C116.502 12.8713 117.557 13.2065 118.344 13.8769C119.132 14.5338 119.566 15.4254 119.646 16.5517H116.963C116.923 16.1092 116.736 15.7606 116.402 15.5059C116.081 15.2377 115.648 15.1036 115.1 15.1036C114.593 15.1036 114.199 15.1975 113.919 15.3852C113.652 15.5729 113.518 15.8344 113.518 16.1696C113.518 16.545 113.705 16.8332 114.079 17.0343C114.453 17.222 115.033 17.4165 115.821 17.6176C116.622 17.8187 117.283 18.0265 117.804 18.241C118.324 18.4555 118.772 18.7907 119.145 19.2466C119.533 19.689 119.733 20.279 119.746 21.0164C119.746 21.66 119.566 22.2365 119.206 22.746C118.858 23.2555 118.351 23.6577 117.684 23.9527C117.029 24.2342 116.262 24.375 115.381 24.375Z" fill="#19191F"/>
<path d="M125.312 15.3651V20.7549C125.312 21.1304 125.399 21.4052 125.572 21.5795C125.759 21.7404 126.066 21.8209 126.494 21.8209H127.795V24.194H126.033C123.67 24.194 122.488 23.0409 122.488 20.7348V15.3651H121.167V13.0523H122.488V10.297H125.312V13.0523H127.795V15.3651H125.312Z" fill="#19191F"/>
<path d="M139.841 21.547H134.273L133.352 24.2236H130.408L135.435 10.1562H138.699L143.726 24.2236H140.762L139.841 21.547ZM139.08 19.293L137.057 13.4165L135.034 19.293H139.08Z" fill="#7465F1"/>
<path d="M148.408 10.1764V24.2236H145.605V10.1764H148.408Z" fill="#7465F1"/>
<path d="M35.5026 17.019C36.1825 16.8163 36.7852 16.4102 37.2307 15.8547C37.6737 15.266 37.9021 14.5418 37.8778 13.8036C37.8888 13.1424 37.7043 12.4928 37.3476 11.9374C36.9623 11.3638 36.4159 10.9189 35.7781 10.6597C35.0059 10.3329 34.1734 10.1753 33.3361 10.1974H27.6006V24.2189H33.6074C34.4508 24.2399 35.2885 24.0749 36.0619 23.7356C36.7083 23.4545 37.2594 22.9901 37.6482 22.399C38.0203 21.8094 38.2106 21.122 38.195 20.4235C38.2051 19.626 37.9411 18.8494 37.4478 18.2253C36.9734 17.5908 36.2787 17.16 35.5026 17.019ZM30.3932 12.4586H32.9479C33.4986 12.4207 34.0443 12.585 34.484 12.921C34.6657 13.0831 34.8085 13.2846 34.9018 13.5102C34.995 13.7359 35.0363 13.9799 35.0225 14.2239C35.0372 14.4675 34.9964 14.7111 34.903 14.9363C34.8097 15.1614 34.6663 15.362 34.484 15.5227C34.04 15.8489 33.4964 16.008 32.9479 15.9724H30.3932V12.4586ZM34.7929 21.4365C34.3391 21.7845 33.776 21.9561 33.2067 21.9198H30.3932V18.137H33.1483C33.7306 18.1054 34.3047 18.2876 34.7637 18.6498C34.9639 18.8246 35.1221 19.043 35.2262 19.2883C35.3304 19.5337 35.3777 19.7997 35.3648 20.0663C35.3802 20.3235 35.3366 20.5809 35.2374 20.8185C35.1383 21.056 34.9862 21.2675 34.7929 21.4365Z" fill="#19191F"/>
<path d="M43.2213 9.34375H40.4287V24.2101H43.2213V9.34375Z" fill="#19191F"/>
<path d="M48.8893 13.0781H46.0967V24.208H48.8893V13.0781Z" fill="#19191F"/>
<path d="M57.6513 12.9186C56.9921 12.9125 56.3401 13.0561 55.7437 13.3389C55.1839 13.5958 54.6941 13.9851 54.3161 14.4737V13.0867H51.5234V24.2165H54.3161V18.059C54.2685 17.3181 54.5079 16.5875 54.984 16.0205C55.2218 15.779 55.5076 15.5909 55.8227 15.4685C56.1378 15.3461 56.475 15.2921 56.8123 15.3102C57.1445 15.2929 57.4765 15.3474 57.7861 15.4699C58.0956 15.5924 58.3756 15.7801 58.6073 16.0205C59.0788 16.5896 59.3149 17.3194 59.2668 18.059V24.2081H62.0761V17.6807C62.0761 16.1816 61.6698 15.0117 60.8572 14.1711C60.4389 13.7491 59.9376 13.4198 59.3856 13.2041C58.8335 12.9884 58.2429 12.8912 57.6513 12.9186Z" fill="#19191F"/>
<path d="M74.8452 13.0803H71.2135L67.5026 17.8046V9.34375H64.71V24.2101H67.5026V19.469L71.2553 24.2101H74.8869L69.9779 18.6662L74.8452 13.0803Z" fill="#19191F"/>
<path d="M47.5161 11.3909C48.2746 11.3909 48.8895 10.7717 48.8895 10.008C48.8895 9.24417 48.2746 8.625 47.5161 8.625C46.7575 8.625 46.1426 9.24417 46.1426 10.008C46.1426 10.7717 46.7575 11.3909 47.5161 11.3909Z" fill="#7465F1"/>
<path d="M13.0648 24.7808C17.6159 23.5553 20.3167 18.8543 19.0973 14.2808C17.8778 9.70725 13.1998 6.99312 8.64872 8.21859C4.09761 9.44406 1.39678 14.1451 2.61624 18.7186C3.83571 23.2921 8.51369 26.0062 13.0648 24.7808Z" fill="#7465F1"/>
<path d="M11.9987 20.7822C14.3527 20.1483 15.7497 17.7168 15.1189 15.3512C14.4882 12.9856 12.0685 11.5817 9.71449 12.2156C7.36047 12.8494 5.96348 15.281 6.59424 17.6466C7.225 20.0122 9.64465 21.4161 11.9987 20.7822Z" fill="white"/>
<path d="M12.4602 18.5154C13.7157 18.1773 14.4608 16.8805 14.1244 15.6188C13.788 14.3571 12.4975 13.6084 11.242 13.9465C9.98652 14.2845 9.24146 15.5814 9.57786 16.843C9.91427 18.1047 11.2047 18.8534 12.4602 18.5154Z" fill="#292929"/>
<path d="M19.0211 13.9952L2.5401 18.433C2.05824 16.2565 2.42459 13.9791 3.56272 12.076C4.70085 10.1729 6.52288 8.79101 8.64872 8.21859C10.7746 7.64617 13.0401 7.92743 14.9726 9.00371C16.9051 10.08 18.3555 11.8682 19.0211 13.9952Z" fill="#3D36A8"/>
</svg>
