<svg width="46" height="46" viewBox="0 0 46 46" fill="none" xmlns="http://www.w3.org/2000/svg">
<path d="M27.8605 41.1395C37.8787 38.4552 43.8239 28.1577 41.1395 18.1395C38.4552 8.12135 28.1577 2.17611 18.1395 4.86047C8.12135 7.54484 2.17611 17.8423 4.86047 27.8605C7.54484 37.8787 17.8423 43.8239 27.8605 41.1395Z" fill="#7465F1"/>
<path d="M25.5141 32.3825C30.6959 30.994 33.771 25.6677 32.3826 20.4859C30.9941 15.3041 25.6679 12.229 20.486 13.6174C15.3042 15.0059 12.2291 20.3322 13.6176 25.514C15.006 30.6958 20.3323 33.7709 25.5141 32.3825Z" fill="white"/>
<path d="M26.5304 27.4174C29.294 26.6769 30.9341 23.8362 30.1936 21.0726C29.453 18.309 26.6124 16.6689 23.8487 17.4094C21.0851 18.1499 19.445 20.9906 20.1855 23.7543C20.9261 26.5179 23.7667 28.158 26.5304 27.4174Z" fill="#292929"/>
<path d="M40.9719 17.514L4.69287 27.235C3.63217 22.4673 4.43859 17.4788 6.94391 13.3101C9.44924 9.14137 13.46 6.11435 18.1395 4.86048C22.8191 3.6066 27.806 4.2227 32.06 6.58026C36.3141 8.93783 39.5067 12.8548 40.9719 17.514Z" fill="#3D36A8"/>
</svg>
