<svg width="18" height="18" viewBox="0 0 18 18" fill="none" xmlns="http://www.w3.org/2000/svg">
<path d="M16.2067 0.0429688H7.50734C6.5478 0.0429688 5.76747 0.823302 5.76747 1.78284V5.26259H2.28772C1.32818 5.26259 0.547852 6.04292 0.547852 7.00246V15.7018C0.547852 16.6614 1.32818 17.4417 2.28772 17.4417H10.9871C11.9466 17.4417 12.727 16.6614 12.727 15.7018V12.2221H16.2067C17.1662 12.2221 17.9466 11.4417 17.9466 10.4822V1.78284C17.9466 0.823302 17.1662 0.0429688 16.2067 0.0429688ZM2.28772 15.7018V7.00246H10.9871L10.9888 15.7018H2.28772ZM16.2067 10.4822H12.727V7.00246C12.727 6.04292 11.9466 5.26259 10.9871 5.26259H7.50734V1.78284H16.2067V10.4822Z" fill="white"/>
</svg>
