<svg width="21" height="14" viewBox="0 0 21 14" fill="none" xmlns="http://www.w3.org/2000/svg">
<path d="M20 12H12C11.4 12 11 12.4 11 13C11 13.6 11.4 14 12 14H20C20.6 14 21 13.6 21 13C21 12.4 20.6 12 20 12ZM20 8H12C11.4 8 11 8.4 11 9C11 9.6 11.4 10 12 10H20C20.6 10 21 9.6 21 9C21 8.4 20.6 8 20 8ZM12 2H20C20.6 2 21 1.6 21 1C21 0.4 20.6 0 20 0H12C11.4 0 11 0.4 11 1C11 1.6 11.4 2 12 2ZM20 4H12C11.4 4 11 4.4 11 5C11 5.6 11.4 6 12 6H20C20.6 6 21 5.6 21 5C21 4.4 20.6 4 20 4ZM7.99995 0C7.39995 0 6.99995 0.4 6.99995 1V13C6.99995 13.6 7.39995 14 7.99995 14C8.59995 14 8.99995 13.6 8.99995 13V1C8.99995 0.4 8.59995 0 7.99995 0ZM2.59995 4.6C2.19995 4.2 1.59995 4.3 1.19995 4.7C0.799952 5.1 0.899952 5.8 1.29995 6.1L2.39995 7L1.29995 7.9C1.09995 8.1 0.999952 8.4 0.999952 8.7C0.999952 9.3 1.39995 9.7 1.99995 9.7C2.19995 9.7 2.49995 9.6 2.59995 9.5L4.59995 7.8L4.69995 7.7C5.09995 7.3 4.99995 6.6 4.59995 6.3L2.59995 4.6Z" fill="#5B588F"/>
</svg>
